<svg width="181" height="171" viewBox="0 0 181 171" fill="none" xmlns="http://www.w3.org/2000/svg">
<path d="M0.284317 63.0169C0.340863 62.5748 0.874518 60.99 1.06536 60.4452C4.17894 51.6335 14.4315 47.5265 22.6766 52.2985L51.0416 31.4135C51.9287 30.5433 50.9462 29.4608 50.7907 28.5022C49.8153 22.4956 51.2501 17.094 56.1697 13.2488C66.9523 4.81906 82.2163 14.0376 80.3609 27.3101L102.308 37.9224C107.146 30.3275 116.275 27.7346 124.068 32.786C124.919 33.3379 125.99 34.8377 126.845 34.6326L151.447 19.7294C146.531 4.45825 166.113 -6.9606 176.892 4.95348C187.187 16.337 175.592 34.1161 161.197 29.4962C159.752 29.0328 158.426 27.5506 156.91 28.3359L131.069 43.7698C130.641 44.2544 130.422 48.0111 130.122 49.175C126.17 64.393 104.336 63.5299 100.884 48.5064L75.8937 36.189C70.8081 40.6851 64.1922 41.191 58.0993 38.4742L30.0665 59.4724C28.9391 60.5231 30.1407 62.1503 30.2468 63.544C31.8583 84.5139 2.56737 85.4761 0.284317 67.6015C0.150019 66.5579 0.150019 64.057 0.284317 63.0134V63.0169Z" fill="url(#paint0_linear_398_1122)"/>
<path d="M0.283203 167.155V114.203C1.35758 112.675 1.92658 111.112 4.00465 110.691C10.9846 111.278 19.4029 109.845 26.2026 110.666C28.058 110.889 29.4434 112.116 30.0831 113.839L29.9735 167.76C29.1819 169.313 27.9343 170.371 26.1637 170.654C19.3958 170.212 11.6773 171.347 5.02602 170.703C2.54859 170.463 1.53075 169.143 0.283203 167.155Z" fill="url(#paint1_linear_398_1122)"/>
<path d="M155.314 60.2824C159.159 59.72 172.13 59.6917 175.989 60.2223C178.3 60.5371 180.173 62.0087 180.696 64.3328L180.785 166.282C180.527 168.44 178.735 170.176 176.699 170.665C169.942 170.046 161.439 171.584 154.897 170.657C152.953 170.382 151.575 169.027 150.886 167.262L150.805 64.6016C151.218 62.129 152.879 60.6468 155.311 60.2895L155.314 60.2824Z" fill="url(#paint2_linear_398_1122)"/>
<path d="M54.1277 70.5093C60.9521 71.093 70.0313 69.4375 76.5872 70.4527C78.9621 70.8206 80.2379 73.0704 80.5737 75.2884L80.6797 164.874C80.457 167.47 79.5629 169.812 76.884 170.605C70.0631 170.017 60.9804 171.676 54.4246 170.661C52.4949 170.364 50.7491 168.433 50.431 166.54L50.332 75.5325C50.3921 73.1058 51.8765 71.2451 54.1277 70.5093Z" fill="url(#paint3_linear_398_1122)"/>
<path d="M104.186 90.6299C111.007 91.2171 120.089 89.5581 126.645 90.5733C128.469 90.8563 130.197 92.6498 130.564 94.415L130.723 165.921C130.462 168.266 129.137 169.861 126.938 170.604C120.118 170.017 111.031 171.676 104.479 170.661C101.45 170.19 100.581 167.152 100.386 164.52C98.7537 142.538 101.652 118.554 100.386 96.3606C100.609 93.7676 101.503 91.4223 104.182 90.6299H104.186Z" fill="url(#paint4_linear_398_1122)"/>
<defs>
<linearGradient id="paint0_linear_398_1122" x1="211.939" y1="42.195" x2="-61.6776" y2="30.8434" gradientUnits="userSpaceOnUse">
<stop stop-color="#FFE1AF"/>
<stop offset="1" stop-color="#156489"/>
</linearGradient>
<linearGradient id="paint1_linear_398_1122" x1="35.2168" y1="142.236" x2="-9.99608" y2="141.826" gradientUnits="userSpaceOnUse">
<stop stop-color="#FFE1AF"/>
<stop offset="1" stop-color="#156489"/>
</linearGradient>
<linearGradient id="paint2_linear_398_1122" x1="185.95" y1="118.305" x2="140.461" y2="118.079" gradientUnits="userSpaceOnUse">
<stop stop-color="#FFE1AF"/>
<stop offset="1" stop-color="#156489"/>
</linearGradient>
<linearGradient id="paint3_linear_398_1122" x1="85.9078" y1="123.192" x2="39.8614" y2="122.937" gradientUnits="userSpaceOnUse">
<stop stop-color="#FFE1AF"/>
<stop offset="1" stop-color="#156489"/>
</linearGradient>
<linearGradient id="paint4_linear_398_1122" x1="136.038" y1="132.727" x2="89.2298" y2="132.397" gradientUnits="userSpaceOnUse">
<stop stop-color="#FFE1AF"/>
<stop offset="1" stop-color="#156489"/>
</linearGradient>
</defs>
</svg>
