<svg width="912" height="688" viewBox="0 0 912 688" fill="none" xmlns="http://www.w3.org/2000/svg">
<path d="M275.21 551.498H204.9V481.21H275.21V551.498ZM210.941 545.465H269.169V487.254H210.941V545.465Z" fill="#A0AFC1"/>
<path d="M660.349 6.03857H415.484C389.097 6.03857 367.705 27.4236 367.705 53.8033V632.888C367.705 659.267 389.097 680.652 415.484 680.652H660.349C686.737 680.652 708.128 659.267 708.128 632.888V53.8033C708.128 27.4236 686.737 6.03857 660.349 6.03857Z" fill="#163C54"/>
<path d="M660.355 683.672H415.486C387.479 683.672 364.691 660.891 364.691 632.888V53.8033C364.691 25.8046 387.479 3.01929 415.486 3.01929H660.355C688.363 3.01929 711.15 25.7998 711.15 53.8033V632.892C711.15 660.891 688.363 683.676 660.355 683.676V683.672ZM415.486 9.05784C390.81 9.05784 370.727 29.1297 370.727 53.8033V632.892C370.727 657.566 390.805 677.638 415.486 677.638H660.355C685.032 677.638 705.115 657.566 705.115 632.892V53.8033C705.115 29.1297 685.037 9.05784 660.355 9.05784H415.486Z" fill="#163C54"/>
<path d="M646.306 6.03857H401.442C375.054 6.03857 353.662 27.4236 353.662 53.8033V632.888C353.662 659.267 375.054 680.652 401.442 680.652H646.306C672.694 680.652 694.085 659.267 694.085 632.888V53.8033C694.085 27.4236 672.694 6.03857 646.306 6.03857Z" fill="white"/>
<path d="M646.312 686.691H401.443C371.765 686.691 347.623 662.556 347.623 632.888V53.8033C347.623 24.1348 371.765 0 401.443 0H646.312C675.985 0 700.127 24.1348 700.127 53.8033V632.892C700.127 662.561 675.985 686.696 646.312 686.696V686.691ZM401.443 12.0771C378.427 12.0771 359.704 30.7947 359.704 53.8033V632.892C359.704 655.901 378.427 674.619 401.443 674.619H646.312C669.328 674.619 688.051 655.901 688.051 632.892V53.8033C688.051 30.7947 669.328 12.0771 646.312 12.0771H401.443Z" fill="#163C54"/>
<path d="M621.268 573.784H404.328V579.822H621.268V573.784Z" fill="#A0AFC1"/>
<path d="M639.894 592.938H404.328V598.977H639.894V592.938Z" fill="#A0AFC1"/>
<path d="M576.018 612.093H404.328V618.131H576.018V612.093Z" fill="#A0AFC1"/>
<path d="M536.989 495.583H404.328V513.942H536.989V495.583Z" fill="#A0AFC1"/>
<path d="M588.264 526.737H404.328V545.096H588.264V526.737Z" fill="#A0AFC1"/>
<path d="M642.593 453.566H636.553V459.604H642.593V453.566Z" fill="#A0AFC1"/>
<path d="M630.463 459.604H624.379V453.566H630.463V459.604ZM618.295 459.604H612.211V453.566H618.295V459.604ZM606.127 459.604H600.043V453.566H606.127V459.604ZM593.958 459.604H587.874V453.566H593.958V459.604ZM581.785 459.604H575.701V453.566H581.785V459.604ZM569.617 459.604H563.533V453.566H569.617V459.604ZM557.449 459.604H551.365V453.566H557.449V459.604ZM545.281 459.604H539.197V453.566H545.281V459.604ZM533.108 459.604H527.024V453.566H533.108V459.604ZM520.939 459.604H514.855V453.566H520.939V459.604ZM508.771 459.604H502.687V453.566H508.771V459.604ZM496.598 459.604H490.514V453.566H496.598V459.604ZM484.43 459.604H478.346V453.566H484.43V459.604ZM472.262 459.604H466.178V453.566H472.262V459.604ZM460.089 459.604H454.005V453.566H460.089V459.604ZM447.92 459.604H441.836V453.566H447.92V459.604ZM435.752 459.604H429.668V453.566H435.752V459.604ZM423.584 459.604H417.5V453.566H423.584V459.604Z" fill="#A0AFC1"/>
<path d="M411.417 453.566H405.377V459.604H411.417V453.566Z" fill="#A0AFC1"/>
<path d="M411.417 447.741H405.377V441.911H411.417V447.741ZM411.417 436.081H405.377V430.251H411.417V436.081ZM411.417 424.426H405.377V418.597H411.417V424.426ZM411.417 412.767H405.377V406.937H411.417V412.767ZM411.417 401.112H405.377V395.282H411.417V401.112ZM411.417 389.457H405.377V383.627H411.417V389.457ZM411.417 377.798H405.377V371.968H411.417V377.798ZM411.417 366.138H405.377V360.308H411.417V366.138ZM411.417 354.483H405.377V348.653H411.417V354.483ZM411.417 342.828H405.377V336.998H411.417V342.828ZM411.417 331.169H405.377V325.339H411.417V331.169ZM411.417 319.514H405.377V313.684H411.417V319.514ZM411.417 307.854H405.377V302.024H411.417V307.854Z" fill="#A0AFC1"/>
<path d="M411.417 290.161H405.377V296.2H411.417V290.161Z" fill="#A0AFC1"/>
<path d="M630.463 296.2H624.379V290.161H630.463V296.2ZM618.295 296.2H612.211V290.161H618.295V296.2ZM606.127 296.2H600.043V290.161H606.127V296.2ZM593.958 296.2H587.874V290.161H593.958V296.2ZM581.785 296.2H575.701V290.161H581.785V296.2ZM569.617 296.2H563.533V290.161H569.617V296.2ZM557.449 296.2H551.365V290.161H557.449V296.2ZM545.281 296.2H539.197V290.161H545.281V296.2ZM533.108 296.2H527.024V290.161H533.108V296.2ZM520.939 296.2H514.855V290.161H520.939V296.2ZM508.771 296.2H502.687V290.161H508.771V296.2ZM496.603 296.2H490.519V290.161H496.603V296.2ZM484.43 296.2H478.346V290.161H484.43V296.2ZM472.262 296.2H466.178V290.161H472.262V296.2ZM460.094 296.2H454.009V290.161H460.094V296.2ZM447.92 296.2H441.836V290.161H447.92V296.2ZM435.752 296.2H429.668V290.161H435.752V296.2ZM423.584 296.2H417.5V290.161H423.584V296.2Z" fill="#A0AFC1"/>
<path d="M642.593 290.161H636.553V296.2H642.593V290.161Z" fill="#A0AFC1"/>
<path d="M642.593 447.741H636.553V441.911H642.593V447.741ZM642.593 436.081H636.553V430.251H642.593V436.081ZM642.593 424.426H636.553V418.597H642.593V424.426ZM642.593 412.767H636.553V406.937H642.593V412.767ZM642.593 401.112H636.553V395.282H642.593V401.112ZM642.593 389.457H636.553V383.627H642.593V389.457ZM642.593 377.798H636.553V371.968H642.593V377.798ZM642.593 366.143H636.553V360.313H642.593V366.143ZM642.593 354.483H636.553V348.653H642.593V354.483ZM642.593 342.828H636.553V336.998H642.593V342.828ZM642.593 331.169H636.553V325.339H642.593V331.169ZM642.593 319.514H636.553V313.684H642.593V319.514ZM642.593 307.854H636.553V302.024H642.593V307.854Z" fill="#A0AFC1"/>
<path d="M239.216 534.344L220.012 515.141L224.28 510.874L239.216 525.805L299.265 465.774L303.533 470.046L239.216 534.344Z" fill="black"/>
<path d="M804.732 152.716L801.357 147.711C802.212 147.139 803.067 146.576 803.926 146.017L807.199 151.09C806.373 151.624 805.548 152.163 804.727 152.716H804.732Z" fill="#A0AFC1"/>
<path d="M752.115 213.301L746.73 210.563C747.648 208.762 748.58 206.995 749.537 205.257L754.83 208.16C753.907 209.84 753.004 211.553 752.115 213.296V213.301ZM757.699 203.117L752.499 200.049C753.523 198.311 754.572 196.602 755.641 194.928L760.734 198.17C759.705 199.787 758.69 201.437 757.699 203.117ZM763.939 193.331L758.962 189.913C760.108 188.248 761.268 186.613 762.448 185.02L767.304 188.613C766.163 190.151 765.041 191.724 763.934 193.336L763.939 193.331ZM770.839 184.011L766.114 180.249C767.372 178.666 768.654 177.123 769.95 175.613L774.529 179.55C773.281 181.001 772.048 182.491 770.834 184.011H770.839ZM778.394 175.23L773.961 171.128C775.335 169.647 776.729 168.201 778.142 166.793L782.41 171.065C781.055 172.419 779.715 173.807 778.394 175.234V175.23ZM786.585 167.055L782.482 162.623C783.963 161.25 785.464 159.915 786.984 158.619L790.907 163.206C789.45 164.453 788.008 165.735 786.581 167.055H786.585ZM795.379 159.536L791.635 154.794C793.218 153.546 794.816 152.333 796.428 151.158L799.987 156.036C798.438 157.167 796.899 158.337 795.374 159.536H795.379Z" fill="#A0AFC1"/>
<path d="M748.296 221.261L742.795 218.771C743.217 217.839 743.645 216.907 744.077 215.99L749.544 218.558C749.122 219.451 748.709 220.354 748.296 221.261Z" fill="#A0AFC1"/>
<path d="M229.699 404.923L217.861 411.757L206.023 418.592V404.923V391.253L217.861 398.088L229.699 404.923Z" fill="#080717"/>
<path d="M487.718 401.903H239.717V407.942H487.718V401.903Z" fill="#080717"/>
<path d="M514.972 401.903H500.473V407.942H514.972V401.903Z" fill="#080717"/>
<path d="M317.152 404.922C317.152 408.971 313.87 412.257 309.815 412.257C305.761 412.257 302.479 408.976 302.479 404.922C302.479 400.869 305.761 397.588 309.815 397.588C313.87 397.588 317.152 400.869 317.152 404.922Z" fill="white"/>
<path d="M309.818 415.276C304.108 415.276 299.461 410.631 299.461 404.922C299.461 399.214 304.108 394.569 309.818 394.569C315.528 394.569 320.175 399.214 320.175 404.922C320.175 410.631 315.528 415.276 309.818 415.276ZM309.818 400.607C307.439 400.607 305.501 402.544 305.501 404.922C305.501 407.301 307.439 409.238 309.818 409.238C312.197 409.238 314.135 407.301 314.135 404.922C314.135 402.544 312.197 400.607 309.818 400.607Z" fill="#080717"/>
<path d="M0.032707 652.503C-1.25403 667.25 35.5856 682.511 82.3162 686.589C129.047 690.666 167.974 682.011 169.261 667.26C170.548 652.513 133.708 637.251 86.9776 633.174C40.247 629.096 1.31945 637.751 0.032707 652.503Z" fill="#080717"/>
<path d="M102.172 207.17L133.831 101.291C133.831 101.291 147.897 98.0583 149.364 105.718C150.825 113.378 153.642 156.56 153.642 156.56C153.642 156.56 103.638 214.829 102.177 207.17H102.172Z" fill="#A0AFC1"/>
<path d="M254.836 141.911C252.291 132.955 162.783 143.503 162.783 143.503C162.783 143.503 133.464 160.303 124.151 171.327C114.833 182.351 106.297 192.899 102.175 207.17C98.0475 221.441 85.7676 255.653 85.7676 255.653L184.381 185.923L219.021 169.084C219.021 169.084 259.497 158.308 254.841 141.906L254.836 141.911Z" fill="#A0AFC1"/>
<path d="M115.873 182.739C115.285 182.739 114.688 182.54 114.197 182.137C113.081 181.215 112.925 179.555 113.848 178.438C127.342 162.133 151.037 146.818 152.037 146.173C153.256 145.391 154.883 145.741 155.669 146.959C156.456 148.177 156.101 149.804 154.883 150.59C154.645 150.745 130.867 166.113 117.897 181.783C117.378 182.409 116.63 182.734 115.873 182.734V182.739Z" fill="#080717"/>
<path d="M76.5634 282.642C76.5634 282.642 78.8747 260.788 94.3205 234.838C99.4675 226.188 106.081 217.082 114.549 208.179C132.491 189.316 147.965 175.259 158.551 166.206C167.563 158.502 179.814 155.774 191.258 158.871L268.259 179.695C268.259 179.695 274.479 201.291 255.78 203.068C247.652 203.84 192.327 202.461 192.327 202.461C192.327 202.461 162.44 227.091 166.354 249.289C170.267 271.487 183.785 259.861 192.137 254.774C197.813 251.318 223.597 306.325 192.186 337.227C174.317 354.808 121.167 391.122 76.68 420.771L76.5586 282.642H76.5634Z" fill="#A0AFC1"/>
<path d="M127.027 198.389C126.275 198.389 125.527 198.063 125.003 197.442C124.075 196.326 124.231 194.67 125.342 193.743C125.741 193.413 165.246 160.599 169.669 156.342C174.564 151.634 206.344 159.424 224.854 164.483C226.252 164.866 227.078 166.313 226.694 167.71C226.31 169.108 224.849 169.929 223.465 169.55C202.023 163.686 176.666 158.459 173.136 160.264C168.747 164.521 130.329 196.432 128.698 197.787C128.207 198.194 127.61 198.394 127.018 198.394L127.027 198.389Z" fill="#080717"/>
<path d="M305.701 201.422L241.242 104.111C262.762 89.8936 285.016 83.7143 310.78 84.8356L305.701 201.417V201.422Z" fill="#72562B"/>
<path d="M305.699 201.422L310.778 84.8406C375.178 87.6463 425.133 142.105 422.326 206.5C419.519 270.885 365.02 320.834 300.62 318.029C236.2 315.223 186.26 260.73 189.062 196.345C190.746 157.711 208.994 125.465 241.24 104.112L305.699 201.422Z" fill="#72562B"/>
<path d="M305.68 201.422L415.024 242.289C437.602 181.914 406.929 114.679 346.554 92.1072C334.474 87.5929 323.631 85.3988 310.759 84.8406L305.68 201.422Z" fill="#A0AFC1"/>
<path d="M191.846 255.177C197.07 251.066 230.288 228.601 241.271 224.106C246.622 221.917 255.639 220.106 263.369 220.232C260.529 219.936 273.401 220.266 266.103 220.363C272.954 220.936 278.174 223.353 277.757 228.897C276.839 241.105 252.182 253.168 241.47 270.371C230.759 287.574 218.29 319.621 182.382 345.158C172.448 352.221 151.525 359.905 129.169 370.992C115.258 366.415 105.28 358.74 100.895 348.032C89.6494 320.558 186.621 259.284 191.841 255.172L191.846 255.177Z" fill="#A0AFC1"/>
<path d="M142.534 676.085C142.35 678.9 141.898 681.643 141.243 684.298C125.671 687.535 104.928 688.555 82.3197 686.584C62.6301 684.866 44.7226 681.157 30.6607 676.347C-13.4478 561.464 -0.478459 460.939 20.124 393.768C45.3635 311.495 87.491 260.095 89.2681 257.949L128.71 290.637L168.313 323.13C167.988 323.528 135.751 363.687 116.95 427.582C92.4826 510.723 101.092 594.336 142.53 676.089L142.534 676.085Z" fill="#A0AFC1"/>
<path d="M594.671 45.7407H471.154C466.983 45.7407 463.604 42.3622 463.604 38.1925C463.604 34.0228 466.983 30.6443 471.154 30.6443H594.671C598.842 30.6443 602.222 34.0228 602.222 38.1925C602.222 42.3622 598.842 45.7407 594.671 45.7407Z" fill="#080717"/>
<path d="M825.291 683.608C873.178 683.608 911.998 672.933 911.998 659.765C911.998 646.596 873.178 635.921 825.291 635.921C777.404 635.921 738.584 646.596 738.584 659.765C738.584 672.933 777.404 683.608 825.291 683.608Z" fill="black"/>
<path d="M797.215 386.851C825.334 352.051 778.633 299.035 771.412 293.739C751.363 279.026 731.101 241.251 730.907 232.227C730.712 223.203 726.391 163.924 726.391 163.924L673.528 126.708C673.528 126.708 665.856 136.134 675.227 145.474C682.064 152.289 695.606 165.91 702.433 172.778C705.08 175.443 706.497 179.069 706.366 182.817L704.914 225.32L646.841 96.0587C646.841 96.0587 634.702 109.005 638.956 121.514C643.209 134.018 679.126 236.8 679.126 236.8L605.107 85.2825C605.107 85.2825 591.414 94.8354 594.653 107.641C597.892 120.446 653.168 253.284 653.168 253.284L605.665 176.501L522.867 203.738C522.867 203.738 531.054 218.383 545.232 214.189C554.652 211.403 572.812 207.733 583.936 205.587C589.516 204.51 595.119 207.267 597.683 212.34L630.618 277.57C630.618 277.57 645.569 309.481 612.789 310.369C580.008 311.252 583.985 312.587 574.366 312.68C550.705 312.908 547.039 330.12 547.039 330.12L639.009 345.003C639.009 345.003 690.003 364.735 746.192 392.71C775.71 407.408 781.629 406.151 797.22 386.851H797.215Z" fill="#72562B"/>
<path d="M879.902 658.226L874.221 661.435C844.859 678.031 808.505 675.924 781.255 656.056C784.63 502.603 752.18 427.926 724.357 392.297C703.541 365.643 683.647 359.478 683.473 359.454L697.617 261.837C707.037 263.201 756.351 272.973 802.13 331.601C856.955 401.811 883.122 511.699 879.897 658.221L879.902 658.226Z" fill="#72562B"/>
<path d="M587.894 285.321L578.154 284.632C575.872 284.472 573.303 286.04 572.444 288.146L570.322 292.413C569.181 294.365 569.429 297.355 570.914 299.068L577.324 306.447C578.81 308.165 578.625 310.781 576.911 312.252L565.51 322.179C563.811 323.645 561.179 323.46 559.688 321.766L553.279 314.378C551.778 312.67 548.875 311.975 546.767 312.854L542.252 314.373C540.057 314.927 538.134 317.233 537.974 319.499L537.284 329.237C537.124 331.489 535.119 333.227 532.871 333.067L517.769 331.999C515.521 331.839 513.812 329.844 513.972 327.586L514.662 317.849C514.822 315.582 513.234 313.029 511.127 312.17L506.849 310.029C504.892 308.869 501.901 309.141 500.207 310.626L492.816 317.038C491.112 318.504 488.5 318.32 487.014 316.631L477.094 305.199C475.618 303.505 475.802 300.889 477.507 299.394L484.882 292.991C486.596 291.506 487.291 288.579 486.426 286.486L484.926 281.962C484.363 279.754 482.047 277.836 479.784 277.681L470.024 276.992C467.776 276.832 466.047 274.846 466.208 272.584L467.271 257.527C467.431 255.265 469.422 253.546 471.67 253.706L481.43 254.396C483.693 254.556 486.256 252.973 487.121 250.886L489.243 246.605C490.389 244.663 490.117 241.658 488.631 239.935L482.226 232.557C480.75 230.858 480.935 228.232 482.639 226.746L494.064 216.844C495.773 215.359 498.386 215.543 499.867 217.252L506.286 224.64C507.752 226.348 510.675 227.038 512.778 226.183L517.313 224.674C519.522 224.106 521.45 221.8 521.61 219.528L522.3 209.786C522.46 207.514 524.427 205.801 526.68 205.961L541.781 207.029C544.029 207.189 545.772 209.165 545.612 211.437L544.922 221.179C544.762 223.451 546.34 226.004 548.433 226.878L552.686 229.009C554.653 230.154 557.624 229.877 559.348 228.397L566.734 221.985C568.448 220.499 571.079 220.689 572.556 222.397L582.451 233.809C583.937 235.518 583.753 238.149 582.039 239.62L574.653 246.022C572.939 247.517 572.274 250.454 573.128 252.541L574.629 257.08C575.187 259.269 577.508 261.196 579.79 261.356L589.531 262.046C591.794 262.206 593.508 264.182 593.347 266.448L592.284 281.506C592.124 283.763 590.147 285.491 587.885 285.331L587.894 285.321ZM531.195 249.653C520.212 248.877 510.695 257.143 509.918 268.109C509.141 279.084 517.4 288.598 528.389 289.375C539.343 290.146 548.875 281.89 549.652 270.919C550.428 259.959 542.145 250.435 531.195 249.658V249.653Z" fill="#72562B"/>
<path d="M865.667 170.322C865.444 170.322 865.216 170.298 864.992 170.244L829.959 162.201C828.793 161.934 827.895 161.002 827.667 159.832C827.444 158.658 827.929 157.463 828.91 156.779L866.473 130.717C867.172 130.232 868.041 130.067 868.872 130.256L903.905 138.299C905.071 138.566 905.969 139.498 906.197 140.668C906.42 141.843 905.935 143.037 904.954 143.721L867.391 169.783C866.881 170.138 866.279 170.322 865.667 170.322ZM837.971 157.847L865.046 164.06L895.898 142.653L868.823 136.44L837.971 157.847Z" fill="#A0AFC1"/>
<path d="M903.23 144.26C903.007 144.26 902.779 144.236 902.555 144.183L867.522 136.139C866.488 135.901 865.658 135.144 865.327 134.139L851.309 91.4811C850.969 90.4472 851.212 89.3113 851.95 88.5055C852.683 87.6998 853.79 87.3503 854.859 87.5978L889.897 95.6411C890.931 95.879 891.761 96.6362 892.092 97.641L906.105 140.299C906.445 141.333 906.202 142.474 905.469 143.275C904.891 143.911 904.075 144.26 903.24 144.26H903.23ZM870.537 130.644L898.695 137.105L886.886 101.146L858.724 94.6849L870.537 130.644Z" fill="#A0AFC1"/>
<path d="M830.632 162.279C830.312 162.279 829.986 162.225 829.671 162.123C828.768 161.817 828.059 161.109 827.762 160.201L813.749 117.543C813.332 116.276 813.798 114.883 814.895 114.121L852.458 88.0589C853.245 87.5152 854.235 87.3744 855.139 87.6754C856.042 87.9812 856.751 88.6899 857.047 89.5976L871.065 132.256C871.483 133.523 871.016 134.916 869.919 135.678L832.356 161.74C831.841 162.094 831.239 162.279 830.632 162.279ZM820.188 117.8L832.239 154.478L864.626 132.008L852.575 95.3304L820.188 117.8Z" fill="#A0AFC1"/>
</svg>
