<svg width="173" height="182" viewBox="0 0 173 182" fill="none" xmlns="http://www.w3.org/2000/svg">
<path d="M81.21 181.243L80.8438 153.907C92.6359 153.991 99.2351 139.825 91.2662 130.943C90.5997 130.198 89.1752 129.398 88.8603 128.967C88.4135 128.357 88.3036 122.152 88.5819 121.345C88.7394 120.888 90.7975 119.705 91.3908 118.679C92.1818 117.324 92.2184 115.63 92.7274 114.18L96.3567 112.715C100.473 115.878 105.131 115.819 108.438 111.63L115.396 118.544C111.833 126.093 119.227 134.113 126.98 130.479C135.34 126.56 132.191 113.131 121.959 114.176C120.882 114.286 119.725 115.118 118.872 114.735L112.305 108.114C114.689 105.163 116.491 102.924 114.909 98.9797C114.14 97.055 112.716 96.982 113.459 94.7688C114.722 91.0036 115.971 92.6105 118.875 91.051C121.962 89.393 122.482 86.4421 122.512 83.1954H132.194C136.142 93.1656 150.666 89.9408 149.154 79.0357C148.583 74.9235 144.364 71.6987 140.251 71.8849C136.501 72.0529 133.696 74.887 132.147 78.0423L122.508 78.0935C122.581 74.8285 121.772 71.286 118.575 69.8069C117.498 69.3102 115.176 69.0765 114.62 68.6492C114.459 68.525 113.243 66.0161 113.162 65.702C112.888 64.6392 114.287 63.5071 114.741 62.5028C116.14 59.4131 115.561 56.9151 113.375 54.4025C135.271 53.9313 161.499 69.1861 163.088 92.8369C163.447 98.1726 162.521 103.044 162.345 108.165C162.129 114.417 168.812 120.965 171.427 126.436C176.254 136.541 164.231 132.433 160.862 135.84C158.873 137.852 162.543 141.526 161.202 143.838C160.221 145.533 156.116 145.839 154.303 146.256L159.24 148.798C160.844 149.97 160.953 152.515 159.734 154.038C159.137 154.783 158.47 154.743 157.972 155.196C156.302 156.708 157.588 165.057 154.124 168.124C150.311 171.499 141.365 167.723 136.574 167.398C125.606 166.645 124.5 172.565 121.047 181.243H81.2136H81.21Z" fill="url(#paint0_linear_448_1909)"/>
<path d="M83.4008 44.2022C88.5644 43.3988 86.9275 47.6242 88.3997 50.7869C90.5347 51.2179 95.5153 54.4354 97.3756 53.9679C99.8952 53.3361 101.583 48.6322 104.781 52.9417L119.784 37.9937C118.437 33.6222 119.026 28.6663 123.483 26.4057C133.408 21.3731 141.135 34.8054 132.917 40.919C129.745 43.2783 126.797 42.7816 123.245 41.8174L108.64 56.4586C108.512 57.1927 110.611 58.0546 110.38 59.603C110.164 61.0383 107.124 63.9928 107.322 65.0008L110.893 73.2728C112.453 73.8534 116.379 73.6599 117.115 75.2668C117.547 76.2054 117.58 83.904 117.305 85.1237C116.624 88.1878 111.903 86.5663 110.64 88.3193C110.27 88.8306 107.252 96.0581 107.278 96.5C107.344 97.5956 110.849 100.389 110.292 102.157C110.028 102.997 103.261 109.691 102.561 109.808C100.177 110.214 98.0605 106.572 96.1854 107.036C95.5482 107.193 88.8171 110.067 88.5132 110.356C86.7443 112.036 88.8684 118.139 83.3935 116.729L83.3716 131.816C94.402 135.519 89.4397 151.734 78.1969 148.338C70.1328 145.902 70.6492 134.503 78.2921 131.794L78.2811 116.729C73.4141 117.708 74.5567 113.42 73.4434 110.254L65.2146 106.945C61.9919 107.829 59.9264 112.219 56.9015 107.989L41.839 123.102C46.0065 130.877 36.9171 139.372 29.5525 134.529C22.2575 129.734 25.7548 118.339 34.24 118.526C35.7965 118.559 37.3089 119.731 38.6456 118.942L53.0379 104.206L51.3167 101.668C51.5987 100.123 54.7151 97.2669 54.3709 95.9558C54.1878 95.2473 51.1995 88.3997 50.8918 88.0965C49.1194 86.3326 43.2965 88.5786 44.6552 83.1991L24.8137 83.1224L13.212 72.0712C9.72927 72.5789 7.06683 73.4481 3.82216 71.2568C-4.21993 65.8189 1.47843 53.1498 11.1941 55.8889C15.5411 57.116 17.6908 61.199 17.2477 65.5304C17.1378 66.6041 16.3028 67.7581 16.6874 68.6091L26.6447 78.0241L44.0583 78.0497L44.6076 77.5055L45.0105 74.6277L50.8663 73.1778L54.4551 64.7342L51.3094 59.6396L53.4225 56.78L40.9894 44.3739C40.1324 43.9904 38.9789 44.8231 37.9022 44.9327C30.4204 45.6923 25.3996 38.4027 29.1497 31.8327C31.596 27.5488 37.7997 26.4239 41.7438 29.4332C45.5121 32.3074 45.7649 36.2991 44.4612 40.5465L57.2164 52.9234C60.1681 48.4167 62.6254 54.2272 65.2768 54.0409C65.7712 54.0044 73.1321 50.9951 73.4324 50.6737C74.9083 49.096 72.8172 42.8911 78.2775 44.2059L78.2665 26.5335L68.7595 16.6765C67.6902 16.1908 65.9214 17.228 64.5664 17.2572C58.4323 17.3923 54.1329 11.0158 56.3265 5.36606C59.0365 -1.6094 69.3895 -1.86139 72.3851 5.06294C73.6778 8.04669 73.0442 9.90559 72.2239 12.8492L83.1152 23.8857L83.3898 44.2059L83.4008 44.2022ZM63.1967 5.27841C58.6373 6.31195 61.6513 14.7373 66.4084 11.3956C69.8362 8.98892 67.5034 4.29966 63.1967 5.27841ZM127.167 30.412C121.875 31.2848 124.596 39.827 129.42 37.0588C133.137 34.9223 130.599 29.8459 127.167 30.412ZM39.0704 33.7463C35.6133 30.5179 30.5596 35.9084 34.24 39.1076C37.6825 42.0986 42.2748 36.741 39.0704 33.7463ZM11.282 66.6698C14.5816 63.3647 9.22026 58.0947 5.92066 61.8673C3.04586 65.1578 8.15087 69.7996 11.282 66.6698ZM77.8344 62.1522C55.3487 65.1871 58.3334 100.382 81.7528 99.2281C106.93 97.9864 104.312 58.5805 77.8344 62.1522ZM33.6175 123.726C29.5122 124.314 29.6806 131.096 34.489 130.745C39.1986 130.402 38.4845 123.029 33.6175 123.726ZM79.6434 136.855C76.1058 137.663 77.0177 144.517 81.6686 143.623C86.0449 142.783 85.2539 135.577 79.6434 136.855Z" fill="url(#paint1_linear_448_1909)"/>
<path d="M139.955 77.0709C144.727 76.1725 145.855 83.8747 140.907 84.1742C136.575 84.4371 135.689 77.8744 139.955 77.0709Z" fill="url(#paint2_linear_448_1909)"/>
<path d="M125.667 120.14C128.809 123.262 124.15 128.357 120.855 125.487C117.068 122.196 122.356 116.846 125.667 120.14Z" fill="url(#paint3_linear_448_1909)"/>
<defs>
<linearGradient id="paint0_linear_448_1909" x1="188.354" y1="121.131" x2="49.2218" y2="119.278" gradientUnits="userSpaceOnUse">
<stop stop-color="#FFE1AF"/>
<stop offset="1" stop-color="#156489"/>
</linearGradient>
<linearGradient id="paint1_linear_448_1909" x1="159.874" y1="78.2878" x2="-47.0014" y2="74.7953" gradientUnits="userSpaceOnUse">
<stop stop-color="#FFE1AF"/>
<stop offset="1" stop-color="#156489"/>
</linearGradient>
<linearGradient id="paint2_linear_448_1909" x1="145.314" y1="80.7776" x2="134.776" y2="80.5899" gradientUnits="userSpaceOnUse">
<stop stop-color="#FFE1AF"/>
<stop offset="1" stop-color="#156489"/>
</linearGradient>
<linearGradient id="paint3_linear_448_1909" x1="127.943" y1="122.909" x2="117.074" y2="122.71" gradientUnits="userSpaceOnUse">
<stop stop-color="#FFE1AF"/>
<stop offset="1" stop-color="#156489"/>
</linearGradient>
</defs>
</svg>
