<svg width="1417" height="260" viewBox="0 0 1417 260" fill="none" xmlns="http://www.w3.org/2000/svg">
<mask id="mask0_335_200" style="mask-type:alpha" maskUnits="userSpaceOnUse" x="0" y="0" width="1384" height="260">
<rect x="-1.0021" y="0.996328" width="252.724" height="1381.57" rx="96" transform="matrix(-0.00210768 0.999998 -0.999993 -0.00366938 1384.09 7.07923)" fill="black" stroke="#136A93" stroke-width="2"/>
</mask>
<g mask="url(#mask0_335_200)">
<rect width="278.585" height="1401.18" rx="47.5" transform="matrix(-0.00210768 0.999998 -0.999993 -0.00366938 1908.37 99.0371)" fill="url(#paint0_radial_335_200)" fill-opacity="0.74"/>
<rect width="278.585" height="1401.18" rx="47.5" transform="matrix(-0.00210768 0.999998 -0.999993 -0.00366938 877.434 -83.8594)" fill="url(#paint1_radial_335_200)" fill-opacity="0.74"/>
</g>
<rect x="5.37939" y="1.79492" width="1379.08" height="254.46" rx="96" fill="#D9D9D9" fill-opacity="0.14" stroke="#136A93" stroke-width="2"/>
<mask id="mask1_335_200" style="mask-type:alpha" maskUnits="userSpaceOnUse" x="30" y="18" width="292" height="223">
<rect x="-1.0004" y="0.984908" width="218.68" height="289.443" rx="96" transform="matrix(-0.000512409 1 -0.999886 -0.0150915 321.895 23.425)" fill="black" stroke="#136A93" stroke-width="2"/>
</mask>
<g mask="url(#mask1_335_200)">
<rect width="241.352" height="295.153" rx="47.5" transform="matrix(-0.000512409 1 -0.999886 -0.0150915 432.336 102.827)" fill="url(#paint2_radial_335_200)" fill-opacity="0.74"/>
<rect width="241.352" height="295.153" rx="47.5" transform="matrix(-0.000512409 1 -0.999886 -0.0150915 215.195 -55.625)" fill="url(#paint3_radial_335_200)" fill-opacity="0.74"/>
</g>
<rect x="32.311" y="18.7139" width="288.887" height="220.184" rx="96" fill="#D9D9D9" fill-opacity="0.14" stroke="#136A93" stroke-width="2"/>
<path d="M382.893 103.742V132.18H380.9V103.742H382.893ZM396.545 116.906V118.684H382.111V116.906H396.545ZM398.518 103.742V105.48H382.111V103.742H398.518ZM404.146 114.602V132.18H402.213V111.047H404.107L404.146 114.602ZM411.92 110.891L411.842 112.648C411.594 112.609 411.347 112.583 411.1 112.57C410.865 112.544 410.611 112.531 410.338 112.531C409.27 112.531 408.333 112.733 407.525 113.137C406.718 113.54 406.041 114.1 405.494 114.816C404.96 115.533 404.55 116.366 404.264 117.316C403.99 118.254 403.84 119.27 403.814 120.363L403.014 120.598C403.014 119.178 403.157 117.87 403.443 116.672C403.743 115.461 404.199 114.406 404.811 113.508C405.423 112.609 406.191 111.913 407.115 111.418C408.04 110.91 409.133 110.656 410.396 110.656C410.696 110.656 410.982 110.682 411.256 110.734C411.542 110.773 411.764 110.826 411.92 110.891ZM413.643 121.965V121.262C413.643 119.725 413.864 118.312 414.307 117.023C414.749 115.721 415.381 114.595 416.201 113.645C417.021 112.694 418.005 111.958 419.15 111.438C420.309 110.917 421.592 110.656 422.998 110.656C424.417 110.656 425.7 110.917 426.846 111.438C428.005 111.958 428.994 112.694 429.814 113.645C430.648 114.595 431.286 115.721 431.729 117.023C432.171 118.312 432.393 119.725 432.393 121.262V121.965C432.393 123.501 432.171 124.921 431.729 126.223C431.286 127.512 430.648 128.632 429.814 129.582C428.994 130.533 428.011 131.268 426.865 131.789C425.719 132.31 424.443 132.57 423.037 132.57C421.618 132.57 420.329 132.31 419.17 131.789C418.024 131.268 417.035 130.533 416.201 129.582C415.381 128.632 414.749 127.512 414.307 126.223C413.864 124.921 413.643 123.501 413.643 121.965ZM415.557 121.262V121.965C415.557 123.15 415.719 124.283 416.045 125.363C416.383 126.431 416.865 127.382 417.49 128.215C418.128 129.035 418.91 129.686 419.834 130.168C420.771 130.637 421.839 130.871 423.037 130.871C424.222 130.871 425.27 130.637 426.182 130.168C427.106 129.686 427.881 129.035 428.506 128.215C429.144 127.382 429.626 126.431 429.951 125.363C430.29 124.283 430.459 123.15 430.459 121.965V121.262C430.459 120.103 430.29 118.99 429.951 117.922C429.626 116.854 429.144 115.904 428.506 115.07C427.868 114.237 427.087 113.579 426.162 113.098C425.238 112.603 424.183 112.355 422.998 112.355C421.813 112.355 420.758 112.603 419.834 113.098C418.91 113.579 418.128 114.237 417.49 115.07C416.852 115.904 416.37 116.854 416.045 117.922C415.719 118.99 415.557 120.103 415.557 121.262ZM438.861 115.461V132.18H436.908V111.047H438.803L438.861 115.461ZM438.529 120.148L437.572 119.387C437.663 118.215 437.911 117.102 438.314 116.047C438.731 114.992 439.298 114.061 440.014 113.254C440.73 112.447 441.576 111.815 442.553 111.359C443.542 110.891 444.656 110.656 445.893 110.656C446.934 110.656 447.872 110.799 448.705 111.086C449.551 111.359 450.268 111.796 450.854 112.395C451.439 112.98 451.889 113.749 452.201 114.699C452.527 115.65 452.689 116.789 452.689 118.117V132.18H450.756V118.176C450.756 116.678 450.528 115.513 450.072 114.68C449.63 113.846 449.005 113.254 448.197 112.902C447.39 112.551 446.459 112.375 445.404 112.375C444.167 112.375 443.119 112.635 442.26 113.156C441.4 113.677 440.697 114.341 440.15 115.148C439.617 115.956 439.219 116.809 438.959 117.707C438.699 118.592 438.555 119.406 438.529 120.148ZM452.67 118.352L451.381 118.176C451.472 117.199 451.726 116.262 452.143 115.363C452.559 114.452 453.126 113.645 453.842 112.941C454.558 112.238 455.411 111.685 456.4 111.281C457.39 110.865 458.49 110.656 459.701 110.656C460.782 110.656 461.745 110.806 462.592 111.105C463.451 111.392 464.174 111.854 464.76 112.492C465.359 113.117 465.808 113.918 466.107 114.895C466.42 115.871 466.576 117.049 466.576 118.43V132.18H464.643V118.43C464.643 116.841 464.415 115.611 463.959 114.738C463.516 113.853 462.891 113.234 462.084 112.883C461.277 112.531 460.346 112.362 459.291 112.375C458.197 112.388 457.24 112.59 456.42 112.98C455.613 113.371 454.936 113.872 454.389 114.484C453.855 115.083 453.445 115.728 453.158 116.418C452.872 117.095 452.709 117.74 452.67 118.352ZM494.826 128.332V117.434C494.826 116.379 494.605 115.474 494.162 114.719C493.719 113.951 493.068 113.365 492.209 112.961C491.363 112.544 490.314 112.336 489.064 112.336C487.919 112.336 486.89 112.538 485.979 112.941C485.08 113.345 484.364 113.892 483.83 114.582C483.309 115.272 483.049 116.04 483.049 116.887L481.135 116.848C481.135 116.053 481.324 115.285 481.701 114.543C482.092 113.801 482.639 113.137 483.342 112.551C484.058 111.965 484.904 111.503 485.881 111.164C486.87 110.826 487.958 110.656 489.143 110.656C490.64 110.656 491.955 110.91 493.088 111.418C494.234 111.913 495.132 112.668 495.783 113.684C496.434 114.686 496.76 115.949 496.76 117.473V127.805C496.76 128.534 496.812 129.289 496.916 130.07C497.02 130.852 497.176 131.483 497.385 131.965V132.18H495.295C495.139 131.698 495.021 131.105 494.943 130.402C494.865 129.686 494.826 128.996 494.826 128.332ZM495.354 120.031L495.393 121.613H490.529C489.266 121.613 488.14 121.73 487.15 121.965C486.174 122.186 485.34 122.512 484.65 122.941C483.973 123.371 483.452 123.892 483.088 124.504C482.723 125.103 482.541 125.78 482.541 126.535C482.541 127.316 482.743 128.033 483.146 128.684C483.55 129.335 484.123 129.855 484.865 130.246C485.62 130.624 486.499 130.812 487.502 130.812C488.856 130.812 490.054 130.572 491.096 130.09C492.15 129.608 493.023 128.964 493.713 128.156C494.403 127.336 494.891 126.418 495.178 125.402L496.018 126.633C495.822 127.297 495.497 127.98 495.041 128.684C494.585 129.374 493.993 130.012 493.264 130.598C492.535 131.184 491.675 131.659 490.686 132.023C489.709 132.388 488.589 132.57 487.326 132.57C485.972 132.57 484.787 132.316 483.771 131.809C482.769 131.288 481.988 130.585 481.428 129.699C480.881 128.801 480.607 127.785 480.607 126.652C480.607 125.65 480.829 124.745 481.271 123.938C481.714 123.117 482.352 122.421 483.186 121.848C484.019 121.262 485.035 120.812 486.232 120.5C487.43 120.188 488.778 120.031 490.275 120.031H495.354ZM516.666 127.297V111.047H518.619V132.18H516.725L516.666 127.297ZM517.018 123.547L518.111 123.508C518.111 124.81 517.955 126.014 517.643 127.121C517.33 128.215 516.835 129.172 516.158 129.992C515.494 130.812 514.635 131.451 513.58 131.906C512.525 132.349 511.262 132.57 509.791 132.57C508.762 132.57 507.818 132.427 506.959 132.141C506.113 131.841 505.377 131.372 504.752 130.734C504.14 130.096 503.665 129.27 503.326 128.254C503.001 127.225 502.838 125.988 502.838 124.543V111.047H504.771V124.582C504.771 125.754 504.902 126.743 505.162 127.551C505.436 128.345 505.807 128.983 506.275 129.465C506.757 129.947 507.311 130.298 507.936 130.52C508.561 130.728 509.238 130.832 509.967 130.832C511.738 130.832 513.137 130.493 514.166 129.816C515.195 129.126 515.924 128.228 516.354 127.121C516.796 126.001 517.018 124.81 517.018 123.547ZM532.373 111.047V112.707H522.021V111.047H532.373ZM525.908 105.539H527.861V127.062C527.861 128.117 527.992 128.918 528.252 129.465C528.525 129.999 528.883 130.357 529.326 130.539C529.769 130.721 530.244 130.812 530.752 130.812C531.117 130.812 531.455 130.793 531.768 130.754C532.093 130.715 532.406 130.669 532.705 130.617L532.822 132.277C532.536 132.368 532.165 132.44 531.709 132.492C531.253 132.544 530.824 132.57 530.42 132.57C529.521 132.57 528.734 132.408 528.057 132.082C527.38 131.743 526.852 131.177 526.475 130.383C526.097 129.576 525.908 128.469 525.908 127.062V105.539ZM535.424 121.965V121.262C535.424 119.725 535.645 118.312 536.088 117.023C536.531 115.721 537.162 114.595 537.982 113.645C538.803 112.694 539.786 111.958 540.932 111.438C542.09 110.917 543.373 110.656 544.779 110.656C546.199 110.656 547.481 110.917 548.627 111.438C549.786 111.958 550.775 112.694 551.596 113.645C552.429 114.595 553.067 115.721 553.51 117.023C553.952 118.312 554.174 119.725 554.174 121.262V121.965C554.174 123.501 553.952 124.921 553.51 126.223C553.067 127.512 552.429 128.632 551.596 129.582C550.775 130.533 549.792 131.268 548.646 131.789C547.501 132.31 546.225 132.57 544.818 132.57C543.399 132.57 542.11 132.31 540.951 131.789C539.805 131.268 538.816 130.533 537.982 129.582C537.162 128.632 536.531 127.512 536.088 126.223C535.645 124.921 535.424 123.501 535.424 121.965ZM537.338 121.262V121.965C537.338 123.15 537.501 124.283 537.826 125.363C538.165 126.431 538.646 127.382 539.271 128.215C539.91 129.035 540.691 129.686 541.615 130.168C542.553 130.637 543.62 130.871 544.818 130.871C546.003 130.871 547.051 130.637 547.963 130.168C548.887 129.686 549.662 129.035 550.287 128.215C550.925 127.382 551.407 126.431 551.732 125.363C552.071 124.283 552.24 123.15 552.24 121.965V121.262C552.24 120.103 552.071 118.99 551.732 117.922C551.407 116.854 550.925 115.904 550.287 115.07C549.649 114.237 548.868 113.579 547.943 113.098C547.019 112.603 545.964 112.355 544.779 112.355C543.594 112.355 542.54 112.603 541.615 113.098C540.691 113.579 539.91 114.237 539.271 115.07C538.633 115.904 538.152 116.854 537.826 117.922C537.501 118.99 537.338 120.103 537.338 121.262ZM560.643 115.461V132.18H558.689V111.047H560.584L560.643 115.461ZM560.311 120.148L559.354 119.387C559.445 118.215 559.692 117.102 560.096 116.047C560.512 114.992 561.079 114.061 561.795 113.254C562.511 112.447 563.357 111.815 564.334 111.359C565.324 110.891 566.437 110.656 567.674 110.656C568.715 110.656 569.653 110.799 570.486 111.086C571.333 111.359 572.049 111.796 572.635 112.395C573.221 112.98 573.67 113.749 573.982 114.699C574.308 115.65 574.471 116.789 574.471 118.117V132.18H572.537V118.176C572.537 116.678 572.309 115.513 571.854 114.68C571.411 113.846 570.786 113.254 569.979 112.902C569.171 112.551 568.24 112.375 567.186 112.375C565.949 112.375 564.9 112.635 564.041 113.156C563.182 113.677 562.479 114.341 561.932 115.148C561.398 115.956 561.001 116.809 560.74 117.707C560.48 118.592 560.337 119.406 560.311 120.148ZM574.451 118.352L573.162 118.176C573.253 117.199 573.507 116.262 573.924 115.363C574.34 114.452 574.907 113.645 575.623 112.941C576.339 112.238 577.192 111.685 578.182 111.281C579.171 110.865 580.271 110.656 581.482 110.656C582.563 110.656 583.527 110.806 584.373 111.105C585.232 111.392 585.955 111.854 586.541 112.492C587.14 113.117 587.589 113.918 587.889 114.895C588.201 115.871 588.357 117.049 588.357 118.43V132.18H586.424V118.43C586.424 116.841 586.196 115.611 585.74 114.738C585.298 113.853 584.673 113.234 583.865 112.883C583.058 112.531 582.127 112.362 581.072 112.375C579.979 112.388 579.021 112.59 578.201 112.98C577.394 113.371 576.717 113.872 576.17 114.484C575.636 115.083 575.226 115.728 574.939 116.418C574.653 117.095 574.49 117.74 574.451 118.352ZM607.17 128.332V117.434C607.17 116.379 606.949 115.474 606.506 114.719C606.063 113.951 605.412 113.365 604.553 112.961C603.706 112.544 602.658 112.336 601.408 112.336C600.262 112.336 599.234 112.538 598.322 112.941C597.424 113.345 596.708 113.892 596.174 114.582C595.653 115.272 595.393 116.04 595.393 116.887L593.479 116.848C593.479 116.053 593.667 115.285 594.045 114.543C594.436 113.801 594.982 113.137 595.686 112.551C596.402 111.965 597.248 111.503 598.225 111.164C599.214 110.826 600.301 110.656 601.486 110.656C602.984 110.656 604.299 110.91 605.432 111.418C606.577 111.913 607.476 112.668 608.127 113.684C608.778 114.686 609.104 115.949 609.104 117.473V127.805C609.104 128.534 609.156 129.289 609.26 130.07C609.364 130.852 609.52 131.483 609.729 131.965V132.18H607.639C607.482 131.698 607.365 131.105 607.287 130.402C607.209 129.686 607.17 128.996 607.17 128.332ZM607.697 120.031L607.736 121.613H602.873C601.61 121.613 600.484 121.73 599.494 121.965C598.518 122.186 597.684 122.512 596.994 122.941C596.317 123.371 595.796 123.892 595.432 124.504C595.067 125.103 594.885 125.78 594.885 126.535C594.885 127.316 595.087 128.033 595.49 128.684C595.894 129.335 596.467 129.855 597.209 130.246C597.964 130.624 598.843 130.812 599.846 130.812C601.2 130.812 602.398 130.572 603.439 130.09C604.494 129.608 605.367 128.964 606.057 128.156C606.747 127.336 607.235 126.418 607.521 125.402L608.361 126.633C608.166 127.297 607.84 127.98 607.385 128.684C606.929 129.374 606.337 130.012 605.607 130.598C604.878 131.184 604.019 131.659 603.029 132.023C602.053 132.388 600.933 132.57 599.67 132.57C598.316 132.57 597.131 132.316 596.115 131.809C595.113 131.288 594.331 130.585 593.771 129.699C593.225 128.801 592.951 127.785 592.951 126.652C592.951 125.65 593.173 124.745 593.615 123.938C594.058 123.117 594.696 122.421 595.529 121.848C596.363 121.262 597.378 120.812 598.576 120.5C599.774 120.188 601.122 120.031 602.619 120.031H607.697ZM623.014 111.047V112.707H612.662V111.047H623.014ZM616.549 105.539H618.502V127.062C618.502 128.117 618.632 128.918 618.893 129.465C619.166 129.999 619.524 130.357 619.967 130.539C620.41 130.721 620.885 130.812 621.393 130.812C621.757 130.812 622.096 130.793 622.408 130.754C622.734 130.715 623.046 130.669 623.346 130.617L623.463 132.277C623.176 132.368 622.805 132.44 622.35 132.492C621.894 132.544 621.464 132.57 621.061 132.57C620.162 132.57 619.374 132.408 618.697 132.082C618.02 131.743 617.493 131.177 617.115 130.383C616.738 129.576 616.549 128.469 616.549 127.062V105.539ZM630.029 111.047V132.18H628.096V111.047H630.029ZM627.646 104.777C627.646 104.387 627.777 104.055 628.037 103.781C628.298 103.495 628.643 103.352 629.072 103.352C629.515 103.352 629.867 103.495 630.127 103.781C630.4 104.055 630.537 104.387 630.537 104.777C630.537 105.168 630.4 105.5 630.127 105.773C629.867 106.047 629.515 106.184 629.072 106.184C628.643 106.184 628.298 106.047 628.037 105.773C627.777 105.5 627.646 105.168 627.646 104.777ZM634.955 121.965V121.262C634.955 119.725 635.176 118.312 635.619 117.023C636.062 115.721 636.693 114.595 637.514 113.645C638.334 112.694 639.317 111.958 640.463 111.438C641.622 110.917 642.904 110.656 644.311 110.656C645.73 110.656 647.012 110.917 648.158 111.438C649.317 111.958 650.307 112.694 651.127 113.645C651.96 114.595 652.598 115.721 653.041 117.023C653.484 118.312 653.705 119.725 653.705 121.262V121.965C653.705 123.501 653.484 124.921 653.041 126.223C652.598 127.512 651.96 128.632 651.127 129.582C650.307 130.533 649.324 131.268 648.178 131.789C647.032 132.31 645.756 132.57 644.35 132.57C642.93 132.57 641.641 132.31 640.482 131.789C639.337 131.268 638.347 130.533 637.514 129.582C636.693 128.632 636.062 127.512 635.619 126.223C635.176 124.921 634.955 123.501 634.955 121.965ZM636.869 121.262V121.965C636.869 123.15 637.032 124.283 637.357 125.363C637.696 126.431 638.178 127.382 638.803 128.215C639.441 129.035 640.222 129.686 641.146 130.168C642.084 130.637 643.152 130.871 644.35 130.871C645.535 130.871 646.583 130.637 647.494 130.168C648.419 129.686 649.193 129.035 649.818 128.215C650.456 127.382 650.938 126.431 651.264 125.363C651.602 124.283 651.771 123.15 651.771 121.965V121.262C651.771 120.103 651.602 118.99 651.264 117.922C650.938 116.854 650.456 115.904 649.818 115.07C649.18 114.237 648.399 113.579 647.475 113.098C646.55 112.603 645.495 112.355 644.311 112.355C643.126 112.355 642.071 112.603 641.146 113.098C640.222 113.579 639.441 114.237 638.803 115.07C638.165 115.904 637.683 116.854 637.357 117.922C637.032 118.99 636.869 120.103 636.869 121.262ZM660.311 115.559V132.18H658.377V111.047H660.252L660.311 115.559ZM659.9 120.148L659.021 119.387C659.113 118.215 659.373 117.102 659.803 116.047C660.232 114.992 660.812 114.061 661.541 113.254C662.27 112.447 663.13 111.815 664.119 111.359C665.109 110.891 666.196 110.656 667.381 110.656C668.436 110.656 669.38 110.799 670.213 111.086C671.046 111.372 671.749 111.828 672.322 112.453C672.908 113.078 673.351 113.885 673.65 114.875C673.963 115.852 674.119 117.043 674.119 118.449V132.18H672.186V118.43C672.186 116.867 671.964 115.65 671.521 114.777C671.092 113.905 670.486 113.286 669.705 112.922C668.937 112.557 668.025 112.375 666.971 112.375C665.786 112.375 664.757 112.635 663.885 113.156C663.012 113.677 662.283 114.341 661.697 115.148C661.124 115.956 660.688 116.809 660.389 117.707C660.089 118.592 659.926 119.406 659.9 120.148ZM697.271 111.047V112.707H686.92V111.047H697.271ZM690.807 105.539H692.76V127.062C692.76 128.117 692.89 128.918 693.15 129.465C693.424 129.999 693.782 130.357 694.225 130.539C694.667 130.721 695.143 130.812 695.65 130.812C696.015 130.812 696.354 130.793 696.666 130.754C696.992 130.715 697.304 130.669 697.604 130.617L697.721 132.277C697.434 132.368 697.063 132.44 696.607 132.492C696.152 132.544 695.722 132.57 695.318 132.57C694.42 132.57 693.632 132.408 692.955 132.082C692.278 131.743 691.751 131.177 691.373 130.383C690.995 129.576 690.807 128.469 690.807 127.062V105.539ZM700.322 121.965V121.262C700.322 119.725 700.544 118.312 700.986 117.023C701.429 115.721 702.061 114.595 702.881 113.645C703.701 112.694 704.684 111.958 705.83 111.438C706.989 110.917 708.271 110.656 709.678 110.656C711.097 110.656 712.38 110.917 713.525 111.438C714.684 111.958 715.674 112.694 716.494 113.645C717.327 114.595 717.965 115.721 718.408 117.023C718.851 118.312 719.072 119.725 719.072 121.262V121.965C719.072 123.501 718.851 124.921 718.408 126.223C717.965 127.512 717.327 128.632 716.494 129.582C715.674 130.533 714.691 131.268 713.545 131.789C712.399 132.31 711.123 132.57 709.717 132.57C708.298 132.57 707.008 132.31 705.85 131.789C704.704 131.268 703.714 130.533 702.881 129.582C702.061 128.632 701.429 127.512 700.986 126.223C700.544 124.921 700.322 123.501 700.322 121.965ZM702.236 121.262V121.965C702.236 123.15 702.399 124.283 702.725 125.363C703.063 126.431 703.545 127.382 704.17 128.215C704.808 129.035 705.589 129.686 706.514 130.168C707.451 130.637 708.519 130.871 709.717 130.871C710.902 130.871 711.95 130.637 712.861 130.168C713.786 129.686 714.561 129.035 715.186 128.215C715.824 127.382 716.305 126.431 716.631 125.363C716.969 124.283 717.139 123.15 717.139 121.965V121.262C717.139 120.103 716.969 118.99 716.631 117.922C716.305 116.854 715.824 115.904 715.186 115.07C714.548 114.237 713.766 113.579 712.842 113.098C711.917 112.603 710.863 112.355 709.678 112.355C708.493 112.355 707.438 112.603 706.514 113.098C705.589 113.579 704.808 114.237 704.17 115.07C703.532 115.904 703.05 116.854 702.725 117.922C702.399 118.99 702.236 120.103 702.236 121.262ZM735.096 115.109V140.305H733.162V111.047H734.979L735.096 115.109ZM749.92 121.418V121.828C749.92 123.417 749.738 124.868 749.373 126.184C749.021 127.486 748.501 128.618 747.811 129.582C747.133 130.533 746.294 131.268 745.291 131.789C744.301 132.31 743.169 132.57 741.893 132.57C740.656 132.57 739.549 132.388 738.572 132.023C737.596 131.646 736.756 131.118 736.053 130.441C735.35 129.751 734.783 128.951 734.354 128.039C733.924 127.128 733.631 126.145 733.475 125.09V118.684C733.683 117.499 734.008 116.418 734.451 115.441C734.894 114.465 735.46 113.618 736.15 112.902C736.84 112.186 737.661 111.633 738.611 111.242C739.562 110.852 740.643 110.656 741.854 110.656C743.13 110.656 744.269 110.91 745.271 111.418C746.274 111.913 747.12 112.629 747.811 113.566C748.501 114.504 749.021 115.637 749.373 116.965C749.738 118.28 749.92 119.764 749.92 121.418ZM747.967 121.828V121.418C747.967 120.129 747.837 118.938 747.576 117.844C747.316 116.75 746.919 115.799 746.385 114.992C745.864 114.172 745.193 113.534 744.373 113.078C743.566 112.622 742.609 112.395 741.502 112.395C740.317 112.395 739.308 112.59 738.475 112.98C737.654 113.371 736.977 113.885 736.443 114.523C735.923 115.148 735.506 115.826 735.193 116.555C734.894 117.284 734.673 117.987 734.529 118.664V125.266C734.777 126.281 735.187 127.212 735.76 128.059C736.333 128.905 737.094 129.589 738.045 130.109C739.008 130.617 740.174 130.871 741.541 130.871C742.635 130.871 743.585 130.643 744.393 130.188C745.2 129.719 745.864 129.081 746.385 128.273C746.919 127.453 747.316 126.496 747.576 125.402C747.837 124.296 747.967 123.104 747.967 121.828ZM756.975 114.602V132.18H755.041V111.047H756.936L756.975 114.602ZM764.748 110.891L764.67 112.648C764.423 112.609 764.175 112.583 763.928 112.57C763.693 112.544 763.439 112.531 763.166 112.531C762.098 112.531 761.161 112.733 760.354 113.137C759.546 113.54 758.869 114.1 758.322 114.816C757.788 115.533 757.378 116.366 757.092 117.316C756.818 118.254 756.669 119.27 756.643 120.363L755.842 120.598C755.842 119.178 755.985 117.87 756.271 116.672C756.571 115.461 757.027 114.406 757.639 113.508C758.251 112.609 759.019 111.913 759.943 111.418C760.868 110.91 761.962 110.656 763.225 110.656C763.524 110.656 763.811 110.682 764.084 110.734C764.37 110.773 764.592 110.826 764.748 110.891ZM775.846 132.57C774.492 132.57 773.242 132.316 772.096 131.809C770.95 131.301 769.954 130.585 769.107 129.66C768.261 128.723 767.604 127.622 767.135 126.359C766.666 125.083 766.432 123.684 766.432 122.16V121.32C766.432 119.706 766.666 118.247 767.135 116.945C767.617 115.643 768.274 114.523 769.107 113.586C769.954 112.635 770.917 111.913 771.998 111.418C773.079 110.91 774.225 110.656 775.436 110.656C776.712 110.656 777.857 110.891 778.873 111.359C779.902 111.815 780.774 112.466 781.49 113.312C782.206 114.159 782.747 115.161 783.111 116.32C783.489 117.466 783.678 118.736 783.678 120.129V121.496H767.623V119.797H781.744V119.543C781.731 118.28 781.477 117.108 780.982 116.027C780.501 114.934 779.791 114.048 778.854 113.371C777.929 112.694 776.79 112.355 775.436 112.355C774.381 112.355 773.417 112.583 772.545 113.039C771.686 113.482 770.943 114.107 770.318 114.914C769.693 115.708 769.212 116.652 768.873 117.746C768.535 118.827 768.365 120.018 768.365 121.32V122.16C768.365 123.371 768.548 124.504 768.912 125.559C769.29 126.613 769.811 127.538 770.475 128.332C771.152 129.126 771.952 129.751 772.877 130.207C773.801 130.663 774.811 130.891 775.904 130.891C777.141 130.891 778.255 130.669 779.244 130.227C780.234 129.771 781.132 129.022 781.939 127.98L783.17 128.918C782.714 129.595 782.148 130.214 781.471 130.773C780.794 131.32 779.993 131.757 779.068 132.082C778.144 132.408 777.07 132.57 775.846 132.57ZM801.982 128.078V102.18H803.916V132.18H802.08L801.982 128.078ZM787.158 121.828V121.418C787.158 119.764 787.34 118.28 787.705 116.965C788.083 115.637 788.623 114.504 789.326 113.566C790.029 112.629 790.876 111.913 791.865 111.418C792.868 110.91 794.001 110.656 795.264 110.656C796.475 110.656 797.549 110.852 798.486 111.242C799.424 111.633 800.231 112.186 800.908 112.902C801.585 113.618 802.139 114.465 802.568 115.441C802.998 116.418 803.317 117.499 803.525 118.684V124.973C803.369 126.053 803.076 127.056 802.646 127.98C802.23 128.905 801.676 129.712 800.986 130.402C800.309 131.092 799.489 131.626 798.525 132.004C797.562 132.382 796.462 132.57 795.225 132.57C793.975 132.57 792.848 132.31 791.846 131.789C790.856 131.268 790.01 130.533 789.307 129.582C788.617 128.618 788.083 127.486 787.705 126.184C787.34 124.868 787.158 123.417 787.158 121.828ZM789.111 121.418V121.828C789.111 123.104 789.242 124.296 789.502 125.402C789.762 126.496 790.153 127.447 790.674 128.254C791.195 129.061 791.859 129.693 792.666 130.148C793.473 130.604 794.424 130.832 795.518 130.832C796.898 130.832 798.063 130.578 799.014 130.07C799.964 129.549 800.726 128.859 801.299 128C801.872 127.141 802.282 126.197 802.529 125.168V118.664C802.373 117.987 802.145 117.284 801.846 116.555C801.546 115.826 801.13 115.148 800.596 114.523C800.062 113.885 799.385 113.371 798.564 112.98C797.744 112.59 796.742 112.395 795.557 112.395C794.45 112.395 793.493 112.622 792.686 113.078C791.878 113.534 791.208 114.172 790.674 114.992C790.153 115.799 789.762 116.75 789.502 117.844C789.242 118.938 789.111 120.129 789.111 121.418ZM812.201 111.047V132.18H810.268V111.047H812.201ZM809.818 104.777C809.818 104.387 809.949 104.055 810.209 103.781C810.469 103.495 810.814 103.352 811.244 103.352C811.687 103.352 812.038 103.495 812.299 103.781C812.572 104.055 812.709 104.387 812.709 104.777C812.709 105.168 812.572 105.5 812.299 105.773C812.038 106.047 811.687 106.184 811.244 106.184C810.814 106.184 810.469 106.047 810.209 105.773C809.949 105.5 809.818 105.168 809.818 104.777ZM826.111 130.871C827.127 130.871 828.084 130.682 828.982 130.305C829.894 129.914 830.649 129.335 831.248 128.566C831.86 127.798 832.205 126.835 832.283 125.676H834.139C834.074 127.043 833.67 128.247 832.928 129.289C832.186 130.331 831.215 131.138 830.018 131.711C828.833 132.284 827.531 132.57 826.111 132.57C824.666 132.57 823.39 132.31 822.283 131.789C821.176 131.255 820.245 130.513 819.49 129.562C818.748 128.612 818.182 127.499 817.791 126.223C817.413 124.934 817.225 123.534 817.225 122.023V121.203C817.225 119.693 817.413 118.299 817.791 117.023C818.182 115.734 818.748 114.615 819.49 113.664C820.245 112.714 821.17 111.978 822.264 111.457C823.37 110.923 824.646 110.656 826.092 110.656C827.55 110.656 828.872 110.956 830.057 111.555C831.255 112.141 832.218 112.993 832.947 114.113C833.676 115.22 834.074 116.555 834.139 118.117H832.283C832.218 116.893 831.899 115.858 831.326 115.012C830.753 114.152 830.011 113.495 829.1 113.039C828.188 112.583 827.186 112.355 826.092 112.355C824.855 112.355 823.794 112.596 822.908 113.078C822.036 113.547 821.32 114.198 820.76 115.031C820.213 115.852 819.803 116.789 819.529 117.844C819.269 118.898 819.139 120.018 819.139 121.203V122.023C819.139 123.208 819.269 124.335 819.529 125.402C819.79 126.457 820.2 127.395 820.76 128.215C821.32 129.035 822.042 129.686 822.928 130.168C823.813 130.637 824.874 130.871 826.111 130.871ZM846.506 111.047V112.707H836.154V111.047H846.506ZM840.041 105.539H841.994V127.062C841.994 128.117 842.124 128.918 842.385 129.465C842.658 129.999 843.016 130.357 843.459 130.539C843.902 130.721 844.377 130.812 844.885 130.812C845.249 130.812 845.588 130.793 845.9 130.754C846.226 130.715 846.538 130.669 846.838 130.617L846.955 132.277C846.669 132.368 846.298 132.44 845.842 132.492C845.386 132.544 844.956 132.57 844.553 132.57C843.654 132.57 842.867 132.408 842.189 132.082C841.512 131.743 840.985 131.177 840.607 130.383C840.23 129.576 840.041 128.469 840.041 127.062V105.539ZM853.521 111.047V132.18H851.588V111.047H853.521ZM851.139 104.777C851.139 104.387 851.269 104.055 851.529 103.781C851.79 103.495 852.135 103.352 852.564 103.352C853.007 103.352 853.359 103.495 853.619 103.781C853.893 104.055 854.029 104.387 854.029 104.777C854.029 105.168 853.893 105.5 853.619 105.773C853.359 106.047 853.007 106.184 852.564 106.184C852.135 106.184 851.79 106.047 851.529 105.773C851.269 105.5 851.139 105.168 851.139 104.777ZM858.447 121.965V121.262C858.447 119.725 858.669 118.312 859.111 117.023C859.554 115.721 860.186 114.595 861.006 113.645C861.826 112.694 862.809 111.958 863.955 111.438C865.114 110.917 866.396 110.656 867.803 110.656C869.222 110.656 870.505 110.917 871.65 111.438C872.809 111.958 873.799 112.694 874.619 113.645C875.452 114.595 876.09 115.721 876.533 117.023C876.976 118.312 877.197 119.725 877.197 121.262V121.965C877.197 123.501 876.976 124.921 876.533 126.223C876.09 127.512 875.452 128.632 874.619 129.582C873.799 130.533 872.816 131.268 871.67 131.789C870.524 132.31 869.248 132.57 867.842 132.57C866.423 132.57 865.133 132.31 863.975 131.789C862.829 131.268 861.839 130.533 861.006 129.582C860.186 128.632 859.554 127.512 859.111 126.223C858.669 124.921 858.447 123.501 858.447 121.965ZM860.361 121.262V121.965C860.361 123.15 860.524 124.283 860.85 125.363C861.188 126.431 861.67 127.382 862.295 128.215C862.933 129.035 863.714 129.686 864.639 130.168C865.576 130.637 866.644 130.871 867.842 130.871C869.027 130.871 870.075 130.637 870.986 130.168C871.911 129.686 872.686 129.035 873.311 128.215C873.949 127.382 874.43 126.431 874.756 125.363C875.094 124.283 875.264 123.15 875.264 121.965V121.262C875.264 120.103 875.094 118.99 874.756 117.922C874.43 116.854 873.949 115.904 873.311 115.07C872.673 114.237 871.891 113.579 870.967 113.098C870.042 112.603 868.988 112.355 867.803 112.355C866.618 112.355 865.563 112.603 864.639 113.098C863.714 113.579 862.933 114.237 862.295 115.07C861.657 115.904 861.175 116.854 860.85 117.922C860.524 118.99 860.361 120.103 860.361 121.262ZM883.803 115.559V132.18H881.869V111.047H883.744L883.803 115.559ZM883.393 120.148L882.514 119.387C882.605 118.215 882.865 117.102 883.295 116.047C883.725 114.992 884.304 114.061 885.033 113.254C885.762 112.447 886.622 111.815 887.611 111.359C888.601 110.891 889.688 110.656 890.873 110.656C891.928 110.656 892.872 110.799 893.705 111.086C894.538 111.372 895.242 111.828 895.814 112.453C896.4 113.078 896.843 113.885 897.143 114.875C897.455 115.852 897.611 117.043 897.611 118.449V132.18H895.678V118.43C895.678 116.867 895.456 115.65 895.014 114.777C894.584 113.905 893.979 113.286 893.197 112.922C892.429 112.557 891.518 112.375 890.463 112.375C889.278 112.375 888.249 112.635 887.377 113.156C886.505 113.677 885.775 114.341 885.189 115.148C884.617 115.956 884.18 116.809 883.881 117.707C883.581 118.592 883.419 119.406 883.393 120.148ZM905.506 128.664V131.359C905.506 132.557 905.278 133.677 904.822 134.719C904.367 135.773 903.755 136.665 902.986 137.395L901.814 136.496C902.205 135.975 902.537 135.448 902.811 134.914C903.084 134.393 903.286 133.846 903.416 133.273C903.546 132.701 903.611 132.076 903.611 131.398V128.664H905.506ZM926.412 126.867L931.393 111.047H932.838L931.686 115.695L926.412 132.18H924.967L926.412 126.867ZM920.611 111.047L925.045 126.945L926.178 132.18H924.713L918.58 111.047H920.611ZM939.537 126.887L943.873 111.047H945.904L939.752 132.18H938.307L939.537 126.887ZM933.092 111.047L938.033 126.77L939.498 132.18H938.072L932.682 115.676L931.607 111.047H933.092ZM958.33 132.57C956.976 132.57 955.726 132.316 954.58 131.809C953.434 131.301 952.438 130.585 951.592 129.66C950.745 128.723 950.088 127.622 949.619 126.359C949.15 125.083 948.916 123.684 948.916 122.16V121.32C948.916 119.706 949.15 118.247 949.619 116.945C950.101 115.643 950.758 114.523 951.592 113.586C952.438 112.635 953.402 111.913 954.482 111.418C955.563 110.91 956.709 110.656 957.92 110.656C959.196 110.656 960.342 110.891 961.357 111.359C962.386 111.815 963.258 112.466 963.975 113.312C964.691 114.159 965.231 115.161 965.596 116.32C965.973 117.466 966.162 118.736 966.162 120.129V121.496H950.107V119.797H964.229V119.543C964.215 118.28 963.962 117.108 963.467 116.027C962.985 114.934 962.275 114.048 961.338 113.371C960.413 112.694 959.274 112.355 957.92 112.355C956.865 112.355 955.902 112.583 955.029 113.039C954.17 113.482 953.428 114.107 952.803 114.914C952.178 115.708 951.696 116.652 951.357 117.746C951.019 118.827 950.85 120.018 950.85 121.32V122.16C950.85 123.371 951.032 124.504 951.396 125.559C951.774 126.613 952.295 127.538 952.959 128.332C953.636 129.126 954.437 129.751 955.361 130.207C956.286 130.663 957.295 130.891 958.389 130.891C959.626 130.891 960.739 130.669 961.729 130.227C962.718 129.771 963.617 129.022 964.424 127.98L965.654 128.918C965.199 129.595 964.632 130.214 963.955 130.773C963.278 131.32 962.477 131.757 961.553 132.082C960.628 132.408 959.554 132.57 958.33 132.57ZM988.025 132.57C986.671 132.57 985.421 132.316 984.275 131.809C983.13 131.301 982.133 130.585 981.287 129.66C980.441 128.723 979.783 127.622 979.314 126.359C978.846 125.083 978.611 123.684 978.611 122.16V121.32C978.611 119.706 978.846 118.247 979.314 116.945C979.796 115.643 980.454 114.523 981.287 113.586C982.133 112.635 983.097 111.913 984.178 111.418C985.258 110.91 986.404 110.656 987.615 110.656C988.891 110.656 990.037 110.891 991.053 111.359C992.081 111.815 992.954 112.466 993.67 113.312C994.386 114.159 994.926 115.161 995.291 116.32C995.669 117.466 995.857 118.736 995.857 120.129V121.496H979.803V119.797H993.924V119.543C993.911 118.28 993.657 117.108 993.162 116.027C992.68 114.934 991.971 114.048 991.033 113.371C990.109 112.694 988.969 112.355 987.615 112.355C986.561 112.355 985.597 112.583 984.725 113.039C983.865 113.482 983.123 114.107 982.498 114.914C981.873 115.708 981.391 116.652 981.053 117.746C980.714 118.827 980.545 120.018 980.545 121.32V122.16C980.545 123.371 980.727 124.504 981.092 125.559C981.469 126.613 981.99 127.538 982.654 128.332C983.331 129.126 984.132 129.751 985.057 130.207C985.981 130.663 986.99 130.891 988.084 130.891C989.321 130.891 990.434 130.669 991.424 130.227C992.413 129.771 993.312 129.022 994.119 127.98L995.35 128.918C994.894 129.595 994.327 130.214 993.65 130.773C992.973 131.32 992.173 131.757 991.248 132.082C990.324 132.408 989.249 132.57 988.025 132.57ZM1002.07 115.461V132.18H1000.12V111.047H1002.01L1002.07 115.461ZM1001.74 120.148L1000.78 119.387C1000.87 118.215 1001.12 117.102 1001.53 116.047C1001.94 114.992 1002.51 114.061 1003.22 113.254C1003.94 112.447 1004.79 111.815 1005.76 111.359C1006.75 110.891 1007.87 110.656 1009.1 110.656C1010.15 110.656 1011.08 110.799 1011.92 111.086C1012.76 111.359 1013.48 111.796 1014.06 112.395C1014.65 112.98 1015.1 113.749 1015.41 114.699C1015.74 115.65 1015.9 116.789 1015.9 118.117V132.18H1013.97V118.176C1013.97 116.678 1013.74 115.513 1013.28 114.68C1012.84 113.846 1012.22 113.254 1011.41 112.902C1010.6 112.551 1009.67 112.375 1008.62 112.375C1007.38 112.375 1006.33 112.635 1005.47 113.156C1004.61 113.677 1003.91 114.341 1003.36 115.148C1002.83 115.956 1002.43 116.809 1002.17 117.707C1001.91 118.592 1001.77 119.406 1001.74 120.148ZM1015.88 118.352L1014.59 118.176C1014.68 117.199 1014.94 116.262 1015.35 115.363C1015.77 114.452 1016.34 113.645 1017.05 112.941C1017.77 112.238 1018.62 111.685 1019.61 111.281C1020.6 110.865 1021.7 110.656 1022.91 110.656C1023.99 110.656 1024.96 110.806 1025.8 111.105C1026.66 111.392 1027.38 111.854 1027.97 112.492C1028.57 113.117 1029.02 113.918 1029.32 114.895C1029.63 115.871 1029.79 117.049 1029.79 118.43V132.18H1027.85V118.43C1027.85 116.841 1027.63 115.611 1027.17 114.738C1026.73 113.853 1026.1 113.234 1025.29 112.883C1024.49 112.531 1023.56 112.362 1022.5 112.375C1021.41 112.388 1020.45 112.59 1019.63 112.98C1018.82 113.371 1018.15 113.872 1017.6 114.484C1017.07 115.083 1016.66 115.728 1016.37 116.418C1016.08 117.095 1015.92 117.74 1015.88 118.352ZM1035.59 102.18H1037.53V128.078L1037.41 132.18H1035.59V102.18ZM1052.37 121.418V121.828C1052.37 123.417 1052.19 124.868 1051.82 126.184C1051.46 127.486 1050.93 128.618 1050.24 129.582C1049.56 130.533 1048.72 131.268 1047.72 131.789C1046.73 132.31 1045.6 132.57 1044.34 132.57C1043.1 132.57 1042 132.382 1041.02 132.004C1040.06 131.626 1039.23 131.092 1038.54 130.402C1037.85 129.712 1037.29 128.905 1036.86 127.98C1036.44 127.056 1036.16 126.053 1036 124.973V118.684C1036.2 117.499 1036.51 116.418 1036.94 115.441C1037.38 114.465 1037.94 113.618 1038.62 112.902C1039.31 112.186 1040.12 111.633 1041.06 111.242C1042.01 110.852 1043.09 110.656 1044.3 110.656C1045.58 110.656 1046.72 110.91 1047.72 111.418C1048.72 111.913 1049.56 112.629 1050.24 113.566C1050.93 114.504 1051.46 115.637 1051.82 116.965C1052.19 118.28 1052.37 119.764 1052.37 121.418ZM1050.4 121.828V121.418C1050.4 120.129 1050.27 118.938 1050.03 117.844C1049.78 116.75 1049.39 115.799 1048.87 114.992C1048.35 114.172 1047.69 113.534 1046.88 113.078C1046.07 112.622 1045.12 112.395 1044.01 112.395C1042.82 112.395 1041.82 112.59 1040.98 112.98C1040.16 113.371 1039.49 113.885 1038.95 114.523C1038.43 115.148 1038.02 115.826 1037.72 116.555C1037.42 117.284 1037.2 117.987 1037.06 118.664V125.168C1037.28 126.171 1037.68 127.102 1038.25 127.961C1038.82 128.82 1039.58 129.517 1040.53 130.051C1041.5 130.572 1042.67 130.832 1044.05 130.832C1045.14 130.832 1046.09 130.604 1046.88 130.148C1047.69 129.693 1048.35 129.061 1048.85 128.254C1049.37 127.447 1049.76 126.496 1050.01 125.402C1050.27 124.296 1050.4 123.104 1050.4 121.828ZM1065.48 132.57C1064.12 132.57 1062.87 132.316 1061.73 131.809C1060.58 131.301 1059.59 130.585 1058.74 129.66C1057.89 128.723 1057.24 127.622 1056.77 126.359C1056.3 125.083 1056.06 123.684 1056.06 122.16V121.32C1056.06 119.706 1056.3 118.247 1056.77 116.945C1057.25 115.643 1057.91 114.523 1058.74 113.586C1059.59 112.635 1060.55 111.913 1061.63 111.418C1062.71 110.91 1063.86 110.656 1065.07 110.656C1066.34 110.656 1067.49 110.891 1068.51 111.359C1069.53 111.815 1070.41 112.466 1071.12 113.312C1071.84 114.159 1072.38 115.161 1072.74 116.32C1073.12 117.466 1073.31 118.736 1073.31 120.129V121.496H1057.26V119.797H1071.38V119.543C1071.36 118.28 1071.11 117.108 1070.62 116.027C1070.13 114.934 1069.42 114.048 1068.49 113.371C1067.56 112.694 1066.42 112.355 1065.07 112.355C1064.01 112.355 1063.05 112.583 1062.18 113.039C1061.32 113.482 1060.58 114.107 1059.95 114.914C1059.33 115.708 1058.84 116.652 1058.51 117.746C1058.17 118.827 1058 120.018 1058 121.32V122.16C1058 123.371 1058.18 124.504 1058.54 125.559C1058.92 126.613 1059.44 127.538 1060.11 128.332C1060.78 129.126 1061.59 129.751 1062.51 130.207C1063.43 130.663 1064.44 130.891 1065.54 130.891C1066.77 130.891 1067.89 130.669 1068.88 130.227C1069.87 129.771 1070.76 129.022 1071.57 127.98L1072.8 128.918C1072.35 129.595 1071.78 130.214 1071.1 130.773C1070.43 131.32 1069.63 131.757 1068.7 132.082C1067.78 132.408 1066.7 132.57 1065.48 132.57ZM1091.62 128.078V102.18H1093.55V132.18H1091.71L1091.62 128.078ZM1076.79 121.828V121.418C1076.79 119.764 1076.97 118.28 1077.34 116.965C1077.72 115.637 1078.26 114.504 1078.96 113.566C1079.66 112.629 1080.51 111.913 1081.5 111.418C1082.5 110.91 1083.63 110.656 1084.9 110.656C1086.11 110.656 1087.18 110.852 1088.12 111.242C1089.06 111.633 1089.86 112.186 1090.54 112.902C1091.22 113.618 1091.77 114.465 1092.2 115.441C1092.63 116.418 1092.95 117.499 1093.16 118.684V124.973C1093 126.053 1092.71 127.056 1092.28 127.98C1091.86 128.905 1091.31 129.712 1090.62 130.402C1089.94 131.092 1089.12 131.626 1088.16 132.004C1087.19 132.382 1086.09 132.57 1084.86 132.57C1083.61 132.57 1082.48 132.31 1081.48 131.789C1080.49 131.268 1079.64 130.533 1078.94 129.582C1078.25 128.618 1077.72 127.486 1077.34 126.184C1076.97 124.868 1076.79 123.417 1076.79 121.828ZM1078.74 121.418V121.828C1078.74 123.104 1078.87 124.296 1079.13 125.402C1079.4 126.496 1079.79 127.447 1080.31 128.254C1080.83 129.061 1081.49 129.693 1082.3 130.148C1083.11 130.604 1084.06 130.832 1085.15 130.832C1086.53 130.832 1087.7 130.578 1088.65 130.07C1089.6 129.549 1090.36 128.859 1090.93 128C1091.5 127.141 1091.91 126.197 1092.16 125.168V118.664C1092.01 117.987 1091.78 117.284 1091.48 116.555C1091.18 115.826 1090.76 115.148 1090.23 114.523C1089.69 113.885 1089.02 113.371 1088.2 112.98C1087.38 112.59 1086.37 112.395 1085.19 112.395C1084.08 112.395 1083.13 112.622 1082.32 113.078C1081.51 113.534 1080.84 114.172 1080.31 114.992C1079.79 115.799 1079.4 116.75 1079.13 117.844C1078.87 118.938 1078.74 120.129 1078.74 121.418ZM382.561 175.047V196.18H380.627V175.047H382.561ZM380.178 168.777C380.178 168.387 380.308 168.055 380.568 167.781C380.829 167.495 381.174 167.352 381.604 167.352C382.046 167.352 382.398 167.495 382.658 167.781C382.932 168.055 383.068 168.387 383.068 168.777C383.068 169.168 382.932 169.5 382.658 169.773C382.398 170.047 382.046 170.184 381.604 170.184C381.174 170.184 380.829 170.047 380.568 169.773C380.308 169.5 380.178 169.168 380.178 168.777ZM390.787 179.559V196.18H388.854V175.047H390.729L390.787 179.559ZM390.377 184.148L389.498 183.387C389.589 182.215 389.85 181.102 390.279 180.047C390.709 178.992 391.288 178.061 392.018 177.254C392.747 176.447 393.606 175.815 394.596 175.359C395.585 174.891 396.673 174.656 397.857 174.656C398.912 174.656 399.856 174.799 400.689 175.086C401.523 175.372 402.226 175.828 402.799 176.453C403.385 177.078 403.827 177.885 404.127 178.875C404.439 179.852 404.596 181.043 404.596 182.449V196.18H402.662V182.43C402.662 180.867 402.441 179.65 401.998 178.777C401.568 177.905 400.963 177.286 400.182 176.922C399.413 176.557 398.502 176.375 397.447 176.375C396.262 176.375 395.234 176.635 394.361 177.156C393.489 177.677 392.76 178.341 392.174 179.148C391.601 179.956 391.165 180.809 390.865 181.707C390.566 182.592 390.403 183.406 390.377 184.148ZM418.311 175.047V176.707H407.959V175.047H418.311ZM411.846 169.539H413.799V191.062C413.799 192.117 413.929 192.918 414.189 193.465C414.463 193.999 414.821 194.357 415.264 194.539C415.706 194.721 416.182 194.812 416.689 194.812C417.054 194.812 417.393 194.793 417.705 194.754C418.031 194.715 418.343 194.669 418.643 194.617L418.76 196.277C418.473 196.368 418.102 196.44 417.646 196.492C417.191 196.544 416.761 196.57 416.357 196.57C415.459 196.57 414.671 196.408 413.994 196.082C413.317 195.743 412.79 195.177 412.412 194.383C412.035 193.576 411.846 192.469 411.846 191.062V169.539ZM431.127 196.57C429.773 196.57 428.523 196.316 427.377 195.809C426.231 195.301 425.235 194.585 424.389 193.66C423.542 192.723 422.885 191.622 422.416 190.359C421.947 189.083 421.713 187.684 421.713 186.16V185.32C421.713 183.706 421.947 182.247 422.416 180.945C422.898 179.643 423.555 178.523 424.389 177.586C425.235 176.635 426.199 175.913 427.279 175.418C428.36 174.91 429.506 174.656 430.717 174.656C431.993 174.656 433.139 174.891 434.154 175.359C435.183 175.815 436.055 176.466 436.771 177.312C437.488 178.159 438.028 179.161 438.393 180.32C438.77 181.466 438.959 182.736 438.959 184.129V185.496H422.904V183.797H437.025V183.543C437.012 182.28 436.758 181.108 436.264 180.027C435.782 178.934 435.072 178.048 434.135 177.371C433.21 176.694 432.071 176.355 430.717 176.355C429.662 176.355 428.699 176.583 427.826 177.039C426.967 177.482 426.225 178.107 425.6 178.914C424.975 179.708 424.493 180.652 424.154 181.746C423.816 182.827 423.646 184.018 423.646 185.32V186.16C423.646 187.371 423.829 188.504 424.193 189.559C424.571 190.613 425.092 191.538 425.756 192.332C426.433 193.126 427.234 193.751 428.158 194.207C429.083 194.663 430.092 194.891 431.186 194.891C432.423 194.891 433.536 194.669 434.525 194.227C435.515 193.771 436.413 193.022 437.221 191.98L438.451 192.918C437.995 193.595 437.429 194.214 436.752 194.773C436.075 195.32 435.274 195.757 434.35 196.082C433.425 196.408 432.351 196.57 431.127 196.57ZM445.584 166.18V196.18H443.65V166.18H445.584ZM454.084 166.18V196.18H452.15V166.18H454.084ZM462.584 175.047V196.18H460.65V175.047H462.584ZM460.201 168.777C460.201 168.387 460.331 168.055 460.592 167.781C460.852 167.495 461.197 167.352 461.627 167.352C462.07 167.352 462.421 167.495 462.682 167.781C462.955 168.055 463.092 168.387 463.092 168.777C463.092 169.168 462.955 169.5 462.682 169.773C462.421 170.047 462.07 170.184 461.627 170.184C461.197 170.184 460.852 170.047 460.592 169.773C460.331 169.5 460.201 169.168 460.201 168.777ZM482.861 175.047H484.678V195.828C484.678 197.651 484.339 199.22 483.662 200.535C482.985 201.863 482.021 202.879 480.771 203.582C479.535 204.285 478.07 204.637 476.377 204.637C475.452 204.637 474.541 204.5 473.643 204.227C472.744 203.953 471.904 203.543 471.123 202.996C470.355 202.462 469.697 201.811 469.15 201.043L470.283 199.852C471.13 200.893 472.041 201.668 473.018 202.176C473.994 202.684 475.075 202.938 476.26 202.938C477.653 202.938 478.831 202.651 479.795 202.078C480.758 201.518 481.488 200.711 481.982 199.656C482.49 198.602 482.744 197.345 482.744 195.887V179.695L482.861 175.047ZM467.939 185.828V185.418C467.939 183.764 468.122 182.28 468.486 180.965C468.851 179.637 469.378 178.504 470.068 177.566C470.771 176.629 471.624 175.913 472.627 175.418C473.63 174.91 474.762 174.656 476.025 174.656C477.236 174.656 478.311 174.852 479.248 175.242C480.186 175.633 480.993 176.186 481.67 176.902C482.36 177.618 482.92 178.465 483.35 179.441C483.779 180.418 484.098 181.499 484.307 182.684V188.973C484.137 190.053 483.844 191.056 483.428 191.98C483.011 192.905 482.458 193.712 481.768 194.402C481.077 195.092 480.251 195.626 479.287 196.004C478.337 196.382 477.236 196.57 475.986 196.57C474.736 196.57 473.61 196.31 472.607 195.789C471.618 195.268 470.771 194.533 470.068 193.582C469.378 192.618 468.851 191.486 468.486 190.184C468.122 188.868 467.939 187.417 467.939 185.828ZM469.873 185.418V185.828C469.873 187.104 470.003 188.296 470.264 189.402C470.524 190.496 470.915 191.447 471.436 192.254C471.969 193.061 472.633 193.693 473.428 194.148C474.235 194.604 475.186 194.832 476.279 194.832C477.66 194.832 478.825 194.578 479.775 194.07C480.726 193.549 481.481 192.859 482.041 192C482.601 191.141 482.998 190.197 483.232 189.168V182.664C483.089 181.987 482.868 181.284 482.568 180.555C482.282 179.826 481.872 179.148 481.338 178.523C480.817 177.885 480.146 177.371 479.326 176.98C478.506 176.59 477.503 176.395 476.318 176.395C475.212 176.395 474.255 176.622 473.447 177.078C472.64 177.534 471.969 178.172 471.436 178.992C470.915 179.799 470.524 180.75 470.264 181.844C470.003 182.938 469.873 184.129 469.873 185.418ZM498.744 196.57C497.39 196.57 496.14 196.316 494.994 195.809C493.848 195.301 492.852 194.585 492.006 193.66C491.16 192.723 490.502 191.622 490.033 190.359C489.564 189.083 489.33 187.684 489.33 186.16V185.32C489.33 183.706 489.564 182.247 490.033 180.945C490.515 179.643 491.173 178.523 492.006 177.586C492.852 176.635 493.816 175.913 494.896 175.418C495.977 174.91 497.123 174.656 498.334 174.656C499.61 174.656 500.756 174.891 501.771 175.359C502.8 175.815 503.673 176.466 504.389 177.312C505.105 178.159 505.645 179.161 506.01 180.32C506.387 181.466 506.576 182.736 506.576 184.129V185.496H490.521V183.797H504.643V183.543C504.63 182.28 504.376 181.108 503.881 180.027C503.399 178.934 502.689 178.048 501.752 177.371C500.827 176.694 499.688 176.355 498.334 176.355C497.279 176.355 496.316 176.583 495.443 177.039C494.584 177.482 493.842 178.107 493.217 178.914C492.592 179.708 492.11 180.652 491.771 181.746C491.433 182.827 491.264 184.018 491.264 185.32V186.16C491.264 187.371 491.446 188.504 491.811 189.559C492.188 190.613 492.709 191.538 493.373 192.332C494.05 193.126 494.851 193.751 495.775 194.207C496.7 194.663 497.709 194.891 498.803 194.891C500.04 194.891 501.153 194.669 502.143 194.227C503.132 193.771 504.031 193.022 504.838 191.98L506.068 192.918C505.613 193.595 505.046 194.214 504.369 194.773C503.692 195.32 502.891 195.757 501.967 196.082C501.042 196.408 499.968 196.57 498.744 196.57ZM512.928 179.559V196.18H510.994V175.047H512.869L512.928 179.559ZM512.518 184.148L511.639 183.387C511.73 182.215 511.99 181.102 512.42 180.047C512.85 178.992 513.429 178.061 514.158 177.254C514.887 176.447 515.747 175.815 516.736 175.359C517.726 174.891 518.813 174.656 519.998 174.656C521.053 174.656 521.997 174.799 522.83 175.086C523.663 175.372 524.367 175.828 524.939 176.453C525.525 177.078 525.968 177.885 526.268 178.875C526.58 179.852 526.736 181.043 526.736 182.449V196.18H524.803V182.43C524.803 180.867 524.581 179.65 524.139 178.777C523.709 177.905 523.104 177.286 522.322 176.922C521.554 176.557 520.643 176.375 519.588 176.375C518.403 176.375 517.374 176.635 516.502 177.156C515.63 177.677 514.9 178.341 514.314 179.148C513.742 179.956 513.305 180.809 513.006 181.707C512.706 182.592 512.544 183.406 512.518 184.148ZM540.314 194.871C541.33 194.871 542.287 194.682 543.186 194.305C544.097 193.914 544.852 193.335 545.451 192.566C546.063 191.798 546.408 190.835 546.486 189.676H548.342C548.277 191.043 547.873 192.247 547.131 193.289C546.389 194.331 545.419 195.138 544.221 195.711C543.036 196.284 541.734 196.57 540.314 196.57C538.869 196.57 537.593 196.31 536.486 195.789C535.38 195.255 534.449 194.513 533.693 193.562C532.951 192.612 532.385 191.499 531.994 190.223C531.617 188.934 531.428 187.534 531.428 186.023V185.203C531.428 183.693 531.617 182.299 531.994 181.023C532.385 179.734 532.951 178.615 533.693 177.664C534.449 176.714 535.373 175.978 536.467 175.457C537.574 174.923 538.85 174.656 540.295 174.656C541.753 174.656 543.075 174.956 544.26 175.555C545.458 176.141 546.421 176.993 547.15 178.113C547.88 179.22 548.277 180.555 548.342 182.117H546.486C546.421 180.893 546.102 179.858 545.529 179.012C544.956 178.152 544.214 177.495 543.303 177.039C542.391 176.583 541.389 176.355 540.295 176.355C539.058 176.355 537.997 176.596 537.111 177.078C536.239 177.547 535.523 178.198 534.963 179.031C534.416 179.852 534.006 180.789 533.732 181.844C533.472 182.898 533.342 184.018 533.342 185.203V186.023C533.342 187.208 533.472 188.335 533.732 189.402C533.993 190.457 534.403 191.395 534.963 192.215C535.523 193.035 536.245 193.686 537.131 194.168C538.016 194.637 539.077 194.871 540.314 194.871ZM560.963 196.57C559.609 196.57 558.359 196.316 557.213 195.809C556.067 195.301 555.071 194.585 554.225 193.66C553.378 192.723 552.721 191.622 552.252 190.359C551.783 189.083 551.549 187.684 551.549 186.16V185.32C551.549 183.706 551.783 182.247 552.252 180.945C552.734 179.643 553.391 178.523 554.225 177.586C555.071 176.635 556.035 175.913 557.115 175.418C558.196 174.91 559.342 174.656 560.553 174.656C561.829 174.656 562.975 174.891 563.99 175.359C565.019 175.815 565.891 176.466 566.607 177.312C567.324 178.159 567.864 179.161 568.229 180.32C568.606 181.466 568.795 182.736 568.795 184.129V185.496H552.74V183.797H566.861V183.543C566.848 182.28 566.594 181.108 566.1 180.027C565.618 178.934 564.908 178.048 563.971 177.371C563.046 176.694 561.907 176.355 560.553 176.355C559.498 176.355 558.535 176.583 557.662 177.039C556.803 177.482 556.061 178.107 555.436 178.914C554.811 179.708 554.329 180.652 553.99 181.746C553.652 182.827 553.482 184.018 553.482 185.32V186.16C553.482 187.371 553.665 188.504 554.029 189.559C554.407 190.613 554.928 191.538 555.592 192.332C556.269 193.126 557.07 193.751 557.994 194.207C558.919 194.663 559.928 194.891 561.021 194.891C562.258 194.891 563.372 194.669 564.361 194.227C565.351 193.771 566.249 193.022 567.057 191.98L568.287 192.918C567.831 193.595 567.265 194.214 566.588 194.773C565.911 195.32 565.11 195.757 564.186 196.082C563.261 196.408 562.187 196.57 560.963 196.57ZM595.639 192.332V181.434C595.639 180.379 595.417 179.474 594.975 178.719C594.532 177.951 593.881 177.365 593.021 176.961C592.175 176.544 591.127 176.336 589.877 176.336C588.731 176.336 587.702 176.538 586.791 176.941C585.893 177.345 585.176 177.892 584.643 178.582C584.122 179.272 583.861 180.04 583.861 180.887L581.947 180.848C581.947 180.053 582.136 179.285 582.514 178.543C582.904 177.801 583.451 177.137 584.154 176.551C584.87 175.965 585.717 175.503 586.693 175.164C587.683 174.826 588.77 174.656 589.955 174.656C591.452 174.656 592.768 174.91 593.9 175.418C595.046 175.913 595.945 176.668 596.596 177.684C597.247 178.686 597.572 179.949 597.572 181.473V191.805C597.572 192.534 597.624 193.289 597.729 194.07C597.833 194.852 597.989 195.483 598.197 195.965V196.18H596.107C595.951 195.698 595.834 195.105 595.756 194.402C595.678 193.686 595.639 192.996 595.639 192.332ZM596.166 184.031L596.205 185.613H591.342C590.079 185.613 588.952 185.73 587.963 185.965C586.986 186.186 586.153 186.512 585.463 186.941C584.786 187.371 584.265 187.892 583.9 188.504C583.536 189.103 583.354 189.78 583.354 190.535C583.354 191.316 583.555 192.033 583.959 192.684C584.363 193.335 584.936 193.855 585.678 194.246C586.433 194.624 587.312 194.812 588.314 194.812C589.669 194.812 590.867 194.572 591.908 194.09C592.963 193.608 593.835 192.964 594.525 192.156C595.215 191.336 595.704 190.418 595.99 189.402L596.83 190.633C596.635 191.297 596.309 191.98 595.854 192.684C595.398 193.374 594.805 194.012 594.076 194.598C593.347 195.184 592.488 195.659 591.498 196.023C590.521 196.388 589.402 196.57 588.139 196.57C586.785 196.57 585.6 196.316 584.584 195.809C583.581 195.288 582.8 194.585 582.24 193.699C581.693 192.801 581.42 191.785 581.42 190.652C581.42 189.65 581.641 188.745 582.084 187.938C582.527 187.117 583.165 186.421 583.998 185.848C584.831 185.262 585.847 184.812 587.045 184.5C588.243 184.188 589.59 184.031 591.088 184.031H596.166ZM611.482 175.047V176.707H601.131V175.047H611.482ZM605.018 169.539H606.971V191.062C606.971 192.117 607.101 192.918 607.361 193.465C607.635 193.999 607.993 194.357 608.436 194.539C608.878 194.721 609.354 194.812 609.861 194.812C610.226 194.812 610.564 194.793 610.877 194.754C611.202 194.715 611.515 194.669 611.814 194.617L611.932 196.277C611.645 196.368 611.274 196.44 610.818 196.492C610.363 196.544 609.933 196.57 609.529 196.57C608.631 196.57 607.843 196.408 607.166 196.082C606.489 195.743 605.962 195.177 605.584 194.383C605.206 193.576 605.018 192.469 605.018 191.062V169.539ZM633.736 196.57C632.382 196.57 631.132 196.316 629.986 195.809C628.84 195.301 627.844 194.585 626.998 193.66C626.152 192.723 625.494 191.622 625.025 190.359C624.557 189.083 624.322 187.684 624.322 186.16V185.32C624.322 183.706 624.557 182.247 625.025 180.945C625.507 179.643 626.165 178.523 626.998 177.586C627.844 176.635 628.808 175.913 629.889 175.418C630.969 174.91 632.115 174.656 633.326 174.656C634.602 174.656 635.748 174.891 636.764 175.359C637.792 175.815 638.665 176.466 639.381 177.312C640.097 178.159 640.637 179.161 641.002 180.32C641.38 181.466 641.568 182.736 641.568 184.129V185.496H625.514V183.797H639.635V183.543C639.622 182.28 639.368 181.108 638.873 180.027C638.391 178.934 637.682 178.048 636.744 177.371C635.82 176.694 634.68 176.355 633.326 176.355C632.271 176.355 631.308 176.583 630.436 177.039C629.576 177.482 628.834 178.107 628.209 178.914C627.584 179.708 627.102 180.652 626.764 181.746C626.425 182.827 626.256 184.018 626.256 185.32V186.16C626.256 187.371 626.438 188.504 626.803 189.559C627.18 190.613 627.701 191.538 628.365 192.332C629.042 193.126 629.843 193.751 630.768 194.207C631.692 194.663 632.701 194.891 633.795 194.891C635.032 194.891 636.145 194.669 637.135 194.227C638.124 193.771 639.023 193.022 639.83 191.98L641.061 192.918C640.605 193.595 640.038 194.214 639.361 194.773C638.684 195.32 637.883 195.757 636.959 196.082C636.035 196.408 634.96 196.57 633.736 196.57ZM651.885 194.246L658.975 175.047H660.986L652.979 196.18H651.494L651.885 194.246ZM645.361 175.047L652.51 194.285L652.861 196.18H651.357L643.35 175.047H645.361ZM672.416 196.57C671.062 196.57 669.812 196.316 668.666 195.809C667.52 195.301 666.524 194.585 665.678 193.66C664.831 192.723 664.174 191.622 663.705 190.359C663.236 189.083 663.002 187.684 663.002 186.16V185.32C663.002 183.706 663.236 182.247 663.705 180.945C664.187 179.643 664.844 178.523 665.678 177.586C666.524 176.635 667.488 175.913 668.568 175.418C669.649 174.91 670.795 174.656 672.006 174.656C673.282 174.656 674.428 174.891 675.443 175.359C676.472 175.815 677.344 176.466 678.061 177.312C678.777 178.159 679.317 179.161 679.682 180.32C680.059 181.466 680.248 182.736 680.248 184.129V185.496H664.193V183.797H678.314V183.543C678.301 182.28 678.048 181.108 677.553 180.027C677.071 178.934 676.361 178.048 675.424 177.371C674.499 176.694 673.36 176.355 672.006 176.355C670.951 176.355 669.988 176.583 669.115 177.039C668.256 177.482 667.514 178.107 666.889 178.914C666.264 179.708 665.782 180.652 665.443 181.746C665.105 182.827 664.936 184.018 664.936 185.32V186.16C664.936 187.371 665.118 188.504 665.482 189.559C665.86 190.613 666.381 191.538 667.045 192.332C667.722 193.126 668.523 193.751 669.447 194.207C670.372 194.663 671.381 194.891 672.475 194.891C673.712 194.891 674.825 194.669 675.814 194.227C676.804 193.771 677.702 193.022 678.51 191.98L679.74 192.918C679.285 193.595 678.718 194.214 678.041 194.773C677.364 195.32 676.563 195.757 675.639 196.082C674.714 196.408 673.64 196.57 672.416 196.57ZM686.6 178.602V196.18H684.666V175.047H686.561L686.6 178.602ZM694.373 174.891L694.295 176.648C694.048 176.609 693.8 176.583 693.553 176.57C693.318 176.544 693.064 176.531 692.791 176.531C691.723 176.531 690.786 176.733 689.979 177.137C689.171 177.54 688.494 178.1 687.947 178.816C687.413 179.533 687.003 180.366 686.717 181.316C686.443 182.254 686.294 183.27 686.268 184.363L685.467 184.598C685.467 183.178 685.61 181.87 685.896 180.672C686.196 179.461 686.652 178.406 687.264 177.508C687.876 176.609 688.644 175.913 689.568 175.418C690.493 174.91 691.587 174.656 692.85 174.656C693.149 174.656 693.436 174.682 693.709 174.734C693.995 174.773 694.217 174.826 694.373 174.891ZM704.592 194.09L711.408 175.047H713.498L704.416 199.617C704.234 200.086 704.006 200.607 703.732 201.18C703.472 201.766 703.12 202.326 702.678 202.859C702.248 203.406 701.701 203.849 701.037 204.188C700.386 204.539 699.579 204.715 698.615 204.715C698.381 204.715 698.075 204.689 697.697 204.637C697.32 204.585 697.053 204.526 696.896 204.461L696.877 202.82C697.033 202.859 697.255 202.892 697.541 202.918C697.827 202.944 698.029 202.957 698.146 202.957C698.993 202.957 699.702 202.801 700.275 202.488C700.861 202.176 701.35 201.727 701.74 201.141C702.131 200.555 702.476 199.845 702.775 199.012L704.592 194.09ZM697.873 175.047L705.002 193.738L705.549 195.73L704.104 196.59L695.764 175.047H697.873ZM728.662 166.18V196.18H726.729V166.18H728.662ZM742.963 196.57C741.609 196.57 740.359 196.316 739.213 195.809C738.067 195.301 737.071 194.585 736.225 193.66C735.378 192.723 734.721 191.622 734.252 190.359C733.783 189.083 733.549 187.684 733.549 186.16V185.32C733.549 183.706 733.783 182.247 734.252 180.945C734.734 179.643 735.391 178.523 736.225 177.586C737.071 176.635 738.035 175.913 739.115 175.418C740.196 174.91 741.342 174.656 742.553 174.656C743.829 174.656 744.975 174.891 745.99 175.359C747.019 175.815 747.891 176.466 748.607 177.312C749.324 178.159 749.864 179.161 750.229 180.32C750.606 181.466 750.795 182.736 750.795 184.129V185.496H734.74V183.797H748.861V183.543C748.848 182.28 748.594 181.108 748.1 180.027C747.618 178.934 746.908 178.048 745.971 177.371C745.046 176.694 743.907 176.355 742.553 176.355C741.498 176.355 740.535 176.583 739.662 177.039C738.803 177.482 738.061 178.107 737.436 178.914C736.811 179.708 736.329 180.652 735.99 181.746C735.652 182.827 735.482 184.018 735.482 185.32V186.16C735.482 187.371 735.665 188.504 736.029 189.559C736.407 190.613 736.928 191.538 737.592 192.332C738.269 193.126 739.07 193.751 739.994 194.207C740.919 194.663 741.928 194.891 743.021 194.891C744.258 194.891 745.372 194.669 746.361 194.227C747.351 193.771 748.249 193.022 749.057 191.98L750.287 192.918C749.831 193.595 749.265 194.214 748.588 194.773C747.911 195.32 747.11 195.757 746.186 196.082C745.261 196.408 744.187 196.57 742.963 196.57ZM761.111 194.246L768.201 175.047H770.213L762.205 196.18H760.721L761.111 194.246ZM754.588 175.047L761.736 194.285L762.088 196.18H760.584L752.576 175.047H754.588ZM781.643 196.57C780.288 196.57 779.038 196.316 777.893 195.809C776.747 195.301 775.751 194.585 774.904 193.66C774.058 192.723 773.4 191.622 772.932 190.359C772.463 189.083 772.229 187.684 772.229 186.16V185.32C772.229 183.706 772.463 182.247 772.932 180.945C773.413 179.643 774.071 178.523 774.904 177.586C775.751 176.635 776.714 175.913 777.795 175.418C778.876 174.91 780.021 174.656 781.232 174.656C782.508 174.656 783.654 174.891 784.67 175.359C785.699 175.815 786.571 176.466 787.287 177.312C788.003 178.159 788.544 179.161 788.908 180.32C789.286 181.466 789.475 182.736 789.475 184.129V185.496H773.42V183.797H787.541V183.543C787.528 182.28 787.274 181.108 786.779 180.027C786.298 178.934 785.588 178.048 784.65 177.371C783.726 176.694 782.587 176.355 781.232 176.355C780.178 176.355 779.214 176.583 778.342 177.039C777.482 177.482 776.74 178.107 776.115 178.914C775.49 179.708 775.008 180.652 774.67 181.746C774.331 182.827 774.162 184.018 774.162 185.32V186.16C774.162 187.371 774.344 188.504 774.709 189.559C775.087 190.613 775.607 191.538 776.271 192.332C776.949 193.126 777.749 193.751 778.674 194.207C779.598 194.663 780.607 194.891 781.701 194.891C782.938 194.891 784.051 194.669 785.041 194.227C786.031 193.771 786.929 193.022 787.736 191.98L788.967 192.918C788.511 193.595 787.945 194.214 787.268 194.773C786.59 195.32 785.79 195.757 784.865 196.082C783.941 196.408 782.867 196.57 781.643 196.57ZM796.1 166.18V196.18H794.166V166.18H796.1ZM802.1 194.891C802.1 194.487 802.23 194.142 802.49 193.855C802.764 193.569 803.122 193.426 803.564 193.426C804.02 193.426 804.385 193.569 804.658 193.855C804.932 194.142 805.068 194.487 805.068 194.891C805.068 195.294 804.932 195.639 804.658 195.926C804.385 196.199 804.02 196.336 803.564 196.336C803.122 196.336 802.764 196.199 802.49 195.926C802.23 195.639 802.1 195.294 802.1 194.891Z" fill="white"/>
<path d="M391.109 46.4922L383.766 69.5195H376.969L387.496 41.082H391.793L391.109 46.4922ZM397.203 69.5195L389.84 46.4922L389.078 41.082H393.434L404 69.5195H397.203ZM396.891 58.9336V63.8555H382.066V58.9336H396.891ZM412.891 41.082V69.5195H406.543V41.082H412.891ZM429.418 54.9102V59.6758H418.051V54.9102H429.418ZM440.77 41.082V69.5195H434.402V41.082H440.77ZM451.961 53.0742V57.9961H438.992V53.0742H451.961ZM453.211 41.082V46.0234H438.992V41.082H453.211ZM462.18 48.3867V69.5195H456.066V48.3867H462.18ZM455.695 42.918C455.695 42.0326 456.008 41.3099 456.633 40.75C457.258 40.1771 458.078 39.8906 459.094 39.8906C460.109 39.8906 460.93 40.1771 461.555 40.75C462.193 41.3099 462.512 42.0326 462.512 42.918C462.512 43.7904 462.193 44.513 461.555 45.0859C460.93 45.6458 460.109 45.9258 459.094 45.9258C458.078 45.9258 457.258 45.6458 456.633 45.0859C456.008 44.513 455.695 43.7904 455.695 42.918ZM472.438 53.3086V69.5195H466.344V48.3867H472.066L472.438 53.3086ZM478.746 48.2305L478.648 53.9141C478.388 53.875 478.049 53.8424 477.633 53.8164C477.216 53.7773 476.858 53.7578 476.559 53.7578C475.777 53.7578 475.1 53.8555 474.527 54.0508C473.967 54.2331 473.499 54.5065 473.121 54.8711C472.757 55.2357 472.483 55.6914 472.301 56.2383C472.118 56.7721 472.027 57.3906 472.027 58.0938L470.875 57.5273C470.875 56.1341 471.012 54.8581 471.285 53.6992C471.559 52.5404 471.956 51.5378 472.477 50.6914C472.997 49.832 473.635 49.168 474.391 48.6992C475.146 48.2305 476.005 47.9961 476.969 47.9961C477.281 47.9961 477.6 48.0156 477.926 48.0547C478.251 48.0938 478.525 48.1523 478.746 48.2305ZM492.246 63.6406C492.246 63.25 492.122 62.9049 491.875 62.6055C491.641 62.306 491.211 62.0326 490.586 61.7852C489.974 61.5378 489.108 61.2904 487.988 61.043C486.934 60.8216 485.951 60.5352 485.039 60.1836C484.128 59.819 483.333 59.3828 482.656 58.875C481.979 58.3542 481.452 57.7422 481.074 57.0391C480.697 56.3229 480.508 55.5091 480.508 54.5977C480.508 53.7122 480.697 52.8724 481.074 52.0781C481.465 51.2839 482.025 50.5807 482.754 49.9688C483.496 49.3568 484.395 48.875 485.449 48.5234C486.517 48.1719 487.728 47.9961 489.082 47.9961C490.944 47.9961 492.552 48.2891 493.906 48.875C495.26 49.4479 496.302 50.2552 497.031 51.2969C497.76 52.3255 498.125 53.5039 498.125 54.832H492.031C492.031 54.2852 491.927 53.8099 491.719 53.4062C491.51 53.0026 491.191 52.6901 490.762 52.4688C490.332 52.2344 489.766 52.1172 489.062 52.1172C488.516 52.1172 488.034 52.2148 487.617 52.4102C487.214 52.5924 486.895 52.8464 486.66 53.1719C486.439 53.4974 486.328 53.875 486.328 54.3047C486.328 54.6042 486.393 54.8776 486.523 55.125C486.667 55.3594 486.882 55.5807 487.168 55.7891C487.467 55.9844 487.852 56.1602 488.32 56.3164C488.802 56.4727 489.388 56.6224 490.078 56.7656C491.549 57.0391 492.891 57.4232 494.102 57.918C495.326 58.4128 496.302 59.0964 497.031 59.9688C497.773 60.8411 498.145 61.9935 498.145 63.4258C498.145 64.3633 497.93 65.2227 497.5 66.0039C497.083 66.7852 496.478 67.4688 495.684 68.0547C494.889 68.6406 493.939 69.0964 492.832 69.4219C491.725 69.7474 490.475 69.9102 489.082 69.9102C487.09 69.9102 485.404 69.5521 484.023 68.8359C482.643 68.1198 481.602 67.2214 480.898 66.1406C480.208 65.0469 479.863 63.9271 479.863 62.7812H485.586C485.612 63.4844 485.788 64.0573 486.113 64.5C486.452 64.9427 486.888 65.2682 487.422 65.4766C487.956 65.6719 488.555 65.7695 489.219 65.7695C489.883 65.7695 490.436 65.6784 490.879 65.4961C491.322 65.3138 491.66 65.0664 491.895 64.7539C492.129 64.4284 492.246 64.0573 492.246 63.6406ZM512.035 48.3867V52.6641H499.496V48.3867H512.035ZM502.367 43.1523H508.48V62.8984C508.48 63.4844 508.552 63.9336 508.695 64.2461C508.839 64.5586 509.073 64.7799 509.398 64.9102C509.724 65.0273 510.141 65.0859 510.648 65.0859C511.013 65.0859 511.326 65.0729 511.586 65.0469C511.846 65.0208 512.087 64.9883 512.309 64.9492V69.3633C511.788 69.5326 511.234 69.6628 510.648 69.7539C510.062 69.8581 509.424 69.9102 508.734 69.9102C507.419 69.9102 506.28 69.6953 505.316 69.2656C504.366 68.8359 503.637 68.1589 503.129 67.2344C502.621 66.2969 502.367 65.0794 502.367 63.582V43.1523ZM536.887 41.082V69.5195H530.539V41.082H536.887ZM545.539 41.082V46.0234H522.062V41.082H545.539ZM554.078 39.5195V69.5195H547.984V39.5195H554.078ZM553.277 58.2109L551.754 58.25C551.754 56.7656 551.936 55.4049 552.301 54.168C552.678 52.918 553.212 51.8307 553.902 50.9062C554.592 49.9818 555.419 49.2656 556.383 48.7578C557.359 48.25 558.434 47.9961 559.605 47.9961C560.647 47.9961 561.598 48.1458 562.457 48.4453C563.316 48.7448 564.059 49.2201 564.684 49.8711C565.309 50.5221 565.79 51.375 566.129 52.4297C566.467 53.4844 566.637 54.7669 566.637 56.2773V69.5195H560.504V56.2383C560.504 55.3398 560.374 54.6367 560.113 54.1289C559.866 53.6211 559.501 53.263 559.02 53.0547C558.551 52.8464 557.978 52.7422 557.301 52.7422C556.507 52.7422 555.849 52.8854 555.328 53.1719C554.807 53.4453 554.397 53.8294 554.098 54.3242C553.798 54.819 553.583 55.3984 553.453 56.0625C553.336 56.7266 553.277 57.4427 553.277 58.2109ZM576.797 48.3867V69.5195H570.684V48.3867H576.797ZM570.312 42.918C570.312 42.0326 570.625 41.3099 571.25 40.75C571.875 40.1771 572.695 39.8906 573.711 39.8906C574.727 39.8906 575.547 40.1771 576.172 40.75C576.81 41.3099 577.129 42.0326 577.129 42.918C577.129 43.7904 576.81 44.513 576.172 45.0859C575.547 45.6458 574.727 45.9258 573.711 45.9258C572.695 45.9258 571.875 45.6458 571.25 45.0859C570.625 44.513 570.312 43.7904 570.312 42.918ZM586.918 52.8984V69.5195H580.805V48.3867H586.547L586.918 52.8984ZM586.117 58.2109L584.594 58.25C584.594 56.6615 584.789 55.2357 585.18 53.9727C585.57 52.7096 586.124 51.6354 586.84 50.75C587.569 49.8516 588.435 49.168 589.438 48.6992C590.453 48.2305 591.573 47.9961 592.797 47.9961C593.786 47.9961 594.691 48.1393 595.512 48.4258C596.332 48.7122 597.035 49.1745 597.621 49.8125C598.22 50.4375 598.676 51.2708 598.988 52.3125C599.301 53.3411 599.457 54.6107 599.457 56.1211V69.5195H593.324V56.1016C593.324 55.2161 593.201 54.5326 592.953 54.0508C592.706 53.569 592.341 53.2305 591.859 53.0352C591.391 52.8398 590.818 52.7422 590.141 52.7422C589.424 52.7422 588.812 52.8854 588.305 53.1719C587.797 53.4453 587.38 53.8294 587.055 54.3242C586.729 54.819 586.488 55.3984 586.332 56.0625C586.189 56.7266 586.117 57.4427 586.117 58.2109ZM609.324 39.5V69.5195H603.211V39.5H609.324ZM622.742 48.3867L613.543 59.0117L608.68 63.8945L606.238 59.7734L610.184 54.6758L615.398 48.3867H622.742ZM616.297 69.5195L610.34 59.8125L614.715 56.3945L623.289 69.5195H616.297ZM631.008 48.3867V69.5195H624.895V48.3867H631.008ZM624.523 42.918C624.523 42.0326 624.836 41.3099 625.461 40.75C626.086 40.1771 626.906 39.8906 627.922 39.8906C628.938 39.8906 629.758 40.1771 630.383 40.75C631.021 41.3099 631.34 42.0326 631.34 42.918C631.34 43.7904 631.021 44.513 630.383 45.0859C629.758 45.6458 628.938 45.9258 627.922 45.9258C626.906 45.9258 626.086 45.6458 625.461 45.0859C624.836 44.513 624.523 43.7904 624.523 42.918ZM641.129 52.8984V69.5195H635.016V48.3867H640.758L641.129 52.8984ZM640.328 58.2109L638.805 58.25C638.805 56.6615 639 55.2357 639.391 53.9727C639.781 52.7096 640.335 51.6354 641.051 50.75C641.78 49.8516 642.646 49.168 643.648 48.6992C644.664 48.2305 645.784 47.9961 647.008 47.9961C647.997 47.9961 648.902 48.1393 649.723 48.4258C650.543 48.7122 651.246 49.1745 651.832 49.8125C652.431 50.4375 652.887 51.2708 653.199 52.3125C653.512 53.3411 653.668 54.6107 653.668 56.1211V69.5195H647.535V56.1016C647.535 55.2161 647.411 54.5326 647.164 54.0508C646.917 53.569 646.552 53.2305 646.07 53.0352C645.602 52.8398 645.029 52.7422 644.352 52.7422C643.635 52.7422 643.023 52.8854 642.516 53.1719C642.008 53.4453 641.591 53.8294 641.266 54.3242C640.94 54.819 640.699 55.3984 640.543 56.0625C640.4 56.7266 640.328 57.4427 640.328 58.2109ZM670.723 48.3867H676.27V68.7578C676.27 70.6979 675.827 72.3451 674.941 73.6992C674.069 75.0534 672.852 76.082 671.289 76.7852C669.727 77.4883 667.897 77.8398 665.801 77.8398C664.889 77.8398 663.939 77.7161 662.949 77.4688C661.96 77.2344 661.029 76.8763 660.156 76.3945C659.284 75.9258 658.555 75.3268 657.969 74.5977L660.566 71.0039C661.165 71.681 661.882 72.2279 662.715 72.6445C663.548 73.0742 664.499 73.2891 665.566 73.2891C666.543 73.2891 667.37 73.1133 668.047 72.7617C668.724 72.4102 669.238 71.8958 669.59 71.2188C669.954 70.5417 670.137 69.7214 670.137 68.7578V53.3281L670.723 48.3867ZM656.602 59.207V58.7969C656.602 57.1953 656.797 55.737 657.188 54.4219C657.578 53.0938 658.145 51.9544 658.887 51.0039C659.642 50.0404 660.547 49.2982 661.602 48.7773C662.669 48.2565 663.867 47.9961 665.195 47.9961C666.628 47.9961 667.812 48.2695 668.75 48.8164C669.688 49.3503 670.449 50.1055 671.035 51.082C671.621 52.0456 672.083 53.1849 672.422 54.5C672.76 55.8021 673.034 57.2148 673.242 58.7383V59.4414C673.034 60.8997 672.734 62.2604 672.344 63.5234C671.953 64.7865 671.445 65.8997 670.82 66.8633C670.195 67.8138 669.414 68.5625 668.477 69.1094C667.552 69.6432 666.445 69.9102 665.156 69.9102C663.841 69.9102 662.656 69.6432 661.602 69.1094C660.547 68.5755 659.642 67.8268 658.887 66.8633C658.145 65.8997 657.578 64.7669 657.188 63.4648C656.797 62.1628 656.602 60.7435 656.602 59.207ZM662.695 58.7969V59.207C662.695 60.0404 662.773 60.8151 662.93 61.5312C663.099 62.2474 663.346 62.8789 663.672 63.4258C664.01 63.9727 664.427 64.4023 664.922 64.7148C665.43 65.0143 666.022 65.1641 666.699 65.1641C667.689 65.1641 668.49 64.9557 669.102 64.5391C669.727 64.1094 670.182 63.5169 670.469 62.7617C670.768 62.0065 670.924 61.1276 670.938 60.125V58.0742C670.938 57.2409 670.853 56.4922 670.684 55.8281C670.514 55.1641 670.26 54.6042 669.922 54.1484C669.596 53.6927 669.167 53.3477 668.633 53.1133C668.112 52.8659 667.48 52.7422 666.738 52.7422C666.074 52.7422 665.488 52.8984 664.98 53.2109C664.473 53.5104 664.049 53.9336 663.711 54.4805C663.372 55.0273 663.118 55.6719 662.949 56.4141C662.78 57.1432 662.695 57.9375 662.695 58.7969Z" fill="white"/>
<path d="M157.607 140.069C156.518 142.186 154.902 148.567 153.073 149.716C150.96 151.045 148.82 149.061 149.269 146.822L162.001 116.241C163.09 113.711 166.014 113.735 167.089 116.327C170.639 126.097 175.712 135.675 179.219 145.409C179.812 147.053 180.503 149.016 178.349 149.908C175.864 150.935 175.107 148.899 174.242 147.1C173.709 145.99 171.752 140.3 171.109 140.078L157.607 140.069ZM168.915 134.655L164.73 123.906L159.954 134.655H168.915Z" fill="url(#paint4_linear_335_200)"/>
<path d="M195.202 119.425V145.107H201.326C201.421 145.107 202.526 146.238 202.607 146.51C203.283 148.767 201.978 149.994 199.847 150.198C194.939 150.665 189.129 149.929 184.134 150.048C181.464 149.231 182.263 145.107 183.999 145.107H189.674C190.099 144.843 190.087 144.511 190.138 144.077C190.991 136.812 189.459 127.902 190.138 120.458L189.674 119.428H183.999C182.263 119.428 181.464 115.303 184.134 114.486C189.129 114.606 194.939 113.87 199.847 114.336C201.981 114.54 203.283 115.767 202.607 118.024C202.526 118.296 201.421 119.428 201.326 119.428H195.202V119.425Z" fill="url(#paint5_linear_335_200)"/>
<path d="M250.209 97.9468V100.036C249.472 103.221 248.108 105.72 245.486 107.708C245.698 117.465 241.496 126.64 236.216 134.58C241.331 142.701 245.749 151.767 245.492 161.639C253.492 167.215 250.077 180.37 240.185 180.673C238.871 180.712 236.875 179.864 235.8 180.125C235.169 180.278 231.595 182.732 230.302 183.31C223.098 186.53 214.296 187.347 206.502 186.671C206.083 186.809 204.036 191.014 203.554 191.804C197.927 201.029 190.265 209.195 179.119 211.122C177.201 210.976 175.025 211.323 173.145 211.122C171.583 210.955 168.551 209.943 167.016 209.338C157.366 205.525 150.524 195.692 145.969 186.782C143.623 186.74 141.294 187.039 138.932 186.946C133.449 186.734 126.976 185.549 121.962 183.31C120.597 182.699 117.215 180.325 116.467 180.131C115.207 179.805 113.495 180.721 112.079 180.673C102.062 180.334 98.6499 167.224 106.779 161.645C106.542 151.884 110.745 142.689 116.048 134.772C110.921 126.672 106.459 117.579 106.779 107.708C98.4554 102.095 102.203 88.6739 112.361 88.6679C113.654 88.6679 115.21 89.5449 116.467 89.2216C117.126 89.051 120.161 86.9049 121.367 86.3422C128.789 82.8791 137.669 82.1308 145.771 82.6665C147.229 80.4845 148.316 78.087 149.725 75.872C164.062 53.3991 186.024 51.7618 201.468 74.2587C203.282 76.8987 204.757 79.7661 206.299 82.5678C207.34 83.0886 208.465 82.448 209.441 82.4181C216.972 82.1936 225.813 83.6034 232.49 87.1414C233.17 87.5006 235.806 89.4581 236.019 89.4791C236.468 89.5269 238.605 88.6739 239.61 88.6589C244.917 88.5811 249.499 92.7416 250.212 97.9408L250.209 97.9468ZM200.624 83.3131C196.685 74.989 189.251 65.6443 179.727 63.7466C166.836 61.1724 156.729 72.792 151.635 83.1634C159.955 84.4744 168.147 86.5577 176.004 89.5838C183.998 86.7972 192.16 84.2709 200.621 83.3131H200.624ZM143.572 87.7939C135.685 87.5365 127.311 88.3177 120.577 92.7386C125.695 99.9103 120.642 109.381 111.909 109.294C112.397 116.852 115.219 123.808 119.083 130.195C124.524 123.742 130.31 117.642 136.825 112.254C138.463 103.93 140.579 95.7288 143.569 87.7939H143.572ZM240.353 109.294C233.101 109.408 227.695 102.443 230.263 95.4744C230.593 94.5824 231.966 92.9392 231.386 92.4273C230.871 91.9694 227.806 90.5716 226.989 90.2543C221.204 88.0064 214.841 87.6233 208.69 87.7969C211.515 95.6301 213.937 103.631 215.188 111.907L224.529 120.486L233.035 130.195C237.075 123.928 239.79 116.792 240.353 109.294ZM168.665 92.8644C168.632 92.4543 168.228 92.3914 167.935 92.2567C165.875 91.3199 162.296 90.5566 160.009 90.0268C158.647 89.7125 149.776 87.8927 149.252 88.2189C146.478 94.2472 144.553 100.683 143.281 107.199L157.713 98.1892L168.668 92.8614L168.665 92.8644ZM208.986 107.202C207.639 100.701 205.772 94.2592 203.015 88.2189C200.636 88.1112 184.156 91.5174 183.6 92.7237L195.15 98.4945L208.986 107.205V107.202ZM110.936 94.1335C106.088 95.1332 106.156 103.487 111.75 103.933C119.876 104.58 118.987 92.4752 110.936 94.1335ZM238.479 94.1335C235.606 94.6663 234.142 98.0965 235.055 100.704C236.767 105.579 244.187 104.789 244.803 99.8594C245.3 95.9114 242.31 93.4211 238.476 94.1335H238.479ZM175.761 95.3098C174.54 95.5103 170.838 97.3541 169.452 97.9857C159.689 102.437 150.509 108.228 142.057 114.792C140.321 125.897 139.956 137.954 141.186 149.151C141.312 150.301 141.68 154.039 142.204 154.704C152.583 162.675 163.948 169.505 176.255 174.088C188.448 169.275 199.909 162.636 210.204 154.554C211.94 143.449 212.305 131.393 211.075 120.195C210.95 119.046 210.582 115.307 210.058 114.643C201.558 108.112 192.375 102.35 182.606 97.8929C181.316 97.3033 176.821 95.1362 175.761 95.3098ZM136.104 120.046C135.586 119.911 135.509 120.261 135.206 120.489C133.264 121.979 129.927 125.586 128.185 127.505C126.143 129.749 124.345 132.252 122.387 134.568C122.303 135.047 127.715 141.303 128.484 142.144C129.026 142.737 135.778 149.72 136.101 149.307C135.425 143.521 135.221 137.663 135.194 131.824L136.104 120.046ZM216.16 149.307C216.484 149.72 223.236 142.737 223.778 142.144C224.547 141.303 229.958 135.047 229.874 134.568C229.237 133.305 216.78 119.255 216.16 120.043C216.756 123.455 216.633 126.915 216.741 130.357C216.765 131.15 217.055 131.869 217.067 132.719C217.13 138.184 216.648 143.874 216.16 149.307ZM143.572 181.556C140.576 173.624 138.487 165.413 136.828 157.095C130.349 151.675 124.527 145.604 119.086 139.154C115.222 145.542 112.4 152.498 111.912 160.056C120.642 159.966 125.698 169.439 120.58 176.611C127.314 181.032 135.691 181.813 143.575 181.556H143.572ZM240.353 160.056C239.796 152.549 237.084 145.413 233.035 139.154C227.758 145.913 221.506 151.699 215.188 157.442C213.925 165.713 211.536 173.725 208.69 181.553C214.838 181.726 221.204 181.343 226.989 179.095C227.806 178.778 230.871 177.377 231.386 176.922C231.966 176.407 230.59 174.767 230.263 173.875C227.695 166.907 233.104 159.945 240.353 160.056ZM168.665 176.482L157.71 171.154L143.275 162.145C144.586 168.652 146.511 175.084 149.246 181.128C149.767 181.451 158.647 179.631 160.006 179.317C162.293 178.79 165.872 178.027 167.932 177.087C168.228 176.952 168.632 176.889 168.662 176.479L168.665 176.482ZM208.986 162.148L195.15 170.858L183.6 176.629C184.156 177.835 200.639 181.241 203.015 181.134C205.772 175.093 207.639 168.652 208.986 162.151V162.148ZM110.936 165.5C106.168 166.482 106.288 174.492 111.185 175.264C119.619 176.593 119.427 163.749 110.936 165.5ZM238.479 165.5C235.483 166.057 234.127 169.625 235.124 172.301C236.794 176.787 244.184 176.174 244.806 171.226C245.303 167.278 242.313 164.788 238.479 165.5ZM200.624 186.036C192.16 185.106 184.004 182.54 176.007 179.766C168.15 182.804 159.949 184.848 151.638 186.186C156.693 196.563 166.875 208.168 179.73 205.603C189.254 203.702 196.688 194.357 200.627 186.036H200.624Z" fill="url(#paint6_linear_335_200)"/>
<defs>
<radialGradient id="paint0_radial_335_200" cx="0" cy="0" r="1" gradientUnits="userSpaceOnUse" gradientTransform="translate(139.293 700.591) scale(139.293 700.591)">
<stop stop-color="#1A5069"/>
<stop offset="1" stop-color="#0F7BAE" stop-opacity="0"/>
</radialGradient>
<radialGradient id="paint1_radial_335_200" cx="0" cy="0" r="1" gradientUnits="userSpaceOnUse" gradientTransform="translate(139.293 700.591) scale(139.293 700.591)">
<stop stop-color="#1A5069"/>
<stop offset="1" stop-color="#0F7BAE" stop-opacity="0"/>
</radialGradient>
<radialGradient id="paint2_radial_335_200" cx="0" cy="0" r="1" gradientUnits="userSpaceOnUse" gradientTransform="translate(120.676 147.576) scale(120.676 147.576)">
<stop stop-color="#1A5069"/>
<stop offset="1" stop-color="#0F7BAE" stop-opacity="0"/>
</radialGradient>
<radialGradient id="paint3_radial_335_200" cx="0" cy="0" r="1" gradientUnits="userSpaceOnUse" gradientTransform="translate(120.676 147.576) scale(120.676 147.576)">
<stop stop-color="#1A5069"/>
<stop offset="1" stop-color="#0F7BAE" stop-opacity="0"/>
</radialGradient>
<linearGradient id="paint4_linear_335_200" x1="185.088" y1="133.209" x2="138.658" y2="132.479" gradientUnits="userSpaceOnUse">
<stop stop-color="#FFE1AF"/>
<stop offset="1" stop-color="#156489"/>
</linearGradient>
<linearGradient id="paint5_linear_335_200" x1="206.297" y1="133.212" x2="175.376" y2="132.891" gradientUnits="userSpaceOnUse">
<stop stop-color="#FFE1AF"/>
<stop offset="1" stop-color="#156489"/>
</linearGradient>
<linearGradient id="paint6_linear_335_200" x1="275.708" y1="138.68" x2="51.2085" y2="134.68" gradientUnits="userSpaceOnUse">
<stop stop-color="#FFE1AF"/>
<stop offset="1" stop-color="#156489"/>
</linearGradient>
</defs>
</svg>
