<svg width="149" height="144" viewBox="0 0 149 144" fill="none" xmlns="http://www.w3.org/2000/svg">
<path d="M0.00732431 23.8293C2.01419 11.1237 11.9386 1.38001 25.0125 0.525424C50.6586 -1.14723 78.1174 1.82556 103.954 0.525424C116.995 1.56261 127.758 11.982 128.615 25.082C129.497 38.5691 127.912 52.9984 128.608 66.5842C127.611 71.3976 123.924 68.6257 121.001 67.9574C118.533 67.3949 114.831 68.1436 114.164 65.3132L113.944 25.4983C113.076 19.8924 108.583 15.5683 102.855 15.0753C76.268 15.4624 49.505 14.3631 23.0203 15.6341C18.5964 16.9232 15.0771 21.251 14.623 25.827L14.6047 102.97C15.0991 108.678 19.4424 113.152 25.0674 114.014L70.1632 114.215C71.4926 114.627 73.1992 118.564 74.2246 119.992C76.2497 122.815 81.7942 126.938 75.0925 128.622C58.6604 127.68 40.9246 129.82 24.6463 128.622C12.3744 127.716 1.32936 117.644 0 105.322V23.8293H0.00732431Z" fill="url(#paint0_linear_448_2699)"/>
<path d="M147.864 111.972C148.527 112.819 148.245 113.787 147.37 114.382C140.489 117.622 131.656 118.911 126.587 124.97C122.647 129.685 121.174 137.529 118.453 143.062C118.036 144.282 116.567 144.045 115.791 143.281C112.638 136.459 111.316 127.87 105.416 122.782C100.461 118.506 92.4888 117.085 86.5927 114.244C86.0287 113.776 86.102 112.819 86.4023 112.235C86.8527 111.358 99.2528 107.038 101.333 106.005C111.58 100.925 110.811 92.2801 115.494 83.7269C116.498 81.8972 117.355 81.185 118.644 83.4128C121.079 87.6273 122.182 93.8979 124.76 98.4228C129.649 107.009 139.646 107.995 147.868 111.972H147.864Z" fill="url(#paint1_linear_448_2699)"/>
<path d="M61.3467 82.08L37.5134 82.0252C35.9387 84.3114 35.6896 91.8639 32.727 92.2474C29.7606 92.6345 24.4395 92.9486 26.1168 88.5734C31.61 72.7161 36.1804 56.541 41.5601 40.6509C42.0691 39.1535 42.8968 35.7498 43.556 34.6322C43.8196 34.1867 44.0613 33.9749 44.5594 33.8105C45.6141 33.4636 52.2243 33.4709 53.5097 33.6717C53.9858 33.7448 54.4326 33.8836 54.8024 34.205L73.007 89.9539C73.7468 92.9303 66.1698 92.587 65.0382 92.0465C63.8406 91.4731 61.918 83.7344 61.3504 82.0764L61.3467 82.08ZM58.4609 73.3114L49.6901 45.6615L40.1941 73.3114H58.4609Z" fill="url(#paint2_linear_448_2699)"/>
<path d="M87.5773 33.7301C88.9799 33.3321 94.8064 33.0874 94.9785 35.3005L95.0078 90.2497C95.0078 91.17 94.2497 92.0538 93.3342 92.2218C91.6716 92.5322 86.5299 92.7806 86.2296 90.5857L86.2003 35.6365C86.1674 34.8842 86.8705 33.931 87.5736 33.7301H87.5773Z" fill="url(#paint3_linear_448_2699)"/>
<defs>
<linearGradient id="paint0_linear_448_2699" x1="151.094" y1="67.8679" x2="-44.4097" y2="64.2697" gradientUnits="userSpaceOnUse">
<stop stop-color="#FFE1AF"/>
<stop offset="1" stop-color="#156489"/>
</linearGradient>
<linearGradient id="paint1_linear_448_2699" x1="158.921" y1="114.587" x2="64.7897" y2="112.848" gradientUnits="userSpaceOnUse">
<stop stop-color="#FFE1AF"/>
<stop offset="1" stop-color="#156489"/>
</linearGradient>
<linearGradient id="paint2_linear_448_2699" x1="81.1995" y1="64.5325" x2="9.50427" y2="63.4732" gradientUnits="userSpaceOnUse">
<stop stop-color="#FFE1AF"/>
<stop offset="1" stop-color="#156489"/>
</linearGradient>
<linearGradient id="paint3_linear_448_2699" x1="96.5253" y1="64.4853" x2="83.1597" y2="64.4485" gradientUnits="userSpaceOnUse">
<stop stop-color="#FFE1AF"/>
<stop offset="1" stop-color="#156489"/>
</linearGradient>
</defs>
</svg>
