<svg width="129" height="129" viewBox="0 0 129 129" fill="none" xmlns="http://www.w3.org/2000/svg">
<path d="M10.8933 0L41.9852 3.02147C47.472 4.4548 53.1021 5.59 58.2965 7.92347C71.036 13.6453 78.9595 26.5281 89.8069 34.9332L124.987 0H129V13.1867L126.54 38.5337C124.505 49.3927 121.856 59.8732 114.649 68.4961C112.058 71.5979 93.7572 88.3163 94.0897 90.2197L129 124.987V129H115.813L87.6168 125.95C77.2624 123.972 67.7164 120.704 59.6209 113.812C56.4733 111.135 41.1195 94.2789 39.1759 94.1069L4.01333 129H0V115.24L3.05013 87.6168C4.24267 81.872 5.504 76.0699 7.9292 70.7092C13.7428 57.8608 26.5052 50.138 34.9389 39.1988L0 4.01333V0H10.8933ZM65.3313 57.8837C72.1827 39.818 78.1912 21.7064 56.5765 11.9368C41.5151 5.13707 22.6008 4.93067 6.30667 4.5924L38.1152 36.1716C46.3941 35.088 52.9932 42.1343 57.5741 48.2116C58.7896 49.8227 62.9061 57.1556 63.6343 57.6315C64.1847 57.9927 64.7236 57.9812 65.3371 57.8837H65.3313ZM124.408 6.30667L93.4247 37.5247C92.4443 39.8295 93.1265 41.9221 92.3411 44.4677C89.9503 52.2249 77.9103 59.5292 71.3456 63.6343C71.0245 64.1847 71.8272 65.2797 72.2744 65.6123C73.8625 66.7876 82.6919 69.4593 85.0655 70.0212C100.373 73.6504 110.304 71.5291 117.057 56.5708C123.863 41.5151 124.069 22.5951 124.408 6.30667ZM69.3733 59.0476C69.66 59.3171 75.1124 55.9975 75.8577 55.5044C79.0512 53.406 84.0564 49.4787 86.2523 46.4056C87.2384 45.0239 89.4572 41.2743 88.3335 39.8295L75.3876 26.9581C73.8912 26.8377 74.8085 27.1989 74.9576 27.9615C77.1363 39.1013 73.3465 48.8308 69.3791 59.0533L69.3733 59.0476ZM59.0476 59.6209C56.4561 54.1513 52.2995 47.6956 47.5351 43.9059C45.8208 42.5413 41.8132 39.4396 39.8237 40.6665L26.9467 53.6124C30.1115 53.8188 33.2132 53.1136 36.4239 53.3028C44.0607 53.7443 51.9383 57.0925 59.0476 59.6267V59.6209ZM57.8837 63.6687C46.7037 59.2655 30.1115 53.2741 19.5392 61.6792C5.332 72.9739 4.92493 106.009 4.5924 122.693L35.5753 91.4753C35.6384 83.5863 39.8409 78.26 45.5972 73.4039C47.6211 71.6953 57.1269 66.134 57.6315 65.3715C57.9927 64.8211 57.9812 64.2821 57.8837 63.6687ZM66.4207 66.4207C67.5329 65.7212 67.5444 61.8627 64.5573 61.9315C59.9879 62.0404 62.7972 68.6968 66.4207 66.4207ZM102.053 75.1124C90.9421 77.1477 80.1119 73.4325 69.9524 69.3733C69.3389 70.0212 76.6604 80.2552 77.6809 81.4191C79.7277 83.7583 85.9427 90.2255 89.1705 88.3335L102.053 75.1067V75.1124ZM59.6267 69.9524C58.9788 69.3389 48.7448 76.6604 47.5809 77.6809C45.2417 79.7277 38.7745 85.9427 40.6665 89.1705L53.6124 102.048C53.8188 98.8828 53.1136 95.7811 53.3028 92.5704C53.7328 85.0769 57.0237 76.9184 59.6324 69.9524H59.6267ZM122.693 124.408L90.9077 93.4189C82.2447 93.2871 76.3164 87.2728 71.4316 80.7884C70.2276 79.1945 66.0824 71.8272 65.3715 71.3685C64.8039 71.0016 64.2764 71.0475 63.6515 71.0933C56.5708 90.0592 50.8203 107.936 73.5759 117.637C88.2761 123.903 106.915 124.092 122.699 124.408H122.693Z" fill="white"/>
</svg>
