<svg width="68" height="50" viewBox="0 0 68 50" fill="none" xmlns="http://www.w3.org/2000/svg">
<path d="M15.9827 0L17.3636 0.781021L37.2737 22.9095C38.7872 24.9257 37.6872 25.8144 36.3575 27.3646C30.2432 34.4857 23.5803 41.1618 17.4936 48.313C16.9711 48.8696 16.303 49.1991 15.5298 49.2306C11.311 48.9339 6.5842 49.6126 2.42707 49.224C1.15775 49.1046 0.423983 48.6123 0.00131264 47.3929V46.4767C0.358351 45.6786 0.945101 45.0393 1.5056 44.3804C7.02263 37.9091 13.4257 31.8092 18.8023 25.2696C18.9611 25.0767 19.112 24.8719 19.2381 24.6553L0 2.74867V1.83245C0.279592 1.12231 0.613003 0.551309 1.34677 0.232337L2.09629 0H15.9827Z" fill="#2B4C5B"/>
<path d="M44.9361 0C45.532 0.174581 45.9783 0.349162 46.4286 0.799398C53.1913 8.5151 60.3216 15.9551 66.9176 23.789C67.314 24.7039 66.974 25.6083 66.3571 26.3158L46.4286 48.4246C45.7368 49.0586 45.2853 49.1663 44.352 49.2306C40.1148 49.522 35.5323 49.0127 31.2597 49.2096C29.6609 49.0153 28.6502 47.6226 29.254 46.0566C29.4614 45.5184 29.9943 45.2047 30.266 44.7112L48.3319 24.658L29.4443 3.50212C28.5018 1.95715 29.4404 0.421358 31.0497 0H44.9361Z" fill="#2B4C5B"/>
</svg>
