<svg width="188" height="176" viewBox="0 0 188 176" fill="none" xmlns="http://www.w3.org/2000/svg">
<path d="M81.8977 175.24L76.0397 160.624C68.4349 158.62 61.1349 155.685 54.4094 151.605L40.0556 157.639L23.7635 141.523L23.5603 140.143L29.5589 126.751C25.4751 120.131 22.4504 112.881 20.6098 105.308L5.85352 99.0083V87.5073H52.26C52.5922 114.847 78.0406 134.48 104.681 127.247C122.485 122.413 134.815 105.937 134.936 87.5073H181.342V99.0083L166.586 105.308C164.699 112.866 161.736 120.138 157.637 126.751L163.636 140.143L163.432 141.523L147.14 157.639L132.861 151.531C126.206 155.763 118.757 158.573 111.156 160.621L105.298 175.236H81.8977V175.24Z" fill="url(#paint0_linear_446_166)"/>
<path d="M0.00391173 55.5326C3.13025 46.7671 14.6352 48.8501 14.8149 58.0532C19.0042 60.5386 24.1314 62.2034 27.6915 65.4782V81.2701H21.4506V68.4014C18.8713 68.1786 13.3416 63.5868 11.4424 63.4188C10.7351 63.3563 9.59398 64.3723 8.39425 64.5091C4.31047 64.978 1.44984 62.6763 0 59.0419V55.5326H0.00391173Z" fill="url(#paint1_linear_446_166)"/>
<path d="M73.2187 63.8135C85.9976 64.4896 100.316 62.5943 112.919 63.7041C116.124 63.9855 117.12 64.9546 117.405 68.1865C118.523 80.9107 116.757 95.6201 117.12 108.485C116.706 110.669 114.912 111.131 112.919 111.303C100.191 112.42 85.4817 110.654 72.613 111.017C70.4284 110.603 69.9673 108.809 69.7954 106.816C68.7051 94.3969 70.6434 80.3948 69.811 67.8074C70.0884 65.5018 70.8271 64.2082 73.2226 63.8096L73.2187 63.8135ZM83.6528 76.9754L83.0666 77.5616V97.449L83.6528 98.0352H103.54L104.126 97.449V77.5616L103.54 76.9754H83.6528Z" fill="url(#paint2_linear_446_166)"/>
<path d="M96.7184 57.8696H90.4774V14.0033C90.4774 13.7844 87.9802 12.1665 87.2768 10.9668C83.7089 4.88609 89.7114 -1.86288 96.2142 0.474051C100.548 2.0294 102.174 6.97292 99.9189 10.9668C99.2311 12.1822 96.7184 13.7844 96.7184 14.0033V57.8696Z" fill="url(#paint3_linear_446_166)"/>
<path d="M63.5702 32.1359C63.281 32.3157 62.5346 34.848 60.057 35.8367C51.694 39.178 46.0002 28.0717 52.8469 23.1672C56.958 20.2246 61.3153 21.9284 63.8438 25.9028C67.4898 26.5163 76.861 24.8711 79.7021 26.3366C79.9717 26.4773 81.1167 27.5558 81.1167 27.6535V57.8735H75.462L74.8758 57.2873V32.1359H63.5663H63.5702Z" fill="url(#paint4_linear_446_166)"/>
<path d="M123.627 32.136H112.317V57.2873L111.731 57.8735H106.076V27.6536C106.076 27.5559 107.221 26.4773 107.491 26.3366C110.332 24.8751 119.707 26.5203 123.349 25.9029C127.73 18.2316 138.649 21.991 137.246 30.7448C136.202 37.2788 125.784 38.6544 123.623 32.1321L123.627 32.136Z" fill="url(#paint5_linear_446_166)"/>
<path d="M37.0516 68.3975V81.2662H30.4238V66.2559C30.4238 66.0762 31.4555 64.3879 31.8385 64.1613C33.175 62.9381 43.277 58.7645 43.6209 58.2017C43.7655 57.9633 43.7889 55.5717 44.2695 54.3641C46.6964 48.2482 55.8839 48.514 58.002 55.0558C59.7371 60.4175 55.2313 65.2125 49.7602 64.4661C48.791 64.3332 47.3764 63.4031 46.7745 63.5165C44.1523 64.0089 39.963 67.8152 37.0556 68.4014L37.0516 68.3975Z" fill="url(#paint6_linear_446_166)"/>
<path d="M150.145 68.3975C147.238 67.8113 143.044 64.005 140.426 63.5126C139.82 63.3992 138.41 64.3293 137.44 64.4622C132.012 65.2047 127.471 60.3941 129.199 55.0519C131.317 48.514 140.5 48.2482 142.931 54.3602C143.412 55.5678 143.435 57.9594 143.58 58.1978C143.92 58.7645 154.026 62.9342 155.362 64.1574C155.749 64.3801 156.777 66.0684 156.777 66.252V81.2623H150.149V68.3936L150.145 68.3975Z" fill="url(#paint7_linear_446_166)"/>
<path d="M165.743 68.3975V81.2662H159.502V65.4743C163.058 62.18 168.213 60.5894 172.39 58.0532C172.465 54.6338 174.653 50.5226 178.408 50.0654C190.535 48.5843 189.523 66.2872 178.44 64.4739C177.346 64.2942 176.568 63.2703 175.489 63.493C173.109 63.9854 168.662 68.0145 165.743 68.3975Z" fill="url(#paint8_linear_446_166)"/>
<path d="M92.3124 83.6892C99.546 82.0361 99.077 93.4199 92.0154 91.2275C88.7484 90.2154 88.8891 84.4707 92.3124 83.6892Z" fill="url(#paint9_linear_446_166)"/>
<defs>
<linearGradient id="paint0_linear_446_166" x1="211.574" y1="133.665" x2="-54.3413" y2="123.868" gradientUnits="userSpaceOnUse">
<stop stop-color="#FFE1AF"/>
<stop offset="1" stop-color="#156489"/>
</linearGradient>
<linearGradient id="paint1_linear_446_166" x1="32.462" y1="66.4258" x2="-9.54435" y2="65.7418" gradientUnits="userSpaceOnUse">
<stop stop-color="#FFE1AF"/>
<stop offset="1" stop-color="#156489"/>
</linearGradient>
<linearGradient id="paint2_linear_446_166" x1="126.107" y1="88.7752" x2="52.8014" y2="87.425" gradientUnits="userSpaceOnUse">
<stop stop-color="#FFE1AF"/>
<stop offset="1" stop-color="#156489"/>
</linearGradient>
<linearGradient id="paint3_linear_446_166" x1="103.469" y1="30.4464" x2="81.1315" y2="30.3417" gradientUnits="userSpaceOnUse">
<stop stop-color="#FFE1AF"/>
<stop offset="1" stop-color="#156489"/>
</linearGradient>
<linearGradient id="paint4_linear_446_166" x1="86.5116" y1="40.7236" x2="39.0067" y2="39.9664" gradientUnits="userSpaceOnUse">
<stop stop-color="#FFE1AF"/>
<stop offset="1" stop-color="#156489"/>
</linearGradient>
<linearGradient id="paint5_linear_446_166" x1="142.76" y1="40.758" x2="95.29" y2="40.0004" gradientUnits="userSpaceOnUse">
<stop stop-color="#FFE1AF"/>
<stop offset="1" stop-color="#156489"/>
</linearGradient>
<linearGradient id="paint6_linear_446_166" x1="63.1953" y1="66.4292" x2="20.7887" y2="65.7318" gradientUnits="userSpaceOnUse">
<stop stop-color="#FFE1AF"/>
<stop offset="1" stop-color="#156489"/>
</linearGradient>
<linearGradient id="paint7_linear_446_166" x1="161.592" y1="66.4267" x2="119.193" y2="65.7294" gradientUnits="userSpaceOnUse">
<stop stop-color="#FFE1AF"/>
<stop offset="1" stop-color="#156489"/>
</linearGradient>
<linearGradient id="paint8_linear_446_166" x1="191.891" y1="66.439" x2="149.979" y2="65.7573" gradientUnits="userSpaceOnUse">
<stop stop-color="#FFE1AF"/>
<stop offset="1" stop-color="#156489"/>
</linearGradient>
<linearGradient id="paint9_linear_446_166" x1="98.8853" y1="87.7253" x2="86.9385" y2="87.5082" gradientUnits="userSpaceOnUse">
<stop stop-color="#FFE1AF"/>
<stop offset="1" stop-color="#156489"/>
</linearGradient>
</defs>
</svg>
