<svg width="301" height="86" viewBox="0 0 301 86" fill="none" xmlns="http://www.w3.org/2000/svg">
<path d="M112.067 85.1207H27.2988L78.3036 75.7746L51.7021 43.7781L66.084 5.38086L112.067 85.1207Z" fill="white"/>
<path d="M0 75.7816V75.0632L28.0167 27.2911L61.0692 0L26.2423 75.0848L0 75.7816Z" fill="white"/>
<path d="M301 51.357V59.2592H275.857C275.253 73.0807 289.484 74.2301 298.837 67.8797C300.849 76.4715 289.384 77.0677 283.371 76.529C271.022 75.4227 267.373 61.1341 270.612 50.7823C275.454 35.3085 297.458 34.5542 301 51.357ZM295.253 54.2305C294.146 40.1001 277.473 41.2279 275.857 54.2305H295.253Z" fill="white"/>
<path d="M147.886 25.5957L167.383 75.7815L160.278 75.7025L155.817 62.2114L134.058 62.0964L129.209 75.6881L122.844 75.7815L141.443 25.9405L147.886 25.5957ZM153.016 56.3853L144.754 32.6717L136.493 56.3853H153.016Z" fill="white"/>
<path d="M211.204 39.8627V61.7732C211.204 62.9513 212.634 67.7141 213.467 68.8492C216.118 72.477 223.014 72.3908 226.233 69.6178C227.425 68.5906 229.882 63.8708 229.882 62.4915V39.8627H235.629V75.7815H229.875L229.523 70.7529C225.622 77.5846 213.869 78.8633 208.733 72.8577C207.706 71.658 205.457 66.6366 205.457 65.3579V39.8555H211.204V39.8627Z" fill="white"/>
<path d="M198.992 39.8633L197.864 43.4049L178.159 70.7535H198.992V75.7821H168.82L190.372 44.8919H170.975V39.8633H198.992Z" fill="white"/>
<path d="M247.121 39.8628H252.875L253.227 46.3354C255.145 41.8527 260.957 36.5439 265.698 40.3225L265.792 45.6098C262.207 44.0078 257.868 44.7621 255.584 47.9661C254.987 48.8066 252.868 53.8568 252.868 54.5895V75.7816H247.121V39.8628Z" fill="white"/>
</svg>
