<svg width="176" height="176" viewBox="0 0 176 176" fill="none" xmlns="http://www.w3.org/2000/svg">
<path d="M18.2625 0.0102845C22.0918 1.12444 25.3382 2.80424 27.8305 6.00615C28.9001 7.37742 29.3423 8.95438 30.4599 10.2194L49.6748 10.3291L59.1194 26.9591L72.143 22.2625L72.3007 0.0102845H82.5612L82.7361 20.8878C85.986 20.305 89.5684 20.3736 92.8183 20.881V0.0102845H103.082L103.24 22.2625L116.264 26.9591L125.708 10.3291L144.923 10.2194C146.041 8.95438 146.483 7.37742 147.552 6.00615C150.045 2.80424 153.291 1.12444 157.12 0.0102845H162.252C168.924 1.40555 173.853 6.33526 175.249 13.0133V17.8025C173.072 28.8823 160.912 34.6211 151.19 28.3544C148.115 26.3729 146.767 23.5961 144.923 20.5964L132.05 20.5347L125.393 32.0054C132.527 37.4905 139.153 43.692 144.021 51.3403L175.249 51.3334V61.9402H149.596C152.208 68.4674 154.063 75.4232 154.381 82.4715H175.249V92.7354H154.381C154.059 99.7803 152.208 106.739 149.596 113.26H175.249V123.87L144.021 123.863C139.153 131.511 132.527 137.713 125.393 143.198L132.05 154.669L144.923 154.607C146.774 151.577 148.104 148.861 151.197 146.852C160.881 140.558 173.096 146.342 175.249 157.398C175.112 158.92 175.437 160.709 175.249 162.187C173.823 173.407 159.465 179.129 150.46 172.101C147.943 170.137 146.565 167.624 144.923 164.977L125.708 164.868L116.432 148.306L103.079 153.119V175.186H92.8183V154.316C89.4656 154.854 85.914 154.854 82.5578 154.316V175.186H72.2973V153.119L59.116 148.237L49.6714 164.868L30.4565 164.977C28.2865 168.772 25.873 172.242 21.6735 173.983C7.69002 179.78 -5.54272 164.357 2.3832 151.607C8.26251 142.146 22.342 141.789 28.4647 151.121C28.9652 151.882 29.7709 154.367 30.4565 154.604L43.6035 154.436L49.9354 143.383C50.0828 142.838 44.1589 138.556 43.2264 137.723C38.8864 133.856 34.4846 128.903 31.6015 123.86H0.134326V113.253H25.7873C23.1408 106.736 21.3033 99.7872 20.9982 92.7251H0.134326V82.4612H20.9982C21.3033 75.3992 23.1373 68.4468 25.7873 61.9333H0.134326V51.3266H31.6015C34.4777 46.2529 38.8658 41.3472 43.2264 37.463C44.1623 36.63 50.0828 32.3516 49.9354 31.8031L43.3293 20.5245L30.4565 20.5862C28.5299 23.6612 27.1689 26.4792 23.9704 28.4675C11.8278 36.0232 -2.82074 25.1593 0.641709 11.289C1.97527 5.94102 7.62489 0.699347 13.1271 0H18.2591L18.2625 0.0102845ZM74.3542 108.128V81.9538C74.3542 69.681 59.4314 62.9412 49.7571 70.0101C47.5048 71.6556 43.5692 76.7327 43.5692 79.561V108.131H53.4869V97.8674H64.0903V108.131H74.3508L74.3542 108.128ZM92.8252 97.864H99.8358C106.449 97.864 112.942 90.058 113.356 83.6782C113.819 76.5784 107.793 67.0721 100.175 67.0721H82.5612V108.131H92.8217V97.8674L92.8252 97.864ZM130.446 67.0721H120.185V108.131H130.446V67.0721Z" fill="url(#paint0_linear_446_161)"/>
<path d="M64.0936 87.6H53.4902V81.9538C53.4902 78.8753 57.5663 76.7567 60.4323 77.408C61.8618 77.7337 64.0936 80.2157 64.0936 81.611V87.6Z" fill="url(#paint1_linear_446_161)"/>
<path d="M92.8242 87.6001V77.3362H99.4954C99.5949 77.3362 100.963 78.1727 101.206 78.3612C103.931 80.5038 103.808 85.0599 100.812 86.8631C100.586 87.0002 99.2452 87.6001 99.1526 87.6001H92.8242Z" fill="url(#paint2_linear_446_161)"/>
<defs>
<linearGradient id="paint0_linear_446_161" x1="205.51" y1="92.1973" x2="-60.4034" y2="87.2973" gradientUnits="userSpaceOnUse">
<stop stop-color="#FFE1AF"/>
<stop offset="1" stop-color="#156489"/>
</linearGradient>
<linearGradient id="paint1_linear_446_161" x1="65.9202" y1="82.7143" x2="49.8371" y2="82.4096" gradientUnits="userSpaceOnUse">
<stop stop-color="#FFE1AF"/>
<stop offset="1" stop-color="#156489"/>
</linearGradient>
<linearGradient id="paint2_linear_446_161" x1="104.939" y1="82.7362" x2="89.2634" y2="82.4455" gradientUnits="userSpaceOnUse">
<stop stop-color="#FFE1AF"/>
<stop offset="1" stop-color="#156489"/>
</linearGradient>
</defs>
</svg>
