<svg width="267" height="435" viewBox="0 0 267 435" fill="none" xmlns="http://www.w3.org/2000/svg">
<mask id="mask0_448_833" style="mask-type:alpha" maskUnits="userSpaceOnUse" x="0" y="3" width="267" height="429">
<rect x="-0.999735" y="0.968136" width="424.5" height="264.773" rx="96" transform="matrix(-0.000242594 1 -0.999492 -0.031864 266.708 10.4997)" fill="black" stroke="#136A93" stroke-width="2"/>
</mask>
<g mask="url(#mask0_448_833)">
<rect width="466.451" height="270.169" rx="47.5" transform="matrix(-0.000242594 1 -0.999492 -0.031864 367.777 165.824)" fill="url(#paint0_radial_448_833)" fill-opacity="0.74"/>
<rect width="466.451" height="270.169" rx="47.5" transform="matrix(-0.000242594 1 -0.999492 -0.031864 169.096 -140.411)" fill="url(#paint1_radial_448_833)" fill-opacity="0.74"/>
</g>
<rect x="1.83984" y="2.3252" width="264.159" height="427.406" rx="96" fill="#D9D9D9" fill-opacity="0.14" stroke="#136A93" stroke-width="2"/>
<path d="M74.4062 107.909H68.0488L68.0146 104.593H73.4663C74.4006 104.593 75.181 104.462 75.8076 104.2C76.4342 103.938 76.9071 103.556 77.2261 103.055C77.5565 102.554 77.7217 101.944 77.7217 101.227C77.7217 100.429 77.5679 99.7796 77.2603 99.2783C76.964 98.777 76.4969 98.4124 75.8589 98.1846C75.2209 97.9453 74.4119 97.8257 73.4321 97.8257H69.5698V119H64.8701V94.1172H73.4321C74.8449 94.1172 76.1038 94.2539 77.209 94.5273C78.3255 94.7894 79.2712 95.1995 80.0459 95.7578C80.8206 96.3161 81.4074 97.0168 81.8062 97.8599C82.2163 98.703 82.4214 99.7056 82.4214 100.868C82.4214 101.893 82.1821 102.839 81.7036 103.705C81.2365 104.559 80.513 105.254 79.5332 105.79C78.5648 106.325 77.3343 106.633 75.8418 106.712L74.4062 107.909ZM74.2012 119H66.6646L68.6299 115.309H74.2012C75.1354 115.309 75.9045 115.155 76.5083 114.847C77.1235 114.54 77.5793 114.118 77.8755 113.583C78.1831 113.036 78.3369 112.409 78.3369 111.703C78.3369 110.928 78.2002 110.256 77.9268 109.686C77.6647 109.116 77.2432 108.678 76.6621 108.37C76.0924 108.062 75.3405 107.909 74.4062 107.909H69.5186L69.5527 104.593H75.7734L76.8501 105.875C78.2856 105.886 79.4535 106.171 80.3535 106.729C81.265 107.288 81.9372 108.006 82.3701 108.883C82.8031 109.76 83.0195 110.706 83.0195 111.72C83.0195 113.315 82.672 114.653 81.9771 115.736C81.2935 116.818 80.2909 117.633 78.9692 118.18C77.659 118.727 76.0697 119 74.2012 119ZM96.6807 115.069V106.542C96.6807 105.915 96.5724 105.374 96.356 104.918C96.1395 104.462 95.8091 104.109 95.3647 103.858C94.9204 103.608 94.3564 103.482 93.6729 103.482C93.069 103.482 92.5392 103.585 92.0835 103.79C91.6392 103.995 91.2974 104.286 91.0581 104.662C90.8188 105.026 90.6992 105.448 90.6992 105.926H86.1704C86.1704 105.163 86.3527 104.439 86.7173 103.756C87.0819 103.061 87.6003 102.446 88.2725 101.91C88.9561 101.363 89.7707 100.936 90.7163 100.628C91.6733 100.321 92.7443 100.167 93.9292 100.167C95.3306 100.167 96.5781 100.406 97.6719 100.885C98.777 101.352 99.6429 102.058 100.27 103.004C100.908 103.95 101.227 105.14 101.227 106.576V114.642C101.227 115.565 101.284 116.357 101.397 117.018C101.523 117.667 101.705 118.231 101.944 118.709V119H97.3472C97.1307 118.533 96.9655 117.94 96.8516 117.223C96.7376 116.493 96.6807 115.776 96.6807 115.069ZM97.313 107.738L97.3472 110.421H94.4932C93.7868 110.421 93.1659 110.495 92.6304 110.643C92.0949 110.78 91.6562 110.985 91.3145 111.258C90.9727 111.52 90.7163 111.839 90.5454 112.215C90.3745 112.58 90.2891 112.996 90.2891 113.463C90.2891 113.919 90.3916 114.329 90.5967 114.693C90.8132 115.058 91.1208 115.348 91.5195 115.565C91.9297 115.77 92.4082 115.873 92.9551 115.873C93.7526 115.873 94.4476 115.713 95.04 115.394C95.6325 115.064 96.0939 114.665 96.4243 114.198C96.7547 113.731 96.9313 113.286 96.9541 112.865L98.2529 114.813C98.0934 115.28 97.8542 115.776 97.5352 116.3C97.2161 116.824 96.806 117.314 96.3047 117.77C95.8034 118.225 95.1995 118.601 94.4932 118.897C93.7868 119.194 92.9665 119.342 92.0322 119.342C90.8359 119.342 89.765 119.103 88.8193 118.624C87.8737 118.146 87.1274 117.49 86.5806 116.659C86.0337 115.827 85.7603 114.881 85.7603 113.822C85.7603 112.842 85.9425 111.976 86.3071 111.224C86.6717 110.472 87.2129 109.84 87.9307 109.327C88.6484 108.803 89.5371 108.41 90.5967 108.148C91.6676 107.875 92.8924 107.738 94.271 107.738H97.313ZM112.632 115.787C113.27 115.787 113.84 115.662 114.341 115.411C114.842 115.16 115.241 114.807 115.537 114.352C115.845 113.896 116.01 113.366 116.033 112.762H120.288C120.265 114.015 119.912 115.138 119.229 116.129C118.545 117.12 117.633 117.906 116.494 118.487C115.366 119.057 114.102 119.342 112.7 119.342C111.276 119.342 110.034 119.103 108.975 118.624C107.915 118.146 107.032 117.479 106.326 116.625C105.631 115.77 105.107 114.779 104.753 113.651C104.412 112.523 104.241 111.315 104.241 110.028V109.481C104.241 108.194 104.412 106.986 104.753 105.858C105.107 104.73 105.631 103.739 106.326 102.884C107.032 102.03 107.915 101.363 108.975 100.885C110.034 100.406 111.27 100.167 112.683 100.167C114.176 100.167 115.486 100.458 116.614 101.039C117.753 101.62 118.642 102.44 119.28 103.5C119.929 104.559 120.265 105.807 120.288 107.242H116.033C116.01 106.581 115.862 105.989 115.588 105.465C115.315 104.941 114.928 104.519 114.426 104.2C113.925 103.881 113.315 103.722 112.598 103.722C111.834 103.722 111.196 103.881 110.684 104.2C110.182 104.519 109.789 104.958 109.504 105.516C109.231 106.063 109.037 106.678 108.923 107.362C108.821 108.034 108.77 108.74 108.77 109.481V110.028C108.77 110.78 108.821 111.498 108.923 112.181C109.037 112.865 109.231 113.48 109.504 114.027C109.789 114.562 110.182 114.99 110.684 115.309C111.196 115.628 111.846 115.787 112.632 115.787ZM127.558 92.7329V119H123.046V92.7329H127.558ZM139.145 100.509L131.095 109.549L126.737 113.976L125.302 110.472L128.668 106.234L133.693 100.509H139.145ZM134.53 119L128.805 110.387L131.813 107.464L139.76 119H134.53ZM149.251 119.342C147.85 119.342 146.591 119.114 145.474 118.658C144.358 118.202 143.406 117.57 142.62 116.761C141.845 115.941 141.247 114.99 140.826 113.907C140.416 112.813 140.21 111.64 140.21 110.387V109.703C140.21 108.279 140.416 106.986 140.826 105.824C141.236 104.65 141.817 103.642 142.569 102.799C143.321 101.956 144.221 101.306 145.269 100.851C146.317 100.395 147.474 100.167 148.738 100.167C150.049 100.167 151.205 100.389 152.208 100.833C153.21 101.266 154.048 101.882 154.72 102.679C155.392 103.477 155.899 104.434 156.241 105.55C156.583 106.655 156.753 107.88 156.753 109.225V111.122H142.261V108.011H152.31V107.669C152.287 106.952 152.151 106.297 151.9 105.704C151.649 105.1 151.262 104.622 150.738 104.269C150.214 103.904 149.536 103.722 148.704 103.722C148.032 103.722 147.445 103.87 146.944 104.166C146.454 104.451 146.044 104.861 145.713 105.396C145.394 105.921 145.155 106.547 144.996 107.276C144.836 108.006 144.756 108.814 144.756 109.703V110.387C144.756 111.161 144.859 111.879 145.064 112.54C145.28 113.201 145.594 113.776 146.004 114.266C146.425 114.745 146.927 115.121 147.508 115.394C148.1 115.656 148.772 115.787 149.524 115.787C150.47 115.787 151.325 115.605 152.088 115.24C152.863 114.864 153.535 114.312 154.104 113.583L156.377 115.941C155.99 116.511 155.466 117.057 154.805 117.582C154.156 118.106 153.37 118.533 152.447 118.863C151.524 119.182 150.459 119.342 149.251 119.342ZM163.955 104.457V119H159.443V100.509H163.681L163.955 104.457ZM163.237 109.088H161.904C161.915 107.743 162.097 106.524 162.451 105.431C162.804 104.337 163.299 103.397 163.938 102.611C164.587 101.825 165.356 101.221 166.245 100.799C167.133 100.378 168.125 100.167 169.218 100.167C170.107 100.167 170.91 100.292 171.628 100.543C172.346 100.794 172.961 101.192 173.474 101.739C173.998 102.286 174.396 103.004 174.67 103.893C174.955 104.77 175.097 105.852 175.097 107.14V119H170.551V107.105C170.551 106.262 170.426 105.596 170.175 105.106C169.936 104.616 169.583 104.269 169.116 104.063C168.66 103.858 168.096 103.756 167.424 103.756C166.729 103.756 166.119 103.898 165.595 104.183C165.083 104.457 164.65 104.838 164.296 105.328C163.955 105.818 163.693 106.382 163.51 107.02C163.328 107.658 163.237 108.347 163.237 109.088ZM189.92 115.069V92.75H194.466V119H190.365L189.92 115.069ZM178.043 109.977V109.618C178.043 108.205 178.202 106.923 178.521 105.772C178.852 104.61 179.33 103.613 179.957 102.782C180.584 101.95 181.341 101.306 182.23 100.851C183.13 100.395 184.15 100.167 185.289 100.167C186.394 100.167 187.357 100.389 188.177 100.833C189.009 101.278 189.715 101.91 190.296 102.73C190.889 103.551 191.362 104.525 191.715 105.653C192.068 106.769 192.324 108 192.484 109.344V110.318C192.324 111.629 192.068 112.831 191.715 113.924C191.362 115.018 190.889 115.975 190.296 116.795C189.715 117.604 189.009 118.231 188.177 118.675C187.346 119.12 186.371 119.342 185.255 119.342C184.127 119.342 183.113 119.108 182.213 118.641C181.324 118.174 180.567 117.519 179.94 116.676C179.325 115.833 178.852 114.841 178.521 113.702C178.202 112.563 178.043 111.321 178.043 109.977ZM182.572 109.618V109.977C182.572 110.774 182.64 111.52 182.777 112.215C182.914 112.91 183.136 113.526 183.443 114.061C183.751 114.585 184.144 114.995 184.623 115.292C185.112 115.588 185.705 115.736 186.4 115.736C187.289 115.736 188.018 115.542 188.587 115.155C189.168 114.756 189.618 114.215 189.938 113.531C190.257 112.836 190.462 112.056 190.553 111.19V108.507C190.507 107.823 190.388 107.191 190.194 106.61C190.012 106.029 189.75 105.528 189.408 105.106C189.077 104.684 188.667 104.354 188.177 104.115C187.687 103.875 187.106 103.756 186.434 103.756C185.739 103.756 185.147 103.91 184.657 104.217C184.167 104.514 183.768 104.929 183.46 105.465C183.153 106 182.925 106.621 182.777 107.328C182.64 108.034 182.572 108.797 182.572 109.618Z" fill="#EDD5B1"/>
<path d="M114.955 161.203V174H114.059L106.412 162.732V174H105.516V161.203H106.412L114.067 172.462V161.203H114.955ZM117.434 169.403V169.087C117.434 168.396 117.533 167.76 117.732 167.18C117.932 166.594 118.216 166.087 118.585 165.659C118.954 165.231 119.396 164.9 119.912 164.666C120.434 164.432 121.011 164.314 121.644 164.314C122.282 164.314 122.859 164.432 123.375 164.666C123.896 164.9 124.342 165.231 124.711 165.659C125.086 166.087 125.373 166.594 125.572 167.18C125.771 167.76 125.871 168.396 125.871 169.087V169.403C125.871 170.095 125.771 170.733 125.572 171.319C125.373 171.899 125.086 172.403 124.711 172.831C124.342 173.259 123.899 173.59 123.384 173.824C122.868 174.059 122.294 174.176 121.661 174.176C121.022 174.176 120.442 174.059 119.921 173.824C119.405 173.59 118.96 173.259 118.585 172.831C118.216 172.403 117.932 171.899 117.732 171.319C117.533 170.733 117.434 170.095 117.434 169.403ZM118.295 169.087V169.403C118.295 169.937 118.368 170.446 118.515 170.933C118.667 171.413 118.884 171.841 119.165 172.216C119.452 172.585 119.804 172.878 120.22 173.095C120.642 173.306 121.122 173.411 121.661 173.411C122.194 173.411 122.666 173.306 123.076 173.095C123.492 172.878 123.841 172.585 124.122 172.216C124.409 171.841 124.626 171.413 124.772 170.933C124.925 170.446 125.001 169.937 125.001 169.403V169.087C125.001 168.565 124.925 168.064 124.772 167.584C124.626 167.104 124.409 166.676 124.122 166.301C123.835 165.926 123.483 165.63 123.067 165.413C122.651 165.19 122.177 165.079 121.644 165.079C121.11 165.079 120.636 165.19 120.22 165.413C119.804 165.63 119.452 165.926 119.165 166.301C118.878 166.676 118.661 167.104 118.515 167.584C118.368 168.064 118.295 168.565 118.295 169.087ZM134.335 172.154V160.5H135.205V174H134.379L134.335 172.154ZM127.664 169.342V169.157C127.664 168.413 127.746 167.745 127.91 167.153C128.08 166.556 128.323 166.046 128.64 165.624C128.956 165.202 129.337 164.88 129.782 164.657C130.233 164.429 130.743 164.314 131.312 164.314C131.856 164.314 132.34 164.402 132.762 164.578C133.184 164.754 133.547 165.003 133.852 165.325C134.156 165.647 134.405 166.028 134.599 166.468C134.792 166.907 134.936 167.394 135.029 167.927V170.757C134.959 171.243 134.827 171.694 134.634 172.11C134.446 172.526 134.197 172.89 133.887 173.2C133.582 173.511 133.213 173.751 132.779 173.921C132.346 174.091 131.851 174.176 131.294 174.176C130.731 174.176 130.225 174.059 129.773 173.824C129.328 173.59 128.947 173.259 128.631 172.831C128.32 172.397 128.08 171.888 127.91 171.302C127.746 170.71 127.664 170.057 127.664 169.342ZM128.543 169.157V169.342C128.543 169.916 128.602 170.452 128.719 170.95C128.836 171.442 129.012 171.87 129.246 172.233C129.48 172.597 129.779 172.881 130.143 173.086C130.506 173.291 130.934 173.394 131.426 173.394C132.047 173.394 132.571 173.279 132.999 173.051C133.427 172.816 133.77 172.506 134.027 172.119C134.285 171.732 134.47 171.308 134.581 170.845V167.918C134.511 167.613 134.408 167.297 134.273 166.969C134.139 166.641 133.951 166.336 133.711 166.055C133.471 165.768 133.166 165.536 132.797 165.36C132.428 165.185 131.977 165.097 131.443 165.097C130.945 165.097 130.515 165.199 130.151 165.404C129.788 165.609 129.486 165.896 129.246 166.266C129.012 166.629 128.836 167.057 128.719 167.549C128.602 168.041 128.543 168.577 128.543 169.157ZM141.656 174.176C141.047 174.176 140.484 174.062 139.969 173.833C139.453 173.604 139.005 173.282 138.624 172.866C138.243 172.444 137.947 171.949 137.736 171.381C137.525 170.807 137.42 170.177 137.42 169.491V169.113C137.42 168.387 137.525 167.73 137.736 167.145C137.953 166.559 138.249 166.055 138.624 165.633C139.005 165.205 139.438 164.88 139.925 164.657C140.411 164.429 140.927 164.314 141.472 164.314C142.046 164.314 142.562 164.42 143.019 164.631C143.481 164.836 143.874 165.129 144.196 165.51C144.519 165.891 144.762 166.342 144.926 166.863C145.096 167.379 145.181 167.95 145.181 168.577V169.192H137.956V168.428H144.311V168.313C144.305 167.745 144.19 167.218 143.968 166.731C143.751 166.239 143.432 165.841 143.01 165.536C142.594 165.231 142.081 165.079 141.472 165.079C140.997 165.079 140.563 165.182 140.171 165.387C139.784 165.586 139.45 165.867 139.169 166.23C138.888 166.588 138.671 167.013 138.519 167.505C138.366 167.991 138.29 168.527 138.29 169.113V169.491C138.29 170.036 138.372 170.546 138.536 171.021C138.706 171.495 138.94 171.911 139.239 172.269C139.544 172.626 139.904 172.907 140.32 173.112C140.736 173.317 141.19 173.42 141.683 173.42C142.239 173.42 142.74 173.32 143.186 173.121C143.631 172.916 144.035 172.579 144.398 172.11L144.952 172.532C144.747 172.837 144.492 173.115 144.188 173.367C143.883 173.613 143.522 173.81 143.106 173.956C142.69 174.103 142.207 174.176 141.656 174.176ZM147.149 173.42C147.149 173.238 147.208 173.083 147.325 172.954C147.448 172.825 147.609 172.761 147.809 172.761C148.014 172.761 148.178 172.825 148.301 172.954C148.424 173.083 148.485 173.238 148.485 173.42C148.485 173.602 148.424 173.757 148.301 173.886C148.178 174.009 148.014 174.07 147.809 174.07C147.609 174.07 147.448 174.009 147.325 173.886C147.208 173.757 147.149 173.602 147.149 173.42ZM151.544 164.49H152.414V175.134C152.414 175.714 152.317 176.206 152.124 176.61C151.931 177.015 151.649 177.319 151.28 177.524C150.911 177.735 150.457 177.841 149.918 177.841C149.771 177.841 149.619 177.826 149.461 177.797C149.297 177.768 149.145 177.727 149.004 177.674L149.03 176.927C149.13 176.956 149.253 176.985 149.399 177.015C149.546 177.044 149.689 177.059 149.83 177.059C150.199 177.059 150.51 176.985 150.762 176.839C151.02 176.692 151.213 176.476 151.342 176.188C151.477 175.901 151.544 175.55 151.544 175.134V164.49ZM151.359 161.669C151.359 161.493 151.418 161.344 151.535 161.221C151.652 161.092 151.808 161.027 152.001 161.027C152.2 161.027 152.358 161.092 152.476 161.221C152.599 161.344 152.66 161.493 152.66 161.669C152.66 161.845 152.599 161.994 152.476 162.117C152.358 162.24 152.2 162.302 152.001 162.302C151.808 162.302 151.652 162.24 151.535 162.117C151.418 161.994 151.359 161.845 151.359 161.669ZM161.247 171.601C161.247 171.337 161.177 171.073 161.036 170.81C160.896 170.54 160.635 170.294 160.254 170.071C159.873 169.843 159.316 169.652 158.584 169.5C158.057 169.383 157.588 169.254 157.178 169.113C156.768 168.967 156.422 168.791 156.141 168.586C155.865 168.381 155.654 168.138 155.508 167.856C155.367 167.569 155.297 167.232 155.297 166.846C155.297 166.494 155.373 166.166 155.525 165.861C155.678 165.557 155.897 165.29 156.185 165.062C156.472 164.827 156.817 164.646 157.222 164.517C157.632 164.382 158.092 164.314 158.602 164.314C159.328 164.314 159.949 164.438 160.465 164.684C160.98 164.924 161.376 165.255 161.651 165.677C161.933 166.099 162.073 166.579 162.073 167.118H161.203C161.203 166.767 161.101 166.438 160.896 166.134C160.696 165.823 160.403 165.571 160.017 165.378C159.63 165.179 159.158 165.079 158.602 165.079C158.021 165.079 157.553 165.167 157.195 165.343C156.838 165.519 156.577 165.738 156.413 166.002C156.249 166.266 156.167 166.538 156.167 166.819C156.167 167.042 156.199 167.244 156.264 167.426C156.334 167.607 156.463 167.777 156.65 167.936C156.838 168.094 157.104 168.243 157.45 168.384C157.802 168.519 158.256 168.65 158.812 168.779C159.58 168.949 160.204 169.157 160.685 169.403C161.171 169.644 161.528 169.939 161.757 170.291C161.991 170.643 162.108 171.067 162.108 171.565C162.108 171.952 162.026 172.307 161.862 172.629C161.704 172.945 161.473 173.221 161.168 173.455C160.869 173.684 160.506 173.862 160.078 173.991C159.656 174.114 159.185 174.176 158.663 174.176C157.866 174.176 157.195 174.047 156.65 173.789C156.105 173.531 155.692 173.191 155.411 172.77C155.13 172.348 154.989 171.894 154.989 171.407H155.859C155.895 171.917 156.056 172.318 156.343 172.611C156.636 172.904 156.99 173.112 157.406 173.235C157.828 173.353 158.247 173.411 158.663 173.411C159.226 173.411 159.697 173.326 160.078 173.156C160.465 172.98 160.755 172.755 160.948 172.479C161.147 172.204 161.247 171.911 161.247 171.601ZM111.765 229.727H108.038V228.944H111.765C112.562 228.944 113.206 228.815 113.698 228.558C114.196 228.294 114.56 227.942 114.788 227.503C115.017 227.058 115.131 226.56 115.131 226.009C115.131 225.464 115.017 224.963 114.788 224.506C114.56 224.049 114.196 223.683 113.698 223.407C113.206 223.126 112.562 222.985 111.765 222.985H108.416V235H107.52V222.203H111.765C112.696 222.203 113.476 222.364 114.103 222.687C114.735 223.003 115.213 223.445 115.535 224.014C115.857 224.582 116.019 225.241 116.019 225.991C116.019 226.771 115.857 227.438 115.535 227.995C115.219 228.552 114.744 228.979 114.111 229.278C113.479 229.577 112.696 229.727 111.765 229.727ZM121.292 234.06L124.359 225.49H125.3L121.213 236.547C121.131 236.758 121.028 236.992 120.905 237.25C120.788 237.514 120.63 237.766 120.431 238.006C120.237 238.252 119.991 238.451 119.692 238.604C119.399 238.762 119.036 238.841 118.603 238.841C118.497 238.841 118.359 238.829 118.189 238.806C118.02 238.782 117.899 238.756 117.829 238.727L117.82 237.988C117.891 238.006 117.99 238.021 118.119 238.032C118.248 238.044 118.339 238.05 118.392 238.05C118.772 238.05 119.092 237.979 119.35 237.839C119.613 237.698 119.833 237.496 120.009 237.232C120.185 236.969 120.34 236.649 120.475 236.274L121.292 234.06ZM118.269 225.49L121.477 233.901L121.723 234.798L121.072 235.185L117.319 225.49H118.269ZM130.485 225.49V226.237H125.827V225.49H130.485ZM127.576 223.012H128.455V232.697C128.455 233.172 128.514 233.532 128.631 233.778C128.754 234.019 128.915 234.18 129.114 234.262C129.313 234.344 129.527 234.385 129.756 234.385C129.92 234.385 130.072 234.376 130.213 234.358C130.359 234.341 130.5 234.32 130.635 234.297L130.688 235.044C130.559 235.085 130.392 235.117 130.187 235.141C129.981 235.164 129.788 235.176 129.606 235.176C129.202 235.176 128.848 235.103 128.543 234.956C128.238 234.804 128.001 234.549 127.831 234.191C127.661 233.828 127.576 233.33 127.576 232.697V223.012ZM133.632 221.5V235H132.762V221.5H133.632ZM133.447 229.586L133.052 229.243C133.093 228.716 133.21 228.215 133.403 227.74C133.597 227.266 133.857 226.847 134.186 226.483C134.514 226.12 134.9 225.836 135.346 225.631C135.791 225.42 136.28 225.314 136.813 225.314C137.288 225.314 137.713 225.379 138.088 225.508C138.463 225.637 138.779 225.842 139.037 226.123C139.301 226.404 139.5 226.768 139.635 227.213C139.775 227.652 139.846 228.188 139.846 228.821V235H138.976V228.812C138.976 228.109 138.876 227.562 138.677 227.169C138.483 226.776 138.211 226.498 137.859 226.334C137.514 226.17 137.104 226.088 136.629 226.088C136.096 226.088 135.633 226.205 135.24 226.439C134.848 226.674 134.52 226.973 134.256 227.336C133.998 227.699 133.802 228.083 133.667 228.487C133.532 228.886 133.459 229.252 133.447 229.586ZM142.025 230.403V230.087C142.025 229.396 142.125 228.76 142.324 228.18C142.523 227.594 142.808 227.087 143.177 226.659C143.546 226.231 143.988 225.9 144.504 225.666C145.025 225.432 145.603 225.314 146.235 225.314C146.874 225.314 147.451 225.432 147.967 225.666C148.488 225.9 148.934 226.231 149.303 226.659C149.678 227.087 149.965 227.594 150.164 228.18C150.363 228.76 150.463 229.396 150.463 230.087V230.403C150.463 231.095 150.363 231.733 150.164 232.319C149.965 232.899 149.678 233.403 149.303 233.831C148.934 234.259 148.491 234.59 147.976 234.824C147.46 235.059 146.886 235.176 146.253 235.176C145.614 235.176 145.034 235.059 144.513 234.824C143.997 234.59 143.552 234.259 143.177 233.831C142.808 233.403 142.523 232.899 142.324 232.319C142.125 231.733 142.025 231.095 142.025 230.403ZM142.887 230.087V230.403C142.887 230.937 142.96 231.446 143.106 231.933C143.259 232.413 143.476 232.841 143.757 233.216C144.044 233.585 144.396 233.878 144.812 234.095C145.233 234.306 145.714 234.411 146.253 234.411C146.786 234.411 147.258 234.306 147.668 234.095C148.084 233.878 148.433 233.585 148.714 233.216C149.001 232.841 149.218 232.413 149.364 231.933C149.517 231.446 149.593 230.937 149.593 230.403V230.087C149.593 229.565 149.517 229.064 149.364 228.584C149.218 228.104 149.001 227.676 148.714 227.301C148.427 226.926 148.075 226.63 147.659 226.413C147.243 226.19 146.769 226.079 146.235 226.079C145.702 226.079 145.228 226.19 144.812 226.413C144.396 226.63 144.044 226.926 143.757 227.301C143.47 227.676 143.253 228.104 143.106 228.584C142.96 229.064 142.887 229.565 142.887 230.087ZM153.548 227.521V235H152.678V225.49H153.521L153.548 227.521ZM153.363 229.586L152.968 229.243C153.009 228.716 153.126 228.215 153.319 227.74C153.513 227.266 153.773 226.847 154.102 226.483C154.43 226.12 154.816 225.836 155.262 225.631C155.707 225.42 156.196 225.314 156.729 225.314C157.204 225.314 157.629 225.379 158.004 225.508C158.379 225.637 158.695 225.842 158.953 226.123C159.217 226.404 159.416 226.768 159.551 227.213C159.691 227.652 159.762 228.188 159.762 228.821V235H158.892V228.812C158.892 228.109 158.792 227.562 158.593 227.169C158.399 226.776 158.127 226.498 157.775 226.334C157.43 226.17 157.02 226.088 156.545 226.088C156.012 226.088 155.549 226.205 155.156 226.439C154.764 226.674 154.436 226.973 154.172 227.336C153.914 227.699 153.718 228.083 153.583 228.487C153.448 228.886 153.375 229.252 153.363 229.586ZM122.171 292.168V283.203H123.059V292.168C123.059 293.029 122.892 293.759 122.558 294.356C122.229 294.954 121.778 295.408 121.204 295.719C120.63 296.023 119.979 296.176 119.253 296.176C118.491 296.176 117.823 296.041 117.249 295.771C116.675 295.502 116.229 295.095 115.913 294.55C115.597 293.999 115.438 293.305 115.438 292.467H116.335C116.335 293.105 116.446 293.645 116.669 294.084C116.897 294.518 117.229 294.846 117.662 295.068C118.102 295.285 118.632 295.394 119.253 295.394C119.792 295.394 120.281 295.273 120.721 295.033C121.16 294.787 121.512 294.424 121.775 293.943C122.039 293.463 122.171 292.871 122.171 292.168ZM131.936 294.269V289.364C131.936 288.89 131.836 288.482 131.637 288.143C131.438 287.797 131.145 287.533 130.758 287.352C130.377 287.164 129.905 287.07 129.343 287.07C128.827 287.07 128.364 287.161 127.954 287.343C127.55 287.524 127.228 287.771 126.987 288.081C126.753 288.392 126.636 288.737 126.636 289.118L125.774 289.101C125.774 288.743 125.859 288.397 126.029 288.063C126.205 287.729 126.451 287.431 126.768 287.167C127.09 286.903 127.471 286.695 127.91 286.543C128.355 286.391 128.845 286.314 129.378 286.314C130.052 286.314 130.644 286.429 131.153 286.657C131.669 286.88 132.073 287.22 132.366 287.677C132.659 288.128 132.806 288.696 132.806 289.382V294.031C132.806 294.359 132.829 294.699 132.876 295.051C132.923 295.402 132.993 295.687 133.087 295.903V296H132.146C132.076 295.783 132.023 295.517 131.988 295.2C131.953 294.878 131.936 294.567 131.936 294.269ZM132.173 290.533L132.19 291.245H130.002C129.434 291.245 128.927 291.298 128.481 291.403C128.042 291.503 127.667 291.649 127.356 291.843C127.052 292.036 126.817 292.271 126.653 292.546C126.489 292.815 126.407 293.12 126.407 293.46C126.407 293.812 126.498 294.134 126.68 294.427C126.861 294.72 127.119 294.954 127.453 295.13C127.793 295.3 128.188 295.385 128.64 295.385C129.249 295.385 129.788 295.276 130.257 295.06C130.731 294.843 131.124 294.553 131.435 294.189C131.745 293.82 131.965 293.407 132.094 292.95L132.472 293.504C132.384 293.803 132.237 294.11 132.032 294.427C131.827 294.737 131.561 295.024 131.232 295.288C130.904 295.552 130.518 295.766 130.072 295.93C129.633 296.094 129.129 296.176 128.561 296.176C127.951 296.176 127.418 296.062 126.961 295.833C126.51 295.599 126.158 295.282 125.906 294.884C125.66 294.479 125.537 294.022 125.537 293.513C125.537 293.062 125.637 292.654 125.836 292.291C126.035 291.922 126.322 291.608 126.697 291.351C127.072 291.087 127.529 290.885 128.068 290.744C128.607 290.604 129.214 290.533 129.888 290.533H132.173ZM138.325 295.13L141.516 286.49H142.421L138.817 296H138.149L138.325 295.13ZM135.39 286.49L138.606 295.147L138.765 296H138.088L134.484 286.49H135.39ZM149.9 294.269V289.364C149.9 288.89 149.801 288.482 149.602 288.143C149.402 287.797 149.109 287.533 148.723 287.352C148.342 287.164 147.87 287.07 147.308 287.07C146.792 287.07 146.329 287.161 145.919 287.343C145.515 287.524 145.192 287.771 144.952 288.081C144.718 288.392 144.601 288.737 144.601 289.118L143.739 289.101C143.739 288.743 143.824 288.397 143.994 288.063C144.17 287.729 144.416 287.431 144.732 287.167C145.055 286.903 145.436 286.695 145.875 286.543C146.32 286.391 146.81 286.314 147.343 286.314C148.017 286.314 148.608 286.429 149.118 286.657C149.634 286.88 150.038 287.22 150.331 287.677C150.624 288.128 150.771 288.696 150.771 289.382V294.031C150.771 294.359 150.794 294.699 150.841 295.051C150.888 295.402 150.958 295.687 151.052 295.903V296H150.111C150.041 295.783 149.988 295.517 149.953 295.2C149.918 294.878 149.9 294.567 149.9 294.269ZM150.138 290.533L150.155 291.245H147.967C147.398 291.245 146.892 291.298 146.446 291.403C146.007 291.503 145.632 291.649 145.321 291.843C145.017 292.036 144.782 292.271 144.618 292.546C144.454 292.815 144.372 293.12 144.372 293.46C144.372 293.812 144.463 294.134 144.645 294.427C144.826 294.72 145.084 294.954 145.418 295.13C145.758 295.3 146.153 295.385 146.604 295.385C147.214 295.385 147.753 295.276 148.222 295.06C148.696 294.843 149.089 294.553 149.399 294.189C149.71 293.82 149.93 293.407 150.059 292.95L150.437 293.504C150.349 293.803 150.202 294.11 149.997 294.427C149.792 294.737 149.525 295.024 149.197 295.288C148.869 295.552 148.482 295.766 148.037 295.93C147.598 296.094 147.094 296.176 146.525 296.176C145.916 296.176 145.383 296.062 144.926 295.833C144.475 295.599 144.123 295.282 143.871 294.884C143.625 294.479 143.502 294.022 143.502 293.513C143.502 293.062 143.602 292.654 143.801 292.291C144 291.922 144.287 291.608 144.662 291.351C145.037 291.087 145.494 290.885 146.033 290.744C146.572 290.604 147.179 290.533 147.853 290.533H150.138ZM115.72 356.42C115.72 356.238 115.778 356.083 115.896 355.954C116.019 355.825 116.18 355.761 116.379 355.761C116.584 355.761 116.748 355.825 116.871 355.954C116.994 356.083 117.056 356.238 117.056 356.42C117.056 356.602 116.994 356.757 116.871 356.886C116.748 357.009 116.584 357.07 116.379 357.07C116.18 357.07 116.019 357.009 115.896 356.886C115.778 356.757 115.72 356.602 115.72 356.42ZM129.703 344.203V357H128.807L121.16 345.732V357H120.264V344.203H121.16L128.815 355.462V344.203H129.703ZM140.953 356.218V357H133.614V356.218H140.953ZM133.939 344.203V357H133.043V344.203H133.939ZM140.057 350.021V350.804H133.614V350.021H140.057ZM140.918 344.203V344.985H133.614V344.203H140.918ZM147.624 344.203V357H146.745V344.203H147.624ZM152.098 344.203V344.985H142.271V344.203H152.098Z" fill="white"/>
<defs>
<radialGradient id="paint0_radial_448_833" cx="0" cy="0" r="1" gradientUnits="userSpaceOnUse" gradientTransform="translate(233.226 135.085) scale(233.226 135.085)">
<stop stop-color="#1A5069"/>
<stop offset="1" stop-color="#0F7BAE" stop-opacity="0"/>
</radialGradient>
<radialGradient id="paint1_radial_448_833" cx="0" cy="0" r="1" gradientUnits="userSpaceOnUse" gradientTransform="translate(233.226 135.085) scale(233.226 135.085)">
<stop stop-color="#1A5069"/>
<stop offset="1" stop-color="#0F7BAE" stop-opacity="0"/>
</radialGradient>
</defs>
</svg>
