<svg width="159" height="134" viewBox="0 0 159 134" fill="none" xmlns="http://www.w3.org/2000/svg">
<path d="M124.816 125.659C122.75 128.784 120.711 131.759 116.936 132.985L43.4583 133.126C40.052 132.104 38.0036 130.206 36.0642 127.349C23.665 109.104 13.4958 88.0028 1.26461 69.4993C0.887639 68.3548 0.828595 65.9249 0.992101 64.7349C1.2419 62.9636 6.16072 55.2016 7.44606 53.0215C16.398 37.8563 26.2902 20.1885 36.0642 5.79085C38.1853 2.66606 39.7795 1.68502 42.9996 0L116.169 0.0136255C119.185 0.749404 121.242 2.49347 123.109 4.88248C133.223 22.8954 145.405 39.9092 155.438 57.9403C158.149 62.8092 160.311 65.8658 157.622 71.4886C146.013 88.9475 136.335 108.237 124.812 125.664L124.816 125.659ZM102.38 83.0658C103.72 79.4823 106 77.0615 107.044 73.1373C115.279 42.3073 72.4535 25.5842 55.1354 50.2964C39.6432 72.4015 61.5303 98.8487 86.5741 92.6355C90.4483 91.6726 93.4368 89.5243 96.9749 88.2026C97.9559 88.457 105.223 96.3643 107.062 97.6769C107.762 98.1765 108.275 98.667 109.233 98.5172C110.378 98.34 113.712 94.9064 113.566 93.9026C113.394 92.6718 104.019 84.4374 102.38 83.0658Z" fill="#F5F5F5"/>
<path d="M93.024 50.1784C114.466 67.174 87.0651 99.2939 65.0462 81.5626C43.5814 64.2808 71.0551 32.765 93.024 50.1784ZM81.8556 57.7133C80.5702 57.9586 76.4735 57.0502 76.0148 58.4582C76.5053 64.9757 75.1473 72.9785 75.9239 79.3143C76.3145 82.48 81.8556 81.231 81.8556 80.1955V57.7133ZM71.4093 77.9245C71.9271 76.0624 71.4093 68.2777 71.4093 65.6616C71.4093 64.2899 65.8592 64.0765 65.2506 64.953C64.642 65.8296 64.9917 72.9331 65.6094 74.1911C66.1499 75.2948 70.7508 80.2954 71.4093 77.9291V77.9245ZM86.8516 68.1596V78.6058C88.3731 78.8147 92.0248 75.1358 92.5198 74.0549C93.2011 72.5652 92.5198 69.8537 92.756 68.155H86.8471L86.8516 68.1596Z" fill="#EDEDED"/>
</svg>
