<svg width="181" height="169" viewBox="0 0 181 169" fill="none" xmlns="http://www.w3.org/2000/svg">
<path d="M0.059264 89.7292C1.25717 80.3638 13.1114 71.1189 21.5752 78.7609C23.1545 80.1865 24.192 83.2716 27.0727 81.3886C31.3046 78.6226 23.4719 72.7502 20.937 71.6119C18.2203 70.392 14.976 69.9487 12.0133 70.3033C10.9973 70.4239 8.51232 71.5658 7.88485 71.1721C2.15203 61.0372 8.12015 47.3065 19.3755 44.4731C22.6661 48.9235 28.6093 51.8881 34.1425 49.8562C37.5579 48.6008 36.9625 44.1681 33.6754 44.1362C32.5239 44.1256 31.3545 44.9128 29.768 44.7994C24.5842 44.427 22.3845 38.0191 22.0993 33.6538C21.2864 21.0968 32.8661 11.1676 45.2516 13.8059C51.6689 15.1712 58.2003 17.8627 59.0667 25.1856C59.4161 28.1253 57.2556 34.7779 62.0971 34.1644C66.3682 33.6219 64.7139 23.3345 63.7442 20.533C62.2861 16.3344 58.4392 12.1747 54.1253 10.8094C59.6656 -1.73687 77.3418 -3.80783 85.9304 6.95121C86.4045 7.54697 88.9822 11.6995 88.9822 12.0541V49.3881C84.4223 47.4342 79.4061 47.1824 74.864 49.3207C72.7677 50.3065 70.3969 52.3881 72.4112 54.7322C74.4077 57.0549 76.7037 54.491 78.7323 53.8775C82.3295 52.7889 86.2691 53.6399 88.9822 56.2889V83.0057C85.8056 82.1901 83.3991 81.2964 80.0122 81.69C77.1351 82.0234 69.5198 84.4915 72.3078 88.449C74.0975 90.9916 77.8944 87.6653 80.358 87.3462C82.8215 87.027 88.6078 87.988 89 90.9526L88.9608 158.184C86.786 164.188 80.7074 168.355 74.4006 169H71.9121C69.3915 168.305 66.5714 168.025 64.4501 166.347C69.2489 161.844 71.2062 154.936 68.625 148.741C67.7943 146.744 66.6249 145.216 64.1756 146.269C61.4304 147.45 63.2415 149.911 63.6266 151.588C65.8905 161.45 56.0149 167.301 47.1946 166.518C39.4296 165.83 32.146 158.369 32.4775 150.468C35.1764 149.021 38.3387 148.262 41.0732 146.634C43.9966 144.897 52.0361 137.379 46.1999 134.932C43.33 133.73 42.7346 137.241 41.6828 138.748C40.0036 141.145 35.6077 143.188 32.8733 144.138C29.5897 145.28 28.4845 145.493 25.0191 144.702C12.1239 141.755 6.4053 126.989 13.3574 115.871C14.3557 114.272 16.6623 112.701 16.0028 110.51C15.4751 108.754 12.1631 108.4 10.6087 107.729C4.80453 105.215 1.5103 100.797 0.0628292 94.6867C0.205437 93.1122 -0.133256 91.2611 0.0628292 89.7327L0.059264 89.7292ZM45.5154 60.4627C43.1766 60.6365 36.9197 62.3989 36.6666 65.1295C36.5846 66.0125 36.7629 66.9735 37.426 67.5941C39.5865 69.6083 41.4047 67.2891 43.526 66.6224C46.5137 65.6827 49.8471 66.1118 52.464 67.8494C54.3713 69.1154 57.3518 74.2786 59.9794 71.3175C63.1096 67.7962 55.1307 62.406 52.1787 61.406C50.1288 60.711 47.651 60.3032 45.5118 60.4627H45.5154ZM31.9748 96.5236C28.9266 96.9243 29.0692 101.658 29.3259 103.963C29.8678 108.854 32.752 113.279 36.9447 115.847C39.1088 117.173 44.699 119.645 45.5261 115.659C46.1964 112.435 41.9324 112.159 39.7897 110.893C37.155 109.336 35.4188 106.659 35.0088 103.619C34.7129 101.428 36.196 95.9704 31.9748 96.5236ZM55.0879 97.9456C50.906 98.9031 54.7635 106.495 56.3179 108.602C58.671 111.786 62.8066 114.393 66.7924 114.811C69.6945 115.116 74.5146 115.442 73.6768 111.148C73.1492 108.453 68.5216 109.4 66.3432 108.893C63.9047 108.325 61.0133 105.861 59.8796 103.644C58.6389 101.219 59.1594 97.013 55.0879 97.9456Z" fill="url(#paint0_linear_398_1155)"/>
<path d="M134.159 93C134.541 93.069 135.165 93.5408 135.572 93.7259L150.836 111.397L160.422 111.411C164.235 100.364 180.342 102.937 180.98 114.536C181.663 126.966 164.851 130.497 160.241 119.062C156.219 118.517 149.023 120.499 145.978 117.461L131.684 100.607H93V93H134.155H134.159Z" fill="url(#paint1_linear_398_1155)"/>
<path d="M131.682 68.3903L145.977 51.5379C149.022 48.5006 156.218 50.4819 160.24 49.9376C164.85 38.5031 181.663 42.034 180.98 54.4628C180.339 66.1114 164.256 68.5609 160.24 57.5146L150.835 57.6054L135.57 75.2742C135.315 75.4484 134.324 76 134.157 76H93V68.3939H131.685L131.682 68.3903Z" fill="url(#paint2_linear_398_1155)"/>
<path d="M131.802 109.004C132.867 109.195 133.901 110.373 134.64 111.117C138.127 114.621 141.298 119.321 144.647 123.038C145.61 127.286 144.857 131.951 145.073 136.315C157.841 141.32 151.405 160.25 138.351 156.516C128.439 153.68 128.194 139.943 137.662 136.315C137.335 133.356 138.052 129.678 137.662 126.822C137.335 124.443 130.875 118.73 129.32 116.419H93V109H131.798L131.802 109.004Z" fill="url(#paint3_linear_398_1155)"/>
<path d="M129.322 51.5811C130.878 49.2698 137.339 43.557 137.666 41.1784C138.056 38.322 137.335 34.6444 137.666 31.6853C128.196 28.0608 128.441 14.3203 138.355 11.4851C151.412 7.75089 157.834 26.6415 145.079 31.6853C144.865 36.0567 145.608 40.7147 144.659 44.9692C141.221 48.6185 138.113 53.3686 134.643 56.8869C134.043 57.4957 132.629 59 131.805 59H93V51.5811H129.326H129.322Z" fill="url(#paint4_linear_398_1155)"/>
<path d="M104.846 32.5526L107.162 28.1197C101.069 19.6805 108.81 8.45437 118.717 11.5151C126.724 13.9892 128.638 25.0697 121.893 30.2135C119.15 32.3073 116.593 32.2824 113.282 32.2682C112.157 33.8324 109.443 40 107.462 40H93V32.5491H104.849L104.846 32.5526Z" fill="url(#paint5_linear_398_1155)"/>
<path d="M107.869 128.004C110.288 128.483 112.485 133.799 113.849 135.728C118.143 135.561 121.689 136.084 124.511 139.534C131.5 148.076 122.605 160.046 112.241 156.291C105.334 153.786 103.518 145.283 107.628 139.591L105.177 135.447H93V128.533L93.5385 128H107.865L107.869 128.004Z" fill="url(#paint6_linear_398_1155)"/>
<defs>
<linearGradient id="paint0_linear_398_1155" x1="104.332" y1="88.9143" x2="-30.6984" y2="87.6045" gradientUnits="userSpaceOnUse">
<stop stop-color="#FFE1AF"/>
<stop offset="1" stop-color="#156489"/>
</linearGradient>
<linearGradient id="paint1_linear_398_1155" x1="196.16" y1="110.362" x2="62.9553" y2="103.819" gradientUnits="userSpaceOnUse">
<stop stop-color="#FFE1AF"/>
<stop offset="1" stop-color="#156489"/>
</linearGradient>
<linearGradient id="paint2_linear_398_1155" x1="196.16" y1="60.362" x2="62.9553" y2="53.819" gradientUnits="userSpaceOnUse">
<stop stop-color="#FFE1AF"/>
<stop offset="1" stop-color="#156489"/>
</linearGradient>
<linearGradient id="paint3_linear_398_1155" x1="162.164" y1="134.254" x2="72.6868" y2="132.228" gradientUnits="userSpaceOnUse">
<stop stop-color="#FFE1AF"/>
<stop offset="1" stop-color="#156489"/>
</linearGradient>
<linearGradient id="paint4_linear_398_1155" x1="162.164" y1="36.2538" x2="72.6868" y2="34.2279" gradientUnits="userSpaceOnUse">
<stop stop-color="#FFE1AF"/>
<stop offset="1" stop-color="#156489"/>
</linearGradient>
<linearGradient id="paint5_linear_398_1155" x1="131.685" y1="26.2575" x2="81.6347" y2="25.2084" gradientUnits="userSpaceOnUse">
<stop stop-color="#FFE1AF"/>
<stop offset="1" stop-color="#156489"/>
</linearGradient>
<linearGradient id="paint6_linear_398_1155" x1="132.857" y1="143.257" x2="81.2917" y2="142.144" gradientUnits="userSpaceOnUse">
<stop stop-color="#FFE1AF"/>
<stop offset="1" stop-color="#156489"/>
</linearGradient>
</defs>
</svg>
