<svg width="100" height="223" viewBox="0 0 100 223" fill="none" xmlns="http://www.w3.org/2000/svg">
<line x1="52.5" y1="118" x2="52.5" y2="223" stroke="#FFE1AF" stroke-width="5"/>
<circle cx="50" cy="50" r="50" fill="url(#paint0_linear_335_260)"/>
<path d="M62.5 65.6523V72H37.6953V66.6289L49.1211 54.6172C50.1302 53.4616 50.944 52.4281 51.5625 51.5166C52.181 50.5889 52.6286 49.7507 52.9053 49.002C53.1982 48.2533 53.3447 47.5778 53.3447 46.9756C53.3447 45.9502 53.1901 45.0957 52.8809 44.4121C52.5879 43.7122 52.1484 43.1833 51.5625 42.8252C50.9928 42.4671 50.2848 42.2881 49.4385 42.2881C48.5921 42.2881 47.8516 42.5322 47.2168 43.0205C46.582 43.5088 46.0856 44.1761 45.7275 45.0225C45.3857 45.8688 45.2148 46.821 45.2148 47.8789H36.9629C36.9629 45.6979 37.4919 43.7041 38.5498 41.8975C39.624 40.0908 41.1133 38.6504 43.0176 37.5762C44.9219 36.4857 47.1273 35.9404 49.6338 35.9404C52.2542 35.9404 54.4515 36.3473 56.2256 37.1611C57.9997 37.9749 59.3343 39.1549 60.2295 40.7012C61.141 42.2311 61.5967 44.0785 61.5967 46.2432C61.5967 47.4801 61.4014 48.6683 61.0107 49.8076C60.6201 50.9469 60.0586 52.0781 59.3262 53.2012C58.5938 54.3079 57.6986 55.4473 56.6406 56.6191C55.599 57.791 54.4108 59.0361 53.0762 60.3545L48.4863 65.6523H62.5Z" fill="#3A677A"/>
<defs>
<linearGradient id="paint0_linear_335_260" x1="117.227" y1="52.612" x2="-34.4554" y2="49.8181" gradientUnits="userSpaceOnUse">
<stop stop-color="#FFE1AF"/>
<stop offset="1" stop-color="#156489"/>
</linearGradient>
</defs>
</svg>
