<svg width="100" height="223" viewBox="0 0 100 223" fill="none" xmlns="http://www.w3.org/2000/svg">
<circle cx="50" cy="50" r="50" fill="url(#paint0_linear_335_265)"/>
<line x1="52.5" y1="118" x2="52.5" y2="223" stroke="#FFE1AF" stroke-width="5"/>
<path d="M56.2256 31.9404H57.5439V38.4102H57.1045C55.5257 38.4102 54.0446 38.6299 52.6611 39.0693C51.2939 39.5088 50.0895 40.1761 49.0479 41.0713C48.0225 41.9502 47.2168 43.0651 46.6309 44.416C46.0612 45.7669 45.7764 47.3538 45.7764 49.1768V55.4023C45.7764 56.5417 45.874 57.5345 46.0693 58.3809C46.2646 59.2272 46.5576 59.9271 46.9482 60.4805C47.3389 61.0339 47.819 61.4489 48.3887 61.7256C48.9746 62.0023 49.6501 62.1406 50.415 62.1406C51.0498 62.1406 51.6357 61.9941 52.1729 61.7012C52.71 61.4082 53.1738 60.9932 53.5645 60.4561C53.9714 59.9189 54.2806 59.2923 54.4922 58.5762C54.7038 57.86 54.8096 57.0788 54.8096 56.2324C54.8096 55.321 54.6956 54.499 54.4678 53.7666C54.2399 53.0342 53.9144 52.4157 53.4912 51.9111C53.0843 51.3903 52.5879 50.9997 52.002 50.7393C51.4323 50.4626 50.8057 50.3242 50.1221 50.3242C49.0804 50.3242 48.1934 50.5602 47.4609 51.0322C46.7448 51.488 46.1995 52.0739 45.8252 52.79C45.4671 53.5062 45.2881 54.2305 45.2881 54.9629L43.3105 52.9609C43.278 51.9844 43.4652 50.9753 43.8721 49.9336C44.279 48.8919 44.8893 47.9235 45.7031 47.0283C46.5169 46.1331 47.5342 45.4089 48.7549 44.8555C49.9756 44.3021 51.3916 44.0254 53.0029 44.0254C54.6305 44.0254 56.0628 44.3346 57.2998 44.9531C58.5531 45.5716 59.6029 46.4342 60.4492 47.541C61.3118 48.6478 61.9629 49.9417 62.4023 51.4229C62.8418 52.904 63.0615 54.5072 63.0615 56.2324C63.0615 57.974 62.7523 59.5934 62.1338 61.0908C61.5316 62.5719 60.6771 63.8659 59.5703 64.9727C58.4635 66.0794 57.1533 66.9421 55.6396 67.5605C54.126 68.179 52.4577 68.4883 50.6348 68.4883C48.763 68.4883 47.0296 68.1709 45.4346 67.5361C43.8558 66.8851 42.4723 65.9492 41.2842 64.7285C40.1123 63.4915 39.1927 61.986 38.5254 60.2119C37.8743 58.4378 37.5488 56.4277 37.5488 54.1816V51.1787C37.5488 48.1351 38.0452 45.4251 39.0381 43.0488C40.0472 40.6725 41.4144 38.6624 43.1396 37.0186C44.8812 35.3584 46.875 34.097 49.1211 33.2344C51.3672 32.3717 53.7354 31.9404 56.2256 31.9404Z" fill="#3A677A"/>
<defs>
<linearGradient id="paint0_linear_335_265" x1="117.227" y1="52.612" x2="-34.4554" y2="49.8181" gradientUnits="userSpaceOnUse">
<stop stop-color="#FFE1AF"/>
<stop offset="1" stop-color="#156489"/>
</linearGradient>
</defs>
</svg>
