<svg width="100" height="223" viewBox="0 0 100 223" fill="none" xmlns="http://www.w3.org/2000/svg">
<circle cx="50" cy="173" r="50" fill="url(#paint0_linear_335_262)"/>
<line x1="48.5" y1="1.09278e-07" x2="48.5" y2="105" stroke="#FFE1AF" stroke-width="5"/>
<path d="M45.1904 171.784H49.1943C50.2197 171.784 51.0579 171.605 51.709 171.247C52.3763 170.873 52.8727 170.352 53.1982 169.685C53.5238 169.001 53.6865 168.195 53.6865 167.268C53.6865 166.551 53.5319 165.892 53.2227 165.29C52.9297 164.688 52.474 164.208 51.8555 163.85C51.237 163.475 50.4476 163.288 49.4873 163.288C48.8363 163.288 48.2015 163.426 47.583 163.703C46.9645 163.964 46.4518 164.338 46.0449 164.826C45.6543 165.314 45.459 165.909 45.459 166.608H37.207C37.207 164.59 37.7604 162.865 38.8672 161.433C39.9902 159.984 41.4632 158.877 43.2861 158.112C45.1253 157.331 47.1029 156.94 49.2188 156.94C51.7415 156.94 53.9551 157.331 55.8594 158.112C57.7637 158.877 59.2448 160.017 60.3027 161.53C61.377 163.028 61.9141 164.883 61.9141 167.097C61.9141 168.317 61.6292 169.465 61.0596 170.539C60.4899 171.613 59.6924 172.557 58.667 173.371C57.6416 174.185 56.4372 174.828 55.0537 175.3C53.6865 175.756 52.1891 175.983 50.5615 175.983H45.1904V171.784ZM45.1904 177.912V173.811H50.5615C52.3356 173.811 53.9551 174.014 55.4199 174.421C56.8848 174.812 58.1462 175.397 59.2041 176.179C60.262 176.96 61.0758 177.928 61.6455 179.084C62.2152 180.223 62.5 181.534 62.5 183.015C62.5 184.675 62.1663 186.156 61.499 187.458C60.8317 188.76 59.8958 189.859 58.6914 190.754C57.487 191.649 56.0791 192.333 54.4678 192.805C52.8564 193.26 51.1068 193.488 49.2188 193.488C47.7376 193.488 46.2565 193.293 44.7754 192.902C43.2943 192.495 41.9434 191.877 40.7227 191.047C39.502 190.201 38.5173 189.126 37.7686 187.824C37.0361 186.506 36.6699 184.935 36.6699 183.112H44.9219C44.9219 183.861 45.1253 184.545 45.5322 185.163C45.9554 185.765 46.5169 186.245 47.2168 186.604C47.9167 186.962 48.6735 187.141 49.4873 187.141C50.4964 187.141 51.3509 186.953 52.0508 186.579C52.7669 186.188 53.3122 185.668 53.6865 185.017C54.0609 184.366 54.248 183.641 54.248 182.844C54.248 181.639 54.0446 180.679 53.6377 179.963C53.2471 179.247 52.6693 178.726 51.9043 178.4C51.1556 178.075 50.2523 177.912 49.1943 177.912H45.1904Z" fill="#3A677A"/>
<defs>
<linearGradient id="paint0_linear_335_262" x1="117.227" y1="175.612" x2="-34.4554" y2="172.818" gradientUnits="userSpaceOnUse">
<stop stop-color="#FFE1AF"/>
<stop offset="1" stop-color="#156489"/>
</linearGradient>
</defs>
</svg>
