<svg width="100" height="223" viewBox="0 0 100 223" fill="none" xmlns="http://www.w3.org/2000/svg">
<circle cx="50" cy="173" r="50" fill="url(#paint0_linear_335_264)"/>
<line x1="48.5" y1="1.09278e-07" x2="48.5" y2="105" stroke="#FFE1AF" stroke-width="5"/>
<path d="M44.7266 174.155L38.1836 172.617L40.332 154.453H61.1084V160.85H47.0459L46.2402 167.905C46.6309 167.677 47.29 167.409 48.2178 167.1C49.1618 166.774 50.2035 166.611 51.3428 166.611C53.1006 166.611 54.6549 166.88 56.0059 167.417C57.373 167.938 58.5286 168.711 59.4727 169.736C60.4167 170.745 61.1247 171.991 61.5967 173.472C62.085 174.953 62.3291 176.646 62.3291 178.55C62.3291 180.08 62.0768 181.561 61.5723 182.993C61.084 184.409 60.3271 185.687 59.3018 186.826C58.2926 187.949 57.015 188.844 55.4688 189.512C53.9225 190.163 52.0915 190.488 49.9756 190.488C48.3968 190.488 46.8587 190.244 45.3613 189.756C43.8639 189.268 42.513 188.568 41.3086 187.656C40.1204 186.729 39.1764 185.614 38.4766 184.312C37.793 182.993 37.4593 181.52 37.4756 179.893H45.752C45.8008 180.755 46.0042 181.504 46.3623 182.139C46.7204 182.773 47.2005 183.27 47.8027 183.628C48.4212 183.97 49.1292 184.141 49.9268 184.141C50.7406 184.141 51.416 183.978 51.9531 183.652C52.4902 183.327 52.9134 182.879 53.2227 182.31C53.5319 181.74 53.7516 181.089 53.8818 180.356C54.012 179.608 54.0771 178.818 54.0771 177.988C54.0771 177.109 53.9795 176.32 53.7842 175.62C53.6051 174.92 53.3122 174.326 52.9053 173.838C52.4984 173.333 51.9694 172.951 51.3184 172.69C50.6836 172.43 49.9186 172.3 49.0234 172.3C47.8353 172.3 46.8994 172.503 46.2158 172.91C45.5322 173.317 45.0358 173.732 44.7266 174.155Z" fill="#3A677A"/>
<defs>
<linearGradient id="paint0_linear_335_264" x1="117.227" y1="175.612" x2="-34.4554" y2="172.818" gradientUnits="userSpaceOnUse">
<stop stop-color="#FFE1AF"/>
<stop offset="1" stop-color="#156489"/>
</linearGradient>
</defs>
</svg>
