<svg width="267" height="435" viewBox="0 0 267 435" fill="none" xmlns="http://www.w3.org/2000/svg">
<mask id="mask0_448_853" style="mask-type:alpha" maskUnits="userSpaceOnUse" x="0" y="3" width="267" height="429">
<rect x="-0.999735" y="0.968136" width="424.5" height="264.773" rx="96" transform="matrix(-0.000242594 1 -0.999492 -0.031864 266.71 10.4987)" fill="black" stroke="#136A93" stroke-width="2"/>
</mask>
<g mask="url(#mask0_448_853)">
<rect width="466.451" height="270.169" rx="47.5" transform="matrix(-0.000242594 1 -0.999492 -0.031864 367.779 165.823)" fill="url(#paint0_radial_448_853)" fill-opacity="0.74"/>
<rect width="466.451" height="270.169" rx="47.5" transform="matrix(-0.000242594 1 -0.999492 -0.031864 169.098 -140.412)" fill="url(#paint1_radial_448_853)" fill-opacity="0.74"/>
</g>
<rect x="1.8418" y="2.32422" width="264.159" height="427.406" rx="96" fill="#D9D9D9" fill-opacity="0.14" stroke="#136A93" stroke-width="2"/>
<path d="M101.399 110.814H106.099C105.974 112.477 105.512 113.953 104.715 115.24C103.917 116.516 102.806 117.519 101.382 118.248C99.9582 118.977 98.2321 119.342 96.2041 119.342C94.6432 119.342 93.2362 119.068 91.9829 118.521C90.741 117.963 89.6758 117.171 88.7871 116.146C87.9098 115.109 87.2376 113.867 86.7705 112.42C86.3034 110.962 86.0698 109.327 86.0698 107.516V105.619C86.0698 103.807 86.3091 102.172 86.7876 100.714C87.2661 99.2555 87.9497 98.0137 88.8384 96.9883C89.7384 95.9515 90.8151 95.154 92.0684 94.5957C93.333 94.0374 94.7458 93.7583 96.3066 93.7583C98.3346 93.7583 100.049 94.1343 101.451 94.8862C102.852 95.6268 103.94 96.6465 104.715 97.9453C105.49 99.2441 105.957 100.737 106.116 102.423H101.417C101.325 101.375 101.097 100.486 100.733 99.7568C100.38 99.0277 99.8442 98.4751 99.1265 98.0991C98.4201 97.7118 97.4801 97.5181 96.3066 97.5181C95.3952 97.5181 94.592 97.689 93.897 98.0308C93.2134 98.3726 92.6437 98.8853 92.188 99.5688C91.7323 100.241 91.3905 101.084 91.1626 102.098C90.9347 103.101 90.8208 104.263 90.8208 105.584V107.516C90.8208 108.78 90.9233 109.914 91.1284 110.917C91.3335 111.919 91.6525 112.768 92.0854 113.463C92.5184 114.158 93.0767 114.688 93.7603 115.052C94.4438 115.417 95.2585 115.599 96.2041 115.599C97.3548 115.599 98.2891 115.417 99.0068 115.052C99.736 114.688 100.289 114.152 100.665 113.446C101.052 112.739 101.297 111.862 101.399 110.814ZM113.933 92.75V119H109.404V92.75H113.933ZM117.186 109.942V109.583C117.186 108.228 117.38 106.98 117.767 105.841C118.154 104.69 118.718 103.693 119.459 102.85C120.2 102.007 121.105 101.352 122.176 100.885C123.247 100.406 124.466 100.167 125.833 100.167C127.223 100.167 128.454 100.406 129.525 100.885C130.607 101.352 131.519 102.007 132.259 102.85C133 103.693 133.564 104.69 133.951 105.841C134.339 106.98 134.532 108.228 134.532 109.583V109.942C134.532 111.287 134.339 112.534 133.951 113.685C133.564 114.824 133 115.821 132.259 116.676C131.519 117.519 130.613 118.174 129.542 118.641C128.471 119.108 127.246 119.342 125.868 119.342C124.5 119.342 123.276 119.108 122.193 118.641C121.111 118.174 120.2 117.519 119.459 116.676C118.718 115.821 118.154 114.824 117.767 113.685C117.38 112.534 117.186 111.287 117.186 109.942ZM121.698 109.583V109.942C121.698 110.751 121.778 111.509 121.937 112.215C122.097 112.922 122.341 113.543 122.672 114.078C123.002 114.614 123.43 115.035 123.954 115.343C124.489 115.639 125.127 115.787 125.868 115.787C126.597 115.787 127.223 115.639 127.748 115.343C128.272 115.035 128.699 114.614 129.029 114.078C129.371 113.543 129.622 112.922 129.781 112.215C129.941 111.509 130.021 110.751 130.021 109.942V109.583C130.021 108.786 129.941 108.04 129.781 107.345C129.622 106.638 129.371 106.017 129.029 105.482C128.699 104.935 128.266 104.508 127.73 104.2C127.206 103.881 126.574 103.722 125.833 103.722C125.104 103.722 124.478 103.881 123.954 104.2C123.43 104.508 123.002 104.935 122.672 105.482C122.341 106.017 122.097 106.638 121.937 107.345C121.778 108.04 121.698 108.786 121.698 109.583ZM148.569 114.608V100.509H153.115V119H148.843L148.569 114.608ZM149.15 110.78L150.552 110.746C150.552 111.987 150.415 113.132 150.142 114.181C149.868 115.229 149.441 116.14 148.86 116.915C148.29 117.678 147.567 118.277 146.689 118.709C145.812 119.131 144.775 119.342 143.579 119.342C142.668 119.342 141.836 119.216 141.084 118.966C140.332 118.704 139.683 118.299 139.136 117.752C138.6 117.194 138.184 116.482 137.888 115.616C137.592 114.739 137.444 113.685 137.444 112.455V100.509H141.956V112.489C141.956 113.104 142.024 113.617 142.161 114.027C142.309 114.437 142.508 114.773 142.759 115.035C143.021 115.286 143.323 115.468 143.665 115.582C144.018 115.685 144.394 115.736 144.792 115.736C145.886 115.736 146.746 115.519 147.373 115.086C148.011 114.642 148.467 114.05 148.74 113.309C149.014 112.557 149.15 111.714 149.15 110.78ZM167.956 115.069V92.75H172.501V119H168.4L167.956 115.069ZM156.078 109.977V109.618C156.078 108.205 156.238 106.923 156.557 105.772C156.887 104.61 157.366 103.613 157.992 102.782C158.619 101.95 159.376 101.306 160.265 100.851C161.165 100.395 162.185 100.167 163.324 100.167C164.429 100.167 165.392 100.389 166.212 100.833C167.044 101.278 167.75 101.91 168.332 102.73C168.924 103.551 169.397 104.525 169.75 105.653C170.103 106.769 170.36 108 170.519 109.344V110.318C170.36 111.629 170.103 112.831 169.75 113.924C169.397 115.018 168.924 115.975 168.332 116.795C167.75 117.604 167.044 118.231 166.212 118.675C165.381 119.12 164.407 119.342 163.29 119.342C162.162 119.342 161.148 119.108 160.248 118.641C159.359 118.174 158.602 117.519 157.975 116.676C157.36 115.833 156.887 114.841 156.557 113.702C156.238 112.563 156.078 111.321 156.078 109.977ZM160.607 109.618V109.977C160.607 110.774 160.675 111.52 160.812 112.215C160.949 112.91 161.171 113.526 161.479 114.061C161.786 114.585 162.179 114.995 162.658 115.292C163.148 115.588 163.74 115.736 164.435 115.736C165.324 115.736 166.053 115.542 166.623 115.155C167.204 114.756 167.654 114.215 167.973 113.531C168.292 112.836 168.497 112.056 168.588 111.19V108.507C168.542 107.823 168.423 107.191 168.229 106.61C168.047 106.029 167.785 105.528 167.443 105.106C167.112 104.684 166.702 104.354 166.212 104.115C165.722 103.875 165.141 103.756 164.469 103.756C163.774 103.756 163.182 103.91 162.692 104.217C162.202 104.514 161.803 104.929 161.496 105.465C161.188 106 160.96 106.621 160.812 107.328C160.675 108.034 160.607 108.797 160.607 109.618Z" fill="#EDD5B1"/>
<path d="M120.536 161.854L116.045 174H115.113L119.93 161.203H120.615L120.536 161.854ZM124.711 174L120.22 161.854L120.141 161.203H120.817L125.643 174H124.711ZM123.744 169.553V170.335H117.073V169.553H123.744ZM130.178 170.766L133.034 161.203H133.79L133.096 163.787L130.055 174H129.343L130.178 170.766ZM126.768 161.203L129.202 170.713L129.94 174H129.176L125.845 161.203H126.768ZM137.675 170.704L140.083 161.203H141.006L137.684 174H136.919L137.675 170.704ZM133.869 161.203L136.69 170.766L137.517 174H136.805L133.816 163.787L133.113 161.203H133.869ZM150.542 170.88C150.542 170.511 150.478 170.183 150.349 169.896C150.226 169.608 150.023 169.351 149.742 169.122C149.461 168.888 149.089 168.674 148.626 168.48C148.163 168.281 147.589 168.085 146.903 167.892C146.259 167.716 145.676 167.522 145.154 167.312C144.639 167.095 144.199 166.849 143.836 166.573C143.473 166.298 143.194 165.976 143.001 165.606C142.808 165.231 142.711 164.789 142.711 164.279C142.711 163.787 142.816 163.342 143.027 162.943C143.238 162.545 143.534 162.205 143.915 161.924C144.302 161.637 144.756 161.417 145.277 161.265C145.799 161.106 146.37 161.027 146.991 161.027C147.864 161.027 148.626 161.194 149.276 161.528C149.927 161.862 150.431 162.316 150.788 162.891C151.151 163.465 151.333 164.112 151.333 164.833H150.445C150.445 164.253 150.305 163.737 150.023 163.286C149.748 162.829 149.353 162.469 148.837 162.205C148.321 161.941 147.706 161.81 146.991 161.81C146.253 161.81 145.632 161.924 145.128 162.152C144.624 162.375 144.243 162.671 143.985 163.04C143.728 163.409 143.599 163.816 143.599 164.262C143.599 164.578 143.657 164.871 143.774 165.141C143.892 165.404 144.085 165.65 144.354 165.879C144.63 166.107 144.996 166.321 145.453 166.521C145.916 166.72 146.49 166.91 147.176 167.092C147.838 167.268 148.433 167.467 148.96 167.689C149.487 167.906 149.936 168.161 150.305 168.454C150.674 168.747 150.955 169.09 151.148 169.482C151.342 169.875 151.438 170.335 151.438 170.862C151.438 171.384 151.327 171.85 151.104 172.26C150.888 172.67 150.58 173.019 150.182 173.306C149.783 173.587 149.317 173.804 148.784 173.956C148.257 174.103 147.68 174.176 147.053 174.176C146.496 174.176 145.937 174.105 145.374 173.965C144.812 173.824 144.299 173.602 143.836 173.297C143.373 172.992 143.001 172.6 142.72 172.119C142.438 171.633 142.298 171.044 142.298 170.353H143.186C143.186 170.927 143.3 171.407 143.528 171.794C143.763 172.181 144.07 172.491 144.451 172.726C144.832 172.96 145.248 173.13 145.699 173.235C146.156 173.341 146.607 173.394 147.053 173.394C147.75 173.394 148.359 173.288 148.881 173.077C149.402 172.866 149.81 172.573 150.103 172.198C150.396 171.817 150.542 171.378 150.542 170.88ZM116.757 222.854L112.266 235H111.334L116.15 222.203H116.836L116.757 222.854ZM120.932 235L116.44 222.854L116.361 222.203H117.038L121.863 235H120.932ZM119.965 230.553V231.335H113.294V230.553H119.965ZM130.477 234.235V235H123.322V234.235H130.477ZM130.046 226.158L123.56 235H123.023V234.341L129.501 225.49H130.046V226.158ZM129.659 225.49V226.264H123.226V225.49H129.659ZM138.571 232.803V225.49H139.45V235H138.598L138.571 232.803ZM138.729 231.115L139.222 231.098C139.222 231.684 139.151 232.226 139.011 232.724C138.87 233.216 138.647 233.646 138.343 234.016C138.044 234.385 137.657 234.672 137.183 234.877C136.708 235.076 136.14 235.176 135.478 235.176C135.015 235.176 134.59 235.111 134.203 234.982C133.822 234.848 133.491 234.637 133.21 234.35C132.935 234.062 132.721 233.69 132.568 233.233C132.422 232.771 132.349 232.214 132.349 231.563V225.49H133.219V231.581C133.219 232.108 133.277 232.554 133.395 232.917C133.518 233.274 133.685 233.562 133.896 233.778C134.112 233.995 134.361 234.153 134.643 234.253C134.924 234.347 135.229 234.394 135.557 234.394C136.354 234.394 136.983 234.241 137.446 233.937C137.909 233.626 138.237 233.222 138.431 232.724C138.63 232.22 138.729 231.684 138.729 231.115ZM143.133 227.09V235H142.263V225.49H143.115L143.133 227.09ZM146.631 225.42L146.596 226.211C146.484 226.193 146.373 226.182 146.262 226.176C146.156 226.164 146.042 226.158 145.919 226.158C145.438 226.158 145.017 226.249 144.653 226.431C144.29 226.612 143.985 226.864 143.739 227.187C143.499 227.509 143.314 227.884 143.186 228.312C143.062 228.733 142.995 229.19 142.983 229.683L142.623 229.788C142.623 229.149 142.688 228.561 142.816 228.021C142.951 227.477 143.156 227.002 143.432 226.598C143.707 226.193 144.053 225.88 144.469 225.657C144.885 225.429 145.377 225.314 145.945 225.314C146.08 225.314 146.209 225.326 146.332 225.35C146.461 225.367 146.561 225.391 146.631 225.42ZM151.737 235.176C151.128 235.176 150.565 235.062 150.05 234.833C149.534 234.604 149.086 234.282 148.705 233.866C148.324 233.444 148.028 232.949 147.817 232.381C147.606 231.807 147.501 231.177 147.501 230.491V230.113C147.501 229.387 147.606 228.73 147.817 228.145C148.034 227.559 148.33 227.055 148.705 226.633C149.086 226.205 149.52 225.88 150.006 225.657C150.492 225.429 151.008 225.314 151.553 225.314C152.127 225.314 152.643 225.42 153.1 225.631C153.562 225.836 153.955 226.129 154.277 226.51C154.6 226.891 154.843 227.342 155.007 227.863C155.177 228.379 155.262 228.95 155.262 229.577V230.192H148.037V229.428H154.392V229.313C154.386 228.745 154.271 228.218 154.049 227.731C153.832 227.239 153.513 226.841 153.091 226.536C152.675 226.231 152.162 226.079 151.553 226.079C151.078 226.079 150.645 226.182 150.252 226.387C149.865 226.586 149.531 226.867 149.25 227.23C148.969 227.588 148.752 228.013 148.6 228.505C148.447 228.991 148.371 229.527 148.371 230.113V230.491C148.371 231.036 148.453 231.546 148.617 232.021C148.787 232.495 149.021 232.911 149.32 233.269C149.625 233.626 149.985 233.907 150.401 234.112C150.817 234.317 151.271 234.42 151.764 234.42C152.32 234.42 152.821 234.32 153.267 234.121C153.712 233.916 154.116 233.579 154.479 233.11L155.033 233.532C154.828 233.837 154.573 234.115 154.269 234.367C153.964 234.613 153.604 234.81 153.188 234.956C152.771 235.103 152.288 235.176 151.737 235.176ZM91.6377 290.006V294.523C91.4971 294.729 91.2451 294.96 90.8818 295.218C90.5186 295.476 90.0352 295.701 89.4316 295.895C88.834 296.082 88.0957 296.176 87.2168 296.176C86.4727 296.176 85.79 296.041 85.1689 295.771C84.5479 295.502 84.0117 295.112 83.5605 294.603C83.1094 294.093 82.7607 293.483 82.5146 292.774C82.2686 292.06 82.1455 291.266 82.1455 290.393V288.679C82.1455 287.817 82.2598 287.041 82.4883 286.35C82.7227 285.658 83.0537 285.063 83.4814 284.565C83.9092 284.067 84.4248 283.687 85.0283 283.423C85.6318 283.159 86.3086 283.027 87.0586 283.027C88.002 283.027 88.7959 283.191 89.4404 283.52C90.085 283.848 90.5889 284.293 90.9521 284.855C91.3154 285.418 91.541 286.054 91.6289 286.763H90.7412C90.6533 286.235 90.4746 285.749 90.2051 285.304C89.9355 284.858 89.5459 284.498 89.0361 284.223C88.5264 283.947 87.8672 283.81 87.0586 283.81C86.4258 283.81 85.8604 283.927 85.3623 284.161C84.8643 284.396 84.4424 284.727 84.0967 285.154C83.7568 285.582 83.4961 286.095 83.3145 286.692C83.1328 287.284 83.042 287.94 83.042 288.661V290.393C83.042 291.143 83.1387 291.825 83.332 292.44C83.5312 293.05 83.8154 293.577 84.1846 294.022C84.5537 294.462 84.9932 294.802 85.5029 295.042C86.0186 295.276 86.5928 295.394 87.2256 295.394C87.8877 295.394 88.459 295.329 88.9395 295.2C89.4199 295.071 89.8096 294.916 90.1084 294.734C90.4131 294.547 90.627 294.377 90.75 294.225V290.788H87.1641V290.006H91.6377ZM93.9316 291.403V291.087C93.9316 290.396 94.0312 289.76 94.2305 289.18C94.4297 288.594 94.7139 288.087 95.083 287.659C95.4521 287.231 95.8945 286.9 96.4102 286.666C96.9316 286.432 97.5088 286.314 98.1416 286.314C98.7803 286.314 99.3574 286.432 99.873 286.666C100.395 286.9 100.84 287.231 101.209 287.659C101.584 288.087 101.871 288.594 102.07 289.18C102.27 289.76 102.369 290.396 102.369 291.087V291.403C102.369 292.095 102.27 292.733 102.07 293.319C101.871 293.899 101.584 294.403 101.209 294.831C100.84 295.259 100.397 295.59 99.8818 295.824C99.3662 296.059 98.792 296.176 98.1592 296.176C97.5205 296.176 96.9404 296.059 96.4189 295.824C95.9033 295.59 95.458 295.259 95.083 294.831C94.7139 294.403 94.4297 293.899 94.2305 293.319C94.0312 292.733 93.9316 292.095 93.9316 291.403ZM94.793 291.087V291.403C94.793 291.937 94.8662 292.446 95.0127 292.933C95.165 293.413 95.3818 293.841 95.6631 294.216C95.9502 294.585 96.3018 294.878 96.7178 295.095C97.1396 295.306 97.6201 295.411 98.1592 295.411C98.6924 295.411 99.1641 295.306 99.5742 295.095C99.9902 294.878 100.339 294.585 100.62 294.216C100.907 293.841 101.124 293.413 101.271 292.933C101.423 292.446 101.499 291.937 101.499 291.403V291.087C101.499 290.565 101.423 290.064 101.271 289.584C101.124 289.104 100.907 288.676 100.62 288.301C100.333 287.926 99.9814 287.63 99.5654 287.413C99.1494 287.19 98.6748 287.079 98.1416 287.079C97.6084 287.079 97.1338 287.19 96.7178 287.413C96.3018 287.63 95.9502 287.926 95.6631 288.301C95.376 288.676 95.1592 289.104 95.0127 289.584C94.8662 290.064 94.793 290.565 94.793 291.087ZM103.969 291.403V291.087C103.969 290.396 104.068 289.76 104.268 289.18C104.467 288.594 104.751 288.087 105.12 287.659C105.489 287.231 105.932 286.9 106.447 286.666C106.969 286.432 107.546 286.314 108.179 286.314C108.817 286.314 109.395 286.432 109.91 286.666C110.432 286.9 110.877 287.231 111.246 287.659C111.621 288.087 111.908 288.594 112.107 289.18C112.307 289.76 112.406 290.396 112.406 291.087V291.403C112.406 292.095 112.307 292.733 112.107 293.319C111.908 293.899 111.621 294.403 111.246 294.831C110.877 295.259 110.435 295.59 109.919 295.824C109.403 296.059 108.829 296.176 108.196 296.176C107.558 296.176 106.978 296.059 106.456 295.824C105.94 295.59 105.495 295.259 105.12 294.831C104.751 294.403 104.467 293.899 104.268 293.319C104.068 292.733 103.969 292.095 103.969 291.403ZM104.83 291.087V291.403C104.83 291.937 104.903 292.446 105.05 292.933C105.202 293.413 105.419 293.841 105.7 294.216C105.987 294.585 106.339 294.878 106.755 295.095C107.177 295.306 107.657 295.411 108.196 295.411C108.729 295.411 109.201 295.306 109.611 295.095C110.027 294.878 110.376 294.585 110.657 294.216C110.944 293.841 111.161 293.413 111.308 292.933C111.46 292.446 111.536 291.937 111.536 291.403V291.087C111.536 290.565 111.46 290.064 111.308 289.584C111.161 289.104 110.944 288.676 110.657 288.301C110.37 287.926 110.019 287.63 109.603 287.413C109.187 287.19 108.712 287.079 108.179 287.079C107.646 287.079 107.171 287.19 106.755 287.413C106.339 287.63 105.987 287.926 105.7 288.301C105.413 288.676 105.196 289.104 105.05 289.584C104.903 290.064 104.83 290.565 104.83 291.087ZM120.914 286.49H121.731V295.842C121.731 296.662 121.579 297.368 121.274 297.96C120.97 298.558 120.536 299.015 119.974 299.331C119.417 299.647 118.758 299.806 117.996 299.806C117.58 299.806 117.17 299.744 116.766 299.621C116.361 299.498 115.983 299.313 115.632 299.067C115.286 298.827 114.99 298.534 114.744 298.188L115.254 297.652C115.635 298.121 116.045 298.47 116.484 298.698C116.924 298.927 117.41 299.041 117.943 299.041C118.57 299.041 119.101 298.912 119.534 298.654C119.968 298.402 120.296 298.039 120.519 297.564C120.747 297.09 120.861 296.524 120.861 295.868V288.582L120.914 286.49ZM114.199 291.342V291.157C114.199 290.413 114.281 289.745 114.445 289.153C114.609 288.556 114.847 288.046 115.157 287.624C115.474 287.202 115.857 286.88 116.309 286.657C116.76 286.429 117.27 286.314 117.838 286.314C118.383 286.314 118.866 286.402 119.288 286.578C119.71 286.754 120.073 287.003 120.378 287.325C120.688 287.647 120.94 288.028 121.134 288.468C121.327 288.907 121.471 289.394 121.564 289.927V292.757C121.488 293.243 121.356 293.694 121.169 294.11C120.981 294.526 120.732 294.89 120.422 295.2C120.111 295.511 119.739 295.751 119.306 295.921C118.878 296.091 118.383 296.176 117.82 296.176C117.258 296.176 116.751 296.059 116.3 295.824C115.854 295.59 115.474 295.259 115.157 294.831C114.847 294.397 114.609 293.888 114.445 293.302C114.281 292.71 114.199 292.057 114.199 291.342ZM115.069 291.157V291.342C115.069 291.916 115.128 292.452 115.245 292.95C115.362 293.442 115.538 293.87 115.772 294.233C116.013 294.597 116.312 294.881 116.669 295.086C117.032 295.291 117.46 295.394 117.952 295.394C118.573 295.394 119.098 295.279 119.525 295.051C119.953 294.816 120.293 294.506 120.545 294.119C120.797 293.732 120.976 293.308 121.081 292.845V289.918C121.017 289.613 120.917 289.297 120.782 288.969C120.653 288.641 120.469 288.336 120.229 288.055C119.994 287.768 119.692 287.536 119.323 287.36C118.954 287.185 118.503 287.097 117.97 287.097C117.472 287.097 117.041 287.199 116.678 287.404C116.314 287.609 116.013 287.896 115.772 288.266C115.538 288.629 115.362 289.057 115.245 289.549C115.128 290.041 115.069 290.577 115.069 291.157ZM125.563 282.5V296H124.693V282.5H125.563ZM132.111 296.176C131.502 296.176 130.939 296.062 130.424 295.833C129.908 295.604 129.46 295.282 129.079 294.866C128.698 294.444 128.402 293.949 128.191 293.381C127.98 292.807 127.875 292.177 127.875 291.491V291.113C127.875 290.387 127.98 289.73 128.191 289.145C128.408 288.559 128.704 288.055 129.079 287.633C129.46 287.205 129.894 286.88 130.38 286.657C130.866 286.429 131.382 286.314 131.927 286.314C132.501 286.314 133.017 286.42 133.474 286.631C133.937 286.836 134.329 287.129 134.651 287.51C134.974 287.891 135.217 288.342 135.381 288.863C135.551 289.379 135.636 289.95 135.636 290.577V291.192H128.411V290.428H134.766V290.313C134.76 289.745 134.646 289.218 134.423 288.731C134.206 288.239 133.887 287.841 133.465 287.536C133.049 287.231 132.536 287.079 131.927 287.079C131.452 287.079 131.019 287.182 130.626 287.387C130.239 287.586 129.905 287.867 129.624 288.23C129.343 288.588 129.126 289.013 128.974 289.505C128.821 289.991 128.745 290.527 128.745 291.113V291.491C128.745 292.036 128.827 292.546 128.991 293.021C129.161 293.495 129.396 293.911 129.694 294.269C129.999 294.626 130.359 294.907 130.775 295.112C131.191 295.317 131.646 295.42 132.138 295.42C132.694 295.42 133.195 295.32 133.641 295.121C134.086 294.916 134.49 294.579 134.854 294.11L135.407 294.532C135.202 294.837 134.947 295.115 134.643 295.367C134.338 295.613 133.978 295.81 133.562 295.956C133.146 296.103 132.662 296.176 132.111 296.176ZM150.401 292.027H151.289C151.201 292.912 150.961 293.662 150.568 294.277C150.182 294.893 149.657 295.364 148.995 295.692C148.333 296.015 147.545 296.176 146.631 296.176C145.91 296.176 145.257 296.041 144.671 295.771C144.091 295.496 143.59 295.106 143.168 294.603C142.752 294.093 142.433 293.486 142.21 292.783C141.987 292.08 141.876 291.304 141.876 290.454V288.758C141.876 287.896 141.987 287.117 142.21 286.42C142.433 285.717 142.755 285.113 143.177 284.609C143.599 284.1 144.103 283.71 144.688 283.44C145.28 283.165 145.945 283.027 146.684 283.027C147.574 283.027 148.348 283.188 149.004 283.511C149.666 283.833 150.19 284.302 150.577 284.917C150.964 285.532 151.201 286.285 151.289 287.176H150.401C150.313 286.455 150.12 285.846 149.821 285.348C149.528 284.85 149.121 284.469 148.6 284.205C148.078 283.941 147.439 283.81 146.684 283.81C146.08 283.81 145.535 283.927 145.049 284.161C144.568 284.396 144.158 284.729 143.818 285.163C143.479 285.597 143.218 286.115 143.036 286.719C142.854 287.322 142.764 287.996 142.764 288.74V290.454C142.764 291.175 142.852 291.84 143.027 292.449C143.203 293.053 143.458 293.574 143.792 294.014C144.126 294.453 144.53 294.793 145.005 295.033C145.485 295.273 146.027 295.394 146.631 295.394C147.398 295.394 148.046 295.271 148.573 295.024C149.101 294.778 149.514 294.406 149.812 293.908C150.117 293.41 150.313 292.783 150.401 292.027ZM154.778 282.5V296H153.908V282.5H154.778ZM157.107 291.403V291.087C157.107 290.396 157.207 289.76 157.406 289.18C157.605 288.594 157.89 288.087 158.259 287.659C158.628 287.231 159.07 286.9 159.586 286.666C160.107 286.432 160.685 286.314 161.317 286.314C161.956 286.314 162.533 286.432 163.049 286.666C163.57 286.9 164.016 287.231 164.385 287.659C164.76 288.087 165.047 288.594 165.246 289.18C165.445 289.76 165.545 290.396 165.545 291.087V291.403C165.545 292.095 165.445 292.733 165.246 293.319C165.047 293.899 164.76 294.403 164.385 294.831C164.016 295.259 163.573 295.59 163.058 295.824C162.542 296.059 161.968 296.176 161.335 296.176C160.696 296.176 160.116 296.059 159.595 295.824C159.079 295.59 158.634 295.259 158.259 294.831C157.89 294.403 157.605 293.899 157.406 293.319C157.207 292.733 157.107 292.095 157.107 291.403ZM157.969 291.087V291.403C157.969 291.937 158.042 292.446 158.188 292.933C158.341 293.413 158.558 293.841 158.839 294.216C159.126 294.585 159.478 294.878 159.894 295.095C160.315 295.306 160.796 295.411 161.335 295.411C161.868 295.411 162.34 295.306 162.75 295.095C163.166 294.878 163.515 294.585 163.796 294.216C164.083 293.841 164.3 293.413 164.446 292.933C164.599 292.446 164.675 291.937 164.675 291.403V291.087C164.675 290.565 164.599 290.064 164.446 289.584C164.3 289.104 164.083 288.676 163.796 288.301C163.509 287.926 163.157 287.63 162.741 287.413C162.325 287.19 161.851 287.079 161.317 287.079C160.784 287.079 160.31 287.19 159.894 287.413C159.478 287.63 159.126 287.926 158.839 288.301C158.552 288.676 158.335 289.104 158.188 289.584C158.042 290.064 157.969 290.565 157.969 291.087ZM173.947 293.803V286.49H174.826V296H173.974L173.947 293.803ZM174.105 292.115L174.598 292.098C174.598 292.684 174.527 293.226 174.387 293.724C174.246 294.216 174.023 294.646 173.719 295.016C173.42 295.385 173.033 295.672 172.559 295.877C172.084 296.076 171.516 296.176 170.854 296.176C170.391 296.176 169.966 296.111 169.579 295.982C169.198 295.848 168.867 295.637 168.586 295.35C168.311 295.062 168.097 294.69 167.944 294.233C167.798 293.771 167.725 293.214 167.725 292.563V286.49H168.595V292.581C168.595 293.108 168.653 293.554 168.771 293.917C168.894 294.274 169.061 294.562 169.271 294.778C169.488 294.995 169.737 295.153 170.019 295.253C170.3 295.347 170.604 295.394 170.933 295.394C171.729 295.394 172.359 295.241 172.822 294.937C173.285 294.626 173.613 294.222 173.807 293.724C174.006 293.22 174.105 292.684 174.105 292.115ZM183.888 294.154V282.5H184.758V296H183.932L183.888 294.154ZM177.217 291.342V291.157C177.217 290.413 177.299 289.745 177.463 289.153C177.633 288.556 177.876 288.046 178.192 287.624C178.509 287.202 178.89 286.88 179.335 286.657C179.786 286.429 180.296 286.314 180.864 286.314C181.409 286.314 181.893 286.402 182.314 286.578C182.736 286.754 183.1 287.003 183.404 287.325C183.709 287.647 183.958 288.028 184.151 288.468C184.345 288.907 184.488 289.394 184.582 289.927V292.757C184.512 293.243 184.38 293.694 184.187 294.11C183.999 294.526 183.75 294.89 183.439 295.2C183.135 295.511 182.766 295.751 182.332 295.921C181.898 296.091 181.403 296.176 180.847 296.176C180.284 296.176 179.777 296.059 179.326 295.824C178.881 295.59 178.5 295.259 178.184 294.831C177.873 294.397 177.633 293.888 177.463 293.302C177.299 292.71 177.217 292.057 177.217 291.342ZM178.096 291.157V291.342C178.096 291.916 178.154 292.452 178.271 292.95C178.389 293.442 178.564 293.87 178.799 294.233C179.033 294.597 179.332 294.881 179.695 295.086C180.059 295.291 180.486 295.394 180.979 295.394C181.6 295.394 182.124 295.279 182.552 295.051C182.979 294.816 183.322 294.506 183.58 294.119C183.838 293.732 184.022 293.308 184.134 292.845V289.918C184.063 289.613 183.961 289.297 183.826 288.969C183.691 288.641 183.504 288.336 183.264 288.055C183.023 287.768 182.719 287.536 182.35 287.36C181.98 287.185 181.529 287.097 180.996 287.097C180.498 287.097 180.067 287.199 179.704 287.404C179.341 287.609 179.039 287.896 178.799 288.266C178.564 288.629 178.389 289.057 178.271 289.549C178.154 290.041 178.096 290.577 178.096 291.157Z" fill="white"/>
<defs>
<radialGradient id="paint0_radial_448_853" cx="0" cy="0" r="1" gradientUnits="userSpaceOnUse" gradientTransform="translate(233.226 135.085) scale(233.226 135.085)">
<stop stop-color="#1A5069"/>
<stop offset="1" stop-color="#0F7BAE" stop-opacity="0"/>
</radialGradient>
<radialGradient id="paint1_radial_448_853" cx="0" cy="0" r="1" gradientUnits="userSpaceOnUse" gradientTransform="translate(233.226 135.085) scale(233.226 135.085)">
<stop stop-color="#1A5069"/>
<stop offset="1" stop-color="#0F7BAE" stop-opacity="0"/>
</radialGradient>
</defs>
</svg>
