<svg width="1920" height="218" viewBox="0 0 1920 218" fill="none" xmlns="http://www.w3.org/2000/svg">
<path d="M1367.77 1.5C1409.51 1.5 1448.75 17.8795 1478.26 47.6396L1564.72 134.789C1584.81 155.042 1611.53 166.204 1639.95 166.204C1668.36 166.204 1695.09 155.042 1715.18 134.789H1715.19C1731.29 118.557 1750.12 105.874 1771.16 97.0908C1792.19 88.3071 1814.41 83.8525 1837.18 83.8525H1917.5V134.154H1837.18C1804.41 134.154 1773.61 147.019 1750.45 170.367C1721.18 199.871 1682.35 216.227 1641.01 216.5H1639.95C1598.87 216.5 1560.21 200.629 1530.85 171.746L1529.46 170.36L1443.01 83.2109C1422.92 62.9578 1396.19 51.7959 1367.77 51.7959C1339.8 51.796 1313.47 62.6114 1293.48 82.2676L1292.54 83.2109L1206.08 170.36C1176.57 200.114 1137.33 216.5 1095.59 216.5C1053.85 216.5 1014.62 200.121 985.101 170.36L898.646 83.2109C857.164 41.3951 789.661 41.3951 748.179 83.2109L661.725 170.36C632.208 200.114 592.968 216.5 551.233 216.5C510.151 216.5 471.486 200.629 442.134 171.746L440.743 170.36L354.289 83.2109C334.198 62.9578 307.472 51.7959 279.052 51.7959C251.076 51.796 224.742 62.6118 204.768 82.2686L203.821 83.2109C187.718 99.4434 168.891 112.126 147.85 120.909C126.814 129.693 104.602 134.147 81.8291 134.147H1.5V83.8457H81.8232C114.587 83.8456 145.393 70.9811 168.555 47.6328C198.071 17.879 237.311 1.5 279.046 1.5C320.781 1.50006 360.02 17.8795 389.536 47.6396L475.99 134.789C517.472 176.605 584.976 176.605 626.458 134.789L712.912 47.6396C742.435 17.8793 781.668 1.5 823.409 1.5C865.15 1.50002 904.383 17.8795 933.899 47.6396L1020.35 134.789C1061.84 176.605 1129.34 176.605 1170.82 134.789L1257.28 47.6396C1286.8 17.8794 1326.03 1.50006 1367.77 1.5Z" fill="#333333" stroke="#146991" stroke-width="3"/>
<mask id="mask0_335_259" style="mask-type:alpha" maskUnits="userSpaceOnUse" x="1" y="0" width="1919" height="219">
<path d="M1368.77 1.5C1410.51 1.5 1449.75 17.8795 1479.26 47.6396L1565.72 134.789C1585.81 155.042 1612.53 166.204 1640.95 166.204C1669.36 166.204 1696.09 155.042 1716.18 134.789H1716.19C1732.29 118.557 1751.12 105.874 1772.16 97.0908C1793.19 88.3071 1815.41 83.8525 1838.18 83.8525H1918.5V134.154H1838.18C1805.41 134.154 1774.61 147.019 1751.45 170.367C1722.18 199.871 1683.35 216.227 1642.01 216.5H1640.95C1599.87 216.5 1561.21 200.629 1531.85 171.746L1530.46 170.36L1444.01 83.2109C1423.92 62.9578 1397.19 51.7959 1368.77 51.7959C1340.8 51.796 1314.47 62.6114 1294.48 82.2676L1293.54 83.2109L1207.08 170.36C1177.57 200.114 1138.33 216.5 1096.59 216.5C1054.85 216.5 1015.62 200.121 986.101 170.36L899.646 83.2109C858.164 41.3951 790.661 41.3951 749.179 83.2109L662.725 170.36C633.208 200.114 593.968 216.5 552.233 216.5C511.151 216.5 472.486 200.629 443.134 171.746L441.743 170.36L355.289 83.2109C335.198 62.9578 308.472 51.7959 280.052 51.7959C252.076 51.796 225.742 62.6118 205.768 82.2686L204.821 83.2109C188.718 99.4434 169.891 112.126 148.85 120.909C127.814 129.693 105.602 134.147 82.8291 134.147H2.5V83.8457H82.8232C115.587 83.8456 146.393 70.9811 169.555 47.6328C199.071 17.879 238.311 1.5 280.046 1.5C321.781 1.50006 361.02 17.8795 390.536 47.6396L476.99 134.789C518.472 176.605 585.976 176.605 627.458 134.789L713.912 47.6396C743.435 17.8793 782.668 1.5 824.409 1.5C866.15 1.50002 905.383 17.8795 934.899 47.6396L1021.35 134.789C1062.84 176.605 1130.34 176.605 1171.82 134.789L1258.28 47.6396C1287.8 17.8794 1327.03 1.50006 1368.77 1.5Z" fill="#333333" stroke="#146991" stroke-width="3"/>
</mask>
<g mask="url(#mask0_335_259)">
<rect width="278.585" height="1360.75" rx="47.5" transform="matrix(-0.00204685 0.999998 -0.999993 -0.00377841 1082.31 52.1416)" fill="url(#paint0_radial_335_259)" fill-opacity="0.74"/>
<rect width="278.585" height="1360.75" rx="47.5" transform="matrix(-0.00204685 0.999998 -0.999993 -0.00377841 2065.31 -118.858)" fill="url(#paint1_radial_335_259)" fill-opacity="0.74"/>
</g>
<defs>
<radialGradient id="paint0_radial_335_259" cx="0" cy="0" r="1" gradientUnits="userSpaceOnUse" gradientTransform="translate(139.293 680.374) scale(139.293 680.374)">
<stop stop-color="#1A5069"/>
<stop offset="1" stop-color="#0F7BAE" stop-opacity="0"/>
</radialGradient>
<radialGradient id="paint1_radial_335_259" cx="0" cy="0" r="1" gradientUnits="userSpaceOnUse" gradientTransform="translate(139.293 680.374) scale(139.293 680.374)">
<stop stop-color="#1A5069"/>
<stop offset="1" stop-color="#0F7BAE" stop-opacity="0"/>
</radialGradient>
</defs>
</svg>
