<svg width="202" height="176" viewBox="0 0 202 176" fill="none" xmlns="http://www.w3.org/2000/svg">
<path d="M192.187 0C196.826 1.08282 199.645 3.81941 201.228 8.24914V139.468C199.806 143.972 196.479 147.291 191.616 147.736H9.62727C4.45729 147.264 0.472504 143.291 0 138.109V9.61152C0.378003 5.5913 2.85865 2.37827 6.54418 0.834758L9.05633 0.00393687H192.187V0ZM192.581 114.326V9.62727C192.581 9.56034 191.975 8.93427 191.789 8.84764L9.44615 8.83977C9.17446 8.97364 8.26882 10.2415 8.26882 10.4148V113.74L8.85945 114.33H192.581V114.326ZM98.9463 124.245C91.8391 125.458 91.9572 136.9 99.281 137.865C110.499 139.342 110.235 122.32 98.9463 124.245Z" fill="url(#paint0_linear_446_146)"/>
<path d="M125.38 160.293H135.401C137.618 160.293 141.264 161.876 143.028 163.274C148.158 167.338 148.773 174.657 140.917 175.24L58.8591 175.13C49.6295 172.098 56.3706 162.494 62.8636 160.86C63.3204 160.746 65.9309 160.297 66.2302 160.297H75.8575V152.245L76.4481 151.654H124.785L125.376 152.245V160.297L125.38 160.293Z" fill="url(#paint1_linear_446_146)"/>
<path d="M116.228 43.3011C117.768 42.9546 125.844 42.9743 127.521 43.2421C128.875 43.4547 129.99 44.5887 130.407 45.8566L130.498 100.391C130.486 101.77 129.167 103.345 127.852 103.64C126.312 103.986 118.236 103.967 116.559 103.699C115.204 103.486 114.09 102.352 113.673 101.084L113.582 46.5496C113.594 45.1715 114.913 43.5964 116.228 43.3011Z" fill="url(#paint2_linear_446_146)"/>
<path d="M36.563 20.042C36.4566 20.7665 36.1731 21.4241 36.1495 22.1801C35.9644 28.0273 35.6101 36.5915 36.1731 42.2339C36.622 46.7188 39.0593 48.7545 43.4261 49.1286C49.1591 49.6168 57.2193 49.3136 63.1098 49.1364C63.8658 49.1128 64.5234 48.8293 65.2479 48.723C64.6848 54.4482 59.6408 60.3309 54.7583 63.1816C35.8778 74.2028 13.5677 56.3106 19.9466 35.4496C22.1673 28.1888 28.9241 21.302 36.563 20.0459V20.042Z" fill="url(#paint3_linear_446_146)"/>
<path d="M168.502 51.9518C170.219 51.6053 177.161 51.6368 178.929 51.9518C180.484 52.2314 181.74 53.4166 182.279 54.8892L182.37 99.9976C182.256 101.588 181.008 103.408 179.393 103.703C177.924 103.971 169.49 103.955 168.1 103.64C166.71 103.325 165.36 101.644 165.163 100.289L165.061 55.9799C165.246 54.0978 166.628 52.3338 168.498 51.9518H168.502Z" fill="url(#paint4_linear_446_146)"/>
<path d="M90.3044 64.9222C91.6746 64.5757 100.01 64.5993 101.581 64.8473C104.121 65.249 104.771 67.9383 104.96 70.1158C105.57 77.2309 105.645 91.7604 104.94 98.8046C104.755 100.655 104.007 103.167 101.916 103.636C100.377 103.983 92.3007 103.959 90.6233 103.695C89.2688 103.482 88.1545 102.348 87.7371 101.081L87.6387 68.1431C87.7095 66.9027 89.1625 65.2096 90.3083 64.9182L90.3044 64.9222Z" fill="url(#paint5_linear_446_146)"/>
<path d="M142.165 64.9103C143.665 64.5756 151.827 64.6032 153.387 64.9182C154.946 65.2332 155.934 66.3908 156.336 67.8634L156.434 99.9977C156.352 101.423 155.182 103.266 153.773 103.624C152.501 103.947 143.496 103.935 142.165 103.64C140.696 103.309 139.676 101.628 139.223 100.293L139.125 68.9423C139.283 67.3712 140.566 65.2686 142.165 64.9103Z" fill="url(#paint6_linear_446_146)"/>
<path d="M42.3484 18.9395C44.3329 18.5103 49.499 19.8452 51.4914 20.6327C57.8938 23.1566 63.4024 29.2598 65.3515 35.8473C66.0602 38.2374 67.8518 44.3287 64.2883 44.8091C57.7835 45.6833 49.3572 44.1004 42.6358 44.8091C41.4585 44.7697 40.5096 43.8129 40.4741 42.6474C41.1829 35.9221 39.6 27.5076 40.4741 20.9988C40.6277 19.8648 41.1908 19.1876 42.3484 18.9395Z" fill="url(#paint7_linear_446_146)"/>
<path d="M147.832 48.6639L149.186 48.3489L172.646 31.7207C174.083 30.8466 176.284 32.1223 176.013 33.8903L174.875 35.5283L149.489 53.3653L147.213 53.8221L122.029 24.3536L96.4467 48.219C94.6276 48.219 93.2731 46.5928 94.3126 44.9587C101.038 38.6074 107.44 31.8546 114.17 25.5191C115.804 23.9795 118.903 20.7507 120.466 19.6403C121.415 18.967 122.068 18.5142 123.159 19.2978L147.828 48.66L147.832 48.6639Z" fill="url(#paint8_linear_446_146)"/>
<path d="M20.3369 87.303L63.8821 87.2124C67.1976 87.4723 67.1976 91.2877 63.8821 91.5476L21.0181 91.5594C18.4824 91.2287 18.0374 88.4134 20.3369 87.299V87.303Z" fill="url(#paint9_linear_446_146)"/>
<path d="M65.9302 78.475C65.4931 78.9594 63.8315 79.3925 63.107 79.3807C49.932 78.4435 35.1898 80.558 22.1999 79.3767C18.4474 79.0342 17.1874 75.9826 21.0305 75.0415L65.2372 75.2463C66.4066 75.9078 66.8831 77.408 65.9262 78.475H65.9302Z" fill="url(#paint10_linear_446_146)"/>
<path d="M19.8622 99.793H65.0572C65.262 99.793 66.4038 101.084 66.455 101.581C66.522 102.266 65.4076 103.723 65.0572 103.723H19.8622C18.5667 102.526 18.5825 100.97 19.8622 99.793Z" fill="url(#paint11_linear_446_146)"/>
<path d="M100.124 128.139C103.085 127.596 104.904 131.986 101.943 133.526C97.9468 135.605 96.0213 128.895 100.124 128.139Z" fill="url(#paint12_linear_446_146)"/>
<defs>
<linearGradient id="paint0_linear_446_146" x1="235.894" y1="77.7271" x2="-69.2454" y2="70.0714" gradientUnits="userSpaceOnUse">
<stop stop-color="#FFE1AF"/>
<stop offset="1" stop-color="#156489"/>
</linearGradient>
<linearGradient id="paint1_linear_446_146" x1="162.797" y1="164.063" x2="23.1462" y2="153.973" gradientUnits="userSpaceOnUse">
<stop stop-color="#FFE1AF"/>
<stop offset="1" stop-color="#156489"/>
</linearGradient>
<linearGradient id="paint2_linear_446_146" x1="133.412" y1="75.0602" x2="107.746" y2="74.9288" gradientUnits="userSpaceOnUse">
<stop stop-color="#FFE1AF"/>
<stop offset="1" stop-color="#156489"/>
</linearGradient>
<linearGradient id="paint3_linear_446_146" x1="73.2437" y1="44.5055" x2="2.84179" y2="43.2111" gradientUnits="userSpaceOnUse">
<stop stop-color="#FFE1AF"/>
<stop offset="1" stop-color="#156489"/>
</linearGradient>
<linearGradient id="paint4_linear_446_146" x1="185.352" y1="79.1604" x2="159.089" y2="78.9999" gradientUnits="userSpaceOnUse">
<stop stop-color="#FFE1AF"/>
<stop offset="1" stop-color="#156489"/>
</linearGradient>
<linearGradient id="paint5_linear_446_146" x1="108.511" y1="85.3028" x2="81.4967" y2="85.077" gradientUnits="userSpaceOnUse">
<stop stop-color="#FFE1AF"/>
<stop offset="1" stop-color="#156489"/>
</linearGradient>
<linearGradient id="paint6_linear_446_146" x1="159.416" y1="85.2909" x2="133.154" y2="85.0772" gradientUnits="userSpaceOnUse">
<stop stop-color="#FFE1AF"/>
<stop offset="1" stop-color="#156489"/>
</linearGradient>
<linearGradient id="paint7_linear_446_146" x1="70.9519" y1="32.6533" x2="31.1654" y2="31.9202" gradientUnits="userSpaceOnUse">
<stop stop-color="#FFE1AF"/>
<stop offset="1" stop-color="#156489"/>
</linearGradient>
<linearGradient id="paint8_linear_446_146" x1="190.176" y1="37.2658" x2="65.8593" y2="31.8858" gradientUnits="userSpaceOnUse">
<stop stop-color="#FFE1AF"/>
<stop offset="1" stop-color="#156489"/>
</linearGradient>
<linearGradient id="paint9_linear_446_146" x1="74.5566" y1="89.4995" x2="5.25016" y2="75.5415" gradientUnits="userSpaceOnUse">
<stop stop-color="#FFE1AF"/>
<stop offset="1" stop-color="#156489"/>
</linearGradient>
<linearGradient id="paint10_linear_446_146" x1="74.6618" y1="77.5166" x2="4.6668" y2="64.4328" gradientUnits="userSpaceOnUse">
<stop stop-color="#FFE1AF"/>
<stop offset="1" stop-color="#156489"/>
</linearGradient>
<linearGradient id="paint11_linear_446_146" x1="74.6515" y1="101.86" x2="5.90146" y2="86.5335" gradientUnits="userSpaceOnUse">
<stop stop-color="#FFE1AF"/>
<stop offset="1" stop-color="#156489"/>
</linearGradient>
<linearGradient id="paint12_linear_446_146" x1="104.419" y1="131.16" x2="95.9058" y2="131.009" gradientUnits="userSpaceOnUse">
<stop stop-color="#FFE1AF"/>
<stop offset="1" stop-color="#156489"/>
</linearGradient>
</defs>
</svg>
