<svg width="176" height="176" viewBox="0 0 176 176" fill="none" xmlns="http://www.w3.org/2000/svg">
<path d="M0.21036 81.7504C0.443403 79.4302 1.71143 75.4924 3.2879 73.7138C5.66631 71.0304 9.73083 70.5163 12.5136 68.2441C17.2088 64.4126 20.9375 54.3506 20.3823 48.3874C20.0567 44.8849 17.435 42.0302 17.668 38.1918C18.0382 32.1361 30.1358 19.4764 35.9962 18.5545C41.8566 17.6326 46.1233 22.2009 52.1413 20.5251V53.5315C20.6119 86.8499 47.6415 141.924 93.6094 136.433C133.734 131.642 150.972 82.6448 123.202 53.5315V20.5251C129.371 22.3346 133.052 17.5709 139.348 18.5545C144.851 19.4147 155.589 30.683 157.127 35.9847C158.779 41.6772 155.397 43.6649 154.961 48.3874C154.403 54.3917 158.101 64.3852 162.83 68.2441C166.919 71.5787 171.706 70.9344 173.93 76.9695C175.809 82.0656 175.822 95.0098 173.149 99.7735C170.928 103.728 167.594 103.8 164.228 105.894C158.395 109.524 154.132 120.741 155.006 127.386C155.595 131.875 158.772 133.486 157.131 139.148C155.592 144.446 144.862 155.711 139.351 156.578C133.854 157.441 130.399 153.925 125.07 154.254C120.821 154.518 112.894 157.921 109.703 160.755C105.793 164.227 105.854 169.594 101.66 172.541C96.8445 175.927 83.0539 175.694 77.4985 174.197C68.9787 171.904 70.7985 165.156 65.4693 160.584C61.6755 157.332 53.19 153.898 48.2002 154.251C43.8752 154.556 41.2774 157.291 36.2841 156.626C30.7288 155.889 19.4775 144.305 18.0758 138.939C16.6365 133.414 19.8786 131.546 20.3686 127.07C21.0643 120.706 17.0546 110.045 11.7323 106.295C9.07625 104.424 5.52237 103.937 3.28447 101.412C1.63945 99.5576 0.4434 95.4656 0.20693 93.0324C-0.063812 90.253 -0.0740933 84.5126 0.20693 81.7435L0.21036 81.7504Z" fill="url(#paint0_linear_446_184)"/>
<path d="M116.025 0C116.618 0.411253 117.732 1.5045 117.732 2.22419V103.982H57.6035V24.6272H77.2477C78.2553 24.6272 79.5747 22.8074 79.4788 21.7279L79.4685 0H116.025ZM90.4009 54.7275H68.0219C67.0863 54.7275 65.8525 56.3554 65.8046 57.3218C65.7052 59.3027 67.3708 60.0704 69.0295 60.2211C75.8083 60.838 83.5227 59.7242 90.4009 60.2006C89.2254 67.4661 97.0289 67.4969 95.8637 60.2006C98.65 59.7585 107.447 61.873 106.738 57.0408C106.176 53.2161 98.6397 55.2176 95.8637 54.7309C97.0461 47.5271 89.198 47.3078 90.4009 54.7309V54.7275ZM81.4254 66.4551C78.598 63.6345 75.6678 68.1823 76.7405 71.1502C74.0057 71.63 66.017 69.5703 65.808 73.7411C65.5818 78.2546 74.0228 76.1572 76.7405 76.6199C75.5787 83.9196 83.3754 83.8853 82.2033 76.6199L103.907 76.6301C107.495 76.4417 107.787 71.6677 104.219 71.1708L82.2033 71.1502C82.193 69.8102 82.4466 67.4763 81.4254 66.4551ZM90.4009 87.566H68.0219C67.0863 87.566 65.8525 89.1939 65.8046 90.1604C65.7052 92.1412 67.3708 92.9089 69.0295 93.0597C75.8083 93.6766 83.5227 92.5628 90.4009 93.0391C89.2254 100.305 97.0289 100.335 95.8637 93.0391C98.65 92.597 107.447 94.7116 106.738 89.8793C106.176 86.0547 98.6397 88.0561 95.8637 87.5695C97.0495 80.3109 89.2083 80.2629 90.4009 87.5695V87.566Z" fill="url(#paint1_linear_446_184)"/>
<path d="M125.591 109.455C109.193 138.514 66.1071 138.558 49.7461 109.455H125.591Z" fill="url(#paint2_linear_446_184)"/>
<path d="M52.1374 103.982H47.0139C41.6745 90.3728 43.1892 73.957 52.1374 62.2534V103.982Z" fill="url(#paint3_linear_446_184)"/>
<path d="M128.325 103.982H123.201V62.2534C132.129 73.9741 133.63 90.3626 128.325 103.982Z" fill="url(#paint4_linear_446_184)"/>
<path d="M74.0015 19.1575H58.6309L74.0015 3.76294V19.1575Z" fill="url(#paint5_linear_446_184)"/>
<defs>
<linearGradient id="paint0_linear_446_184" x1="205.451" y1="100.926" x2="-60.3637" y2="95.454" gradientUnits="userSpaceOnUse">
<stop stop-color="#FFE1AF"/>
<stop offset="1" stop-color="#156489"/>
</linearGradient>
<linearGradient id="paint1_linear_446_184" x1="128.091" y1="54.707" x2="36.8654" y2="53.7353" gradientUnits="userSpaceOnUse">
<stop stop-color="#FFE1AF"/>
<stop offset="1" stop-color="#156489"/>
</linearGradient>
<linearGradient id="paint2_linear_446_184" x1="138.657" y1="120.93" x2="24.0445" y2="113.589" gradientUnits="userSpaceOnUse">
<stop stop-color="#FFE1AF"/>
<stop offset="1" stop-color="#156489"/>
</linearGradient>
<linearGradient id="paint3_linear_446_184" x1="53.5517" y1="84.2076" x2="41.095" y2="84.1625" gradientUnits="userSpaceOnUse">
<stop stop-color="#FFE1AF"/>
<stop offset="1" stop-color="#156489"/>
</linearGradient>
<linearGradient id="paint4_linear_446_184" x1="132.801" y1="84.2076" x2="120.376" y2="84.1627" gradientUnits="userSpaceOnUse">
<stop stop-color="#FFE1AF"/>
<stop offset="1" stop-color="#156489"/>
</linearGradient>
<linearGradient id="paint5_linear_446_184" x1="76.6494" y1="11.8623" x2="53.3348" y2="11.4336" gradientUnits="userSpaceOnUse">
<stop stop-color="#FFE1AF"/>
<stop offset="1" stop-color="#156489"/>
</linearGradient>
</defs>
</svg>
