<svg width="205" height="149" viewBox="0 0 205 149" fill="none" xmlns="http://www.w3.org/2000/svg">
<path d="M204.997 106.778V114.356C204.313 117.08 203.921 119.872 203.017 122.547C198.882 134.737 188.416 144.295 175.862 147.263C174.274 147.639 172.538 147.667 171.071 148.259H42.9441C-0.024717 143.912 -15.0582 88.9608 20.9318 64.2329C17.5883 42.6565 34.8134 23.2758 56.7298 24.5995C58.0655 24.6795 63.9486 26.0633 64.4405 25.7554C72.6271 6.89052 93.2236 -3.02382 113.28 1.99534C126.658 5.34277 138.168 15.965 142.515 29.0188C143.583 32.2263 144.119 35.4817 144.723 38.7932C161.992 34.3699 180.305 44.4362 185.448 61.5014C187.168 67.2084 187.32 72.2836 186.708 78.1946C189.196 80.2302 191.963 81.9219 194.235 84.2336C199.606 89.6966 204.293 99.099 205.001 106.778H204.997ZM43.252 70.1959C31.526 71.4877 26.0149 85.3694 36.0132 91.5683C39.4127 93.676 58.2375 97.6113 50.5348 104.202C47.4793 106.814 42.7601 106.262 39.3327 104.606C36.6411 103.306 33.2497 98.0592 29.9862 102.019C27.5587 104.966 29.7743 107.45 32.1579 109.385C39.8566 115.632 54.1142 116.112 58.9774 106.262C63.0207 98.0712 57.4896 92.0042 50.3948 88.7688C47.0434 87.2371 36.1892 85.2934 39.7446 80.2662C41.6843 77.5227 46.3355 77.7226 49.199 78.7985C52.0625 79.8743 52.6504 82.3979 56.2258 81.578C59.3773 80.8581 59.5493 76.7948 57.7096 74.6792C54.7621 71.2877 47.5633 69.732 43.248 70.2079L43.252 70.1959ZM154.617 70.1959C142.519 71.6557 137.728 86.1772 148.566 91.9723C152.33 93.9839 168.383 97.3473 162.692 103.79C159.804 107.058 153.706 106.202 150.302 104.198C147.707 102.67 146.047 99.0511 142.347 101.411C136.992 104.826 144.483 110.413 147.766 111.917C167.367 120.879 182.021 98.4152 163.228 89.2887C160.936 88.1769 151.366 85.2814 150.794 83.3657C149.142 77.8466 157.589 77.4187 161.236 78.9144C164.004 80.0503 165.216 83.0617 168.823 81.2021C172.226 79.4503 170.571 75.819 168.279 73.8713C164.676 70.8078 159.245 69.64 154.617 70.1959ZM89.6402 109.969C90.0962 114.876 95.8192 115.332 97.5429 110.881C97.055 101.687 98.4788 91.2804 97.6469 82.2299C97.151 76.8348 90.1442 76.5708 89.6402 82.0499C80.7257 76.4149 68.5278 81.358 65.6363 91.3644C61.513 105.638 76.9264 117.584 89.6402 109.969ZM127.558 109.969C128.014 114.876 133.737 115.332 135.461 110.881C134.973 101.687 136.396 91.2804 135.565 82.2299C135.069 76.8348 128.062 76.5708 127.558 82.0499C118.643 76.4149 106.445 81.358 103.554 91.3644C99.4306 105.638 114.844 117.584 127.558 109.969Z" fill="url(#paint0_linear_398_1128)"/>
<path d="M79.9615 87.7331C91.1036 86.0253 93.2312 103.122 82.2251 104.358C71.5309 105.558 69.3792 89.3568 79.9615 87.7331Z" fill="url(#paint1_linear_398_1128)"/>
<path d="M117.877 87.7331C129.02 86.0253 131.147 103.122 120.141 104.358C109.447 105.558 107.295 89.3568 117.877 87.7331Z" fill="url(#paint2_linear_398_1128)"/>
<defs>
<linearGradient id="paint0_linear_398_1128" x1="240.19" y1="78.3338" x2="-69.5503" y2="70.4358" gradientUnits="userSpaceOnUse">
<stop stop-color="#FFE1AF"/>
<stop offset="1" stop-color="#156489"/>
</linearGradient>
<linearGradient id="paint1_linear_398_1128" x1="92.314" y1="96.4565" x2="67.3608" y2="96.0067" gradientUnits="userSpaceOnUse">
<stop stop-color="#FFE1AF"/>
<stop offset="1" stop-color="#156489"/>
</linearGradient>
<linearGradient id="paint2_linear_398_1128" x1="130.23" y1="96.4565" x2="105.277" y2="96.0067" gradientUnits="userSpaceOnUse">
<stop stop-color="#FFE1AF"/>
<stop offset="1" stop-color="#156489"/>
</linearGradient>
</defs>
</svg>
