<svg width="797" height="180" viewBox="0 0 797 180" fill="none" xmlns="http://www.w3.org/2000/svg">
<mask id="mask0_448_2373" style="mask-type:alpha" maskUnits="userSpaceOnUse" x="70" y="0" width="727" height="180">
<rect x="-1.00159" y="0.995166" width="174.036" height="724.019" rx="87.0179" transform="matrix(-0.00160036 0.999999 -0.999988 -0.00483255 796.285 5.51011)" fill="black" stroke="#136A93" stroke-width="2"/>
</mask>
<g mask="url(#mask0_448_2373)">
<rect width="192.526" height="735.262" rx="47.5" transform="matrix(-0.00160036 0.999999 -0.999988 -0.00483255 1071.4 68.4429)" fill="url(#paint0_radial_448_2373)" fill-opacity="0.74"/>
<rect width="192.526" height="735.262" rx="47.5" transform="matrix(-0.00160036 0.999999 -0.999988 -0.00483255 530.426 -57.9541)" fill="url(#paint1_radial_448_2373)" fill-opacity="0.74"/>
</g>
<rect x="73.293" y="1.54663" width="722.708" height="175.235" rx="87.6177" fill="#D9D9D9" fill-opacity="0.14" stroke="#136A93" stroke-width="2"/>
<path d="M231.694 54.1174H235.761L242.563 72.8479L249.348 54.1174H253.432L244.187 79.0002H240.922L231.694 54.1174ZM229.643 54.1174H233.625L234.343 71.3269V79.0002H229.643V54.1174ZM251.484 54.1174H255.483V79.0002H250.783V71.3269L251.484 54.1174ZM258.873 69.9426V69.5837C258.873 68.2279 259.067 66.9804 259.454 65.8411C259.841 64.6903 260.405 63.6934 261.146 62.8503C261.887 62.0072 262.792 61.3521 263.863 60.885C264.934 60.4065 266.153 60.1672 267.521 60.1672C268.91 60.1672 270.141 60.4065 271.212 60.885C272.294 61.3521 273.206 62.0072 273.946 62.8503C274.687 63.6934 275.251 64.6903 275.638 65.8411C276.026 66.9804 276.219 68.2279 276.219 69.5837V69.9426C276.219 71.287 276.026 72.5346 275.638 73.6853C275.251 74.8246 274.687 75.8215 273.946 76.676C273.206 77.5191 272.3 78.1742 271.229 78.6414C270.158 79.1085 268.933 79.342 267.555 79.342C266.188 79.342 264.963 79.1085 263.88 78.6414C262.798 78.1742 261.887 77.5191 261.146 76.676C260.405 75.8215 259.841 74.8246 259.454 73.6853C259.067 72.5346 258.873 71.287 258.873 69.9426ZM263.385 69.5837V69.9426C263.385 70.7515 263.465 71.5092 263.624 72.2156C263.784 72.922 264.028 73.5429 264.359 74.0784C264.689 74.6139 265.117 75.0354 265.641 75.343C266.176 75.6392 266.814 75.7874 267.555 75.7874C268.284 75.7874 268.91 75.6392 269.435 75.343C269.959 75.0354 270.386 74.6139 270.716 74.0784C271.058 73.5429 271.309 72.922 271.468 72.2156C271.628 71.5092 271.708 70.7515 271.708 69.9426V69.5837C271.708 68.7862 271.628 68.04 271.468 67.345C271.309 66.6386 271.058 66.0177 270.716 65.4822C270.386 64.9353 269.953 64.5081 269.417 64.2004C268.893 63.8814 268.261 63.7219 267.521 63.7219C266.791 63.7219 266.165 63.8814 265.641 64.2004C265.117 64.5081 264.689 64.9353 264.359 65.4822C264.028 66.0177 263.784 66.6386 263.624 67.345C263.465 68.04 263.385 68.7862 263.385 69.5837ZM283.677 64.4568V79.0002H279.165V60.509H283.403L283.677 64.4568ZM282.959 69.0881H281.626C281.637 67.7437 281.82 66.5247 282.173 65.4309C282.526 64.3372 283.022 63.3972 283.66 62.6111C284.309 61.825 285.078 61.2211 285.967 60.7996C286.855 60.378 287.847 60.1672 288.94 60.1672C289.829 60.1672 290.632 60.2926 291.35 60.5432C292.068 60.7939 292.683 61.1926 293.196 61.7395C293.72 62.2864 294.119 63.0042 294.392 63.8928C294.677 64.7701 294.819 65.8525 294.819 67.1399V79.0002H290.273V67.1057C290.273 66.2626 290.148 65.5961 289.897 65.1062C289.658 64.6163 289.305 64.2688 288.838 64.0637C288.382 63.8586 287.818 63.7561 287.146 63.7561C286.451 63.7561 285.841 63.8985 285.317 64.1833C284.805 64.4568 284.372 64.8385 284.019 65.3284C283.677 65.8183 283.415 66.3822 283.232 67.0203C283.05 67.6583 282.959 68.3476 282.959 69.0881ZM303.336 60.509V79.0002H298.808V60.509H303.336ZM298.5 55.6726C298.5 55.0004 298.728 54.4421 299.184 53.9978C299.651 53.5535 300.277 53.3313 301.063 53.3313C301.85 53.3313 302.471 53.5535 302.926 53.9978C303.393 54.4421 303.627 55.0004 303.627 55.6726C303.627 56.3334 303.393 56.886 302.926 57.3303C302.471 57.7747 301.85 57.9968 301.063 57.9968C300.277 57.9968 299.651 57.7747 299.184 57.3303C298.728 56.886 298.5 56.3334 298.5 55.6726ZM316.143 60.509V63.7561H305.547V60.509H316.143ZM308.384 55.9631H312.913V73.6682C312.913 74.2151 312.987 74.6366 313.135 74.9329C313.283 75.2291 313.506 75.4285 313.802 75.531C314.098 75.6335 314.451 75.6848 314.861 75.6848C315.158 75.6848 315.431 75.6677 315.682 75.6335C315.932 75.5994 316.143 75.5652 316.314 75.531L316.331 78.9148C315.955 79.0401 315.528 79.1427 315.049 79.2224C314.582 79.3022 314.052 79.342 313.46 79.342C312.446 79.342 311.557 79.1711 310.794 78.8293C310.031 78.4762 309.438 77.9122 309.017 77.1375C308.595 76.3513 308.384 75.3145 308.384 74.0271V55.9631ZM317.653 69.9426V69.5837C317.653 68.2279 317.847 66.9804 318.234 65.8411C318.622 64.6903 319.186 63.6934 319.926 62.8503C320.667 62.0072 321.573 61.3521 322.644 60.885C323.715 60.4065 324.934 60.1672 326.301 60.1672C327.691 60.1672 328.921 60.4065 329.992 60.885C331.075 61.3521 331.986 62.0072 332.727 62.8503C333.467 63.6934 334.031 64.6903 334.418 65.8411C334.806 66.9804 335 68.2279 335 69.5837V69.9426C335 71.287 334.806 72.5346 334.418 73.6853C334.031 74.8246 333.467 75.8215 332.727 76.676C331.986 77.5191 331.08 78.1742 330.009 78.6414C328.938 79.1085 327.714 79.342 326.335 79.342C324.968 79.342 323.743 79.1085 322.661 78.6414C321.578 78.1742 320.667 77.5191 319.926 76.676C319.186 75.8215 318.622 74.8246 318.234 73.6853C317.847 72.5346 317.653 71.287 317.653 69.9426ZM322.165 69.5837V69.9426C322.165 70.7515 322.245 71.5092 322.404 72.2156C322.564 72.922 322.809 73.5429 323.139 74.0784C323.47 74.6139 323.897 75.0354 324.421 75.343C324.956 75.6392 325.594 75.7874 326.335 75.7874C327.064 75.7874 327.691 75.6392 328.215 75.343C328.739 75.0354 329.166 74.6139 329.497 74.0784C329.838 73.5429 330.089 72.922 330.249 72.2156C330.408 71.5092 330.488 70.7515 330.488 69.9426V69.5837C330.488 68.7862 330.408 68.04 330.249 67.345C330.089 66.6386 329.838 66.0177 329.497 65.4822C329.166 64.9353 328.733 64.5081 328.198 64.2004C327.674 63.8814 327.041 63.7219 326.301 63.7219C325.572 63.7219 324.945 63.8814 324.421 64.2004C323.897 64.5081 323.47 64.9353 323.139 65.4822C322.809 66.0177 322.564 66.6386 322.404 67.345C322.245 68.04 322.165 68.7862 322.165 69.5837ZM342.542 64.2859V79.0002H338.031V60.509H342.303L342.542 64.2859ZM348.165 60.3894L348.097 64.5935C347.846 64.5479 347.561 64.5138 347.242 64.491C346.935 64.4682 346.644 64.4568 346.371 64.4568C345.676 64.4568 345.066 64.5536 344.542 64.7473C344.018 64.9296 343.579 65.1973 343.226 65.5505C342.884 65.9037 342.622 66.3367 342.44 66.8494C342.258 67.3507 342.155 67.9203 342.132 68.5583L341.158 68.4387C341.158 67.2652 341.278 66.1772 341.517 65.1746C341.756 64.172 342.104 63.2947 342.56 62.5427C343.015 61.7908 343.585 61.2097 344.269 60.7996C344.964 60.378 345.761 60.1672 346.661 60.1672C346.912 60.1672 347.18 60.19 347.464 60.2356C347.761 60.2698 347.994 60.321 348.165 60.3894ZM355.178 60.509V79.0002H350.649V60.509H355.178ZM350.342 55.6726C350.342 55.0004 350.57 54.4421 351.025 53.9978C351.493 53.5535 352.119 53.3313 352.905 53.3313C353.691 53.3313 354.312 53.5535 354.768 53.9978C355.235 54.4421 355.469 55.0004 355.469 55.6726C355.469 56.3334 355.235 56.886 354.768 57.3303C354.312 57.7747 353.691 57.9968 352.905 57.9968C352.119 57.9968 351.493 57.7747 351.025 57.3303C350.57 56.886 350.342 56.3334 350.342 55.6726ZM363.661 64.4568V79.0002H359.149V60.509H363.388L363.661 64.4568ZM362.943 69.0881H361.61C361.622 67.7437 361.804 66.5247 362.157 65.4309C362.51 64.3372 363.006 63.3972 363.644 62.6111C364.293 61.825 365.062 61.2211 365.951 60.7996C366.84 60.378 367.831 60.1672 368.925 60.1672C369.813 60.1672 370.617 60.2926 371.334 60.5432C372.052 60.7939 372.667 61.1926 373.18 61.7395C373.704 62.2864 374.103 63.0042 374.376 63.8928C374.661 64.7701 374.804 65.8525 374.804 67.1399V79.0002H370.258V67.1057C370.258 66.2626 370.132 65.5961 369.882 65.1062C369.643 64.6163 369.289 64.2688 368.822 64.0637C368.367 63.8586 367.803 63.7561 367.13 63.7561C366.435 63.7561 365.826 63.8985 365.302 64.1833C364.789 64.4568 364.356 64.8385 364.003 65.3284C363.661 65.8183 363.399 66.3822 363.217 67.0203C363.035 67.6583 362.943 68.3476 362.943 69.0881ZM390.293 60.509H394.395V78.4363C394.395 80.1111 394.03 81.5295 393.301 82.6917C392.583 83.8652 391.575 84.7538 390.276 85.3577C388.978 85.9729 387.468 86.2805 385.748 86.2805C385.007 86.2805 384.204 86.178 383.338 85.9729C382.483 85.7678 381.657 85.4431 380.86 84.9988C380.074 84.5658 379.419 84.0019 378.895 83.3069L380.928 80.6409C381.543 81.3586 382.238 81.8998 383.013 82.2644C383.788 82.6404 384.625 82.8284 385.525 82.8284C386.437 82.8284 387.212 82.6575 387.85 82.3157C388.499 81.9853 388.995 81.4954 389.336 80.8459C389.69 80.2079 389.866 79.4218 389.866 78.4875V64.7302L390.293 60.509ZM377.801 69.9768V69.6179C377.801 68.2052 377.972 66.9234 378.313 65.7727C378.655 64.6106 379.145 63.6137 379.783 62.782C380.433 61.9503 381.213 61.3066 382.125 60.8508C383.047 60.3951 384.084 60.1672 385.235 60.1672C386.454 60.1672 387.479 60.3894 388.311 60.8337C389.154 61.2781 389.849 61.9104 390.396 62.7307C390.954 63.551 391.387 64.5251 391.695 65.6531C392.014 66.7696 392.259 68.0001 392.43 69.3445V70.3186C392.27 71.6288 392.014 72.8308 391.661 73.9246C391.319 75.0183 390.863 75.9753 390.293 76.7957C389.724 77.6046 389.017 78.2312 388.174 78.6755C387.331 79.1199 386.34 79.342 385.201 79.342C384.061 79.342 383.036 79.1085 382.125 78.6414C381.213 78.1742 380.433 77.5191 379.783 76.676C379.145 75.8329 378.655 74.8417 378.313 73.7024C377.972 72.5631 377.801 71.3212 377.801 69.9768ZM382.312 69.6179V69.9768C382.312 70.7743 382.392 71.5206 382.552 72.2156C382.711 72.9106 382.956 73.5258 383.287 74.0613C383.617 74.5854 384.033 74.9955 384.534 75.2917C385.035 75.588 385.634 75.7361 386.329 75.7361C387.263 75.7361 388.026 75.5424 388.619 75.155C389.222 74.7563 389.678 74.2151 389.986 73.5315C390.305 72.8365 390.51 72.0561 390.601 71.1902V68.5071C390.544 67.8235 390.419 67.1912 390.225 66.6101C390.043 66.0291 389.786 65.5278 389.456 65.1062C389.126 64.6847 388.704 64.3542 388.191 64.115C387.679 63.8757 387.069 63.7561 386.363 63.7561C385.679 63.7561 385.081 63.9099 384.568 64.2175C384.056 64.5138 383.634 64.9296 383.304 65.4651C382.973 66.0006 382.723 66.6215 382.552 67.3279C382.392 68.0343 382.312 68.7976 382.312 69.6179ZM410.746 65.5676L415.274 62.594C415.992 62.1155 416.488 61.6541 416.761 61.2097C417.035 60.7654 417.171 60.2299 417.171 59.6033C417.171 59.045 416.955 58.5266 416.522 58.0481C416.1 57.5582 415.502 57.3132 414.728 57.3132C414.181 57.3132 413.719 57.4386 413.343 57.6892C412.967 57.9399 412.682 58.276 412.489 58.6975C412.306 59.1077 412.215 59.5634 412.215 60.0647C412.215 60.5774 412.346 61.1015 412.608 61.637C412.882 62.1724 413.246 62.7364 413.702 63.3289C414.169 63.9099 414.688 64.5422 415.257 65.2258L426.998 79.0002H421.837L412.232 67.8235C411.424 66.8209 410.706 65.898 410.079 65.0549C409.452 64.2118 408.963 63.3972 408.609 62.6111C408.268 61.8136 408.097 60.9932 408.097 60.1501C408.097 58.8513 408.37 57.7234 408.917 56.7664C409.464 55.8093 410.233 55.0688 411.224 54.5447C412.227 54.0206 413.4 53.7585 414.745 53.7585C416.021 53.7585 417.12 54.0206 418.043 54.5447C418.977 55.0574 419.701 55.741 420.213 56.5955C420.726 57.45 420.982 58.3842 420.982 59.3982C420.982 60.1729 420.84 60.8907 420.555 61.5515C420.27 62.2009 419.877 62.7991 419.376 63.3459C418.875 63.8814 418.294 64.3884 417.633 64.8669L412.301 68.6951C411.788 69.128 411.401 69.5553 411.139 69.9768C410.888 70.387 410.717 70.7686 410.626 71.1218C410.546 71.475 410.506 71.8054 410.506 72.113C410.506 72.808 410.654 73.4347 410.951 73.9929C411.258 74.5398 411.691 74.9784 412.25 75.3088C412.819 75.6278 413.491 75.7874 414.266 75.7874C415.212 75.7874 416.123 75.5766 417 75.155C417.878 74.7335 418.664 74.1353 419.359 73.3606C420.065 72.5859 420.624 71.663 421.034 70.592C421.455 69.5097 421.666 68.3191 421.666 67.0203H425.528C425.528 68.2621 425.409 69.4413 425.169 70.5579C424.93 71.663 424.543 72.6884 424.007 73.634C423.472 74.5797 422.771 75.4228 421.905 76.1633C421.826 76.2317 421.729 76.3228 421.615 76.4368C421.512 76.5507 421.421 76.6418 421.341 76.7102C420.305 77.5989 419.182 78.2654 417.975 78.7097C416.778 79.1427 415.474 79.3591 414.061 79.3591C412.398 79.3591 410.962 79.0572 409.754 78.4534C408.547 77.8495 407.612 77.0178 406.952 75.9583C406.302 74.8987 405.978 73.6853 405.978 72.3181C405.978 71.3041 406.177 70.4211 406.576 69.6692C406.986 68.9058 407.55 68.1995 408.268 67.55C408.985 66.8892 409.811 66.2284 410.746 65.5676ZM458.114 65.9265V67.2083C458.114 69.0881 457.864 70.78 457.362 72.2839C456.861 73.7764 456.149 75.0468 455.226 76.095C454.303 77.1431 453.204 77.9464 451.928 78.5046C450.652 79.0629 449.233 79.342 447.672 79.342C446.134 79.342 444.722 79.0629 443.434 78.5046C442.158 77.9464 441.053 77.1431 440.119 76.095C439.184 75.0468 438.461 73.7764 437.948 72.2839C437.436 70.78 437.179 69.0881 437.179 67.2083V65.9265C437.179 64.0352 437.436 62.3433 437.948 60.8508C438.461 59.3583 439.179 58.088 440.102 57.0398C441.024 55.9802 442.124 55.1713 443.4 54.613C444.687 54.0548 446.1 53.7756 447.638 53.7756C449.199 53.7756 450.618 54.0548 451.894 54.613C453.17 55.1713 454.269 55.9802 455.192 57.0398C456.126 58.088 456.844 59.3583 457.345 60.8508C457.858 62.3433 458.114 64.0352 458.114 65.9265ZM453.363 67.2083V65.8923C453.363 64.5365 453.238 63.3459 452.987 62.3206C452.737 61.2838 452.366 60.4122 451.876 59.7058C451.387 58.9994 450.783 58.4696 450.065 58.1165C449.347 57.7519 448.538 57.5696 447.638 57.5696C446.727 57.5696 445.918 57.7519 445.211 58.1165C444.516 58.4696 443.924 58.9994 443.434 59.7058C442.944 60.4122 442.568 61.2838 442.306 62.3206C442.056 63.3459 441.93 64.5365 441.93 65.8923V67.2083C441.93 68.5527 442.056 69.7432 442.306 70.78C442.568 71.8168 442.944 72.6941 443.434 73.4119C443.935 74.1182 444.539 74.6537 445.246 75.0183C445.952 75.3829 446.761 75.5652 447.672 75.5652C448.584 75.5652 449.393 75.3829 450.099 75.0183C450.806 74.6537 451.398 74.1182 451.876 73.4119C452.366 72.6941 452.737 71.8168 452.987 70.78C453.238 69.7432 453.363 68.5527 453.363 67.2083ZM466.016 64.0637V86.1096H461.487V60.509H465.674L466.016 64.0637ZM477.894 69.5667V69.9255C477.894 71.2699 477.734 72.5175 477.415 73.6682C477.107 74.8075 476.652 75.8044 476.048 76.6589C475.444 77.502 474.692 78.1628 473.792 78.6414C472.903 79.1085 471.878 79.342 470.716 79.342C469.576 79.342 468.585 79.1256 467.742 78.6926C466.899 78.2483 466.187 77.6217 465.606 76.8127C465.025 76.0038 464.558 75.0639 464.205 73.9929C463.863 72.9106 463.606 71.7314 463.436 70.4553V69.3103C463.606 67.9545 463.863 66.724 464.205 65.6189C464.558 64.5024 465.025 63.5396 465.606 62.7307C466.187 61.9104 466.893 61.2781 467.725 60.8337C468.568 60.3894 469.554 60.1672 470.682 60.1672C471.855 60.1672 472.886 60.3894 473.775 60.8337C474.675 61.2781 475.433 61.9161 476.048 62.7478C476.663 63.5795 477.125 64.5707 477.432 65.7214C477.74 66.8722 477.894 68.1539 477.894 69.5667ZM473.365 69.9255V69.5667C473.365 68.7463 473.291 67.9887 473.143 67.2937C472.994 66.5873 472.767 65.9721 472.459 65.448C472.151 64.9125 471.753 64.4967 471.263 64.2004C470.773 63.9042 470.18 63.7561 469.485 63.7561C468.79 63.7561 468.192 63.87 467.691 64.0979C467.19 64.3258 466.779 64.6505 466.46 65.072C466.141 65.4936 465.891 65.9949 465.708 66.5759C465.538 67.1456 465.424 67.7779 465.367 68.4729V71.3098C465.469 72.1529 465.669 72.9106 465.965 73.5828C466.261 74.255 466.694 74.7904 467.264 75.1892C467.845 75.588 468.597 75.7874 469.52 75.7874C470.215 75.7874 470.807 75.6335 471.297 75.3259C471.787 75.0183 472.186 74.5968 472.493 74.0613C472.801 73.5144 473.023 72.8878 473.16 72.1814C473.296 71.475 473.365 70.7231 473.365 69.9255ZM489.692 60.509V63.7561H479.096V60.509H489.692ZM481.933 55.9631H486.462V73.6682C486.462 74.2151 486.536 74.6366 486.684 74.9329C486.832 75.2291 487.054 75.4285 487.351 75.531C487.647 75.6335 488 75.6848 488.41 75.6848C488.706 75.6848 488.98 75.6677 489.23 75.6335C489.481 75.5994 489.692 75.5652 489.863 75.531L489.88 78.9148C489.504 79.0401 489.077 79.1427 488.598 79.2224C488.131 79.3022 487.601 79.342 487.009 79.342C485.995 79.342 485.106 79.1711 484.343 78.8293C483.579 78.4762 482.987 77.9122 482.565 77.1375C482.144 76.3513 481.933 75.3145 481.933 74.0271V55.9631ZM497.235 60.509V79.0002H492.706V60.509H497.235ZM492.398 55.6726C492.398 55.0004 492.626 54.4421 493.082 53.9978C493.549 53.5535 494.176 53.3313 494.962 53.3313C495.748 53.3313 496.369 53.5535 496.825 53.9978C497.292 54.4421 497.525 55.0004 497.525 55.6726C497.525 56.3334 497.292 56.886 496.825 57.3303C496.369 57.7747 495.748 57.9968 494.962 57.9968C494.176 57.9968 493.549 57.7747 493.082 57.3303C492.626 56.886 492.398 56.3334 492.398 55.6726ZM505.786 64.303V79.0002H501.274V60.509H505.53L505.786 64.303ZM505.12 69.0881H503.735C503.735 67.8007 503.889 66.6158 504.197 65.5334C504.516 64.4511 504.983 63.5111 505.598 62.7136C506.213 61.9047 506.971 61.2781 507.871 60.8337C508.783 60.3894 509.836 60.1672 511.033 60.1672C511.864 60.1672 512.628 60.2926 513.323 60.5432C514.018 60.7825 514.616 61.1641 515.117 61.6882C515.63 62.2009 516.023 62.8731 516.296 63.7048C516.57 64.5251 516.707 65.5107 516.707 66.6614V79.0002H512.195V67.1228C512.195 66.2569 512.069 65.579 511.819 65.0891C511.58 64.5992 511.232 64.2574 510.776 64.0637C510.321 63.8586 509.774 63.7561 509.136 63.7561C508.429 63.7561 507.82 63.8985 507.307 64.1833C506.806 64.4568 506.39 64.8385 506.06 65.3284C505.741 65.8183 505.501 66.3822 505.342 67.0203C505.194 67.6583 505.12 68.3476 505.12 69.0881ZM516.365 68.2507L514.502 68.5925C514.513 67.4304 514.673 66.3424 514.98 65.3284C515.288 64.303 515.738 63.4086 516.331 62.6453C516.934 61.8705 517.681 61.2667 518.569 60.8337C519.469 60.3894 520.506 60.1672 521.68 60.1672C522.591 60.1672 523.411 60.2983 524.141 60.5603C524.881 60.811 525.514 61.2154 526.038 61.7737C526.562 62.3206 526.96 63.0326 527.234 63.9099C527.519 64.7872 527.661 65.8582 527.661 67.1228V79.0002H523.115V67.1057C523.115 66.2056 522.99 65.5164 522.739 65.0378C522.5 64.5593 522.153 64.2289 521.697 64.0466C521.241 63.8529 520.706 63.7561 520.09 63.7561C519.464 63.7561 518.917 63.8757 518.45 64.115C517.994 64.3429 517.607 64.6619 517.288 65.072C516.98 65.4822 516.746 65.9607 516.587 66.5076C516.439 67.0431 516.365 67.6241 516.365 68.2507ZM536.247 60.509V79.0002H531.718V60.509H536.247ZM531.41 55.6726C531.41 55.0004 531.638 54.4421 532.094 53.9978C532.561 53.5535 533.188 53.3313 533.974 53.3313C534.76 53.3313 535.381 53.5535 535.836 53.9978C536.304 54.4421 536.537 55.0004 536.537 55.6726C536.537 56.3334 536.304 56.886 535.836 57.3303C535.381 57.7747 534.76 57.9968 533.974 57.9968C533.188 57.9968 532.561 57.7747 532.094 57.3303C531.638 56.886 531.41 56.3334 531.41 55.6726ZM554.795 75.4456V79.0002H540.884V75.4456H554.795ZM554.471 63.2092L542.576 79.0002H539.603V76.2146L551.429 60.509H554.471V63.2092ZM552.813 60.509V64.0808H539.842V60.509H552.813ZM567.944 75.0696V66.5417C567.944 65.9151 567.836 65.3739 567.619 64.9182C567.403 64.4625 567.072 64.1093 566.628 63.8586C566.184 63.608 565.62 63.4827 564.936 63.4827C564.332 63.4827 563.802 63.5852 563.347 63.7903C562.902 63.9954 562.561 64.2859 562.321 64.6619C562.082 65.0264 561.962 65.448 561.962 65.9265H557.434C557.434 65.1632 557.616 64.4397 557.98 63.7561C558.345 63.0611 558.863 62.4459 559.536 61.9104C560.219 61.3635 561.034 60.9363 561.979 60.6287C562.937 60.321 564.007 60.1672 565.192 60.1672C566.594 60.1672 567.841 60.4065 568.935 60.885C570.04 61.3521 570.906 62.0585 571.533 63.0042C572.171 63.9498 572.49 65.1404 572.49 66.5759V74.6423C572.49 75.5652 572.547 76.357 572.661 77.0178C572.786 77.6672 572.968 78.2312 573.208 78.7097V79.0002H568.61C568.394 78.5331 568.229 77.9407 568.115 77.2229C568.001 76.4937 567.944 75.776 567.944 75.0696ZM568.576 67.738L568.61 70.4211H565.756C565.05 70.4211 564.429 70.4952 563.894 70.6433C563.358 70.78 562.919 70.9851 562.578 71.2585C562.236 71.5206 561.979 71.8396 561.809 72.2156C561.638 72.5802 561.552 72.996 561.552 73.4631C561.552 73.9189 561.655 74.329 561.86 74.6936C562.076 75.0582 562.384 75.3487 562.783 75.5652C563.193 75.7703 563.671 75.8728 564.218 75.8728C565.016 75.8728 565.711 75.7133 566.303 75.3943C566.896 75.0639 567.357 74.6651 567.688 74.198C568.018 73.7309 568.194 73.2865 568.217 72.865L569.516 74.8132C569.357 75.2804 569.117 75.776 568.798 76.3C568.479 76.8241 568.069 77.314 567.568 77.7698C567.067 78.2255 566.463 78.6015 565.756 78.8977C565.05 79.1939 564.23 79.342 563.295 79.342C562.099 79.342 561.028 79.1028 560.083 78.6243C559.137 78.1458 558.391 77.4906 557.844 76.6589C557.297 75.8272 557.023 74.8816 557.023 73.822C557.023 72.8422 557.206 71.9763 557.57 71.2244C557.935 70.4724 558.476 69.8401 559.194 69.3274C559.912 68.8033 560.8 68.4102 561.86 68.1482C562.931 67.8748 564.156 67.738 565.534 67.738H568.576ZM585.057 60.509V63.7561H574.461V60.509H585.057ZM577.298 55.9631H581.827V73.6682C581.827 74.2151 581.901 74.6366 582.049 74.9329C582.197 75.2291 582.42 75.4285 582.716 75.531C583.012 75.6335 583.365 75.6848 583.775 75.6848C584.072 75.6848 584.345 75.6677 584.596 75.6335C584.846 75.5994 585.057 75.5652 585.228 75.531L585.245 78.9148C584.869 79.0401 584.442 79.1427 583.963 79.2224C583.496 79.3022 582.966 79.342 582.374 79.342C581.36 79.342 580.471 79.1711 579.708 78.8293C578.945 78.4762 578.352 77.9122 577.931 77.1375C577.509 76.3513 577.298 75.3145 577.298 74.0271V55.9631ZM592.6 60.509V79.0002H588.071V60.509H592.6ZM587.764 55.6726C587.764 55.0004 587.992 54.4421 588.447 53.9978C588.914 53.5535 589.541 53.3313 590.327 53.3313C591.113 53.3313 591.734 53.5535 592.19 53.9978C592.657 54.4421 592.891 55.0004 592.891 55.6726C592.891 56.3334 592.657 56.886 592.19 57.3303C591.734 57.7747 591.113 57.9968 590.327 57.9968C589.541 57.9968 588.914 57.7747 588.447 57.3303C587.992 56.886 587.764 56.3334 587.764 55.6726ZM595.854 69.9426V69.5837C595.854 68.2279 596.047 66.9804 596.435 65.8411C596.822 64.6903 597.386 63.6934 598.126 62.8503C598.867 62.0072 599.773 61.3521 600.844 60.885C601.915 60.4065 603.134 60.1672 604.501 60.1672C605.891 60.1672 607.121 60.4065 608.192 60.885C609.275 61.3521 610.186 62.0072 610.927 62.8503C611.667 63.6934 612.231 64.6903 612.619 65.8411C613.006 66.9804 613.2 68.2279 613.2 69.5837V69.9426C613.2 71.287 613.006 72.5346 612.619 73.6853C612.231 74.8246 611.667 75.8215 610.927 76.676C610.186 77.5191 609.28 78.1742 608.209 78.6414C607.139 79.1085 605.914 79.342 604.535 79.342C603.168 79.342 601.943 79.1085 600.861 78.6414C599.778 78.1742 598.867 77.5191 598.126 76.676C597.386 75.8215 596.822 74.8246 596.435 73.6853C596.047 72.5346 595.854 71.287 595.854 69.9426ZM600.365 69.5837V69.9426C600.365 70.7515 600.445 71.5092 600.604 72.2156C600.764 72.922 601.009 73.5429 601.339 74.0784C601.67 74.6139 602.097 75.0354 602.621 75.343C603.157 75.6392 603.795 75.7874 604.535 75.7874C605.264 75.7874 605.891 75.6392 606.415 75.343C606.939 75.0354 607.366 74.6139 607.697 74.0784C608.039 73.5429 608.289 72.922 608.449 72.2156C608.608 71.5092 608.688 70.7515 608.688 69.9426V69.5837C608.688 68.7862 608.608 68.04 608.449 67.345C608.289 66.6386 608.039 66.0177 607.697 65.4822C607.366 64.9353 606.933 64.5081 606.398 64.2004C605.874 63.8814 605.242 63.7219 604.501 63.7219C603.772 63.7219 603.145 63.8814 602.621 64.2004C602.097 64.5081 601.67 64.9353 601.339 65.4822C601.009 66.0177 600.764 66.6386 600.604 67.345C600.445 68.04 600.365 68.7862 600.365 69.5837ZM620.657 64.4568V79.0002H616.146V60.509H620.384L620.657 64.4568ZM619.939 69.0881H618.606C618.618 67.7437 618.8 66.5247 619.153 65.4309C619.507 64.3372 620.002 63.3972 620.64 62.6111C621.29 61.825 622.059 61.2211 622.947 60.7996C623.836 60.378 624.827 60.1672 625.921 60.1672C626.81 60.1672 627.613 60.2926 628.331 60.5432C629.048 60.7939 629.664 61.1926 630.176 61.7395C630.7 62.2864 631.099 63.0042 631.373 63.8928C631.657 64.7701 631.8 65.8525 631.8 67.1399V79.0002H627.254V67.1057C627.254 66.2626 627.129 65.5961 626.878 65.1062C626.639 64.6163 626.285 64.2688 625.818 64.0637C625.363 63.8586 624.799 63.7561 624.126 63.7561C623.431 63.7561 622.822 63.8985 622.298 64.1833C621.785 64.4568 621.352 64.8385 620.999 65.3284C620.657 65.8183 620.395 66.3822 620.213 67.0203C620.031 67.6583 619.939 68.3476 619.939 69.0881Z" fill="#EDD5B1"/>
<path d="M289.832 102.854L285.341 115H284.409L289.226 102.203H289.911L289.832 102.854ZM294.007 115L289.516 102.854L289.437 102.203H290.113L294.938 115H294.007ZM293.04 110.553V111.335H286.369V110.553H293.04ZM297.505 107.521V115H296.635V105.49H297.479L297.505 107.521ZM297.32 109.586L296.925 109.243C296.966 108.716 297.083 108.215 297.276 107.74C297.47 107.266 297.73 106.847 298.059 106.484C298.387 106.12 298.773 105.836 299.219 105.631C299.664 105.42 300.153 105.315 300.687 105.315C301.161 105.315 301.586 105.379 301.961 105.508C302.336 105.637 302.652 105.842 302.91 106.123C303.174 106.405 303.373 106.768 303.508 107.213C303.648 107.653 303.719 108.189 303.719 108.822V115H302.849V108.813C302.849 108.11 302.749 107.562 302.55 107.169C302.356 106.777 302.084 106.498 301.732 106.334C301.387 106.17 300.977 106.088 300.502 106.088C299.969 106.088 299.506 106.205 299.113 106.44C298.721 106.674 298.393 106.973 298.129 107.336C297.871 107.699 297.675 108.083 297.54 108.488C297.405 108.886 297.332 109.252 297.32 109.586ZM312.358 113.269V108.365C312.358 107.89 312.259 107.483 312.06 107.143C311.86 106.797 311.567 106.533 311.181 106.352C310.8 106.164 310.328 106.071 309.766 106.071C309.25 106.071 308.787 106.161 308.377 106.343C307.973 106.525 307.65 106.771 307.41 107.081C307.176 107.392 307.059 107.738 307.059 108.118L306.197 108.101C306.197 107.743 306.282 107.398 306.452 107.064C306.628 106.73 306.874 106.431 307.19 106.167C307.513 105.904 307.894 105.696 308.333 105.543C308.778 105.391 309.268 105.315 309.801 105.315C310.475 105.315 311.066 105.429 311.576 105.657C312.092 105.88 312.496 106.22 312.789 106.677C313.082 107.128 313.229 107.697 313.229 108.382V113.031C313.229 113.36 313.252 113.699 313.299 114.051C313.346 114.403 313.416 114.687 313.51 114.904V115H312.569C312.499 114.783 312.446 114.517 312.411 114.2C312.376 113.878 312.358 113.568 312.358 113.269ZM312.596 109.533L312.613 110.245H310.425C309.856 110.245 309.35 110.298 308.904 110.404C308.465 110.503 308.09 110.65 307.779 110.843C307.475 111.036 307.24 111.271 307.076 111.546C306.912 111.816 306.83 112.12 306.83 112.46C306.83 112.812 306.921 113.134 307.103 113.427C307.284 113.72 307.542 113.954 307.876 114.13C308.216 114.3 308.611 114.385 309.062 114.385C309.672 114.385 310.211 114.277 310.68 114.06C311.154 113.843 311.547 113.553 311.857 113.19C312.168 112.821 312.388 112.407 312.517 111.95L312.895 112.504C312.807 112.803 312.66 113.111 312.455 113.427C312.25 113.738 311.983 114.025 311.655 114.288C311.327 114.552 310.94 114.766 310.495 114.93C310.056 115.094 309.552 115.176 308.983 115.176C308.374 115.176 307.841 115.062 307.384 114.833C306.933 114.599 306.581 114.282 306.329 113.884C306.083 113.48 305.96 113.023 305.96 112.513C305.96 112.062 306.06 111.655 306.259 111.291C306.458 110.922 306.745 110.609 307.12 110.351C307.495 110.087 307.952 109.885 308.491 109.744C309.03 109.604 309.637 109.533 310.311 109.533H312.596ZM317.104 101.5V115H316.234V101.5H317.104ZM322.923 114.06L325.99 105.49H326.931L322.844 116.547C322.762 116.758 322.659 116.992 322.536 117.25C322.419 117.514 322.261 117.766 322.062 118.006C321.868 118.252 321.622 118.451 321.323 118.604C321.03 118.762 320.667 118.841 320.233 118.841C320.128 118.841 319.99 118.829 319.82 118.806C319.65 118.782 319.53 118.756 319.46 118.727L319.451 117.989C319.521 118.006 319.621 118.021 319.75 118.032C319.879 118.044 319.97 118.05 320.022 118.05C320.403 118.05 320.723 117.98 320.98 117.839C321.244 117.698 321.464 117.496 321.64 117.233C321.815 116.969 321.971 116.65 322.105 116.275L322.923 114.06ZM319.899 105.49L323.107 113.902L323.354 114.798L322.703 115.185L318.95 105.49H319.899ZM335.438 114.236V115H328.284V114.236H335.438ZM335.008 106.158L328.521 115H327.985V114.341L334.463 105.49H335.008V106.158ZM334.621 105.49V106.264H328.188V105.49H334.621ZM340.809 115.176C340.199 115.176 339.637 115.062 339.121 114.833C338.605 114.605 338.157 114.282 337.776 113.866C337.396 113.445 337.1 112.949 336.889 112.381C336.678 111.807 336.572 111.177 336.572 110.491V110.114C336.572 109.387 336.678 108.731 336.889 108.145C337.105 107.559 337.401 107.055 337.776 106.633C338.157 106.205 338.591 105.88 339.077 105.657C339.563 105.429 340.079 105.315 340.624 105.315C341.198 105.315 341.714 105.42 342.171 105.631C342.634 105.836 343.026 106.129 343.349 106.51C343.671 106.891 343.914 107.342 344.078 107.864C344.248 108.379 344.333 108.95 344.333 109.577V110.193H337.108V109.428H343.463V109.314C343.457 108.745 343.343 108.218 343.12 107.732C342.903 107.24 342.584 106.841 342.162 106.536C341.746 106.232 341.233 106.079 340.624 106.079C340.149 106.079 339.716 106.182 339.323 106.387C338.937 106.586 338.603 106.867 338.321 107.231C338.04 107.588 337.823 108.013 337.671 108.505C337.519 108.991 337.442 109.528 337.442 110.114V110.491C337.442 111.036 337.524 111.546 337.688 112.021C337.858 112.495 338.093 112.911 338.392 113.269C338.696 113.626 339.057 113.907 339.473 114.113C339.889 114.318 340.343 114.42 340.835 114.42C341.392 114.42 341.893 114.321 342.338 114.121C342.783 113.916 343.188 113.579 343.551 113.111L344.104 113.532C343.899 113.837 343.645 114.115 343.34 114.367C343.035 114.614 342.675 114.81 342.259 114.956C341.843 115.103 341.359 115.176 340.809 115.176ZM351.654 107.319V118.656H350.784V105.49H351.602L351.654 107.319ZM358.325 110.157V110.342C358.325 111.057 358.243 111.71 358.079 112.302C357.921 112.888 357.687 113.398 357.376 113.831C357.071 114.259 356.693 114.59 356.242 114.824C355.797 115.059 355.287 115.176 354.713 115.176C354.156 115.176 353.658 115.094 353.219 114.93C352.779 114.76 352.401 114.523 352.085 114.218C351.769 113.907 351.514 113.547 351.32 113.137C351.127 112.727 350.995 112.284 350.925 111.81V108.927C351.019 108.394 351.165 107.907 351.364 107.468C351.563 107.029 351.818 106.648 352.129 106.325C352.439 106.003 352.809 105.754 353.236 105.578C353.664 105.403 354.15 105.315 354.695 105.315C355.27 105.315 355.782 105.429 356.233 105.657C356.685 105.88 357.065 106.202 357.376 106.624C357.687 107.046 357.921 107.556 358.079 108.154C358.243 108.745 358.325 109.413 358.325 110.157ZM357.446 110.342V110.157C357.446 109.577 357.388 109.041 357.271 108.549C357.153 108.057 356.975 107.629 356.734 107.266C356.5 106.897 356.198 106.61 355.829 106.405C355.466 106.199 355.035 106.097 354.537 106.097C354.004 106.097 353.55 106.185 353.175 106.361C352.806 106.536 352.501 106.768 352.261 107.055C352.026 107.336 351.839 107.641 351.698 107.969C351.563 108.297 351.464 108.614 351.399 108.918V111.889C351.511 112.346 351.695 112.765 351.953 113.146C352.211 113.527 352.554 113.834 352.981 114.069C353.415 114.297 353.939 114.411 354.555 114.411C355.047 114.411 355.475 114.309 355.838 114.104C356.201 113.893 356.5 113.606 356.734 113.242C356.975 112.873 357.153 112.443 357.271 111.95C357.388 111.452 357.446 110.916 357.446 110.342ZM364.346 115.176C363.736 115.176 363.174 115.062 362.658 114.833C362.143 114.605 361.694 114.282 361.313 113.866C360.933 113.445 360.637 112.949 360.426 112.381C360.215 111.807 360.109 111.177 360.109 110.491V110.114C360.109 109.387 360.215 108.731 360.426 108.145C360.643 107.559 360.938 107.055 361.313 106.633C361.694 106.205 362.128 105.88 362.614 105.657C363.101 105.429 363.616 105.315 364.161 105.315C364.735 105.315 365.251 105.42 365.708 105.631C366.171 105.836 366.563 106.129 366.886 106.51C367.208 106.891 367.451 107.342 367.615 107.864C367.785 108.379 367.87 108.95 367.87 109.577V110.193H360.646V109.428H367V109.314C366.994 108.745 366.88 108.218 366.657 107.732C366.44 107.24 366.121 106.841 365.699 106.536C365.283 106.232 364.771 106.079 364.161 106.079C363.687 106.079 363.253 106.182 362.86 106.387C362.474 106.586 362.14 106.867 361.858 107.231C361.577 107.588 361.36 108.013 361.208 108.505C361.056 108.991 360.979 109.528 360.979 110.114V110.491C360.979 111.036 361.062 111.546 361.226 112.021C361.396 112.495 361.63 112.911 361.929 113.269C362.233 113.626 362.594 113.907 363.01 114.113C363.426 114.318 363.88 114.42 364.372 114.42C364.929 114.42 365.43 114.321 365.875 114.121C366.32 113.916 366.725 113.579 367.088 113.111L367.642 113.532C367.437 113.837 367.182 114.115 366.877 114.367C366.572 114.614 366.212 114.81 365.796 114.956C365.38 115.103 364.896 115.176 364.346 115.176ZM370.841 107.09V115H369.971V105.49H370.823L370.841 107.09ZM374.339 105.42L374.304 106.211C374.192 106.194 374.081 106.182 373.97 106.176C373.864 106.164 373.75 106.158 373.627 106.158C373.146 106.158 372.725 106.249 372.361 106.431C371.998 106.613 371.693 106.865 371.447 107.187C371.207 107.509 371.022 107.884 370.894 108.312C370.771 108.734 370.703 109.191 370.691 109.683L370.331 109.788C370.331 109.15 370.396 108.561 370.524 108.022C370.659 107.477 370.864 107.002 371.14 106.598C371.415 106.194 371.761 105.88 372.177 105.657C372.593 105.429 373.085 105.315 373.653 105.315C373.788 105.315 373.917 105.326 374.04 105.35C374.169 105.367 374.269 105.391 374.339 105.42ZM377.775 115H376.905V104.26C376.905 103.621 377.014 103.085 377.23 102.652C377.447 102.212 377.758 101.881 378.162 101.658C378.572 101.43 379.056 101.316 379.612 101.316C379.794 101.316 379.981 101.327 380.175 101.351C380.368 101.368 380.556 101.406 380.737 101.465L380.658 102.212C380.512 102.171 380.362 102.142 380.21 102.124C380.063 102.107 379.885 102.098 379.674 102.098C379.281 102.098 378.941 102.183 378.654 102.353C378.373 102.523 378.156 102.769 378.004 103.091C377.852 103.407 377.775 103.797 377.775 104.26V115ZM380.122 105.49V106.238H375.306V105.49H380.122ZM381.414 110.404V110.087C381.414 109.396 381.514 108.76 381.713 108.18C381.912 107.594 382.196 107.087 382.565 106.659C382.935 106.232 383.377 105.901 383.893 105.666C384.414 105.432 384.991 105.315 385.624 105.315C386.263 105.315 386.84 105.432 387.355 105.666C387.877 105.901 388.322 106.232 388.691 106.659C389.066 107.087 389.354 107.594 389.553 108.18C389.752 108.76 389.852 109.396 389.852 110.087V110.404C389.852 111.095 389.752 111.734 389.553 112.32C389.354 112.9 389.066 113.404 388.691 113.831C388.322 114.259 387.88 114.59 387.364 114.824C386.849 115.059 386.274 115.176 385.642 115.176C385.003 115.176 384.423 115.059 383.901 114.824C383.386 114.59 382.94 114.259 382.565 113.831C382.196 113.404 381.912 112.9 381.713 112.32C381.514 111.734 381.414 111.095 381.414 110.404ZM382.275 110.087V110.404C382.275 110.937 382.349 111.447 382.495 111.933C382.647 112.413 382.864 112.841 383.146 113.216C383.433 113.585 383.784 113.878 384.2 114.095C384.622 114.306 385.103 114.411 385.642 114.411C386.175 114.411 386.646 114.306 387.057 114.095C387.473 113.878 387.821 113.585 388.103 113.216C388.39 112.841 388.606 112.413 388.753 111.933C388.905 111.447 388.981 110.937 388.981 110.404V110.087C388.981 109.566 388.905 109.065 388.753 108.584C388.606 108.104 388.39 107.676 388.103 107.301C387.815 106.926 387.464 106.63 387.048 106.413C386.632 106.191 386.157 106.079 385.624 106.079C385.091 106.079 384.616 106.191 384.2 106.413C383.784 106.63 383.433 106.926 383.146 107.301C382.858 107.676 382.642 108.104 382.495 108.584C382.349 109.065 382.275 109.566 382.275 110.087ZM392.937 107.09V115H392.066V105.49H392.919L392.937 107.09ZM396.435 105.42L396.399 106.211C396.288 106.194 396.177 106.182 396.065 106.176C395.96 106.164 395.846 106.158 395.723 106.158C395.242 106.158 394.82 106.249 394.457 106.431C394.094 106.613 393.789 106.865 393.543 107.187C393.303 107.509 393.118 107.884 392.989 108.312C392.866 108.734 392.799 109.191 392.787 109.683L392.427 109.788C392.427 109.15 392.491 108.561 392.62 108.022C392.755 107.477 392.96 107.002 393.235 106.598C393.511 106.194 393.856 105.88 394.272 105.657C394.688 105.429 395.181 105.315 395.749 105.315C395.884 105.315 396.013 105.326 396.136 105.35C396.265 105.367 396.364 105.391 396.435 105.42ZM398.922 107.477V115H398.043V105.49H398.896L398.922 107.477ZM398.772 109.586L398.342 109.243C398.383 108.716 398.494 108.215 398.676 107.74C398.863 107.266 399.118 106.847 399.44 106.484C399.763 106.12 400.144 105.836 400.583 105.631C401.028 105.42 401.529 105.315 402.086 105.315C402.555 105.315 402.977 105.379 403.352 105.508C403.732 105.631 404.055 105.827 404.318 106.097C404.582 106.361 404.784 106.706 404.925 107.134C405.071 107.562 405.145 108.074 405.145 108.672V115H404.274V108.698C404.274 108.025 404.172 107.5 403.967 107.125C403.768 106.75 403.486 106.484 403.123 106.325C402.76 106.167 402.341 106.088 401.866 106.088C401.31 106.088 400.838 106.205 400.451 106.44C400.064 106.674 399.748 106.973 399.502 107.336C399.262 107.699 399.083 108.083 398.966 108.488C398.849 108.886 398.784 109.252 398.772 109.586ZM405.136 108.778L404.556 108.698C404.597 108.259 404.711 107.837 404.898 107.433C405.086 107.023 405.341 106.659 405.663 106.343C405.985 106.027 406.369 105.778 406.814 105.596C407.26 105.408 407.755 105.315 408.3 105.315C408.786 105.315 409.22 105.382 409.601 105.517C409.987 105.646 410.312 105.854 410.576 106.141C410.846 106.422 411.048 106.782 411.183 107.222C411.323 107.661 411.394 108.192 411.394 108.813V115H410.523V108.813C410.523 108.098 410.421 107.544 410.216 107.152C410.017 106.753 409.735 106.475 409.372 106.317C409.009 106.158 408.59 106.082 408.115 106.088C407.623 106.094 407.192 106.185 406.823 106.361C406.46 106.536 406.155 106.762 405.909 107.037C405.669 107.307 405.484 107.597 405.355 107.907C405.227 108.212 405.153 108.502 405.136 108.778ZM419.972 113.269V108.365C419.972 107.89 419.872 107.483 419.673 107.143C419.474 106.797 419.181 106.533 418.794 106.352C418.413 106.164 417.941 106.071 417.379 106.071C416.863 106.071 416.4 106.161 415.99 106.343C415.586 106.525 415.264 106.771 415.023 107.081C414.789 107.392 414.672 107.738 414.672 108.118L413.811 108.101C413.811 107.743 413.896 107.398 414.065 107.064C414.241 106.73 414.487 106.431 414.804 106.167C415.126 105.904 415.507 105.696 415.946 105.543C416.392 105.391 416.881 105.315 417.414 105.315C418.088 105.315 418.68 105.429 419.189 105.657C419.705 105.88 420.109 106.22 420.402 106.677C420.695 107.128 420.842 107.697 420.842 108.382V113.031C420.842 113.36 420.865 113.699 420.912 114.051C420.959 114.403 421.029 114.687 421.123 114.904V115H420.183C420.112 114.783 420.06 114.517 420.024 114.2C419.989 113.878 419.972 113.568 419.972 113.269ZM420.209 109.533L420.227 110.245H418.038C417.47 110.245 416.963 110.298 416.518 110.404C416.078 110.503 415.703 110.65 415.393 110.843C415.088 111.036 414.854 111.271 414.689 111.546C414.525 111.816 414.443 112.12 414.443 112.46C414.443 112.812 414.534 113.134 414.716 113.427C414.897 113.72 415.155 113.954 415.489 114.13C415.829 114.3 416.225 114.385 416.676 114.385C417.285 114.385 417.824 114.277 418.293 114.06C418.768 113.843 419.16 113.553 419.471 113.19C419.781 112.821 420.001 112.407 420.13 111.95L420.508 112.504C420.42 112.803 420.273 113.111 420.068 113.427C419.863 113.738 419.597 114.025 419.269 114.288C418.94 114.552 418.554 114.766 418.108 114.93C417.669 115.094 417.165 115.176 416.597 115.176C415.987 115.176 415.454 115.062 414.997 114.833C414.546 114.599 414.194 114.282 413.942 113.884C413.696 113.48 413.573 113.023 413.573 112.513C413.573 112.062 413.673 111.655 413.872 111.291C414.071 110.922 414.358 110.609 414.733 110.351C415.108 110.087 415.565 109.885 416.104 109.744C416.644 109.604 417.25 109.533 417.924 109.533H420.209ZM424.595 107.521V115H423.725V105.49H424.568L424.595 107.521ZM424.41 109.586L424.015 109.243C424.056 108.716 424.173 108.215 424.366 107.74C424.56 107.266 424.82 106.847 425.148 106.484C425.477 106.12 425.863 105.836 426.309 105.631C426.754 105.42 427.243 105.315 427.776 105.315C428.251 105.315 428.676 105.379 429.051 105.508C429.426 105.637 429.742 105.842 430 106.123C430.264 106.405 430.463 106.768 430.598 107.213C430.738 107.653 430.809 108.189 430.809 108.822V115H429.938V108.813C429.938 108.11 429.839 107.562 429.64 107.169C429.446 106.777 429.174 106.498 428.822 106.334C428.477 106.17 428.066 106.088 427.592 106.088C427.059 106.088 426.596 106.205 426.203 106.44C425.811 106.674 425.482 106.973 425.219 107.336C424.961 107.699 424.765 108.083 424.63 108.488C424.495 108.886 424.422 109.252 424.41 109.586ZM437.031 114.411C437.488 114.411 437.919 114.326 438.323 114.156C438.733 113.981 439.073 113.72 439.343 113.374C439.618 113.029 439.773 112.595 439.809 112.073H440.644C440.614 112.689 440.433 113.231 440.099 113.699C439.765 114.168 439.328 114.531 438.789 114.789C438.256 115.047 437.67 115.176 437.031 115.176C436.381 115.176 435.807 115.059 435.309 114.824C434.811 114.584 434.392 114.25 434.052 113.823C433.718 113.395 433.463 112.894 433.287 112.32C433.117 111.74 433.032 111.11 433.032 110.43V110.061C433.032 109.381 433.117 108.754 433.287 108.18C433.463 107.6 433.718 107.096 434.052 106.668C434.392 106.24 434.808 105.909 435.3 105.675C435.798 105.435 436.372 105.315 437.022 105.315C437.679 105.315 438.273 105.449 438.807 105.719C439.346 105.983 439.779 106.366 440.107 106.87C440.436 107.368 440.614 107.969 440.644 108.672H439.809C439.779 108.121 439.636 107.656 439.378 107.275C439.12 106.888 438.786 106.592 438.376 106.387C437.966 106.182 437.515 106.079 437.022 106.079C436.466 106.079 435.988 106.188 435.59 106.405C435.197 106.615 434.875 106.908 434.623 107.283C434.377 107.653 434.192 108.074 434.069 108.549C433.952 109.024 433.894 109.528 433.894 110.061V110.43C433.894 110.963 433.952 111.47 434.069 111.95C434.187 112.425 434.371 112.847 434.623 113.216C434.875 113.585 435.2 113.878 435.599 114.095C435.997 114.306 436.475 114.411 437.031 114.411ZM446.436 115.176C445.826 115.176 445.264 115.062 444.748 114.833C444.232 114.605 443.784 114.282 443.403 113.866C443.022 113.445 442.727 112.949 442.516 112.381C442.305 111.807 442.199 111.177 442.199 110.491V110.114C442.199 109.387 442.305 108.731 442.516 108.145C442.732 107.559 443.028 107.055 443.403 106.633C443.784 106.205 444.218 105.88 444.704 105.657C445.19 105.429 445.706 105.315 446.251 105.315C446.825 105.315 447.341 105.42 447.798 105.631C448.261 105.836 448.653 106.129 448.976 106.51C449.298 106.891 449.541 107.342 449.705 107.864C449.875 108.379 449.96 108.95 449.96 109.577V110.193H442.735V109.428H449.09V109.314C449.084 108.745 448.97 108.218 448.747 107.732C448.53 107.24 448.211 106.841 447.789 106.536C447.373 106.232 446.86 106.079 446.251 106.079C445.776 106.079 445.343 106.182 444.95 106.387C444.563 106.586 444.229 106.867 443.948 107.231C443.667 107.588 443.45 108.013 443.298 108.505C443.146 108.991 443.069 109.528 443.069 110.114V110.491C443.069 111.036 443.151 111.546 443.315 112.021C443.485 112.495 443.72 112.911 444.019 113.269C444.323 113.626 444.684 113.907 445.1 114.113C445.516 114.318 445.97 114.42 446.462 114.42C447.019 114.42 447.52 114.321 447.965 114.121C448.41 113.916 448.814 113.579 449.178 113.111L449.731 113.532C449.526 113.837 449.271 114.115 448.967 114.367C448.662 114.614 448.302 114.81 447.886 114.956C447.47 115.103 446.986 115.176 446.436 115.176ZM452.931 113.418V114.631C452.931 115.17 452.828 115.674 452.623 116.143C452.418 116.617 452.143 117.019 451.797 117.347L451.27 116.943C451.445 116.708 451.595 116.471 451.718 116.231C451.841 115.996 451.932 115.75 451.99 115.492C452.049 115.235 452.078 114.953 452.078 114.649V113.418H452.931ZM460.718 107.09V115H459.848V105.49H460.7L460.718 107.09ZM464.216 105.42L464.181 106.211C464.069 106.194 463.958 106.182 463.847 106.176C463.741 106.164 463.627 106.158 463.504 106.158C463.023 106.158 462.602 106.249 462.238 106.431C461.875 106.613 461.57 106.865 461.324 107.187C461.084 107.509 460.899 107.884 460.771 108.312C460.647 108.734 460.58 109.191 460.568 109.683L460.208 109.788C460.208 109.15 460.272 108.561 460.401 108.022C460.536 107.477 460.741 107.002 461.017 106.598C461.292 106.194 461.638 105.88 462.054 105.657C462.47 105.429 462.962 105.315 463.53 105.315C463.665 105.315 463.794 105.326 463.917 105.35C464.046 105.367 464.146 105.391 464.216 105.42ZM469.322 115.176C468.713 115.176 468.15 115.062 467.635 114.833C467.119 114.605 466.671 114.282 466.29 113.866C465.909 113.445 465.613 112.949 465.402 112.381C465.191 111.807 465.086 111.177 465.086 110.491V110.114C465.086 109.387 465.191 108.731 465.402 108.145C465.619 107.559 465.915 107.055 466.29 106.633C466.671 106.205 467.104 105.88 467.591 105.657C468.077 105.429 468.593 105.315 469.138 105.315C469.712 105.315 470.228 105.42 470.685 105.631C471.147 105.836 471.54 106.129 471.862 106.51C472.185 106.891 472.428 107.342 472.592 107.864C472.762 108.379 472.847 108.95 472.847 109.577V110.193H465.622V109.428H471.977V109.314C471.971 108.745 471.856 108.218 471.634 107.732C471.417 107.24 471.098 106.841 470.676 106.536C470.26 106.232 469.747 106.079 469.138 106.079C468.663 106.079 468.229 106.182 467.837 106.387C467.45 106.586 467.116 106.867 466.835 107.231C466.554 107.588 466.337 108.013 466.185 108.505C466.032 108.991 465.956 109.528 465.956 110.114V110.491C465.956 111.036 466.038 111.546 466.202 112.021C466.372 112.495 466.606 112.911 466.905 113.269C467.21 113.626 467.57 113.907 467.986 114.113C468.402 114.318 468.856 114.42 469.349 114.42C469.905 114.42 470.406 114.321 470.852 114.121C471.297 113.916 471.701 113.579 472.064 113.111L472.618 113.532C472.413 113.837 472.158 114.115 471.854 114.367C471.549 114.614 471.188 114.81 470.772 114.956C470.356 115.103 469.873 115.176 469.322 115.176ZM476.477 115H475.615V104.436C475.615 103.762 475.738 103.194 475.984 102.731C476.23 102.268 476.582 101.916 477.039 101.676C477.496 101.436 478.041 101.316 478.674 101.316C479.055 101.316 479.447 101.357 479.852 101.439C480.256 101.521 480.663 101.65 481.073 101.825L480.933 102.599C480.61 102.458 480.279 102.344 479.939 102.256C479.605 102.168 479.198 102.124 478.718 102.124C477.997 102.124 477.443 102.323 477.057 102.722C476.67 103.12 476.477 103.692 476.477 104.436V115ZM478.797 105.49V106.238H474.007V105.49H478.797ZM481.565 105.49V115H480.704V105.49H481.565ZM485.397 107.521V115H484.527V105.49H485.371L485.397 107.521ZM485.213 109.586L484.817 109.243C484.858 108.716 484.976 108.215 485.169 107.74C485.362 107.266 485.623 106.847 485.951 106.484C486.279 106.12 486.666 105.836 487.111 105.631C487.557 105.42 488.046 105.315 488.579 105.315C489.054 105.315 489.479 105.379 489.854 105.508C490.229 105.637 490.545 105.842 490.803 106.123C491.066 106.405 491.266 106.768 491.4 107.213C491.541 107.653 491.611 108.189 491.611 108.822V115H490.741V108.813C490.741 108.11 490.642 107.562 490.442 107.169C490.249 106.777 489.977 106.498 489.625 106.334C489.279 106.17 488.869 106.088 488.395 106.088C487.861 106.088 487.398 106.205 487.006 106.44C486.613 106.674 486.285 106.973 486.021 107.336C485.764 107.699 485.567 108.083 485.433 108.488C485.298 108.886 485.225 109.252 485.213 109.586ZM498.01 115.176C497.4 115.176 496.838 115.062 496.322 114.833C495.807 114.605 495.358 114.282 494.978 113.866C494.597 113.445 494.301 112.949 494.09 112.381C493.879 111.807 493.773 111.177 493.773 110.491V110.114C493.773 109.387 493.879 108.731 494.09 108.145C494.307 107.559 494.603 107.055 494.978 106.633C495.358 106.205 495.792 105.88 496.278 105.657C496.765 105.429 497.28 105.315 497.825 105.315C498.399 105.315 498.915 105.42 499.372 105.631C499.835 105.836 500.228 106.129 500.55 106.51C500.872 106.891 501.115 107.342 501.279 107.864C501.449 108.379 501.534 108.95 501.534 109.577V110.193H494.31V109.428H500.664V109.314C500.658 108.745 500.544 108.218 500.321 107.732C500.104 107.24 499.785 106.841 499.363 106.536C498.947 106.232 498.435 106.079 497.825 106.079C497.351 106.079 496.917 106.182 496.524 106.387C496.138 106.586 495.804 106.867 495.522 107.231C495.241 107.588 495.024 108.013 494.872 108.505C494.72 108.991 494.644 109.528 494.644 110.114V110.491C494.644 111.036 494.726 111.546 494.89 112.021C495.06 112.495 495.294 112.911 495.593 113.269C495.897 113.626 496.258 113.907 496.674 114.113C497.09 114.318 497.544 114.42 498.036 114.42C498.593 114.42 499.094 114.321 499.539 114.121C499.984 113.916 500.389 113.579 500.752 113.111L501.306 113.532C501.101 113.837 500.846 114.115 500.541 114.367C500.236 114.614 499.876 114.81 499.46 114.956C499.044 115.103 498.561 115.176 498.01 115.176ZM504.505 113.418V114.631C504.505 115.17 504.402 115.674 504.197 116.143C503.992 116.617 503.717 117.019 503.371 117.347L502.844 116.943C503.02 116.708 503.169 116.471 503.292 116.231C503.415 115.996 503.506 115.75 503.564 115.492C503.623 115.235 503.652 114.953 503.652 114.649V113.418H504.505ZM517.267 113.269V108.365C517.267 107.89 517.167 107.483 516.968 107.143C516.769 106.797 516.476 106.533 516.089 106.352C515.708 106.164 515.236 106.071 514.674 106.071C514.158 106.071 513.695 106.161 513.285 106.343C512.881 106.525 512.559 106.771 512.318 107.081C512.084 107.392 511.967 107.738 511.967 108.118L511.105 108.101C511.105 107.743 511.19 107.398 511.36 107.064C511.536 106.73 511.782 106.431 512.099 106.167C512.421 105.904 512.802 105.696 513.241 105.543C513.687 105.391 514.176 105.315 514.709 105.315C515.383 105.315 515.975 105.429 516.484 105.657C517 105.88 517.404 106.22 517.697 106.677C517.99 107.128 518.137 107.697 518.137 108.382V113.031C518.137 113.36 518.16 113.699 518.207 114.051C518.254 114.403 518.324 114.687 518.418 114.904V115H517.478C517.407 114.783 517.354 114.517 517.319 114.2C517.284 113.878 517.267 113.568 517.267 113.269ZM517.504 109.533L517.521 110.245H515.333C514.765 110.245 514.258 110.298 513.812 110.404C513.373 110.503 512.998 110.65 512.688 110.843C512.383 111.036 512.148 111.271 511.984 111.546C511.82 111.816 511.738 112.12 511.738 112.46C511.738 112.812 511.829 113.134 512.011 113.427C512.192 113.72 512.45 113.954 512.784 114.13C513.124 114.3 513.52 114.385 513.971 114.385C514.58 114.385 515.119 114.277 515.588 114.06C516.062 113.843 516.455 113.553 516.766 113.19C517.076 112.821 517.296 112.407 517.425 111.95L517.803 112.504C517.715 112.803 517.568 113.111 517.363 113.427C517.158 113.738 516.892 114.025 516.563 114.288C516.235 114.552 515.849 114.766 515.403 114.93C514.964 115.094 514.46 115.176 513.892 115.176C513.282 115.176 512.749 115.062 512.292 114.833C511.841 114.599 511.489 114.282 511.237 113.884C510.991 113.48 510.868 113.023 510.868 112.513C510.868 112.062 510.968 111.655 511.167 111.291C511.366 110.922 511.653 110.609 512.028 110.351C512.403 110.087 512.86 109.885 513.399 109.744C513.938 109.604 514.545 109.533 515.219 109.533H517.504ZM521.89 107.521V115H521.02V105.49H521.863L521.89 107.521ZM521.705 109.586L521.31 109.243C521.351 108.716 521.468 108.215 521.661 107.74C521.854 107.266 522.115 106.847 522.443 106.484C522.771 106.12 523.158 105.836 523.604 105.631C524.049 105.42 524.538 105.315 525.071 105.315C525.546 105.315 525.971 105.379 526.346 105.508C526.721 105.637 527.037 105.842 527.295 106.123C527.559 106.405 527.758 106.768 527.893 107.213C528.033 107.653 528.104 108.189 528.104 108.822V115H527.233V108.813C527.233 108.11 527.134 107.562 526.935 107.169C526.741 106.777 526.469 106.498 526.117 106.334C525.771 106.17 525.361 106.088 524.887 106.088C524.354 106.088 523.891 106.205 523.498 106.44C523.105 106.674 522.777 106.973 522.514 107.336C522.256 107.699 522.06 108.083 521.925 108.488C521.79 108.886 521.717 109.252 521.705 109.586ZM537.147 113.155V101.5H538.018V115H537.191L537.147 113.155ZM530.477 110.342V110.157C530.477 109.413 530.559 108.745 530.723 108.154C530.893 107.556 531.136 107.046 531.452 106.624C531.769 106.202 532.149 105.88 532.595 105.657C533.046 105.429 533.556 105.315 534.124 105.315C534.669 105.315 535.152 105.403 535.574 105.578C535.996 105.754 536.359 106.003 536.664 106.325C536.969 106.648 537.218 107.029 537.411 107.468C537.604 107.907 537.748 108.394 537.842 108.927V111.757C537.771 112.243 537.64 112.695 537.446 113.111C537.259 113.527 537.01 113.89 536.699 114.2C536.395 114.511 536.025 114.751 535.592 114.921C535.158 115.091 534.663 115.176 534.106 115.176C533.544 115.176 533.037 115.059 532.586 114.824C532.141 114.59 531.76 114.259 531.443 113.831C531.133 113.398 530.893 112.888 530.723 112.302C530.559 111.71 530.477 111.057 530.477 110.342ZM531.355 110.157V110.342C531.355 110.916 531.414 111.452 531.531 111.95C531.648 112.443 531.824 112.87 532.059 113.234C532.293 113.597 532.592 113.881 532.955 114.086C533.318 114.291 533.746 114.394 534.238 114.394C534.859 114.394 535.384 114.28 535.812 114.051C536.239 113.817 536.582 113.506 536.84 113.119C537.098 112.733 537.282 112.308 537.394 111.845V108.918C537.323 108.614 537.221 108.297 537.086 107.969C536.951 107.641 536.764 107.336 536.523 107.055C536.283 106.768 535.979 106.536 535.609 106.361C535.24 106.185 534.789 106.097 534.256 106.097C533.758 106.097 533.327 106.199 532.964 106.405C532.601 106.61 532.299 106.897 532.059 107.266C531.824 107.629 531.648 108.057 531.531 108.549C531.414 109.041 531.355 109.577 531.355 110.157ZM550.981 112.601C550.981 112.337 550.911 112.073 550.771 111.81C550.63 111.54 550.369 111.294 549.988 111.072C549.607 110.843 549.051 110.653 548.318 110.5C547.791 110.383 547.322 110.254 546.912 110.114C546.502 109.967 546.156 109.791 545.875 109.586C545.6 109.381 545.389 109.138 545.242 108.857C545.102 108.57 545.031 108.233 545.031 107.846C545.031 107.494 545.107 107.166 545.26 106.862C545.412 106.557 545.632 106.29 545.919 106.062C546.206 105.827 546.552 105.646 546.956 105.517C547.366 105.382 547.826 105.315 548.336 105.315C549.062 105.315 549.684 105.438 550.199 105.684C550.715 105.924 551.11 106.255 551.386 106.677C551.667 107.099 551.808 107.579 551.808 108.118H550.938C550.938 107.767 550.835 107.439 550.63 107.134C550.431 106.823 550.138 106.572 549.751 106.378C549.364 106.179 548.893 106.079 548.336 106.079C547.756 106.079 547.287 106.167 546.93 106.343C546.572 106.519 546.312 106.739 546.147 107.002C545.983 107.266 545.901 107.538 545.901 107.82C545.901 108.042 545.934 108.244 545.998 108.426C546.068 108.608 546.197 108.778 546.385 108.936C546.572 109.094 546.839 109.243 547.185 109.384C547.536 109.519 547.99 109.651 548.547 109.78C549.314 109.949 549.938 110.157 550.419 110.404C550.905 110.644 551.263 110.94 551.491 111.291C551.726 111.643 551.843 112.068 551.843 112.566C551.843 112.952 551.761 113.307 551.597 113.629C551.438 113.946 551.207 114.221 550.902 114.455C550.604 114.684 550.24 114.863 549.812 114.991C549.391 115.115 548.919 115.176 548.397 115.176C547.601 115.176 546.93 115.047 546.385 114.789C545.84 114.531 545.427 114.192 545.146 113.77C544.864 113.348 544.724 112.894 544.724 112.407H545.594C545.629 112.917 545.79 113.319 546.077 113.612C546.37 113.905 546.725 114.113 547.141 114.236C547.562 114.353 547.981 114.411 548.397 114.411C548.96 114.411 549.432 114.326 549.812 114.156C550.199 113.981 550.489 113.755 550.683 113.48C550.882 113.204 550.981 112.911 550.981 112.601ZM557.723 114.411C558.18 114.411 558.61 114.326 559.015 114.156C559.425 113.981 559.765 113.72 560.034 113.374C560.31 113.029 560.465 112.595 560.5 112.073H561.335C561.306 112.689 561.124 113.231 560.79 113.699C560.456 114.168 560.02 114.531 559.48 114.789C558.947 115.047 558.361 115.176 557.723 115.176C557.072 115.176 556.498 115.059 556 114.824C555.502 114.584 555.083 114.25 554.743 113.823C554.409 113.395 554.154 112.894 553.979 112.32C553.809 111.74 553.724 111.11 553.724 110.43V110.061C553.724 109.381 553.809 108.754 553.979 108.18C554.154 107.6 554.409 107.096 554.743 106.668C555.083 106.24 555.499 105.909 555.991 105.675C556.489 105.435 557.063 105.315 557.714 105.315C558.37 105.315 558.965 105.449 559.498 105.719C560.037 105.983 560.471 106.366 560.799 106.87C561.127 107.368 561.306 107.969 561.335 108.672H560.5C560.471 108.121 560.327 107.656 560.069 107.275C559.812 106.888 559.478 106.592 559.067 106.387C558.657 106.182 558.206 106.079 557.714 106.079C557.157 106.079 556.68 106.188 556.281 106.405C555.889 106.615 555.566 106.908 555.314 107.283C555.068 107.653 554.884 108.074 554.761 108.549C554.644 109.024 554.585 109.528 554.585 110.061V110.43C554.585 110.963 554.644 111.47 554.761 111.95C554.878 112.425 555.062 112.847 555.314 113.216C555.566 113.585 555.892 113.878 556.29 114.095C556.688 114.306 557.166 114.411 557.723 114.411ZM569.368 113.269V108.365C569.368 107.89 569.269 107.483 569.069 107.143C568.87 106.797 568.577 106.533 568.19 106.352C567.81 106.164 567.338 106.071 566.775 106.071C566.26 106.071 565.797 106.161 565.387 106.343C564.982 106.525 564.66 106.771 564.42 107.081C564.186 107.392 564.068 107.738 564.068 108.118L563.207 108.101C563.207 107.743 563.292 107.398 563.462 107.064C563.638 106.73 563.884 106.431 564.2 106.167C564.522 105.904 564.903 105.696 565.343 105.543C565.788 105.391 566.277 105.315 566.811 105.315C567.484 105.315 568.076 105.429 568.586 105.657C569.102 105.88 569.506 106.22 569.799 106.677C570.092 107.128 570.238 107.697 570.238 108.382V113.031C570.238 113.36 570.262 113.699 570.309 114.051C570.355 114.403 570.426 114.687 570.52 114.904V115H569.579C569.509 114.783 569.456 114.517 569.421 114.2C569.386 113.878 569.368 113.568 569.368 113.269ZM569.605 109.533L569.623 110.245H567.435C566.866 110.245 566.359 110.298 565.914 110.404C565.475 110.503 565.1 110.65 564.789 110.843C564.484 111.036 564.25 111.271 564.086 111.546C563.922 111.816 563.84 112.12 563.84 112.46C563.84 112.812 563.931 113.134 564.112 113.427C564.294 113.72 564.552 113.954 564.886 114.13C565.226 114.3 565.621 114.385 566.072 114.385C566.682 114.385 567.221 114.277 567.689 114.06C568.164 113.843 568.557 113.553 568.867 113.19C569.178 112.821 569.397 112.407 569.526 111.95L569.904 112.504C569.816 112.803 569.67 113.111 569.465 113.427C569.26 113.738 568.993 114.025 568.665 114.288C568.337 114.552 567.95 114.766 567.505 114.93C567.065 115.094 566.562 115.176 565.993 115.176C565.384 115.176 564.851 115.062 564.394 114.833C563.942 114.599 563.591 114.282 563.339 113.884C563.093 113.48 562.97 113.023 562.97 112.513C562.97 112.062 563.069 111.655 563.269 111.291C563.468 110.922 563.755 110.609 564.13 110.351C564.505 110.087 564.962 109.885 565.501 109.744C566.04 109.604 566.646 109.533 567.32 109.533H569.605ZM574.114 101.5V115H573.244V101.5H574.114ZM580.662 115.176C580.053 115.176 579.49 115.062 578.975 114.833C578.459 114.605 578.011 114.282 577.63 113.866C577.249 113.445 576.953 112.949 576.742 112.381C576.531 111.807 576.426 111.177 576.426 110.491V110.114C576.426 109.387 576.531 108.731 576.742 108.145C576.959 107.559 577.255 107.055 577.63 106.633C578.011 106.205 578.444 105.88 578.931 105.657C579.417 105.429 579.933 105.315 580.478 105.315C581.052 105.315 581.567 105.42 582.024 105.631C582.487 105.836 582.88 106.129 583.202 106.51C583.524 106.891 583.768 107.342 583.932 107.864C584.102 108.379 584.187 108.95 584.187 109.577V110.193H576.962V109.428H583.316V109.314C583.311 108.745 583.196 108.218 582.974 107.732C582.757 107.24 582.438 106.841 582.016 106.536C581.6 106.232 581.087 106.079 580.478 106.079C580.003 106.079 579.569 106.182 579.177 106.387C578.79 106.586 578.456 106.867 578.175 107.231C577.894 107.588 577.677 108.013 577.524 108.505C577.372 108.991 577.296 109.528 577.296 110.114V110.491C577.296 111.036 577.378 111.546 577.542 112.021C577.712 112.495 577.946 112.911 578.245 113.269C578.55 113.626 578.91 113.907 579.326 114.113C579.742 114.318 580.196 114.42 580.688 114.42C581.245 114.42 581.746 114.321 582.191 114.121C582.637 113.916 583.041 113.579 583.404 113.111L583.958 113.532C583.753 113.837 583.498 114.115 583.193 114.367C582.889 114.614 582.528 114.81 582.112 114.956C581.696 115.103 581.213 115.176 580.662 115.176Z" fill="white"/>
<mask id="path-7-outside-1_448_2373" maskUnits="userSpaceOnUse" x="0" y="48.0002" width="63" height="82" fill="black">
<rect fill="white" y="48.0002" width="63" height="82"/>
<path d="M57.5254 97.217V109.912H6.35352L5.37695 99.8538L33.9414 53.9065H46.9297L32.8184 77.0022L21.0996 97.217H57.5254ZM50.3477 53.9065V125H33.8926V53.9065H50.3477Z"/>
</mask>
<path d="M57.5254 97.217H62.5254V92.217H57.5254V97.217ZM57.5254 109.912V114.912H62.5254V109.912H57.5254ZM6.35352 109.912L1.37692 110.396L1.81544 114.912H6.35352V109.912ZM5.37695 99.8538L1.13064 97.2139L0.236746 98.6518L0.400353 100.337L5.37695 99.8538ZM33.9414 53.9065V48.9065H31.1623L29.6951 51.2666L33.9414 53.9065ZM46.9297 53.9065L51.1963 56.5134L55.8441 48.9065H46.9297V53.9065ZM32.8184 77.0022L28.5517 74.3953L28.5216 74.4446L28.4927 74.4945L32.8184 77.0022ZM21.0996 97.217L16.7739 94.7094L12.4216 102.217H21.0996V97.217ZM50.3477 53.9065H55.3477V48.9065H50.3477V53.9065ZM50.3477 125V130H55.3477V125H50.3477ZM33.8926 125H28.8926V130H33.8926V125ZM33.8926 53.9065V48.9065H28.8926V53.9065H33.8926ZM57.5254 97.217H52.5254V109.912H57.5254H62.5254V97.217H57.5254ZM57.5254 109.912V104.912H6.35352V109.912V114.912H57.5254V109.912ZM6.35352 109.912L11.3301 109.429L10.3536 99.3706L5.37695 99.8538L0.400353 100.337L1.37692 110.396L6.35352 109.912ZM5.37695 99.8538L9.62327 102.494L38.1877 56.5463L33.9414 53.9065L29.6951 51.2666L1.13064 97.2139L5.37695 99.8538ZM33.9414 53.9065V58.9065H46.9297V53.9065V48.9065H33.9414V53.9065ZM46.9297 53.9065L42.6631 51.2996L28.5517 74.3953L32.8184 77.0022L37.085 79.6091L51.1963 56.5134L46.9297 53.9065ZM32.8184 77.0022L28.4927 74.4945L16.7739 94.7094L21.0996 97.217L25.4253 99.7247L37.1441 79.5098L32.8184 77.0022ZM21.0996 97.217V102.217H57.5254V97.217V92.217H21.0996V97.217ZM50.3477 53.9065H45.3477V125H50.3477H55.3477V53.9065H50.3477ZM50.3477 125V120H33.8926V125V130H50.3477V125ZM33.8926 125H38.8926V53.9065H33.8926H28.8926V125H33.8926ZM33.8926 53.9065V58.9065H50.3477V53.9065V48.9065H33.8926V53.9065Z" fill="#1A5069" mask="url(#path-7-outside-1_448_2373)"/>
<defs>
<radialGradient id="paint0_radial_448_2373" cx="0" cy="0" r="1" gradientUnits="userSpaceOnUse" gradientTransform="translate(96.2629 367.631) scale(96.2629 367.631)">
<stop stop-color="#1A5069"/>
<stop offset="1" stop-color="#0F7BAE" stop-opacity="0"/>
</radialGradient>
<radialGradient id="paint1_radial_448_2373" cx="0" cy="0" r="1" gradientUnits="userSpaceOnUse" gradientTransform="translate(96.2629 367.631) scale(96.2629 367.631)">
<stop stop-color="#1A5069"/>
<stop offset="1" stop-color="#0F7BAE" stop-opacity="0"/>
</radialGradient>
</defs>
</svg>
