<svg width="797" height="180" viewBox="0 0 797 180" fill="none" xmlns="http://www.w3.org/2000/svg">
<mask id="mask0_448_2362" style="mask-type:alpha" maskUnits="userSpaceOnUse" x="70" y="0" width="727" height="180">
<rect x="-1.00159" y="0.995166" width="174.036" height="724.019" rx="87.0179" transform="matrix(-0.00160036 0.999999 -0.999988 -0.00483255 796.285 5.51011)" fill="black" stroke="#136A93" stroke-width="2"/>
</mask>
<g mask="url(#mask0_448_2362)">
<rect width="192.526" height="735.262" rx="47.5" transform="matrix(-0.00160036 0.999999 -0.999988 -0.00483255 1071.4 68.4429)" fill="url(#paint0_radial_448_2362)" fill-opacity="0.74"/>
<rect width="192.526" height="735.262" rx="47.5" transform="matrix(-0.00160036 0.999999 -0.999988 -0.00483255 530.426 -57.9541)" fill="url(#paint1_radial_448_2362)" fill-opacity="0.74"/>
</g>
<rect x="73.293" y="1.54663" width="722.708" height="175.235" rx="87.6177" fill="#D9D9D9" fill-opacity="0.14" stroke="#136A93" stroke-width="2"/>
<path d="M279.311 54.1174V79.0002H274.628V54.1174H279.311ZM287.035 54.1174V57.8259H266.989V54.1174H287.035ZM296.27 79.342C294.869 79.342 293.61 79.1142 292.493 78.6584C291.377 78.2027 290.425 77.5704 289.639 76.7615C288.864 75.9412 288.266 74.9898 287.845 73.9075C287.435 72.8137 287.229 71.6402 287.229 70.387V69.7034C287.229 68.2792 287.435 66.9861 287.845 65.824C288.255 64.6505 288.836 63.6422 289.588 62.7991C290.34 61.956 291.24 61.3066 292.288 60.8508C293.336 60.3951 294.493 60.1672 295.757 60.1672C297.068 60.1672 298.224 60.3894 299.227 60.8337C300.229 61.2667 301.067 61.8819 301.739 62.6794C302.411 63.477 302.918 64.434 303.26 65.5505C303.602 66.6557 303.772 67.8805 303.772 69.2249V71.1218H289.28V68.0115H299.329V67.6697C299.306 66.9519 299.17 66.2968 298.919 65.7043C298.668 65.1005 298.281 64.622 297.757 64.2688C297.233 63.9042 296.555 63.7219 295.723 63.7219C295.051 63.7219 294.464 63.87 293.963 64.1663C293.473 64.4511 293.063 64.8612 292.732 65.3967C292.413 65.9208 292.174 66.5474 292.015 67.2766C291.855 68.0058 291.775 68.8147 291.775 69.7034V70.387C291.775 71.1617 291.878 71.8795 292.083 72.5403C292.299 73.2011 292.613 73.7764 293.023 74.2664C293.444 74.7449 293.946 75.1208 294.527 75.3943C295.119 75.6563 295.792 75.7874 296.543 75.7874C297.489 75.7874 298.344 75.6051 299.107 75.2405C299.882 74.8645 300.554 74.3119 301.124 73.5828L303.396 75.9412C303.009 76.5108 302.485 77.0577 301.824 77.5818C301.175 78.1059 300.389 78.5331 299.466 78.8635C298.543 79.1825 297.478 79.342 296.27 79.342ZM314.135 75.7874C314.773 75.7874 315.343 75.662 315.844 75.4114C316.346 75.1607 316.744 74.8075 317.041 74.3518C317.348 73.8961 317.513 73.3663 317.536 72.7625H321.792C321.769 74.0157 321.416 75.1379 320.732 76.1292C320.048 77.1204 319.137 77.9065 317.998 78.4875C316.87 79.0572 315.605 79.342 314.204 79.342C312.779 79.342 311.538 79.1028 310.478 78.6243C309.418 78.1458 308.535 77.4792 307.829 76.6248C307.134 75.7703 306.61 74.7791 306.257 73.6511C305.915 72.5232 305.744 71.3155 305.744 70.0281V69.4812C305.744 68.1938 305.915 66.9861 306.257 65.8582C306.61 64.7302 307.134 63.739 307.829 62.8845C308.535 62.03 309.418 61.3635 310.478 60.885C311.538 60.4065 312.774 60.1672 314.187 60.1672C315.679 60.1672 316.989 60.4578 318.117 61.0388C319.257 61.6199 320.145 62.4402 320.783 63.4998C321.433 64.5593 321.769 65.8069 321.792 67.2424H317.536C317.513 66.5816 317.365 65.9892 317.092 65.4651C316.818 64.941 316.431 64.5194 315.93 64.2004C315.428 63.8814 314.819 63.7219 314.101 63.7219C313.338 63.7219 312.7 63.8814 312.187 64.2004C311.686 64.5194 311.293 64.9581 311.008 65.5164C310.734 66.0632 310.541 66.6785 310.427 67.3621C310.324 68.0343 310.273 68.7406 310.273 69.4812V70.0281C310.273 70.78 310.324 71.4978 310.427 72.1814C310.541 72.865 310.734 73.4802 311.008 74.0271C311.293 74.5626 311.686 74.9898 312.187 75.3088C312.7 75.6278 313.349 75.7874 314.135 75.7874ZM328.976 52.7502V79.0002H324.447V52.7502H328.976ZM328.258 69.0881H326.925C326.925 67.8007 327.096 66.6158 327.438 65.5334C327.779 64.4511 328.264 63.5111 328.89 62.7136C329.517 61.9047 330.263 61.2781 331.129 60.8337C332.006 60.3894 332.975 60.1672 334.034 60.1672C334.946 60.1672 335.772 60.2983 336.512 60.5603C337.264 60.811 337.908 61.2154 338.443 61.7737C338.979 62.3319 339.389 63.0611 339.674 63.9612C339.97 64.8499 340.118 65.9322 340.118 67.2083V79.0002H335.572V67.1741C335.572 66.3196 335.447 65.6474 335.196 65.1575C334.946 64.6562 334.587 64.2973 334.12 64.0808C333.664 63.8643 333.1 63.7561 332.428 63.7561C331.699 63.7561 331.072 63.8985 330.548 64.1833C330.024 64.4568 329.591 64.8385 329.249 65.3284C328.919 65.8183 328.668 66.3822 328.497 67.0203C328.338 67.6583 328.258 68.3476 328.258 69.0881ZM365.68 72.5403C365.68 72.0618 365.606 71.6345 365.458 71.2585C365.321 70.8712 365.065 70.5237 364.689 70.2161C364.324 69.8971 363.806 69.5894 363.134 69.2932C362.473 68.9856 361.618 68.6666 360.57 68.3362C359.408 67.9716 358.326 67.5614 357.323 67.1057C356.321 66.65 355.438 66.1202 354.674 65.5164C353.922 64.9125 353.336 64.2175 352.914 63.4314C352.493 62.6339 352.282 61.711 352.282 60.6628C352.282 59.6375 352.498 58.7032 352.931 57.8601C353.375 57.017 354.002 56.2935 354.811 55.6897C355.62 55.0745 356.571 54.6016 357.665 54.2712C358.77 53.9408 359.989 53.7756 361.322 53.7756C363.168 53.7756 364.763 54.1117 366.107 54.7839C367.463 55.4561 368.511 56.3676 369.252 57.5183C369.993 58.669 370.363 59.9622 370.363 61.3977H365.68C365.68 60.623 365.515 59.9394 365.185 59.3469C364.866 58.7545 364.376 58.2874 363.715 57.9456C363.065 57.6038 362.245 57.4329 361.254 57.4329C360.297 57.4329 359.499 57.5753 358.861 57.8601C358.235 58.1449 357.762 58.5323 357.443 59.0222C357.135 59.5121 356.981 60.059 356.981 60.6628C356.981 61.1186 357.09 61.5287 357.306 61.8933C357.523 62.2465 357.847 62.5826 358.28 62.9016C358.713 63.2092 359.249 63.4998 359.887 63.7732C360.536 64.0352 361.288 64.2973 362.143 64.5593C363.51 64.9695 364.706 65.4252 365.731 65.9265C366.768 66.4278 367.628 66.9975 368.312 67.6355C369.007 68.2735 369.525 68.9913 369.867 69.7888C370.22 70.5863 370.397 71.4921 370.397 72.5061C370.397 73.5771 370.186 74.5341 369.765 75.3772C369.343 76.2203 368.739 76.9381 367.953 77.5305C367.167 78.123 366.221 78.573 365.116 78.8806C364.022 79.1882 362.798 79.342 361.442 79.342C360.234 79.342 359.038 79.1825 357.853 78.8635C356.68 78.5331 355.614 78.0432 354.657 77.3938C353.7 76.733 352.937 75.9013 352.367 74.8987C351.798 73.8847 351.513 72.6998 351.513 71.344H356.229C356.229 72.1301 356.355 72.8023 356.605 73.3606C356.868 73.9075 357.232 74.3575 357.699 74.7107C358.178 75.0525 358.736 75.3031 359.374 75.4626C360.012 75.6222 360.701 75.7019 361.442 75.7019C362.399 75.7019 363.185 75.5709 363.8 75.3088C364.427 75.0354 364.894 74.6594 365.202 74.1809C365.521 73.7024 365.68 73.1555 365.68 72.5403ZM382.178 60.509V63.7561H371.583V60.509H382.178ZM374.419 55.9631H378.948V73.6682C378.948 74.2151 379.022 74.6366 379.17 74.9329C379.319 75.2291 379.541 75.4285 379.837 75.531C380.133 75.6335 380.486 75.6848 380.896 75.6848C381.193 75.6848 381.466 75.6677 381.717 75.6335C381.967 75.5994 382.178 75.5652 382.349 75.531L382.366 78.9148C381.99 79.0401 381.563 79.1427 381.084 79.2224C380.617 79.3022 380.088 79.342 379.495 79.342C378.481 79.342 377.592 79.1711 376.829 78.8293C376.066 78.4762 375.473 77.9122 375.052 77.1375C374.63 76.3513 374.419 75.3145 374.419 74.0271V55.9631ZM395.122 75.0696V66.5417C395.122 65.9151 395.013 65.3739 394.797 64.9182C394.58 64.4625 394.25 64.1093 393.806 63.8586C393.361 63.608 392.797 63.4827 392.114 63.4827C391.51 63.4827 390.98 63.5852 390.524 63.7903C390.08 63.9954 389.738 64.2859 389.499 64.6619C389.26 65.0264 389.14 65.448 389.14 65.9265H384.611C384.611 65.1632 384.794 64.4397 385.158 63.7561C385.523 63.0611 386.041 62.4459 386.713 61.9104C387.397 61.3635 388.212 60.9363 389.157 60.6287C390.114 60.321 391.185 60.1672 392.37 60.1672C393.771 60.1672 395.019 60.4065 396.113 60.885C397.218 61.3521 398.084 62.0585 398.71 63.0042C399.348 63.9498 399.667 65.1404 399.667 66.5759V74.6423C399.667 75.5652 399.724 76.357 399.838 77.0178C399.964 77.6672 400.146 78.2312 400.385 78.7097V79.0002H395.788C395.572 78.5331 395.406 77.9407 395.292 77.2229C395.179 76.4937 395.122 75.776 395.122 75.0696ZM395.754 67.738L395.788 70.4211H392.934C392.228 70.4211 391.607 70.4952 391.071 70.6433C390.536 70.78 390.097 70.9851 389.755 71.2585C389.414 71.5206 389.157 71.8396 388.986 72.2156C388.815 72.5802 388.73 72.996 388.73 73.4631C388.73 73.9189 388.833 74.329 389.038 74.6936C389.254 75.0582 389.562 75.3487 389.96 75.5652C390.371 75.7703 390.849 75.8728 391.396 75.8728C392.194 75.8728 392.889 75.7133 393.481 75.3943C394.073 75.0639 394.535 74.6651 394.865 74.198C395.196 73.7309 395.372 73.2865 395.395 72.865L396.694 74.8132C396.534 75.2804 396.295 75.776 395.976 76.3C395.657 76.8241 395.247 77.314 394.746 77.7698C394.244 78.2255 393.64 78.6015 392.934 78.8977C392.228 79.1939 391.407 79.342 390.473 79.342C389.277 79.342 388.206 79.1028 387.26 78.6243C386.315 78.1458 385.568 77.4906 385.021 76.6589C384.475 75.8272 384.201 74.8816 384.201 73.822C384.201 72.8422 384.383 71.9763 384.748 71.2244C385.113 70.4724 385.654 69.8401 386.372 69.3274C387.089 68.8033 387.978 68.4102 389.038 68.1482C390.109 67.8748 391.333 67.738 392.712 67.738H395.754ZM411.073 75.7874C411.711 75.7874 412.28 75.662 412.782 75.4114C413.283 75.1607 413.682 74.8075 413.978 74.3518C414.286 73.8961 414.451 73.3663 414.474 72.7625H418.729C418.706 74.0157 418.353 75.1379 417.669 76.1292C416.986 77.1204 416.074 77.9065 414.935 78.4875C413.807 79.0572 412.542 79.342 411.141 79.342C409.717 79.342 408.475 79.1028 407.416 78.6243C406.356 78.1458 405.473 77.4792 404.767 76.6248C404.072 75.7703 403.548 74.7791 403.194 73.6511C402.853 72.5232 402.682 71.3155 402.682 70.0281V69.4812C402.682 68.1938 402.853 66.9861 403.194 65.8582C403.548 64.7302 404.072 63.739 404.767 62.8845C405.473 62.03 406.356 61.3635 407.416 60.885C408.475 60.4065 409.711 60.1672 411.124 60.1672C412.617 60.1672 413.927 60.4578 415.055 61.0388C416.194 61.6199 417.083 62.4402 417.721 63.4998C418.37 64.5593 418.706 65.8069 418.729 67.2424H414.474C414.451 66.5816 414.303 65.9892 414.029 65.4651C413.756 64.941 413.368 64.5194 412.867 64.2004C412.366 63.8814 411.756 63.7219 411.039 63.7219C410.275 63.7219 409.637 63.8814 409.125 64.2004C408.623 64.5194 408.23 64.9581 407.945 65.5164C407.672 66.0632 407.478 66.6785 407.364 67.3621C407.262 68.0343 407.21 68.7406 407.21 69.4812V70.0281C407.21 70.78 407.262 71.4978 407.364 72.1814C407.478 72.865 407.672 73.4802 407.945 74.0271C408.23 74.5626 408.623 74.9898 409.125 75.3088C409.637 75.6278 410.287 75.7874 411.073 75.7874ZM425.999 52.7332V79.0002H421.487V52.7332H425.999ZM437.585 60.509L429.536 69.5496L425.178 73.9758L423.743 70.4724L427.109 66.2341L432.134 60.509H437.585ZM432.971 79.0002L427.246 70.387L430.254 67.4646L438.201 79.0002H432.971ZM458.431 57.8943L451.338 79.0002H446.365L455.662 54.1174H458.841L458.431 57.8943ZM464.361 79.0002L457.234 57.8943L456.807 54.1174H460.003L469.351 79.0002H464.361ZM464.036 69.7546V73.4631H450.689V69.7546H464.036ZM476.108 52.7502V79.0002H471.579V52.7502H476.108ZM484.95 60.509V79.0002H480.421V60.509H484.95ZM480.113 55.6726C480.113 55.0004 480.341 54.4421 480.797 53.9978C481.264 53.5535 481.891 53.3313 482.677 53.3313C483.463 53.3313 484.084 53.5535 484.54 53.9978C485.007 54.4421 485.24 55.0004 485.24 55.6726C485.24 56.3334 485.007 56.886 484.54 57.3303C484.084 57.7747 483.463 57.9968 482.677 57.9968C481.891 57.9968 481.264 57.7747 480.797 57.3303C480.341 56.886 480.113 56.3334 480.113 55.6726ZM500.764 60.509H504.866V78.4363C504.866 80.1111 504.501 81.5295 503.772 82.6917C503.054 83.8652 502.046 84.7538 500.747 85.3577C499.448 85.9729 497.939 86.2805 496.218 86.2805C495.478 86.2805 494.674 86.178 493.809 85.9729C492.954 85.7678 492.128 85.4431 491.331 84.9988C490.544 84.5658 489.889 84.0019 489.365 83.3069L491.399 80.6409C492.014 81.3586 492.709 81.8998 493.484 82.2644C494.259 82.6404 495.096 82.8284 495.996 82.8284C496.908 82.8284 497.682 82.6575 498.32 82.3157C498.97 81.9853 499.465 81.4954 499.807 80.8459C500.16 80.2079 500.337 79.4218 500.337 78.4875V64.7302L500.764 60.509ZM488.271 69.9768V69.6179C488.271 68.2052 488.442 66.9234 488.784 65.7727C489.126 64.6106 489.616 63.6137 490.254 62.782C490.903 61.9503 491.684 61.3066 492.595 60.8508C493.518 60.3951 494.555 60.1672 495.706 60.1672C496.925 60.1672 497.95 60.3894 498.782 60.8337C499.625 61.2781 500.32 61.9104 500.867 62.7307C501.425 63.551 501.858 64.5251 502.166 65.6531C502.485 66.7696 502.729 68.0001 502.9 69.3445V70.3186C502.741 71.6288 502.485 72.8308 502.131 73.9246C501.79 75.0183 501.334 75.9753 500.764 76.7957C500.194 77.6046 499.488 78.2312 498.645 78.6755C497.802 79.1199 496.811 79.342 495.671 79.342C494.532 79.342 493.507 79.1085 492.595 78.6414C491.684 78.1742 490.903 77.5191 490.254 76.676C489.616 75.8329 489.126 74.8417 488.784 73.7024C488.442 72.5631 488.271 71.3212 488.271 69.9768ZM492.783 69.6179V69.9768C492.783 70.7743 492.863 71.5206 493.022 72.2156C493.182 72.9106 493.427 73.5258 493.757 74.0613C494.088 74.5854 494.504 74.9955 495.005 75.2917C495.506 75.588 496.104 75.7361 496.799 75.7361C497.734 75.7361 498.497 75.5424 499.089 75.155C499.693 74.7563 500.149 74.2151 500.457 73.5315C500.776 72.8365 500.981 72.0561 501.072 71.1902V68.5071C501.015 67.8235 500.889 67.1912 500.696 66.6101C500.514 66.0291 500.257 65.5278 499.927 65.1062C499.596 64.6847 499.175 64.3542 498.662 64.115C498.149 63.8757 497.54 63.7561 496.833 63.7561C496.15 63.7561 495.552 63.9099 495.039 64.2175C494.526 64.5138 494.105 64.9296 493.774 65.4651C493.444 66.0006 493.193 66.6215 493.022 67.3279C492.863 68.0343 492.783 68.7976 492.783 69.6179ZM513.109 64.4568V79.0002H508.598V60.509H512.836L513.109 64.4568ZM512.392 69.0881H511.059C511.07 67.7437 511.252 66.5247 511.605 65.4309C511.959 64.3372 512.454 63.3972 513.092 62.6111C513.742 61.825 514.511 61.2211 515.399 60.7996C516.288 60.378 517.279 60.1672 518.373 60.1672C519.262 60.1672 520.065 60.2926 520.783 60.5432C521.5 60.7939 522.116 61.1926 522.628 61.7395C523.153 62.2864 523.551 63.0042 523.825 63.8928C524.11 64.7701 524.252 65.8525 524.252 67.1399V79.0002H519.706V67.1057C519.706 66.2626 519.581 65.5961 519.33 65.1062C519.091 64.6163 518.738 64.2688 518.271 64.0637C517.815 63.8586 517.251 63.7561 516.579 63.7561C515.884 63.7561 515.274 63.8985 514.75 64.1833C514.237 64.4568 513.804 64.8385 513.451 65.3284C513.109 65.8183 512.847 66.3822 512.665 67.0203C512.483 67.6583 512.392 68.3476 512.392 69.0881ZM532.479 64.303V79.0002H527.967V60.509H532.222L532.479 64.303ZM531.812 69.0881H530.428C530.428 67.8007 530.582 66.6158 530.889 65.5334C531.208 64.4511 531.675 63.5111 532.291 62.7136C532.906 61.9047 533.663 61.2781 534.563 60.8337C535.475 60.3894 536.529 60.1672 537.725 60.1672C538.557 60.1672 539.32 60.2926 540.015 60.5432C540.71 60.7825 541.308 61.1641 541.81 61.6882C542.322 62.2009 542.715 62.8731 542.989 63.7048C543.262 64.5251 543.399 65.5107 543.399 66.6614V79.0002H538.887V67.1228C538.887 66.2569 538.762 65.579 538.511 65.0891C538.272 64.5992 537.924 64.2574 537.469 64.0637C537.013 63.8586 536.466 63.7561 535.828 63.7561C535.122 63.7561 534.512 63.8985 534 64.1833C533.498 64.4568 533.082 64.8385 532.752 65.3284C532.433 65.8183 532.194 66.3822 532.034 67.0203C531.886 67.6583 531.812 68.3476 531.812 69.0881ZM543.057 68.2507L541.194 68.5925C541.206 67.4304 541.365 66.3424 541.673 65.3284C541.98 64.303 542.431 63.4086 543.023 62.6453C543.627 61.8705 544.373 61.2667 545.262 60.8337C546.162 60.3894 547.199 60.1672 548.372 60.1672C549.284 60.1672 550.104 60.2983 550.833 60.5603C551.574 60.811 552.206 61.2154 552.73 61.7737C553.254 62.3206 553.653 63.0326 553.926 63.9099C554.211 64.7872 554.354 65.8582 554.354 67.1228V79.0002H549.808V67.1057C549.808 66.2056 549.682 65.5164 549.432 65.0378C549.192 64.5593 548.845 64.2289 548.389 64.0466C547.933 63.8529 547.398 63.7561 546.783 63.7561C546.156 63.7561 545.609 63.8757 545.142 64.115C544.686 64.3429 544.299 64.6619 543.98 65.072C543.672 65.4822 543.439 65.9607 543.279 66.5076C543.131 67.0431 543.057 67.6241 543.057 68.2507ZM566.459 79.342C565.058 79.342 563.799 79.1142 562.683 78.6584C561.566 78.2027 560.615 77.5704 559.829 76.7615C559.054 75.9412 558.456 74.9898 558.034 73.9075C557.624 72.8137 557.419 71.6402 557.419 70.387V69.7034C557.419 68.2792 557.624 66.9861 558.034 65.824C558.444 64.6505 559.025 63.6422 559.777 62.7991C560.529 61.956 561.429 61.3066 562.478 60.8508C563.526 60.3951 564.682 60.1672 565.947 60.1672C567.257 60.1672 568.413 60.3894 569.416 60.8337C570.419 61.2667 571.256 61.8819 571.928 62.6794C572.6 63.477 573.107 64.434 573.449 65.5505C573.791 66.6557 573.962 67.8805 573.962 69.2249V71.1218H559.47V68.0115H569.519V67.6697C569.496 66.9519 569.359 66.2968 569.108 65.7043C568.858 65.1005 568.47 64.622 567.946 64.2688C567.422 63.9042 566.744 63.7219 565.913 63.7219C565.24 63.7219 564.654 63.87 564.152 64.1663C563.662 64.4511 563.252 64.8612 562.922 65.3967C562.603 65.9208 562.364 66.5474 562.204 67.2766C562.045 68.0058 561.965 68.8147 561.965 69.7034V70.387C561.965 71.1617 562.067 71.8795 562.272 72.5403C562.489 73.2011 562.802 73.7764 563.212 74.2664C563.634 74.7449 564.135 75.1208 564.716 75.3943C565.309 75.6563 565.981 75.7874 566.733 75.7874C567.679 75.7874 568.533 75.6051 569.296 75.2405C570.071 74.8645 570.743 74.3119 571.313 73.5828L573.586 75.9412C573.199 76.5108 572.674 77.0577 572.014 77.5818C571.364 78.1059 570.578 78.5331 569.655 78.8635C568.732 79.1825 567.667 79.342 566.459 79.342ZM581.163 64.4568V79.0002H576.651V60.509H580.89L581.163 64.4568ZM580.445 69.0881H579.112C579.124 67.7437 579.306 66.5247 579.659 65.4309C580.012 64.3372 580.508 63.3972 581.146 62.6111C581.795 61.825 582.564 61.2211 583.453 60.7996C584.342 60.378 585.333 60.1672 586.427 60.1672C587.315 60.1672 588.119 60.2926 588.836 60.5432C589.554 60.7939 590.169 61.1926 590.682 61.7395C591.206 62.2864 591.605 63.0042 591.878 63.8928C592.163 64.7701 592.306 65.8525 592.306 67.1399V79.0002H587.76V67.1057C587.76 66.2626 587.634 65.5961 587.384 65.1062C587.145 64.6163 586.791 64.2688 586.324 64.0637C585.868 63.8586 585.305 63.7561 584.632 63.7561C583.937 63.7561 583.328 63.8985 582.804 64.1833C582.291 64.4568 581.858 64.8385 581.505 65.3284C581.163 65.8183 580.901 66.3822 580.719 67.0203C580.536 67.6583 580.445 68.3476 580.445 69.0881ZM604.788 60.509V63.7561H594.192V60.509H604.788ZM597.029 55.9631H601.558V73.6682C601.558 74.2151 601.632 74.6366 601.78 74.9329C601.928 75.2291 602.15 75.4285 602.446 75.531C602.743 75.6335 603.096 75.6848 603.506 75.6848C603.802 75.6848 604.076 75.6677 604.326 75.6335C604.577 75.5994 604.788 75.5652 604.958 75.531L604.976 78.9148C604.6 79.0401 604.172 79.1427 603.694 79.2224C603.227 79.3022 602.697 79.342 602.104 79.342C601.09 79.342 600.202 79.1711 599.438 78.8293C598.675 78.4762 598.083 77.9122 597.661 77.1375C597.24 76.3513 597.029 75.3145 597.029 74.0271V55.9631Z" fill="#EDD5B1"/>
<path d="M260.904 102.203V115H260.017V102.203H260.904ZM265.123 107.521V115H264.253V105.49H265.097L265.123 107.521ZM264.938 109.586L264.543 109.243C264.584 108.716 264.701 108.215 264.895 107.74C265.088 107.266 265.349 106.847 265.677 106.484C266.005 106.12 266.392 105.836 266.837 105.631C267.282 105.42 267.771 105.315 268.305 105.315C268.779 105.315 269.204 105.379 269.579 105.508C269.954 105.637 270.271 105.842 270.528 106.123C270.792 106.405 270.991 106.768 271.126 107.213C271.267 107.653 271.337 108.189 271.337 108.822V115H270.467V108.813C270.467 108.11 270.367 107.562 270.168 107.169C269.975 106.777 269.702 106.498 269.351 106.334C269.005 106.17 268.595 106.088 268.12 106.088C267.587 106.088 267.124 106.205 266.731 106.44C266.339 106.674 266.011 106.973 265.747 107.336C265.489 107.699 265.293 108.083 265.158 108.488C265.023 108.886 264.95 109.252 264.938 109.586ZM277.621 105.49V106.238H272.963V105.49H277.621ZM274.712 103.012H275.591V112.698C275.591 113.172 275.649 113.532 275.767 113.779C275.89 114.019 276.051 114.18 276.25 114.262C276.449 114.344 276.663 114.385 276.892 114.385C277.056 114.385 277.208 114.376 277.349 114.359C277.495 114.341 277.636 114.321 277.771 114.297L277.823 115.044C277.694 115.085 277.527 115.117 277.322 115.141C277.117 115.164 276.924 115.176 276.742 115.176C276.338 115.176 275.983 115.103 275.679 114.956C275.374 114.804 275.137 114.549 274.967 114.192C274.797 113.828 274.712 113.33 274.712 112.698V103.012ZM283.501 115.176C282.892 115.176 282.329 115.062 281.813 114.833C281.298 114.605 280.85 114.282 280.469 113.866C280.088 113.445 279.792 112.949 279.581 112.381C279.37 111.807 279.265 111.177 279.265 110.491V110.114C279.265 109.387 279.37 108.731 279.581 108.145C279.798 107.559 280.094 107.055 280.469 106.633C280.85 106.205 281.283 105.88 281.77 105.657C282.256 105.429 282.771 105.315 283.316 105.315C283.891 105.315 284.406 105.42 284.863 105.631C285.326 105.836 285.719 106.129 286.041 106.51C286.363 106.891 286.606 107.342 286.771 107.864C286.94 108.379 287.025 108.95 287.025 109.577V110.193H279.801V109.428H286.155V109.314C286.149 108.745 286.035 108.218 285.812 107.732C285.596 107.24 285.276 106.841 284.854 106.536C284.438 106.232 283.926 106.079 283.316 106.079C282.842 106.079 282.408 106.182 282.016 106.387C281.629 106.586 281.295 106.867 281.014 107.231C280.732 107.588 280.516 108.013 280.363 108.505C280.211 108.991 280.135 109.528 280.135 110.114V110.491C280.135 111.036 280.217 111.546 280.381 112.021C280.551 112.495 280.785 112.911 281.084 113.269C281.389 113.626 281.749 113.907 282.165 114.113C282.581 114.318 283.035 114.42 283.527 114.42C284.084 114.42 284.585 114.321 285.03 114.121C285.476 113.916 285.88 113.579 286.243 113.111L286.797 113.532C286.592 113.837 286.337 114.115 286.032 114.367C285.728 114.614 285.367 114.81 284.951 114.956C284.535 115.103 284.052 115.176 283.501 115.176ZM295.419 105.49H296.236V114.842C296.236 115.662 296.084 116.368 295.779 116.96C295.475 117.558 295.041 118.015 294.479 118.331C293.922 118.648 293.263 118.806 292.501 118.806C292.085 118.806 291.675 118.744 291.271 118.621C290.866 118.498 290.488 118.314 290.137 118.068C289.791 117.827 289.495 117.534 289.249 117.189L289.759 116.653C290.14 117.121 290.55 117.47 290.989 117.698C291.429 117.927 291.915 118.041 292.448 118.041C293.075 118.041 293.605 117.912 294.039 117.655C294.473 117.403 294.801 117.039 295.023 116.565C295.252 116.09 295.366 115.525 295.366 114.868V107.582L295.419 105.49ZM288.704 110.342V110.157C288.704 109.413 288.786 108.745 288.95 108.154C289.114 107.556 289.352 107.046 289.662 106.624C289.979 106.202 290.362 105.88 290.813 105.657C291.265 105.429 291.774 105.315 292.343 105.315C292.888 105.315 293.371 105.403 293.793 105.578C294.215 105.754 294.578 106.003 294.883 106.325C295.193 106.648 295.445 107.029 295.639 107.468C295.832 107.907 295.976 108.394 296.069 108.927V111.757C295.993 112.243 295.861 112.695 295.674 113.111C295.486 113.527 295.237 113.89 294.927 114.2C294.616 114.511 294.244 114.751 293.811 114.921C293.383 115.091 292.888 115.176 292.325 115.176C291.763 115.176 291.256 115.059 290.805 114.824C290.359 114.59 289.979 114.259 289.662 113.831C289.352 113.398 289.114 112.888 288.95 112.302C288.786 111.71 288.704 111.057 288.704 110.342ZM289.574 110.157V110.342C289.574 110.916 289.633 111.452 289.75 111.95C289.867 112.443 290.043 112.87 290.277 113.234C290.518 113.597 290.816 113.881 291.174 114.086C291.537 114.291 291.965 114.394 292.457 114.394C293.078 114.394 293.603 114.28 294.03 114.051C294.458 113.817 294.798 113.506 295.05 113.119C295.302 112.733 295.48 112.308 295.586 111.845V108.918C295.521 108.614 295.422 108.297 295.287 107.969C295.158 107.641 294.974 107.336 294.733 107.055C294.499 106.768 294.197 106.536 293.828 106.361C293.459 106.185 293.008 106.097 292.475 106.097C291.977 106.097 291.546 106.199 291.183 106.405C290.819 106.61 290.518 106.897 290.277 107.266C290.043 107.629 289.867 108.057 289.75 108.549C289.633 109.041 289.574 109.577 289.574 110.157ZM299.945 107.09V115H299.075V105.49H299.928L299.945 107.09ZM303.443 105.42L303.408 106.211C303.297 106.194 303.186 106.182 303.074 106.176C302.969 106.164 302.854 106.158 302.731 106.158C302.251 106.158 301.829 106.249 301.466 106.431C301.103 106.613 300.798 106.865 300.552 107.187C300.312 107.509 300.127 107.884 299.998 108.312C299.875 108.734 299.808 109.191 299.796 109.683L299.436 109.788C299.436 109.15 299.5 108.561 299.629 108.022C299.764 107.477 299.969 107.002 300.244 106.598C300.52 106.194 300.865 105.88 301.281 105.657C301.697 105.429 302.189 105.315 302.758 105.315C302.893 105.315 303.021 105.326 303.145 105.35C303.273 105.367 303.373 105.391 303.443 105.42ZM310.615 113.269V108.365C310.615 107.89 310.516 107.483 310.316 107.143C310.117 106.797 309.824 106.533 309.438 106.352C309.057 106.164 308.585 106.071 308.022 106.071C307.507 106.071 307.044 106.161 306.634 106.343C306.229 106.525 305.907 106.771 305.667 107.081C305.433 107.392 305.315 107.738 305.315 108.118L304.454 108.101C304.454 107.743 304.539 107.398 304.709 107.064C304.885 106.73 305.131 106.431 305.447 106.167C305.77 105.904 306.15 105.696 306.59 105.543C307.035 105.391 307.524 105.315 308.058 105.315C308.731 105.315 309.323 105.429 309.833 105.657C310.349 105.88 310.753 106.22 311.046 106.677C311.339 107.128 311.485 107.697 311.485 108.382V113.031C311.485 113.36 311.509 113.699 311.556 114.051C311.603 114.403 311.673 114.687 311.767 114.904V115H310.826C310.756 114.783 310.703 114.517 310.668 114.2C310.633 113.878 310.615 113.568 310.615 113.269ZM310.853 109.533L310.87 110.245H308.682C308.113 110.245 307.606 110.298 307.161 110.404C306.722 110.503 306.347 110.65 306.036 110.843C305.731 111.036 305.497 111.271 305.333 111.546C305.169 111.816 305.087 112.12 305.087 112.46C305.087 112.812 305.178 113.134 305.359 113.427C305.541 113.72 305.799 113.954 306.133 114.13C306.473 114.3 306.868 114.385 307.319 114.385C307.929 114.385 308.468 114.277 308.937 114.06C309.411 113.843 309.804 113.553 310.114 113.19C310.425 112.821 310.645 112.407 310.773 111.95L311.151 112.504C311.063 112.803 310.917 113.111 310.712 113.427C310.507 113.738 310.24 114.025 309.912 114.288C309.584 114.552 309.197 114.766 308.752 114.93C308.312 115.094 307.809 115.176 307.24 115.176C306.631 115.176 306.098 115.062 305.641 114.833C305.189 114.599 304.838 114.282 304.586 113.884C304.34 113.48 304.217 113.023 304.217 112.513C304.217 112.062 304.316 111.655 304.516 111.291C304.715 110.922 305.002 110.609 305.377 110.351C305.752 110.087 306.209 109.885 306.748 109.744C307.287 109.604 307.894 109.533 308.567 109.533H310.853ZM317.857 105.49V106.238H313.199V105.49H317.857ZM314.948 103.012H315.827V112.698C315.827 113.172 315.886 113.532 316.003 113.779C316.126 114.019 316.287 114.18 316.486 114.262C316.686 114.344 316.899 114.385 317.128 114.385C317.292 114.385 317.444 114.376 317.585 114.359C317.731 114.341 317.872 114.321 318.007 114.297L318.06 115.044C317.931 115.085 317.764 115.117 317.559 115.141C317.354 115.164 317.16 115.176 316.979 115.176C316.574 115.176 316.22 115.103 315.915 114.956C315.61 114.804 315.373 114.549 315.203 114.192C315.033 113.828 314.948 113.33 314.948 112.698V103.012ZM323.737 115.176C323.128 115.176 322.565 115.062 322.05 114.833C321.534 114.605 321.086 114.282 320.705 113.866C320.324 113.445 320.028 112.949 319.817 112.381C319.606 111.807 319.501 111.177 319.501 110.491V110.114C319.501 109.387 319.606 108.731 319.817 108.145C320.034 107.559 320.33 107.055 320.705 106.633C321.086 106.205 321.52 105.88 322.006 105.657C322.492 105.429 323.008 105.315 323.553 105.315C324.127 105.315 324.643 105.42 325.1 105.631C325.562 105.836 325.955 106.129 326.277 106.51C326.6 106.891 326.843 107.342 327.007 107.864C327.177 108.379 327.262 108.95 327.262 109.577V110.193H320.037V109.428H326.392V109.314C326.386 108.745 326.271 108.218 326.049 107.732C325.832 107.24 325.513 106.841 325.091 106.536C324.675 106.232 324.162 106.079 323.553 106.079C323.078 106.079 322.645 106.182 322.252 106.387C321.865 106.586 321.531 106.867 321.25 107.231C320.969 107.588 320.752 108.013 320.6 108.505C320.447 108.991 320.371 109.528 320.371 110.114V110.491C320.371 111.036 320.453 111.546 320.617 112.021C320.787 112.495 321.021 112.911 321.32 113.269C321.625 113.626 321.985 113.907 322.401 114.113C322.817 114.318 323.271 114.42 323.764 114.42C324.32 114.42 324.821 114.321 325.267 114.121C325.712 113.916 326.116 113.579 326.479 113.111L327.033 113.532C326.828 113.837 326.573 114.115 326.269 114.367C325.964 114.614 325.604 114.81 325.188 114.956C324.771 115.103 324.288 115.176 323.737 115.176ZM336.438 112.61L338.679 105.49H339.329L338.811 107.582L336.438 115H335.787L336.438 112.61ZM333.827 105.49L335.822 112.645L336.332 115H335.673L332.913 105.49H333.827ZM342.344 112.618L344.295 105.49H345.209L342.44 115H341.79L342.344 112.618ZM339.443 105.49L341.667 112.566L342.326 115H341.685L339.259 107.573L338.775 105.49H339.443ZM348.303 105.49V115H347.433V105.49H348.303ZM347.23 102.669C347.23 102.493 347.289 102.344 347.406 102.221C347.523 102.092 347.679 102.028 347.872 102.028C348.071 102.028 348.229 102.092 348.347 102.221C348.47 102.344 348.531 102.493 348.531 102.669C348.531 102.845 348.47 102.994 348.347 103.117C348.229 103.24 348.071 103.302 347.872 103.302C347.679 103.302 347.523 103.24 347.406 103.117C347.289 102.994 347.23 102.845 347.23 102.669ZM354.736 105.49V106.238H350.078V105.49H354.736ZM351.827 103.012H352.706V112.698C352.706 113.172 352.765 113.532 352.882 113.779C353.005 114.019 353.166 114.18 353.365 114.262C353.564 114.344 353.778 114.385 354.007 114.385C354.171 114.385 354.323 114.376 354.464 114.359C354.61 114.341 354.751 114.321 354.886 114.297L354.938 115.044C354.81 115.085 354.643 115.117 354.438 115.141C354.232 115.164 354.039 115.176 353.857 115.176C353.453 115.176 353.099 115.103 352.794 114.956C352.489 114.804 352.252 114.549 352.082 114.192C351.912 113.828 351.827 113.33 351.827 112.698V103.012ZM357.883 101.5V115H357.013V101.5H357.883ZM357.698 109.586L357.303 109.243C357.344 108.716 357.461 108.215 357.654 107.74C357.848 107.266 358.108 106.847 358.437 106.484C358.765 106.12 359.151 105.836 359.597 105.631C360.042 105.42 360.531 105.315 361.064 105.315C361.539 105.315 361.964 105.379 362.339 105.508C362.714 105.637 363.03 105.842 363.288 106.123C363.552 106.405 363.751 106.768 363.886 107.213C364.026 107.653 364.097 108.189 364.097 108.822V115H363.227V108.813C363.227 108.11 363.127 107.562 362.928 107.169C362.734 106.777 362.462 106.498 362.11 106.334C361.765 106.17 361.354 106.088 360.88 106.088C360.347 106.088 359.884 106.205 359.491 106.44C359.099 106.674 358.771 106.973 358.507 107.336C358.249 107.699 358.053 108.083 357.918 108.488C357.783 108.886 357.71 109.252 357.698 109.586ZM374.125 114.06L377.192 105.49H378.133L374.046 116.547C373.964 116.758 373.861 116.992 373.738 117.25C373.621 117.514 373.463 117.766 373.264 118.006C373.07 118.252 372.824 118.451 372.525 118.604C372.232 118.762 371.869 118.841 371.436 118.841C371.33 118.841 371.192 118.829 371.022 118.806C370.853 118.782 370.732 118.756 370.662 118.727L370.653 117.989C370.724 118.006 370.823 118.021 370.952 118.032C371.081 118.044 371.172 118.05 371.225 118.05C371.605 118.05 371.925 117.98 372.183 117.839C372.446 117.698 372.666 117.496 372.842 117.233C373.018 116.969 373.173 116.65 373.308 116.275L374.125 114.06ZM371.102 105.49L374.31 113.902L374.556 114.798L373.905 115.185L370.152 105.49H371.102ZM379.073 110.404V110.087C379.073 109.396 379.173 108.76 379.372 108.18C379.571 107.594 379.855 107.087 380.225 106.659C380.594 106.232 381.036 105.901 381.552 105.666C382.073 105.432 382.65 105.315 383.283 105.315C383.922 105.315 384.499 105.432 385.015 105.666C385.536 105.901 385.981 106.232 386.351 106.659C386.726 107.087 387.013 107.594 387.212 108.18C387.411 108.76 387.511 109.396 387.511 110.087V110.404C387.511 111.095 387.411 111.734 387.212 112.32C387.013 112.9 386.726 113.404 386.351 113.831C385.981 114.259 385.539 114.59 385.023 114.824C384.508 115.059 383.934 115.176 383.301 115.176C382.662 115.176 382.082 115.059 381.561 114.824C381.045 114.59 380.6 114.259 380.225 113.831C379.855 113.404 379.571 112.9 379.372 112.32C379.173 111.734 379.073 111.095 379.073 110.404ZM379.935 110.087V110.404C379.935 110.937 380.008 111.447 380.154 111.933C380.307 112.413 380.523 112.841 380.805 113.216C381.092 113.585 381.443 113.878 381.859 114.095C382.281 114.306 382.762 114.411 383.301 114.411C383.834 114.411 384.306 114.306 384.716 114.095C385.132 113.878 385.48 113.585 385.762 113.216C386.049 112.841 386.266 112.413 386.412 111.933C386.564 111.447 386.641 110.937 386.641 110.404V110.087C386.641 109.566 386.564 109.065 386.412 108.584C386.266 108.104 386.049 107.676 385.762 107.301C385.475 106.926 385.123 106.63 384.707 106.413C384.291 106.191 383.816 106.079 383.283 106.079C382.75 106.079 382.275 106.191 381.859 106.413C381.443 106.63 381.092 106.926 380.805 107.301C380.518 107.676 380.301 108.104 380.154 108.584C380.008 109.065 379.935 109.566 379.935 110.087ZM395.913 112.803V105.49H396.792V115H395.939L395.913 112.803ZM396.071 111.115L396.563 111.098C396.563 111.684 396.493 112.226 396.353 112.724C396.212 113.216 395.989 113.647 395.685 114.016C395.386 114.385 394.999 114.672 394.524 114.877C394.05 115.076 393.481 115.176 392.819 115.176C392.356 115.176 391.932 115.112 391.545 114.983C391.164 114.848 390.833 114.637 390.552 114.35C390.276 114.063 390.062 113.691 389.91 113.234C389.764 112.771 389.69 112.214 389.69 111.564V105.49H390.561V111.581C390.561 112.109 390.619 112.554 390.736 112.917C390.859 113.275 391.026 113.562 391.237 113.779C391.454 113.995 391.703 114.154 391.984 114.253C392.266 114.347 392.57 114.394 392.898 114.394C393.695 114.394 394.325 114.241 394.788 113.937C395.251 113.626 395.579 113.222 395.772 112.724C395.972 112.22 396.071 111.684 396.071 111.115ZM400.475 107.09V115H399.604V105.49H400.457L400.475 107.09ZM403.973 105.42L403.938 106.211C403.826 106.194 403.715 106.182 403.604 106.176C403.498 106.164 403.384 106.158 403.261 106.158C402.78 106.158 402.358 106.249 401.995 106.431C401.632 106.613 401.327 106.865 401.081 107.187C400.841 107.509 400.656 107.884 400.527 108.312C400.404 108.734 400.337 109.191 400.325 109.683L399.965 109.788C399.965 109.15 400.029 108.561 400.158 108.022C400.293 107.477 400.498 107.002 400.773 106.598C401.049 106.194 401.395 105.88 401.811 105.657C402.227 105.429 402.719 105.315 403.287 105.315C403.422 105.315 403.551 105.326 403.674 105.35C403.803 105.367 403.902 105.391 403.973 105.42ZM418.316 111.028H419.204C419.116 111.912 418.876 112.662 418.483 113.278C418.097 113.893 417.572 114.365 416.91 114.693C416.248 115.015 415.46 115.176 414.546 115.176C413.825 115.176 413.172 115.041 412.586 114.772C412.006 114.496 411.505 114.107 411.083 113.603C410.667 113.093 410.348 112.487 410.125 111.783C409.902 111.08 409.791 110.304 409.791 109.454V107.758C409.791 106.897 409.902 106.117 410.125 105.42C410.348 104.717 410.67 104.114 411.092 103.61C411.514 103.1 412.018 102.71 412.604 102.441C413.195 102.165 413.86 102.028 414.599 102.028C415.489 102.028 416.263 102.189 416.919 102.511C417.581 102.833 418.105 103.302 418.492 103.917C418.879 104.532 419.116 105.285 419.204 106.176H418.316C418.229 105.455 418.035 104.846 417.736 104.348C417.443 103.85 417.036 103.469 416.515 103.205C415.993 102.942 415.354 102.81 414.599 102.81C413.995 102.81 413.45 102.927 412.964 103.161C412.483 103.396 412.073 103.73 411.733 104.163C411.394 104.597 411.133 105.115 410.951 105.719C410.77 106.323 410.679 106.996 410.679 107.74V109.454C410.679 110.175 410.767 110.84 410.942 111.449C411.118 112.053 411.373 112.574 411.707 113.014C412.041 113.453 412.445 113.793 412.92 114.033C413.4 114.274 413.942 114.394 414.546 114.394C415.313 114.394 415.961 114.271 416.488 114.025C417.016 113.779 417.429 113.406 417.728 112.908C418.032 112.41 418.229 111.783 418.316 111.028ZM421.92 102.203H426.051C426.918 102.203 427.674 102.347 428.318 102.634C428.963 102.921 429.461 103.343 429.812 103.9C430.17 104.456 430.349 105.139 430.349 105.948C430.349 106.557 430.22 107.111 429.962 107.609C429.704 108.101 429.35 108.511 428.898 108.839C428.453 109.161 427.943 109.378 427.369 109.49L427.026 109.621H422.438L422.421 108.839H426.358C427.044 108.839 427.615 108.704 428.072 108.435C428.535 108.159 428.881 107.802 429.109 107.363C429.344 106.917 429.461 106.446 429.461 105.948C429.461 105.332 429.326 104.805 429.057 104.365C428.793 103.926 428.406 103.586 427.896 103.346C427.387 103.106 426.771 102.986 426.051 102.986H422.816V115H421.92V102.203ZM429.953 115L426.578 109.305L427.545 109.287L430.902 114.886V115H429.953ZM433.776 102.203H434.69L439.586 113.735L444.499 102.203H445.404L439.929 115H439.243L433.776 102.203ZM433.495 102.203H434.304L434.383 109.226V115H433.495V102.203ZM444.886 102.203H445.694V115H444.807V109.226L444.886 102.203ZM449.658 113.418V114.631C449.658 115.17 449.556 115.674 449.351 116.143C449.146 116.617 448.87 117.019 448.524 117.347L447.997 116.943C448.173 116.708 448.322 116.471 448.445 116.231C448.568 115.996 448.659 115.75 448.718 115.492C448.776 115.235 448.806 114.953 448.806 114.649V113.418H449.658ZM464.881 111.028H465.769C465.681 111.912 465.44 112.662 465.048 113.278C464.661 113.893 464.137 114.365 463.475 114.693C462.812 115.015 462.024 115.176 461.11 115.176C460.39 115.176 459.736 115.041 459.15 114.772C458.57 114.496 458.069 114.107 457.647 113.603C457.231 113.093 456.912 112.487 456.689 111.783C456.467 111.08 456.355 110.304 456.355 109.454V107.758C456.355 106.897 456.467 106.117 456.689 105.42C456.912 104.717 457.234 104.114 457.656 103.61C458.078 103.1 458.582 102.71 459.168 102.441C459.76 102.165 460.425 102.028 461.163 102.028C462.054 102.028 462.827 102.189 463.483 102.511C464.146 102.833 464.67 103.302 465.057 103.917C465.443 104.532 465.681 105.285 465.769 106.176H464.881C464.793 105.455 464.6 104.846 464.301 104.348C464.008 103.85 463.601 103.469 463.079 103.205C462.558 102.942 461.919 102.81 461.163 102.81C460.56 102.81 460.015 102.927 459.528 103.161C459.048 103.396 458.638 103.73 458.298 104.163C457.958 104.597 457.697 105.115 457.516 105.719C457.334 106.323 457.243 106.996 457.243 107.74V109.454C457.243 110.175 457.331 110.84 457.507 111.449C457.683 112.053 457.938 112.574 458.271 113.014C458.605 113.453 459.01 113.793 459.484 114.033C459.965 114.274 460.507 114.394 461.11 114.394C461.878 114.394 462.525 114.271 463.053 114.025C463.58 113.779 463.993 113.406 464.292 112.908C464.597 112.41 464.793 111.783 464.881 111.028ZM472.026 115H469.064L469.082 114.218H472.026C472.946 114.218 473.749 114.007 474.435 113.585C475.12 113.163 475.653 112.58 476.034 111.836C476.415 111.092 476.605 110.231 476.605 109.252V107.934C476.605 107.196 476.494 106.525 476.271 105.921C476.055 105.312 475.744 104.79 475.34 104.357C474.941 103.917 474.464 103.58 473.907 103.346C473.356 103.106 472.747 102.986 472.079 102.986H469.012V102.203H472.079C472.864 102.203 473.585 102.341 474.241 102.616C474.903 102.886 475.478 103.276 475.964 103.785C476.45 104.289 476.825 104.896 477.089 105.605C477.353 106.308 477.484 107.093 477.484 107.96V109.252C477.484 110.114 477.353 110.899 477.089 111.608C476.825 112.311 476.447 112.917 475.955 113.427C475.469 113.931 474.892 114.321 474.224 114.596C473.562 114.865 472.829 115 472.026 115ZM469.407 102.203V115H468.511V102.203H469.407ZM484.551 109.727H480.824V108.945H484.551C485.348 108.945 485.992 108.816 486.484 108.558C486.982 108.294 487.346 107.943 487.574 107.503C487.803 107.058 487.917 106.56 487.917 106.009C487.917 105.464 487.803 104.963 487.574 104.506C487.346 104.049 486.982 103.683 486.484 103.407C485.992 103.126 485.348 102.986 484.551 102.986H481.202V115H480.306V102.203H484.551C485.482 102.203 486.262 102.365 486.889 102.687C487.521 103.003 487.999 103.446 488.321 104.014C488.644 104.582 488.805 105.241 488.805 105.991C488.805 106.771 488.644 107.439 488.321 107.995C488.005 108.552 487.53 108.98 486.897 109.279C486.265 109.577 485.482 109.727 484.551 109.727ZM489.086 113.418V114.631C489.086 115.17 488.983 115.674 488.778 116.143C488.573 116.617 488.298 117.019 487.952 117.347L487.425 116.943C487.601 116.708 487.75 116.471 487.873 116.231C487.996 115.996 488.087 115.75 488.146 115.492C488.204 115.235 488.233 114.953 488.233 114.649V113.418H489.086ZM495.388 110.404V110.087C495.388 109.396 495.487 108.76 495.687 108.18C495.886 107.594 496.17 107.087 496.539 106.659C496.908 106.232 497.351 105.901 497.866 105.666C498.388 105.432 498.965 105.315 499.598 105.315C500.236 105.315 500.813 105.432 501.329 105.666C501.851 105.901 502.296 106.232 502.665 106.659C503.04 107.087 503.327 107.594 503.526 108.18C503.726 108.76 503.825 109.396 503.825 110.087V110.404C503.825 111.095 503.726 111.734 503.526 112.32C503.327 112.9 503.04 113.404 502.665 113.831C502.296 114.259 501.854 114.59 501.338 114.824C500.822 115.059 500.248 115.176 499.615 115.176C498.977 115.176 498.396 115.059 497.875 114.824C497.359 114.59 496.914 114.259 496.539 113.831C496.17 113.404 495.886 112.9 495.687 112.32C495.487 111.734 495.388 111.095 495.388 110.404ZM496.249 110.087V110.404C496.249 110.937 496.322 111.447 496.469 111.933C496.621 112.413 496.838 112.841 497.119 113.216C497.406 113.585 497.758 113.878 498.174 114.095C498.596 114.306 499.076 114.411 499.615 114.411C500.148 114.411 500.62 114.306 501.03 114.095C501.446 113.878 501.795 113.585 502.076 113.216C502.363 112.841 502.58 112.413 502.727 111.933C502.879 111.447 502.955 110.937 502.955 110.404V110.087C502.955 109.566 502.879 109.065 502.727 108.584C502.58 108.104 502.363 107.676 502.076 107.301C501.789 106.926 501.438 106.63 501.021 106.413C500.605 106.191 500.131 106.079 499.598 106.079C499.064 106.079 498.59 106.191 498.174 106.413C497.758 106.63 497.406 106.926 497.119 107.301C496.832 107.676 496.615 108.104 496.469 108.584C496.322 109.065 496.249 109.566 496.249 110.087ZM506.91 107.09V115H506.04V105.49H506.893L506.91 107.09ZM510.408 105.42L510.373 106.211C510.262 106.194 510.15 106.182 510.039 106.176C509.934 106.164 509.819 106.158 509.696 106.158C509.216 106.158 508.794 106.249 508.431 106.431C508.067 106.613 507.763 106.865 507.517 107.187C507.276 107.509 507.092 107.884 506.963 108.312C506.84 108.734 506.772 109.191 506.761 109.683L506.4 109.788C506.4 109.15 506.465 108.561 506.594 108.022C506.729 107.477 506.934 107.002 507.209 106.598C507.484 106.194 507.83 105.88 508.246 105.657C508.662 105.429 509.154 105.315 509.723 105.315C509.857 105.315 509.986 105.326 510.109 105.35C510.238 105.367 510.338 105.391 510.408 105.42ZM522.203 112.601C522.203 112.337 522.133 112.073 521.992 111.81C521.852 111.54 521.591 111.294 521.21 111.072C520.829 110.843 520.272 110.653 519.54 110.5C519.013 110.383 518.544 110.254 518.134 110.114C517.724 109.967 517.378 109.791 517.097 109.586C516.821 109.381 516.61 109.138 516.464 108.857C516.323 108.57 516.253 108.233 516.253 107.846C516.253 107.494 516.329 107.166 516.481 106.862C516.634 106.557 516.854 106.29 517.141 106.062C517.428 105.827 517.773 105.646 518.178 105.517C518.588 105.382 519.048 105.315 519.558 105.315C520.284 105.315 520.905 105.438 521.421 105.684C521.937 105.924 522.332 106.255 522.607 106.677C522.889 107.099 523.029 107.579 523.029 108.118H522.159C522.159 107.767 522.057 107.439 521.852 107.134C521.652 106.823 521.359 106.572 520.973 106.378C520.586 106.179 520.114 106.079 519.558 106.079C518.978 106.079 518.509 106.167 518.151 106.343C517.794 106.519 517.533 106.739 517.369 107.002C517.205 107.266 517.123 107.538 517.123 107.82C517.123 108.042 517.155 108.244 517.22 108.426C517.29 108.608 517.419 108.778 517.606 108.936C517.794 109.094 518.061 109.243 518.406 109.384C518.758 109.519 519.212 109.651 519.769 109.78C520.536 109.949 521.16 110.157 521.641 110.404C522.127 110.644 522.484 110.94 522.713 111.291C522.947 111.643 523.064 112.068 523.064 112.566C523.064 112.952 522.982 113.307 522.818 113.629C522.66 113.946 522.429 114.221 522.124 114.455C521.825 114.684 521.462 114.863 521.034 114.991C520.612 115.115 520.141 115.176 519.619 115.176C518.822 115.176 518.151 115.047 517.606 114.789C517.062 114.531 516.648 114.192 516.367 113.77C516.086 113.348 515.945 112.894 515.945 112.407H516.815C516.851 112.917 517.012 113.319 517.299 113.612C517.592 113.905 517.946 114.113 518.362 114.236C518.784 114.353 519.203 114.411 519.619 114.411C520.182 114.411 520.653 114.326 521.034 114.156C521.421 113.981 521.711 113.755 521.904 113.48C522.104 113.204 522.203 112.911 522.203 112.601ZM531.704 112.803V105.49H532.583V115H531.73L531.704 112.803ZM531.862 111.115L532.354 111.098C532.354 111.684 532.284 112.226 532.144 112.724C532.003 113.216 531.78 113.647 531.476 114.016C531.177 114.385 530.79 114.672 530.315 114.877C529.841 115.076 529.272 115.176 528.61 115.176C528.147 115.176 527.723 115.112 527.336 114.983C526.955 114.848 526.624 114.637 526.343 114.35C526.067 114.063 525.854 113.691 525.701 113.234C525.555 112.771 525.481 112.214 525.481 111.564V105.49H526.352V111.581C526.352 112.109 526.41 112.554 526.527 112.917C526.65 113.275 526.817 113.562 527.028 113.779C527.245 113.995 527.494 114.154 527.775 114.253C528.057 114.347 528.361 114.394 528.689 114.394C529.486 114.394 530.116 114.241 530.579 113.937C531.042 113.626 531.37 113.222 531.563 112.724C531.763 112.22 531.862 111.684 531.862 111.115ZM536.257 107.319V118.656H535.387V105.49H536.204L536.257 107.319ZM542.928 110.157V110.342C542.928 111.057 542.846 111.71 542.682 112.302C542.523 112.888 542.289 113.398 541.979 113.831C541.674 114.259 541.296 114.59 540.845 114.824C540.399 115.059 539.89 115.176 539.315 115.176C538.759 115.176 538.261 115.094 537.821 114.93C537.382 114.76 537.004 114.523 536.688 114.218C536.371 113.907 536.116 113.547 535.923 113.137C535.729 112.727 535.598 112.284 535.527 111.81V108.927C535.621 108.394 535.768 107.907 535.967 107.468C536.166 107.029 536.421 106.648 536.731 106.325C537.042 106.003 537.411 105.754 537.839 105.578C538.267 105.403 538.753 105.315 539.298 105.315C539.872 105.315 540.385 105.429 540.836 105.657C541.287 105.88 541.668 106.202 541.979 106.624C542.289 107.046 542.523 107.556 542.682 108.154C542.846 108.745 542.928 109.413 542.928 110.157ZM542.049 110.342V110.157C542.049 109.577 541.99 109.041 541.873 108.549C541.756 108.057 541.577 107.629 541.337 107.266C541.103 106.897 540.801 106.61 540.432 106.405C540.068 106.199 539.638 106.097 539.14 106.097C538.606 106.097 538.152 106.185 537.777 106.361C537.408 106.536 537.104 106.768 536.863 107.055C536.629 107.336 536.441 107.641 536.301 107.969C536.166 108.297 536.066 108.614 536.002 108.918V111.889C536.113 112.346 536.298 112.765 536.556 113.146C536.813 113.527 537.156 113.834 537.584 114.069C538.018 114.297 538.542 114.411 539.157 114.411C539.649 114.411 540.077 114.309 540.44 114.104C540.804 113.893 541.103 113.606 541.337 113.242C541.577 112.873 541.756 112.443 541.873 111.95C541.99 111.452 542.049 110.916 542.049 110.342ZM546.206 107.319V118.656H545.336V105.49H546.153L546.206 107.319ZM552.877 110.157V110.342C552.877 111.057 552.795 111.71 552.631 112.302C552.473 112.888 552.238 113.398 551.928 113.831C551.623 114.259 551.245 114.59 550.794 114.824C550.349 115.059 549.839 115.176 549.265 115.176C548.708 115.176 548.21 115.094 547.771 114.93C547.331 114.76 546.953 114.523 546.637 114.218C546.32 113.907 546.065 113.547 545.872 113.137C545.679 112.727 545.547 112.284 545.477 111.81V108.927C545.57 108.394 545.717 107.907 545.916 107.468C546.115 107.029 546.37 106.648 546.681 106.325C546.991 106.003 547.36 105.754 547.788 105.578C548.216 105.403 548.702 105.315 549.247 105.315C549.821 105.315 550.334 105.429 550.785 105.657C551.236 105.88 551.617 106.202 551.928 106.624C552.238 107.046 552.473 107.556 552.631 108.154C552.795 108.745 552.877 109.413 552.877 110.157ZM551.998 110.342V110.157C551.998 109.577 551.939 109.041 551.822 108.549C551.705 108.057 551.526 107.629 551.286 107.266C551.052 106.897 550.75 106.61 550.381 106.405C550.018 106.199 549.587 106.097 549.089 106.097C548.556 106.097 548.102 106.185 547.727 106.361C547.357 106.536 547.053 106.768 546.812 107.055C546.578 107.336 546.391 107.641 546.25 107.969C546.115 108.297 546.016 108.614 545.951 108.918V111.889C546.062 112.346 546.247 112.765 546.505 113.146C546.763 113.527 547.105 113.834 547.533 114.069C547.967 114.297 548.491 114.411 549.106 114.411C549.599 114.411 550.026 114.309 550.39 114.104C550.753 113.893 551.052 113.606 551.286 113.242C551.526 112.873 551.705 112.443 551.822 111.95C551.939 111.452 551.998 110.916 551.998 110.342ZM554.679 110.404V110.087C554.679 109.396 554.778 108.76 554.978 108.18C555.177 107.594 555.461 107.087 555.83 106.659C556.199 106.232 556.642 105.901 557.157 105.666C557.679 105.432 558.256 105.315 558.889 105.315C559.527 105.315 560.104 105.432 560.62 105.666C561.142 105.901 561.587 106.232 561.956 106.659C562.331 107.087 562.618 107.594 562.817 108.18C563.017 108.76 563.116 109.396 563.116 110.087V110.404C563.116 111.095 563.017 111.734 562.817 112.32C562.618 112.9 562.331 113.404 561.956 113.831C561.587 114.259 561.145 114.59 560.629 114.824C560.113 115.059 559.539 115.176 558.906 115.176C558.268 115.176 557.688 115.059 557.166 114.824C556.65 114.59 556.205 114.259 555.83 113.831C555.461 113.404 555.177 112.9 554.978 112.32C554.778 111.734 554.679 111.095 554.679 110.404ZM555.54 110.087V110.404C555.54 110.937 555.613 111.447 555.76 111.933C555.912 112.413 556.129 112.841 556.41 113.216C556.697 113.585 557.049 113.878 557.465 114.095C557.887 114.306 558.367 114.411 558.906 114.411C559.439 114.411 559.911 114.306 560.321 114.095C560.737 113.878 561.086 113.585 561.367 113.216C561.654 112.841 561.871 112.413 562.018 111.933C562.17 111.447 562.246 110.937 562.246 110.404V110.087C562.246 109.566 562.17 109.065 562.018 108.584C561.871 108.104 561.654 107.676 561.367 107.301C561.08 106.926 560.729 106.63 560.312 106.413C559.896 106.191 559.422 106.079 558.889 106.079C558.355 106.079 557.881 106.191 557.465 106.413C557.049 106.63 556.697 106.926 556.41 107.301C556.123 107.676 555.906 108.104 555.76 108.584C555.613 109.065 555.54 109.566 555.54 110.087ZM566.201 107.09V115H565.331V105.49H566.184L566.201 107.09ZM569.699 105.42L569.664 106.211C569.553 106.194 569.441 106.182 569.33 106.176C569.225 106.164 569.11 106.158 568.987 106.158C568.507 106.158 568.085 106.249 567.722 106.431C567.358 106.613 567.054 106.865 566.808 107.187C566.567 107.509 566.383 107.884 566.254 108.312C566.131 108.734 566.063 109.191 566.052 109.683L565.691 109.788C565.691 109.15 565.756 108.561 565.885 108.022C566.02 107.477 566.225 107.002 566.5 106.598C566.775 106.194 567.121 105.88 567.537 105.657C567.953 105.429 568.445 105.315 569.014 105.315C569.148 105.315 569.277 105.326 569.4 105.35C569.529 105.367 569.629 105.391 569.699 105.42ZM575.307 105.49V106.238H570.648V105.49H575.307ZM572.397 103.012H573.276V112.698C573.276 113.172 573.335 113.532 573.452 113.779C573.575 114.019 573.736 114.18 573.936 114.262C574.135 114.344 574.349 114.385 574.577 114.385C574.741 114.385 574.894 114.376 575.034 114.359C575.181 114.341 575.321 114.321 575.456 114.297L575.509 115.044C575.38 115.085 575.213 115.117 575.008 115.141C574.803 115.164 574.609 115.176 574.428 115.176C574.023 115.176 573.669 115.103 573.364 114.956C573.06 114.804 572.822 114.549 572.652 114.192C572.482 113.828 572.397 113.33 572.397 112.698V103.012ZM587.699 112.601C587.699 112.337 587.629 112.073 587.488 111.81C587.348 111.54 587.087 111.294 586.706 111.072C586.325 110.843 585.769 110.653 585.036 110.5C584.509 110.383 584.04 110.254 583.63 110.114C583.22 109.967 582.874 109.791 582.593 109.586C582.317 109.381 582.106 109.138 581.96 108.857C581.819 108.57 581.749 108.233 581.749 107.846C581.749 107.494 581.825 107.166 581.978 106.862C582.13 106.557 582.35 106.29 582.637 106.062C582.924 105.827 583.27 105.646 583.674 105.517C584.084 105.382 584.544 105.315 585.054 105.315C585.78 105.315 586.401 105.438 586.917 105.684C587.433 105.924 587.828 106.255 588.104 106.677C588.385 107.099 588.525 107.579 588.525 108.118H587.655C587.655 107.767 587.553 107.439 587.348 107.134C587.148 106.823 586.855 106.572 586.469 106.378C586.082 106.179 585.61 106.079 585.054 106.079C584.474 106.079 584.005 106.167 583.647 106.343C583.29 106.519 583.029 106.739 582.865 107.002C582.701 107.266 582.619 107.538 582.619 107.82C582.619 108.042 582.651 108.244 582.716 108.426C582.786 108.608 582.915 108.778 583.103 108.936C583.29 109.094 583.557 109.243 583.902 109.384C584.254 109.519 584.708 109.651 585.265 109.78C586.032 109.949 586.656 110.157 587.137 110.404C587.623 110.644 587.98 110.94 588.209 111.291C588.443 111.643 588.561 112.068 588.561 112.566C588.561 112.952 588.479 113.307 588.314 113.629C588.156 113.946 587.925 114.221 587.62 114.455C587.321 114.684 586.958 114.863 586.53 114.991C586.108 115.115 585.637 115.176 585.115 115.176C584.318 115.176 583.647 115.047 583.103 114.789C582.558 114.531 582.145 114.192 581.863 113.77C581.582 113.348 581.441 112.894 581.441 112.407H582.312C582.347 112.917 582.508 113.319 582.795 113.612C583.088 113.905 583.442 114.113 583.858 114.236C584.28 114.353 584.699 114.411 585.115 114.411C585.678 114.411 586.149 114.326 586.53 114.156C586.917 113.981 587.207 113.755 587.4 113.48C587.6 113.204 587.699 112.911 587.699 112.601ZM594.502 105.49V106.238H589.844V105.49H594.502ZM591.593 103.012H592.472V112.698C592.472 113.172 592.53 113.532 592.647 113.779C592.771 114.019 592.932 114.18 593.131 114.262C593.33 114.344 593.544 114.385 593.772 114.385C593.937 114.385 594.089 114.376 594.229 114.359C594.376 114.341 594.517 114.321 594.651 114.297L594.704 115.044C594.575 115.085 594.408 115.117 594.203 115.141C593.998 115.164 593.805 115.176 593.623 115.176C593.219 115.176 592.864 115.103 592.56 114.956C592.255 114.804 592.018 114.549 591.848 114.192C591.678 113.828 591.593 113.33 591.593 112.698V103.012ZM602.623 113.269V108.365C602.623 107.89 602.523 107.483 602.324 107.143C602.125 106.797 601.832 106.533 601.445 106.352C601.064 106.164 600.593 106.071 600.03 106.071C599.515 106.071 599.052 106.161 598.642 106.343C598.237 106.525 597.915 106.771 597.675 107.081C597.44 107.392 597.323 107.738 597.323 108.118L596.462 108.101C596.462 107.743 596.547 107.398 596.717 107.064C596.893 106.73 597.139 106.431 597.455 106.167C597.777 105.904 598.158 105.696 598.598 105.543C599.043 105.391 599.532 105.315 600.065 105.315C600.739 105.315 601.331 105.429 601.841 105.657C602.356 105.88 602.761 106.22 603.054 106.677C603.347 107.128 603.493 107.697 603.493 108.382V113.031C603.493 113.36 603.517 113.699 603.563 114.051C603.61 114.403 603.681 114.687 603.774 114.904V115H602.834C602.764 114.783 602.711 114.517 602.676 114.2C602.641 113.878 602.623 113.568 602.623 113.269ZM602.86 109.533L602.878 110.245H600.689C600.121 110.245 599.614 110.298 599.169 110.404C598.729 110.503 598.354 110.65 598.044 110.843C597.739 111.036 597.505 111.271 597.341 111.546C597.177 111.816 597.095 112.12 597.095 112.46C597.095 112.812 597.186 113.134 597.367 113.427C597.549 113.72 597.807 113.954 598.141 114.13C598.48 114.3 598.876 114.385 599.327 114.385C599.937 114.385 600.476 114.277 600.944 114.06C601.419 113.843 601.812 113.553 602.122 113.19C602.433 112.821 602.652 112.407 602.781 111.95L603.159 112.504C603.071 112.803 602.925 113.111 602.72 113.427C602.515 113.738 602.248 114.025 601.92 114.288C601.592 114.552 601.205 114.766 600.76 114.93C600.32 115.094 599.816 115.176 599.248 115.176C598.639 115.176 598.105 115.062 597.648 114.833C597.197 114.599 596.846 114.282 596.594 113.884C596.348 113.48 596.225 113.023 596.225 112.513C596.225 112.062 596.324 111.655 596.523 111.291C596.723 110.922 597.01 110.609 597.385 110.351C597.76 110.087 598.217 109.885 598.756 109.744C599.295 109.604 599.901 109.533 600.575 109.533H602.86ZM609.804 114.411C610.261 114.411 610.691 114.326 611.096 114.156C611.506 113.981 611.846 113.72 612.115 113.374C612.391 113.029 612.546 112.595 612.581 112.073H613.416C613.387 112.689 613.205 113.231 612.871 113.699C612.537 114.168 612.101 114.531 611.562 114.789C611.028 115.047 610.442 115.176 609.804 115.176C609.153 115.176 608.579 115.059 608.081 114.824C607.583 114.584 607.164 114.25 606.824 113.823C606.49 113.395 606.235 112.894 606.06 112.32C605.89 111.74 605.805 111.11 605.805 110.43V110.061C605.805 109.381 605.89 108.754 606.06 108.18C606.235 107.6 606.49 107.096 606.824 106.668C607.164 106.24 607.58 105.909 608.072 105.675C608.57 105.435 609.145 105.315 609.795 105.315C610.451 105.315 611.046 105.449 611.579 105.719C612.118 105.983 612.552 106.366 612.88 106.87C613.208 107.368 613.387 107.969 613.416 108.672H612.581C612.552 108.121 612.408 107.656 612.15 107.275C611.893 106.888 611.559 106.592 611.148 106.387C610.738 106.182 610.287 106.079 609.795 106.079C609.238 106.079 608.761 106.188 608.362 106.405C607.97 106.615 607.647 106.908 607.396 107.283C607.149 107.653 606.965 108.074 606.842 108.549C606.725 109.024 606.666 109.528 606.666 110.061V110.43C606.666 110.963 606.725 111.47 606.842 111.95C606.959 112.425 607.144 112.847 607.396 113.216C607.647 113.585 607.973 113.878 608.371 114.095C608.77 114.306 609.247 114.411 609.804 114.411ZM616.475 101.5V115H615.604V101.5H616.475ZM622.495 105.49L617.951 109.894L616.193 111.546L616.035 110.729L617.512 109.191L621.37 105.49H622.495ZM621.757 115L617.608 109.929L618.101 109.191L622.82 115H621.757Z" fill="white"/>
<mask id="path-7-outside-1_448_2362" maskUnits="userSpaceOnUse" x="0" y="47.0002" width="62" height="83" fill="black">
<rect fill="white" y="47.0002" width="62" height="83"/>
<path d="M56.5 112.305V125H6.89062V114.258L29.7422 90.2346C31.7604 87.9234 33.388 85.8564 34.625 84.0334C35.862 82.178 36.7572 80.5015 37.3105 79.0042C37.8965 77.5068 38.1895 76.1558 38.1895 74.9514C38.1895 72.9006 37.8802 71.1917 37.2617 69.8245C36.6758 68.4247 35.7969 67.3668 34.625 66.6506C33.4857 65.9345 32.0697 65.5764 30.377 65.5764C28.6842 65.5764 27.2031 66.0647 25.9336 67.0413C24.6641 68.0178 23.6712 69.3525 22.9551 71.0452C22.2715 72.7379 21.9297 74.6422 21.9297 76.7581H5.42578C5.42578 72.3961 6.48372 68.4084 8.59961 64.7952C10.748 61.1819 13.7266 58.301 17.5352 56.1526C21.3438 53.9716 25.7546 52.8811 30.7676 52.8811C36.0085 52.8811 40.403 53.6949 43.9512 55.3225C47.4993 56.9501 50.1686 59.3101 51.959 62.4026C53.7819 65.4625 54.6934 69.1571 54.6934 73.4866C54.6934 75.9605 54.3027 78.3368 53.5215 80.6155C52.7402 82.8941 51.6172 85.1565 50.1523 87.4026C48.6875 89.6161 46.8971 91.8948 44.7812 94.2385C42.6979 96.5823 40.3216 99.0725 37.6523 101.709L28.4727 112.305H56.5Z"/>
</mask>
<path d="M56.5 112.305H61.5V107.305H56.5V112.305ZM56.5 125V130H61.5V125H56.5ZM6.89062 125H1.89062V130H6.89062V125ZM6.89062 114.258L3.26783 110.812L1.89062 112.26V114.258H6.89062ZM29.7422 90.2346L33.365 93.6807L33.4383 93.6036L33.5084 93.5234L29.7422 90.2346ZM34.625 84.0334L38.7624 86.841L38.7739 86.824L38.7853 86.8069L34.625 84.0334ZM37.3105 79.0042L32.6543 77.1822L32.637 77.2264L32.6206 77.2709L37.3105 79.0042ZM37.2617 69.8245L32.6495 71.7552L32.6769 71.8206L32.7062 71.8853L37.2617 69.8245ZM34.625 66.6506L31.9641 70.8838L31.9908 70.9006L32.0177 70.917L34.625 66.6506ZM22.9551 71.0452L18.3502 69.097L18.3342 69.1348L18.3189 69.1729L22.9551 71.0452ZM21.9297 76.7581V81.7581H26.9297V76.7581H21.9297ZM5.42578 76.7581H0.425781V81.7581H5.42578V76.7581ZM8.59961 64.7952L4.30193 62.2398L4.29339 62.2541L4.28495 62.2686L8.59961 64.7952ZM17.5352 56.1526L19.9918 60.5075L20.0058 60.4995L20.0198 60.4915L17.5352 56.1526ZM51.959 62.4026L47.6319 64.9078L47.6475 64.9348L47.6635 64.9616L51.959 62.4026ZM50.1523 87.4026L54.322 90.1619L54.3312 90.148L54.3404 90.1339L50.1523 87.4026ZM44.7812 94.2385L41.0699 90.888L41.057 90.9023L41.0442 90.9167L44.7812 94.2385ZM37.6523 101.709L34.1386 98.1521L34.0004 98.2885L33.8733 98.4352L37.6523 101.709ZM28.4727 112.305L24.6936 109.031L17.5254 117.305H28.4727V112.305ZM56.5 112.305H51.5V125H56.5H61.5V112.305H56.5ZM56.5 125V120H6.89062V125V130H56.5V125ZM6.89062 125H11.8906V114.258H6.89062H1.89062V125H6.89062ZM6.89062 114.258L10.5134 117.704L33.365 93.6807L29.7422 90.2346L26.1194 86.7886L3.26783 110.812L6.89062 114.258ZM29.7422 90.2346L33.5084 93.5234C35.6124 91.1139 37.3771 88.8824 38.7624 86.841L34.625 84.0334L30.4876 81.2259C29.3989 82.8303 27.9084 84.733 25.976 86.9459L29.7422 90.2346ZM34.625 84.0334L38.7853 86.8069C40.1604 84.7443 41.2703 82.7134 42.0005 80.7374L37.3105 79.0042L32.6206 77.2709C32.2441 78.2897 31.5636 79.6117 30.4647 81.2599L34.625 84.0334ZM37.3105 79.0042L41.9668 80.8261C42.7082 78.9314 43.1895 76.9497 43.1895 74.9514H38.1895H33.1895C33.1895 75.362 33.0848 76.0821 32.6543 77.1822L37.3105 79.0042ZM38.1895 74.9514H43.1895C43.1895 72.4353 42.8153 69.9698 41.8173 67.7636L37.2617 69.8245L32.7062 71.8853C32.9451 72.4135 33.1895 73.366 33.1895 74.9514H38.1895ZM37.2617 69.8245L41.8739 67.8938C40.9266 65.6308 39.3954 63.7062 37.2323 62.3842L34.625 66.6506L32.0177 70.917C32.1983 71.0274 32.4249 71.2187 32.6495 71.7552L37.2617 69.8245ZM34.625 66.6506L37.2859 62.4175C35.1673 61.0858 32.7699 60.5764 30.377 60.5764V65.5764V70.5764C31.3695 70.5764 31.8041 70.7832 31.9641 70.8838L34.625 66.6506ZM30.377 65.5764V60.5764C27.6486 60.5764 25.0803 61.3894 22.885 63.0781L25.9336 67.0413L28.9821 71.0044C29.3259 70.7399 29.7199 70.5764 30.377 70.5764V65.5764ZM25.9336 67.0413L22.885 63.0781C20.8362 64.6542 19.3524 66.7283 18.3502 69.097L22.9551 71.0452L27.5599 72.9934C27.9901 71.9766 28.492 71.3814 28.9821 71.0044L25.9336 67.0413ZM22.9551 71.0452L18.3189 69.1729C17.3599 71.5473 16.9297 74.1013 16.9297 76.7581H21.9297H26.9297C26.9297 75.1831 27.183 73.9284 27.5913 72.9175L22.9551 71.0452ZM21.9297 76.7581V71.7581H5.42578V76.7581V81.7581H21.9297V76.7581ZM5.42578 76.7581H10.4258C10.4258 73.2455 11.2663 70.1359 12.9143 67.3218L8.59961 64.7952L4.28495 62.2686C1.70112 66.6809 0.425781 71.5466 0.425781 76.7581H5.42578ZM8.59961 64.7952L12.8973 67.3505C14.5813 64.5183 16.9116 62.245 19.9918 60.5075L17.5352 56.1526L15.0786 51.7977C10.5416 54.357 6.9148 57.8454 4.30193 62.2398L8.59961 64.7952ZM17.5352 56.1526L20.0198 60.4915C22.9698 58.8022 26.5004 57.8811 30.7676 57.8811V52.8811V47.8811C25.0087 47.8811 19.7177 49.141 15.0505 51.8137L17.5352 56.1526ZM30.7676 52.8811V57.8811C35.5227 57.8811 39.1559 58.6238 41.8665 59.8672L43.9512 55.3225L46.0359 50.7778C41.6501 48.766 36.4943 47.8811 30.7676 47.8811V52.8811ZM43.9512 55.3225L41.8665 59.8672C44.5655 61.1053 46.4081 62.794 47.6319 64.9078L51.959 62.4026L56.2861 59.8974C53.9291 55.8263 50.4332 52.795 46.0359 50.7778L43.9512 55.3225ZM51.959 62.4026L47.6635 64.9616C48.9352 67.0962 49.6934 69.8639 49.6934 73.4866H54.6934H59.6934C59.6934 68.4504 58.6286 63.8287 56.2545 59.8436L51.959 62.4026ZM54.6934 73.4866H49.6934C49.6934 75.4239 49.3892 77.2512 48.7918 78.9939L53.5215 80.6155L58.2512 82.2371C59.2162 79.4224 59.6934 76.4972 59.6934 73.4866H54.6934ZM53.5215 80.6155L48.7918 78.9939C48.1587 80.8404 47.2285 82.7327 45.9643 84.6712L50.1523 87.4026L54.3404 90.1339C56.0058 87.5802 57.3218 84.9478 58.2512 82.2371L53.5215 80.6155ZM50.1523 87.4026L45.9827 84.6433C44.6786 86.6139 43.0488 88.696 41.0699 90.888L44.7812 94.2385L48.4926 97.589C50.7454 95.0936 52.6964 92.6183 54.322 90.1619L50.1523 87.4026ZM44.7812 94.2385L41.0442 90.9167C39.045 93.1658 36.7453 95.5771 34.1386 98.1521L37.6523 101.709L41.1661 105.266C43.8979 102.568 46.3508 99.9988 48.5183 97.5603L44.7812 94.2385ZM37.6523 101.709L33.8733 98.4352L24.6936 109.031L28.4727 112.305L32.2517 115.579L41.4314 104.983L37.6523 101.709ZM28.4727 112.305V117.305H56.5V112.305V107.305H28.4727V112.305Z" fill="#1A5069" mask="url(#path-7-outside-1_448_2362)"/>
<defs>
<radialGradient id="paint0_radial_448_2362" cx="0" cy="0" r="1" gradientUnits="userSpaceOnUse" gradientTransform="translate(96.2629 367.631) scale(96.2629 367.631)">
<stop stop-color="#1A5069"/>
<stop offset="1" stop-color="#0F7BAE" stop-opacity="0"/>
</radialGradient>
<radialGradient id="paint1_radial_448_2362" cx="0" cy="0" r="1" gradientUnits="userSpaceOnUse" gradientTransform="translate(96.2629 367.631) scale(96.2629 367.631)">
<stop stop-color="#1A5069"/>
<stop offset="1" stop-color="#0F7BAE" stop-opacity="0"/>
</radialGradient>
</defs>
</svg>
