<svg width="795" height="180" viewBox="0 0 795 180" fill="none" xmlns="http://www.w3.org/2000/svg">
<mask id="mask0_448_2340" style="mask-type:alpha" maskUnits="userSpaceOnUse" x="68" y="0" width="727" height="180">
<rect x="-1.00159" y="0.995166" width="174.036" height="724.019" rx="87.0179" transform="matrix(-0.00160036 0.999999 -0.999988 -0.00483255 794.285 5.51011)" fill="black" stroke="#136A93" stroke-width="2"/>
</mask>
<g mask="url(#mask0_448_2340)">
<rect width="192.526" height="735.262" rx="47.5" transform="matrix(-0.00160036 0.999999 -0.999988 -0.00483255 1069.4 68.4429)" fill="url(#paint0_radial_448_2340)" fill-opacity="0.74"/>
<rect width="192.526" height="735.262" rx="47.5" transform="matrix(-0.00160036 0.999999 -0.999988 -0.00483255 528.426 -57.9541)" fill="url(#paint1_radial_448_2340)" fill-opacity="0.74"/>
</g>
<rect x="71.2891" y="1.54663" width="722.708" height="175.235" rx="87.6177" fill="#D9D9D9" fill-opacity="0.14" stroke="#136A93" stroke-width="2"/>
<path d="M326.344 70.8142H331.044C330.919 72.4776 330.457 73.953 329.66 75.2405C328.862 76.5165 327.751 77.5191 326.327 78.2483C324.903 78.9775 323.177 79.342 321.149 79.342C319.588 79.342 318.181 79.0686 316.928 78.5217C315.686 77.9635 314.621 77.1716 313.732 76.1462C312.855 75.1095 312.182 73.8676 311.715 72.4207C311.248 70.9623 311.015 69.3274 311.015 67.5159V65.6189C311.015 63.8074 311.254 62.1724 311.732 60.7141C312.211 59.2558 312.895 58.0139 313.783 56.9885C314.683 55.9517 315.76 55.1542 317.013 54.5959C318.278 54.0377 319.691 53.7585 321.251 53.7585C323.279 53.7585 324.994 54.1345 326.396 54.8865C327.797 55.627 328.885 56.6467 329.66 57.9456C330.434 59.2444 330.902 60.7369 331.061 62.4231H326.361C326.27 61.3749 326.042 60.4862 325.678 59.7571C325.325 59.0279 324.789 58.4753 324.071 58.0994C323.365 57.712 322.425 57.5183 321.251 57.5183C320.34 57.5183 319.537 57.6892 318.842 58.031C318.158 58.3728 317.589 58.8855 317.133 59.5691C316.677 60.2413 316.335 61.0844 316.107 62.0984C315.88 63.101 315.766 64.2631 315.766 65.5847V67.5159C315.766 68.7805 315.868 69.9141 316.073 70.9167C316.278 71.9194 316.597 72.7681 317.03 73.4631C317.463 74.1581 318.021 74.6879 318.705 75.0525C319.389 75.4171 320.203 75.5994 321.149 75.5994C322.3 75.5994 323.234 75.4171 323.952 75.0525C324.681 74.6879 325.233 74.1524 325.609 73.446C325.997 72.7397 326.242 71.8624 326.344 70.8142ZM338.177 54.1174L343.15 62.9871L348.14 54.1174H353.541L346.158 66.4563L353.729 79.0002H348.277L343.15 69.9597L338.04 79.0002H332.571L340.142 66.4563L332.759 54.1174H338.177ZM372.267 79.0002H366.9L366.935 75.3088H372.267C373.714 75.3088 374.927 74.9898 375.907 74.3518C376.887 73.7024 377.627 72.7738 378.128 71.5662C378.63 70.3471 378.88 68.8888 378.88 67.1912V65.9094C378.88 64.5992 378.738 63.4428 378.453 62.4402C378.168 61.4376 377.747 60.5945 377.188 59.9109C376.642 59.2273 375.964 58.7089 375.155 58.3557C374.346 58.0025 373.417 57.8259 372.369 57.8259H366.798V54.1174H372.369C374.033 54.1174 375.548 54.3966 376.915 54.9548C378.294 55.5131 379.484 56.3163 380.487 57.3645C381.501 58.4013 382.276 59.6431 382.811 61.0901C383.358 62.537 383.631 64.1549 383.631 65.9436V67.1912C383.631 68.9685 383.358 70.5863 382.811 72.0447C382.276 73.4916 381.501 74.7335 380.487 75.7703C379.484 76.807 378.288 77.6046 376.898 78.1628C375.508 78.7211 373.964 79.0002 372.267 79.0002ZM369.532 54.1174V79.0002H364.833V54.1174H369.532ZM391.824 60.509V79.0002H387.295V60.509H391.824ZM386.987 55.6726C386.987 55.0004 387.215 54.4421 387.671 53.9978C388.138 53.5535 388.765 53.3313 389.551 53.3313C390.337 53.3313 390.958 53.5535 391.414 53.9978C391.881 54.4421 392.114 55.0004 392.114 55.6726C392.114 56.3334 391.881 56.886 391.414 57.3303C390.958 57.7747 390.337 57.9968 389.551 57.9968C388.765 57.9968 388.138 57.7747 387.671 57.3303C387.215 56.886 386.987 56.3334 386.987 55.6726ZM406.049 73.9417C406.049 73.5543 405.946 73.2068 405.741 72.8992C405.536 72.5916 405.149 72.3124 404.579 72.0618C404.021 71.7997 403.201 71.5548 402.118 71.3269C401.161 71.1218 400.278 70.8655 399.469 70.5579C398.66 70.2502 397.965 69.88 397.384 69.447C396.803 69.0027 396.347 68.4843 396.017 67.8918C395.698 67.288 395.539 66.593 395.539 65.8069C395.539 65.0435 395.704 64.3258 396.034 63.6536C396.365 62.97 396.843 62.3718 397.47 61.8591C398.096 61.335 398.86 60.9249 399.76 60.6287C400.66 60.321 401.674 60.1672 402.802 60.1672C404.374 60.1672 405.724 60.4236 406.852 60.9363C407.991 61.449 408.863 62.1554 409.467 63.0554C410.071 63.9441 410.373 64.9467 410.373 66.0632H405.861C405.861 65.5733 405.747 65.129 405.519 64.7302C405.303 64.3315 404.966 64.0125 404.511 63.7732C404.055 63.5225 403.48 63.3972 402.785 63.3972C402.158 63.3972 401.628 63.4998 401.195 63.7048C400.774 63.9099 400.455 64.1777 400.238 64.5081C400.022 64.8385 399.914 65.203 399.914 65.6018C399.914 65.898 399.971 66.1658 400.084 66.405C400.21 66.6329 400.409 66.8437 400.683 67.0374C400.956 67.231 401.326 67.4076 401.793 67.5671C402.272 67.7266 402.859 67.8805 403.554 68.0286C404.932 68.302 406.134 68.6666 407.16 69.1223C408.196 69.5667 409.005 70.1591 409.586 70.8997C410.167 71.6402 410.458 72.5859 410.458 73.7366C410.458 74.5569 410.281 75.3088 409.928 75.9924C409.575 76.6646 409.062 77.2514 408.39 77.7527C407.718 78.254 406.915 78.6471 405.98 78.9319C405.046 79.2053 403.992 79.342 402.819 79.342C401.121 79.342 399.686 79.0401 398.512 78.4363C397.339 77.821 396.45 77.0463 395.846 76.1121C395.242 75.1664 394.94 74.1866 394.94 73.1726H399.264C399.298 73.8904 399.492 74.4657 399.845 74.8987C400.198 75.3316 400.643 75.6449 401.178 75.8386C401.725 76.0209 402.3 76.1121 402.904 76.1121C403.588 76.1121 404.163 76.0209 404.63 75.8386C405.097 75.6449 405.451 75.3886 405.69 75.0696C405.929 74.7392 406.049 74.3632 406.049 73.9417ZM421.231 75.7874C421.869 75.7874 422.439 75.662 422.94 75.4114C423.441 75.1607 423.84 74.8075 424.136 74.3518C424.444 73.8961 424.609 73.3663 424.632 72.7625H428.887C428.864 74.0157 428.511 75.1379 427.828 76.1292C427.144 77.1204 426.233 77.9065 425.093 78.4875C423.965 79.0572 422.701 79.342 421.299 79.342C419.875 79.342 418.633 79.1028 417.574 78.6243C416.514 78.1458 415.631 77.4792 414.925 76.6248C414.23 75.7703 413.706 74.7791 413.353 73.6511C413.011 72.5232 412.84 71.3155 412.84 70.0281V69.4812C412.84 68.1938 413.011 66.9861 413.353 65.8582C413.706 64.7302 414.23 63.739 414.925 62.8845C415.631 62.03 416.514 61.3635 417.574 60.885C418.633 60.4065 419.869 60.1672 421.282 60.1672C422.775 60.1672 424.085 60.4578 425.213 61.0388C426.352 61.6199 427.241 62.4402 427.879 63.4998C428.528 64.5593 428.864 65.8069 428.887 67.2424H424.632C424.609 66.5816 424.461 65.9892 424.188 65.4651C423.914 64.941 423.527 64.5194 423.025 64.2004C422.524 63.8814 421.915 63.7219 421.197 63.7219C420.433 63.7219 419.795 63.8814 419.283 64.2004C418.781 64.5194 418.388 64.9581 418.104 65.5164C417.83 66.0632 417.636 66.6785 417.522 67.3621C417.42 68.0343 417.369 68.7406 417.369 69.4812V70.0281C417.369 70.78 417.42 71.4978 417.522 72.1814C417.636 72.865 417.83 73.4802 418.104 74.0271C418.388 74.5626 418.781 74.9898 419.283 75.3088C419.795 75.6278 420.445 75.7874 421.231 75.7874ZM430.842 69.9426V69.5837C430.842 68.2279 431.035 66.9804 431.423 65.8411C431.81 64.6903 432.374 63.6934 433.115 62.8503C433.855 62.0072 434.761 61.3521 435.832 60.885C436.903 60.4065 438.122 60.1672 439.489 60.1672C440.879 60.1672 442.11 60.4065 443.181 60.885C444.263 61.3521 445.174 62.0072 445.915 62.8503C446.656 63.6934 447.22 64.6903 447.607 65.8411C447.994 66.9804 448.188 68.2279 448.188 69.5837V69.9426C448.188 71.287 447.994 72.5346 447.607 73.6853C447.22 74.8246 446.656 75.8215 445.915 76.676C445.174 77.5191 444.269 78.1742 443.198 78.6414C442.127 79.1085 440.902 79.342 439.523 79.342C438.156 79.342 436.931 79.1085 435.849 78.6414C434.767 78.1742 433.855 77.5191 433.115 76.676C432.374 75.8215 431.81 74.8246 431.423 73.6853C431.035 72.5346 430.842 71.287 430.842 69.9426ZM435.354 69.5837V69.9426C435.354 70.7515 435.433 71.5092 435.593 72.2156C435.752 72.922 435.997 73.5429 436.328 74.0784C436.658 74.6139 437.085 75.0354 437.609 75.343C438.145 75.6392 438.783 75.7874 439.523 75.7874C440.253 75.7874 440.879 75.6392 441.403 75.343C441.927 75.0354 442.355 74.6139 442.685 74.0784C443.027 73.5429 443.278 72.922 443.437 72.2156C443.597 71.5092 443.676 70.7515 443.676 69.9426V69.5837C443.676 68.7862 443.597 68.04 443.437 67.345C443.278 66.6386 443.027 66.0177 442.685 65.4822C442.355 64.9353 441.922 64.5081 441.386 64.2004C440.862 63.8814 440.23 63.7219 439.489 63.7219C438.76 63.7219 438.133 63.8814 437.609 64.2004C437.085 64.5081 436.658 64.9353 436.328 65.4822C435.997 66.0177 435.752 66.6386 435.593 67.345C435.433 68.04 435.354 68.7862 435.354 69.5837ZM457.081 75.5823L461.388 60.509H466.104L459.764 79.0002H456.893L457.081 75.5823ZM453.937 60.509L458.294 75.6165L458.448 79.0002H455.56L449.203 60.509H453.937ZM476.296 79.342C474.895 79.342 473.636 79.1142 472.52 78.6584C471.403 78.2027 470.452 77.5704 469.666 76.7615C468.891 75.9412 468.293 74.9898 467.871 73.9075C467.461 72.8137 467.256 71.6402 467.256 70.387V69.7034C467.256 68.2792 467.461 66.9861 467.871 65.824C468.281 64.6505 468.862 63.6422 469.614 62.7991C470.366 61.956 471.266 61.3066 472.314 60.8508C473.363 60.3951 474.519 60.1672 475.784 60.1672C477.094 60.1672 478.25 60.3894 479.253 60.8337C480.256 61.2667 481.093 61.8819 481.765 62.6794C482.437 63.477 482.944 64.434 483.286 65.5505C483.628 66.6557 483.799 67.8805 483.799 69.2249V71.1218H469.307V68.0115H479.355V67.6697C479.333 66.9519 479.196 66.2968 478.945 65.7043C478.695 65.1005 478.307 64.622 477.783 64.2688C477.259 63.9042 476.581 63.7219 475.75 63.7219C475.077 63.7219 474.491 63.87 473.989 64.1663C473.499 64.4511 473.089 64.8612 472.759 65.3967C472.44 65.9208 472.201 66.5474 472.041 67.2766C471.882 68.0058 471.802 68.8147 471.802 69.7034V70.387C471.802 71.1617 471.904 71.8795 472.109 72.5403C472.326 73.2011 472.639 73.7764 473.049 74.2664C473.471 74.7449 473.972 75.1208 474.553 75.3943C475.146 75.6563 475.818 75.7874 476.57 75.7874C477.515 75.7874 478.37 75.6051 479.133 75.2405C479.908 74.8645 480.58 74.3119 481.15 73.5828L483.423 75.9412C483.035 76.5108 482.511 77.0577 481.851 77.5818C481.201 78.1059 480.415 78.5331 479.492 78.8635C478.569 79.1825 477.504 79.342 476.296 79.342ZM491.085 64.2859V79.0002H486.574V60.509H490.846L491.085 64.2859ZM496.708 60.3894L496.64 64.5935C496.389 64.5479 496.104 64.5138 495.785 64.491C495.478 64.4682 495.187 64.4568 494.914 64.4568C494.219 64.4568 493.609 64.5536 493.085 64.7473C492.561 64.9296 492.122 65.1973 491.769 65.5505C491.427 65.9037 491.165 66.3367 490.983 66.8494C490.801 67.3507 490.698 67.9203 490.675 68.5583L489.701 68.4387C489.701 67.2652 489.821 66.1772 490.06 65.1746C490.299 64.172 490.647 63.2947 491.103 62.5427C491.558 61.7908 492.128 61.2097 492.812 60.7996C493.507 60.378 494.304 60.1672 495.204 60.1672C495.455 60.1672 495.722 60.19 496.007 60.2356C496.304 60.2698 496.537 60.321 496.708 60.3894ZM504.661 76.9495L509.617 60.509H514.454L507.037 81.803C506.866 82.2587 506.644 82.7543 506.37 83.2898C506.108 83.8253 505.755 84.3323 505.311 84.8108C504.866 85.3007 504.308 85.6995 503.636 86.0071C502.975 86.3147 502.172 86.4685 501.226 86.4685C500.816 86.4685 500.451 86.44 500.132 86.3831C499.813 86.3261 499.477 86.252 499.124 86.1609V82.7771C499.238 82.7885 499.369 82.7942 499.517 82.7942C499.677 82.8056 499.813 82.8113 499.927 82.8113C500.588 82.8113 501.135 82.7315 501.568 82.572C502.001 82.4239 502.348 82.179 502.61 81.8372C502.884 81.5068 503.112 81.0738 503.294 80.5383L504.661 76.9495ZM502.217 60.509L506.404 74.1296L507.139 78.8977L504.029 79.4617L497.347 60.509H502.217Z" fill="#EDD5B1"/>
<path d="M270.004 102.203H270.918L275.813 113.735L280.727 102.203H281.632L276.156 115H275.471L270.004 102.203ZM269.723 102.203H270.531L270.61 109.226V115H269.723V102.203ZM281.113 102.203H281.922V115H281.034V109.226L281.113 102.203ZM290.86 113.269V108.365C290.86 107.89 290.761 107.483 290.562 107.143C290.362 106.797 290.069 106.533 289.683 106.352C289.302 106.164 288.83 106.071 288.268 106.071C287.752 106.071 287.289 106.161 286.879 106.343C286.475 106.525 286.152 106.771 285.912 107.081C285.678 107.392 285.561 107.738 285.561 108.118L284.699 108.101C284.699 107.743 284.784 107.398 284.954 107.064C285.13 106.73 285.376 106.431 285.692 106.167C286.015 105.904 286.396 105.696 286.835 105.543C287.28 105.391 287.77 105.315 288.303 105.315C288.977 105.315 289.568 105.429 290.078 105.657C290.594 105.88 290.998 106.22 291.291 106.677C291.584 107.128 291.73 107.697 291.73 108.382V113.031C291.73 113.36 291.754 113.699 291.801 114.051C291.848 114.403 291.918 114.687 292.012 114.904V115H291.071C291.001 114.783 290.948 114.517 290.913 114.2C290.878 113.878 290.86 113.568 290.86 113.269ZM291.098 109.533L291.115 110.245H288.927C288.358 110.245 287.852 110.298 287.406 110.404C286.967 110.503 286.592 110.65 286.281 110.843C285.977 111.036 285.742 111.271 285.578 111.546C285.414 111.816 285.332 112.12 285.332 112.46C285.332 112.812 285.423 113.134 285.604 113.427C285.786 113.72 286.044 113.954 286.378 114.13C286.718 114.3 287.113 114.385 287.564 114.385C288.174 114.385 288.713 114.277 289.182 114.06C289.656 113.843 290.049 113.553 290.359 113.19C290.67 112.821 290.89 112.407 291.019 111.95L291.396 112.504C291.309 112.803 291.162 113.111 290.957 113.427C290.752 113.738 290.485 114.025 290.157 114.288C289.829 114.552 289.442 114.766 288.997 114.93C288.558 115.094 288.054 115.176 287.485 115.176C286.876 115.176 286.343 115.062 285.886 114.833C285.435 114.599 285.083 114.282 284.831 113.884C284.585 113.48 284.462 113.023 284.462 112.513C284.462 112.062 284.562 111.655 284.761 111.291C284.96 110.922 285.247 110.609 285.622 110.351C285.997 110.087 286.454 109.885 286.993 109.744C287.532 109.604 288.139 109.533 288.812 109.533H291.098ZM295.475 107.319V118.656H294.604V105.49H295.422L295.475 107.319ZM302.146 110.157V110.342C302.146 111.057 302.063 111.71 301.899 112.302C301.741 112.888 301.507 113.398 301.196 113.831C300.892 114.259 300.514 114.59 300.062 114.824C299.617 115.059 299.107 115.176 298.533 115.176C297.977 115.176 297.479 115.094 297.039 114.93C296.6 114.76 296.222 114.523 295.905 114.218C295.589 113.907 295.334 113.547 295.141 113.137C294.947 112.727 294.815 112.284 294.745 111.81V108.927C294.839 108.394 294.985 107.907 295.185 107.468C295.384 107.029 295.639 106.648 295.949 106.325C296.26 106.003 296.629 105.754 297.057 105.578C297.484 105.403 297.971 105.315 298.516 105.315C299.09 105.315 299.603 105.429 300.054 105.657C300.505 105.88 300.886 106.202 301.196 106.624C301.507 107.046 301.741 107.556 301.899 108.154C302.063 108.745 302.146 109.413 302.146 110.157ZM301.267 110.342V110.157C301.267 109.577 301.208 109.041 301.091 108.549C300.974 108.057 300.795 107.629 300.555 107.266C300.32 106.897 300.019 106.61 299.649 106.405C299.286 106.199 298.855 106.097 298.357 106.097C297.824 106.097 297.37 106.185 296.995 106.361C296.626 106.536 296.321 106.768 296.081 107.055C295.847 107.336 295.659 107.641 295.519 107.969C295.384 108.297 295.284 108.614 295.22 108.918V111.889C295.331 112.346 295.516 112.765 295.773 113.146C296.031 113.527 296.374 113.834 296.802 114.069C297.235 114.297 297.76 114.411 298.375 114.411C298.867 114.411 299.295 114.309 299.658 114.104C300.021 113.893 300.32 113.606 300.555 113.242C300.795 112.873 300.974 112.443 301.091 111.95C301.208 111.452 301.267 110.916 301.267 110.342ZM312.35 114.411C312.807 114.411 313.237 114.326 313.642 114.156C314.052 113.981 314.392 113.72 314.661 113.374C314.937 113.029 315.092 112.595 315.127 112.073H315.962C315.933 112.689 315.751 113.231 315.417 113.699C315.083 114.168 314.646 114.531 314.107 114.789C313.574 115.047 312.988 115.176 312.35 115.176C311.699 115.176 311.125 115.059 310.627 114.824C310.129 114.584 309.71 114.25 309.37 113.823C309.036 113.395 308.781 112.894 308.605 112.32C308.436 111.74 308.351 111.11 308.351 110.43V110.061C308.351 109.381 308.436 108.754 308.605 108.18C308.781 107.6 309.036 107.096 309.37 106.668C309.71 106.24 310.126 105.909 310.618 105.675C311.116 105.435 311.69 105.315 312.341 105.315C312.997 105.315 313.592 105.449 314.125 105.719C314.664 105.983 315.098 106.366 315.426 106.87C315.754 107.368 315.933 107.969 315.962 108.672H315.127C315.098 108.121 314.954 107.656 314.696 107.275C314.438 106.888 314.104 106.592 313.694 106.387C313.284 106.182 312.833 106.079 312.341 106.079C311.784 106.079 311.307 106.188 310.908 106.405C310.516 106.615 310.193 106.908 309.941 107.283C309.695 107.653 309.511 108.074 309.388 108.549C309.271 109.024 309.212 109.528 309.212 110.061V110.43C309.212 110.963 309.271 111.47 309.388 111.95C309.505 112.425 309.689 112.847 309.941 113.216C310.193 113.585 310.519 113.878 310.917 114.095C311.315 114.306 311.793 114.411 312.35 114.411ZM324.338 112.803V105.49H325.217V115H324.364L324.338 112.803ZM324.496 111.115L324.988 111.098C324.988 111.684 324.918 112.226 324.777 112.724C324.637 113.216 324.414 113.647 324.109 114.016C323.811 114.385 323.424 114.672 322.949 114.877C322.475 115.076 321.906 115.176 321.244 115.176C320.781 115.176 320.356 115.112 319.97 114.983C319.589 114.848 319.258 114.637 318.977 114.35C318.701 114.063 318.487 113.691 318.335 113.234C318.188 112.771 318.115 112.214 318.115 111.564V105.49H318.985V111.581C318.985 112.109 319.044 112.554 319.161 112.917C319.284 113.275 319.451 113.562 319.662 113.779C319.879 113.995 320.128 114.154 320.409 114.253C320.69 114.347 320.995 114.394 321.323 114.394C322.12 114.394 322.75 114.241 323.213 113.937C323.676 113.626 324.004 113.222 324.197 112.724C324.396 112.22 324.496 111.684 324.496 111.115ZM328.899 107.09V115H328.029V105.49H328.882L328.899 107.09ZM332.397 105.42L332.362 106.211C332.251 106.194 332.14 106.182 332.028 106.176C331.923 106.164 331.809 106.158 331.686 106.158C331.205 106.158 330.783 106.249 330.42 106.431C330.057 106.613 329.752 106.865 329.506 107.187C329.266 107.509 329.081 107.884 328.952 108.312C328.829 108.734 328.762 109.191 328.75 109.683L328.39 109.788C328.39 109.15 328.454 108.561 328.583 108.022C328.718 107.477 328.923 107.002 329.198 106.598C329.474 106.194 329.819 105.88 330.235 105.657C330.651 105.429 331.144 105.315 331.712 105.315C331.847 105.315 331.976 105.326 332.099 105.35C332.228 105.367 332.327 105.391 332.397 105.42ZM334.946 107.09V115H334.076V105.49H334.929L334.946 107.09ZM338.444 105.42L338.409 106.211C338.298 106.194 338.187 106.182 338.075 106.176C337.97 106.164 337.855 106.158 337.732 106.158C337.252 106.158 336.83 106.249 336.467 106.431C336.104 106.613 335.799 106.865 335.553 107.187C335.312 107.509 335.128 107.884 334.999 108.312C334.876 108.734 334.809 109.191 334.797 109.683L334.437 109.788C334.437 109.15 334.501 108.561 334.63 108.022C334.765 107.477 334.97 107.002 335.245 106.598C335.521 106.194 335.866 105.88 336.282 105.657C336.698 105.429 337.19 105.315 337.759 105.315C337.894 105.315 338.022 105.326 338.146 105.35C338.274 105.367 338.374 105.391 338.444 105.42ZM343.551 115.176C342.941 115.176 342.379 115.062 341.863 114.833C341.348 114.605 340.899 114.282 340.519 113.866C340.138 113.445 339.842 112.949 339.631 112.381C339.42 111.807 339.314 111.177 339.314 110.491V110.114C339.314 109.387 339.42 108.731 339.631 108.145C339.848 107.559 340.144 107.055 340.519 106.633C340.899 106.205 341.333 105.88 341.819 105.657C342.306 105.429 342.821 105.315 343.366 105.315C343.94 105.315 344.456 105.42 344.913 105.631C345.376 105.836 345.769 106.129 346.091 106.51C346.413 106.891 346.656 107.342 346.82 107.864C346.99 108.379 347.075 108.95 347.075 109.577V110.193H339.851V109.428H346.205V109.314C346.199 108.745 346.085 108.218 345.862 107.732C345.646 107.24 345.326 106.841 344.904 106.536C344.488 106.232 343.976 106.079 343.366 106.079C342.892 106.079 342.458 106.182 342.065 106.387C341.679 106.586 341.345 106.867 341.063 107.231C340.782 107.588 340.565 108.013 340.413 108.505C340.261 108.991 340.185 109.528 340.185 110.114V110.491C340.185 111.036 340.267 111.546 340.431 112.021C340.601 112.495 340.835 112.911 341.134 113.269C341.438 113.626 341.799 113.907 342.215 114.113C342.631 114.318 343.085 114.42 343.577 114.42C344.134 114.42 344.635 114.321 345.08 114.121C345.525 113.916 345.93 113.579 346.293 113.111L346.847 113.532C346.642 113.837 346.387 114.115 346.082 114.367C345.777 114.614 345.417 114.81 345.001 114.956C344.585 115.103 344.102 115.176 343.551 115.176ZM350.046 107.521V115H349.176V105.49H350.02L350.046 107.521ZM349.861 109.586L349.466 109.243C349.507 108.716 349.624 108.215 349.817 107.74C350.011 107.266 350.271 106.847 350.6 106.484C350.928 106.12 351.314 105.836 351.76 105.631C352.205 105.42 352.694 105.315 353.228 105.315C353.702 105.315 354.127 105.379 354.502 105.508C354.877 105.637 355.193 105.842 355.451 106.123C355.715 106.405 355.914 106.768 356.049 107.213C356.189 107.653 356.26 108.189 356.26 108.822V115H355.39V108.813C355.39 108.11 355.29 107.562 355.091 107.169C354.897 106.777 354.625 106.498 354.273 106.334C353.928 106.17 353.518 106.088 353.043 106.088C352.51 106.088 352.047 106.205 351.654 106.44C351.262 106.674 350.934 106.973 350.67 107.336C350.412 107.699 350.216 108.083 350.081 108.488C349.946 108.886 349.873 109.252 349.861 109.586ZM362.544 105.49V106.238H357.886V105.49H362.544ZM359.635 103.012H360.514V112.698C360.514 113.172 360.572 113.532 360.689 113.779C360.812 114.019 360.974 114.18 361.173 114.262C361.372 114.344 361.586 114.385 361.814 114.385C361.979 114.385 362.131 114.376 362.271 114.359C362.418 114.341 362.559 114.321 362.693 114.297L362.746 115.044C362.617 115.085 362.45 115.117 362.245 115.141C362.04 115.164 361.847 115.176 361.665 115.176C361.261 115.176 360.906 115.103 360.602 114.956C360.297 114.804 360.06 114.549 359.89 114.192C359.72 113.828 359.635 113.33 359.635 112.698V103.012ZM369.276 105.49H370.146V116.134C370.146 116.714 370.05 117.206 369.856 117.611C369.663 118.015 369.382 118.32 369.013 118.525C368.644 118.736 368.189 118.841 367.65 118.841C367.504 118.841 367.352 118.826 367.193 118.797C367.029 118.768 366.877 118.727 366.736 118.674L366.763 117.927C366.862 117.956 366.985 117.986 367.132 118.015C367.278 118.044 367.422 118.059 367.562 118.059C367.932 118.059 368.242 117.986 368.494 117.839C368.752 117.693 368.945 117.476 369.074 117.189C369.209 116.902 369.276 116.55 369.276 116.134V105.49ZM369.092 102.669C369.092 102.493 369.15 102.344 369.268 102.221C369.385 102.092 369.54 102.028 369.733 102.028C369.933 102.028 370.091 102.092 370.208 102.221C370.331 102.344 370.393 102.493 370.393 102.669C370.393 102.845 370.331 102.994 370.208 103.117C370.091 103.24 369.933 103.302 369.733 103.302C369.54 103.302 369.385 103.24 369.268 103.117C369.15 102.994 369.092 102.845 369.092 102.669ZM372.607 110.404V110.087C372.607 109.396 372.707 108.76 372.906 108.18C373.105 107.594 373.39 107.087 373.759 106.659C374.128 106.232 374.57 105.901 375.086 105.666C375.607 105.432 376.185 105.315 376.817 105.315C377.456 105.315 378.033 105.432 378.549 105.666C379.07 105.901 379.516 106.232 379.885 106.659C380.26 107.087 380.547 107.594 380.746 108.18C380.945 108.76 381.045 109.396 381.045 110.087V110.404C381.045 111.095 380.945 111.734 380.746 112.32C380.547 112.9 380.26 113.404 379.885 113.831C379.516 114.259 379.073 114.59 378.558 114.824C378.042 115.059 377.468 115.176 376.835 115.176C376.196 115.176 375.616 115.059 375.095 114.824C374.579 114.59 374.134 114.259 373.759 113.831C373.39 113.404 373.105 112.9 372.906 112.32C372.707 111.734 372.607 111.095 372.607 110.404ZM373.469 110.087V110.404C373.469 110.937 373.542 111.447 373.688 111.933C373.841 112.413 374.058 112.841 374.339 113.216C374.626 113.585 374.978 113.878 375.394 114.095C375.815 114.306 376.296 114.411 376.835 114.411C377.368 114.411 377.84 114.306 378.25 114.095C378.666 113.878 379.015 113.585 379.296 113.216C379.583 112.841 379.8 112.413 379.946 111.933C380.099 111.447 380.175 110.937 380.175 110.404V110.087C380.175 109.566 380.099 109.065 379.946 108.584C379.8 108.104 379.583 107.676 379.296 107.301C379.009 106.926 378.657 106.63 378.241 106.413C377.825 106.191 377.351 106.079 376.817 106.079C376.284 106.079 375.81 106.191 375.394 106.413C374.978 106.63 374.626 106.926 374.339 107.301C374.052 107.676 373.835 108.104 373.688 108.584C373.542 109.065 373.469 109.566 373.469 110.087ZM389.447 112.803V105.49H390.326V115H389.474L389.447 112.803ZM389.605 111.115L390.098 111.098C390.098 111.684 390.027 112.226 389.887 112.724C389.746 113.216 389.523 113.647 389.219 114.016C388.92 114.385 388.533 114.672 388.059 114.877C387.584 115.076 387.016 115.176 386.354 115.176C385.891 115.176 385.466 115.112 385.079 114.983C384.698 114.848 384.367 114.637 384.086 114.35C383.811 114.063 383.597 113.691 383.444 113.234C383.298 112.771 383.225 112.214 383.225 111.564V105.49H384.095V111.581C384.095 112.109 384.153 112.554 384.271 112.917C384.394 113.275 384.561 113.562 384.771 113.779C384.988 113.995 385.237 114.154 385.519 114.253C385.8 114.347 386.104 114.394 386.433 114.394C387.229 114.394 387.859 114.241 388.322 113.937C388.785 113.626 389.113 113.222 389.307 112.724C389.506 112.22 389.605 111.684 389.605 111.115ZM394.009 107.09V115H393.139V105.49H393.991L394.009 107.09ZM397.507 105.42L397.472 106.211C397.36 106.194 397.249 106.182 397.138 106.176C397.032 106.164 396.918 106.158 396.795 106.158C396.314 106.158 395.893 106.249 395.529 106.431C395.166 106.613 394.861 106.865 394.615 107.187C394.375 107.509 394.19 107.884 394.062 108.312C393.938 108.734 393.871 109.191 393.859 109.683L393.499 109.788C393.499 109.15 393.563 108.561 393.692 108.022C393.827 107.477 394.032 107.002 394.308 106.598C394.583 106.194 394.929 105.88 395.345 105.657C395.761 105.429 396.253 105.315 396.821 105.315C396.956 105.315 397.085 105.326 397.208 105.35C397.337 105.367 397.437 105.391 397.507 105.42ZM400.056 107.521V115H399.186V105.49H400.029L400.056 107.521ZM399.871 109.586L399.476 109.243C399.517 108.716 399.634 108.215 399.827 107.74C400.021 107.266 400.281 106.847 400.609 106.484C400.938 106.12 401.324 105.836 401.77 105.631C402.215 105.42 402.704 105.315 403.237 105.315C403.712 105.315 404.137 105.379 404.512 105.508C404.887 105.637 405.203 105.842 405.461 106.123C405.725 106.405 405.924 106.768 406.059 107.213C406.199 107.653 406.27 108.189 406.27 108.822V115H405.399V108.813C405.399 108.11 405.3 107.562 405.101 107.169C404.907 106.777 404.635 106.498 404.283 106.334C403.938 106.17 403.527 106.088 403.053 106.088C402.52 106.088 402.057 106.205 401.664 106.44C401.271 106.674 400.943 106.973 400.68 107.336C400.422 107.699 400.226 108.083 400.091 108.488C399.956 108.886 399.883 109.252 399.871 109.586ZM412.668 115.176C412.059 115.176 411.496 115.062 410.98 114.833C410.465 114.605 410.017 114.282 409.636 113.866C409.255 113.445 408.959 112.949 408.748 112.381C408.537 111.807 408.432 111.177 408.432 110.491V110.114C408.432 109.387 408.537 108.731 408.748 108.145C408.965 107.559 409.261 107.055 409.636 106.633C410.017 106.205 410.45 105.88 410.937 105.657C411.423 105.429 411.938 105.315 412.483 105.315C413.058 105.315 413.573 105.42 414.03 105.631C414.493 105.836 414.886 106.129 415.208 106.51C415.53 106.891 415.773 107.342 415.938 107.864C416.107 108.379 416.192 108.95 416.192 109.577V110.193H408.968V109.428H415.322V109.314C415.316 108.745 415.202 108.218 414.979 107.732C414.763 107.24 414.443 106.841 414.021 106.536C413.605 106.232 413.093 106.079 412.483 106.079C412.009 106.079 411.575 106.182 411.183 106.387C410.796 106.586 410.462 106.867 410.181 107.231C409.899 107.588 409.683 108.013 409.53 108.505C409.378 108.991 409.302 109.528 409.302 110.114V110.491C409.302 111.036 409.384 111.546 409.548 112.021C409.718 112.495 409.952 112.911 410.251 113.269C410.556 113.626 410.916 113.907 411.332 114.113C411.748 114.318 412.202 114.42 412.694 114.42C413.251 114.42 413.752 114.321 414.197 114.121C414.643 113.916 415.047 113.579 415.41 113.111L415.964 113.532C415.759 113.837 415.504 114.115 415.199 114.367C414.895 114.614 414.534 114.81 414.118 114.956C413.702 115.103 413.219 115.176 412.668 115.176ZM421.044 114.06L424.111 105.49H425.052L420.965 116.547C420.883 116.758 420.78 116.992 420.657 117.25C420.54 117.514 420.382 117.766 420.183 118.006C419.989 118.252 419.743 118.451 419.444 118.604C419.151 118.762 418.788 118.841 418.354 118.841C418.249 118.841 418.111 118.829 417.941 118.806C417.771 118.782 417.651 118.756 417.581 118.727L417.572 117.989C417.643 118.006 417.742 118.021 417.871 118.032C418 118.044 418.091 118.05 418.144 118.05C418.524 118.05 418.844 117.98 419.102 117.839C419.365 117.698 419.585 117.496 419.761 117.233C419.937 116.969 420.092 116.65 420.227 116.275L421.044 114.06ZM418.021 105.49L421.229 113.902L421.475 114.798L420.824 115.185L417.071 105.49H418.021ZM432.505 112.601C432.505 112.337 432.435 112.073 432.294 111.81C432.153 111.54 431.893 111.294 431.512 111.072C431.131 110.843 430.574 110.653 429.842 110.5C429.314 110.383 428.846 110.254 428.436 110.114C428.025 109.967 427.68 109.791 427.398 109.586C427.123 109.381 426.912 109.138 426.766 108.857C426.625 108.57 426.555 108.233 426.555 107.846C426.555 107.494 426.631 107.166 426.783 106.862C426.936 106.557 427.155 106.29 427.442 106.062C427.729 105.827 428.075 105.646 428.479 105.517C428.89 105.382 429.35 105.315 429.859 105.315C430.586 105.315 431.207 105.438 431.723 105.684C432.238 105.924 432.634 106.255 432.909 106.677C433.19 107.099 433.331 107.579 433.331 108.118H432.461C432.461 107.767 432.358 107.439 432.153 107.134C431.954 106.823 431.661 106.572 431.274 106.378C430.888 106.179 430.416 106.079 429.859 106.079C429.279 106.079 428.811 106.167 428.453 106.343C428.096 106.519 427.835 106.739 427.671 107.002C427.507 107.266 427.425 107.538 427.425 107.82C427.425 108.042 427.457 108.244 427.521 108.426C427.592 108.608 427.721 108.778 427.908 108.936C428.096 109.094 428.362 109.243 428.708 109.384C429.06 109.519 429.514 109.651 430.07 109.78C430.838 109.949 431.462 110.157 431.942 110.404C432.429 110.644 432.786 110.94 433.015 111.291C433.249 111.643 433.366 112.068 433.366 112.566C433.366 112.952 433.284 113.307 433.12 113.629C432.962 113.946 432.73 114.221 432.426 114.455C432.127 114.684 431.764 114.863 431.336 114.991C430.914 115.115 430.442 115.176 429.921 115.176C429.124 115.176 428.453 115.047 427.908 114.789C427.363 114.531 426.95 114.192 426.669 113.77C426.388 113.348 426.247 112.894 426.247 112.407H427.117C427.152 112.917 427.313 113.319 427.601 113.612C427.894 113.905 428.248 114.113 428.664 114.236C429.086 114.353 429.505 114.411 429.921 114.411C430.483 114.411 430.955 114.326 431.336 114.156C431.723 113.981 432.013 113.755 432.206 113.48C432.405 113.204 432.505 112.911 432.505 112.601ZM436.688 113.418V114.631C436.688 115.17 436.586 115.674 436.381 116.143C436.176 116.617 435.9 117.019 435.555 117.347L435.027 116.943C435.203 116.708 435.353 116.471 435.476 116.231C435.599 115.996 435.689 115.75 435.748 115.492C435.807 115.235 435.836 114.953 435.836 114.649V113.418H436.688ZM449.898 105.49H450.716V114.842C450.716 115.662 450.563 116.368 450.259 116.96C449.954 117.558 449.521 118.015 448.958 118.331C448.401 118.648 447.742 118.806 446.98 118.806C446.564 118.806 446.154 118.744 445.75 118.621C445.346 118.498 444.968 118.314 444.616 118.068C444.271 117.827 443.975 117.534 443.729 117.189L444.238 116.653C444.619 117.121 445.029 117.47 445.469 117.698C445.908 117.927 446.395 118.041 446.928 118.041C447.555 118.041 448.085 117.912 448.519 117.655C448.952 117.403 449.28 117.039 449.503 116.565C449.731 116.09 449.846 115.525 449.846 114.868V107.582L449.898 105.49ZM443.184 110.342V110.157C443.184 109.413 443.266 108.745 443.43 108.154C443.594 107.556 443.831 107.046 444.142 106.624C444.458 106.202 444.842 105.88 445.293 105.657C445.744 105.429 446.254 105.315 446.822 105.315C447.367 105.315 447.851 105.403 448.272 105.578C448.694 105.754 449.058 106.003 449.362 106.325C449.673 106.648 449.925 107.029 450.118 107.468C450.312 107.907 450.455 108.394 450.549 108.927V111.757C450.473 112.243 450.341 112.695 450.153 113.111C449.966 113.527 449.717 113.89 449.406 114.2C449.096 114.511 448.724 114.751 448.29 114.921C447.862 115.091 447.367 115.176 446.805 115.176C446.242 115.176 445.735 115.059 445.284 114.824C444.839 114.59 444.458 114.259 444.142 113.831C443.831 113.398 443.594 112.888 443.43 112.302C443.266 111.71 443.184 111.057 443.184 110.342ZM444.054 110.157V110.342C444.054 110.916 444.112 111.452 444.229 111.95C444.347 112.443 444.522 112.87 444.757 113.234C444.997 113.597 445.296 113.881 445.653 114.086C446.017 114.291 446.444 114.394 446.937 114.394C447.558 114.394 448.082 114.28 448.51 114.051C448.938 113.817 449.277 113.506 449.529 113.119C449.781 112.733 449.96 112.308 450.065 111.845V108.918C450.001 108.614 449.901 108.297 449.767 107.969C449.638 107.641 449.453 107.336 449.213 107.055C448.979 106.768 448.677 106.536 448.308 106.361C447.938 106.185 447.487 106.097 446.954 106.097C446.456 106.097 446.025 106.199 445.662 106.405C445.299 106.61 444.997 106.897 444.757 107.266C444.522 107.629 444.347 108.057 444.229 108.549C444.112 109.041 444.054 109.577 444.054 110.157ZM459.399 113.269V108.365C459.399 107.89 459.3 107.483 459.101 107.143C458.901 106.797 458.608 106.533 458.222 106.352C457.841 106.164 457.369 106.071 456.807 106.071C456.291 106.071 455.828 106.161 455.418 106.343C455.014 106.525 454.691 106.771 454.451 107.081C454.217 107.392 454.1 107.738 454.1 108.118L453.238 108.101C453.238 107.743 453.323 107.398 453.493 107.064C453.669 106.73 453.915 106.431 454.231 106.167C454.554 105.904 454.935 105.696 455.374 105.543C455.819 105.391 456.309 105.315 456.842 105.315C457.516 105.315 458.107 105.429 458.617 105.657C459.133 105.88 459.537 106.22 459.83 106.677C460.123 107.128 460.27 107.697 460.27 108.382V113.031C460.27 113.36 460.293 113.699 460.34 114.051C460.387 114.403 460.457 114.687 460.551 114.904V115H459.61C459.54 114.783 459.487 114.517 459.452 114.2C459.417 113.878 459.399 113.568 459.399 113.269ZM459.637 109.533L459.654 110.245H457.466C456.897 110.245 456.391 110.298 455.945 110.404C455.506 110.503 455.131 110.65 454.82 110.843C454.516 111.036 454.281 111.271 454.117 111.546C453.953 111.816 453.871 112.12 453.871 112.46C453.871 112.812 453.962 113.134 454.144 113.427C454.325 113.72 454.583 113.954 454.917 114.13C455.257 114.3 455.652 114.385 456.104 114.385C456.713 114.385 457.252 114.277 457.721 114.06C458.195 113.843 458.588 113.553 458.898 113.19C459.209 112.821 459.429 112.407 459.558 111.95L459.936 112.504C459.848 112.803 459.701 113.111 459.496 113.427C459.291 113.738 459.024 114.025 458.696 114.288C458.368 114.552 457.981 114.766 457.536 114.93C457.097 115.094 456.593 115.176 456.024 115.176C455.415 115.176 454.882 115.062 454.425 114.833C453.974 114.599 453.622 114.282 453.37 113.884C453.124 113.48 453.001 113.023 453.001 112.513C453.001 112.062 453.101 111.655 453.3 111.291C453.499 110.922 453.786 110.609 454.161 110.351C454.536 110.087 454.993 109.885 455.532 109.744C456.071 109.604 456.678 109.533 457.352 109.533H459.637ZM464.014 107.319V118.656H463.144V105.49H463.961L464.014 107.319ZM470.685 110.157V110.342C470.685 111.057 470.603 111.71 470.438 112.302C470.28 112.888 470.046 113.398 469.735 113.831C469.431 114.259 469.053 114.59 468.602 114.824C468.156 115.059 467.646 115.176 467.072 115.176C466.516 115.176 466.018 115.094 465.578 114.93C465.139 114.76 464.761 114.523 464.444 114.218C464.128 113.907 463.873 113.547 463.68 113.137C463.486 112.727 463.354 112.284 463.284 111.81V108.927C463.378 108.394 463.524 107.907 463.724 107.468C463.923 107.029 464.178 106.648 464.488 106.325C464.799 106.003 465.168 105.754 465.596 105.578C466.023 105.403 466.51 105.315 467.055 105.315C467.629 105.315 468.142 105.429 468.593 105.657C469.044 105.88 469.425 106.202 469.735 106.624C470.046 107.046 470.28 107.556 470.438 108.154C470.603 108.745 470.685 109.413 470.685 110.157ZM469.806 110.342V110.157C469.806 109.577 469.747 109.041 469.63 108.549C469.513 108.057 469.334 107.629 469.094 107.266C468.859 106.897 468.558 106.61 468.188 106.405C467.825 106.199 467.395 106.097 466.896 106.097C466.363 106.097 465.909 106.185 465.534 106.361C465.165 106.536 464.86 106.768 464.62 107.055C464.386 107.336 464.198 107.641 464.058 107.969C463.923 108.297 463.823 108.614 463.759 108.918V111.889C463.87 112.346 464.055 112.765 464.312 113.146C464.57 113.527 464.913 113.834 465.341 114.069C465.774 114.297 466.299 114.411 466.914 114.411C467.406 114.411 467.834 114.309 468.197 114.104C468.561 113.893 468.859 113.606 469.094 113.242C469.334 112.873 469.513 112.443 469.63 111.95C469.747 111.452 469.806 110.916 469.806 110.342ZM478.858 112.601C478.858 112.337 478.788 112.073 478.647 111.81C478.507 111.54 478.246 111.294 477.865 111.072C477.484 110.843 476.928 110.653 476.195 110.5C475.668 110.383 475.199 110.254 474.789 110.114C474.379 109.967 474.033 109.791 473.752 109.586C473.477 109.381 473.266 109.138 473.119 108.857C472.979 108.57 472.908 108.233 472.908 107.846C472.908 107.494 472.984 107.166 473.137 106.862C473.289 106.557 473.509 106.29 473.796 106.062C474.083 105.827 474.429 105.646 474.833 105.517C475.243 105.382 475.703 105.315 476.213 105.315C476.939 105.315 477.561 105.438 478.076 105.684C478.592 105.924 478.987 106.255 479.263 106.677C479.544 107.099 479.685 107.579 479.685 108.118H478.814C478.814 107.767 478.712 107.439 478.507 107.134C478.308 106.823 478.015 106.572 477.628 106.378C477.241 106.179 476.77 106.079 476.213 106.079C475.633 106.079 475.164 106.167 474.807 106.343C474.449 106.519 474.188 106.739 474.024 107.002C473.86 107.266 473.778 107.538 473.778 107.82C473.778 108.042 473.811 108.244 473.875 108.426C473.945 108.608 474.074 108.778 474.262 108.936C474.449 109.094 474.716 109.243 475.062 109.384C475.413 109.519 475.867 109.651 476.424 109.78C477.191 109.949 477.815 110.157 478.296 110.404C478.782 110.644 479.14 110.94 479.368 111.291C479.603 111.643 479.72 112.068 479.72 112.566C479.72 112.952 479.638 113.307 479.474 113.629C479.315 113.946 479.084 114.221 478.779 114.455C478.48 114.684 478.117 114.863 477.689 114.991C477.268 115.115 476.796 115.176 476.274 115.176C475.478 115.176 474.807 115.047 474.262 114.789C473.717 114.531 473.304 114.192 473.022 113.77C472.741 113.348 472.601 112.894 472.601 112.407H473.471C473.506 112.917 473.667 113.319 473.954 113.612C474.247 113.905 474.602 114.113 475.018 114.236C475.439 114.353 475.858 114.411 476.274 114.411C476.837 114.411 477.309 114.326 477.689 114.156C478.076 113.981 478.366 113.755 478.56 113.48C478.759 113.204 478.858 112.911 478.858 112.601ZM483.042 113.418V114.631C483.042 115.17 482.939 115.674 482.734 116.143C482.529 116.617 482.254 117.019 481.908 117.347L481.381 116.943C481.557 116.708 481.706 116.471 481.829 116.231C481.952 115.996 482.043 115.75 482.102 115.492C482.16 115.235 482.189 114.953 482.189 114.649V113.418H483.042ZM495.804 113.269V108.365C495.804 107.89 495.704 107.483 495.505 107.143C495.306 106.797 495.013 106.533 494.626 106.352C494.245 106.164 493.773 106.071 493.211 106.071C492.695 106.071 492.232 106.161 491.822 106.343C491.418 106.525 491.096 106.771 490.855 107.081C490.621 107.392 490.504 107.738 490.504 108.118L489.643 108.101C489.643 107.743 489.728 107.398 489.897 107.064C490.073 106.73 490.319 106.431 490.636 106.167C490.958 105.904 491.339 105.696 491.778 105.543C492.224 105.391 492.713 105.315 493.246 105.315C493.92 105.315 494.512 105.429 495.021 105.657C495.537 105.88 495.941 106.22 496.234 106.677C496.527 107.128 496.674 107.697 496.674 108.382V113.031C496.674 113.36 496.697 113.699 496.744 114.051C496.791 114.403 496.861 114.687 496.955 114.904V115H496.015C495.944 114.783 495.892 114.517 495.856 114.2C495.821 113.878 495.804 113.568 495.804 113.269ZM496.041 109.533L496.059 110.245H493.87C493.302 110.245 492.795 110.298 492.35 110.404C491.91 110.503 491.535 110.65 491.225 110.843C490.92 111.036 490.686 111.271 490.521 111.546C490.357 111.816 490.275 112.12 490.275 112.46C490.275 112.812 490.366 113.134 490.548 113.427C490.729 113.72 490.987 113.954 491.321 114.13C491.661 114.3 492.057 114.385 492.508 114.385C493.117 114.385 493.656 114.277 494.125 114.06C494.6 113.843 494.992 113.553 495.303 113.19C495.613 112.821 495.833 112.407 495.962 111.95L496.34 112.504C496.252 112.803 496.105 113.111 495.9 113.427C495.695 113.738 495.429 114.025 495.101 114.288C494.772 114.552 494.386 114.766 493.94 114.93C493.501 115.094 492.997 115.176 492.429 115.176C491.819 115.176 491.286 115.062 490.829 114.833C490.378 114.599 490.026 114.282 489.774 113.884C489.528 113.48 489.405 113.023 489.405 112.513C489.405 112.062 489.505 111.655 489.704 111.291C489.903 110.922 490.19 110.609 490.565 110.351C490.94 110.087 491.397 109.885 491.937 109.744C492.476 109.604 493.082 109.533 493.756 109.533H496.041ZM500.427 107.521V115H499.557V105.49H500.4L500.427 107.521ZM500.242 109.586L499.847 109.243C499.888 108.716 500.005 108.215 500.198 107.74C500.392 107.266 500.652 106.847 500.98 106.484C501.309 106.12 501.695 105.836 502.141 105.631C502.586 105.42 503.075 105.315 503.608 105.315C504.083 105.315 504.508 105.379 504.883 105.508C505.258 105.637 505.574 105.842 505.832 106.123C506.096 106.405 506.295 106.768 506.43 107.213C506.57 107.653 506.641 108.189 506.641 108.822V115H505.771V108.813C505.771 108.11 505.671 107.562 505.472 107.169C505.278 106.777 505.006 106.498 504.654 106.334C504.309 106.17 503.898 106.088 503.424 106.088C502.891 106.088 502.428 106.205 502.035 106.44C501.643 106.674 501.314 106.973 501.051 107.336C500.793 107.699 500.597 108.083 500.462 108.488C500.327 108.886 500.254 109.252 500.242 109.586ZM515.685 113.155V101.5H516.555V115H515.729L515.685 113.155ZM509.014 110.342V110.157C509.014 109.413 509.096 108.745 509.26 108.154C509.43 107.556 509.673 107.046 509.989 106.624C510.306 106.202 510.687 105.88 511.132 105.657C511.583 105.429 512.093 105.315 512.661 105.315C513.206 105.315 513.689 105.403 514.111 105.578C514.533 105.754 514.896 106.003 515.201 106.325C515.506 106.648 515.755 107.029 515.948 107.468C516.142 107.907 516.285 108.394 516.379 108.927V111.757C516.309 112.243 516.177 112.695 515.983 113.111C515.796 113.527 515.547 113.89 515.236 114.2C514.932 114.511 514.562 114.751 514.129 114.921C513.695 115.091 513.2 115.176 512.644 115.176C512.081 115.176 511.574 115.059 511.123 114.824C510.678 114.59 510.297 114.259 509.98 113.831C509.67 113.398 509.43 112.888 509.26 112.302C509.096 111.71 509.014 111.057 509.014 110.342ZM509.893 110.157V110.342C509.893 110.916 509.951 111.452 510.068 111.95C510.186 112.443 510.361 112.87 510.596 113.234C510.83 113.597 511.129 113.881 511.492 114.086C511.855 114.291 512.283 114.394 512.775 114.394C513.396 114.394 513.921 114.28 514.349 114.051C514.776 113.817 515.119 113.506 515.377 113.119C515.635 112.733 515.819 112.308 515.931 111.845V108.918C515.86 108.614 515.758 108.297 515.623 107.969C515.488 107.641 515.301 107.336 515.061 107.055C514.82 106.768 514.516 106.536 514.146 106.361C513.777 106.185 513.326 106.097 512.793 106.097C512.295 106.097 511.864 106.199 511.501 106.405C511.138 106.61 510.836 106.897 510.596 107.266C510.361 107.629 510.186 108.057 510.068 108.549C509.951 109.041 509.893 109.577 509.893 110.157ZM530.055 105.49H530.872V114.842C530.872 115.662 530.72 116.368 530.415 116.96C530.11 117.558 529.677 118.015 529.114 118.331C528.558 118.648 527.898 118.806 527.137 118.806C526.721 118.806 526.311 118.744 525.906 118.621C525.502 118.498 525.124 118.314 524.772 118.068C524.427 117.827 524.131 117.534 523.885 117.189L524.395 116.653C524.775 117.121 525.186 117.47 525.625 117.698C526.064 117.927 526.551 118.041 527.084 118.041C527.711 118.041 528.241 117.912 528.675 117.655C529.108 117.403 529.437 117.039 529.659 116.565C529.888 116.09 530.002 115.525 530.002 114.868V107.582L530.055 105.49ZM523.34 110.342V110.157C523.34 109.413 523.422 108.745 523.586 108.154C523.75 107.556 523.987 107.046 524.298 106.624C524.614 106.202 524.998 105.88 525.449 105.657C525.9 105.429 526.41 105.315 526.979 105.315C527.523 105.315 528.007 105.403 528.429 105.578C528.851 105.754 529.214 106.003 529.519 106.325C529.829 106.648 530.081 107.029 530.274 107.468C530.468 107.907 530.611 108.394 530.705 108.927V111.757C530.629 112.243 530.497 112.695 530.31 113.111C530.122 113.527 529.873 113.89 529.562 114.2C529.252 114.511 528.88 114.751 528.446 114.921C528.019 115.091 527.523 115.176 526.961 115.176C526.398 115.176 525.892 115.059 525.44 114.824C524.995 114.59 524.614 114.259 524.298 113.831C523.987 113.398 523.75 112.888 523.586 112.302C523.422 111.71 523.34 111.057 523.34 110.342ZM524.21 110.157V110.342C524.21 110.916 524.269 111.452 524.386 111.95C524.503 112.443 524.679 112.87 524.913 113.234C525.153 113.597 525.452 113.881 525.81 114.086C526.173 114.291 526.601 114.394 527.093 114.394C527.714 114.394 528.238 114.28 528.666 114.051C529.094 113.817 529.434 113.506 529.686 113.119C529.938 112.733 530.116 112.308 530.222 111.845V108.918C530.157 108.614 530.058 108.297 529.923 107.969C529.794 107.641 529.609 107.336 529.369 107.055C529.135 106.768 528.833 106.536 528.464 106.361C528.095 106.185 527.644 106.097 527.11 106.097C526.612 106.097 526.182 106.199 525.818 106.405C525.455 106.61 525.153 106.897 524.913 107.266C524.679 107.629 524.503 108.057 524.386 108.549C524.269 109.041 524.21 109.577 524.21 110.157ZM533.096 110.404V110.087C533.096 109.396 533.195 108.76 533.395 108.18C533.594 107.594 533.878 107.087 534.247 106.659C534.616 106.232 535.059 105.901 535.574 105.666C536.096 105.432 536.673 105.315 537.306 105.315C537.944 105.315 538.521 105.432 539.037 105.666C539.559 105.901 540.004 106.232 540.373 106.659C540.748 107.087 541.035 107.594 541.234 108.18C541.434 108.76 541.533 109.396 541.533 110.087V110.404C541.533 111.095 541.434 111.734 541.234 112.32C541.035 112.9 540.748 113.404 540.373 113.831C540.004 114.259 539.562 114.59 539.046 114.824C538.53 115.059 537.956 115.176 537.323 115.176C536.685 115.176 536.104 115.059 535.583 114.824C535.067 114.59 534.622 114.259 534.247 113.831C533.878 113.404 533.594 112.9 533.395 112.32C533.195 111.734 533.096 111.095 533.096 110.404ZM533.957 110.087V110.404C533.957 110.937 534.03 111.447 534.177 111.933C534.329 112.413 534.546 112.841 534.827 113.216C535.114 113.585 535.466 113.878 535.882 114.095C536.304 114.306 536.784 114.411 537.323 114.411C537.856 114.411 538.328 114.306 538.738 114.095C539.154 113.878 539.503 113.585 539.784 113.216C540.071 112.841 540.288 112.413 540.435 111.933C540.587 111.447 540.663 110.937 540.663 110.404V110.087C540.663 109.566 540.587 109.065 540.435 108.584C540.288 108.104 540.071 107.676 539.784 107.301C539.497 106.926 539.146 106.63 538.729 106.413C538.313 106.191 537.839 106.079 537.306 106.079C536.772 106.079 536.298 106.191 535.882 106.413C535.466 106.63 535.114 106.926 534.827 107.301C534.54 107.676 534.323 108.104 534.177 108.584C534.03 109.065 533.957 109.566 533.957 110.087ZM549.593 113.269V108.365C549.593 107.89 549.493 107.483 549.294 107.143C549.095 106.797 548.802 106.533 548.415 106.352C548.034 106.164 547.562 106.071 547 106.071C546.484 106.071 546.021 106.161 545.611 106.343C545.207 106.525 544.885 106.771 544.645 107.081C544.41 107.392 544.293 107.738 544.293 108.118L543.432 108.101C543.432 107.743 543.517 107.398 543.687 107.064C543.862 106.73 544.108 106.431 544.425 106.167C544.747 105.904 545.128 105.696 545.567 105.543C546.013 105.391 546.502 105.315 547.035 105.315C547.709 105.315 548.301 105.429 548.811 105.657C549.326 105.88 549.73 106.22 550.023 106.677C550.316 107.128 550.463 107.697 550.463 108.382V113.031C550.463 113.36 550.486 113.699 550.533 114.051C550.58 114.403 550.65 114.687 550.744 114.904V115H549.804C549.733 114.783 549.681 114.517 549.646 114.2C549.61 113.878 549.593 113.568 549.593 113.269ZM549.83 109.533L549.848 110.245H547.659C547.091 110.245 546.584 110.298 546.139 110.404C545.699 110.503 545.324 110.65 545.014 110.843C544.709 111.036 544.475 111.271 544.311 111.546C544.146 111.816 544.064 112.12 544.064 112.46C544.064 112.812 544.155 113.134 544.337 113.427C544.519 113.72 544.776 113.954 545.11 114.13C545.45 114.3 545.846 114.385 546.297 114.385C546.906 114.385 547.445 114.277 547.914 114.06C548.389 113.843 548.781 113.553 549.092 113.19C549.402 112.821 549.622 112.407 549.751 111.95L550.129 112.504C550.041 112.803 549.895 113.111 549.689 113.427C549.484 113.738 549.218 114.025 548.89 114.288C548.562 114.552 548.175 114.766 547.729 114.93C547.29 115.094 546.786 115.176 546.218 115.176C545.608 115.176 545.075 115.062 544.618 114.833C544.167 114.599 543.815 114.282 543.563 113.884C543.317 113.48 543.194 113.023 543.194 112.513C543.194 112.062 543.294 111.655 543.493 111.291C543.692 110.922 543.979 110.609 544.354 110.351C544.729 110.087 545.187 109.885 545.726 109.744C546.265 109.604 546.871 109.533 547.545 109.533H549.83ZM554.339 101.5V115H553.469V101.5H554.339ZM563.04 112.601C563.04 112.337 562.97 112.073 562.829 111.81C562.688 111.54 562.428 111.294 562.047 111.072C561.666 110.843 561.109 110.653 560.377 110.5C559.85 110.383 559.381 110.254 558.971 110.114C558.561 109.967 558.215 109.791 557.934 109.586C557.658 109.381 557.447 109.138 557.301 108.857C557.16 108.57 557.09 108.233 557.09 107.846C557.09 107.494 557.166 107.166 557.318 106.862C557.471 106.557 557.69 106.29 557.978 106.062C558.265 105.827 558.61 105.646 559.015 105.517C559.425 105.382 559.885 105.315 560.395 105.315C561.121 105.315 561.742 105.438 562.258 105.684C562.773 105.924 563.169 106.255 563.444 106.677C563.726 107.099 563.866 107.579 563.866 108.118H562.996C562.996 107.767 562.894 107.439 562.688 107.134C562.489 106.823 562.196 106.572 561.81 106.378C561.423 106.179 560.951 106.079 560.395 106.079C559.814 106.079 559.346 106.167 558.988 106.343C558.631 106.519 558.37 106.739 558.206 107.002C558.042 107.266 557.96 107.538 557.96 107.82C557.96 108.042 557.992 108.244 558.057 108.426C558.127 108.608 558.256 108.778 558.443 108.936C558.631 109.094 558.897 109.243 559.243 109.384C559.595 109.519 560.049 109.651 560.605 109.78C561.373 109.949 561.997 110.157 562.478 110.404C562.964 110.644 563.321 110.94 563.55 111.291C563.784 111.643 563.901 112.068 563.901 112.566C563.901 112.952 563.819 113.307 563.655 113.629C563.497 113.946 563.266 114.221 562.961 114.455C562.662 114.684 562.299 114.863 561.871 114.991C561.449 115.115 560.978 115.176 560.456 115.176C559.659 115.176 558.988 115.047 558.443 114.789C557.898 114.531 557.485 114.192 557.204 113.77C556.923 113.348 556.782 112.894 556.782 112.407H557.652C557.688 112.917 557.849 113.319 558.136 113.612C558.429 113.905 558.783 114.113 559.199 114.236C559.621 114.353 560.04 114.411 560.456 114.411C561.019 114.411 561.49 114.326 561.871 114.156C562.258 113.981 562.548 113.755 562.741 113.48C562.94 113.204 563.04 112.911 563.04 112.601Z" fill="white"/>
<mask id="path-7-outside-1_448_2340" maskUnits="userSpaceOnUse" x="3" y="48.0002" width="44" height="82" fill="black">
<rect fill="white" x="3" y="48.0002" width="44" height="82"/>
<path d="M41.3164 53.9065V125H24.8613V72.4612L8.65039 77.1975V64.6975L39.8027 53.9065H41.3164Z"/>
</mask>
<path d="M41.3164 53.9065H46.3164V48.9065H41.3164V53.9065ZM41.3164 125V130H46.3164V125H41.3164ZM24.8613 125H19.8613V130H24.8613V125ZM24.8613 72.4612H29.8613V65.7913L23.4591 67.6618L24.8613 72.4612ZM8.65039 77.1975H3.65039V83.8674L10.0526 81.9969L8.65039 77.1975ZM8.65039 64.6975L7.01382 59.9729L3.65039 61.138V64.6975H8.65039ZM39.8027 53.9065V48.9065H38.9613L38.1662 49.1819L39.8027 53.9065ZM41.3164 53.9065H36.3164V125H41.3164H46.3164V53.9065H41.3164ZM41.3164 125V120H24.8613V125V130H41.3164V125ZM24.8613 125H29.8613V72.4612H24.8613H19.8613V125H24.8613ZM24.8613 72.4612L23.4591 67.6618L7.24817 72.3982L8.65039 77.1975L10.0526 81.9969L26.2635 77.2605L24.8613 72.4612ZM8.65039 77.1975H13.6504V64.6975H8.65039H3.65039V77.1975H8.65039ZM8.65039 64.6975L10.287 69.4221L41.4393 58.6311L39.8027 53.9065L38.1662 49.1819L7.01382 59.9729L8.65039 64.6975ZM39.8027 53.9065V58.9065H41.3164V53.9065V48.9065H39.8027V53.9065Z" fill="#1A5069" mask="url(#path-7-outside-1_448_2340)"/>
<defs>
<radialGradient id="paint0_radial_448_2340" cx="0" cy="0" r="1" gradientUnits="userSpaceOnUse" gradientTransform="translate(96.2629 367.631) scale(96.2629 367.631)">
<stop stop-color="#1A5069"/>
<stop offset="1" stop-color="#0F7BAE" stop-opacity="0"/>
</radialGradient>
<radialGradient id="paint1_radial_448_2340" cx="0" cy="0" r="1" gradientUnits="userSpaceOnUse" gradientTransform="translate(96.2629 367.631) scale(96.2629 367.631)">
<stop stop-color="#1A5069"/>
<stop offset="1" stop-color="#0F7BAE" stop-opacity="0"/>
</radialGradient>
</defs>
</svg>
