<svg width="798" height="180" viewBox="0 0 798 180" fill="none" xmlns="http://www.w3.org/2000/svg">
<mask id="mask0_448_2351" style="mask-type:alpha" maskUnits="userSpaceOnUse" x="71" y="0" width="727" height="180">
<rect x="-1.00159" y="0.995166" width="174.036" height="724.019" rx="87.0179" transform="matrix(-0.00160036 0.999999 -0.999988 -0.00483255 797.285 5.51011)" fill="black" stroke="#136A93" stroke-width="2"/>
</mask>
<g mask="url(#mask0_448_2351)">
<rect width="192.526" height="735.262" rx="47.5" transform="matrix(-0.00160036 0.999999 -0.999988 -0.00483255 1072.4 68.4429)" fill="url(#paint0_radial_448_2351)" fill-opacity="0.74"/>
<rect width="192.526" height="735.262" rx="47.5" transform="matrix(-0.00160036 0.999999 -0.999988 -0.00483255 531.426 -57.9541)" fill="url(#paint1_radial_448_2351)" fill-opacity="0.74"/>
</g>
<rect x="74.293" y="1.54663" width="722.708" height="175.235" rx="87.6177" fill="#D9D9D9" fill-opacity="0.14" stroke="#136A93" stroke-width="2"/>
<path d="M231.287 57.8943L224.194 79.0002H219.221L228.518 54.1174H231.697L231.287 57.8943ZM237.217 79.0002L230.09 57.8943L229.663 54.1174H232.859L242.207 79.0002H237.217ZM236.892 69.7546V73.4631H223.545V69.7546H236.892ZM249.528 54.1174V79.0002H244.828V54.1174H249.528ZM264.71 54.1174L255.311 81.1365H251.875L261.275 54.1174H264.71ZM277.329 57.8943L270.236 79.0002H265.263L274.56 54.1174H277.739L277.329 57.8943ZM283.259 79.0002L276.132 57.8943L275.705 54.1174H278.901L288.249 79.0002H283.259ZM282.934 69.7546V73.4631H269.587V69.7546H282.934ZM301.021 74.6082V60.509H305.567V79.0002H301.295L301.021 74.6082ZM301.603 70.78L303.004 70.7458C303.004 71.9877 302.867 73.1327 302.594 74.1809C302.32 75.2291 301.893 76.1405 301.312 76.9153C300.742 77.6786 300.019 78.2768 299.142 78.7097C298.264 79.1313 297.228 79.342 296.031 79.342C295.12 79.342 294.288 79.2167 293.536 78.9661C292.784 78.704 292.135 78.2996 291.588 77.7527C291.052 77.1944 290.637 76.4823 290.34 75.6165C290.044 74.7392 289.896 73.6853 289.896 72.4548V60.509H294.408V72.489C294.408 73.1042 294.476 73.6169 294.613 74.0271C294.761 74.4373 294.96 74.7734 295.211 75.0354C295.473 75.2861 295.775 75.4683 296.117 75.5823C296.47 75.6848 296.846 75.7361 297.245 75.7361C298.338 75.7361 299.199 75.5196 299.825 75.0867C300.463 74.6423 300.919 74.0499 301.192 73.3093C301.466 72.5574 301.603 71.7143 301.603 70.78ZM318.066 60.509V63.7561H307.471V60.509H318.066ZM310.308 55.9631H314.836V73.6682C314.836 74.2151 314.91 74.6366 315.059 74.9329C315.207 75.2291 315.429 75.4285 315.725 75.531C316.021 75.6335 316.375 75.6848 316.785 75.6848C317.081 75.6848 317.354 75.6677 317.605 75.6335C317.856 75.5994 318.066 75.5652 318.237 75.531L318.254 78.9148C317.878 79.0401 317.451 79.1427 316.973 79.2224C316.506 79.3022 315.976 79.342 315.383 79.342C314.369 79.342 313.481 79.1711 312.717 78.8293C311.954 78.4762 311.361 77.9122 310.94 77.1375C310.518 76.3513 310.308 75.3145 310.308 74.0271V55.9631ZM319.577 69.9426V69.5837C319.577 68.2279 319.77 66.9804 320.158 65.8411C320.545 64.6903 321.109 63.6934 321.85 62.8503C322.59 62.0072 323.496 61.3521 324.567 60.885C325.638 60.4065 326.857 60.1672 328.224 60.1672C329.614 60.1672 330.845 60.4065 331.916 60.885C332.998 61.3521 333.909 62.0072 334.65 62.8503C335.39 63.6934 335.954 64.6903 336.342 65.8411C336.729 66.9804 336.923 68.2279 336.923 69.5837V69.9426C336.923 71.287 336.729 72.5346 336.342 73.6853C335.954 74.8246 335.39 75.8215 334.65 76.676C333.909 77.5191 333.004 78.1742 331.933 78.6414C330.862 79.1085 329.637 79.342 328.258 79.342C326.891 79.342 325.666 79.1085 324.584 78.6414C323.502 78.1742 322.59 77.5191 321.85 76.676C321.109 75.8215 320.545 74.8246 320.158 73.6853C319.77 72.5346 319.577 71.287 319.577 69.9426ZM324.088 69.5837V69.9426C324.088 70.7515 324.168 71.5092 324.328 72.2156C324.487 72.922 324.732 73.5429 325.062 74.0784C325.393 74.6139 325.82 75.0354 326.344 75.343C326.88 75.6392 327.518 75.7874 328.258 75.7874C328.987 75.7874 329.614 75.6392 330.138 75.343C330.662 75.0354 331.09 74.6139 331.42 74.0784C331.762 73.5429 332.012 72.922 332.172 72.2156C332.331 71.5092 332.411 70.7515 332.411 69.9426V69.5837C332.411 68.7862 332.331 68.04 332.172 67.345C332.012 66.6386 331.762 66.0177 331.42 65.4822C331.09 64.9353 330.657 64.5081 330.121 64.2004C329.597 63.8814 328.965 63.7219 328.224 63.7219C327.495 63.7219 326.868 63.8814 326.344 64.2004C325.82 64.5081 325.393 64.9353 325.062 65.4822C324.732 66.0177 324.487 66.6386 324.328 67.345C324.168 68.04 324.088 68.7862 324.088 69.5837ZM344.449 64.303V79.0002H339.937V60.509H344.192L344.449 64.303ZM343.782 69.0881H342.398C342.398 67.8007 342.552 66.6158 342.859 65.5334C343.178 64.4511 343.646 63.5111 344.261 62.7136C344.876 61.9047 345.634 61.2781 346.534 60.8337C347.445 60.3894 348.499 60.1672 349.695 60.1672C350.527 60.1672 351.29 60.2926 351.985 60.5432C352.68 60.7825 353.278 61.1641 353.78 61.6882C354.292 62.2009 354.686 62.8731 354.959 63.7048C355.232 64.5251 355.369 65.5107 355.369 66.6614V79.0002H350.857V67.1228C350.857 66.2569 350.732 65.579 350.481 65.0891C350.242 64.5992 349.895 64.2574 349.439 64.0637C348.983 63.8586 348.436 63.7561 347.798 63.7561C347.092 63.7561 346.482 63.8985 345.97 64.1833C345.468 64.4568 345.053 64.8385 344.722 65.3284C344.403 65.8183 344.164 66.3822 344.004 67.0203C343.856 67.6583 343.782 68.3476 343.782 69.0881ZM355.027 68.2507L353.165 68.5925C353.176 67.4304 353.335 66.3424 353.643 65.3284C353.951 64.303 354.401 63.4086 354.993 62.6453C355.597 61.8705 356.343 61.2667 357.232 60.8337C358.132 60.3894 359.169 60.1672 360.342 60.1672C361.254 60.1672 362.074 60.2983 362.803 60.5603C363.544 60.811 364.176 61.2154 364.7 61.7737C365.224 62.3206 365.623 63.0326 365.896 63.9099C366.181 64.7872 366.324 65.8582 366.324 67.1228V79.0002H361.778V67.1057C361.778 66.2056 361.653 65.5164 361.402 65.0378C361.163 64.5593 360.815 64.2289 360.359 64.0466C359.904 63.8529 359.368 63.7561 358.753 63.7561C358.126 63.7561 357.579 63.8757 357.112 64.115C356.657 64.3429 356.269 64.6619 355.95 65.072C355.643 65.4822 355.409 65.9607 355.25 66.5076C355.101 67.0431 355.027 67.6241 355.027 68.2507ZM380.31 75.0696V66.5417C380.31 65.9151 380.201 65.3739 379.985 64.9182C379.768 64.4625 379.438 64.1093 378.994 63.8586C378.549 63.608 377.985 63.4827 377.302 63.4827C376.698 63.4827 376.168 63.5852 375.712 63.7903C375.268 63.9954 374.926 64.2859 374.687 64.6619C374.448 65.0264 374.328 65.448 374.328 65.9265H369.799C369.799 65.1632 369.982 64.4397 370.346 63.7561C370.711 63.0611 371.229 62.4459 371.901 61.9104C372.585 61.3635 373.4 60.9363 374.345 60.6287C375.302 60.321 376.373 60.1672 377.558 60.1672C378.959 60.1672 380.207 60.4065 381.301 60.885C382.406 61.3521 383.272 62.0585 383.898 63.0042C384.536 63.9498 384.855 65.1404 384.855 66.5759V74.6423C384.855 75.5652 384.912 76.357 385.026 77.0178C385.152 77.6672 385.334 78.2312 385.573 78.7097V79.0002H380.976C380.76 78.5331 380.594 77.9407 380.48 77.2229C380.367 76.4937 380.31 75.776 380.31 75.0696ZM380.942 67.738L380.976 70.4211H378.122C377.416 70.4211 376.795 70.4952 376.259 70.6433C375.724 70.78 375.285 70.9851 374.943 71.2585C374.602 71.5206 374.345 71.8396 374.174 72.2156C374.003 72.5802 373.918 72.996 373.918 73.4631C373.918 73.9189 374.021 74.329 374.226 74.6936C374.442 75.0582 374.75 75.3487 375.148 75.5652C375.559 75.7703 376.037 75.8728 376.584 75.8728C377.382 75.8728 378.076 75.7133 378.669 75.3943C379.261 75.0639 379.723 74.6651 380.053 74.198C380.384 73.7309 380.56 73.2865 380.583 72.865L381.882 74.8132C381.722 75.2804 381.483 75.776 381.164 76.3C380.845 76.8241 380.435 77.314 379.934 77.7698C379.432 78.2255 378.828 78.6015 378.122 78.8977C377.416 79.1939 376.595 79.342 375.661 79.342C374.465 79.342 373.394 79.1028 372.448 78.6243C371.503 78.1458 370.756 77.4906 370.209 76.6589C369.663 75.8272 369.389 74.8816 369.389 73.822C369.389 72.8422 369.571 71.9763 369.936 71.2244C370.301 70.4724 370.842 69.8401 371.56 69.3274C372.277 68.8033 373.166 68.4102 374.226 68.1482C375.297 67.8748 376.521 67.738 377.9 67.738H380.942ZM397.423 60.509V63.7561H386.827V60.509H397.423ZM389.664 55.9631H394.193V73.6682C394.193 74.2151 394.267 74.6366 394.415 74.9329C394.563 75.2291 394.785 75.4285 395.082 75.531C395.378 75.6335 395.731 75.6848 396.141 75.6848C396.437 75.6848 396.711 75.6677 396.961 75.6335C397.212 75.5994 397.423 75.5652 397.594 75.531L397.611 78.9148C397.235 79.0401 396.808 79.1427 396.329 79.2224C395.862 79.3022 395.332 79.342 394.74 79.342C393.726 79.342 392.837 79.1711 392.074 78.8293C391.31 78.4762 390.718 77.9122 390.296 77.1375C389.875 76.3513 389.664 75.3145 389.664 74.0271V55.9631ZM404.966 60.509V79.0002H400.437V60.509H404.966ZM400.129 55.6726C400.129 55.0004 400.357 54.4421 400.813 53.9978C401.28 53.5535 401.907 53.3313 402.693 53.3313C403.479 53.3313 404.1 53.5535 404.556 53.9978C405.023 54.4421 405.256 55.0004 405.256 55.6726C405.256 56.3334 405.023 56.886 404.556 57.3303C404.1 57.7747 403.479 57.9968 402.693 57.9968C401.907 57.9968 401.28 57.7747 400.813 57.3303C400.357 56.886 400.129 56.3334 400.129 55.6726ZM408.219 69.9426V69.5837C408.219 68.2279 408.413 66.9804 408.8 65.8411C409.188 64.6903 409.752 63.6934 410.492 62.8503C411.233 62.0072 412.139 61.3521 413.209 60.885C414.28 60.4065 415.5 60.1672 416.867 60.1672C418.257 60.1672 419.487 60.4065 420.558 60.885C421.64 61.3521 422.552 62.0072 423.292 62.8503C424.033 63.6934 424.597 64.6903 424.984 65.8411C425.372 66.9804 425.565 68.2279 425.565 69.5837V69.9426C425.565 71.287 425.372 72.5346 424.984 73.6853C424.597 74.8246 424.033 75.8215 423.292 76.676C422.552 77.5191 421.646 78.1742 420.575 78.6414C419.504 79.1085 418.279 79.342 416.901 79.342C415.534 79.342 414.309 79.1085 413.227 78.6414C412.144 78.1742 411.233 77.5191 410.492 76.676C409.752 75.8215 409.188 74.8246 408.8 73.6853C408.413 72.5346 408.219 71.287 408.219 69.9426ZM412.731 69.5837V69.9426C412.731 70.7515 412.811 71.5092 412.97 72.2156C413.13 72.922 413.375 73.5429 413.705 74.0784C414.035 74.6139 414.463 75.0354 414.987 75.343C415.522 75.6392 416.16 75.7874 416.901 75.7874C417.63 75.7874 418.257 75.6392 418.781 75.343C419.305 75.0354 419.732 74.6139 420.062 74.0784C420.404 73.5429 420.655 72.922 420.814 72.2156C420.974 71.5092 421.054 70.7515 421.054 69.9426V69.5837C421.054 68.7862 420.974 68.04 420.814 67.345C420.655 66.6386 420.404 66.0177 420.062 65.4822C419.732 64.9353 419.299 64.5081 418.764 64.2004C418.24 63.8814 417.607 63.7219 416.867 63.7219C416.138 63.7219 415.511 63.8814 414.987 64.2004C414.463 64.5081 414.035 64.9353 413.705 65.4822C413.375 66.0177 413.13 66.6386 412.97 67.345C412.811 68.04 412.731 68.7862 412.731 69.5837ZM433.023 64.4568V79.0002H428.511V60.509H432.75L433.023 64.4568ZM432.305 69.0881H430.972C430.984 67.7437 431.166 66.5247 431.519 65.4309C431.872 64.3372 432.368 63.3972 433.006 62.6111C433.655 61.825 434.424 61.2211 435.313 60.7996C436.202 60.378 437.193 60.1672 438.287 60.1672C439.175 60.1672 439.979 60.2926 440.696 60.5432C441.414 60.7939 442.029 61.1926 442.542 61.7395C443.066 62.2864 443.465 63.0042 443.738 63.8928C444.023 64.7701 444.166 65.8525 444.166 67.1399V79.0002H439.62V67.1057C439.62 66.2626 439.494 65.5961 439.244 65.1062C439.004 64.6163 438.651 64.2688 438.184 64.0637C437.728 63.8586 437.164 63.7561 436.492 63.7561C435.797 63.7561 435.188 63.8985 434.664 64.1833C434.151 64.4568 433.718 64.8385 433.365 65.3284C433.023 65.8183 432.761 66.3822 432.579 67.0203C432.396 67.6583 432.305 68.3476 432.305 69.0881ZM464.139 79.0002H458.773L458.807 75.3088H464.139C465.586 75.3088 466.799 74.9898 467.779 74.3518C468.759 73.7024 469.5 72.7738 470.001 71.5662C470.502 70.3471 470.753 68.8888 470.753 67.1912V65.9094C470.753 64.5992 470.611 63.4428 470.326 62.4402C470.041 61.4376 469.619 60.5945 469.061 59.9109C468.514 59.2273 467.836 58.7089 467.027 58.3557C466.218 58.0025 465.29 57.8259 464.242 57.8259H458.67V54.1174H464.242C465.905 54.1174 467.42 54.3966 468.788 54.9548C470.166 55.5131 471.357 56.3163 472.359 57.3645C473.373 58.4013 474.148 59.6431 474.684 61.0901C475.23 62.537 475.504 64.1549 475.504 65.9436V67.1912C475.504 68.9685 475.23 70.5863 474.684 72.0447C474.148 73.4916 473.373 74.7335 472.359 75.7703C471.357 76.807 470.16 77.6046 468.771 78.1628C467.381 78.7211 465.837 79.0002 464.139 79.0002ZM461.405 54.1174V79.0002H456.705V54.1174H461.405ZM487.217 79.342C485.815 79.342 484.556 79.1142 483.44 78.6584C482.323 78.2027 481.372 77.5704 480.586 76.7615C479.811 75.9412 479.213 74.9898 478.792 73.9075C478.381 72.8137 478.176 71.6402 478.176 70.387V69.7034C478.176 68.2792 478.381 66.9861 478.792 65.824C479.202 64.6505 479.783 63.6422 480.535 62.7991C481.287 61.956 482.187 61.3066 483.235 60.8508C484.283 60.3951 485.439 60.1672 486.704 60.1672C488.014 60.1672 489.171 60.3894 490.173 60.8337C491.176 61.2667 492.013 61.8819 492.686 62.6794C493.358 63.477 493.865 64.434 494.207 65.5505C494.548 66.6557 494.719 67.8805 494.719 69.2249V71.1218H480.227V68.0115H490.276V67.6697C490.253 66.9519 490.116 66.2968 489.866 65.7043C489.615 65.1005 489.228 64.622 488.704 64.2688C488.18 63.9042 487.502 63.7219 486.67 63.7219C485.998 63.7219 485.411 63.87 484.91 64.1663C484.42 64.4511 484.01 64.8612 483.679 65.3967C483.36 65.9208 483.121 66.5474 482.961 67.2766C482.802 68.0058 482.722 68.8147 482.722 69.7034V70.387C482.722 71.1617 482.825 71.8795 483.03 72.5403C483.246 73.2011 483.56 73.7764 483.97 74.2664C484.391 74.7449 484.893 75.1208 485.474 75.3943C486.066 75.6563 486.738 75.7874 487.49 75.7874C488.436 75.7874 489.29 75.6051 490.054 75.2405C490.828 74.8645 491.501 74.3119 492.07 73.5828L494.343 75.9412C493.956 76.5108 493.432 77.0577 492.771 77.5818C492.122 78.1059 491.335 78.5331 490.413 78.8635C489.49 79.1825 488.424 79.342 487.217 79.342ZM502.006 64.0637V86.1096H497.477V60.509H501.664L502.006 64.0637ZM513.883 69.5667V69.9255C513.883 71.2699 513.724 72.5175 513.405 73.6682C513.097 74.8075 512.641 75.8044 512.038 76.6589C511.434 77.502 510.682 78.1628 509.782 78.6414C508.893 79.1085 507.868 79.342 506.706 79.342C505.566 79.342 504.575 79.1256 503.732 78.6926C502.889 78.2483 502.177 77.6217 501.596 76.8127C501.015 76.0038 500.548 75.0639 500.194 73.9929C499.853 72.9106 499.596 71.7314 499.425 70.4553V69.3103C499.596 67.9545 499.853 66.724 500.194 65.6189C500.548 64.5024 501.015 63.5396 501.596 62.7307C502.177 61.9104 502.883 61.2781 503.715 60.8337C504.558 60.3894 505.543 60.1672 506.671 60.1672C507.845 60.1672 508.876 60.3894 509.765 60.8337C510.665 61.2781 511.422 61.9161 512.038 62.7478C512.653 63.5795 513.114 64.5707 513.422 65.7214C513.729 66.8722 513.883 68.1539 513.883 69.5667ZM509.354 69.9255V69.5667C509.354 68.7463 509.28 67.9887 509.132 67.2937C508.984 66.5873 508.756 65.9721 508.449 65.448C508.141 64.9125 507.742 64.4967 507.252 64.2004C506.763 63.9042 506.17 63.7561 505.475 63.7561C504.78 63.7561 504.182 63.87 503.681 64.0979C503.179 64.3258 502.769 64.6505 502.45 65.072C502.131 65.4936 501.881 65.9949 501.698 66.5759C501.527 67.1456 501.413 67.7779 501.356 68.4729V71.3098C501.459 72.1529 501.658 72.9106 501.955 73.5828C502.251 74.255 502.684 74.7904 503.253 75.1892C503.834 75.588 504.586 75.7874 505.509 75.7874C506.204 75.7874 506.797 75.6335 507.287 75.3259C507.777 75.0183 508.175 74.5968 508.483 74.0613C508.791 73.5144 509.013 72.8878 509.149 72.1814C509.286 71.475 509.354 70.7231 509.354 69.9255ZM521.717 52.7502V79.0002H517.188V52.7502H521.717ZM524.97 69.9426V69.5837C524.97 68.2279 525.164 66.9804 525.551 65.8411C525.939 64.6903 526.503 63.6934 527.243 62.8503C527.984 62.0072 528.889 61.3521 529.96 60.885C531.031 60.4065 532.25 60.1672 533.618 60.1672C535.008 60.1672 536.238 60.4065 537.309 60.885C538.391 61.3521 539.303 62.0072 540.043 62.8503C540.784 63.6934 541.348 64.6903 541.735 65.8411C542.123 66.9804 542.316 68.2279 542.316 69.5837V69.9426C542.316 71.287 542.123 72.5346 541.735 73.6853C541.348 74.8246 540.784 75.8215 540.043 76.676C539.303 77.5191 538.397 78.1742 537.326 78.6414C536.255 79.1085 535.03 79.342 533.652 79.342C532.285 79.342 531.06 79.1085 529.978 78.6414C528.895 78.1742 527.984 77.5191 527.243 76.676C526.503 75.8215 525.939 74.8246 525.551 73.6853C525.164 72.5346 524.97 71.287 524.97 69.9426ZM529.482 69.5837V69.9426C529.482 70.7515 529.562 71.5092 529.721 72.2156C529.881 72.922 530.126 73.5429 530.456 74.0784C530.786 74.6139 531.214 75.0354 531.738 75.343C532.273 75.6392 532.911 75.7874 533.652 75.7874C534.381 75.7874 535.008 75.6392 535.532 75.343C536.056 75.0354 536.483 74.6139 536.813 74.0784C537.155 73.5429 537.406 72.922 537.565 72.2156C537.725 71.5092 537.805 70.7515 537.805 69.9426V69.5837C537.805 68.7862 537.725 68.04 537.565 67.345C537.406 66.6386 537.155 66.0177 536.813 65.4822C536.483 64.9353 536.05 64.5081 535.515 64.2004C534.991 63.8814 534.358 63.7219 533.618 63.7219C532.889 63.7219 532.262 63.8814 531.738 64.2004C531.214 64.5081 530.786 64.9353 530.456 65.4822C530.126 66.0177 529.881 66.6386 529.721 67.345C529.562 68.04 529.482 68.7862 529.482 69.5837ZM550.492 76.9495L555.448 60.509H560.284L552.867 81.803C552.696 82.2587 552.474 82.7543 552.201 83.2898C551.939 83.8253 551.585 84.3323 551.141 84.8108C550.697 85.3007 550.139 85.6995 549.466 86.0071C548.806 86.3147 548.002 86.4685 547.057 86.4685C546.646 86.4685 546.282 86.44 545.963 86.3831C545.644 86.3261 545.308 86.252 544.955 86.1609V82.7771C545.069 82.7885 545.2 82.7942 545.348 82.7942C545.507 82.8056 545.644 82.8113 545.758 82.8113C546.419 82.8113 546.965 82.7315 547.398 82.572C547.831 82.4239 548.179 82.179 548.441 81.8372C548.714 81.5068 548.942 81.0738 549.125 80.5383L550.492 76.9495ZM548.048 60.509L552.235 74.1296L552.97 78.8977L549.859 79.4617L543.177 60.509H548.048ZM566.716 64.303V79.0002H562.205V60.509H566.46L566.716 64.303ZM566.05 69.0881H564.666C564.666 67.8007 564.819 66.6158 565.127 65.5334C565.446 64.4511 565.913 63.5111 566.528 62.7136C567.144 61.9047 567.901 61.2781 568.801 60.8337C569.713 60.3894 570.767 60.1672 571.963 60.1672C572.795 60.1672 573.558 60.2926 574.253 60.5432C574.948 60.7825 575.546 61.1641 576.047 61.6882C576.56 62.2009 576.953 62.8731 577.227 63.7048C577.5 64.5251 577.637 65.5107 577.637 66.6614V79.0002H573.125V67.1228C573.125 66.2569 573 65.579 572.749 65.0891C572.51 64.5992 572.162 64.2574 571.707 64.0637C571.251 63.8586 570.704 63.7561 570.066 63.7561C569.36 63.7561 568.75 63.8985 568.237 64.1833C567.736 64.4568 567.32 64.8385 566.99 65.3284C566.671 65.8183 566.431 66.3822 566.272 67.0203C566.124 67.6583 566.05 68.3476 566.05 69.0881ZM577.295 68.2507L575.432 68.5925C575.444 67.4304 575.603 66.3424 575.911 65.3284C576.218 64.303 576.668 63.4086 577.261 62.6453C577.865 61.8705 578.611 61.2667 579.5 60.8337C580.4 60.3894 581.436 60.1672 582.61 60.1672C583.521 60.1672 584.342 60.2983 585.071 60.5603C585.811 60.811 586.444 61.2154 586.968 61.7737C587.492 62.3206 587.891 63.0326 588.164 63.9099C588.449 64.7872 588.591 65.8582 588.591 67.1228V79.0002H584.045V67.1057C584.045 66.2056 583.92 65.5164 583.669 65.0378C583.43 64.5593 583.083 64.2289 582.627 64.0466C582.171 63.8529 581.636 63.7561 581.021 63.7561C580.394 63.7561 579.847 63.8757 579.38 64.115C578.924 64.3429 578.537 64.6619 578.218 65.072C577.91 65.4822 577.677 65.9607 577.517 66.5076C577.369 67.0431 577.295 67.6241 577.295 68.2507ZM600.697 79.342C599.296 79.342 598.037 79.1142 596.92 78.6584C595.804 78.2027 594.853 77.5704 594.066 76.7615C593.292 75.9412 592.694 74.9898 592.272 73.9075C591.862 72.8137 591.657 71.6402 591.657 70.387V69.7034C591.657 68.2792 591.862 66.9861 592.272 65.824C592.682 64.6505 593.263 63.6422 594.015 62.7991C594.767 61.956 595.667 61.3066 596.715 60.8508C597.764 60.3951 598.92 60.1672 600.185 60.1672C601.495 60.1672 602.651 60.3894 603.654 60.8337C604.656 61.2667 605.494 61.8819 606.166 62.6794C606.838 63.477 607.345 64.434 607.687 65.5505C608.029 66.6557 608.2 67.8805 608.2 69.2249V71.1218H593.708V68.0115H603.756V67.6697C603.734 66.9519 603.597 66.2968 603.346 65.7043C603.096 65.1005 602.708 64.622 602.184 64.2688C601.66 63.9042 600.982 63.7219 600.15 63.7219C599.478 63.7219 598.891 63.87 598.39 64.1663C597.9 64.4511 597.49 64.8612 597.16 65.3967C596.841 65.9208 596.601 66.5474 596.442 67.2766C596.282 68.0058 596.203 68.8147 596.203 69.7034V70.387C596.203 71.1617 596.305 71.8795 596.51 72.5403C596.727 73.2011 597.04 73.7764 597.45 74.2664C597.872 74.7449 598.373 75.1208 598.954 75.3943C599.547 75.6563 600.219 75.7874 600.971 75.7874C601.916 75.7874 602.771 75.6051 603.534 75.2405C604.309 74.8645 604.981 74.3119 605.551 73.5828L607.824 75.9412C607.436 76.5108 606.912 77.0577 606.251 77.5818C605.602 78.1059 604.816 78.5331 603.893 78.8635C602.97 79.1825 601.905 79.342 600.697 79.342ZM615.401 64.4568V79.0002H610.889V60.509H615.127L615.401 64.4568ZM614.683 69.0881H613.35C613.361 67.7437 613.544 66.5247 613.897 65.4309C614.25 64.3372 614.746 63.3972 615.384 62.6111C616.033 61.825 616.802 61.2211 617.691 60.7996C618.58 60.378 619.571 60.1672 620.665 60.1672C621.553 60.1672 622.356 60.2926 623.074 60.5432C623.792 60.7939 624.407 61.1926 624.92 61.7395C625.444 62.2864 625.843 63.0042 626.116 63.8928C626.401 64.7701 626.543 65.8525 626.543 67.1399V79.0002H621.998V67.1057C621.998 66.2626 621.872 65.5961 621.622 65.1062C621.382 64.6163 621.029 64.2688 620.562 64.0637C620.106 63.8586 619.542 63.7561 618.87 63.7561C618.175 63.7561 617.566 63.8985 617.042 64.1833C616.529 64.4568 616.096 64.8385 615.743 65.3284C615.401 65.8183 615.139 66.3822 614.957 67.0203C614.774 67.6583 614.683 68.3476 614.683 69.0881ZM639.025 60.509V63.7561H628.43V60.509H639.025ZM631.267 55.9631H635.795V73.6682C635.795 74.2151 635.869 74.6366 636.018 74.9329C636.166 75.2291 636.388 75.4285 636.684 75.531C636.98 75.6335 637.333 75.6848 637.744 75.6848C638.04 75.6848 638.313 75.6677 638.564 75.6335C638.815 75.5994 639.025 75.5652 639.196 75.531L639.213 78.9148C638.837 79.0401 638.41 79.1427 637.932 79.2224C637.465 79.3022 636.935 79.342 636.342 79.342C635.328 79.342 634.44 79.1711 633.676 78.8293C632.913 78.4762 632.32 77.9122 631.899 77.1375C631.477 76.3513 631.267 75.3145 631.267 74.0271V55.9631Z" fill="#EDD5B1"/>
<path d="M244.412 102.203V115H243.524V102.203H244.412ZM248.569 107.477V115H247.69V105.49H248.543L248.569 107.477ZM248.42 109.586L247.989 109.243C248.03 108.716 248.142 108.215 248.323 107.74C248.511 107.266 248.766 106.847 249.088 106.484C249.41 106.12 249.791 105.836 250.23 105.631C250.676 105.42 251.177 105.315 251.733 105.315C252.202 105.315 252.624 105.379 252.999 105.508C253.38 105.631 253.702 105.827 253.966 106.097C254.229 106.361 254.432 106.706 254.572 107.134C254.719 107.562 254.792 108.074 254.792 108.672V115H253.922V108.698C253.922 108.025 253.819 107.5 253.614 107.125C253.415 106.75 253.134 106.484 252.771 106.325C252.407 106.167 251.988 106.088 251.514 106.088C250.957 106.088 250.485 106.205 250.099 106.44C249.712 106.674 249.396 106.973 249.149 107.336C248.909 107.699 248.73 108.083 248.613 108.488C248.496 108.886 248.432 109.252 248.42 109.586ZM254.783 108.778L254.203 108.698C254.244 108.259 254.358 107.837 254.546 107.433C254.733 107.023 254.988 106.659 255.311 106.343C255.633 106.027 256.017 105.778 256.462 105.596C256.907 105.408 257.402 105.315 257.947 105.315C258.434 105.315 258.867 105.382 259.248 105.517C259.635 105.646 259.96 105.854 260.224 106.141C260.493 106.422 260.695 106.782 260.83 107.222C260.971 107.661 261.041 108.192 261.041 108.813V115H260.171V108.813C260.171 108.098 260.068 107.544 259.863 107.152C259.664 106.753 259.383 106.475 259.02 106.317C258.656 106.158 258.237 106.082 257.763 106.088C257.271 106.094 256.84 106.185 256.471 106.361C256.107 106.536 255.803 106.762 255.557 107.037C255.316 107.307 255.132 107.597 255.003 107.907C254.874 108.212 254.801 108.502 254.783 108.778ZM264.636 107.319V118.656H263.766V105.49H264.583L264.636 107.319ZM271.307 110.157V110.342C271.307 111.057 271.225 111.71 271.061 112.302C270.902 112.888 270.668 113.398 270.357 113.831C270.053 114.259 269.675 114.59 269.224 114.824C268.778 115.059 268.269 115.176 267.694 115.176C267.138 115.176 266.64 115.094 266.2 114.93C265.761 114.76 265.383 114.523 265.066 114.218C264.75 113.907 264.495 113.547 264.302 113.137C264.108 112.727 263.977 112.284 263.906 111.81V108.927C264 108.394 264.146 107.907 264.346 107.468C264.545 107.029 264.8 106.648 265.11 106.325C265.421 106.003 265.79 105.754 266.218 105.578C266.646 105.403 267.132 105.315 267.677 105.315C268.251 105.315 268.764 105.429 269.215 105.657C269.666 105.88 270.047 106.202 270.357 106.624C270.668 107.046 270.902 107.556 271.061 108.154C271.225 108.745 271.307 109.413 271.307 110.157ZM270.428 110.342V110.157C270.428 109.577 270.369 109.041 270.252 108.549C270.135 108.057 269.956 107.629 269.716 107.266C269.481 106.897 269.18 106.61 268.811 106.405C268.447 106.199 268.017 106.097 267.519 106.097C266.985 106.097 266.531 106.185 266.156 106.361C265.787 106.536 265.482 106.768 265.242 107.055C265.008 107.336 264.82 107.641 264.68 107.969C264.545 108.297 264.445 108.614 264.381 108.918V111.889C264.492 112.346 264.677 112.765 264.935 113.146C265.192 113.527 265.535 113.834 265.963 114.069C266.396 114.297 266.921 114.411 267.536 114.411C268.028 114.411 268.456 114.309 268.819 114.104C269.183 113.893 269.481 113.606 269.716 113.242C269.956 112.873 270.135 112.443 270.252 111.95C270.369 111.452 270.428 110.916 270.428 110.342ZM274.717 101.5V115H273.847V101.5H274.717ZM281.265 115.176C280.655 115.176 280.093 115.062 279.577 114.833C279.062 114.605 278.613 114.282 278.232 113.866C277.852 113.445 277.556 112.949 277.345 112.381C277.134 111.807 277.028 111.177 277.028 110.491V110.114C277.028 109.387 277.134 108.731 277.345 108.145C277.562 107.559 277.857 107.055 278.232 106.633C278.613 106.205 279.047 105.88 279.533 105.657C280.02 105.429 280.535 105.315 281.08 105.315C281.654 105.315 282.17 105.42 282.627 105.631C283.09 105.836 283.482 106.129 283.805 106.51C284.127 106.891 284.37 107.342 284.534 107.864C284.704 108.379 284.789 108.95 284.789 109.577V110.193H277.564V109.428H283.919V109.314C283.913 108.745 283.799 108.218 283.576 107.732C283.359 107.24 283.04 106.841 282.618 106.536C282.202 106.232 281.689 106.079 281.08 106.079C280.605 106.079 280.172 106.182 279.779 106.387C279.393 106.586 279.059 106.867 278.777 107.231C278.496 107.588 278.279 108.013 278.127 108.505C277.975 108.991 277.898 109.528 277.898 110.114V110.491C277.898 111.036 277.98 111.546 278.145 112.021C278.314 112.495 278.549 112.911 278.848 113.269C279.152 113.626 279.513 113.907 279.929 114.113C280.345 114.318 280.799 114.42 281.291 114.42C281.848 114.42 282.349 114.321 282.794 114.121C283.239 113.916 283.644 113.579 284.007 113.111L284.561 113.532C284.355 113.837 284.101 114.115 283.796 114.367C283.491 114.614 283.131 114.81 282.715 114.956C282.299 115.103 281.815 115.176 281.265 115.176ZM287.698 107.477V115H286.819V105.49H287.672L287.698 107.477ZM287.549 109.586L287.118 109.243C287.159 108.716 287.271 108.215 287.452 107.74C287.64 107.266 287.895 106.847 288.217 106.484C288.539 106.12 288.92 105.836 289.359 105.631C289.805 105.42 290.306 105.315 290.862 105.315C291.331 105.315 291.753 105.379 292.128 105.508C292.509 105.631 292.831 105.827 293.095 106.097C293.358 106.361 293.561 106.706 293.701 107.134C293.848 107.562 293.921 108.074 293.921 108.672V115H293.051V108.698C293.051 108.025 292.948 107.5 292.743 107.125C292.544 106.75 292.263 106.484 291.899 106.325C291.536 106.167 291.117 106.088 290.643 106.088C290.086 106.088 289.614 106.205 289.228 106.44C288.841 106.674 288.524 106.973 288.278 107.336C288.038 107.699 287.859 108.083 287.742 108.488C287.625 108.886 287.561 109.252 287.549 109.586ZM293.912 108.778L293.332 108.698C293.373 108.259 293.487 107.837 293.675 107.433C293.862 107.023 294.117 106.659 294.439 106.343C294.762 106.027 295.146 105.778 295.591 105.596C296.036 105.408 296.531 105.315 297.076 105.315C297.562 105.315 297.996 105.382 298.377 105.517C298.764 105.646 299.089 105.854 299.353 106.141C299.622 106.422 299.824 106.782 299.959 107.222C300.1 107.661 300.17 108.192 300.17 108.813V115H299.3V108.813C299.3 108.098 299.197 107.544 298.992 107.152C298.793 106.753 298.512 106.475 298.148 106.317C297.785 106.158 297.366 106.082 296.892 106.088C296.399 106.094 295.969 106.185 295.6 106.361C295.236 106.536 294.932 106.762 294.686 107.037C294.445 107.307 294.261 107.597 294.132 107.907C294.003 108.212 293.93 108.502 293.912 108.778ZM306.507 115.176C305.897 115.176 305.335 115.062 304.819 114.833C304.304 114.605 303.855 114.282 303.475 113.866C303.094 113.445 302.798 112.949 302.587 112.381C302.376 111.807 302.271 111.177 302.271 110.491V110.114C302.271 109.387 302.376 108.731 302.587 108.145C302.804 107.559 303.1 107.055 303.475 106.633C303.855 106.205 304.289 105.88 304.775 105.657C305.262 105.429 305.777 105.315 306.322 105.315C306.896 105.315 307.412 105.42 307.869 105.631C308.332 105.836 308.725 106.129 309.047 106.51C309.369 106.891 309.612 107.342 309.776 107.864C309.946 108.379 310.031 108.95 310.031 109.577V110.193H302.807V109.428H309.161V109.314C309.155 108.745 309.041 108.218 308.818 107.732C308.602 107.24 308.282 106.841 307.86 106.536C307.444 106.232 306.932 106.079 306.322 106.079C305.848 106.079 305.414 106.182 305.021 106.387C304.635 106.586 304.301 106.867 304.02 107.231C303.738 107.588 303.521 108.013 303.369 108.505C303.217 108.991 303.141 109.528 303.141 110.114V110.491C303.141 111.036 303.223 111.546 303.387 112.021C303.557 112.495 303.791 112.911 304.09 113.269C304.395 113.626 304.755 113.907 305.171 114.113C305.587 114.318 306.041 114.42 306.533 114.42C307.09 114.42 307.591 114.321 308.036 114.121C308.481 113.916 308.886 113.579 309.249 113.111L309.803 113.532C309.598 113.837 309.343 114.115 309.038 114.367C308.733 114.614 308.373 114.81 307.957 114.956C307.541 115.103 307.058 115.176 306.507 115.176ZM313.002 107.521V115H312.132V105.49H312.976L313.002 107.521ZM312.817 109.586L312.422 109.243C312.463 108.716 312.58 108.215 312.773 107.74C312.967 107.266 313.228 106.847 313.556 106.484C313.884 106.12 314.271 105.836 314.716 105.631C315.161 105.42 315.65 105.315 316.184 105.315C316.658 105.315 317.083 105.379 317.458 105.508C317.833 105.637 318.149 105.842 318.407 106.123C318.671 106.405 318.87 106.768 319.005 107.213C319.146 107.653 319.216 108.189 319.216 108.822V115H318.346V108.813C318.346 108.11 318.246 107.562 318.047 107.169C317.854 106.777 317.581 106.498 317.229 106.334C316.884 106.17 316.474 106.088 315.999 106.088C315.466 106.088 315.003 106.205 314.61 106.44C314.218 106.674 313.89 106.973 313.626 107.336C313.368 107.699 313.172 108.083 313.037 108.488C312.902 108.886 312.829 109.252 312.817 109.586ZM325.5 105.49V106.238H320.842V105.49H325.5ZM322.591 103.012H323.47V112.698C323.47 113.172 323.528 113.532 323.646 113.779C323.769 114.019 323.93 114.18 324.129 114.262C324.328 114.344 324.542 114.385 324.771 114.385C324.935 114.385 325.087 114.376 325.228 114.359C325.374 114.341 325.515 114.321 325.649 114.297L325.702 115.044C325.573 115.085 325.406 115.117 325.201 115.141C324.996 115.164 324.803 115.176 324.621 115.176C324.217 115.176 323.862 115.103 323.558 114.956C323.253 114.804 323.016 114.549 322.846 114.192C322.676 113.828 322.591 113.33 322.591 112.698V103.012ZM335.625 105.49V106.238H330.967V105.49H335.625ZM332.716 103.012H333.595V112.698C333.595 113.172 333.653 113.532 333.771 113.779C333.894 114.019 334.055 114.18 334.254 114.262C334.453 114.344 334.667 114.385 334.896 114.385C335.06 114.385 335.212 114.376 335.353 114.359C335.499 114.341 335.64 114.321 335.774 114.297L335.827 115.044C335.698 115.085 335.531 115.117 335.326 115.141C335.121 115.164 334.928 115.176 334.746 115.176C334.342 115.176 333.987 115.103 333.683 114.956C333.378 114.804 333.141 114.549 332.971 114.192C332.801 113.828 332.716 113.33 332.716 112.698V103.012ZM337.11 110.404V110.087C337.11 109.396 337.21 108.76 337.409 108.18C337.608 107.594 337.893 107.087 338.262 106.659C338.631 106.232 339.073 105.901 339.589 105.666C340.11 105.432 340.688 105.315 341.32 105.315C341.959 105.315 342.536 105.432 343.052 105.666C343.573 105.901 344.019 106.232 344.388 106.659C344.763 107.087 345.05 107.594 345.249 108.18C345.448 108.76 345.548 109.396 345.548 110.087V110.404C345.548 111.095 345.448 111.734 345.249 112.32C345.05 112.9 344.763 113.404 344.388 113.831C344.019 114.259 343.576 114.59 343.061 114.824C342.545 115.059 341.971 115.176 341.338 115.176C340.699 115.176 340.119 115.059 339.598 114.824C339.082 114.59 338.637 114.259 338.262 113.831C337.893 113.404 337.608 112.9 337.409 112.32C337.21 111.734 337.11 111.095 337.11 110.404ZM337.972 110.087V110.404C337.972 110.937 338.045 111.447 338.191 111.933C338.344 112.413 338.561 112.841 338.842 113.216C339.129 113.585 339.48 113.878 339.896 114.095C340.318 114.306 340.799 114.411 341.338 114.411C341.871 114.411 342.343 114.306 342.753 114.095C343.169 113.878 343.518 113.585 343.799 113.216C344.086 112.841 344.303 112.413 344.449 111.933C344.602 111.447 344.678 110.937 344.678 110.404V110.087C344.678 109.566 344.602 109.065 344.449 108.584C344.303 108.104 344.086 107.676 343.799 107.301C343.512 106.926 343.16 106.63 342.744 106.413C342.328 106.191 341.854 106.079 341.32 106.079C340.787 106.079 340.312 106.191 339.896 106.413C339.48 106.63 339.129 106.926 338.842 107.301C338.555 107.676 338.338 108.104 338.191 108.584C338.045 109.065 337.972 109.566 337.972 110.087ZM347.147 110.404V110.087C347.147 109.396 347.247 108.76 347.446 108.18C347.646 107.594 347.93 107.087 348.299 106.659C348.668 106.232 349.11 105.901 349.626 105.666C350.147 105.432 350.725 105.315 351.357 105.315C351.996 105.315 352.573 105.432 353.089 105.666C353.61 105.901 354.056 106.232 354.425 106.659C354.8 107.087 355.087 107.594 355.286 108.18C355.485 108.76 355.585 109.396 355.585 110.087V110.404C355.585 111.095 355.485 111.734 355.286 112.32C355.087 112.9 354.8 113.404 354.425 113.831C354.056 114.259 353.613 114.59 353.098 114.824C352.582 115.059 352.008 115.176 351.375 115.176C350.736 115.176 350.156 115.059 349.635 114.824C349.119 114.59 348.674 114.259 348.299 113.831C347.93 113.404 347.646 112.9 347.446 112.32C347.247 111.734 347.147 111.095 347.147 110.404ZM348.009 110.087V110.404C348.009 110.937 348.082 111.447 348.229 111.933C348.381 112.413 348.598 112.841 348.879 113.216C349.166 113.585 349.518 113.878 349.934 114.095C350.355 114.306 350.836 114.411 351.375 114.411C351.908 114.411 352.38 114.306 352.79 114.095C353.206 113.878 353.555 113.585 353.836 113.216C354.123 112.841 354.34 112.413 354.486 111.933C354.639 111.447 354.715 110.937 354.715 110.404V110.087C354.715 109.566 354.639 109.065 354.486 108.584C354.34 108.104 354.123 107.676 353.836 107.301C353.549 106.926 353.197 106.63 352.781 106.413C352.365 106.191 351.891 106.079 351.357 106.079C350.824 106.079 350.35 106.191 349.934 106.413C349.518 106.63 349.166 106.926 348.879 107.301C348.592 107.676 348.375 108.104 348.229 108.584C348.082 109.065 348.009 109.566 348.009 110.087ZM358.793 101.5V115H357.923V101.5H358.793ZM367.494 112.601C367.494 112.337 367.424 112.073 367.283 111.81C367.143 111.54 366.882 111.294 366.501 111.072C366.12 110.843 365.563 110.653 364.831 110.5C364.304 110.383 363.835 110.254 363.425 110.114C363.015 109.967 362.669 109.791 362.388 109.586C362.112 109.381 361.901 109.138 361.755 108.857C361.614 108.57 361.544 108.233 361.544 107.846C361.544 107.494 361.62 107.166 361.772 106.862C361.925 106.557 362.145 106.29 362.432 106.062C362.719 105.827 363.064 105.646 363.469 105.517C363.879 105.382 364.339 105.315 364.849 105.315C365.575 105.315 366.196 105.438 366.712 105.684C367.228 105.924 367.623 106.255 367.898 106.677C368.18 107.099 368.32 107.579 368.32 108.118H367.45C367.45 107.767 367.348 107.439 367.143 107.134C366.943 106.823 366.65 106.572 366.264 106.378C365.877 106.179 365.405 106.079 364.849 106.079C364.269 106.079 363.8 106.167 363.442 106.343C363.085 106.519 362.824 106.739 362.66 107.002C362.496 107.266 362.414 107.538 362.414 107.82C362.414 108.042 362.446 108.244 362.511 108.426C362.581 108.608 362.71 108.778 362.897 108.936C363.085 109.094 363.352 109.243 363.697 109.384C364.049 109.519 364.503 109.651 365.06 109.78C365.827 109.949 366.451 110.157 366.932 110.404C367.418 110.644 367.775 110.94 368.004 111.291C368.238 111.643 368.355 112.068 368.355 112.566C368.355 112.952 368.273 113.307 368.109 113.629C367.951 113.946 367.72 114.221 367.415 114.455C367.116 114.684 366.753 114.863 366.325 114.991C365.903 115.115 365.432 115.176 364.91 115.176C364.113 115.176 363.442 115.047 362.897 114.789C362.353 114.531 361.939 114.192 361.658 113.77C361.377 113.348 361.236 112.894 361.236 112.407H362.106C362.142 112.917 362.303 113.319 362.59 113.612C362.883 113.905 363.237 114.113 363.653 114.236C364.075 114.353 364.494 114.411 364.91 114.411C365.473 114.411 365.944 114.326 366.325 114.156C366.712 113.981 367.002 113.755 367.195 113.48C367.395 113.204 367.494 112.911 367.494 112.601ZM376.784 115H375.914V104.26C375.914 103.621 376.022 103.085 376.239 102.652C376.456 102.212 376.767 101.881 377.171 101.658C377.581 101.43 378.064 101.316 378.621 101.316C378.803 101.316 378.99 101.327 379.184 101.351C379.377 101.368 379.564 101.406 379.746 101.465L379.667 102.212C379.521 102.171 379.371 102.142 379.219 102.124C379.072 102.107 378.894 102.098 378.683 102.098C378.29 102.098 377.95 102.183 377.663 102.353C377.382 102.523 377.165 102.769 377.013 103.091C376.86 103.407 376.784 103.797 376.784 104.26V115ZM379.131 105.49V106.238H374.314V105.49H379.131ZM380.423 110.404V110.087C380.423 109.396 380.522 108.76 380.722 108.18C380.921 107.594 381.205 107.087 381.574 106.659C381.943 106.232 382.386 105.901 382.901 105.666C383.423 105.432 384 105.315 384.633 105.315C385.271 105.315 385.849 105.432 386.364 105.666C386.886 105.901 387.331 106.232 387.7 106.659C388.075 107.087 388.362 107.594 388.562 108.18C388.761 108.76 388.86 109.396 388.86 110.087V110.404C388.86 111.095 388.761 111.734 388.562 112.32C388.362 112.9 388.075 113.404 387.7 113.831C387.331 114.259 386.889 114.59 386.373 114.824C385.857 115.059 385.283 115.176 384.65 115.176C384.012 115.176 383.432 115.059 382.91 114.824C382.395 114.59 381.949 114.259 381.574 113.831C381.205 113.404 380.921 112.9 380.722 112.32C380.522 111.734 380.423 111.095 380.423 110.404ZM381.284 110.087V110.404C381.284 110.937 381.357 111.447 381.504 111.933C381.656 112.413 381.873 112.841 382.154 113.216C382.441 113.585 382.793 113.878 383.209 114.095C383.631 114.306 384.111 114.411 384.65 114.411C385.184 114.411 385.655 114.306 386.065 114.095C386.481 113.878 386.83 113.585 387.111 113.216C387.398 112.841 387.615 112.413 387.762 111.933C387.914 111.447 387.99 110.937 387.99 110.404V110.087C387.99 109.566 387.914 109.065 387.762 108.584C387.615 108.104 387.398 107.676 387.111 107.301C386.824 106.926 386.473 106.63 386.057 106.413C385.641 106.191 385.166 106.079 384.633 106.079C384.1 106.079 383.625 106.191 383.209 106.413C382.793 106.63 382.441 106.926 382.154 107.301C381.867 107.676 381.65 108.104 381.504 108.584C381.357 109.065 381.284 109.566 381.284 110.087ZM391.945 107.09V115H391.075V105.49H391.928L391.945 107.09ZM395.443 105.42L395.408 106.211C395.297 106.194 395.186 106.182 395.074 106.176C394.969 106.164 394.854 106.158 394.731 106.158C394.251 106.158 393.829 106.249 393.466 106.431C393.103 106.613 392.798 106.865 392.552 107.187C392.312 107.509 392.127 107.884 391.998 108.312C391.875 108.734 391.808 109.191 391.796 109.683L391.436 109.788C391.436 109.15 391.5 108.561 391.629 108.022C391.764 107.477 391.969 107.002 392.244 106.598C392.52 106.194 392.865 105.88 393.281 105.657C393.697 105.429 394.189 105.315 394.758 105.315C394.893 105.315 395.021 105.326 395.145 105.35C395.273 105.367 395.373 105.391 395.443 105.42ZM402.343 107.319V118.656H401.473V105.49H402.29L402.343 107.319ZM409.014 110.157V110.342C409.014 111.057 408.932 111.71 408.768 112.302C408.609 112.888 408.375 113.398 408.064 113.831C407.76 114.259 407.382 114.59 406.931 114.824C406.485 115.059 405.976 115.176 405.401 115.176C404.845 115.176 404.347 115.094 403.907 114.93C403.468 114.76 403.09 114.523 402.773 114.218C402.457 113.907 402.202 113.547 402.009 113.137C401.815 112.727 401.684 112.284 401.613 111.81V108.927C401.707 108.394 401.854 107.907 402.053 107.468C402.252 107.029 402.507 106.648 402.817 106.325C403.128 106.003 403.497 105.754 403.925 105.578C404.353 105.403 404.839 105.315 405.384 105.315C405.958 105.315 406.471 105.429 406.922 105.657C407.373 105.88 407.754 106.202 408.064 106.624C408.375 107.046 408.609 107.556 408.768 108.154C408.932 108.745 409.014 109.413 409.014 110.157ZM408.135 110.342V110.157C408.135 109.577 408.076 109.041 407.959 108.549C407.842 108.057 407.663 107.629 407.423 107.266C407.188 106.897 406.887 106.61 406.518 106.405C406.154 106.199 405.724 106.097 405.226 106.097C404.692 106.097 404.238 106.185 403.863 106.361C403.494 106.536 403.189 106.768 402.949 107.055C402.715 107.336 402.527 107.641 402.387 107.969C402.252 108.297 402.152 108.614 402.088 108.918V111.889C402.199 112.346 402.384 112.765 402.642 113.146C402.899 113.527 403.242 113.834 403.67 114.069C404.104 114.297 404.628 114.411 405.243 114.411C405.735 114.411 406.163 114.309 406.526 114.104C406.89 113.893 407.188 113.606 407.423 113.242C407.663 112.873 407.842 112.443 407.959 111.95C408.076 111.452 408.135 110.916 408.135 110.342ZM415.034 115.176C414.425 115.176 413.862 115.062 413.347 114.833C412.831 114.605 412.383 114.282 412.002 113.866C411.621 113.445 411.325 112.949 411.114 112.381C410.903 111.807 410.798 111.177 410.798 110.491V110.114C410.798 109.387 410.903 108.731 411.114 108.145C411.331 107.559 411.627 107.055 412.002 106.633C412.383 106.205 412.816 105.88 413.303 105.657C413.789 105.429 414.305 105.315 414.85 105.315C415.424 105.315 415.939 105.42 416.396 105.631C416.859 105.836 417.252 106.129 417.574 106.51C417.896 106.891 418.14 107.342 418.304 107.864C418.474 108.379 418.559 108.95 418.559 109.577V110.193H411.334V109.428H417.688V109.314C417.683 108.745 417.568 108.218 417.346 107.732C417.129 107.24 416.81 106.841 416.388 106.536C415.972 106.232 415.459 106.079 414.85 106.079C414.375 106.079 413.941 106.182 413.549 106.387C413.162 106.586 412.828 106.867 412.547 107.231C412.266 107.588 412.049 108.013 411.896 108.505C411.744 108.991 411.668 109.528 411.668 110.114V110.491C411.668 111.036 411.75 111.546 411.914 112.021C412.084 112.495 412.318 112.911 412.617 113.269C412.922 113.626 413.282 113.907 413.698 114.113C414.114 114.318 414.568 114.42 415.061 114.42C415.617 114.42 416.118 114.321 416.563 114.121C417.009 113.916 417.413 113.579 417.776 113.111L418.33 113.532C418.125 113.837 417.87 114.115 417.565 114.367C417.261 114.614 416.9 114.81 416.484 114.956C416.068 115.103 415.585 115.176 415.034 115.176ZM421.529 107.09V115H420.659V105.49H421.512L421.529 107.09ZM425.027 105.42L424.992 106.211C424.881 106.194 424.77 106.182 424.658 106.176C424.553 106.164 424.438 106.158 424.315 106.158C423.835 106.158 423.413 106.249 423.05 106.431C422.687 106.613 422.382 106.865 422.136 107.187C421.896 107.509 421.711 107.884 421.582 108.312C421.459 108.734 421.392 109.191 421.38 109.683L421.02 109.788C421.02 109.15 421.084 108.561 421.213 108.022C421.348 107.477 421.553 107.002 421.828 106.598C422.104 106.194 422.449 105.88 422.865 105.657C423.281 105.429 423.773 105.315 424.342 105.315C424.477 105.315 424.605 105.326 424.729 105.35C424.857 105.367 424.957 105.391 425.027 105.42ZM432.463 112.601C432.463 112.337 432.393 112.073 432.252 111.81C432.111 111.54 431.851 111.294 431.47 111.072C431.089 110.843 430.532 110.653 429.8 110.5C429.272 110.383 428.804 110.254 428.394 110.114C427.983 109.967 427.638 109.791 427.356 109.586C427.081 109.381 426.87 109.138 426.724 108.857C426.583 108.57 426.513 108.233 426.513 107.846C426.513 107.494 426.589 107.166 426.741 106.862C426.894 106.557 427.113 106.29 427.4 106.062C427.688 105.827 428.033 105.646 428.438 105.517C428.848 105.382 429.308 105.315 429.817 105.315C430.544 105.315 431.165 105.438 431.681 105.684C432.196 105.924 432.592 106.255 432.867 106.677C433.148 107.099 433.289 107.579 433.289 108.118H432.419C432.419 107.767 432.316 107.439 432.111 107.134C431.912 106.823 431.619 106.572 431.232 106.378C430.846 106.179 430.374 106.079 429.817 106.079C429.237 106.079 428.769 106.167 428.411 106.343C428.054 106.519 427.793 106.739 427.629 107.002C427.465 107.266 427.383 107.538 427.383 107.82C427.383 108.042 427.415 108.244 427.479 108.426C427.55 108.608 427.679 108.778 427.866 108.936C428.054 109.094 428.32 109.243 428.666 109.384C429.018 109.519 429.472 109.651 430.028 109.78C430.796 109.949 431.42 110.157 431.9 110.404C432.387 110.644 432.744 110.94 432.973 111.291C433.207 111.643 433.324 112.068 433.324 112.566C433.324 112.952 433.242 113.307 433.078 113.629C432.92 113.946 432.688 114.221 432.384 114.455C432.085 114.684 431.722 114.863 431.294 114.991C430.872 115.115 430.4 115.176 429.879 115.176C429.082 115.176 428.411 115.047 427.866 114.789C427.321 114.531 426.908 114.192 426.627 113.77C426.346 113.348 426.205 112.894 426.205 112.407H427.075C427.11 112.917 427.271 113.319 427.559 113.612C427.852 113.905 428.206 114.113 428.622 114.236C429.044 114.353 429.463 114.411 429.879 114.411C430.441 114.411 430.913 114.326 431.294 114.156C431.681 113.981 431.971 113.755 432.164 113.48C432.363 113.204 432.463 112.911 432.463 112.601ZM435.161 110.404V110.087C435.161 109.396 435.261 108.76 435.46 108.18C435.659 107.594 435.943 107.087 436.312 106.659C436.682 106.232 437.124 105.901 437.64 105.666C438.161 105.432 438.738 105.315 439.371 105.315C440.01 105.315 440.587 105.432 441.103 105.666C441.624 105.901 442.069 106.232 442.438 106.659C442.813 107.087 443.101 107.594 443.3 108.18C443.499 108.76 443.599 109.396 443.599 110.087V110.404C443.599 111.095 443.499 111.734 443.3 112.32C443.101 112.9 442.813 113.404 442.438 113.831C442.069 114.259 441.627 114.59 441.111 114.824C440.596 115.059 440.021 115.176 439.389 115.176C438.75 115.176 438.17 115.059 437.648 114.824C437.133 114.59 436.688 114.259 436.312 113.831C435.943 113.404 435.659 112.9 435.46 112.32C435.261 111.734 435.161 111.095 435.161 110.404ZM436.022 110.087V110.404C436.022 110.937 436.096 111.447 436.242 111.933C436.395 112.413 436.611 112.841 436.893 113.216C437.18 113.585 437.531 113.878 437.947 114.095C438.369 114.306 438.85 114.411 439.389 114.411C439.922 114.411 440.394 114.306 440.804 114.095C441.22 113.878 441.568 113.585 441.85 113.216C442.137 112.841 442.354 112.413 442.5 111.933C442.652 111.447 442.729 110.937 442.729 110.404V110.087C442.729 109.566 442.652 109.065 442.5 108.584C442.354 108.104 442.137 107.676 441.85 107.301C441.562 106.926 441.211 106.63 440.795 106.413C440.379 106.191 439.904 106.079 439.371 106.079C438.838 106.079 438.363 106.191 437.947 106.413C437.531 106.63 437.18 106.926 436.893 107.301C436.605 107.676 436.389 108.104 436.242 108.584C436.096 109.065 436.022 109.566 436.022 110.087ZM446.684 107.521V115H445.813V105.49H446.657L446.684 107.521ZM446.499 109.586L446.104 109.243C446.145 108.716 446.262 108.215 446.455 107.74C446.648 107.266 446.909 106.847 447.237 106.484C447.565 106.12 447.952 105.836 448.397 105.631C448.843 105.42 449.332 105.315 449.865 105.315C450.34 105.315 450.765 105.379 451.14 105.508C451.515 105.637 451.831 105.842 452.089 106.123C452.353 106.405 452.552 106.768 452.687 107.213C452.827 107.653 452.897 108.189 452.897 108.822V115H452.027V108.813C452.027 108.11 451.928 107.562 451.729 107.169C451.535 106.777 451.263 106.498 450.911 106.334C450.565 106.17 450.155 106.088 449.681 106.088C449.147 106.088 448.685 106.205 448.292 106.44C447.899 106.674 447.571 106.973 447.308 107.336C447.05 107.699 446.854 108.083 446.719 108.488C446.584 108.886 446.511 109.252 446.499 109.586ZM461.537 113.269V108.365C461.537 107.89 461.438 107.483 461.238 107.143C461.039 106.797 460.746 106.533 460.359 106.352C459.979 106.164 459.507 106.071 458.944 106.071C458.429 106.071 457.966 106.161 457.556 106.343C457.151 106.525 456.829 106.771 456.589 107.081C456.354 107.392 456.237 107.738 456.237 108.118L455.376 108.101C455.376 107.743 455.461 107.398 455.631 107.064C455.807 106.73 456.053 106.431 456.369 106.167C456.691 105.904 457.072 105.696 457.512 105.543C457.957 105.391 458.446 105.315 458.979 105.315C459.653 105.315 460.245 105.429 460.755 105.657C461.271 105.88 461.675 106.22 461.968 106.677C462.261 107.128 462.407 107.697 462.407 108.382V113.031C462.407 113.36 462.431 113.699 462.478 114.051C462.524 114.403 462.595 114.687 462.688 114.904V115H461.748C461.678 114.783 461.625 114.517 461.59 114.2C461.555 113.878 461.537 113.568 461.537 113.269ZM461.774 109.533L461.792 110.245H459.604C459.035 110.245 458.528 110.298 458.083 110.404C457.644 110.503 457.269 110.65 456.958 110.843C456.653 111.036 456.419 111.271 456.255 111.546C456.091 111.816 456.009 112.12 456.009 112.46C456.009 112.812 456.1 113.134 456.281 113.427C456.463 113.72 456.721 113.954 457.055 114.13C457.395 114.3 457.79 114.385 458.241 114.385C458.851 114.385 459.39 114.277 459.858 114.06C460.333 113.843 460.726 113.553 461.036 113.19C461.347 112.821 461.566 112.407 461.695 111.95L462.073 112.504C461.985 112.803 461.839 113.111 461.634 113.427C461.429 113.738 461.162 114.025 460.834 114.288C460.506 114.552 460.119 114.766 459.674 114.93C459.234 115.094 458.73 115.176 458.162 115.176C457.553 115.176 457.02 115.062 456.562 114.833C456.111 114.599 455.76 114.282 455.508 113.884C455.262 113.48 455.139 113.023 455.139 112.513C455.139 112.062 455.238 111.655 455.438 111.291C455.637 110.922 455.924 110.609 456.299 110.351C456.674 110.087 457.131 109.885 457.67 109.744C458.209 109.604 458.815 109.533 459.489 109.533H461.774ZM466.283 101.5V115H465.413V101.5H466.283ZM470.221 105.49V115H469.351V105.49H470.221ZM469.148 102.669C469.148 102.493 469.207 102.344 469.324 102.221C469.441 102.092 469.597 102.028 469.79 102.028C469.989 102.028 470.147 102.092 470.265 102.221C470.388 102.344 470.449 102.493 470.449 102.669C470.449 102.845 470.388 102.994 470.265 103.117C470.147 103.24 469.989 103.302 469.79 103.302C469.597 103.302 469.441 103.24 469.324 103.117C469.207 102.994 469.148 102.845 469.148 102.669ZM479.977 114.236V115H472.822V114.236H479.977ZM479.546 106.158L473.06 115H472.523V114.341L479.001 105.49H479.546V106.158ZM479.159 105.49V106.264H472.726V105.49H479.159ZM487.729 113.269V108.365C487.729 107.89 487.629 107.483 487.43 107.143C487.23 106.797 486.938 106.533 486.551 106.352C486.17 106.164 485.698 106.071 485.136 106.071C484.62 106.071 484.157 106.161 483.747 106.343C483.343 106.525 483.021 106.771 482.78 107.081C482.546 107.392 482.429 107.738 482.429 108.118L481.567 108.101C481.567 107.743 481.652 107.398 481.822 107.064C481.998 106.73 482.244 106.431 482.561 106.167C482.883 105.904 483.264 105.696 483.703 105.543C484.148 105.391 484.638 105.315 485.171 105.315C485.845 105.315 486.437 105.429 486.946 105.657C487.462 105.88 487.866 106.22 488.159 106.677C488.452 107.128 488.599 107.697 488.599 108.382V113.031C488.599 113.36 488.622 113.699 488.669 114.051C488.716 114.403 488.786 114.687 488.88 114.904V115H487.939C487.869 114.783 487.816 114.517 487.781 114.2C487.746 113.878 487.729 113.568 487.729 113.269ZM487.966 109.533L487.983 110.245H485.795C485.227 110.245 484.72 110.298 484.274 110.404C483.835 110.503 483.46 110.65 483.149 110.843C482.845 111.036 482.61 111.271 482.446 111.546C482.282 111.816 482.2 112.12 482.2 112.46C482.2 112.812 482.291 113.134 482.473 113.427C482.654 113.72 482.912 113.954 483.246 114.13C483.586 114.3 483.981 114.385 484.433 114.385C485.042 114.385 485.581 114.277 486.05 114.06C486.524 113.843 486.917 113.553 487.228 113.19C487.538 112.821 487.758 112.407 487.887 111.95L488.265 112.504C488.177 112.803 488.03 113.111 487.825 113.427C487.62 113.738 487.354 114.025 487.025 114.288C486.697 114.552 486.311 114.766 485.865 114.93C485.426 115.094 484.922 115.176 484.354 115.176C483.744 115.176 483.211 115.062 482.754 114.833C482.303 114.599 481.951 114.282 481.699 113.884C481.453 113.48 481.33 113.023 481.33 112.513C481.33 112.062 481.43 111.655 481.629 111.291C481.828 110.922 482.115 110.609 482.49 110.351C482.865 110.087 483.322 109.885 483.861 109.744C484.4 109.604 485.007 109.533 485.681 109.533H487.966ZM494.971 105.49V106.238H490.312V105.49H494.971ZM492.062 103.012H492.94V112.698C492.94 113.172 492.999 113.532 493.116 113.779C493.239 114.019 493.4 114.18 493.6 114.262C493.799 114.344 494.013 114.385 494.241 114.385C494.405 114.385 494.558 114.376 494.698 114.359C494.845 114.341 494.985 114.321 495.12 114.297L495.173 115.044C495.044 115.085 494.877 115.117 494.672 115.141C494.467 115.164 494.273 115.176 494.092 115.176C493.688 115.176 493.333 115.103 493.028 114.956C492.724 114.804 492.486 114.549 492.316 114.192C492.146 113.828 492.062 113.33 492.062 112.698V103.012ZM498.24 105.49V115H497.37V105.49H498.24ZM497.168 102.669C497.168 102.493 497.227 102.344 497.344 102.221C497.461 102.092 497.616 102.028 497.81 102.028C498.009 102.028 498.167 102.092 498.284 102.221C498.407 102.344 498.469 102.493 498.469 102.669C498.469 102.845 498.407 102.994 498.284 103.117C498.167 103.24 498.009 103.302 497.81 103.302C497.616 103.302 497.461 103.24 497.344 103.117C497.227 102.994 497.168 102.845 497.168 102.669ZM500.569 110.404V110.087C500.569 109.396 500.669 108.76 500.868 108.18C501.067 107.594 501.352 107.087 501.721 106.659C502.09 106.232 502.532 105.901 503.048 105.666C503.569 105.432 504.146 105.315 504.779 105.315C505.418 105.315 505.995 105.432 506.511 105.666C507.032 105.901 507.478 106.232 507.847 106.659C508.222 107.087 508.509 107.594 508.708 108.18C508.907 108.76 509.007 109.396 509.007 110.087V110.404C509.007 111.095 508.907 111.734 508.708 112.32C508.509 112.9 508.222 113.404 507.847 113.831C507.478 114.259 507.035 114.59 506.52 114.824C506.004 115.059 505.43 115.176 504.797 115.176C504.158 115.176 503.578 115.059 503.057 114.824C502.541 114.59 502.096 114.259 501.721 113.831C501.352 113.404 501.067 112.9 500.868 112.32C500.669 111.734 500.569 111.095 500.569 110.404ZM501.431 110.087V110.404C501.431 110.937 501.504 111.447 501.65 111.933C501.803 112.413 502.02 112.841 502.301 113.216C502.588 113.585 502.939 113.878 503.355 114.095C503.777 114.306 504.258 114.411 504.797 114.411C505.33 114.411 505.802 114.306 506.212 114.095C506.628 113.878 506.977 113.585 507.258 113.216C507.545 112.841 507.762 112.413 507.908 111.933C508.061 111.447 508.137 110.937 508.137 110.404V110.087C508.137 109.566 508.061 109.065 507.908 108.584C507.762 108.104 507.545 107.676 507.258 107.301C506.971 106.926 506.619 106.63 506.203 106.413C505.787 106.191 505.312 106.079 504.779 106.079C504.246 106.079 503.771 106.191 503.355 106.413C502.939 106.63 502.588 106.926 502.301 107.301C502.014 107.676 501.797 108.104 501.65 108.584C501.504 109.065 501.431 109.566 501.431 110.087ZM512.092 107.521V115H511.222V105.49H512.065L512.092 107.521ZM511.907 109.586L511.512 109.243C511.553 108.716 511.67 108.215 511.863 107.74C512.057 107.266 512.317 106.847 512.646 106.484C512.974 106.12 513.36 105.836 513.806 105.631C514.251 105.42 514.74 105.315 515.273 105.315C515.748 105.315 516.173 105.379 516.548 105.508C516.923 105.637 517.239 105.842 517.497 106.123C517.761 106.405 517.96 106.768 518.095 107.213C518.235 107.653 518.306 108.189 518.306 108.822V115H517.436V108.813C517.436 108.11 517.336 107.562 517.137 107.169C516.943 106.777 516.671 106.498 516.319 106.334C515.974 106.17 515.563 106.088 515.089 106.088C514.556 106.088 514.093 106.205 513.7 106.44C513.308 106.674 512.979 106.973 512.716 107.336C512.458 107.699 512.262 108.083 512.127 108.488C511.992 108.886 511.919 109.252 511.907 109.586ZM527.42 108.162L529.521 106.554C529.896 106.273 530.209 105.965 530.461 105.631C530.719 105.291 530.848 104.905 530.848 104.471C530.848 104.031 530.692 103.642 530.382 103.302C530.077 102.956 529.635 102.783 529.055 102.783C528.621 102.783 528.255 102.877 527.956 103.065C527.663 103.252 527.44 103.504 527.288 103.821C527.142 104.131 527.068 104.474 527.068 104.849C527.068 105.136 527.121 105.435 527.227 105.745C527.338 106.05 527.499 106.369 527.71 106.703C527.927 107.037 528.188 107.383 528.492 107.74L534.768 115H533.713L528.308 108.778C527.88 108.274 527.505 107.811 527.183 107.389C526.866 106.961 526.62 106.545 526.444 106.141C526.274 105.731 526.189 105.309 526.189 104.875C526.189 104.295 526.307 103.791 526.541 103.364C526.775 102.936 527.106 102.605 527.534 102.37C527.962 102.136 528.469 102.019 529.055 102.019C529.611 102.019 530.086 102.133 530.479 102.362C530.871 102.584 531.17 102.88 531.375 103.249C531.586 103.618 531.691 104.026 531.691 104.471C531.691 104.846 531.604 105.198 531.428 105.526C531.252 105.854 531.032 106.153 530.769 106.422C530.511 106.686 530.25 106.923 529.986 107.134L527.701 108.901C527.18 109.34 526.787 109.739 526.523 110.096C526.266 110.453 526.093 110.773 526.005 111.054C525.923 111.329 525.882 111.573 525.882 111.783C525.882 112.246 525.99 112.677 526.207 113.075C526.43 113.474 526.767 113.796 527.218 114.042C527.675 114.288 528.249 114.411 528.94 114.411C529.509 114.411 530.057 114.291 530.584 114.051C531.117 113.805 531.592 113.459 532.008 113.014C532.424 112.563 532.755 112.027 533.001 111.406C533.247 110.779 533.37 110.084 533.37 109.323H534.188C534.188 109.873 534.132 110.386 534.021 110.861C533.915 111.335 533.76 111.775 533.555 112.179C533.35 112.583 533.101 112.955 532.808 113.295C532.761 113.354 532.731 113.395 532.72 113.418C532.708 113.442 532.679 113.477 532.632 113.524C532.157 114.022 531.604 114.423 530.971 114.728C530.344 115.027 529.667 115.176 528.94 115.176C528.132 115.176 527.435 115.035 526.849 114.754C526.263 114.473 525.812 114.077 525.495 113.568C525.179 113.058 525.021 112.463 525.021 111.783C525.021 111.28 525.126 110.82 525.337 110.404C525.554 109.988 525.844 109.598 526.207 109.235C526.57 108.871 526.975 108.514 527.42 108.162ZM546.703 113.269V108.365C546.703 107.89 546.604 107.483 546.404 107.143C546.205 106.797 545.912 106.533 545.525 106.352C545.145 106.164 544.673 106.071 544.11 106.071C543.595 106.071 543.132 106.161 542.722 106.343C542.317 106.525 541.995 106.771 541.755 107.081C541.521 107.392 541.403 107.738 541.403 108.118L540.542 108.101C540.542 107.743 540.627 107.398 540.797 107.064C540.973 106.73 541.219 106.431 541.535 106.167C541.857 105.904 542.238 105.696 542.678 105.543C543.123 105.391 543.612 105.315 544.146 105.315C544.819 105.315 545.411 105.429 545.921 105.657C546.437 105.88 546.841 106.22 547.134 106.677C547.427 107.128 547.573 107.697 547.573 108.382V113.031C547.573 113.36 547.597 113.699 547.644 114.051C547.69 114.403 547.761 114.687 547.854 114.904V115H546.914C546.844 114.783 546.791 114.517 546.756 114.2C546.721 113.878 546.703 113.568 546.703 113.269ZM546.94 109.533L546.958 110.245H544.77C544.201 110.245 543.694 110.298 543.249 110.404C542.81 110.503 542.435 110.65 542.124 110.843C541.819 111.036 541.585 111.271 541.421 111.546C541.257 111.816 541.175 112.12 541.175 112.46C541.175 112.812 541.266 113.134 541.447 113.427C541.629 113.72 541.887 113.954 542.221 114.13C542.561 114.3 542.956 114.385 543.407 114.385C544.017 114.385 544.556 114.277 545.024 114.06C545.499 113.843 545.892 113.553 546.202 113.19C546.513 112.821 546.732 112.407 546.861 111.95L547.239 112.504C547.151 112.803 547.005 113.111 546.8 113.427C546.595 113.738 546.328 114.025 546 114.288C545.672 114.552 545.285 114.766 544.84 114.93C544.4 115.094 543.896 115.176 543.328 115.176C542.719 115.176 542.186 115.062 541.729 114.833C541.277 114.599 540.926 114.282 540.674 113.884C540.428 113.48 540.305 113.023 540.305 112.513C540.305 112.062 540.404 111.655 540.604 111.291C540.803 110.922 541.09 110.609 541.465 110.351C541.84 110.087 542.297 109.885 542.836 109.744C543.375 109.604 543.981 109.533 544.655 109.533H546.94ZM556.644 112.803V105.49H557.522V115H556.67L556.644 112.803ZM556.802 111.115L557.294 111.098C557.294 111.684 557.224 112.226 557.083 112.724C556.942 113.216 556.72 113.647 556.415 114.016C556.116 114.385 555.729 114.672 555.255 114.877C554.78 115.076 554.212 115.176 553.55 115.176C553.087 115.176 552.662 115.112 552.275 114.983C551.895 114.848 551.563 114.637 551.282 114.35C551.007 114.063 550.793 113.691 550.641 113.234C550.494 112.771 550.421 112.214 550.421 111.564V105.49H551.291V111.581C551.291 112.109 551.35 112.554 551.467 112.917C551.59 113.275 551.757 113.562 551.968 113.779C552.185 113.995 552.434 114.154 552.715 114.253C552.996 114.347 553.301 114.394 553.629 114.394C554.426 114.394 555.056 114.241 555.519 113.937C555.981 113.626 556.31 113.222 556.503 112.724C556.702 112.22 556.802 111.684 556.802 111.115ZM563.824 105.49V106.238H559.166V105.49H563.824ZM560.915 103.012H561.794V112.698C561.794 113.172 561.853 113.532 561.97 113.779C562.093 114.019 562.254 114.18 562.453 114.262C562.652 114.344 562.866 114.385 563.095 114.385C563.259 114.385 563.411 114.376 563.552 114.359C563.698 114.341 563.839 114.321 563.974 114.297L564.026 115.044C563.897 115.085 563.73 115.117 563.525 115.141C563.32 115.164 563.127 115.176 562.945 115.176C562.541 115.176 562.187 115.103 561.882 114.956C561.577 114.804 561.34 114.549 561.17 114.192C561 113.828 560.915 113.33 560.915 112.698V103.012ZM565.31 110.404V110.087C565.31 109.396 565.409 108.76 565.608 108.18C565.808 107.594 566.092 107.087 566.461 106.659C566.83 106.232 567.272 105.901 567.788 105.666C568.31 105.432 568.887 105.315 569.52 105.315C570.158 105.315 570.735 105.432 571.251 105.666C571.772 105.901 572.218 106.232 572.587 106.659C572.962 107.087 573.249 107.594 573.448 108.18C573.647 108.76 573.747 109.396 573.747 110.087V110.404C573.747 111.095 573.647 111.734 573.448 112.32C573.249 112.9 572.962 113.404 572.587 113.831C572.218 114.259 571.775 114.59 571.26 114.824C570.744 115.059 570.17 115.176 569.537 115.176C568.898 115.176 568.318 115.059 567.797 114.824C567.281 114.59 566.836 114.259 566.461 113.831C566.092 113.404 565.808 112.9 565.608 112.32C565.409 111.734 565.31 111.095 565.31 110.404ZM566.171 110.087V110.404C566.171 110.937 566.244 111.447 566.391 111.933C566.543 112.413 566.76 112.841 567.041 113.216C567.328 113.585 567.68 113.878 568.096 114.095C568.518 114.306 568.998 114.411 569.537 114.411C570.07 114.411 570.542 114.306 570.952 114.095C571.368 113.878 571.717 113.585 571.998 113.216C572.285 112.841 572.502 112.413 572.648 111.933C572.801 111.447 572.877 110.937 572.877 110.404V110.087C572.877 109.566 572.801 109.065 572.648 108.584C572.502 108.104 572.285 107.676 571.998 107.301C571.711 106.926 571.359 106.63 570.943 106.413C570.527 106.191 570.053 106.079 569.52 106.079C568.986 106.079 568.512 106.191 568.096 106.413C567.68 106.63 567.328 106.926 567.041 107.301C566.754 107.676 566.537 108.104 566.391 108.584C566.244 109.065 566.171 109.566 566.171 110.087ZM576.771 107.477V115H575.892V105.49H576.744L576.771 107.477ZM576.621 109.586L576.19 109.243C576.231 108.716 576.343 108.215 576.524 107.74C576.712 107.266 576.967 106.847 577.289 106.484C577.611 106.12 577.992 105.836 578.432 105.631C578.877 105.42 579.378 105.315 579.935 105.315C580.403 105.315 580.825 105.379 581.2 105.508C581.581 105.631 581.903 105.827 582.167 106.097C582.431 106.361 582.633 106.706 582.773 107.134C582.92 107.562 582.993 108.074 582.993 108.672V115H582.123V108.698C582.123 108.025 582.021 107.5 581.815 107.125C581.616 106.75 581.335 106.484 580.972 106.325C580.608 106.167 580.189 106.088 579.715 106.088C579.158 106.088 578.687 106.205 578.3 106.44C577.913 106.674 577.597 106.973 577.351 107.336C577.11 107.699 576.932 108.083 576.814 108.488C576.697 108.886 576.633 109.252 576.621 109.586ZM582.984 108.778L582.404 108.698C582.445 108.259 582.56 107.837 582.747 107.433C582.935 107.023 583.189 106.659 583.512 106.343C583.834 106.027 584.218 105.778 584.663 105.596C585.108 105.408 585.604 105.315 586.148 105.315C586.635 105.315 587.068 105.382 587.449 105.517C587.836 105.646 588.161 105.854 588.425 106.141C588.694 106.422 588.896 106.782 589.031 107.222C589.172 107.661 589.242 108.192 589.242 108.813V115H588.372V108.813C588.372 108.098 588.27 107.544 588.064 107.152C587.865 106.753 587.584 106.475 587.221 106.317C586.857 106.158 586.438 106.082 585.964 106.088C585.472 106.094 585.041 106.185 584.672 106.361C584.309 106.536 584.004 106.762 583.758 107.037C583.518 107.307 583.333 107.597 583.204 107.907C583.075 108.212 583.002 108.502 582.984 108.778ZM597.82 113.269V108.365C597.82 107.89 597.721 107.483 597.521 107.143C597.322 106.797 597.029 106.533 596.643 106.352C596.262 106.164 595.79 106.071 595.228 106.071C594.712 106.071 594.249 106.161 593.839 106.343C593.435 106.525 593.112 106.771 592.872 107.081C592.638 107.392 592.521 107.738 592.521 108.118L591.659 108.101C591.659 107.743 591.744 107.398 591.914 107.064C592.09 106.73 592.336 106.431 592.652 106.167C592.975 105.904 593.355 105.696 593.795 105.543C594.24 105.391 594.729 105.315 595.263 105.315C595.937 105.315 596.528 105.429 597.038 105.657C597.554 105.88 597.958 106.22 598.251 106.677C598.544 107.128 598.69 107.697 598.69 108.382V113.031C598.69 113.36 598.714 113.699 598.761 114.051C598.808 114.403 598.878 114.687 598.972 114.904V115H598.031C597.961 114.783 597.908 114.517 597.873 114.2C597.838 113.878 597.82 113.568 597.82 113.269ZM598.058 109.533L598.075 110.245H595.887C595.318 110.245 594.812 110.298 594.366 110.404C593.927 110.503 593.552 110.65 593.241 110.843C592.937 111.036 592.702 111.271 592.538 111.546C592.374 111.816 592.292 112.12 592.292 112.46C592.292 112.812 592.383 113.134 592.564 113.427C592.746 113.72 593.004 113.954 593.338 114.13C593.678 114.3 594.073 114.385 594.524 114.385C595.134 114.385 595.673 114.277 596.142 114.06C596.616 113.843 597.009 113.553 597.319 113.19C597.63 112.821 597.85 112.407 597.979 111.95L598.356 112.504C598.269 112.803 598.122 113.111 597.917 113.427C597.712 113.738 597.445 114.025 597.117 114.288C596.789 114.552 596.402 114.766 595.957 114.93C595.518 115.094 595.014 115.176 594.445 115.176C593.836 115.176 593.303 115.062 592.846 114.833C592.395 114.599 592.043 114.282 591.791 113.884C591.545 113.48 591.422 113.023 591.422 112.513C591.422 112.062 591.521 111.655 591.721 111.291C591.92 110.922 592.207 110.609 592.582 110.351C592.957 110.087 593.414 109.885 593.953 109.744C594.492 109.604 595.099 109.533 595.772 109.533H598.058ZM605.062 105.49V106.238H600.404V105.49H605.062ZM602.153 103.012H603.032V112.698C603.032 113.172 603.091 113.532 603.208 113.779C603.331 114.019 603.492 114.18 603.691 114.262C603.891 114.344 604.104 114.385 604.333 114.385C604.497 114.385 604.649 114.376 604.79 114.359C604.937 114.341 605.077 114.321 605.212 114.297L605.265 115.044C605.136 115.085 604.969 115.117 604.764 115.141C604.559 115.164 604.365 115.176 604.184 115.176C603.779 115.176 603.425 115.103 603.12 114.956C602.815 114.804 602.578 114.549 602.408 114.192C602.238 113.828 602.153 113.33 602.153 112.698V103.012ZM608.332 105.49V115H607.462V105.49H608.332ZM607.26 102.669C607.26 102.493 607.318 102.344 607.436 102.221C607.553 102.092 607.708 102.028 607.901 102.028C608.101 102.028 608.259 102.092 608.376 102.221C608.499 102.344 608.561 102.493 608.561 102.669C608.561 102.845 608.499 102.994 608.376 103.117C608.259 103.24 608.101 103.302 607.901 103.302C607.708 103.302 607.553 103.24 607.436 103.117C607.318 102.994 607.26 102.845 607.26 102.669ZM610.661 110.404V110.087C610.661 109.396 610.761 108.76 610.96 108.18C611.159 107.594 611.443 107.087 611.812 106.659C612.182 106.232 612.624 105.901 613.14 105.666C613.661 105.432 614.238 105.315 614.871 105.315C615.51 105.315 616.087 105.432 616.603 105.666C617.124 105.901 617.569 106.232 617.938 106.659C618.313 107.087 618.601 107.594 618.8 108.18C618.999 108.76 619.099 109.396 619.099 110.087V110.404C619.099 111.095 618.999 111.734 618.8 112.32C618.601 112.9 618.313 113.404 617.938 113.831C617.569 114.259 617.127 114.59 616.611 114.824C616.096 115.059 615.521 115.176 614.889 115.176C614.25 115.176 613.67 115.059 613.148 114.824C612.633 114.59 612.188 114.259 611.812 113.831C611.443 113.404 611.159 112.9 610.96 112.32C610.761 111.734 610.661 111.095 610.661 110.404ZM611.522 110.087V110.404C611.522 110.937 611.596 111.447 611.742 111.933C611.895 112.413 612.111 112.841 612.393 113.216C612.68 113.585 613.031 113.878 613.447 114.095C613.869 114.306 614.35 114.411 614.889 114.411C615.422 114.411 615.894 114.306 616.304 114.095C616.72 113.878 617.068 113.585 617.35 113.216C617.637 112.841 617.854 112.413 618 111.933C618.152 111.447 618.229 110.937 618.229 110.404V110.087C618.229 109.566 618.152 109.065 618 108.584C617.854 108.104 617.637 107.676 617.35 107.301C617.062 106.926 616.711 106.63 616.295 106.413C615.879 106.191 615.404 106.079 614.871 106.079C614.338 106.079 613.863 106.191 613.447 106.413C613.031 106.63 612.68 106.926 612.393 107.301C612.105 107.676 611.889 108.104 611.742 108.584C611.596 109.065 611.522 109.566 611.522 110.087ZM622.184 107.521V115H621.313V105.49H622.157L622.184 107.521ZM621.999 109.586L621.604 109.243C621.645 108.716 621.762 108.215 621.955 107.74C622.148 107.266 622.409 106.847 622.737 106.484C623.065 106.12 623.452 105.836 623.897 105.631C624.343 105.42 624.832 105.315 625.365 105.315C625.84 105.315 626.265 105.379 626.64 105.508C627.015 105.637 627.331 105.842 627.589 106.123C627.853 106.405 628.052 106.768 628.187 107.213C628.327 107.653 628.397 108.189 628.397 108.822V115H627.527V108.813C627.527 108.11 627.428 107.562 627.229 107.169C627.035 106.777 626.763 106.498 626.411 106.334C626.065 106.17 625.655 106.088 625.181 106.088C624.647 106.088 624.185 106.205 623.792 106.44C623.399 106.674 623.071 106.973 622.808 107.336C622.55 107.699 622.354 108.083 622.219 108.488C622.084 108.886 622.011 109.252 621.999 109.586Z" fill="white"/>
<mask id="path-7-outside-1_448_2351" maskUnits="userSpaceOnUse" x="0" y="47.0002" width="63" height="84" fill="black">
<rect fill="white" y="47.0002" width="63" height="84"/>
<path d="M22.8809 82.5686H30.8887C32.9395 82.5686 34.6159 82.2105 35.918 81.4944C37.2526 80.7457 38.2454 79.704 38.8965 78.3694C39.5475 77.0022 39.873 75.3909 39.873 73.5354C39.873 72.1031 39.5638 70.7847 38.9453 69.5803C38.3594 68.3759 37.4479 67.4156 36.2109 66.6995C34.974 65.9508 33.3952 65.5764 31.4746 65.5764C30.1725 65.5764 28.903 65.8531 27.666 66.4065C26.429 66.9273 25.4036 67.676 24.5898 68.6526C23.8086 69.6292 23.418 70.8173 23.418 72.217H6.91406C6.91406 68.1806 8.02083 64.7301 10.2344 61.8655C12.4805 58.9683 15.4264 56.7548 19.0723 55.2249C22.7507 53.6624 26.7057 52.8811 30.9375 52.8811C35.9831 52.8811 40.4102 53.6624 44.2188 55.2249C48.0273 56.7548 50.9896 59.0334 53.1055 62.0608C55.2539 65.0556 56.3281 68.7665 56.3281 73.1936C56.3281 75.635 55.7585 77.9299 54.6191 80.0784C53.4798 82.2268 51.8848 84.1148 49.834 85.7424C47.7832 87.37 45.3743 88.6558 42.6074 89.5999C39.873 90.5113 36.8783 90.967 33.623 90.967H22.8809V82.5686ZM22.8809 94.8245V86.6213H33.623C37.1712 86.6213 40.4102 87.0282 43.3398 87.842C46.2695 88.6233 48.7923 89.7952 50.9082 91.3577C53.0241 92.9202 54.6517 94.857 55.791 97.1682C56.9303 99.4469 57.5 102.067 57.5 105.03C57.5 108.35 56.8327 111.312 55.498 113.916C54.1634 116.52 52.2917 118.718 49.8828 120.508C47.474 122.298 44.6582 123.666 41.4355 124.61C38.2129 125.521 34.7135 125.977 30.9375 125.977C27.9753 125.977 25.013 125.586 22.0508 124.805C19.0885 123.991 16.3867 122.754 13.9453 121.094C11.5039 119.401 9.53451 117.253 8.03711 114.649C6.57227 112.012 5.83984 108.871 5.83984 105.225H22.3438C22.3438 106.722 22.7507 108.089 23.5645 109.326C24.4108 110.531 25.5339 111.491 26.9336 112.207C28.3333 112.923 29.847 113.281 31.4746 113.281C33.4928 113.281 35.2018 112.907 36.6016 112.158C38.0339 111.377 39.1243 110.336 39.873 109.033C40.6217 107.731 40.9961 106.283 40.9961 104.688C40.9961 102.279 40.5892 100.358 39.7754 98.926C38.9941 97.4937 37.8385 96.4521 36.3086 95.801C34.8112 95.15 33.0046 94.8245 30.8887 94.8245H22.8809Z"/>
</mask>
<path d="M22.8809 82.5686V77.5686H17.8809V82.5686H22.8809ZM35.918 81.4944L38.3276 85.8755L38.3459 85.8654L38.3642 85.8551L35.918 81.4944ZM38.8965 78.3694L43.3903 80.5615L43.4007 80.5403L43.4108 80.5191L38.8965 78.3694ZM38.9453 69.5803L34.4491 71.7677L34.4728 71.8163L34.4975 71.8643L38.9453 69.5803ZM36.2109 66.6995L33.6219 70.977L33.6636 71.0022L33.7058 71.0266L36.2109 66.6995ZM27.666 66.4065L29.6063 71.0147L29.6573 70.9932L29.7078 70.9706L27.666 66.4065ZM24.5898 68.6526L20.7487 65.4517L20.7167 65.4901L20.6855 65.5291L24.5898 68.6526ZM23.418 72.217V77.217H28.418V72.217H23.418ZM6.91406 72.217H1.91406V77.217H6.91406V72.217ZM10.2344 61.8655L6.28283 58.8019L6.27795 58.8082L10.2344 61.8655ZM19.0723 55.2249L21.007 59.8354L21.0171 59.8311L21.0271 59.8269L19.0723 55.2249ZM44.2188 55.2249L42.321 59.8507L42.3379 59.8577L42.355 59.8645L44.2188 55.2249ZM53.1055 62.0608L49.0072 64.9251L49.0249 64.9503L49.0428 64.9753L53.1055 62.0608ZM54.6191 80.0784L59.0364 82.4209V82.4209L54.6191 80.0784ZM42.6074 89.5999L44.1886 94.3433L44.2053 94.3377L44.2219 94.332L42.6074 89.5999ZM22.8809 90.967H17.8809V95.967H22.8809V90.967ZM22.8809 94.8245H17.8809V99.8245H22.8809V94.8245ZM22.8809 86.6213V81.6213H17.8809V86.6213H22.8809ZM43.3398 87.842L42.0016 92.6596L42.0265 92.6666L42.0515 92.6732L43.3398 87.842ZM55.791 97.1682L51.3063 99.379L51.3126 99.3916L51.3189 99.4043L55.791 97.1682ZM49.8828 120.508L46.9002 116.495L49.8828 120.508ZM41.4355 124.61L42.7963 129.421L42.8187 129.415L42.8411 129.408L41.4355 124.61ZM22.0508 124.805L20.7262 129.626L20.7509 129.633L20.7757 129.64L22.0508 124.805ZM13.9453 121.094L11.0964 125.203L11.115 125.216L11.1338 125.229L13.9453 121.094ZM8.03711 114.649L3.66632 117.077L3.68421 117.109L3.70258 117.141L8.03711 114.649ZM5.83984 105.225V100.225H0.839844V105.225H5.83984ZM22.3438 105.225H27.3438V100.225H22.3438V105.225ZM23.5645 109.326L19.3874 112.074L19.4295 112.138L19.4735 112.201L23.5645 109.326ZM26.9336 112.207L24.6562 116.659L26.9336 112.207ZM36.6016 112.158L38.9598 116.567L38.9779 116.558L38.9958 116.548L36.6016 112.158ZM39.7754 98.926L35.3859 101.32L35.4067 101.358L35.4281 101.396L39.7754 98.926ZM36.3086 95.801L34.315 100.386L34.3329 100.394L34.3508 100.402L36.3086 95.801ZM22.8809 82.5686V87.5686H30.8887V82.5686V77.5686H22.8809V82.5686ZM30.8887 82.5686V87.5686C33.4774 87.5686 36.0598 87.1227 38.3276 85.8755L35.918 81.4944L33.5084 77.1133C33.1719 77.2983 32.4015 77.5686 30.8887 77.5686V82.5686ZM35.918 81.4944L38.3642 85.8551C40.5573 84.6248 42.279 82.8397 43.3903 80.5615L38.8965 78.3694L34.4026 76.1773C34.2119 76.5683 33.9479 76.8665 33.4717 77.1337L35.918 81.4944ZM38.8965 78.3694L43.4108 80.5191C44.4454 78.3464 44.873 75.9704 44.873 73.5354H39.873H34.873C34.873 74.8113 34.6497 75.658 34.3822 76.2197L38.8965 78.3694ZM39.873 73.5354H44.873C44.873 71.356 44.3955 69.2483 43.3931 67.2963L38.9453 69.5803L34.4975 71.8643C34.7321 72.3212 34.873 72.8502 34.873 73.5354H39.873ZM38.9453 69.5803L43.4415 67.393C42.39 65.2317 40.7542 63.5523 38.7161 62.3723L36.2109 66.6995L33.7058 71.0266C34.1416 71.2789 34.3287 71.5201 34.4491 71.7677L38.9453 69.5803ZM36.2109 66.6995L38.7999 62.422C36.5657 61.0697 34.0167 60.5764 31.4746 60.5764V65.5764V70.5764C32.7737 70.5764 33.3822 70.8319 33.6219 70.977L36.2109 66.6995ZM31.4746 65.5764V60.5764C29.4401 60.5764 27.4767 61.0136 25.6242 61.8424L27.666 66.4065L29.7078 70.9706C30.3293 70.6926 30.905 70.5764 31.4746 70.5764V65.5764ZM27.666 66.4065L25.7257 61.7983C23.7941 62.6116 22.1031 63.8264 20.7487 65.4517L24.5898 68.6526L28.431 71.8535C28.7042 71.5257 29.064 71.243 29.6063 71.0147L27.666 66.4065ZM24.5898 68.6526L20.6855 65.5291C19.1104 67.498 18.418 69.8253 18.418 72.217H23.418H28.418C28.418 71.9852 28.4497 71.8717 28.4608 71.8377C28.4698 71.8105 28.4764 71.7983 28.4942 71.7761L24.5898 68.6526ZM23.418 72.217V67.217H6.91406V72.217V77.217H23.418V72.217ZM6.91406 72.217H11.9141C11.9141 69.1528 12.7316 66.8111 14.1908 64.9227L10.2344 61.8655L6.27795 58.8082C3.3101 62.649 1.91406 67.2084 1.91406 72.217H6.91406ZM10.2344 61.8655L14.1859 64.929C15.8631 62.7657 18.0912 61.059 21.007 59.8354L19.0723 55.2249L17.1375 50.6144C12.7617 52.4506 9.09787 55.1709 6.28284 58.8019L10.2344 61.8655ZM19.0723 55.2249L21.0271 59.8269C24.0513 58.5423 27.3373 57.8811 30.9375 57.8811V52.8811V47.8811C26.0742 47.8811 21.45 48.7824 17.1174 50.6228L19.0723 55.2249ZM30.9375 52.8811V57.8811C35.4748 57.8811 39.2338 58.5842 42.321 59.8507L44.2188 55.2249L46.1165 50.599C41.5865 48.7405 36.4913 47.8811 30.9375 47.8811V52.8811ZM44.2188 55.2249L42.355 59.8645C45.366 61.0741 47.5088 62.7812 49.0072 64.9251L53.1055 62.0608L57.2037 59.1964C54.4704 55.2857 50.6887 52.4355 46.0825 50.5852L44.2188 55.2249ZM53.1055 62.0608L49.0428 64.9753C50.4673 66.961 51.3281 69.597 51.3281 73.1936H56.3281H61.3281C61.3281 67.936 60.0405 63.1502 57.1682 59.1463L53.1055 62.0608ZM56.3281 73.1936H51.3281C51.3281 74.8217 50.957 76.3119 50.2018 77.7359L54.6191 80.0784L59.0364 82.4209C60.56 79.548 61.3281 76.4484 61.3281 73.1936H56.3281ZM54.6191 80.0784L50.2018 77.7359C49.4098 79.2294 48.2782 80.5939 46.7257 81.826L49.834 85.7424L52.9423 89.6589C55.4914 87.6358 57.5498 85.2242 59.0364 82.4209L54.6191 80.0784ZM49.834 85.7424L46.7257 81.826C45.1716 83.0594 43.2816 84.0869 40.9929 84.8677L42.6074 89.5999L44.2219 94.332C47.4671 93.2248 50.3948 91.6807 52.9423 89.6589L49.834 85.7424ZM42.6074 89.5999L41.0263 84.8564C38.863 85.5775 36.4095 85.967 33.623 85.967V90.967V95.967C37.347 95.967 40.8831 95.4451 44.1886 94.3433L42.6074 89.5999ZM33.623 90.967V85.967H22.8809V90.967V95.967H33.623V90.967ZM22.8809 90.967H27.8809V82.5686H22.8809H17.8809V90.967H22.8809ZM22.8809 94.8245H27.8809V86.6213H22.8809H17.8809V94.8245H22.8809ZM22.8809 86.6213V91.6213H33.623V86.6213V81.6213H22.8809V86.6213ZM33.623 86.6213V91.6213C36.7923 91.6213 39.5732 91.9851 42.0016 92.6596L43.3398 87.842L44.6781 83.0245C41.2472 82.0714 37.5501 81.6213 33.623 81.6213V86.6213ZM43.3398 87.842L42.0515 92.6732C44.4663 93.3172 46.398 94.2426 47.938 95.3798L50.9082 91.3577L53.8784 87.3355C51.1867 85.3478 48.0728 83.9294 44.6282 83.0109L43.3398 87.842ZM50.9082 91.3577L47.938 95.3798C49.4255 96.4783 50.5275 97.7991 51.3063 99.379L55.791 97.1682L60.2757 94.9574C58.7759 91.9149 56.6226 89.362 53.8784 87.3355L50.9082 91.3577ZM55.791 97.1682L51.3189 99.4043C52.0587 100.884 52.5 102.717 52.5 105.03H57.5H62.5C62.5 101.417 61.802 98.0098 60.2632 94.9321L55.791 97.1682ZM57.5 105.03H52.5C52.5 107.665 51.9752 109.827 51.0484 111.636L55.498 113.916L59.9477 116.197C61.6902 112.797 62.5 109.035 62.5 105.03H57.5ZM55.498 113.916L51.0484 111.636C50.0726 113.54 48.71 115.15 46.9002 116.495L49.8828 120.508L52.8654 124.521C55.8733 122.285 58.2542 119.501 59.9477 116.197L55.498 113.916ZM49.8828 120.508L46.9002 116.495C45.0194 117.893 42.7517 119.014 40.03 119.811L41.4355 124.61L42.8411 129.408C46.5647 128.317 49.9285 126.704 52.8654 124.521L49.8828 120.508ZM41.4355 124.61L40.0748 119.798C37.3471 120.57 34.311 120.977 30.9375 120.977V125.977V130.977C35.116 130.977 39.0787 130.472 42.7963 129.421L41.4355 124.61ZM30.9375 125.977V120.977C28.4202 120.977 25.8862 120.646 23.3259 119.97L22.0508 124.805L20.7757 129.64C24.1398 130.527 27.5304 130.977 30.9375 130.977V125.977ZM22.0508 124.805L23.3753 119.984C20.9214 119.309 18.7255 118.298 16.7569 116.959L13.9453 121.094L11.1338 125.229C14.048 127.21 17.2556 128.673 20.7262 129.626L22.0508 124.805ZM13.9453 121.094L16.7942 116.985C14.9687 115.719 13.504 114.126 12.3716 112.156L8.03711 114.649L3.70258 117.141C5.56502 120.38 8.03914 123.083 11.0964 125.203L13.9453 121.094ZM8.03711 114.649L12.4079 112.22C11.4337 110.467 10.8398 108.198 10.8398 105.225H5.83984H0.839844C0.839844 109.544 1.71082 113.557 3.66632 117.077L8.03711 114.649ZM5.83984 105.225V110.225H22.3438V105.225V100.225H5.83984V105.225ZM22.3438 105.225H17.3438C17.3438 107.687 18.0303 110.012 19.3874 112.074L23.5645 109.326L27.7415 106.578C27.471 106.167 27.3438 105.757 27.3438 105.225H22.3438ZM23.5645 109.326L19.4735 112.201C20.8189 114.116 22.5834 115.598 24.6562 116.659L26.9336 112.207L29.211 107.756C28.4843 107.384 28.0027 106.946 27.6554 106.452L23.5645 109.326ZM26.9336 112.207L24.6562 116.659C26.7861 117.748 29.0839 118.281 31.4746 118.281V113.281V108.281C30.6101 108.281 29.8805 108.099 29.211 107.756L26.9336 112.207ZM31.4746 113.281V118.281C34.0976 118.281 36.664 117.795 38.9598 116.567L36.6016 112.158L34.2433 107.75C33.7396 108.019 32.8881 108.281 31.4746 108.281V113.281ZM36.6016 112.158L38.9958 116.548C41.1651 115.365 42.96 113.696 44.2076 111.526L39.873 109.033L35.5385 106.541C35.2887 106.976 34.9026 107.39 34.2073 107.769L36.6016 112.158ZM39.873 109.033L44.2076 111.526C45.4195 109.418 45.9961 107.101 45.9961 104.688H40.9961H35.9961C35.9961 105.464 35.824 106.045 35.5385 106.541L39.873 109.033ZM40.9961 104.688H45.9961C45.9961 101.787 45.5172 98.9104 44.1227 96.456L39.7754 98.926L35.4281 101.396C35.6612 101.806 35.9961 102.771 35.9961 104.688H40.9961ZM39.7754 98.926L44.1649 96.5318C42.8335 94.0909 40.8107 92.2829 38.2664 91.2003L36.3086 95.801L34.3508 100.402C34.8664 100.621 35.1548 100.897 35.3859 101.32L39.7754 98.926ZM36.3086 95.801L38.3022 91.2157C36.0192 90.2231 33.4963 89.8245 30.8887 89.8245V94.8245V99.8245C32.5128 99.8245 33.6032 100.077 34.315 100.386L36.3086 95.801ZM30.8887 94.8245V89.8245H22.8809V94.8245V99.8245H30.8887V94.8245Z" fill="#1A5069" mask="url(#path-7-outside-1_448_2351)"/>
<defs>
<radialGradient id="paint0_radial_448_2351" cx="0" cy="0" r="1" gradientUnits="userSpaceOnUse" gradientTransform="translate(96.2629 367.631) scale(96.2629 367.631)">
<stop stop-color="#1A5069"/>
<stop offset="1" stop-color="#0F7BAE" stop-opacity="0"/>
</radialGradient>
<radialGradient id="paint1_radial_448_2351" cx="0" cy="0" r="1" gradientUnits="userSpaceOnUse" gradientTransform="translate(96.2629 367.631) scale(96.2629 367.631)">
<stop stop-color="#1A5069"/>
<stop offset="1" stop-color="#0F7BAE" stop-opacity="0"/>
</radialGradient>
</defs>
</svg>
