<svg width="191" height="167" viewBox="0 0 191 167" fill="none" xmlns="http://www.w3.org/2000/svg">
<path d="M182.034 0C186.788 0.904915 190.387 4.22043 191 9.1618V131.701C190.395 136.988 186.732 140.427 181.488 140.878H9.49693C4.5373 140.45 1.28943 137.341 0 132.621V8.24186C1.33054 3.73982 4.07385 1.17902 8.58125 0H182.034ZM183.151 109.022V9.92778C183.151 9.76257 182.295 8.55351 182.034 8.42585L9.8632 8.22309C9.12692 7.96025 7.83001 9.47345 7.83001 9.92778V109.022H183.148H183.151ZM93.5266 118.473C92.3119 118.72 90.204 120.56 89.5798 121.627C85.9993 127.766 93.7097 134.562 99.4057 130.372C105.494 125.896 101.188 116.895 93.5266 118.473Z" fill="url(#paint0_linear_398_1107)"/>
<path d="M118.994 144.985V153.227H130.744C130.89 153.227 133.054 154.106 133.424 154.282C138.298 156.622 142.618 163.651 135.988 166.737L55.8566 167C48.2397 164.619 52.2163 156.847 57.5647 154.282C57.9347 154.106 60.0987 153.227 60.2444 153.227H71.9951V144.985H118.994Z" fill="url(#paint1_linear_398_1107)"/>
<path d="M110.685 41.2956C112.251 40.9764 119.39 40.9802 120.956 41.2956C122.522 41.611 123.516 42.8801 123.815 44.4158L123.856 95.7332C123.744 97.0699 122.302 98.6469 121.023 98.8835C119.603 99.1426 112.035 99.1426 110.618 98.8835C109.493 98.677 108.028 97.2088 107.819 96.0748L107.785 44.3745C107.946 42.8951 109.276 41.5772 110.685 41.2918V41.2956Z" fill="url(#paint2_linear_398_1107)"/>
<path d="M34.3172 19.1084V41.4008C34.3172 43.4735 37.6997 46.8341 39.7254 46.8341H61.9185C57.7736 62.8597 38.0547 68.6835 25.5379 57.7081C12.1204 45.9442 17.2856 23.5579 34.3135 19.1084H34.3172Z" fill="url(#paint3_linear_398_1107)"/>
<path d="M160.301 49.5416C162.035 49.2487 168.161 49.1999 169.824 49.5378C171.487 49.8758 172.567 51.2162 172.993 52.7219L173.087 95.3543C173.094 96.7136 171.461 98.5422 170.201 98.8275C168.942 99.1129 160.846 99.1204 159.542 98.8275C158.148 98.5121 157.18 96.9088 156.75 95.6359L156.664 53.762C156.926 51.4227 157.897 49.9471 160.297 49.5453L160.301 49.5416Z" fill="url(#paint4_linear_398_1107)"/>
<path d="M134.927 61.8949C136.231 61.602 144.285 61.5983 145.586 61.8949C146.603 62.1239 148.154 63.6822 148.385 64.7035L148.471 95.3542C148.307 97.0364 147.26 98.4783 145.579 98.8162C144.102 99.1166 136.347 99.1429 134.927 98.8237C133.506 98.5045 132.494 96.8749 132.217 95.5532C132.669 86.2901 131.04 75.1833 132.049 66.1228C132.232 64.4707 133.14 62.2967 134.927 61.8949Z" fill="url(#paint5_linear_398_1107)"/>
<path d="M86.0666 61.9025C87.6812 61.5759 94.3451 61.5796 96.027 61.8387C97.2716 62.0302 98.8525 63.0365 99.1403 64.3319L99.23 95.7298C99.2188 97.044 97.9668 98.546 96.7184 98.8276C95.2982 99.1467 87.5429 99.1205 86.0666 98.8201C84.5903 98.5197 83.6485 97.4158 83.2673 96.0115L83.1738 65.3683C83.3383 63.6861 84.3848 62.2442 86.0666 61.9063V61.9025Z" fill="url(#paint6_linear_398_1107)"/>
<path d="M40.1886 18.0454C40.8726 17.9102 43.6309 18.3044 44.4793 18.4546C52.3504 19.8477 59.6497 26.2159 61.8959 33.9283C62.5574 36.1925 64.3738 42.279 61.0026 42.7296C54.8096 43.5557 46.8413 42.0613 40.4503 42.7296C39.3328 42.6921 38.432 41.7797 38.3984 40.6682C38.9852 34.2625 37.6808 26.6664 38.4096 20.4109C38.5441 19.2732 38.9441 18.2894 40.1849 18.0454H40.1886Z" fill="url(#paint7_linear_398_1107)"/>
<path d="M89.6174 45.2418C88.8064 44.4382 89.2848 42.9964 90.0771 42.328C95.8179 36.8685 101.327 31.1311 107.049 25.6603C108.181 24.5789 114.894 18.1431 115.529 18.0455C116.396 17.9103 117.125 18.5149 117.697 19.0969L140.81 46.7963L165.021 29.9709C168.579 31.4052 166.699 33.17 164.614 34.7733C157.266 40.4206 149.219 45.2305 141.871 50.8928C140.817 51.5987 139.464 51.4936 138.601 50.5474L115.492 23.2535L92.7083 45.3507C92.0318 45.9477 90.1818 45.8088 89.61 45.2418H89.6174Z" fill="url(#paint8_linear_398_1107)"/>
<path d="M19.6633 83.2524L60.6223 83.166C63.7693 83.4138 63.7693 87.0523 60.6223 87.3001H20.3211C17.5143 87.1048 16.8303 84.1498 19.6633 83.2524Z" fill="url(#paint9_linear_398_1107)"/>
<path d="M18.369 72.0213C18.7838 71.6045 19.7331 71.5932 20.3125 71.5407C33.3077 70.4292 47.8427 72.4193 61.0061 71.5407C63.5438 71.8523 63.5364 75.0177 61.0061 75.3256L18.6455 75.1228C17.8532 74.4469 17.6364 72.7572 18.3652 72.0251L18.369 72.0213Z" fill="url(#paint10_linear_398_1107)"/>
<path d="M18.3705 98.4405C16.8232 96.8936 18.2995 95.3128 20.314 95.1438C33.3279 94.0474 47.833 96.0074 61.0076 95.1438C63.5379 95.4517 63.5454 98.6133 61.0076 98.9287C47.8442 98.0463 33.3092 100.04 20.314 98.9287C19.7309 98.8799 18.7853 98.8648 18.3705 98.448V98.4405Z" fill="url(#paint11_linear_398_1107)"/>
<path d="M95.0219 122.19C97.8324 121.671 99.5591 125.858 96.7486 127.326C92.955 129.309 91.1274 122.911 95.0219 122.19Z" fill="url(#paint12_linear_398_1107)"/>
<defs>
<linearGradient id="paint0_linear_398_1107" x1="223.904" y1="74.1186" x2="-65.7275" y2="66.8855" gradientUnits="userSpaceOnUse">
<stop stop-color="#FFE1AF"/>
<stop offset="1" stop-color="#156489"/>
</linearGradient>
<linearGradient id="paint1_linear_398_1107" x1="154.494" y1="156.568" x2="22.061" y2="146.844" gradientUnits="userSpaceOnUse">
<stop stop-color="#FFE1AF"/>
<stop offset="1" stop-color="#156489"/>
</linearGradient>
<linearGradient id="paint2_linear_398_1107" x1="126.625" y1="71.5832" x2="102.24" y2="71.4588" gradientUnits="userSpaceOnUse">
<stop stop-color="#FFE1AF"/>
<stop offset="1" stop-color="#156489"/>
</linearGradient>
<linearGradient id="paint3_linear_398_1107" x1="69.4983" y1="42.3803" x2="2.75978" y2="41.1575" gradientUnits="userSpaceOnUse">
<stop stop-color="#FFE1AF"/>
<stop offset="1" stop-color="#156489"/>
</linearGradient>
<linearGradient id="paint4_linear_398_1107" x1="175.916" y1="75.4728" x2="150.998" y2="75.3213" gradientUnits="userSpaceOnUse">
<stop stop-color="#FFE1AF"/>
<stop offset="1" stop-color="#156489"/>
</linearGradient>
<linearGradient id="paint5_linear_398_1107" x1="151.358" y1="81.3395" x2="125.932" y2="81.1295" gradientUnits="userSpaceOnUse">
<stop stop-color="#FFE1AF"/>
<stop offset="1" stop-color="#156489"/>
</linearGradient>
<linearGradient id="paint6_linear_398_1107" x1="101.996" y1="81.3304" x2="77.6349" y2="81.1378" gradientUnits="userSpaceOnUse">
<stop stop-color="#FFE1AF"/>
<stop offset="1" stop-color="#156489"/>
</linearGradient>
<linearGradient id="paint7_linear_398_1107" x1="67.2524" y1="31.1539" x2="29.637" y2="30.4658" gradientUnits="userSpaceOnUse">
<stop stop-color="#FFE1AF"/>
<stop offset="1" stop-color="#156489"/>
</linearGradient>
<linearGradient id="paint8_linear_398_1107" x1="180.422" y1="35.5592" x2="62.5626" y2="30.4897" gradientUnits="userSpaceOnUse">
<stop stop-color="#FFE1AF"/>
<stop offset="1" stop-color="#156489"/>
</linearGradient>
<linearGradient id="paint9_linear_398_1107" x1="70.7581" y1="85.341" x2="4.93504" y2="72.1038" gradientUnits="userSpaceOnUse">
<stop stop-color="#FFE1AF"/>
<stop offset="1" stop-color="#156489"/>
</linearGradient>
<linearGradient id="paint10_linear_398_1107" x1="70.6566" y1="73.3674" x2="5.03529" y2="60.2081" gradientUnits="userSpaceOnUse">
<stop stop-color="#FFE1AF"/>
<stop offset="1" stop-color="#156489"/>
</linearGradient>
<linearGradient id="paint11_linear_398_1107" x1="70.6917" y1="97.155" x2="4.42788" y2="84.831" gradientUnits="userSpaceOnUse">
<stop stop-color="#FFE1AF"/>
<stop offset="1" stop-color="#156489"/>
</linearGradient>
<linearGradient id="paint12_linear_398_1107" x1="99.0988" y1="125.071" x2="91.0177" y2="124.928" gradientUnits="userSpaceOnUse">
<stop stop-color="#FFE1AF"/>
<stop offset="1" stop-color="#156489"/>
</linearGradient>
</defs>
</svg>
