<svg width="144" height="144" viewBox="0 0 144 144" fill="none" xmlns="http://www.w3.org/2000/svg">
<path d="M62.4983 143.49C58.2065 141.737 59.6511 137.44 59.4071 133.706C51.5135 132.374 44.136 128.977 37.4066 124.772C34.3322 126.783 32.1582 132.026 27.7934 128.8C23.4287 125.574 19.35 119.507 15.0835 116.042C12.4691 111.689 17.4454 109.728 19.3697 106.724C15.1536 100.005 11.7538 92.6084 10.441 84.712C6.90654 84.4343 2.21358 85.9547 0.791388 81.6264C1.16166 76.0273 -0.162351 68.3862 0.676379 63.0172C1.4029 58.3635 7.09729 59.6567 10.441 59.4856C11.7538 51.5892 15.1536 44.1921 19.3697 37.4738C17.3584 34.3994 12.1184 32.2226 15.3443 27.8551C18.4973 23.5857 24.6349 19.4061 28.0964 15.1367C32.4471 12.5195 34.4079 17.5014 37.4094 19.4229C44.1389 15.218 51.5163 11.821 59.4099 10.4886C59.6091 7.26272 58.2794 1.66651 62.7059 0.766072C64.8939 0.320058 78.7315 0.350915 81.0935 0.72119C81.604 0.802538 82.9841 1.47016 83.3572 1.81799C83.576 2.01996 84.6083 3.80121 84.6083 3.92463V36.5397C57.2163 26.7302 29.5831 50.4868 34.882 79.1522C39.0251 101.565 63.0706 115.675 84.6083 107.649V140.265C84.6083 140.377 83.6545 142.06 83.4946 142.231C82.9364 142.831 82.0556 142.868 81.5282 143.485H62.5011L62.4983 143.49Z" fill="url(#paint0_linear_398_1056)"/>
<path d="M143.927 35.4238C144.025 36.1896 144.025 38.0186 143.927 38.7843C143.17 44.633 137.206 48.8154 131.509 48.2685C130.389 48.1619 128.033 47.1015 127.413 47.2923C125.416 48.3975 116.989 56.7006 115.525 56.7006H93V48.3021H113.006L121.966 40.7367C119.127 30.6888 129.553 22.021 138.693 27.6396C141.161 29.1572 143.548 32.5177 143.924 35.4238H143.927Z" fill="url(#paint1_linear_398_1056)"/>
<path d="M143.926 105.414C144.024 106.18 144.024 108.009 143.926 108.775C143.55 111.681 141.163 115.039 138.694 116.559C129.553 122.181 119.129 113.513 121.968 103.462L113.008 95.8966H93.002V87.498H115.527C116.989 87.498 125.418 95.8012 127.415 96.9064C128.035 97.0972 130.391 96.0396 131.511 95.9302C137.208 95.3804 143.171 99.5657 143.929 105.414H143.926Z" fill="url(#paint2_linear_398_1056)"/>
<path d="M143.927 70.4199C144.025 71.1857 144.025 73.0146 143.927 73.7804C143.644 75.974 141.722 79.2252 140.014 80.6418C133.96 85.6629 125.402 83.2533 122.241 76.2994H93V67.9009H122.241C125.402 60.947 133.957 58.5346 140.014 63.5586C141.725 64.978 143.644 68.2263 143.927 70.4199Z" fill="url(#paint3_linear_398_1056)"/>
<path d="M69.4403 42.7874C73.4235 42.462 77.7434 42.9361 81.5163 44.2545C82.3073 44.5322 84.4701 45.1998 84.6103 45.9179L84.5682 98.5167C68.206 106.837 48.012 97.0692 43.5518 79.4363C39.1226 61.9295 51.4146 44.2601 69.4403 42.7846V42.7874Z" fill="url(#paint4_linear_398_1056)"/>
<path d="M93 17.5077V9.10919H102.652C107.289 -1.87845 123.968 0.853734 124.35 12.8765C124.751 25.4546 107.567 28.9021 102.652 17.5077H93Z" fill="url(#paint5_linear_398_1056)"/>
<path d="M93 135.093V126.694H102.652C107.289 115.707 123.968 118.439 124.35 130.461C124.751 143.04 107.567 146.487 102.652 135.093H93Z" fill="url(#paint6_linear_398_1056)"/>
<defs>
<linearGradient id="paint0_linear_398_1056" x1="99.1163" y1="75.7005" x2="-28.6526" y2="74.315" gradientUnits="userSpaceOnUse">
<stop stop-color="#FFE1AF"/>
<stop offset="1" stop-color="#156489"/>
</linearGradient>
<linearGradient id="paint1_linear_398_1056" x1="152.787" y1="42.0897" x2="75.4731" y2="39.7341" gradientUnits="userSpaceOnUse">
<stop stop-color="#FFE1AF"/>
<stop offset="1" stop-color="#156489"/>
</linearGradient>
<linearGradient id="paint2_linear_398_1056" x1="152.785" y1="103.72" x2="75.476" y2="101.365" gradientUnits="userSpaceOnUse">
<stop stop-color="#FFE1AF"/>
<stop offset="1" stop-color="#156489"/>
</linearGradient>
<linearGradient id="paint3_linear_398_1056" x1="152.787" y1="72.6852" x2="75.5369" y2="69.4487" gradientUnits="userSpaceOnUse">
<stop stop-color="#FFE1AF"/>
<stop offset="1" stop-color="#156489"/>
</linearGradient>
<linearGradient id="paint4_linear_398_1056" x1="91.8399" y1="73.6437" x2="28.1744" y2="72.8073" gradientUnits="userSpaceOnUse">
<stop stop-color="#FFE1AF"/>
<stop offset="1" stop-color="#156489"/>
</linearGradient>
<linearGradient id="paint5_linear_398_1056" x1="129.759" y1="13.8945" x2="82.2118" y2="12.6597" gradientUnits="userSpaceOnUse">
<stop stop-color="#FFE1AF"/>
<stop offset="1" stop-color="#156489"/>
</linearGradient>
<linearGradient id="paint6_linear_398_1056" x1="129.759" y1="131.479" x2="82.2118" y2="130.245" gradientUnits="userSpaceOnUse">
<stop stop-color="#FFE1AF"/>
<stop offset="1" stop-color="#156489"/>
</linearGradient>
</defs>
</svg>
