<svg width="167" height="161" viewBox="0 0 167 161" fill="none" xmlns="http://www.w3.org/2000/svg">
<path d="M105.366 0C98.2141 0.949968 91.5192 3.43225 86.1215 8.27318C82.3868 11.6241 79.9363 15.8241 77.4759 20.1283C77.1721 20.1998 73.4766 16.6407 72.7251 16.0974C55.885 3.8812 33.0948 13.9079 29.7196 33.9516C25.6485 32.878 22.8483 31.7458 18.5451 32.5559C4.76323 35.1455 0.724731 53.0616 11.9907 61.3087C19.9044 67.1029 35.65 63.1013 45.181 64.2725C56.0353 58.6898 66.5236 50.0327 77.3126 44.6387C81.7431 42.4232 85.7849 42.5891 90.1338 44.8697C100.648 50.3873 110.852 58.3645 121.354 64.1098C134.92 63.5535 153.744 68.8011 160.206 52.8176C165.823 38.9226 154.155 25.1774 139.635 26.9147C138.243 19.175 134.198 12.034 128.019 7.15078C123.03 3.20777 116.322 0.494504 109.931 0H105.366ZM110.977 5.61522C117.335 6.25938 123.654 9.75344 127.862 14.448L123.837 17.8347C117.119 10.7685 107.114 8.92059 98.1814 12.8473L95.9498 8.54646L96.2439 7.96411C100.942 5.87874 105.834 5.09469 110.98 5.61522H110.977ZM134.064 26.2965L128.833 27.4645L127.242 22.9261L132.104 20.4601L134.067 26.2998L134.064 26.2965ZM113.192 32.1427H118.41V37.6636H113.192V32.1427ZM102.432 32.1427H107.65V37.6636H102.432V32.1427ZM91.6695 32.1427H96.8875V37.6636H91.6695V32.1427ZM80.9067 32.1427H86.1247V37.6636H80.9067V32.1427ZM70.1471 32.1427H75.3652V37.6636H70.1471V32.1427ZM59.3843 32.1427H64.6024V37.6636H59.3843V32.1427ZM48.6248 32.1427H53.8428V37.6636H48.6248V32.1427Z" fill="url(#paint0_linear_398_1093)"/>
<path d="M167 129.872C164.876 121.921 154.257 121.033 151.346 128.899H137.322V134.095H151.183C154.545 141.818 164.595 141.063 167 133.122V129.875V129.872Z" fill="url(#paint1_linear_398_1093)"/>
<path d="M34.9285 89.9342V155.518H46.3415C45.5181 151.633 45.3351 146.363 45.6945 142.374C45.8677 140.445 46.4918 138.243 47.9131 136.853C47.3805 136.095 46.7532 135.389 46.4101 134.511C45.26 131.58 45.3025 120.737 46.4166 117.766C46.7663 116.829 47.2106 116.13 47.9131 115.424C47.3805 114.666 46.7532 113.96 46.4101 113.082C45.2567 110.147 45.3025 99.307 46.4166 96.3367C47.5177 93.399 50.5009 91.3233 53.667 91.216H113.696C116.744 91.4893 119.936 93.8056 120.861 96.7434C121.733 99.5184 121.681 110.388 120.626 113.078C120.279 113.957 119.655 114.663 119.123 115.421C119.829 116.127 120.27 116.826 120.619 117.763C121.733 120.733 121.776 131.577 120.626 134.508C120.279 135.386 119.655 136.092 119.123 136.85C120.544 138.239 121.168 140.442 121.341 142.371C121.701 146.363 121.518 151.633 120.694 155.514H132.107V89.9309L83.6225 60.7617L34.9285 89.9309V89.9342Z" fill="url(#paint2_linear_398_1093)"/>
<path d="M114.268 96.8223H52.7694C51.9917 97.2224 51.3905 98.0227 51.2533 98.8849C50.9952 100.515 50.9723 109.328 51.3056 110.812C51.5474 111.885 52.5929 112.65 53.6744 112.672L113.942 112.594C115.353 112.155 115.696 111.287 115.82 109.92C116.033 107.558 116.137 101.087 115.788 98.8849C115.65 98.0227 115.049 97.2224 114.272 96.8223H114.268Z" fill="url(#paint3_linear_398_1093)"/>
<path d="M114.268 118.248H52.7694C51.9917 118.648 51.3905 119.449 51.2533 120.311C50.9952 121.941 50.9723 130.754 51.3056 132.237C51.5474 133.311 52.5929 134.075 53.6744 134.098L113.942 134.02C115.353 133.581 115.696 132.712 115.82 131.346C116.033 128.984 116.137 122.513 115.788 120.311C115.65 119.449 115.049 118.648 114.272 118.248H114.268Z" fill="url(#paint4_linear_398_1093)"/>
<path d="M113.938 139.681H53.0961C52.0996 139.961 51.4134 140.716 51.2533 141.74C50.9952 143.39 50.969 152.167 51.3023 153.664C51.5441 154.737 52.5897 155.502 53.6712 155.525L113.938 155.447C115.35 155.007 115.693 154.139 115.817 152.772C116.033 150.394 116.131 143.966 115.781 141.737C115.621 140.712 114.932 139.958 113.938 139.678V139.681Z" fill="url(#paint5_linear_398_1093)"/>
<path d="M20.5818 86.04H31.5047L83.4074 54.6097L135.532 86.04H146.455L145.583 85.1226L85.1685 48.5195H81.8684L21.4542 85.1226L20.5818 86.04Z" fill="url(#paint6_linear_398_1093)"/>
<path d="M29.7109 134.091V128.896H15.6873C12.6322 120.066 -0.52557 122.624 0.016819 131.99C0.519999 140.686 12.7695 142.264 15.8506 134.091H29.7109Z" fill="url(#paint7_linear_398_1093)"/>
<path d="M137.325 150.326V155.522H143.033C146.558 164.146 159.311 161.937 158.864 152.424C158.445 143.549 146.16 142.216 143.033 150.329H137.325V150.326Z" fill="url(#paint8_linear_398_1093)"/>
<path d="M29.7109 155.521V150.326H24.0028C21.9117 145.797 17.2883 143.478 12.531 145.722C6.69211 148.478 6.73132 157.392 12.531 160.125C17.3536 162.396 21.8202 160.027 24.0028 155.521H29.7109Z" fill="url(#paint9_linear_398_1093)"/>
<path d="M137.325 107.467V112.662H143.033C146.572 121.163 159.308 119.013 158.864 109.565C158.442 100.628 146.16 99.2585 143.033 107.47H137.325V107.467Z" fill="url(#paint10_linear_398_1093)"/>
<path d="M29.7109 112.662V107.467H24.0028C22.588 104.806 20.8399 102.639 17.6608 102.092C7.86838 100.407 4.27751 114.308 13.4981 117.598C17.9744 119.195 22.0456 116.644 23.9995 112.659H29.7077L29.7109 112.662Z" fill="url(#paint11_linear_398_1093)"/>
<defs>
<linearGradient id="paint0_linear_398_1093" x1="-21.4448" y1="33.9579" x2="215.069" y2="23.416" gradientUnits="userSpaceOnUse">
<stop stop-color="#FFE1AF"/>
<stop offset="1" stop-color="#156489"/>
</linearGradient>
<linearGradient id="paint1_linear_398_1093" x1="132.21" y1="131.887" x2="177.189" y2="130.356" gradientUnits="userSpaceOnUse">
<stop stop-color="#FFE1AF"/>
<stop offset="1" stop-color="#156489"/>
</linearGradient>
<linearGradient id="paint2_linear_398_1093" x1="18.1872" y1="110.615" x2="165.588" y2="107.83" gradientUnits="userSpaceOnUse">
<stop stop-color="#FFE1AF"/>
<stop offset="1" stop-color="#156489"/>
</linearGradient>
<linearGradient id="paint3_linear_398_1093" x1="39.867" y1="105.161" x2="137.872" y2="97.763" gradientUnits="userSpaceOnUse">
<stop stop-color="#FFE1AF"/>
<stop offset="1" stop-color="#156489"/>
</linearGradient>
<linearGradient id="paint4_linear_398_1093" x1="39.867" y1="126.587" x2="137.872" y2="119.189" gradientUnits="userSpaceOnUse">
<stop stop-color="#FFE1AF"/>
<stop offset="1" stop-color="#156489"/>
</linearGradient>
<linearGradient id="paint5_linear_398_1093" x1="39.8658" y1="148.015" x2="137.867" y2="140.616" gradientUnits="userSpaceOnUse">
<stop stop-color="#FFE1AF"/>
<stop offset="1" stop-color="#156489"/>
</linearGradient>
<linearGradient id="paint6_linear_398_1093" x1="-1.1027" y1="68.2598" x2="189.163" y2="56.5024" gradientUnits="userSpaceOnUse">
<stop stop-color="#FFE1AF"/>
<stop offset="1" stop-color="#156489"/>
</linearGradient>
<linearGradient id="paint7_linear_398_1093" x1="-5.11777" y1="131.867" x2="39.9103" y2="130.325" gradientUnits="userSpaceOnUse">
<stop stop-color="#FFE1AF"/>
<stop offset="1" stop-color="#156489"/>
</linearGradient>
<linearGradient id="paint8_linear_398_1093" x1="133.612" y1="153.347" x2="166.291" y2="152.535" gradientUnits="userSpaceOnUse">
<stop stop-color="#FFE1AF"/>
<stop offset="1" stop-color="#156489"/>
</linearGradient>
<linearGradient id="paint9_linear_398_1093" x1="4.45499" y1="153.349" x2="37.1255" y2="152.546" gradientUnits="userSpaceOnUse">
<stop stop-color="#FFE1AF"/>
<stop offset="1" stop-color="#156489"/>
</linearGradient>
<linearGradient id="paint10_linear_398_1093" x1="133.612" y1="110.421" x2="166.291" y2="109.609" gradientUnits="userSpaceOnUse">
<stop stop-color="#FFE1AF"/>
<stop offset="1" stop-color="#156489"/>
</linearGradient>
<linearGradient id="paint11_linear_398_1093" x1="4.44712" y1="110.437" x2="37.1278" y2="109.633" gradientUnits="userSpaceOnUse">
<stop stop-color="#FFE1AF"/>
<stop offset="1" stop-color="#156489"/>
</linearGradient>
</defs>
</svg>
