<svg width="1399" height="260" viewBox="0 0 1399 260" fill="none" xmlns="http://www.w3.org/2000/svg">
<mask id="mask0_335_201" style="mask-type:alpha" maskUnits="userSpaceOnUse" x="0" y="0" width="1319" height="260">
<rect x="-1.002" y="0.996147" width="252.724" height="1316.5" rx="96" transform="matrix(-0.00200854 0.999998 -0.999993 -0.00385048 1318.99 7.07913)" fill="black" stroke="#136A93" stroke-width="2"/>
</mask>
<g mask="url(#mask0_335_201)">
<rect width="278.585" height="1335.28" rx="47.5" transform="matrix(-0.00200854 0.999998 -0.999993 -0.00385048 1818.61 99.0371)" fill="url(#paint0_radial_335_201)" fill-opacity="0.74"/>
<rect width="278.585" height="1335.28" rx="47.5" transform="matrix(-0.00200854 0.999998 -0.999993 -0.00385048 836.164 -83.8594)" fill="url(#paint1_radial_335_201)" fill-opacity="0.74"/>
</g>
<rect x="5.17188" y="1.79395" width="1314.12" height="254.46" rx="96" fill="#D9D9D9" fill-opacity="0.14" stroke="#136A93" stroke-width="2"/>
<mask id="mask1_335_201" style="mask-type:alpha" maskUnits="userSpaceOnUse" x="30" y="17" width="292" height="223">
<rect x="-1.0004" y="0.984908" width="218.68" height="289.443" rx="96" transform="matrix(-0.000512409 1 -0.999886 -0.0150915 321.484 22.631)" fill="black" stroke="#136A93" stroke-width="2"/>
</mask>
<g mask="url(#mask1_335_201)">
<rect width="241.352" height="295.153" rx="47.5" transform="matrix(-0.000512409 1 -0.999886 -0.0150915 431.926 102.033)" fill="url(#paint2_radial_335_201)" fill-opacity="0.74"/>
<rect width="241.352" height="295.153" rx="47.5" transform="matrix(-0.000512409 1 -0.999886 -0.0150915 214.786 -56.4199)" fill="url(#paint3_radial_335_201)" fill-opacity="0.74"/>
</g>
<rect x="31.8994" y="17.9199" width="288.887" height="220.184" rx="96" fill="#D9D9D9" fill-opacity="0.14" stroke="#136A93" stroke-width="2"/>
<path d="M383.221 105.214V133.651H381.229L364.236 108.612V133.651H362.244V105.214H364.236L381.248 130.233V105.214H383.221ZM388.479 123.437V122.733C388.479 121.197 388.7 119.784 389.143 118.495C389.585 117.193 390.217 116.067 391.037 115.116C391.857 114.166 392.84 113.43 393.986 112.909C395.145 112.388 396.428 112.128 397.834 112.128C399.253 112.128 400.536 112.388 401.682 112.909C402.84 113.43 403.83 114.166 404.65 115.116C405.484 116.067 406.122 117.193 406.564 118.495C407.007 119.784 407.229 121.197 407.229 122.733V123.437C407.229 124.973 407.007 126.392 406.564 127.694C406.122 128.983 405.484 130.103 404.65 131.054C403.83 132.004 402.847 132.74 401.701 133.261C400.555 133.782 399.279 134.042 397.873 134.042C396.454 134.042 395.165 133.782 394.006 133.261C392.86 132.74 391.87 132.004 391.037 131.054C390.217 130.103 389.585 128.983 389.143 127.694C388.7 126.392 388.479 124.973 388.479 123.437ZM390.393 122.733V123.437C390.393 124.621 390.555 125.754 390.881 126.835C391.219 127.903 391.701 128.853 392.326 129.687C392.964 130.507 393.745 131.158 394.67 131.64C395.607 132.108 396.675 132.343 397.873 132.343C399.058 132.343 400.106 132.108 401.018 131.64C401.942 131.158 402.717 130.507 403.342 129.687C403.98 128.853 404.462 127.903 404.787 126.835C405.126 125.754 405.295 124.621 405.295 123.437V122.733C405.295 121.575 405.126 120.461 404.787 119.394C404.462 118.326 403.98 117.375 403.342 116.542C402.704 115.709 401.923 115.051 400.998 114.569C400.074 114.075 399.019 113.827 397.834 113.827C396.649 113.827 395.594 114.075 394.67 114.569C393.745 115.051 392.964 115.709 392.326 116.542C391.688 117.375 391.206 118.326 390.881 119.394C390.555 120.461 390.393 121.575 390.393 122.733ZM435.322 112.519H437.139V133.3C437.139 135.123 436.8 136.692 436.123 138.007C435.446 139.335 434.482 140.351 433.232 141.054C431.995 141.757 430.531 142.108 428.838 142.108C427.913 142.108 427.002 141.972 426.104 141.698C425.205 141.425 424.365 141.015 423.584 140.468C422.816 139.934 422.158 139.283 421.611 138.515L422.744 137.323C423.59 138.365 424.502 139.14 425.479 139.647C426.455 140.155 427.536 140.409 428.721 140.409C430.114 140.409 431.292 140.123 432.256 139.55C433.219 138.99 433.949 138.183 434.443 137.128C434.951 136.073 435.205 134.817 435.205 133.358V117.167L435.322 112.519ZM420.4 123.3V122.89C420.4 121.236 420.583 119.752 420.947 118.437C421.312 117.108 421.839 115.976 422.529 115.038C423.232 114.101 424.085 113.384 425.088 112.89C426.09 112.382 427.223 112.128 428.486 112.128C429.697 112.128 430.771 112.323 431.709 112.714C432.646 113.104 433.454 113.658 434.131 114.374C434.821 115.09 435.381 115.937 435.811 116.913C436.24 117.89 436.559 118.97 436.768 120.155V126.444C436.598 127.525 436.305 128.528 435.889 129.452C435.472 130.377 434.919 131.184 434.229 131.874C433.538 132.564 432.712 133.098 431.748 133.476C430.798 133.853 429.697 134.042 428.447 134.042C427.197 134.042 426.071 133.782 425.068 133.261C424.079 132.74 423.232 132.004 422.529 131.054C421.839 130.09 421.312 128.957 420.947 127.655C420.583 126.34 420.4 124.888 420.4 123.3ZM422.334 122.89V123.3C422.334 124.576 422.464 125.767 422.725 126.874C422.985 127.968 423.376 128.918 423.896 129.726C424.43 130.533 425.094 131.164 425.889 131.62C426.696 132.076 427.646 132.304 428.74 132.304C430.12 132.304 431.286 132.05 432.236 131.542C433.187 131.021 433.942 130.331 434.502 129.472C435.062 128.612 435.459 127.668 435.693 126.64V120.136C435.55 119.459 435.329 118.756 435.029 118.026C434.743 117.297 434.333 116.62 433.799 115.995C433.278 115.357 432.607 114.843 431.787 114.452C430.967 114.062 429.964 113.866 428.779 113.866C427.673 113.866 426.715 114.094 425.908 114.55C425.101 115.006 424.43 115.644 423.896 116.464C423.376 117.271 422.985 118.222 422.725 119.315C422.464 120.409 422.334 121.601 422.334 122.89ZM456.947 128.769V112.519H458.9V133.651H457.006L456.947 128.769ZM457.299 125.019L458.393 124.979C458.393 126.282 458.236 127.486 457.924 128.593C457.611 129.687 457.117 130.644 456.439 131.464C455.775 132.284 454.916 132.922 453.861 133.378C452.807 133.821 451.544 134.042 450.072 134.042C449.044 134.042 448.1 133.899 447.24 133.612C446.394 133.313 445.658 132.844 445.033 132.206C444.421 131.568 443.946 130.741 443.607 129.726C443.282 128.697 443.119 127.46 443.119 126.015V112.519H445.053V126.054C445.053 127.226 445.183 128.215 445.443 129.022C445.717 129.817 446.088 130.455 446.557 130.937C447.038 131.418 447.592 131.77 448.217 131.991C448.842 132.2 449.519 132.304 450.248 132.304C452.019 132.304 453.419 131.965 454.447 131.288C455.476 130.598 456.205 129.7 456.635 128.593C457.077 127.473 457.299 126.282 457.299 125.019ZM472.908 134.042C471.554 134.042 470.304 133.788 469.158 133.28C468.012 132.772 467.016 132.056 466.17 131.132C465.324 130.194 464.666 129.094 464.197 127.831C463.729 126.555 463.494 125.155 463.494 123.632V122.792C463.494 121.177 463.729 119.719 464.197 118.417C464.679 117.115 465.337 115.995 466.17 115.058C467.016 114.107 467.98 113.384 469.061 112.89C470.141 112.382 471.287 112.128 472.498 112.128C473.774 112.128 474.92 112.362 475.936 112.831C476.964 113.287 477.837 113.938 478.553 114.784C479.269 115.631 479.809 116.633 480.174 117.792C480.551 118.938 480.74 120.207 480.74 121.601V122.968H464.686V121.269H478.807V121.015C478.794 119.752 478.54 118.58 478.045 117.499C477.563 116.405 476.854 115.52 475.916 114.843C474.992 114.166 473.852 113.827 472.498 113.827C471.443 113.827 470.48 114.055 469.607 114.511C468.748 114.953 468.006 115.578 467.381 116.386C466.756 117.18 466.274 118.124 465.936 119.218C465.597 120.299 465.428 121.49 465.428 122.792V123.632C465.428 124.843 465.61 125.976 465.975 127.03C466.352 128.085 466.873 129.009 467.537 129.804C468.214 130.598 469.015 131.223 469.939 131.679C470.864 132.134 471.873 132.362 472.967 132.362C474.204 132.362 475.317 132.141 476.307 131.698C477.296 131.243 478.195 130.494 479.002 129.452L480.232 130.39C479.777 131.067 479.21 131.685 478.533 132.245C477.856 132.792 477.055 133.228 476.131 133.554C475.206 133.879 474.132 134.042 472.908 134.042ZM497.951 128.319C497.951 127.733 497.795 127.147 497.482 126.562C497.17 125.963 496.59 125.416 495.744 124.921C494.898 124.413 493.661 123.99 492.033 123.651C490.861 123.391 489.82 123.104 488.908 122.792C487.997 122.466 487.229 122.076 486.604 121.62C485.992 121.164 485.523 120.624 485.197 119.999C484.885 119.361 484.729 118.612 484.729 117.753C484.729 116.972 484.898 116.243 485.236 115.565C485.575 114.888 486.063 114.296 486.701 113.788C487.339 113.267 488.107 112.864 489.006 112.577C489.917 112.278 490.939 112.128 492.072 112.128C493.687 112.128 495.067 112.401 496.213 112.948C497.359 113.482 498.238 114.218 498.85 115.155C499.475 116.093 499.787 117.16 499.787 118.358H497.854C497.854 117.577 497.626 116.848 497.17 116.171C496.727 115.481 496.076 114.921 495.217 114.491C494.357 114.049 493.309 113.827 492.072 113.827C490.783 113.827 489.742 114.022 488.947 114.413C488.153 114.804 487.574 115.292 487.209 115.878C486.844 116.464 486.662 117.069 486.662 117.694C486.662 118.189 486.734 118.638 486.877 119.042C487.033 119.446 487.32 119.823 487.736 120.175C488.153 120.526 488.745 120.858 489.514 121.171C490.295 121.47 491.304 121.763 492.541 122.05C494.247 122.427 495.633 122.89 496.701 123.437C497.782 123.97 498.576 124.628 499.084 125.409C499.605 126.19 499.865 127.134 499.865 128.241C499.865 129.101 499.683 129.888 499.318 130.604C498.967 131.308 498.452 131.92 497.775 132.44C497.111 132.948 496.304 133.345 495.354 133.632C494.416 133.905 493.368 134.042 492.209 134.042C490.438 134.042 488.947 133.756 487.736 133.183C486.525 132.61 485.607 131.854 484.982 130.917C484.357 129.979 484.045 128.97 484.045 127.89H485.979C486.057 129.022 486.415 129.914 487.053 130.565C487.704 131.216 488.492 131.679 489.416 131.952C490.354 132.213 491.285 132.343 492.209 132.343C493.459 132.343 494.507 132.154 495.354 131.776C496.213 131.386 496.857 130.884 497.287 130.272C497.73 129.66 497.951 129.009 497.951 128.319ZM517.857 128.319C517.857 127.733 517.701 127.147 517.389 126.562C517.076 125.963 516.497 125.416 515.65 124.921C514.804 124.413 513.567 123.99 511.939 123.651C510.768 123.391 509.726 123.104 508.814 122.792C507.903 122.466 507.135 122.076 506.51 121.62C505.898 121.164 505.429 120.624 505.104 119.999C504.791 119.361 504.635 118.612 504.635 117.753C504.635 116.972 504.804 116.243 505.143 115.565C505.481 114.888 505.969 114.296 506.607 113.788C507.245 113.267 508.014 112.864 508.912 112.577C509.824 112.278 510.846 112.128 511.979 112.128C513.593 112.128 514.973 112.401 516.119 112.948C517.265 113.482 518.144 114.218 518.756 115.155C519.381 116.093 519.693 117.16 519.693 118.358H517.76C517.76 117.577 517.532 116.848 517.076 116.171C516.633 115.481 515.982 114.921 515.123 114.491C514.264 114.049 513.215 113.827 511.979 113.827C510.689 113.827 509.648 114.022 508.854 114.413C508.059 114.804 507.48 115.292 507.115 115.878C506.751 116.464 506.568 117.069 506.568 117.694C506.568 118.189 506.64 118.638 506.783 119.042C506.939 119.446 507.226 119.823 507.643 120.175C508.059 120.526 508.652 120.858 509.42 121.171C510.201 121.47 511.21 121.763 512.447 122.05C514.153 122.427 515.54 122.89 516.607 123.437C517.688 123.97 518.482 124.628 518.99 125.409C519.511 126.19 519.771 127.134 519.771 128.241C519.771 129.101 519.589 129.888 519.225 130.604C518.873 131.308 518.359 131.92 517.682 132.44C517.018 132.948 516.21 133.345 515.26 133.632C514.322 133.905 513.274 134.042 512.115 134.042C510.344 134.042 508.854 133.756 507.643 133.183C506.432 132.61 505.514 131.854 504.889 130.917C504.264 129.979 503.951 128.97 503.951 127.89H505.885C505.963 129.022 506.321 129.914 506.959 130.565C507.61 131.216 508.398 131.679 509.322 131.952C510.26 132.213 511.191 132.343 512.115 132.343C513.365 132.343 514.413 132.154 515.26 131.776C516.119 131.386 516.764 130.884 517.193 130.272C517.636 129.66 517.857 129.009 517.857 128.319ZM531.006 128.339L535.986 112.519H537.432L536.279 117.167L531.006 133.651H529.561L531.006 128.339ZM525.205 112.519L529.639 128.417L530.771 133.651H529.307L523.174 112.519H525.205ZM544.131 128.358L548.467 112.519H550.498L544.346 133.651H542.9L544.131 128.358ZM537.686 112.519L542.627 128.241L544.092 133.651H542.666L537.275 117.147L536.201 112.519H537.686ZM553.549 123.437V122.733C553.549 121.197 553.77 119.784 554.213 118.495C554.656 117.193 555.287 116.067 556.107 115.116C556.928 114.166 557.911 113.43 559.057 112.909C560.215 112.388 561.498 112.128 562.904 112.128C564.324 112.128 565.606 112.388 566.752 112.909C567.911 113.43 568.9 114.166 569.721 115.116C570.554 116.067 571.192 117.193 571.635 118.495C572.077 119.784 572.299 121.197 572.299 122.733V123.437C572.299 124.973 572.077 126.392 571.635 127.694C571.192 128.983 570.554 130.103 569.721 131.054C568.9 132.004 567.917 132.74 566.771 133.261C565.626 133.782 564.35 134.042 562.943 134.042C561.524 134.042 560.235 133.782 559.076 133.261C557.93 132.74 556.941 132.004 556.107 131.054C555.287 130.103 554.656 128.983 554.213 127.694C553.77 126.392 553.549 124.973 553.549 123.437ZM555.463 122.733V123.437C555.463 124.621 555.626 125.754 555.951 126.835C556.29 127.903 556.771 128.853 557.396 129.687C558.035 130.507 558.816 131.158 559.74 131.64C560.678 132.108 561.745 132.343 562.943 132.343C564.128 132.343 565.176 132.108 566.088 131.64C567.012 131.158 567.787 130.507 568.412 129.687C569.05 128.853 569.532 127.903 569.857 126.835C570.196 125.754 570.365 124.621 570.365 123.437V122.733C570.365 121.575 570.196 120.461 569.857 119.394C569.532 118.326 569.05 117.375 568.412 116.542C567.774 115.709 566.993 115.051 566.068 114.569C565.144 114.075 564.089 113.827 562.904 113.827C561.719 113.827 560.665 114.075 559.74 114.569C558.816 115.051 558.035 115.709 557.396 116.542C556.758 117.375 556.277 118.326 555.951 119.394C555.626 120.461 555.463 121.575 555.463 122.733ZM578.904 116.073V133.651H576.971V112.519H578.865L578.904 116.073ZM586.678 112.362L586.6 114.12C586.352 114.081 586.105 114.055 585.857 114.042C585.623 114.016 585.369 114.003 585.096 114.003C584.028 114.003 583.09 114.205 582.283 114.608C581.476 115.012 580.799 115.572 580.252 116.288C579.718 117.004 579.308 117.838 579.021 118.788C578.748 119.726 578.598 120.741 578.572 121.835L577.771 122.069C577.771 120.65 577.915 119.341 578.201 118.144C578.501 116.933 578.956 115.878 579.568 114.979C580.18 114.081 580.949 113.384 581.873 112.89C582.798 112.382 583.891 112.128 585.154 112.128C585.454 112.128 585.74 112.154 586.014 112.206C586.3 112.245 586.521 112.297 586.678 112.362ZM592.092 103.651V133.651H590.158V103.651H592.092ZM605.471 112.519L595.373 122.304L591.467 125.976L591.115 124.159L594.396 120.741L602.971 112.519H605.471ZM603.83 133.651L594.611 122.382L595.705 120.741L606.193 133.651H603.83ZM620.693 103.651V133.651H618.76V103.651H620.693ZM620.283 121.62L619.404 120.858C619.495 119.687 619.756 118.573 620.186 117.519C620.615 116.464 621.195 115.533 621.924 114.726C622.653 113.918 623.512 113.287 624.502 112.831C625.492 112.362 626.579 112.128 627.764 112.128C628.818 112.128 629.762 112.271 630.596 112.558C631.429 112.844 632.132 113.3 632.705 113.925C633.291 114.55 633.734 115.357 634.033 116.347C634.346 117.323 634.502 118.515 634.502 119.921V133.651H632.568V119.901C632.568 118.339 632.347 117.121 631.904 116.249C631.475 115.377 630.869 114.758 630.088 114.394C629.32 114.029 628.408 113.847 627.354 113.847C626.169 113.847 625.14 114.107 624.268 114.628C623.395 115.149 622.666 115.813 622.08 116.62C621.507 117.427 621.071 118.28 620.771 119.179C620.472 120.064 620.309 120.878 620.283 121.62ZM648.471 134.042C647.117 134.042 645.867 133.788 644.721 133.28C643.575 132.772 642.579 132.056 641.732 131.132C640.886 130.194 640.229 129.094 639.76 127.831C639.291 126.555 639.057 125.155 639.057 123.632V122.792C639.057 121.177 639.291 119.719 639.76 118.417C640.242 117.115 640.899 115.995 641.732 115.058C642.579 114.107 643.542 113.384 644.623 112.89C645.704 112.382 646.85 112.128 648.061 112.128C649.337 112.128 650.482 112.362 651.498 112.831C652.527 113.287 653.399 113.938 654.115 114.784C654.831 115.631 655.372 116.633 655.736 117.792C656.114 118.938 656.303 120.207 656.303 121.601V122.968H640.248V121.269H654.369V121.015C654.356 119.752 654.102 118.58 653.607 117.499C653.126 116.405 652.416 115.52 651.479 114.843C650.554 114.166 649.415 113.827 648.061 113.827C647.006 113.827 646.042 114.055 645.17 114.511C644.311 114.953 643.568 115.578 642.943 116.386C642.318 117.18 641.837 118.124 641.498 119.218C641.16 120.299 640.99 121.49 640.99 122.792V123.632C640.99 124.843 641.173 125.976 641.537 127.03C641.915 128.085 642.436 129.009 643.1 129.804C643.777 130.598 644.577 131.223 645.502 131.679C646.426 132.134 647.436 132.362 648.529 132.362C649.766 132.362 650.88 132.141 651.869 131.698C652.859 131.243 653.757 130.494 654.564 129.452L655.795 130.39C655.339 131.067 654.773 131.685 654.096 132.245C653.419 132.792 652.618 133.228 651.693 133.554C650.769 133.879 649.695 134.042 648.471 134.042ZM662.654 116.073V133.651H660.721V112.519H662.615L662.654 116.073ZM670.428 112.362L670.35 114.12C670.102 114.081 669.855 114.055 669.607 114.042C669.373 114.016 669.119 114.003 668.846 114.003C667.778 114.003 666.84 114.205 666.033 114.608C665.226 115.012 664.549 115.572 664.002 116.288C663.468 117.004 663.058 117.838 662.771 118.788C662.498 119.726 662.348 120.741 662.322 121.835L661.521 122.069C661.521 120.65 661.665 119.341 661.951 118.144C662.251 116.933 662.706 115.878 663.318 114.979C663.93 114.081 664.699 113.384 665.623 112.89C666.548 112.382 667.641 112.128 668.904 112.128C669.204 112.128 669.49 112.154 669.764 112.206C670.05 112.245 670.271 112.297 670.428 112.362ZM681.525 134.042C680.171 134.042 678.921 133.788 677.775 133.28C676.63 132.772 675.633 132.056 674.787 131.132C673.941 130.194 673.283 129.094 672.814 127.831C672.346 126.555 672.111 125.155 672.111 123.632V122.792C672.111 121.177 672.346 119.719 672.814 118.417C673.296 117.115 673.954 115.995 674.787 115.058C675.633 114.107 676.597 113.384 677.678 112.89C678.758 112.382 679.904 112.128 681.115 112.128C682.391 112.128 683.537 112.362 684.553 112.831C685.581 113.287 686.454 113.938 687.17 114.784C687.886 115.631 688.426 116.633 688.791 117.792C689.169 118.938 689.357 120.207 689.357 121.601V122.968H673.303V121.269H687.424V121.015C687.411 119.752 687.157 118.58 686.662 117.499C686.18 116.405 685.471 115.52 684.533 114.843C683.609 114.166 682.469 113.827 681.115 113.827C680.061 113.827 679.097 114.055 678.225 114.511C677.365 114.953 676.623 115.578 675.998 116.386C675.373 117.18 674.891 118.124 674.553 119.218C674.214 120.299 674.045 121.49 674.045 122.792V123.632C674.045 124.843 674.227 125.976 674.592 127.03C674.969 128.085 675.49 129.009 676.154 129.804C676.831 130.598 677.632 131.223 678.557 131.679C679.481 132.134 680.49 132.362 681.584 132.362C682.821 132.362 683.934 132.141 684.924 131.698C685.913 131.243 686.812 130.494 687.619 129.452L688.85 130.39C688.394 131.067 687.827 131.685 687.15 132.245C686.473 132.792 685.673 133.228 684.748 133.554C683.824 133.879 682.749 134.042 681.525 134.042ZM693.482 132.362C693.482 131.959 693.613 131.614 693.873 131.327C694.146 131.041 694.505 130.897 694.947 130.897C695.403 130.897 695.768 131.041 696.041 131.327C696.314 131.614 696.451 131.959 696.451 132.362C696.451 132.766 696.314 133.111 696.041 133.397C695.768 133.671 695.403 133.808 694.947 133.808C694.505 133.808 694.146 133.671 693.873 133.397C693.613 133.111 693.482 132.766 693.482 132.362ZM733.51 117.714V121.151C733.51 123.091 733.249 124.856 732.729 126.444C732.221 128.033 731.492 129.394 730.541 130.526C729.59 131.659 728.438 132.532 727.084 133.144C725.743 133.743 724.239 134.042 722.572 134.042C720.919 134.042 719.415 133.743 718.061 133.144C716.719 132.532 715.561 131.659 714.584 130.526C713.62 129.394 712.878 128.033 712.357 126.444C711.837 124.856 711.576 123.091 711.576 121.151V117.714C711.576 115.761 711.837 113.996 712.357 112.421C712.878 110.845 713.62 109.491 714.584 108.358C715.548 107.213 716.7 106.34 718.041 105.741C719.382 105.129 720.88 104.823 722.533 104.823C724.2 104.823 725.704 105.129 727.045 105.741C728.399 106.34 729.558 107.213 730.521 108.358C731.485 109.491 732.221 110.845 732.729 112.421C733.249 113.996 733.51 115.761 733.51 117.714ZM731.537 121.151V117.675C731.537 116.008 731.335 114.498 730.932 113.144C730.541 111.776 729.955 110.611 729.174 109.647C728.406 108.671 727.462 107.922 726.342 107.401C725.222 106.881 723.952 106.62 722.533 106.62C721.127 106.62 719.87 106.881 718.764 107.401C717.657 107.922 716.713 108.671 715.932 109.647C715.163 110.611 714.577 111.776 714.174 113.144C713.77 114.498 713.568 116.008 713.568 117.675V121.151C713.568 122.831 713.77 124.354 714.174 125.722C714.59 127.089 715.183 128.261 715.951 129.237C716.732 130.201 717.676 130.95 718.783 131.483C719.903 132.004 721.166 132.265 722.572 132.265C724.005 132.265 725.274 132.004 726.381 131.483C727.488 130.95 728.425 130.201 729.193 129.237C729.962 128.261 730.541 127.089 730.932 125.722C731.335 124.354 731.537 122.831 731.537 121.151ZM752.674 128.769V112.519H754.627V133.651H752.732L752.674 128.769ZM753.025 125.019L754.119 124.979C754.119 126.282 753.963 127.486 753.65 128.593C753.338 129.687 752.843 130.644 752.166 131.464C751.502 132.284 750.643 132.922 749.588 133.378C748.533 133.821 747.27 134.042 745.799 134.042C744.77 134.042 743.826 133.899 742.967 133.612C742.12 133.313 741.385 132.844 740.76 132.206C740.148 131.568 739.673 130.741 739.334 129.726C739.008 128.697 738.846 127.46 738.846 126.015V112.519H740.779V126.054C740.779 127.226 740.91 128.215 741.17 129.022C741.443 129.817 741.814 130.455 742.283 130.937C742.765 131.418 743.318 131.77 743.943 131.991C744.568 132.2 745.245 132.304 745.975 132.304C747.745 132.304 749.145 131.965 750.174 131.288C751.202 130.598 751.932 129.7 752.361 128.593C752.804 127.473 753.025 126.282 753.025 125.019ZM762.561 116.073V133.651H760.627V112.519H762.521L762.561 116.073ZM770.334 112.362L770.256 114.12C770.008 114.081 769.761 114.055 769.514 114.042C769.279 114.016 769.025 114.003 768.752 114.003C767.684 114.003 766.747 114.205 765.939 114.608C765.132 115.012 764.455 115.572 763.908 116.288C763.374 117.004 762.964 117.838 762.678 118.788C762.404 119.726 762.255 120.741 762.229 121.835L761.428 122.069C761.428 120.65 761.571 119.341 761.857 118.144C762.157 116.933 762.613 115.878 763.225 114.979C763.837 114.081 764.605 113.384 765.529 112.89C766.454 112.382 767.548 112.128 768.811 112.128C769.11 112.128 769.396 112.154 769.67 112.206C769.956 112.245 770.178 112.297 770.334 112.362ZM796.045 128.319C796.045 127.733 795.889 127.147 795.576 126.562C795.264 125.963 794.684 125.416 793.838 124.921C792.992 124.413 791.755 123.99 790.127 123.651C788.955 123.391 787.913 123.104 787.002 122.792C786.09 122.466 785.322 122.076 784.697 121.62C784.085 121.164 783.617 120.624 783.291 119.999C782.979 119.361 782.822 118.612 782.822 117.753C782.822 116.972 782.992 116.243 783.33 115.565C783.669 114.888 784.157 114.296 784.795 113.788C785.433 113.267 786.201 112.864 787.1 112.577C788.011 112.278 789.033 112.128 790.166 112.128C791.781 112.128 793.161 112.401 794.307 112.948C795.452 113.482 796.331 114.218 796.943 115.155C797.568 116.093 797.881 117.16 797.881 118.358H795.947C795.947 117.577 795.719 116.848 795.264 116.171C794.821 115.481 794.17 114.921 793.311 114.491C792.451 114.049 791.403 113.827 790.166 113.827C788.877 113.827 787.835 114.022 787.041 114.413C786.247 114.804 785.667 115.292 785.303 115.878C784.938 116.464 784.756 117.069 784.756 117.694C784.756 118.189 784.827 118.638 784.971 119.042C785.127 119.446 785.413 119.823 785.83 120.175C786.247 120.526 786.839 120.858 787.607 121.171C788.389 121.47 789.398 121.763 790.635 122.05C792.34 122.427 793.727 122.89 794.795 123.437C795.876 123.97 796.67 124.628 797.178 125.409C797.699 126.19 797.959 127.134 797.959 128.241C797.959 129.101 797.777 129.888 797.412 130.604C797.061 131.308 796.546 131.92 795.869 132.44C795.205 132.948 794.398 133.345 793.447 133.632C792.51 133.905 791.462 134.042 790.303 134.042C788.532 134.042 787.041 133.756 785.83 133.183C784.619 132.61 783.701 131.854 783.076 130.917C782.451 129.979 782.139 128.97 782.139 127.89H784.072C784.15 129.022 784.508 129.914 785.146 130.565C785.798 131.216 786.585 131.679 787.51 131.952C788.447 132.213 789.378 132.343 790.303 132.343C791.553 132.343 792.601 132.154 793.447 131.776C794.307 131.386 794.951 130.884 795.381 130.272C795.824 129.66 796.045 129.009 796.045 128.319ZM810.912 112.519V114.179H800.561V112.519H810.912ZM804.447 107.011H806.4V128.534C806.4 129.589 806.531 130.39 806.791 130.937C807.064 131.47 807.423 131.828 807.865 132.011C808.308 132.193 808.783 132.284 809.291 132.284C809.656 132.284 809.994 132.265 810.307 132.226C810.632 132.187 810.945 132.141 811.244 132.089L811.361 133.749C811.075 133.84 810.704 133.912 810.248 133.964C809.792 134.016 809.363 134.042 808.959 134.042C808.061 134.042 807.273 133.879 806.596 133.554C805.919 133.215 805.391 132.649 805.014 131.854C804.636 131.047 804.447 129.94 804.447 128.534V107.011ZM817.654 116.073V133.651H815.721V112.519H817.615L817.654 116.073ZM825.428 112.362L825.35 114.12C825.102 114.081 824.855 114.055 824.607 114.042C824.373 114.016 824.119 114.003 823.846 114.003C822.778 114.003 821.84 114.205 821.033 114.608C820.226 115.012 819.549 115.572 819.002 116.288C818.468 117.004 818.058 117.838 817.771 118.788C817.498 119.726 817.348 120.741 817.322 121.835L816.521 122.069C816.521 120.65 816.665 119.341 816.951 118.144C817.251 116.933 817.706 115.878 818.318 114.979C818.93 114.081 819.699 113.384 820.623 112.89C821.548 112.382 822.641 112.128 823.904 112.128C824.204 112.128 824.49 112.154 824.764 112.206C825.05 112.245 825.271 112.297 825.428 112.362ZM841.115 129.804V118.905C841.115 117.851 840.894 116.946 840.451 116.19C840.008 115.422 839.357 114.836 838.498 114.433C837.652 114.016 836.604 113.808 835.354 113.808C834.208 113.808 833.179 114.009 832.268 114.413C831.369 114.817 830.653 115.364 830.119 116.054C829.598 116.744 829.338 117.512 829.338 118.358L827.424 118.319C827.424 117.525 827.613 116.757 827.99 116.015C828.381 115.272 828.928 114.608 829.631 114.022C830.347 113.437 831.193 112.974 832.17 112.636C833.16 112.297 834.247 112.128 835.432 112.128C836.929 112.128 838.244 112.382 839.377 112.89C840.523 113.384 841.421 114.14 842.072 115.155C842.723 116.158 843.049 117.421 843.049 118.944V129.276C843.049 130.006 843.101 130.761 843.205 131.542C843.309 132.323 843.465 132.955 843.674 133.437V133.651H841.584C841.428 133.17 841.311 132.577 841.232 131.874C841.154 131.158 841.115 130.468 841.115 129.804ZM841.643 121.503L841.682 123.085H836.818C835.555 123.085 834.429 123.202 833.439 123.437C832.463 123.658 831.63 123.983 830.939 124.413C830.262 124.843 829.742 125.364 829.377 125.976C829.012 126.575 828.83 127.252 828.83 128.007C828.83 128.788 829.032 129.504 829.436 130.155C829.839 130.806 830.412 131.327 831.154 131.718C831.91 132.095 832.788 132.284 833.791 132.284C835.145 132.284 836.343 132.043 837.385 131.562C838.439 131.08 839.312 130.435 840.002 129.628C840.692 128.808 841.18 127.89 841.467 126.874L842.307 128.104C842.111 128.769 841.786 129.452 841.33 130.155C840.874 130.845 840.282 131.483 839.553 132.069C838.824 132.655 837.964 133.131 836.975 133.495C835.998 133.86 834.878 134.042 833.615 134.042C832.261 134.042 831.076 133.788 830.061 133.28C829.058 132.759 828.277 132.056 827.717 131.171C827.17 130.272 826.896 129.257 826.896 128.124C826.896 127.121 827.118 126.216 827.561 125.409C828.003 124.589 828.641 123.892 829.475 123.319C830.308 122.733 831.324 122.284 832.521 121.972C833.719 121.659 835.067 121.503 836.564 121.503H841.643ZM856.959 112.519V114.179H846.607V112.519H856.959ZM850.494 107.011H852.447V128.534C852.447 129.589 852.577 130.39 852.838 130.937C853.111 131.47 853.469 131.828 853.912 132.011C854.355 132.193 854.83 132.284 855.338 132.284C855.702 132.284 856.041 132.265 856.354 132.226C856.679 132.187 856.992 132.141 857.291 132.089L857.408 133.749C857.122 133.84 856.751 133.912 856.295 133.964C855.839 134.016 855.41 134.042 855.006 134.042C854.107 134.042 853.32 133.879 852.643 133.554C851.965 133.215 851.438 132.649 851.061 131.854C850.683 131.047 850.494 129.94 850.494 128.534V107.011ZM869.775 134.042C868.421 134.042 867.171 133.788 866.025 133.28C864.88 132.772 863.883 132.056 863.037 131.132C862.191 130.194 861.533 129.094 861.064 127.831C860.596 126.555 860.361 125.155 860.361 123.632V122.792C860.361 121.177 860.596 119.719 861.064 118.417C861.546 117.115 862.204 115.995 863.037 115.058C863.883 114.107 864.847 113.384 865.928 112.89C867.008 112.382 868.154 112.128 869.365 112.128C870.641 112.128 871.787 112.362 872.803 112.831C873.831 113.287 874.704 113.938 875.42 114.784C876.136 115.631 876.676 116.633 877.041 117.792C877.419 118.938 877.607 120.207 877.607 121.601V122.968H861.553V121.269H875.674V121.015C875.661 119.752 875.407 118.58 874.912 117.499C874.43 116.405 873.721 115.52 872.783 114.843C871.859 114.166 870.719 113.827 869.365 113.827C868.311 113.827 867.347 114.055 866.475 114.511C865.615 114.953 864.873 115.578 864.248 116.386C863.623 117.18 863.141 118.124 862.803 119.218C862.464 120.299 862.295 121.49 862.295 122.792V123.632C862.295 124.843 862.477 125.976 862.842 127.03C863.219 128.085 863.74 129.009 864.404 129.804C865.081 130.598 865.882 131.223 866.807 131.679C867.731 132.134 868.74 132.362 869.834 132.362C871.071 132.362 872.184 132.141 873.174 131.698C874.163 131.243 875.062 130.494 875.869 129.452L877.1 130.39C876.644 131.067 876.077 131.685 875.4 132.245C874.723 132.792 873.923 133.228 872.998 133.554C872.074 133.879 870.999 134.042 869.775 134.042ZM896.01 112.519H897.826V133.3C897.826 135.123 897.488 136.692 896.811 138.007C896.133 139.335 895.17 140.351 893.92 141.054C892.683 141.757 891.218 142.108 889.525 142.108C888.601 142.108 887.689 141.972 886.791 141.698C885.893 141.425 885.053 141.015 884.271 140.468C883.503 139.934 882.846 139.283 882.299 138.515L883.432 137.323C884.278 138.365 885.189 139.14 886.166 139.647C887.143 140.155 888.223 140.409 889.408 140.409C890.801 140.409 891.98 140.123 892.943 139.55C893.907 138.99 894.636 138.183 895.131 137.128C895.639 136.073 895.893 134.817 895.893 133.358V117.167L896.01 112.519ZM881.088 123.3V122.89C881.088 121.236 881.27 119.752 881.635 118.437C881.999 117.108 882.527 115.976 883.217 115.038C883.92 114.101 884.773 113.384 885.775 112.89C886.778 112.382 887.911 112.128 889.174 112.128C890.385 112.128 891.459 112.323 892.396 112.714C893.334 113.104 894.141 113.658 894.818 114.374C895.508 115.09 896.068 115.937 896.498 116.913C896.928 117.89 897.247 118.97 897.455 120.155V126.444C897.286 127.525 896.993 128.528 896.576 129.452C896.16 130.377 895.606 131.184 894.916 131.874C894.226 132.564 893.399 133.098 892.436 133.476C891.485 133.853 890.385 134.042 889.135 134.042C887.885 134.042 886.758 133.782 885.756 133.261C884.766 132.74 883.92 132.004 883.217 131.054C882.527 130.09 881.999 128.957 881.635 127.655C881.27 126.34 881.088 124.888 881.088 123.3ZM883.021 122.89V123.3C883.021 124.576 883.152 125.767 883.412 126.874C883.673 127.968 884.063 128.918 884.584 129.726C885.118 130.533 885.782 131.164 886.576 131.62C887.383 132.076 888.334 132.304 889.428 132.304C890.808 132.304 891.973 132.05 892.924 131.542C893.874 131.021 894.63 130.331 895.189 129.472C895.749 128.612 896.146 127.668 896.381 126.64V120.136C896.238 119.459 896.016 118.756 895.717 118.026C895.43 117.297 895.02 116.62 894.486 115.995C893.965 115.357 893.295 114.843 892.475 114.452C891.654 114.062 890.652 113.866 889.467 113.866C888.36 113.866 887.403 114.094 886.596 114.55C885.788 115.006 885.118 115.644 884.584 116.464C884.063 117.271 883.673 118.222 883.412 119.315C883.152 120.409 883.021 121.601 883.021 122.89ZM906.092 112.519V133.651H904.158V112.519H906.092ZM903.709 106.249C903.709 105.858 903.839 105.526 904.1 105.253C904.36 104.966 904.705 104.823 905.135 104.823C905.577 104.823 905.929 104.966 906.189 105.253C906.463 105.526 906.6 105.858 906.6 106.249C906.6 106.64 906.463 106.972 906.189 107.245C905.929 107.519 905.577 107.655 905.135 107.655C904.705 107.655 904.36 107.519 904.1 107.245C903.839 106.972 903.709 106.64 903.709 106.249ZM920.393 134.042C919.038 134.042 917.788 133.788 916.643 133.28C915.497 132.772 914.501 132.056 913.654 131.132C912.808 130.194 912.15 129.094 911.682 127.831C911.213 126.555 910.979 125.155 910.979 123.632V122.792C910.979 121.177 911.213 119.719 911.682 118.417C912.163 117.115 912.821 115.995 913.654 115.058C914.501 114.107 915.464 113.384 916.545 112.89C917.626 112.382 918.771 112.128 919.982 112.128C921.258 112.128 922.404 112.362 923.42 112.831C924.449 113.287 925.321 113.938 926.037 114.784C926.753 115.631 927.294 116.633 927.658 117.792C928.036 118.938 928.225 120.207 928.225 121.601V122.968H912.17V121.269H926.291V121.015C926.278 119.752 926.024 118.58 925.529 117.499C925.048 116.405 924.338 115.52 923.4 114.843C922.476 114.166 921.337 113.827 919.982 113.827C918.928 113.827 917.964 114.055 917.092 114.511C916.232 114.953 915.49 115.578 914.865 116.386C914.24 117.18 913.758 118.124 913.42 119.218C913.081 120.299 912.912 121.49 912.912 122.792V123.632C912.912 124.843 913.094 125.976 913.459 127.03C913.837 128.085 914.357 129.009 915.021 129.804C915.699 130.598 916.499 131.223 917.424 131.679C918.348 132.134 919.357 132.362 920.451 132.362C921.688 132.362 922.801 132.141 923.791 131.698C924.781 131.243 925.679 130.494 926.486 129.452L927.717 130.39C927.261 131.067 926.695 131.685 926.018 132.245C925.34 132.792 924.54 133.228 923.615 133.554C922.691 133.879 921.617 134.042 920.393 134.042ZM945.436 128.319C945.436 127.733 945.279 127.147 944.967 126.562C944.654 125.963 944.075 125.416 943.229 124.921C942.382 124.413 941.145 123.99 939.518 123.651C938.346 123.391 937.304 123.104 936.393 122.792C935.481 122.466 934.713 122.076 934.088 121.62C933.476 121.164 933.007 120.624 932.682 119.999C932.369 119.361 932.213 118.612 932.213 117.753C932.213 116.972 932.382 116.243 932.721 115.565C933.059 114.888 933.548 114.296 934.186 113.788C934.824 113.267 935.592 112.864 936.49 112.577C937.402 112.278 938.424 112.128 939.557 112.128C941.171 112.128 942.551 112.401 943.697 112.948C944.843 113.482 945.722 114.218 946.334 115.155C946.959 116.093 947.271 117.16 947.271 118.358H945.338C945.338 117.577 945.11 116.848 944.654 116.171C944.212 115.481 943.561 114.921 942.701 114.491C941.842 114.049 940.794 113.827 939.557 113.827C938.268 113.827 937.226 114.022 936.432 114.413C935.637 114.804 935.058 115.292 934.693 115.878C934.329 116.464 934.146 117.069 934.146 117.694C934.146 118.189 934.218 118.638 934.361 119.042C934.518 119.446 934.804 119.823 935.221 120.175C935.637 120.526 936.23 120.858 936.998 121.171C937.779 121.47 938.788 121.763 940.025 122.05C941.731 122.427 943.118 122.89 944.186 123.437C945.266 123.97 946.061 124.628 946.568 125.409C947.089 126.19 947.35 127.134 947.35 128.241C947.35 129.101 947.167 129.888 946.803 130.604C946.451 131.308 945.937 131.92 945.26 132.44C944.596 132.948 943.788 133.345 942.838 133.632C941.9 133.905 940.852 134.042 939.693 134.042C937.923 134.042 936.432 133.756 935.221 133.183C934.01 132.61 933.092 131.854 932.467 130.917C931.842 129.979 931.529 128.97 931.529 127.89H933.463C933.541 129.022 933.899 129.914 934.537 130.565C935.188 131.216 935.976 131.679 936.9 131.952C937.838 132.213 938.769 132.343 939.693 132.343C940.943 132.343 941.992 132.154 942.838 131.776C943.697 131.386 944.342 130.884 944.771 130.272C945.214 129.66 945.436 129.009 945.436 128.319ZM974.975 129.804V118.905C974.975 117.851 974.753 116.946 974.311 116.19C973.868 115.422 973.217 114.836 972.357 114.433C971.511 114.016 970.463 113.808 969.213 113.808C968.067 113.808 967.038 114.009 966.127 114.413C965.229 114.817 964.512 115.364 963.979 116.054C963.458 116.744 963.197 117.512 963.197 118.358L961.283 118.319C961.283 117.525 961.472 116.757 961.85 116.015C962.24 115.272 962.787 114.608 963.49 114.022C964.206 113.437 965.053 112.974 966.029 112.636C967.019 112.297 968.106 112.128 969.291 112.128C970.788 112.128 972.104 112.382 973.236 112.89C974.382 113.384 975.281 114.14 975.932 115.155C976.583 116.158 976.908 117.421 976.908 118.944V129.276C976.908 130.006 976.96 130.761 977.064 131.542C977.169 132.323 977.325 132.955 977.533 133.437V133.651H975.443C975.287 133.17 975.17 132.577 975.092 131.874C975.014 131.158 974.975 130.468 974.975 129.804ZM975.502 121.503L975.541 123.085H970.678C969.415 123.085 968.288 123.202 967.299 123.437C966.322 123.658 965.489 123.983 964.799 124.413C964.122 124.843 963.601 125.364 963.236 125.976C962.872 126.575 962.689 127.252 962.689 128.007C962.689 128.788 962.891 129.504 963.295 130.155C963.699 130.806 964.271 131.327 965.014 131.718C965.769 132.095 966.648 132.284 967.65 132.284C969.005 132.284 970.202 132.043 971.244 131.562C972.299 131.08 973.171 130.435 973.861 129.628C974.551 128.808 975.04 127.89 975.326 126.874L976.166 128.104C975.971 128.769 975.645 129.452 975.189 130.155C974.734 130.845 974.141 131.483 973.412 132.069C972.683 132.655 971.824 133.131 970.834 133.495C969.857 133.86 968.738 134.042 967.475 134.042C966.12 134.042 964.936 133.788 963.92 133.28C962.917 132.759 962.136 132.056 961.576 131.171C961.029 130.272 960.756 129.257 960.756 128.124C960.756 127.121 960.977 126.216 961.42 125.409C961.863 124.589 962.501 123.892 963.334 123.319C964.167 122.733 965.183 122.284 966.381 121.972C967.579 121.659 968.926 121.503 970.424 121.503H975.502ZM984.998 116.073V133.651H983.064V112.519H984.959L984.998 116.073ZM992.771 112.362L992.693 114.12C992.446 114.081 992.199 114.055 991.951 114.042C991.717 114.016 991.463 114.003 991.189 114.003C990.122 114.003 989.184 114.205 988.377 114.608C987.57 115.012 986.893 115.572 986.346 116.288C985.812 117.004 985.402 117.838 985.115 118.788C984.842 119.726 984.692 120.741 984.666 121.835L983.865 122.069C983.865 120.65 984.008 119.341 984.295 118.144C984.594 116.933 985.05 115.878 985.662 114.979C986.274 114.081 987.042 113.384 987.967 112.89C988.891 112.382 989.985 112.128 991.248 112.128C991.548 112.128 991.834 112.154 992.107 112.206C992.394 112.245 992.615 112.297 992.771 112.362ZM1003.87 134.042C1002.51 134.042 1001.26 133.788 1000.12 133.28C998.973 132.772 997.977 132.056 997.131 131.132C996.285 130.194 995.627 129.094 995.158 127.831C994.689 126.555 994.455 125.155 994.455 123.632V122.792C994.455 121.177 994.689 119.719 995.158 118.417C995.64 117.115 996.298 115.995 997.131 115.058C997.977 114.107 998.941 113.384 1000.02 112.89C1001.1 112.382 1002.25 112.128 1003.46 112.128C1004.74 112.128 1005.88 112.362 1006.9 112.831C1007.93 113.287 1008.8 113.938 1009.51 114.784C1010.23 115.631 1010.77 116.633 1011.13 117.792C1011.51 118.938 1011.7 120.207 1011.7 121.601V122.968H995.646V121.269H1009.77V121.015C1009.75 119.752 1009.5 118.58 1009.01 117.499C1008.52 116.405 1007.81 115.52 1006.88 114.843C1005.95 114.166 1004.81 113.827 1003.46 113.827C1002.4 113.827 1001.44 114.055 1000.57 114.511C999.709 114.953 998.967 115.578 998.342 116.386C997.717 117.18 997.235 118.124 996.896 119.218C996.558 120.299 996.389 121.49 996.389 122.792V123.632C996.389 124.843 996.571 125.976 996.936 127.03C997.313 128.085 997.834 129.009 998.498 129.804C999.175 130.598 999.976 131.223 1000.9 131.679C1001.82 132.134 1002.83 132.362 1003.93 132.362C1005.16 132.362 1006.28 132.141 1007.27 131.698C1008.26 131.243 1009.16 130.494 1009.96 129.452L1011.19 130.39C1010.74 131.067 1010.17 131.685 1009.49 132.245C1008.82 132.792 1008.02 133.228 1007.09 133.554C1006.17 133.879 1005.09 134.042 1003.87 134.042ZM1025.54 103.651H1027.47V129.55L1027.35 133.651H1025.54V103.651ZM1042.31 122.89V123.3C1042.31 124.888 1042.13 126.34 1041.77 127.655C1041.4 128.957 1040.88 130.09 1040.19 131.054C1039.51 132.004 1038.67 132.74 1037.67 133.261C1036.68 133.782 1035.55 134.042 1034.29 134.042C1033.05 134.042 1031.94 133.853 1030.97 133.476C1030 133.098 1029.18 132.564 1028.49 131.874C1027.8 131.184 1027.24 130.377 1026.81 129.452C1026.39 128.528 1026.1 127.525 1025.95 126.444V120.155C1026.14 118.97 1026.46 117.89 1026.88 116.913C1027.33 115.937 1027.89 115.09 1028.56 114.374C1029.25 113.658 1030.07 113.104 1031.01 112.714C1031.96 112.323 1033.04 112.128 1034.25 112.128C1035.52 112.128 1036.66 112.382 1037.67 112.89C1038.67 113.384 1039.51 114.101 1040.19 115.038C1040.88 115.976 1041.4 117.108 1041.77 118.437C1042.13 119.752 1042.31 121.236 1042.31 122.89ZM1040.34 123.3V122.89C1040.34 121.601 1040.22 120.409 1039.97 119.315C1039.72 118.222 1039.34 117.271 1038.82 116.464C1038.3 115.644 1037.63 115.006 1036.83 114.55C1036.02 114.094 1035.06 113.866 1033.96 113.866C1032.77 113.866 1031.76 114.062 1030.93 114.452C1030.11 114.843 1029.43 115.357 1028.9 115.995C1028.38 116.62 1027.97 117.297 1027.67 118.026C1027.37 118.756 1027.15 119.459 1027 120.136V126.64C1027.22 127.642 1027.62 128.573 1028.19 129.433C1028.77 130.292 1029.53 130.989 1030.48 131.522C1031.44 132.043 1032.61 132.304 1033.99 132.304C1035.09 132.304 1036.03 132.076 1036.83 131.62C1037.63 131.164 1038.29 130.533 1038.8 129.726C1039.32 128.918 1039.7 127.968 1039.95 126.874C1040.21 125.767 1040.34 124.576 1040.34 123.3ZM1061.17 128.769V112.519H1063.12V133.651H1061.22L1061.17 128.769ZM1061.52 125.019L1062.61 124.979C1062.61 126.282 1062.46 127.486 1062.14 128.593C1061.83 129.687 1061.34 130.644 1060.66 131.464C1059.99 132.284 1059.13 132.922 1058.08 133.378C1057.03 133.821 1055.76 134.042 1054.29 134.042C1053.26 134.042 1052.32 133.899 1051.46 133.612C1050.61 133.313 1049.88 132.844 1049.25 132.206C1048.64 131.568 1048.16 130.741 1047.83 129.726C1047.5 128.697 1047.34 127.46 1047.34 126.015V112.519H1049.27V126.054C1049.27 127.226 1049.4 128.215 1049.66 129.022C1049.94 129.817 1050.31 130.455 1050.78 130.937C1051.26 131.418 1051.81 131.77 1052.44 131.991C1053.06 132.2 1053.74 132.304 1054.47 132.304C1056.24 132.304 1057.64 131.965 1058.67 131.288C1059.69 130.598 1060.42 129.7 1060.85 128.593C1061.3 127.473 1061.52 126.282 1061.52 125.019ZM1071.33 112.519V133.651H1069.39V112.519H1071.33ZM1068.94 106.249C1068.94 105.858 1069.07 105.526 1069.33 105.253C1069.59 104.966 1069.94 104.823 1070.37 104.823C1070.81 104.823 1071.16 104.966 1071.42 105.253C1071.7 105.526 1071.83 105.858 1071.83 106.249C1071.83 106.64 1071.7 106.972 1071.42 107.245C1071.16 107.519 1070.81 107.655 1070.37 107.655C1069.94 107.655 1069.59 107.519 1069.33 107.245C1069.07 106.972 1068.94 106.64 1068.94 106.249ZM1079.83 103.651V133.651H1077.89V103.651H1079.83ZM1093.87 112.519V114.179H1083.52V112.519H1093.87ZM1087.41 107.011H1089.36V128.534C1089.36 129.589 1089.49 130.39 1089.75 130.937C1090.03 131.47 1090.38 131.828 1090.83 132.011C1091.27 132.193 1091.74 132.284 1092.25 132.284C1092.62 132.284 1092.96 132.265 1093.27 132.226C1093.59 132.187 1093.91 132.141 1094.21 132.089L1094.32 133.749C1094.04 133.84 1093.66 133.912 1093.21 133.964C1092.75 134.016 1092.32 134.042 1091.92 134.042C1091.02 134.042 1090.23 133.879 1089.56 133.554C1088.88 133.215 1088.35 132.649 1087.97 131.854C1087.6 131.047 1087.41 129.94 1087.41 128.534V107.011ZM1106.75 123.437V122.733C1106.75 121.197 1106.97 119.784 1107.42 118.495C1107.86 117.193 1108.49 116.067 1109.31 115.116C1110.13 114.166 1111.11 113.43 1112.26 112.909C1113.42 112.388 1114.7 112.128 1116.11 112.128C1117.53 112.128 1118.81 112.388 1119.96 112.909C1121.11 113.43 1122.1 114.166 1122.92 115.116C1123.76 116.067 1124.4 117.193 1124.84 118.495C1125.28 119.784 1125.5 121.197 1125.5 122.733V123.437C1125.5 124.973 1125.28 126.392 1124.84 127.694C1124.4 128.983 1123.76 130.103 1122.92 131.054C1122.1 132.004 1121.12 132.74 1119.97 133.261C1118.83 133.782 1117.55 134.042 1116.15 134.042C1114.73 134.042 1113.44 133.782 1112.28 133.261C1111.13 132.74 1110.14 132.004 1109.31 131.054C1108.49 130.103 1107.86 128.983 1107.42 127.694C1106.97 126.392 1106.75 124.973 1106.75 123.437ZM1108.67 122.733V123.437C1108.67 124.621 1108.83 125.754 1109.15 126.835C1109.49 127.903 1109.97 128.853 1110.6 129.687C1111.24 130.507 1112.02 131.158 1112.94 131.64C1113.88 132.108 1114.95 132.343 1116.15 132.343C1117.33 132.343 1118.38 132.108 1119.29 131.64C1120.22 131.158 1120.99 130.507 1121.62 129.687C1122.25 128.853 1122.74 127.903 1123.06 126.835C1123.4 125.754 1123.57 124.621 1123.57 123.437V122.733C1123.57 121.575 1123.4 120.461 1123.06 119.394C1122.74 118.326 1122.25 117.375 1121.62 116.542C1120.98 115.709 1120.2 115.051 1119.27 114.569C1118.35 114.075 1117.29 113.827 1116.11 113.827C1114.92 113.827 1113.87 114.075 1112.94 114.569C1112.02 115.051 1111.24 115.709 1110.6 116.542C1109.96 117.375 1109.48 118.326 1109.15 119.394C1108.83 120.461 1108.67 121.575 1108.67 122.733ZM1132.11 117.03V133.651H1130.17V112.519H1132.05L1132.11 117.03ZM1131.7 121.62L1130.82 120.858C1130.91 119.687 1131.17 118.573 1131.6 117.519C1132.03 116.464 1132.61 115.533 1133.34 114.726C1134.07 113.918 1134.93 113.287 1135.92 112.831C1136.91 112.362 1137.99 112.128 1139.18 112.128C1140.23 112.128 1141.18 112.271 1142.01 112.558C1142.84 112.844 1143.55 113.3 1144.12 113.925C1144.71 114.55 1145.15 115.357 1145.45 116.347C1145.76 117.323 1145.92 118.515 1145.92 119.921V133.651H1143.98V119.901C1143.98 118.339 1143.76 117.121 1143.32 116.249C1142.89 115.377 1142.28 114.758 1141.5 114.394C1140.73 114.029 1139.82 113.847 1138.77 113.847C1137.58 113.847 1136.55 114.107 1135.68 114.628C1134.81 115.149 1134.08 115.813 1133.49 116.62C1132.92 117.427 1132.49 118.28 1132.19 119.179C1131.89 120.064 1131.72 120.878 1131.7 121.62ZM1174.11 128.319C1174.11 127.733 1173.95 127.147 1173.64 126.562C1173.33 125.963 1172.75 125.416 1171.9 124.921C1171.05 124.413 1169.82 123.99 1168.19 123.651C1167.02 123.391 1165.98 123.104 1165.06 122.792C1164.15 122.466 1163.38 122.076 1162.76 121.62C1162.15 121.164 1161.68 120.624 1161.35 119.999C1161.04 119.361 1160.88 118.612 1160.88 117.753C1160.88 116.972 1161.05 116.243 1161.39 115.565C1161.73 114.888 1162.22 114.296 1162.86 113.788C1163.5 113.267 1164.26 112.864 1165.16 112.577C1166.07 112.278 1167.1 112.128 1168.23 112.128C1169.84 112.128 1171.22 112.401 1172.37 112.948C1173.51 113.482 1174.39 114.218 1175.01 115.155C1175.63 116.093 1175.94 117.16 1175.94 118.358H1174.01C1174.01 117.577 1173.78 116.848 1173.33 116.171C1172.88 115.481 1172.23 114.921 1171.37 114.491C1170.51 114.049 1169.47 113.827 1168.23 113.827C1166.94 113.827 1165.9 114.022 1165.1 114.413C1164.31 114.804 1163.73 115.292 1163.37 115.878C1163 116.464 1162.82 117.069 1162.82 117.694C1162.82 118.189 1162.89 118.638 1163.03 119.042C1163.19 119.446 1163.48 119.823 1163.89 120.175C1164.31 120.526 1164.9 120.858 1165.67 121.171C1166.45 121.47 1167.46 121.763 1168.7 122.05C1170.4 122.427 1171.79 122.89 1172.86 123.437C1173.94 123.97 1174.73 124.628 1175.24 125.409C1175.76 126.19 1176.02 127.134 1176.02 128.241C1176.02 129.101 1175.84 129.888 1175.47 130.604C1175.12 131.308 1174.61 131.92 1173.93 132.44C1173.27 132.948 1172.46 133.345 1171.51 133.632C1170.57 133.905 1169.52 134.042 1168.37 134.042C1166.59 134.042 1165.1 133.756 1163.89 133.183C1162.68 132.61 1161.76 131.854 1161.14 130.917C1160.51 129.979 1160.2 128.97 1160.2 127.89H1162.13C1162.21 129.022 1162.57 129.914 1163.21 130.565C1163.86 131.216 1164.65 131.679 1165.57 131.952C1166.51 132.213 1167.44 132.343 1168.37 132.343C1169.62 132.343 1170.66 132.154 1171.51 131.776C1172.37 131.386 1173.01 130.884 1173.44 130.272C1173.89 129.66 1174.11 129.009 1174.11 128.319ZM1179.85 123.437V122.733C1179.85 121.197 1180.07 119.784 1180.52 118.495C1180.96 117.193 1181.59 116.067 1182.41 115.116C1183.23 114.166 1184.22 113.43 1185.36 112.909C1186.52 112.388 1187.8 112.128 1189.21 112.128C1190.63 112.128 1191.91 112.388 1193.06 112.909C1194.22 113.43 1195.21 114.166 1196.03 115.116C1196.86 116.067 1197.5 117.193 1197.94 118.495C1198.38 119.784 1198.6 121.197 1198.6 122.733V123.437C1198.6 124.973 1198.38 126.392 1197.94 127.694C1197.5 128.983 1196.86 130.103 1196.03 131.054C1195.21 132.004 1194.22 132.74 1193.08 133.261C1191.93 133.782 1190.65 134.042 1189.25 134.042C1187.83 134.042 1186.54 133.782 1185.38 133.261C1184.24 132.74 1183.25 132.004 1182.41 131.054C1181.59 130.103 1180.96 128.983 1180.52 127.694C1180.07 126.392 1179.85 124.973 1179.85 123.437ZM1181.77 122.733V123.437C1181.77 124.621 1181.93 125.754 1182.26 126.835C1182.59 127.903 1183.08 128.853 1183.7 129.687C1184.34 130.507 1185.12 131.158 1186.04 131.64C1186.98 132.108 1188.05 132.343 1189.25 132.343C1190.43 132.343 1191.48 132.108 1192.39 131.64C1193.32 131.158 1194.09 130.507 1194.72 129.687C1195.35 128.853 1195.84 127.903 1196.16 126.835C1196.5 125.754 1196.67 124.621 1196.67 123.437V122.733C1196.67 121.575 1196.5 120.461 1196.16 119.394C1195.84 118.326 1195.35 117.375 1194.72 116.542C1194.08 115.709 1193.3 115.051 1192.37 114.569C1191.45 114.075 1190.39 113.827 1189.21 113.827C1188.02 113.827 1186.97 114.075 1186.04 114.569C1185.12 115.051 1184.34 115.709 1183.7 116.542C1183.06 117.375 1182.58 118.326 1182.26 119.394C1181.93 120.461 1181.77 121.575 1181.77 122.733ZM1205.48 103.651V133.651H1203.55V103.651H1205.48ZM1213.98 112.519V133.651H1212.05V112.519H1213.98ZM1211.6 106.249C1211.6 105.858 1211.73 105.526 1211.99 105.253C1212.25 104.966 1212.6 104.823 1213.03 104.823C1213.47 104.823 1213.82 104.966 1214.08 105.253C1214.35 105.526 1214.49 105.858 1214.49 106.249C1214.49 106.64 1214.35 106.972 1214.08 107.245C1213.82 107.519 1213.47 107.655 1213.03 107.655C1212.6 107.655 1212.25 107.519 1211.99 107.245C1211.73 106.972 1211.6 106.64 1211.6 106.249ZM1234.16 129.55V103.651H1236.1V133.651H1234.26L1234.16 129.55ZM1219.34 123.3V122.89C1219.34 121.236 1219.52 119.752 1219.88 118.437C1220.26 117.108 1220.8 115.976 1221.51 115.038C1222.21 114.101 1223.06 113.384 1224.04 112.89C1225.05 112.382 1226.18 112.128 1227.44 112.128C1228.65 112.128 1229.73 112.323 1230.67 112.714C1231.6 113.104 1232.41 113.658 1233.09 114.374C1233.76 115.09 1234.32 115.937 1234.75 116.913C1235.18 117.89 1235.5 118.97 1235.71 120.155V126.444C1235.55 127.525 1235.26 128.528 1234.83 129.452C1234.41 130.377 1233.86 131.184 1233.17 131.874C1232.49 132.564 1231.67 133.098 1230.71 133.476C1229.74 133.853 1228.64 134.042 1227.4 134.042C1226.15 134.042 1225.03 133.782 1224.03 133.261C1223.04 132.74 1222.19 132.004 1221.49 131.054C1220.8 130.09 1220.26 128.957 1219.88 127.655C1219.52 126.34 1219.34 124.888 1219.34 123.3ZM1221.29 122.89V123.3C1221.29 124.576 1221.42 125.767 1221.68 126.874C1221.94 127.968 1222.33 128.918 1222.85 129.726C1223.37 130.533 1224.04 131.164 1224.85 131.62C1225.65 132.076 1226.6 132.304 1227.7 132.304C1229.08 132.304 1230.24 132.05 1231.19 131.542C1232.14 131.021 1232.91 130.331 1233.48 129.472C1234.05 128.612 1234.46 127.668 1234.71 126.64V120.136C1234.55 119.459 1234.32 118.756 1234.03 118.026C1233.73 117.297 1233.31 116.62 1232.78 115.995C1232.24 115.357 1231.56 114.843 1230.74 114.452C1229.92 114.062 1228.92 113.866 1227.74 113.866C1226.63 113.866 1225.67 114.094 1224.87 114.55C1224.06 115.006 1223.39 115.644 1222.85 116.464C1222.33 117.271 1221.94 118.222 1221.68 119.315C1221.42 120.409 1221.29 121.601 1221.29 122.89ZM1244.11 130.136V132.831C1244.11 134.029 1243.88 135.149 1243.42 136.19C1242.97 137.245 1242.36 138.137 1241.59 138.866L1240.42 137.968C1240.81 137.447 1241.14 136.92 1241.41 136.386C1241.69 135.865 1241.89 135.318 1242.02 134.745C1242.15 134.172 1242.21 133.547 1242.21 132.87V130.136H1244.11ZM374.49 192.319C374.49 191.733 374.334 191.147 374.021 190.562C373.709 189.963 373.13 189.416 372.283 188.921C371.437 188.413 370.2 187.99 368.572 187.651C367.4 187.391 366.359 187.104 365.447 186.792C364.536 186.466 363.768 186.076 363.143 185.62C362.531 185.164 362.062 184.624 361.736 183.999C361.424 183.361 361.268 182.612 361.268 181.753C361.268 180.972 361.437 180.243 361.775 179.565C362.114 178.888 362.602 178.296 363.24 177.788C363.878 177.267 364.646 176.864 365.545 176.577C366.456 176.278 367.479 176.128 368.611 176.128C370.226 176.128 371.606 176.401 372.752 176.948C373.898 177.482 374.777 178.218 375.389 179.155C376.014 180.093 376.326 181.16 376.326 182.358H374.393C374.393 181.577 374.165 180.848 373.709 180.171C373.266 179.481 372.615 178.921 371.756 178.491C370.896 178.049 369.848 177.827 368.611 177.827C367.322 177.827 366.281 178.022 365.486 178.413C364.692 178.804 364.113 179.292 363.748 179.878C363.383 180.464 363.201 181.069 363.201 181.694C363.201 182.189 363.273 182.638 363.416 183.042C363.572 183.446 363.859 183.823 364.275 184.175C364.692 184.526 365.285 184.858 366.053 185.171C366.834 185.47 367.843 185.763 369.08 186.05C370.786 186.427 372.173 186.89 373.24 187.437C374.321 187.97 375.115 188.628 375.623 189.409C376.144 190.19 376.404 191.134 376.404 192.241C376.404 193.101 376.222 193.888 375.857 194.604C375.506 195.308 374.992 195.92 374.314 196.44C373.65 196.948 372.843 197.345 371.893 197.632C370.955 197.905 369.907 198.042 368.748 198.042C366.977 198.042 365.486 197.756 364.275 197.183C363.064 196.61 362.146 195.854 361.521 194.917C360.896 193.979 360.584 192.97 360.584 191.89H362.518C362.596 193.022 362.954 193.914 363.592 194.565C364.243 195.216 365.031 195.679 365.955 195.952C366.893 196.213 367.824 196.343 368.748 196.343C369.998 196.343 371.046 196.154 371.893 195.776C372.752 195.386 373.396 194.884 373.826 194.272C374.269 193.66 374.49 193.009 374.49 192.319ZM389.357 176.519V178.179H379.006V176.519H389.357ZM382.893 171.011H384.846V192.534C384.846 193.589 384.976 194.39 385.236 194.937C385.51 195.47 385.868 195.828 386.311 196.011C386.753 196.193 387.229 196.284 387.736 196.284C388.101 196.284 388.439 196.265 388.752 196.226C389.077 196.187 389.39 196.141 389.689 196.089L389.807 197.749C389.52 197.84 389.149 197.912 388.693 197.964C388.238 198.016 387.808 198.042 387.404 198.042C386.506 198.042 385.718 197.879 385.041 197.554C384.364 197.215 383.837 196.649 383.459 195.854C383.081 195.047 382.893 193.94 382.893 192.534V171.011ZM396.1 180.073V197.651H394.166V176.519H396.061L396.1 180.073ZM403.873 176.362L403.795 178.12C403.548 178.081 403.3 178.055 403.053 178.042C402.818 178.016 402.564 178.003 402.291 178.003C401.223 178.003 400.286 178.205 399.479 178.608C398.671 179.012 397.994 179.572 397.447 180.288C396.913 181.004 396.503 181.838 396.217 182.788C395.943 183.726 395.794 184.741 395.768 185.835L394.967 186.069C394.967 184.65 395.11 183.341 395.396 182.144C395.696 180.933 396.152 179.878 396.764 178.979C397.376 178.081 398.144 177.384 399.068 176.89C399.993 176.382 401.087 176.128 402.35 176.128C402.649 176.128 402.936 176.154 403.209 176.206C403.495 176.245 403.717 176.297 403.873 176.362ZM421.104 192.769V176.519H423.057V197.651H421.162L421.104 192.769ZM421.455 189.019L422.549 188.979C422.549 190.282 422.393 191.486 422.08 192.593C421.768 193.687 421.273 194.644 420.596 195.464C419.932 196.284 419.072 196.922 418.018 197.378C416.963 197.821 415.7 198.042 414.229 198.042C413.2 198.042 412.256 197.899 411.396 197.612C410.55 197.313 409.814 196.844 409.189 196.206C408.577 195.568 408.102 194.741 407.764 193.726C407.438 192.697 407.275 191.46 407.275 190.015V176.519H409.209V190.054C409.209 191.226 409.339 192.215 409.6 193.022C409.873 193.817 410.244 194.455 410.713 194.937C411.195 195.418 411.748 195.77 412.373 195.991C412.998 196.2 413.675 196.304 414.404 196.304C416.175 196.304 417.575 195.965 418.604 195.288C419.632 194.598 420.361 193.7 420.791 192.593C421.234 191.473 421.455 190.282 421.455 189.019ZM436.674 196.343C437.689 196.343 438.646 196.154 439.545 195.776C440.456 195.386 441.212 194.806 441.811 194.038C442.423 193.27 442.768 192.306 442.846 191.147H444.701C444.636 192.515 444.232 193.719 443.49 194.761C442.748 195.802 441.778 196.61 440.58 197.183C439.395 197.756 438.093 198.042 436.674 198.042C435.229 198.042 433.952 197.782 432.846 197.261C431.739 196.727 430.808 195.985 430.053 195.034C429.311 194.084 428.744 192.97 428.354 191.694C427.976 190.405 427.787 189.006 427.787 187.495V186.675C427.787 185.164 427.976 183.771 428.354 182.495C428.744 181.206 429.311 180.086 430.053 179.136C430.808 178.185 431.732 177.45 432.826 176.929C433.933 176.395 435.209 176.128 436.654 176.128C438.113 176.128 439.434 176.427 440.619 177.026C441.817 177.612 442.781 178.465 443.51 179.585C444.239 180.692 444.636 182.026 444.701 183.589H442.846C442.781 182.365 442.462 181.33 441.889 180.483C441.316 179.624 440.574 178.966 439.662 178.511C438.751 178.055 437.748 177.827 436.654 177.827C435.417 177.827 434.356 178.068 433.471 178.55C432.598 179.019 431.882 179.67 431.322 180.503C430.775 181.323 430.365 182.261 430.092 183.315C429.831 184.37 429.701 185.49 429.701 186.675V187.495C429.701 188.68 429.831 189.806 430.092 190.874C430.352 191.929 430.762 192.866 431.322 193.687C431.882 194.507 432.605 195.158 433.49 195.64C434.376 196.108 435.437 196.343 436.674 196.343ZM457.068 176.519V178.179H446.717V176.519H457.068ZM450.604 171.011H452.557V192.534C452.557 193.589 452.687 194.39 452.947 194.937C453.221 195.47 453.579 195.828 454.021 196.011C454.464 196.193 454.939 196.284 455.447 196.284C455.812 196.284 456.15 196.265 456.463 196.226C456.788 196.187 457.101 196.141 457.4 196.089L457.518 197.749C457.231 197.84 456.86 197.912 456.404 197.964C455.949 198.016 455.519 198.042 455.115 198.042C454.217 198.042 453.429 197.879 452.752 197.554C452.075 197.215 451.548 196.649 451.17 195.854C450.792 195.047 450.604 193.94 450.604 192.534V171.011ZM475.627 192.769V176.519H477.58V197.651H475.686L475.627 192.769ZM475.979 189.019L477.072 188.979C477.072 190.282 476.916 191.486 476.604 192.593C476.291 193.687 475.796 194.644 475.119 195.464C474.455 196.284 473.596 196.922 472.541 197.378C471.486 197.821 470.223 198.042 468.752 198.042C467.723 198.042 466.779 197.899 465.92 197.612C465.074 197.313 464.338 196.844 463.713 196.206C463.101 195.568 462.626 194.741 462.287 193.726C461.962 192.697 461.799 191.46 461.799 190.015V176.519H463.732V190.054C463.732 191.226 463.863 192.215 464.123 193.022C464.396 193.817 464.768 194.455 465.236 194.937C465.718 195.418 466.271 195.77 466.896 195.991C467.521 196.2 468.199 196.304 468.928 196.304C470.699 196.304 472.098 195.965 473.127 195.288C474.156 194.598 474.885 193.7 475.314 192.593C475.757 191.473 475.979 190.282 475.979 189.019ZM485.514 180.073V197.651H483.58V176.519H485.475L485.514 180.073ZM493.287 176.362L493.209 178.12C492.962 178.081 492.714 178.055 492.467 178.042C492.232 178.016 491.979 178.003 491.705 178.003C490.637 178.003 489.7 178.205 488.893 178.608C488.085 179.012 487.408 179.572 486.861 180.288C486.327 181.004 485.917 181.838 485.631 182.788C485.357 183.726 485.208 184.741 485.182 185.835L484.381 186.069C484.381 184.65 484.524 183.341 484.811 182.144C485.11 180.933 485.566 179.878 486.178 178.979C486.79 178.081 487.558 177.384 488.482 176.89C489.407 176.382 490.501 176.128 491.764 176.128C492.063 176.128 492.35 176.154 492.623 176.206C492.91 176.245 493.131 176.297 493.287 176.362ZM504.385 198.042C503.031 198.042 501.781 197.788 500.635 197.28C499.489 196.772 498.493 196.056 497.646 195.132C496.8 194.194 496.143 193.094 495.674 191.831C495.205 190.555 494.971 189.155 494.971 187.632V186.792C494.971 185.177 495.205 183.719 495.674 182.417C496.156 181.115 496.813 179.995 497.646 179.058C498.493 178.107 499.456 177.384 500.537 176.89C501.618 176.382 502.764 176.128 503.975 176.128C505.251 176.128 506.396 176.362 507.412 176.831C508.441 177.287 509.313 177.938 510.029 178.784C510.745 179.631 511.286 180.633 511.65 181.792C512.028 182.938 512.217 184.207 512.217 185.601V186.968H496.162V185.269H510.283V185.015C510.27 183.752 510.016 182.58 509.521 181.499C509.04 180.405 508.33 179.52 507.393 178.843C506.468 178.166 505.329 177.827 503.975 177.827C502.92 177.827 501.956 178.055 501.084 178.511C500.225 178.953 499.482 179.578 498.857 180.386C498.232 181.18 497.751 182.124 497.412 183.218C497.074 184.299 496.904 185.49 496.904 186.792V187.632C496.904 188.843 497.087 189.976 497.451 191.03C497.829 192.085 498.35 193.009 499.014 193.804C499.691 194.598 500.492 195.223 501.416 195.679C502.34 196.134 503.35 196.362 504.443 196.362C505.68 196.362 506.794 196.141 507.783 195.698C508.773 195.243 509.671 194.494 510.479 193.452L511.709 194.39C511.253 195.067 510.687 195.685 510.01 196.245C509.333 196.792 508.532 197.228 507.607 197.554C506.683 197.879 505.609 198.042 504.385 198.042ZM530.521 193.55V167.651H532.455V197.651H530.619L530.521 193.55ZM515.697 187.3V186.89C515.697 185.236 515.88 183.752 516.244 182.437C516.622 181.108 517.162 179.976 517.865 179.038C518.568 178.101 519.415 177.384 520.404 176.89C521.407 176.382 522.54 176.128 523.803 176.128C525.014 176.128 526.088 176.323 527.025 176.714C527.963 177.104 528.77 177.658 529.447 178.374C530.124 179.09 530.678 179.937 531.107 180.913C531.537 181.89 531.856 182.97 532.064 184.155V190.444C531.908 191.525 531.615 192.528 531.186 193.452C530.769 194.377 530.215 195.184 529.525 195.874C528.848 196.564 528.028 197.098 527.064 197.476C526.101 197.853 525.001 198.042 523.764 198.042C522.514 198.042 521.387 197.782 520.385 197.261C519.395 196.74 518.549 196.004 517.846 195.054C517.156 194.09 516.622 192.957 516.244 191.655C515.88 190.34 515.697 188.888 515.697 187.3ZM517.65 186.89V187.3C517.65 188.576 517.781 189.767 518.041 190.874C518.301 191.968 518.692 192.918 519.213 193.726C519.734 194.533 520.398 195.164 521.205 195.62C522.012 196.076 522.963 196.304 524.057 196.304C525.437 196.304 526.602 196.05 527.553 195.542C528.503 195.021 529.265 194.331 529.838 193.472C530.411 192.612 530.821 191.668 531.068 190.64V184.136C530.912 183.459 530.684 182.756 530.385 182.026C530.085 181.297 529.669 180.62 529.135 179.995C528.601 179.357 527.924 178.843 527.104 178.452C526.283 178.062 525.281 177.866 524.096 177.866C522.989 177.866 522.032 178.094 521.225 178.55C520.417 179.006 519.747 179.644 519.213 180.464C518.692 181.271 518.301 182.222 518.041 183.315C517.781 184.409 517.65 185.601 517.65 186.89ZM550.178 176.519V197.651H548.244V176.519H550.178ZM547.795 170.249C547.795 169.858 547.925 169.526 548.186 169.253C548.446 168.966 548.791 168.823 549.221 168.823C549.663 168.823 550.015 168.966 550.275 169.253C550.549 169.526 550.686 169.858 550.686 170.249C550.686 170.64 550.549 170.972 550.275 171.245C550.015 171.519 549.663 171.655 549.221 171.655C548.791 171.655 548.446 171.519 548.186 171.245C547.925 170.972 547.795 170.64 547.795 170.249ZM558.404 181.03V197.651H556.471V176.519H558.346L558.404 181.03ZM557.994 185.62L557.115 184.858C557.206 183.687 557.467 182.573 557.896 181.519C558.326 180.464 558.906 179.533 559.635 178.726C560.364 177.918 561.223 177.287 562.213 176.831C563.202 176.362 564.29 176.128 565.475 176.128C566.529 176.128 567.473 176.271 568.307 176.558C569.14 176.844 569.843 177.3 570.416 177.925C571.002 178.55 571.445 179.357 571.744 180.347C572.057 181.323 572.213 182.515 572.213 183.921V197.651H570.279V183.901C570.279 182.339 570.058 181.121 569.615 180.249C569.186 179.377 568.58 178.758 567.799 178.394C567.031 178.029 566.119 177.847 565.064 177.847C563.88 177.847 562.851 178.107 561.979 178.628C561.106 179.149 560.377 179.813 559.791 180.62C559.218 181.427 558.782 182.28 558.482 183.179C558.183 184.064 558.02 184.878 557.994 185.62ZM590.967 192.319C590.967 191.733 590.811 191.147 590.498 190.562C590.186 189.963 589.606 189.416 588.76 188.921C587.913 188.413 586.676 187.99 585.049 187.651C583.877 187.391 582.835 187.104 581.924 186.792C581.012 186.466 580.244 186.076 579.619 185.62C579.007 185.164 578.538 184.624 578.213 183.999C577.9 183.361 577.744 182.612 577.744 181.753C577.744 180.972 577.913 180.243 578.252 179.565C578.59 178.888 579.079 178.296 579.717 177.788C580.355 177.267 581.123 176.864 582.021 176.577C582.933 176.278 583.955 176.128 585.088 176.128C586.702 176.128 588.083 176.401 589.229 176.948C590.374 177.482 591.253 178.218 591.865 179.155C592.49 180.093 592.803 181.16 592.803 182.358H590.869C590.869 181.577 590.641 180.848 590.186 180.171C589.743 179.481 589.092 178.921 588.232 178.491C587.373 178.049 586.325 177.827 585.088 177.827C583.799 177.827 582.757 178.022 581.963 178.413C581.169 178.804 580.589 179.292 580.225 179.878C579.86 180.464 579.678 181.069 579.678 181.694C579.678 182.189 579.749 182.638 579.893 183.042C580.049 183.446 580.335 183.823 580.752 184.175C581.169 184.526 581.761 184.858 582.529 185.171C583.311 185.47 584.32 185.763 585.557 186.05C587.262 186.427 588.649 186.89 589.717 187.437C590.798 187.97 591.592 188.628 592.1 189.409C592.62 190.19 592.881 191.134 592.881 192.241C592.881 193.101 592.699 193.888 592.334 194.604C591.982 195.308 591.468 195.92 590.791 196.44C590.127 196.948 589.32 197.345 588.369 197.632C587.432 197.905 586.383 198.042 585.225 198.042C583.454 198.042 581.963 197.756 580.752 197.183C579.541 196.61 578.623 195.854 577.998 194.917C577.373 193.979 577.061 192.97 577.061 191.89H578.994C579.072 193.022 579.43 193.914 580.068 194.565C580.719 195.216 581.507 195.679 582.432 195.952C583.369 196.213 584.3 196.343 585.225 196.343C586.475 196.343 587.523 196.154 588.369 195.776C589.229 195.386 589.873 194.884 590.303 194.272C590.745 193.66 590.967 193.009 590.967 192.319ZM600.287 176.519V197.651H598.354V176.519H600.287ZM597.904 170.249C597.904 169.858 598.035 169.526 598.295 169.253C598.555 168.966 598.9 168.823 599.33 168.823C599.773 168.823 600.124 168.966 600.385 169.253C600.658 169.526 600.795 169.858 600.795 170.249C600.795 170.64 600.658 170.972 600.385 171.245C600.124 171.519 599.773 171.655 599.33 171.655C598.9 171.655 598.555 171.519 598.295 171.245C598.035 170.972 597.904 170.64 597.904 170.249ZM620.564 176.519H622.381V197.3C622.381 199.123 622.042 200.692 621.365 202.007C620.688 203.335 619.725 204.351 618.475 205.054C617.238 205.757 615.773 206.108 614.08 206.108C613.156 206.108 612.244 205.972 611.346 205.698C610.447 205.425 609.607 205.015 608.826 204.468C608.058 203.934 607.4 203.283 606.854 202.515L607.986 201.323C608.833 202.365 609.744 203.14 610.721 203.647C611.697 204.155 612.778 204.409 613.963 204.409C615.356 204.409 616.535 204.123 617.498 203.55C618.462 202.99 619.191 202.183 619.686 201.128C620.193 200.073 620.447 198.817 620.447 197.358V181.167L620.564 176.519ZM605.643 187.3V186.89C605.643 185.236 605.825 183.752 606.189 182.437C606.554 181.108 607.081 179.976 607.771 179.038C608.475 178.101 609.327 177.384 610.33 176.89C611.333 176.382 612.465 176.128 613.729 176.128C614.939 176.128 616.014 176.323 616.951 176.714C617.889 177.104 618.696 177.658 619.373 178.374C620.063 179.09 620.623 179.937 621.053 180.913C621.482 181.89 621.801 182.97 622.01 184.155V190.444C621.84 191.525 621.548 192.528 621.131 193.452C620.714 194.377 620.161 195.184 619.471 195.874C618.781 196.564 617.954 197.098 616.99 197.476C616.04 197.853 614.939 198.042 613.689 198.042C612.439 198.042 611.313 197.782 610.311 197.261C609.321 196.74 608.475 196.004 607.771 195.054C607.081 194.09 606.554 192.957 606.189 191.655C605.825 190.34 605.643 188.888 605.643 187.3ZM607.576 186.89V187.3C607.576 188.576 607.706 189.767 607.967 190.874C608.227 191.968 608.618 192.918 609.139 193.726C609.673 194.533 610.337 195.164 611.131 195.62C611.938 196.076 612.889 196.304 613.982 196.304C615.363 196.304 616.528 196.05 617.479 195.542C618.429 195.021 619.184 194.331 619.744 193.472C620.304 192.612 620.701 191.668 620.936 190.64V184.136C620.792 183.459 620.571 182.756 620.271 182.026C619.985 181.297 619.575 180.62 619.041 179.995C618.52 179.357 617.85 178.843 617.029 178.452C616.209 178.062 615.206 177.866 614.021 177.866C612.915 177.866 611.958 178.094 611.15 178.55C610.343 179.006 609.673 179.644 609.139 180.464C608.618 181.271 608.227 182.222 607.967 183.315C607.706 184.409 607.576 185.601 607.576 186.89ZM630.373 167.651V197.651H628.439V167.651H630.373ZM629.963 185.62L629.084 184.858C629.175 183.687 629.436 182.573 629.865 181.519C630.295 180.464 630.874 179.533 631.604 178.726C632.333 177.918 633.192 177.287 634.182 176.831C635.171 176.362 636.258 176.128 637.443 176.128C638.498 176.128 639.442 176.271 640.275 176.558C641.109 176.844 641.812 177.3 642.385 177.925C642.971 178.55 643.413 179.357 643.713 180.347C644.025 181.323 644.182 182.515 644.182 183.921V197.651H642.248V183.901C642.248 182.339 642.027 181.121 641.584 180.249C641.154 179.377 640.549 178.758 639.768 178.394C638.999 178.029 638.088 177.847 637.033 177.847C635.848 177.847 634.82 178.107 633.947 178.628C633.075 179.149 632.346 179.813 631.76 180.62C631.187 181.427 630.751 182.28 630.451 183.179C630.152 184.064 629.989 184.878 629.963 185.62ZM657.896 176.519V178.179H647.545V176.519H657.896ZM651.432 171.011H653.385V192.534C653.385 193.589 653.515 194.39 653.775 194.937C654.049 195.47 654.407 195.828 654.85 196.011C655.292 196.193 655.768 196.284 656.275 196.284C656.64 196.284 656.979 196.265 657.291 196.226C657.617 196.187 657.929 196.141 658.229 196.089L658.346 197.749C658.059 197.84 657.688 197.912 657.232 197.964C656.777 198.016 656.347 198.042 655.943 198.042C655.045 198.042 654.257 197.879 653.58 197.554C652.903 197.215 652.376 196.649 651.998 195.854C651.62 195.047 651.432 193.94 651.432 192.534V171.011ZM675.498 192.319C675.498 191.733 675.342 191.147 675.029 190.562C674.717 189.963 674.137 189.416 673.291 188.921C672.445 188.413 671.208 187.99 669.58 187.651C668.408 187.391 667.367 187.104 666.455 186.792C665.544 186.466 664.775 186.076 664.15 185.62C663.538 185.164 663.07 184.624 662.744 183.999C662.432 183.361 662.275 182.612 662.275 181.753C662.275 180.972 662.445 180.243 662.783 179.565C663.122 178.888 663.61 178.296 664.248 177.788C664.886 177.267 665.654 176.864 666.553 176.577C667.464 176.278 668.486 176.128 669.619 176.128C671.234 176.128 672.614 176.401 673.76 176.948C674.906 177.482 675.785 178.218 676.396 179.155C677.021 180.093 677.334 181.16 677.334 182.358H675.4C675.4 181.577 675.173 180.848 674.717 180.171C674.274 179.481 673.623 178.921 672.764 178.491C671.904 178.049 670.856 177.827 669.619 177.827C668.33 177.827 667.288 178.022 666.494 178.413C665.7 178.804 665.12 179.292 664.756 179.878C664.391 180.464 664.209 181.069 664.209 181.694C664.209 182.189 664.281 182.638 664.424 183.042C664.58 183.446 664.867 183.823 665.283 184.175C665.7 184.526 666.292 184.858 667.061 185.171C667.842 185.47 668.851 185.763 670.088 186.05C671.794 186.427 673.18 186.89 674.248 187.437C675.329 187.97 676.123 188.628 676.631 189.409C677.152 190.19 677.412 191.134 677.412 192.241C677.412 193.101 677.23 193.888 676.865 194.604C676.514 195.308 675.999 195.92 675.322 196.44C674.658 196.948 673.851 197.345 672.9 197.632C671.963 197.905 670.915 198.042 669.756 198.042C667.985 198.042 666.494 197.756 665.283 197.183C664.072 196.61 663.154 195.854 662.529 194.917C661.904 193.979 661.592 192.97 661.592 191.89H663.525C663.604 193.022 663.962 193.914 664.6 194.565C665.251 195.216 666.038 195.679 666.963 195.952C667.9 196.213 668.831 196.343 669.756 196.343C671.006 196.343 672.054 196.154 672.9 195.776C673.76 195.386 674.404 194.884 674.834 194.272C675.277 193.66 675.498 193.009 675.498 192.319ZM682.318 196.362C682.318 195.959 682.449 195.614 682.709 195.327C682.982 195.041 683.34 194.897 683.783 194.897C684.239 194.897 684.604 195.041 684.877 195.327C685.15 195.614 685.287 195.959 685.287 196.362C685.287 196.766 685.15 197.111 684.877 197.397C684.604 197.671 684.239 197.808 683.783 197.808C683.34 197.808 682.982 197.671 682.709 197.397C682.449 197.111 682.318 196.766 682.318 196.362Z" fill="white"/>
<path d="M369.9 70.8887H363.65L363.689 65.9668H369.9C371.32 65.9668 372.518 65.6413 373.494 64.9902C374.471 64.3262 375.213 63.3496 375.721 62.0605C376.229 60.7585 376.482 59.1764 376.482 57.3145V56.0059C376.482 54.5996 376.339 53.3626 376.053 52.2949C375.766 51.2142 375.343 50.3092 374.783 49.5801C374.223 48.8509 373.527 48.304 372.693 47.9395C371.873 47.5749 370.929 47.3926 369.861 47.3926H363.533V42.4512H369.861C371.788 42.4512 373.546 42.7767 375.135 43.4277C376.736 44.0788 378.117 45.0098 379.275 46.2207C380.447 47.4316 381.352 48.8639 381.99 50.5176C382.628 52.1712 382.947 54.0137 382.947 56.0449V57.3145C382.947 59.3327 382.628 61.1751 381.99 62.8418C381.352 64.4954 380.447 65.9277 379.275 67.1387C378.117 68.3366 376.743 69.2611 375.154 69.9121C373.566 70.5632 371.814 70.8887 369.9 70.8887ZM367.264 42.4512V70.8887H360.896V42.4512H367.264ZM397.463 65.8496V56.7871C397.463 56.1491 397.365 55.6022 397.17 55.1465C396.975 54.6908 396.669 54.3327 396.252 54.0723C395.835 53.8118 395.295 53.6816 394.631 53.6816C394.071 53.6816 393.583 53.7793 393.166 53.9746C392.762 54.1699 392.45 54.4499 392.229 54.8145C392.02 55.179 391.916 55.6283 391.916 56.1621H385.822C385.822 55.2116 386.037 54.3262 386.467 53.5059C386.896 52.6855 387.508 51.9629 388.303 51.3379C389.11 50.7129 390.074 50.2311 391.193 49.8926C392.313 49.541 393.57 49.3652 394.963 49.3652C396.617 49.3652 398.088 49.6452 399.377 50.2051C400.679 50.752 401.708 51.5788 402.463 52.6855C403.218 53.7793 403.596 55.1595 403.596 56.8262V65.6738C403.596 66.9499 403.667 67.9525 403.811 68.6816C403.967 69.3978 404.188 70.0228 404.475 70.5566V70.8887H398.322C398.036 70.2767 397.821 69.5215 397.678 68.623C397.535 67.7116 397.463 66.7871 397.463 65.8496ZM398.225 57.998L398.264 61.3574H395.236C394.559 61.3574 393.973 61.4421 393.479 61.6113C392.997 61.7806 392.606 62.015 392.307 62.3145C392.007 62.6009 391.786 62.9395 391.643 63.3301C391.512 63.7077 391.447 64.1243 391.447 64.5801C391.447 65.0098 391.551 65.4004 391.76 65.752C391.968 66.0905 392.255 66.3574 392.619 66.5527C392.984 66.748 393.407 66.8457 393.889 66.8457C394.683 66.8457 395.36 66.6895 395.92 66.377C396.493 66.0645 396.936 65.6868 397.248 65.2441C397.561 64.7884 397.717 64.3652 397.717 63.9746L399.182 66.5137C398.947 67.0345 398.661 67.5749 398.322 68.1348C397.984 68.6816 397.554 69.196 397.033 69.6777C396.512 70.1465 395.881 70.5306 395.139 70.8301C394.41 71.1296 393.531 71.2793 392.502 71.2793C391.174 71.2793 389.969 71.0124 388.889 70.4785C387.808 69.9316 386.942 69.1829 386.291 68.2324C385.653 67.2819 385.334 66.1882 385.334 64.9512C385.334 63.8444 385.536 62.8613 385.939 62.002C386.343 61.1426 386.949 60.4134 387.756 59.8145C388.576 59.2155 389.605 58.7663 390.842 58.4668C392.079 58.1543 393.524 57.998 395.178 57.998H398.225ZM418.092 49.7559V54.0332H405.553V49.7559H418.092ZM408.424 44.5215H414.537V64.2676C414.537 64.8535 414.609 65.3027 414.752 65.6152C414.895 65.9277 415.13 66.1491 415.455 66.2793C415.781 66.3965 416.197 66.4551 416.705 66.4551C417.07 66.4551 417.382 66.4421 417.643 66.416C417.903 66.39 418.144 66.3574 418.365 66.3184V70.7324C417.844 70.9017 417.291 71.0319 416.705 71.123C416.119 71.2272 415.481 71.2793 414.791 71.2793C413.476 71.2793 412.337 71.0645 411.373 70.6348C410.423 70.2051 409.693 69.528 409.186 68.6035C408.678 67.666 408.424 66.4486 408.424 64.9512V44.5215ZM431.963 65.8496V56.7871C431.963 56.1491 431.865 55.6022 431.67 55.1465C431.475 54.6908 431.169 54.3327 430.752 54.0723C430.335 53.8118 429.795 53.6816 429.131 53.6816C428.571 53.6816 428.083 53.7793 427.666 53.9746C427.262 54.1699 426.95 54.4499 426.729 54.8145C426.52 55.179 426.416 55.6283 426.416 56.1621H420.322C420.322 55.2116 420.537 54.3262 420.967 53.5059C421.396 52.6855 422.008 51.9629 422.803 51.3379C423.61 50.7129 424.574 50.2311 425.693 49.8926C426.813 49.541 428.07 49.3652 429.463 49.3652C431.117 49.3652 432.588 49.6452 433.877 50.2051C435.179 50.752 436.208 51.5788 436.963 52.6855C437.718 53.7793 438.096 55.1595 438.096 56.8262V65.6738C438.096 66.9499 438.167 67.9525 438.311 68.6816C438.467 69.3978 438.688 70.0228 438.975 70.5566V70.8887H432.822C432.536 70.2767 432.321 69.5215 432.178 68.623C432.035 67.7116 431.963 66.7871 431.963 65.8496ZM432.725 57.998L432.764 61.3574H429.736C429.059 61.3574 428.473 61.4421 427.979 61.6113C427.497 61.7806 427.106 62.015 426.807 62.3145C426.507 62.6009 426.286 62.9395 426.143 63.3301C426.012 63.7077 425.947 64.1243 425.947 64.5801C425.947 65.0098 426.051 65.4004 426.26 65.752C426.468 66.0905 426.755 66.3574 427.119 66.5527C427.484 66.748 427.907 66.8457 428.389 66.8457C429.183 66.8457 429.86 66.6895 430.42 66.377C430.993 66.0645 431.436 65.6868 431.748 65.2441C432.061 64.7884 432.217 64.3652 432.217 63.9746L433.682 66.5137C433.447 67.0345 433.161 67.5749 432.822 68.1348C432.484 68.6816 432.054 69.196 431.533 69.6777C431.012 70.1465 430.381 70.5306 429.639 70.8301C428.91 71.1296 428.031 71.2793 427.002 71.2793C425.674 71.2793 424.469 71.0124 423.389 70.4785C422.308 69.9316 421.442 69.1829 420.791 68.2324C420.153 67.2819 419.834 66.1882 419.834 64.9512C419.834 63.8444 420.036 62.8613 420.439 62.002C420.843 61.1426 421.449 60.4134 422.256 59.8145C423.076 59.2155 424.105 58.7663 425.342 58.4668C426.579 58.1543 428.024 57.998 429.678 57.998H432.725ZM453.803 56.2793V61.0449H442.436V56.2793H453.803ZM467.791 70.8887H461.541L461.58 65.9668H467.791C469.21 65.9668 470.408 65.6413 471.385 64.9902C472.361 64.3262 473.104 63.3496 473.611 62.0605C474.119 60.7585 474.373 59.1764 474.373 57.3145V56.0059C474.373 54.5996 474.23 53.3626 473.943 52.2949C473.657 51.2142 473.234 50.3092 472.674 49.5801C472.114 48.8509 471.417 48.304 470.584 47.9395C469.764 47.5749 468.82 47.3926 467.752 47.3926H461.424V42.4512H467.752C469.679 42.4512 471.437 42.7767 473.025 43.4277C474.627 44.0788 476.007 45.0098 477.166 46.2207C478.338 47.4316 479.243 48.8639 479.881 50.5176C480.519 52.1712 480.838 54.0137 480.838 56.0449V57.3145C480.838 59.3327 480.519 61.1751 479.881 62.8418C479.243 64.4954 478.338 65.9277 477.166 67.1387C476.007 68.3366 474.633 69.2611 473.045 69.9121C471.456 70.5632 469.705 70.8887 467.791 70.8887ZM465.154 42.4512V70.8887H458.787V42.4512H465.154ZM490.275 54.6777V70.8887H484.182V49.7559H489.904L490.275 54.6777ZM496.584 49.5996L496.486 55.2832C496.226 55.2441 495.887 55.2116 495.471 55.1855C495.054 55.1465 494.696 55.127 494.396 55.127C493.615 55.127 492.938 55.2246 492.365 55.4199C491.805 55.6022 491.337 55.8757 490.959 56.2402C490.594 56.6048 490.321 57.0605 490.139 57.6074C489.956 58.1413 489.865 58.7598 489.865 59.4629L488.713 58.8965C488.713 57.5033 488.85 56.2272 489.123 55.0684C489.396 53.9095 489.794 52.9069 490.314 52.0605C490.835 51.2012 491.473 50.5371 492.229 50.0684C492.984 49.5996 493.843 49.3652 494.807 49.3652C495.119 49.3652 495.438 49.3848 495.764 49.4238C496.089 49.4629 496.363 49.5215 496.584 49.5996ZM505.26 49.7559V70.8887H499.146V49.7559H505.26ZM498.775 44.2871C498.775 43.4017 499.088 42.679 499.713 42.1191C500.338 41.5462 501.158 41.2598 502.174 41.2598C503.189 41.2598 504.01 41.5462 504.635 42.1191C505.273 42.679 505.592 43.4017 505.592 44.2871C505.592 45.1595 505.273 45.8822 504.635 46.4551C504.01 47.015 503.189 47.2949 502.174 47.2949C501.158 47.2949 500.338 47.015 499.713 46.4551C499.088 45.8822 498.775 45.1595 498.775 44.2871ZM516.807 66.5723L521.221 49.7559H527.627L520.615 70.8887H516.768L516.807 66.5723ZM513.955 49.7559L518.35 66.5918L518.389 70.8887H514.541L507.529 49.7559H513.955ZM539.311 71.2793C537.631 71.2793 536.127 71.0124 534.799 70.4785C533.471 69.9447 532.344 69.209 531.42 68.2715C530.508 67.321 529.812 66.2272 529.33 64.9902C528.848 63.7533 528.607 62.4316 528.607 61.0254V60.2832C528.607 58.7077 528.829 57.2559 529.271 55.9277C529.714 54.5996 530.359 53.4473 531.205 52.4707C532.064 51.4811 533.119 50.7194 534.369 50.1855C535.619 49.6387 537.045 49.3652 538.646 49.3652C540.144 49.3652 541.479 49.6126 542.65 50.1074C543.822 50.5892 544.812 51.2858 545.619 52.1973C546.426 53.0957 547.038 54.1829 547.455 55.459C547.885 56.722 548.1 58.1413 548.1 59.7168V62.2168H531.068V58.291H542.123V57.8223C542.123 57.0801 541.986 56.429 541.713 55.8691C541.452 55.3092 541.062 54.8796 540.541 54.5801C540.033 54.2676 539.389 54.1113 538.607 54.1113C537.865 54.1113 537.247 54.2676 536.752 54.5801C536.257 54.8926 535.86 55.3353 535.561 55.9082C535.274 56.4681 535.066 57.1257 534.936 57.8809C534.805 58.623 534.74 59.4238 534.74 60.2832V61.0254C534.74 61.8457 534.851 62.5944 535.072 63.2715C535.294 63.9486 535.619 64.528 536.049 65.0098C536.479 65.4915 536.999 65.8691 537.611 66.1426C538.223 66.416 538.92 66.5527 539.701 66.5527C540.665 66.5527 541.583 66.3704 542.455 66.0059C543.327 65.6283 544.083 65.0423 544.721 64.248L547.572 67.5098C547.143 68.1348 546.537 68.7402 545.756 69.3262C544.988 69.8991 544.063 70.3678 542.982 70.7324C541.902 71.097 540.678 71.2793 539.311 71.2793ZM556.795 54.2676V70.8887H550.682V49.7559H556.424L556.795 54.2676ZM555.994 59.5801L554.471 59.6191C554.471 58.0306 554.666 56.6048 555.057 55.3418C555.447 54.0788 556.001 53.0046 556.717 52.1191C557.446 51.2207 558.312 50.5371 559.314 50.0684C560.33 49.5996 561.45 49.3652 562.674 49.3652C563.663 49.3652 564.568 49.5085 565.389 49.7949C566.209 50.0814 566.912 50.5436 567.498 51.1816C568.097 51.8066 568.553 52.64 568.865 53.6816C569.178 54.7103 569.334 55.9798 569.334 57.4902V70.8887H563.201V57.4707C563.201 56.5853 563.077 55.9017 562.83 55.4199C562.583 54.9382 562.218 54.5996 561.736 54.4043C561.268 54.209 560.695 54.1113 560.018 54.1113C559.301 54.1113 558.689 54.2546 558.182 54.541C557.674 54.8145 557.257 55.1986 556.932 55.6934C556.606 56.1882 556.365 56.7676 556.209 57.4316C556.066 58.0957 555.994 58.8118 555.994 59.5801Z" fill="white"/>
<g clip-path="url(#clip0_335_201)">
<path d="M243.236 172.588C242.413 175.265 240.853 177.899 238.284 179.218C237.865 179.433 235.783 180.231 235.493 180.231H185.662L188.865 189.504C190.611 190.119 198.814 188.541 198.814 191.256V196.694H222.924C224.497 196.694 225.774 201.003 222.347 201.403L119.451 201.412C115.541 201.059 117.076 196.694 118.587 196.694H142.697V191.256C142.697 188.541 150.9 190.119 152.645 189.504L155.849 180.231H106.02C102.62 180.231 97.8469 174.888 98.2627 171.277L98.2774 99.2493C98.213 95.8296 102.714 90.8695 106.02 90.8695H123.996V73.6739C123.996 73.0613 125.258 72.1777 125.914 72.0746C127.861 71.7682 133.475 71.8537 135.555 72.0422C136.392 72.1187 138.026 72.7049 138.026 73.6739V90.8695H140.363V57.2118C140.363 56.5992 141.625 55.7155 142.281 55.6124C144.229 55.3061 149.843 55.3915 151.922 55.58C152.76 55.6566 154.394 56.2428 154.394 57.2118V90.8695H156.731V66.6166C156.731 66.004 157.993 65.1204 158.649 65.0173C160.596 64.7109 166.21 64.7964 168.29 64.9849C169.127 65.0614 170.761 65.6476 170.761 66.6166V90.8665H199.402C187.061 76.4014 197.751 54.3665 216.806 55.5771C234.047 56.6728 242.413 77.9566 230.966 90.8665H235.496C235.786 90.8665 237.868 91.6647 238.287 91.8798C240.855 93.1964 242.419 95.8326 243.239 98.51V172.585L243.236 172.588ZM149.714 60.2957H145.037V114.383H149.714V60.2957ZM212.841 60.5903C200.902 61.9952 194.474 76.9198 202.173 86.4542L212.841 75.7299V60.5903ZM231.253 74.4074C230.53 67.4649 224.438 61.3237 217.515 60.5903V74.4074H231.253ZM166.079 69.7035H161.402V114.383H166.079V69.7035ZM133.346 76.7578H128.67V114.383H133.346V76.7578ZM231.253 79.1112H216.2L205.537 89.8415C215.017 97.5674 229.882 91.1522 231.253 79.1112ZM123.993 95.5704H106.896C105.482 95.5704 102.951 98.1182 102.951 99.5379V161.416H238.562V99.5379C238.562 99.1462 237.505 97.2493 237.116 96.8782C236.501 96.295 235.136 95.7088 234.301 95.594C232.562 95.3554 226.678 95.3171 224.992 95.5851C223.606 95.806 221.372 97.1197 219.577 97.4879C216.148 98.1919 213.014 98.0799 209.632 97.1816C208.75 96.9459 205.898 95.5675 205.684 95.5675H170.758V114.38H173.095V99.535C173.095 98.7574 174.519 98.0004 175.28 97.912C177.198 97.6882 183.371 97.647 185.205 97.9356C186.602 98.1565 187.018 99.1049 187.135 100.404C187.48 104.221 187.559 113.158 187.126 116.887C187.009 117.888 186.616 118.56 185.673 118.954L110.094 119.099C108.861 119.152 107.836 118.409 107.64 117.158C107.98 111.767 107.127 105.715 107.608 100.407C107.725 99.1108 108.141 98.1595 109.538 97.9386C111.374 97.6499 117.544 97.6911 119.462 97.915C120.224 98.0033 121.647 98.7603 121.647 99.5379V114.383H123.984V95.5704H123.993ZM140.36 95.5704H138.023V114.383H140.36V95.5704ZM156.728 95.5704H154.391V114.383H156.728V95.5704ZM116.979 102.628H112.302V114.386H116.979V102.628ZM182.446 102.628H177.769V114.386H182.446V102.628ZM238.56 166.12H102.951V171.557C102.951 172.774 104.928 175.118 106.299 175.245C149.125 175.763 192.148 175.607 235.001 175.324C236.457 175.195 238.562 172.891 238.562 171.557V166.12H238.56ZM183.907 189.636L180.507 180.27L160.807 180.364L157.603 189.636H183.907ZM194.137 194.34H147.374V196.691H194.137V194.34Z" fill="url(#paint4_linear_335_201)"/>
<path d="M232.026 142.414C240.003 150.856 223.343 161.05 219.682 148.511L196.189 134.786C195.103 134.3 194.98 135.478 194.4 135.961C191.24 138.582 187.79 138.629 184.595 136.034C184.188 135.705 184.156 134.747 183.239 134.995L159.346 153.021C158.022 156.488 155.951 159.147 151.904 159.086C148.226 159.027 146.267 156.6 144.867 153.504L120.915 143.501C116.34 151.996 103.727 144.9 108.559 136.627C111.936 130.845 119.919 132.709 121.831 138.753L145.784 148.756C147.579 145.345 151.538 144.005 155.09 145.572C156.364 146.134 156.962 147.201 158.045 147.905L182.173 129.828C183.497 126.362 185.568 123.702 189.615 123.764C193.352 123.823 195.463 126.37 196.652 129.637L220.145 143.363C221.231 143.849 221.354 142.671 221.934 142.188C224.988 139.654 229.17 139.383 232.029 142.408L232.026 142.414ZM191.132 129.163C189.009 127.027 185.664 130.388 187.787 132.526C189.911 134.662 193.255 131.301 191.132 129.163ZM116.314 138.571C114.24 136.485 110.925 139.66 112.873 141.884C114.838 144.126 118.54 140.812 116.314 138.571ZM228.541 145.625C226.418 143.489 223.073 146.85 225.196 148.989C227.32 151.127 230.664 147.763 228.541 145.625ZM153.723 150.329C151.6 148.193 148.255 151.554 150.378 153.692C152.502 155.828 155.846 152.467 153.723 150.329Z" fill="url(#paint5_linear_335_201)"/>
<path d="M205.16 100.336L227.294 100.292C229.883 100.698 229.874 104.557 227.294 104.961L206.911 105.037C204.741 106.351 199.004 113.912 197.142 114.327C194.896 114.828 193.411 112.754 194.468 110.745L205.16 100.336Z" fill="url(#paint6_linear_335_201)"/>
<path d="M109.297 121.502L135.838 121.432C138.761 121.732 138.852 125.797 135.838 126.147C127.808 127.081 118.033 125.432 109.815 126.147C107.148 125.921 106.779 122.348 109.3 121.499L109.297 121.502Z" fill="url(#paint7_linear_335_201)"/>
<path d="M191.129 154.426L208.586 154.382C211.175 154.791 211.166 158.647 208.586 159.05C203.546 159.84 196.623 158.511 191.378 159.05C188.912 158.662 188.757 155.127 191.132 154.426H191.129Z" fill="url(#paint8_linear_335_201)"/>
<path d="M200.483 147.369C201.52 147.136 207.799 147.136 208.835 147.369C211.131 147.887 211.117 151.596 208.589 151.993C207.353 152.188 201.625 152.202 200.486 151.949C198.246 151.445 198.243 147.875 200.486 147.372L200.483 147.369Z" fill="url(#paint9_linear_335_201)"/>
<path d="M142.029 121.502C143.719 121.125 147.078 121.092 147.368 123.375C147.745 126.356 144.463 126.468 142.278 126.123C139.753 125.725 139.733 122.014 142.032 121.499L142.029 121.502Z" fill="url(#paint10_linear_335_201)"/>
<path d="M109.297 168.534L124.414 168.49C127.003 168.9 126.994 172.755 124.414 173.159C122.112 173.521 111.845 173.521 109.543 173.159C107.077 172.77 106.922 169.235 109.297 168.534Z" fill="url(#paint11_linear_335_201)"/>
<path d="M130.338 168.535C132.028 168.158 135.387 168.125 135.677 170.408C136.055 173.389 132.772 173.501 130.587 173.156C128.063 172.759 128.043 169.047 130.341 168.532L130.338 168.535Z" fill="url(#paint12_linear_335_201)"/>
</g>
<defs>
<radialGradient id="paint0_radial_335_201" cx="0" cy="0" r="1" gradientUnits="userSpaceOnUse" gradientTransform="translate(139.293 667.64) scale(139.293 667.64)">
<stop stop-color="#1A5069"/>
<stop offset="1" stop-color="#0F7BAE" stop-opacity="0"/>
</radialGradient>
<radialGradient id="paint1_radial_335_201" cx="0" cy="0" r="1" gradientUnits="userSpaceOnUse" gradientTransform="translate(139.293 667.64) scale(139.293 667.64)">
<stop stop-color="#1A5069"/>
<stop offset="1" stop-color="#0F7BAE" stop-opacity="0"/>
</radialGradient>
<radialGradient id="paint2_radial_335_201" cx="0" cy="0" r="1" gradientUnits="userSpaceOnUse" gradientTransform="translate(120.676 147.576) scale(120.676 147.576)">
<stop stop-color="#1A5069"/>
<stop offset="1" stop-color="#0F7BAE" stop-opacity="0"/>
</radialGradient>
<radialGradient id="paint3_radial_335_201" cx="0" cy="0" r="1" gradientUnits="userSpaceOnUse" gradientTransform="translate(120.676 147.576) scale(120.676 147.576)">
<stop stop-color="#1A5069"/>
<stop offset="1" stop-color="#0F7BAE" stop-opacity="0"/>
</radialGradient>
<linearGradient id="paint4_linear_335_201" x1="268.219" y1="132.225" x2="48.2752" y2="128.201" gradientUnits="userSpaceOnUse">
<stop stop-color="#FFE1AF"/>
<stop offset="1" stop-color="#156489"/>
</linearGradient>
<linearGradient id="paint5_linear_335_201" x1="255.988" y1="142.347" x2="64.5938" y2="129.704" gradientUnits="userSpaceOnUse">
<stop stop-color="#FFE1AF"/>
<stop offset="1" stop-color="#156489"/>
</linearGradient>
<linearGradient id="paint6_linear_335_201" x1="235.281" y1="107.716" x2="182.116" y2="105.279" gradientUnits="userSpaceOnUse">
<stop stop-color="#FFE1AF"/>
<stop offset="1" stop-color="#156489"/>
</linearGradient>
<linearGradient id="paint7_linear_335_201" x1="143.313" y1="124.068" x2="97.6573" y2="118.954" gradientUnits="userSpaceOnUse">
<stop stop-color="#FFE1AF"/>
<stop offset="1" stop-color="#156489"/>
</linearGradient>
<linearGradient id="paint8_linear_335_201" x1="214.157" y1="156.974" x2="182.358" y2="154.466" gradientUnits="userSpaceOnUse">
<stop stop-color="#FFE1AF"/>
<stop offset="1" stop-color="#156489"/>
</linearGradient>
<linearGradient id="paint9_linear_335_201" x1="212.541" y1="149.796" x2="194.795" y2="149.021" gradientUnits="userSpaceOnUse">
<stop stop-color="#FFE1AF"/>
<stop offset="1" stop-color="#156489"/>
</linearGradient>
<linearGradient id="paint10_linear_335_201" x1="148.613" y1="123.913" x2="137.918" y2="123.633" gradientUnits="userSpaceOnUse">
<stop stop-color="#FFE1AF"/>
<stop offset="1" stop-color="#156489"/>
</linearGradient>
<linearGradient id="paint11_linear_335_201" x1="129.583" y1="171.089" x2="101.27" y2="169.11" gradientUnits="userSpaceOnUse">
<stop stop-color="#FFE1AF"/>
<stop offset="1" stop-color="#156489"/>
</linearGradient>
<linearGradient id="paint12_linear_335_201" x1="136.922" y1="170.946" x2="126.228" y2="170.666" gradientUnits="userSpaceOnUse">
<stop stop-color="#FFE1AF"/>
<stop offset="1" stop-color="#156489"/>
</linearGradient>
<clipPath id="clip0_335_201">
<rect width="145" height="146" fill="white" transform="translate(98.2363 55.4092)"/>
</clipPath>
</defs>
</svg>
