<svg width="183" height="169" viewBox="0 0 183 169" fill="none" xmlns="http://www.w3.org/2000/svg">
<path d="M182.795 77.2856C182.31 87.5109 183.443 98.335 182.795 108.492C181.532 128.206 170.033 146.99 152.638 156.506C149.952 157.974 142.107 161.697 139.365 161.304C138.327 161.155 136.199 160.274 135.078 159.87C118.285 153.821 104.795 138.687 99.9472 121.589C95.8929 107.271 98.2957 91.8665 97.613 77.1254L140.021 64.9092L182.795 77.2856ZM138.24 83.4872C100.493 86.4049 108.22 144.53 145.563 137.242C178.329 130.846 171.643 80.9051 138.24 83.4872Z" fill="url(#paint0_linear_398_1086)"/>
<path d="M92.6932 73.0974V78.8069H15.3262C14.6207 78.8069 13.2514 80.3783 13.198 81.2822C13.1332 82.3807 14.4338 84.1351 15.3262 84.1351H92.6932V96.5039L92.1211 97.076H14.5673C13.61 97.076 11.6915 101.557 15.7 102.03L92.0715 102.076L92.697 102.972L93.0784 114.96H14.9487C13.2133 114.96 12.1034 119.498 15.311 119.926L93.967 119.891L98.7803 132.847H15.3262C15.086 132.847 13.5909 134.026 13.4307 134.373C12.5191 136.356 14.1325 138.023 16.0776 138.183L101.565 138.237C105.859 144.82 110.882 150.754 117.023 155.678H2.02303C1.64163 155.678 0.310547 154.347 0.310547 153.966V23.2485H14.1859C14.3537 23.2485 16.4552 22.2606 16.787 22.0432C18.1639 21.1355 20.0785 18.1758 20.0785 16.5854V0.414062H120.634C120.741 0.414062 121.557 1.32942 121.767 1.56208L121.912 64.4816L92.6893 73.0974H92.6932ZM40.5024 43.1156C37.6686 43.7678 38.5611 47.7076 41.1623 48.0013L106.58 47.9898C109.36 47.8869 110.016 44.7632 107.892 43.2338L40.5024 43.1156ZM15.0288 61.0032C12.4658 61.5944 12.6946 65.6258 15.3072 65.8889L107.892 65.6715C110.165 63.9705 109.212 60.7629 106.206 60.904L15.0288 61.0032Z" fill="url(#paint1_linear_398_1086)"/>
<path d="M121.779 160.621C122.134 160.576 122.607 159.714 123.587 159.923C124.499 160.122 128.652 162.712 130.079 163.348C132.363 164.374 134.808 165.133 137.165 165.961C137.245 167.212 136.475 168.638 135.106 168.627L16.6695 168.41C16.4368 168.196 15.5215 167.38 15.5215 167.277V160.618H121.779V160.621Z" fill="url(#paint2_linear_398_1086)"/>
<path d="M135.462 13.3512C136.374 13.5457 137.255 14.8577 137.179 15.8189L137.194 60.3091L127.285 63.204V13.3512C129.642 13.6945 133.285 12.8821 135.459 13.3512H135.462Z" fill="url(#paint3_linear_398_1086)"/>
<path d="M3.34961 18.2976L14.7573 4.60156V16.9704C14.7573 17.1267 13.2469 18.3014 13.0448 18.3014H3.34961V18.2976Z" fill="url(#paint4_linear_398_1086)"/>
<path d="M137.087 88.8033C156.245 86.6293 169.159 107.229 158.171 123.225C146.744 139.857 120.206 132.897 118.208 112.816C117.071 101.378 125.55 90.1153 137.087 88.8033ZM150.001 101.317C147.644 101.748 140.825 111.859 138.323 113.644C137.552 113.995 132.567 109.696 131.431 109.101C128.395 107.507 125.698 110.749 128.624 113.434C129.856 114.563 135.63 118.755 137.037 119.472C138.96 120.448 139.825 119.731 141.176 118.392C145.203 114.391 148.495 109.422 152.473 105.348C153.457 103.358 152.389 100.882 150.001 101.317Z" fill="url(#paint5_linear_398_1086)"/>
<defs>
<linearGradient id="paint0_linear_398_1086" x1="197.728" y1="115.64" x2="68.0519" y2="113.522" gradientUnits="userSpaceOnUse">
<stop stop-color="#FFE1AF"/>
<stop offset="1" stop-color="#156489"/>
</linearGradient>
<linearGradient id="paint1_linear_398_1086" x1="142.861" y1="82.1016" x2="-41.612" y2="79.4403" gradientUnits="userSpaceOnUse">
<stop stop-color="#FFE1AF"/>
<stop offset="1" stop-color="#156489"/>
</linearGradient>
<linearGradient id="paint2_linear_398_1086" x1="158.128" y1="164.487" x2="-15.0629" y2="120.067" gradientUnits="userSpaceOnUse">
<stop stop-color="#FFE1AF"/>
<stop offset="1" stop-color="#156489"/>
</linearGradient>
<linearGradient id="paint3_linear_398_1086" x1="138.901" y1="39.5087" x2="123.866" y2="39.4538" gradientUnits="userSpaceOnUse">
<stop stop-color="#FFE1AF"/>
<stop offset="1" stop-color="#156489"/>
</linearGradient>
<linearGradient id="paint4_linear_398_1086" x1="16.7225" y1="11.8093" x2="-0.582749" y2="11.5439" gradientUnits="userSpaceOnUse">
<stop stop-color="#FFE1AF"/>
<stop offset="1" stop-color="#156489"/>
</linearGradient>
<linearGradient id="paint5_linear_398_1086" x1="169.804" y1="111.74" x2="102.91" y2="110.502" gradientUnits="userSpaceOnUse">
<stop stop-color="#FFE1AF"/>
<stop offset="1" stop-color="#156489"/>
</linearGradient>
</defs>
</svg>
