<svg width="267" height="435" viewBox="0 0 267 435" fill="none" xmlns="http://www.w3.org/2000/svg">
<mask id="mask0_448_843" style="mask-type:alpha" maskUnits="userSpaceOnUse" x="0" y="3" width="267" height="429">
<rect x="-0.999735" y="0.968136" width="424.5" height="264.773" rx="96" transform="matrix(-0.000242594 1 -0.999492 -0.031864 266.708 10.4997)" fill="black" stroke="#136A93" stroke-width="2"/>
</mask>
<g mask="url(#mask0_448_843)">
<rect width="466.451" height="270.169" rx="47.5" transform="matrix(-0.000242594 1 -0.999492 -0.031864 367.777 165.823)" fill="url(#paint0_radial_448_843)" fill-opacity="0.74"/>
<rect width="466.451" height="270.169" rx="47.5" transform="matrix(-0.000242594 1 -0.999492 -0.031864 169.096 -140.411)" fill="url(#paint1_radial_448_843)" fill-opacity="0.74"/>
</g>
<rect x="1.83984" y="2.3252" width="264.159" height="427.406" rx="96" fill="#D9D9D9" fill-opacity="0.14" stroke="#136A93" stroke-width="2"/>
<path d="M57.0664 119H51.7002L51.7344 115.309H57.0664C58.5133 115.309 59.7267 114.99 60.7065 114.352C61.6864 113.702 62.4269 112.774 62.9282 111.566C63.4295 110.347 63.6802 108.889 63.6802 107.191V105.909C63.6802 104.599 63.5378 103.443 63.2529 102.44C62.9681 101.437 62.5465 100.594 61.9883 99.9106C61.4414 99.2271 60.7635 98.7087 59.9546 98.3555C59.1457 98.0023 58.2171 97.8257 57.1689 97.8257H51.5977V94.1172H57.1689C58.8324 94.1172 60.3477 94.3963 61.7148 94.9546C63.0934 95.5129 64.284 96.3161 65.2866 97.3643C66.3006 98.401 67.0754 99.6429 67.6108 101.09C68.1577 102.537 68.4312 104.155 68.4312 105.943V107.191C68.4312 108.968 68.1577 110.586 67.6108 112.044C67.0754 113.491 66.3006 114.733 65.2866 115.77C64.284 116.807 63.0877 117.604 61.6978 118.163C60.3078 118.721 58.764 119 57.0664 119ZM54.332 94.1172V119H49.6323V94.1172H54.332ZM82.0239 115.069V106.542C82.0239 105.915 81.9157 105.374 81.6992 104.918C81.4827 104.462 81.1523 104.109 80.708 103.858C80.2637 103.608 79.6997 103.482 79.0161 103.482C78.4123 103.482 77.8825 103.585 77.4268 103.79C76.9824 103.995 76.6406 104.286 76.4014 104.662C76.1621 105.026 76.0425 105.448 76.0425 105.926H71.5137C71.5137 105.163 71.696 104.439 72.0605 103.756C72.4251 103.061 72.9435 102.446 73.6157 101.91C74.2993 101.363 75.1139 100.936 76.0596 100.628C77.0166 100.321 78.0876 100.167 79.2725 100.167C80.6738 100.167 81.9214 100.406 83.0151 100.885C84.1203 101.352 84.9862 102.058 85.6128 103.004C86.2508 103.95 86.5698 105.14 86.5698 106.576V114.642C86.5698 115.565 86.6268 116.357 86.7407 117.018C86.866 117.667 87.0483 118.231 87.2876 118.709V119H82.6904C82.474 118.533 82.3088 117.94 82.1948 117.223C82.0809 116.493 82.0239 115.776 82.0239 115.069ZM82.6562 107.738L82.6904 110.421H79.8364C79.13 110.421 78.5091 110.495 77.9736 110.643C77.4382 110.78 76.9995 110.985 76.6577 111.258C76.3159 111.52 76.0596 111.839 75.8887 112.215C75.7178 112.58 75.6323 112.996 75.6323 113.463C75.6323 113.919 75.7349 114.329 75.9399 114.693C76.1564 115.058 76.464 115.348 76.8628 115.565C77.2729 115.77 77.7515 115.873 78.2983 115.873C79.0959 115.873 79.7909 115.713 80.3833 115.394C80.9757 115.064 81.4372 114.665 81.7676 114.198C82.098 113.731 82.2746 113.286 82.2974 112.865L83.5962 114.813C83.4367 115.28 83.1974 115.776 82.8784 116.3C82.5594 116.824 82.1493 117.314 81.6479 117.77C81.1466 118.225 80.5428 118.601 79.8364 118.897C79.13 119.194 78.3097 119.342 77.3755 119.342C76.1792 119.342 75.1082 119.103 74.1626 118.624C73.217 118.146 72.4707 117.49 71.9238 116.659C71.377 115.827 71.1035 114.881 71.1035 113.822C71.1035 112.842 71.2858 111.976 71.6504 111.224C72.015 110.472 72.5562 109.84 73.2739 109.327C73.9917 108.803 74.8804 108.41 75.9399 108.148C77.0109 107.875 78.2357 107.738 79.6143 107.738H82.6562ZM99.1372 100.509V103.756H88.5415V100.509H99.1372ZM91.3784 95.9629H95.9072V113.668C95.9072 114.215 95.9813 114.636 96.1294 114.933C96.2775 115.229 96.4997 115.428 96.7959 115.531C97.0921 115.633 97.4453 115.685 97.8555 115.685C98.1517 115.685 98.4251 115.667 98.6758 115.633C98.9264 115.599 99.1372 115.565 99.3081 115.531L99.3252 118.915C98.9492 119.04 98.522 119.142 98.0435 119.222C97.5763 119.302 97.0465 119.342 96.4541 119.342C95.4401 119.342 94.5514 119.171 93.7881 118.829C93.0247 118.476 92.4323 117.912 92.0107 117.137C91.5892 116.351 91.3784 115.314 91.3784 114.027V95.9629ZM112.081 115.069V106.542C112.081 105.915 111.972 105.374 111.756 104.918C111.539 104.462 111.209 104.109 110.765 103.858C110.32 103.608 109.756 103.482 109.073 103.482C108.469 103.482 107.939 103.585 107.483 103.79C107.039 103.995 106.697 104.286 106.458 104.662C106.219 105.026 106.099 105.448 106.099 105.926H101.57C101.57 105.163 101.753 104.439 102.117 103.756C102.482 103.061 103 102.446 103.672 101.91C104.356 101.363 105.171 100.936 106.116 100.628C107.073 100.321 108.144 100.167 109.329 100.167C110.73 100.167 111.978 100.406 113.072 100.885C114.177 101.352 115.043 102.058 115.669 103.004C116.307 103.95 116.626 105.14 116.626 106.576V114.642C116.626 115.565 116.683 116.357 116.797 117.018C116.923 117.667 117.105 118.231 117.344 118.709V119H112.747C112.531 118.533 112.365 117.94 112.251 117.223C112.138 116.493 112.081 115.776 112.081 115.069ZM112.713 107.738L112.747 110.421H109.893C109.187 110.421 108.566 110.495 108.03 110.643C107.495 110.78 107.056 110.985 106.714 111.258C106.373 111.52 106.116 111.839 105.945 112.215C105.774 112.58 105.689 112.996 105.689 113.463C105.689 113.919 105.792 114.329 105.997 114.693C106.213 115.058 106.521 115.348 106.919 115.565C107.33 115.77 107.808 115.873 108.355 115.873C109.153 115.873 109.847 115.713 110.44 115.394C111.032 115.064 111.494 114.665 111.824 114.198C112.155 113.731 112.331 113.286 112.354 112.865L113.653 114.813C113.493 115.28 113.254 115.776 112.935 116.3C112.616 116.824 112.206 117.314 111.705 117.77C111.203 118.225 110.599 118.601 109.893 118.897C109.187 119.194 108.366 119.342 107.432 119.342C106.236 119.342 105.165 119.103 104.219 118.624C103.274 118.146 102.527 117.49 101.98 116.659C101.434 115.827 101.16 114.881 101.16 113.822C101.16 112.842 101.342 111.976 101.707 111.224C102.072 110.472 102.613 109.84 103.331 109.327C104.048 108.803 104.937 108.41 105.997 108.148C107.068 107.875 108.292 107.738 109.671 107.738H112.713ZM120.427 92.75H124.956V114.916L124.511 119H120.427V92.75ZM136.85 109.566V109.925C136.85 111.304 136.696 112.569 136.389 113.719C136.092 114.87 135.642 115.867 135.039 116.71C134.435 117.542 133.683 118.191 132.783 118.658C131.894 119.114 130.852 119.342 129.655 119.342C128.516 119.342 127.525 119.12 126.682 118.675C125.85 118.231 125.149 117.604 124.58 116.795C124.01 115.975 123.554 115.012 123.212 113.907C122.871 112.791 122.614 111.572 122.443 110.25V109.276C122.614 107.943 122.871 106.724 123.212 105.619C123.554 104.514 124.01 103.551 124.58 102.73C125.149 101.91 125.85 101.278 126.682 100.833C127.513 100.389 128.493 100.167 129.621 100.167C130.829 100.167 131.883 100.401 132.783 100.868C133.694 101.323 134.446 101.973 135.039 102.816C135.642 103.648 136.092 104.639 136.389 105.79C136.696 106.929 136.85 108.188 136.85 109.566ZM132.321 109.925V109.566C132.321 108.78 132.259 108.04 132.133 107.345C132.008 106.638 131.803 106.017 131.518 105.482C131.233 104.946 130.846 104.525 130.356 104.217C129.866 103.91 129.251 103.756 128.51 103.756C127.804 103.756 127.2 103.875 126.699 104.115C126.209 104.354 125.799 104.684 125.468 105.106C125.149 105.528 124.899 106.023 124.716 106.593C124.545 107.162 124.431 107.778 124.375 108.438V111.104C124.454 111.982 124.642 112.774 124.938 113.48C125.235 114.175 125.673 114.728 126.254 115.138C126.847 115.548 127.61 115.753 128.544 115.753C129.274 115.753 129.883 115.611 130.373 115.326C130.863 115.029 131.25 114.619 131.535 114.095C131.82 113.56 132.019 112.939 132.133 112.232C132.259 111.526 132.321 110.757 132.321 109.925ZM150.067 115.069V106.542C150.067 105.915 149.959 105.374 149.742 104.918C149.526 104.462 149.195 104.109 148.751 103.858C148.307 103.608 147.743 103.482 147.059 103.482C146.455 103.482 145.925 103.585 145.47 103.79C145.025 103.995 144.684 104.286 144.444 104.662C144.205 105.026 144.085 105.448 144.085 105.926H139.557C139.557 105.163 139.739 104.439 140.104 103.756C140.468 103.061 140.986 102.446 141.659 101.91C142.342 101.363 143.157 100.936 144.103 100.628C145.06 100.321 146.131 100.167 147.315 100.167C148.717 100.167 149.964 100.406 151.058 100.885C152.163 101.352 153.029 102.058 153.656 103.004C154.294 103.95 154.613 105.14 154.613 106.576V114.642C154.613 115.565 154.67 116.357 154.784 117.018C154.909 117.667 155.091 118.231 155.331 118.709V119H150.733C150.517 118.533 150.352 117.94 150.238 117.223C150.124 116.493 150.067 115.776 150.067 115.069ZM150.699 107.738L150.733 110.421H147.879C147.173 110.421 146.552 110.495 146.017 110.643C145.481 110.78 145.042 110.985 144.701 111.258C144.359 111.52 144.103 111.839 143.932 112.215C143.761 112.58 143.675 112.996 143.675 113.463C143.675 113.919 143.778 114.329 143.983 114.693C144.199 115.058 144.507 115.348 144.906 115.565C145.316 115.77 145.794 115.873 146.341 115.873C147.139 115.873 147.834 115.713 148.426 115.394C149.019 115.064 149.48 114.665 149.811 114.198C150.141 113.731 150.318 113.286 150.34 112.865L151.639 114.813C151.48 115.28 151.24 115.776 150.921 116.3C150.602 116.824 150.192 117.314 149.691 117.77C149.19 118.225 148.586 118.601 147.879 118.897C147.173 119.194 146.353 119.342 145.418 119.342C144.222 119.342 143.151 119.103 142.206 118.624C141.26 118.146 140.514 117.49 139.967 116.659C139.42 115.827 139.146 114.881 139.146 113.822C139.146 112.842 139.329 111.976 139.693 111.224C140.058 110.472 140.599 109.84 141.317 109.327C142.035 108.803 142.923 108.41 143.983 108.148C145.054 107.875 146.279 107.738 147.657 107.738H150.699ZM168.599 113.941C168.599 113.554 168.496 113.207 168.291 112.899C168.086 112.591 167.699 112.312 167.129 112.062C166.571 111.799 165.75 111.555 164.668 111.327C163.711 111.122 162.828 110.865 162.019 110.558C161.21 110.25 160.515 109.88 159.934 109.447C159.353 109.002 158.897 108.484 158.567 107.892C158.248 107.288 158.088 106.593 158.088 105.807C158.088 105.043 158.254 104.326 158.584 103.653C158.914 102.97 159.393 102.372 160.02 101.859C160.646 101.335 161.41 100.925 162.31 100.628C163.21 100.321 164.224 100.167 165.352 100.167C166.924 100.167 168.274 100.423 169.402 100.936C170.541 101.449 171.413 102.155 172.017 103.055C172.62 103.944 172.922 104.946 172.922 106.063H168.411C168.411 105.573 168.297 105.129 168.069 104.73C167.852 104.331 167.516 104.012 167.061 103.773C166.605 103.522 166.029 103.397 165.334 103.397C164.708 103.397 164.178 103.5 163.745 103.705C163.324 103.91 163.005 104.177 162.788 104.508C162.572 104.838 162.463 105.203 162.463 105.602C162.463 105.898 162.52 106.166 162.634 106.405C162.76 106.633 162.959 106.843 163.232 107.037C163.506 107.231 163.876 107.407 164.343 107.567C164.822 107.726 165.409 107.88 166.104 108.028C167.482 108.302 168.684 108.666 169.709 109.122C170.746 109.566 171.555 110.159 172.136 110.899C172.717 111.64 173.008 112.586 173.008 113.736C173.008 114.557 172.831 115.309 172.478 115.992C172.125 116.664 171.612 117.251 170.94 117.752C170.268 118.254 169.465 118.647 168.53 118.932C167.596 119.205 166.542 119.342 165.369 119.342C163.671 119.342 162.236 119.04 161.062 118.436C159.889 117.821 159 117.046 158.396 116.112C157.792 115.166 157.49 114.186 157.49 113.172H161.814C161.848 113.89 162.042 114.465 162.395 114.898C162.748 115.331 163.193 115.645 163.728 115.838C164.275 116.021 164.85 116.112 165.454 116.112C166.138 116.112 166.713 116.021 167.18 115.838C167.647 115.645 168 115.388 168.24 115.069C168.479 114.739 168.599 114.363 168.599 113.941ZM184.499 119.342C183.097 119.342 181.838 119.114 180.722 118.658C179.605 118.202 178.654 117.57 177.868 116.761C177.093 115.941 176.495 114.99 176.073 113.907C175.663 112.813 175.458 111.64 175.458 110.387V109.703C175.458 108.279 175.663 106.986 176.073 105.824C176.483 104.65 177.064 103.642 177.816 102.799C178.568 101.956 179.468 101.306 180.517 100.851C181.565 100.395 182.721 100.167 183.986 100.167C185.296 100.167 186.452 100.389 187.455 100.833C188.458 101.266 189.295 101.882 189.967 102.679C190.639 103.477 191.146 104.434 191.488 105.55C191.83 106.655 192.001 107.88 192.001 109.225V111.122H177.509V108.011H187.558V107.669C187.535 106.952 187.398 106.297 187.147 105.704C186.897 105.1 186.509 104.622 185.985 104.269C185.461 103.904 184.783 103.722 183.952 103.722C183.279 103.722 182.693 103.87 182.191 104.166C181.701 104.451 181.291 104.861 180.961 105.396C180.642 105.921 180.403 106.547 180.243 107.276C180.084 108.006 180.004 108.814 180.004 109.703V110.387C180.004 111.161 180.106 111.879 180.312 112.54C180.528 113.201 180.841 113.776 181.251 114.266C181.673 114.745 182.174 115.121 182.755 115.394C183.348 115.656 184.02 115.787 184.772 115.787C185.718 115.787 186.572 115.605 187.335 115.24C188.11 114.864 188.782 114.312 189.352 113.583L191.625 115.941C191.238 116.511 190.714 117.057 190.053 117.582C189.403 118.106 188.617 118.533 187.694 118.863C186.771 119.182 185.706 119.342 184.499 119.342ZM204.944 113.941C204.944 113.554 204.842 113.207 204.637 112.899C204.432 112.591 204.044 112.312 203.475 112.062C202.916 111.799 202.096 111.555 201.014 111.327C200.057 111.122 199.174 110.865 198.365 110.558C197.556 110.25 196.861 109.88 196.28 109.447C195.699 109.002 195.243 108.484 194.913 107.892C194.594 107.288 194.434 106.593 194.434 105.807C194.434 105.043 194.599 104.326 194.93 103.653C195.26 102.97 195.739 102.372 196.365 101.859C196.992 101.335 197.755 100.925 198.655 100.628C199.555 100.321 200.569 100.167 201.697 100.167C203.27 100.167 204.62 100.423 205.748 100.936C206.887 101.449 207.758 102.155 208.362 103.055C208.966 103.944 209.268 104.946 209.268 106.063H204.756C204.756 105.573 204.642 105.129 204.415 104.73C204.198 104.331 203.862 104.012 203.406 103.773C202.951 103.522 202.375 103.397 201.68 103.397C201.054 103.397 200.524 103.5 200.091 103.705C199.669 103.91 199.35 104.177 199.134 104.508C198.917 104.838 198.809 105.203 198.809 105.602C198.809 105.898 198.866 106.166 198.98 106.405C199.105 106.633 199.305 106.843 199.578 107.037C199.852 107.231 200.222 107.407 200.689 107.567C201.167 107.726 201.754 107.88 202.449 108.028C203.828 108.302 205.03 108.666 206.055 109.122C207.092 109.566 207.901 110.159 208.482 110.899C209.063 111.64 209.354 112.586 209.354 113.736C209.354 114.557 209.177 115.309 208.824 115.992C208.471 116.664 207.958 117.251 207.286 117.752C206.613 118.254 205.81 118.647 204.876 118.932C203.942 119.205 202.888 119.342 201.714 119.342C200.017 119.342 198.581 119.04 197.408 118.436C196.234 117.821 195.346 117.046 194.742 116.112C194.138 115.166 193.836 114.186 193.836 113.172H198.16C198.194 113.89 198.388 114.465 198.741 114.898C199.094 115.331 199.538 115.645 200.074 115.838C200.621 116.021 201.196 116.112 201.8 116.112C202.483 116.112 203.059 116.021 203.526 115.838C203.993 115.645 204.346 115.388 204.585 115.069C204.825 114.739 204.944 114.363 204.944 113.941Z" fill="#EDD5B1"/>
<path d="M96.3311 161.203H97.2451L102.141 172.734L107.054 161.203H107.959L102.483 174H101.798L96.3311 161.203ZM96.0498 161.203H96.8584L96.9375 168.226V174H96.0498V161.203ZM107.44 161.203H108.249V174H107.361V168.226L107.44 161.203ZM110.728 169.403V169.087C110.728 168.396 110.827 167.76 111.026 167.18C111.226 166.594 111.51 166.087 111.879 165.659C112.248 165.231 112.69 164.9 113.206 164.666C113.728 164.432 114.305 164.314 114.938 164.314C115.576 164.314 116.153 164.432 116.669 164.666C117.19 164.9 117.636 165.231 118.005 165.659C118.38 166.087 118.667 166.594 118.866 167.18C119.065 167.76 119.165 168.396 119.165 169.087V169.403C119.165 170.095 119.065 170.733 118.866 171.319C118.667 171.899 118.38 172.403 118.005 172.831C117.636 173.259 117.193 173.59 116.678 173.824C116.162 174.059 115.588 174.176 114.955 174.176C114.316 174.176 113.736 174.059 113.215 173.824C112.699 173.59 112.254 173.259 111.879 172.831C111.51 172.403 111.226 171.899 111.026 171.319C110.827 170.733 110.728 170.095 110.728 169.403ZM111.589 169.087V169.403C111.589 169.937 111.662 170.446 111.809 170.933C111.961 171.413 112.178 171.841 112.459 172.216C112.746 172.585 113.098 172.878 113.514 173.095C113.936 173.306 114.416 173.411 114.955 173.411C115.488 173.411 115.96 173.306 116.37 173.095C116.786 172.878 117.135 172.585 117.416 172.216C117.703 171.841 117.92 171.413 118.066 170.933C118.219 170.446 118.295 169.937 118.295 169.403V169.087C118.295 168.565 118.219 168.064 118.066 167.584C117.92 167.104 117.703 166.676 117.416 166.301C117.129 165.926 116.777 165.63 116.361 165.413C115.945 165.19 115.471 165.079 114.938 165.079C114.404 165.079 113.93 165.19 113.514 165.413C113.098 165.63 112.746 165.926 112.459 166.301C112.172 166.676 111.955 167.104 111.809 167.584C111.662 168.064 111.589 168.565 111.589 169.087ZM122.25 166.521V174H121.38V164.49H122.224L122.25 166.521ZM122.065 168.586L121.67 168.243C121.711 167.716 121.828 167.215 122.021 166.74C122.215 166.266 122.476 165.847 122.804 165.483C123.132 165.12 123.519 164.836 123.964 164.631C124.409 164.42 124.898 164.314 125.432 164.314C125.906 164.314 126.331 164.379 126.706 164.508C127.081 164.637 127.397 164.842 127.655 165.123C127.919 165.404 128.118 165.768 128.253 166.213C128.394 166.652 128.464 167.188 128.464 167.821V174H127.594V167.812C127.594 167.109 127.494 166.562 127.295 166.169C127.102 165.776 126.829 165.498 126.478 165.334C126.132 165.17 125.722 165.088 125.247 165.088C124.714 165.088 124.251 165.205 123.858 165.439C123.466 165.674 123.138 165.973 122.874 166.336C122.616 166.699 122.42 167.083 122.285 167.487C122.15 167.886 122.077 168.252 122.065 168.586ZM137.552 164.49H138.369V173.842C138.369 174.662 138.217 175.368 137.912 175.96C137.607 176.558 137.174 177.015 136.611 177.331C136.055 177.647 135.396 177.806 134.634 177.806C134.218 177.806 133.808 177.744 133.403 177.621C132.999 177.498 132.621 177.313 132.27 177.067C131.924 176.827 131.628 176.534 131.382 176.188L131.892 175.652C132.272 176.121 132.683 176.47 133.122 176.698C133.562 176.927 134.048 177.041 134.581 177.041C135.208 177.041 135.738 176.912 136.172 176.654C136.605 176.402 136.934 176.039 137.156 175.564C137.385 175.09 137.499 174.524 137.499 173.868V166.582L137.552 164.49ZM130.837 169.342V169.157C130.837 168.413 130.919 167.745 131.083 167.153C131.247 166.556 131.484 166.046 131.795 165.624C132.111 165.202 132.495 164.88 132.946 164.657C133.397 164.429 133.907 164.314 134.476 164.314C135.021 164.314 135.504 164.402 135.926 164.578C136.348 164.754 136.711 165.003 137.016 165.325C137.326 165.647 137.578 166.028 137.771 166.468C137.965 166.907 138.108 167.394 138.202 167.927V170.757C138.126 171.243 137.994 171.694 137.807 172.11C137.619 172.526 137.37 172.89 137.06 173.2C136.749 173.511 136.377 173.751 135.943 173.921C135.516 174.091 135.021 174.176 134.458 174.176C133.896 174.176 133.389 174.059 132.938 173.824C132.492 173.59 132.111 173.259 131.795 172.831C131.484 172.397 131.247 171.888 131.083 171.302C130.919 170.71 130.837 170.057 130.837 169.342ZM131.707 169.157V169.342C131.707 169.916 131.766 170.452 131.883 170.95C132 171.442 132.176 171.87 132.41 172.233C132.65 172.597 132.949 172.881 133.307 173.086C133.67 173.291 134.098 173.394 134.59 173.394C135.211 173.394 135.735 173.279 136.163 173.051C136.591 172.816 136.931 172.506 137.183 172.119C137.435 171.732 137.613 171.308 137.719 170.845V167.918C137.654 167.613 137.555 167.297 137.42 166.969C137.291 166.641 137.106 166.336 136.866 166.055C136.632 165.768 136.33 165.536 135.961 165.36C135.592 165.185 135.141 165.097 134.607 165.097C134.109 165.097 133.679 165.199 133.315 165.404C132.952 165.609 132.65 165.896 132.41 166.266C132.176 166.629 132 167.057 131.883 167.549C131.766 168.041 131.707 168.577 131.707 169.157ZM140.593 169.403V169.087C140.593 168.396 140.692 167.76 140.892 167.18C141.091 166.594 141.375 166.087 141.744 165.659C142.113 165.231 142.556 164.9 143.071 164.666C143.593 164.432 144.17 164.314 144.803 164.314C145.441 164.314 146.019 164.432 146.534 164.666C147.056 164.9 147.501 165.231 147.87 165.659C148.245 166.087 148.532 166.594 148.731 167.18C148.931 167.76 149.03 168.396 149.03 169.087V169.403C149.03 170.095 148.931 170.733 148.731 171.319C148.532 171.899 148.245 172.403 147.87 172.831C147.501 173.259 147.059 173.59 146.543 173.824C146.027 174.059 145.453 174.176 144.82 174.176C144.182 174.176 143.602 174.059 143.08 173.824C142.564 173.59 142.119 173.259 141.744 172.831C141.375 172.403 141.091 171.899 140.892 171.319C140.692 170.733 140.593 170.095 140.593 169.403ZM141.454 169.087V169.403C141.454 169.937 141.527 170.446 141.674 170.933C141.826 171.413 142.043 171.841 142.324 172.216C142.611 172.585 142.963 172.878 143.379 173.095C143.801 173.306 144.281 173.411 144.82 173.411C145.354 173.411 145.825 173.306 146.235 173.095C146.651 172.878 147 172.585 147.281 172.216C147.568 171.841 147.785 171.413 147.932 170.933C148.084 170.446 148.16 169.937 148.16 169.403V169.087C148.16 168.565 148.084 168.064 147.932 167.584C147.785 167.104 147.568 166.676 147.281 166.301C146.994 165.926 146.643 165.63 146.227 165.413C145.811 165.19 145.336 165.079 144.803 165.079C144.27 165.079 143.795 165.19 143.379 165.413C142.963 165.63 142.611 165.926 142.324 166.301C142.037 166.676 141.82 167.104 141.674 167.584C141.527 168.064 141.454 168.565 141.454 169.087ZM155.007 174H152.045L152.062 173.218H155.007C155.927 173.218 156.729 173.007 157.415 172.585C158.101 172.163 158.634 171.58 159.015 170.836C159.396 170.092 159.586 169.23 159.586 168.252V166.934C159.586 166.195 159.475 165.524 159.252 164.921C159.035 164.312 158.725 163.79 158.32 163.356C157.922 162.917 157.444 162.58 156.888 162.346C156.337 162.105 155.728 161.985 155.06 161.985H151.992V161.203H155.06C155.845 161.203 156.565 161.341 157.222 161.616C157.884 161.886 158.458 162.275 158.944 162.785C159.431 163.289 159.806 163.896 160.069 164.604C160.333 165.308 160.465 166.093 160.465 166.96V168.252C160.465 169.113 160.333 169.898 160.069 170.607C159.806 171.311 159.428 171.917 158.936 172.427C158.449 172.931 157.872 173.32 157.204 173.596C156.542 173.865 155.81 174 155.007 174ZM152.388 161.203V174H151.491V161.203H152.388ZM167.654 167.795H163.928L163.91 167.021H167.074C167.748 167.021 168.319 166.928 168.788 166.74C169.257 166.553 169.611 166.271 169.852 165.896C170.098 165.521 170.221 165.056 170.221 164.499C170.221 163.931 170.098 163.462 169.852 163.093C169.611 162.724 169.248 162.448 168.762 162.267C168.275 162.079 167.666 161.985 166.934 161.985H164.183V174H163.286V161.203H166.934C167.584 161.203 168.167 161.268 168.683 161.396C169.198 161.525 169.638 161.728 170.001 162.003C170.364 162.272 170.64 162.618 170.827 163.04C171.021 163.456 171.117 163.951 171.117 164.525C171.117 165.053 171.006 165.527 170.783 165.949C170.566 166.371 170.253 166.717 169.843 166.986C169.433 167.25 168.938 167.414 168.357 167.479L167.654 167.795ZM167.566 174H163.69L164.112 173.218H167.566C168.229 173.218 168.794 173.106 169.263 172.884C169.731 172.661 170.092 172.342 170.344 171.926C170.602 171.51 170.73 171.015 170.73 170.44C170.73 169.954 170.619 169.512 170.396 169.113C170.174 168.709 169.834 168.39 169.377 168.155C168.92 167.915 168.346 167.795 167.654 167.795H165.466L165.483 167.021H168.604L168.753 167.294C169.315 167.353 169.811 167.531 170.238 167.83C170.672 168.123 171.009 168.495 171.249 168.946C171.495 169.397 171.618 169.89 171.618 170.423C171.618 171.19 171.448 171.841 171.108 172.374C170.769 172.907 170.294 173.312 169.685 173.587C169.081 173.862 168.375 174 167.566 174ZM92.8857 229.727H89.1592V228.944H92.8857C93.6826 228.944 94.3271 228.815 94.8193 228.558C95.3174 228.294 95.6807 227.942 95.9092 227.503C96.1377 227.058 96.252 226.56 96.252 226.009C96.252 225.464 96.1377 224.963 95.9092 224.506C95.6807 224.049 95.3174 223.683 94.8193 223.407C94.3271 223.126 93.6826 222.985 92.8857 222.985H89.5371V235H88.6406V222.203H92.8857C93.8174 222.203 94.5967 222.364 95.2236 222.687C95.8564 223.003 96.334 223.445 96.6562 224.014C96.9785 224.582 97.1396 225.241 97.1396 225.991C97.1396 226.771 96.9785 227.438 96.6562 227.995C96.3398 228.552 95.8652 228.979 95.2324 229.278C94.5996 229.577 93.8174 229.727 92.8857 229.727ZM98.6602 230.403V230.087C98.6602 229.396 98.7598 228.76 98.959 228.18C99.1582 227.594 99.4424 227.087 99.8115 226.659C100.181 226.231 100.623 225.9 101.139 225.666C101.66 225.432 102.237 225.314 102.87 225.314C103.509 225.314 104.086 225.432 104.602 225.666C105.123 225.9 105.568 226.231 105.938 226.659C106.312 227.087 106.6 227.594 106.799 228.18C106.998 228.76 107.098 229.396 107.098 230.087V230.403C107.098 231.095 106.998 231.733 106.799 232.319C106.6 232.899 106.312 233.403 105.938 233.831C105.568 234.259 105.126 234.59 104.61 234.824C104.095 235.059 103.521 235.176 102.888 235.176C102.249 235.176 101.669 235.059 101.147 234.824C100.632 234.59 100.187 234.259 99.8115 233.831C99.4424 233.403 99.1582 232.899 98.959 232.319C98.7598 231.733 98.6602 231.095 98.6602 230.403ZM99.5215 230.087V230.403C99.5215 230.937 99.5947 231.446 99.7412 231.933C99.8936 232.413 100.11 232.841 100.392 233.216C100.679 233.585 101.03 233.878 101.446 234.095C101.868 234.306 102.349 234.411 102.888 234.411C103.421 234.411 103.893 234.306 104.303 234.095C104.719 233.878 105.067 233.585 105.349 233.216C105.636 232.841 105.853 232.413 105.999 231.933C106.151 231.446 106.228 230.937 106.228 230.403V230.087C106.228 229.565 106.151 229.064 105.999 228.584C105.853 228.104 105.636 227.676 105.349 227.301C105.062 226.926 104.71 226.63 104.294 226.413C103.878 226.19 103.403 226.079 102.87 226.079C102.337 226.079 101.862 226.19 101.446 226.413C101.03 226.63 100.679 226.926 100.392 227.301C100.104 227.676 99.8877 228.104 99.7412 228.584C99.5947 229.064 99.5215 229.565 99.5215 230.087ZM115.069 232.601C115.069 232.337 114.999 232.073 114.858 231.81C114.718 231.54 114.457 231.294 114.076 231.071C113.695 230.843 113.139 230.652 112.406 230.5C111.879 230.383 111.41 230.254 111 230.113C110.59 229.967 110.244 229.791 109.963 229.586C109.688 229.381 109.477 229.138 109.33 228.856C109.189 228.569 109.119 228.232 109.119 227.846C109.119 227.494 109.195 227.166 109.348 226.861C109.5 226.557 109.72 226.29 110.007 226.062C110.294 225.827 110.64 225.646 111.044 225.517C111.454 225.382 111.914 225.314 112.424 225.314C113.15 225.314 113.771 225.438 114.287 225.684C114.803 225.924 115.198 226.255 115.474 226.677C115.755 227.099 115.896 227.579 115.896 228.118H115.025C115.025 227.767 114.923 227.438 114.718 227.134C114.519 226.823 114.226 226.571 113.839 226.378C113.452 226.179 112.98 226.079 112.424 226.079C111.844 226.079 111.375 226.167 111.018 226.343C110.66 226.519 110.399 226.738 110.235 227.002C110.071 227.266 109.989 227.538 109.989 227.819C109.989 228.042 110.021 228.244 110.086 228.426C110.156 228.607 110.285 228.777 110.473 228.936C110.66 229.094 110.927 229.243 111.272 229.384C111.624 229.519 112.078 229.65 112.635 229.779C113.402 229.949 114.026 230.157 114.507 230.403C114.993 230.644 115.351 230.939 115.579 231.291C115.813 231.643 115.931 232.067 115.931 232.565C115.931 232.952 115.849 233.307 115.685 233.629C115.526 233.945 115.295 234.221 114.99 234.455C114.691 234.684 114.328 234.862 113.9 234.991C113.479 235.114 113.007 235.176 112.485 235.176C111.688 235.176 111.018 235.047 110.473 234.789C109.928 234.531 109.515 234.191 109.233 233.77C108.952 233.348 108.812 232.894 108.812 232.407H109.682C109.717 232.917 109.878 233.318 110.165 233.611C110.458 233.904 110.812 234.112 111.229 234.235C111.65 234.353 112.069 234.411 112.485 234.411C113.048 234.411 113.52 234.326 113.9 234.156C114.287 233.98 114.577 233.755 114.771 233.479C114.97 233.204 115.069 232.911 115.069 232.601ZM121.872 225.49V226.237H117.214V225.49H121.872ZM118.963 223.012H119.842V232.697C119.842 233.172 119.9 233.532 120.018 233.778C120.141 234.019 120.302 234.18 120.501 234.262C120.7 234.344 120.914 234.385 121.143 234.385C121.307 234.385 121.459 234.376 121.6 234.358C121.746 234.341 121.887 234.32 122.021 234.297L122.074 235.044C121.945 235.085 121.778 235.117 121.573 235.141C121.368 235.164 121.175 235.176 120.993 235.176C120.589 235.176 120.234 235.103 119.93 234.956C119.625 234.804 119.388 234.549 119.218 234.191C119.048 233.828 118.963 233.33 118.963 232.697V223.012ZM130.441 225.49H131.259V234.842C131.259 235.662 131.106 236.368 130.802 236.96C130.497 237.558 130.063 238.015 129.501 238.331C128.944 238.647 128.285 238.806 127.523 238.806C127.107 238.806 126.697 238.744 126.293 238.621C125.889 238.498 125.511 238.313 125.159 238.067C124.813 237.827 124.518 237.534 124.271 237.188L124.781 236.652C125.162 237.121 125.572 237.47 126.012 237.698C126.451 237.927 126.938 238.041 127.471 238.041C128.098 238.041 128.628 237.912 129.062 237.654C129.495 237.402 129.823 237.039 130.046 236.564C130.274 236.09 130.389 235.524 130.389 234.868V227.582L130.441 225.49ZM123.727 230.342V230.157C123.727 229.413 123.809 228.745 123.973 228.153C124.137 227.556 124.374 227.046 124.685 226.624C125.001 226.202 125.385 225.88 125.836 225.657C126.287 225.429 126.797 225.314 127.365 225.314C127.91 225.314 128.394 225.402 128.815 225.578C129.237 225.754 129.601 226.003 129.905 226.325C130.216 226.647 130.468 227.028 130.661 227.468C130.854 227.907 130.998 228.394 131.092 228.927V231.757C131.016 232.243 130.884 232.694 130.696 233.11C130.509 233.526 130.26 233.89 129.949 234.2C129.639 234.511 129.267 234.751 128.833 234.921C128.405 235.091 127.91 235.176 127.348 235.176C126.785 235.176 126.278 235.059 125.827 234.824C125.382 234.59 125.001 234.259 124.685 233.831C124.374 233.397 124.137 232.888 123.973 232.302C123.809 231.71 123.727 231.057 123.727 230.342ZM124.597 230.157V230.342C124.597 230.916 124.655 231.452 124.772 231.95C124.89 232.442 125.065 232.87 125.3 233.233C125.54 233.597 125.839 233.881 126.196 234.086C126.56 234.291 126.987 234.394 127.479 234.394C128.101 234.394 128.625 234.279 129.053 234.051C129.48 233.816 129.82 233.506 130.072 233.119C130.324 232.732 130.503 232.308 130.608 231.845V228.918C130.544 228.613 130.444 228.297 130.31 227.969C130.181 227.641 129.996 227.336 129.756 227.055C129.521 226.768 129.22 226.536 128.851 226.36C128.481 226.185 128.03 226.097 127.497 226.097C126.999 226.097 126.568 226.199 126.205 226.404C125.842 226.609 125.54 226.896 125.3 227.266C125.065 227.629 124.89 228.057 124.772 228.549C124.655 229.041 124.597 229.577 124.597 230.157ZM134.968 227.09V235H134.098V225.49H134.95L134.968 227.09ZM138.466 225.42L138.431 226.211C138.319 226.193 138.208 226.182 138.097 226.176C137.991 226.164 137.877 226.158 137.754 226.158C137.273 226.158 136.852 226.249 136.488 226.431C136.125 226.612 135.82 226.864 135.574 227.187C135.334 227.509 135.149 227.884 135.021 228.312C134.897 228.733 134.83 229.19 134.818 229.683L134.458 229.788C134.458 229.149 134.522 228.561 134.651 228.021C134.786 227.477 134.991 227.002 135.267 226.598C135.542 226.193 135.888 225.88 136.304 225.657C136.72 225.429 137.212 225.314 137.78 225.314C137.915 225.314 138.044 225.326 138.167 225.35C138.296 225.367 138.396 225.391 138.466 225.42ZM143.572 235.176C142.963 235.176 142.4 235.062 141.885 234.833C141.369 234.604 140.921 234.282 140.54 233.866C140.159 233.444 139.863 232.949 139.652 232.381C139.441 231.807 139.336 231.177 139.336 230.491V230.113C139.336 229.387 139.441 228.73 139.652 228.145C139.869 227.559 140.165 227.055 140.54 226.633C140.921 226.205 141.354 225.88 141.841 225.657C142.327 225.429 142.843 225.314 143.388 225.314C143.962 225.314 144.478 225.42 144.935 225.631C145.397 225.836 145.79 226.129 146.112 226.51C146.435 226.891 146.678 227.342 146.842 227.863C147.012 228.379 147.097 228.95 147.097 229.577V230.192H139.872V229.428H146.227V229.313C146.221 228.745 146.106 228.218 145.884 227.731C145.667 227.239 145.348 226.841 144.926 226.536C144.51 226.231 143.997 226.079 143.388 226.079C142.913 226.079 142.479 226.182 142.087 226.387C141.7 226.586 141.366 226.867 141.085 227.23C140.804 227.588 140.587 228.013 140.435 228.505C140.282 228.991 140.206 229.527 140.206 230.113V230.491C140.206 231.036 140.288 231.546 140.452 232.021C140.622 232.495 140.856 232.911 141.155 233.269C141.46 233.626 141.82 233.907 142.236 234.112C142.652 234.317 143.106 234.42 143.599 234.42C144.155 234.42 144.656 234.32 145.102 234.121C145.547 233.916 145.951 233.579 146.314 233.11L146.868 233.532C146.663 233.837 146.408 234.115 146.104 234.367C145.799 234.613 145.438 234.81 145.022 234.956C144.606 235.103 144.123 235.176 143.572 235.176ZM156.826 231.88C156.826 231.511 156.762 231.183 156.633 230.896C156.51 230.608 156.308 230.351 156.026 230.122C155.745 229.888 155.373 229.674 154.91 229.48C154.447 229.281 153.873 229.085 153.188 228.892C152.543 228.716 151.96 228.522 151.438 228.312C150.923 228.095 150.483 227.849 150.12 227.573C149.757 227.298 149.479 226.976 149.285 226.606C149.092 226.231 148.995 225.789 148.995 225.279C148.995 224.787 149.101 224.342 149.312 223.943C149.522 223.545 149.818 223.205 150.199 222.924C150.586 222.637 151.04 222.417 151.562 222.265C152.083 222.106 152.654 222.027 153.275 222.027C154.148 222.027 154.91 222.194 155.561 222.528C156.211 222.862 156.715 223.316 157.072 223.891C157.436 224.465 157.617 225.112 157.617 225.833H156.729C156.729 225.253 156.589 224.737 156.308 224.286C156.032 223.829 155.637 223.469 155.121 223.205C154.605 222.941 153.99 222.81 153.275 222.81C152.537 222.81 151.916 222.924 151.412 223.152C150.908 223.375 150.527 223.671 150.27 224.04C150.012 224.409 149.883 224.816 149.883 225.262C149.883 225.578 149.941 225.871 150.059 226.141C150.176 226.404 150.369 226.65 150.639 226.879C150.914 227.107 151.28 227.321 151.737 227.521C152.2 227.72 152.774 227.91 153.46 228.092C154.122 228.268 154.717 228.467 155.244 228.689C155.771 228.906 156.22 229.161 156.589 229.454C156.958 229.747 157.239 230.09 157.433 230.482C157.626 230.875 157.723 231.335 157.723 231.862C157.723 232.384 157.611 232.85 157.389 233.26C157.172 233.67 156.864 234.019 156.466 234.306C156.067 234.587 155.602 234.804 155.068 234.956C154.541 235.103 153.964 235.176 153.337 235.176C152.78 235.176 152.221 235.105 151.658 234.965C151.096 234.824 150.583 234.602 150.12 234.297C149.657 233.992 149.285 233.6 149.004 233.119C148.723 232.633 148.582 232.044 148.582 231.353H149.47C149.47 231.927 149.584 232.407 149.812 232.794C150.047 233.181 150.354 233.491 150.735 233.726C151.116 233.96 151.532 234.13 151.983 234.235C152.44 234.341 152.892 234.394 153.337 234.394C154.034 234.394 154.644 234.288 155.165 234.077C155.687 233.866 156.094 233.573 156.387 233.198C156.68 232.817 156.826 232.378 156.826 231.88ZM166.38 234.139L169.201 236.696L168.586 237.259L165.765 234.728L166.38 234.139ZM169.421 227.828V229.375C169.421 230.248 169.304 231.042 169.069 231.757C168.841 232.472 168.513 233.084 168.085 233.594C167.657 234.104 167.139 234.496 166.529 234.771C165.926 235.041 165.249 235.176 164.499 235.176C163.755 235.176 163.078 235.041 162.469 234.771C161.865 234.496 161.344 234.104 160.904 233.594C160.471 233.084 160.137 232.472 159.902 231.757C159.668 231.042 159.551 230.248 159.551 229.375V227.828C159.551 226.949 159.668 226.155 159.902 225.446C160.137 224.737 160.471 224.128 160.904 223.618C161.338 223.103 161.856 222.71 162.46 222.44C163.063 222.165 163.737 222.027 164.481 222.027C165.231 222.027 165.908 222.165 166.512 222.44C167.121 222.71 167.643 223.103 168.076 223.618C168.51 224.128 168.841 224.737 169.069 225.446C169.304 226.155 169.421 226.949 169.421 227.828ZM168.533 229.375V227.811C168.533 227.061 168.442 226.381 168.261 225.771C168.085 225.156 167.821 224.632 167.47 224.198C167.124 223.759 166.699 223.422 166.195 223.188C165.697 222.953 165.126 222.836 164.481 222.836C163.849 222.836 163.283 222.953 162.785 223.188C162.287 223.422 161.862 223.759 161.511 224.198C161.165 224.632 160.901 225.156 160.72 225.771C160.538 226.381 160.447 227.061 160.447 227.811V229.375C160.447 230.131 160.538 230.816 160.72 231.432C160.907 232.047 161.174 232.574 161.52 233.014C161.871 233.447 162.296 233.784 162.794 234.024C163.298 234.259 163.866 234.376 164.499 234.376C165.144 234.376 165.715 234.259 166.213 234.024C166.711 233.784 167.133 233.447 167.479 233.014C167.824 232.574 168.085 232.047 168.261 231.432C168.442 230.816 168.533 230.131 168.533 229.375ZM179.537 234.218V235H172.822V234.218H179.537ZM173.139 222.203V235H172.242V222.203H173.139ZM102.527 283.203V296H101.631V283.203H102.527ZM108.671 289.127V289.927H102.176V289.127H108.671ZM109.559 283.203V283.985H102.176V283.203H109.559ZM112.556 286.49V296H111.686V286.49H112.556ZM111.483 283.669C111.483 283.493 111.542 283.344 111.659 283.221C111.776 283.092 111.932 283.027 112.125 283.027C112.324 283.027 112.482 283.092 112.6 283.221C112.723 283.344 112.784 283.493 112.784 283.669C112.784 283.845 112.723 283.994 112.6 284.117C112.482 284.24 112.324 284.302 112.125 284.302C111.932 284.302 111.776 284.24 111.659 284.117C111.542 283.994 111.483 283.845 111.483 283.669ZM116.37 288.09V296H115.5V286.49H116.353L116.37 288.09ZM119.868 286.42L119.833 287.211C119.722 287.193 119.61 287.182 119.499 287.176C119.394 287.164 119.279 287.158 119.156 287.158C118.676 287.158 118.254 287.249 117.891 287.431C117.527 287.612 117.223 287.864 116.977 288.187C116.736 288.509 116.552 288.884 116.423 289.312C116.3 289.733 116.232 290.19 116.221 290.683L115.86 290.788C115.86 290.149 115.925 289.561 116.054 289.021C116.188 288.477 116.394 288.002 116.669 287.598C116.944 287.193 117.29 286.88 117.706 286.657C118.122 286.429 118.614 286.314 119.183 286.314C119.317 286.314 119.446 286.326 119.569 286.35C119.698 286.367 119.798 286.391 119.868 286.42ZM124.975 296.176C124.365 296.176 123.803 296.062 123.287 295.833C122.771 295.604 122.323 295.282 121.942 294.866C121.562 294.444 121.266 293.949 121.055 293.381C120.844 292.807 120.738 292.177 120.738 291.491V291.113C120.738 290.387 120.844 289.73 121.055 289.145C121.271 288.559 121.567 288.055 121.942 287.633C122.323 287.205 122.757 286.88 123.243 286.657C123.729 286.429 124.245 286.314 124.79 286.314C125.364 286.314 125.88 286.42 126.337 286.631C126.8 286.836 127.192 287.129 127.515 287.51C127.837 287.891 128.08 288.342 128.244 288.863C128.414 289.379 128.499 289.95 128.499 290.577V291.192H121.274V290.428H127.629V290.313C127.623 289.745 127.509 289.218 127.286 288.731C127.069 288.239 126.75 287.841 126.328 287.536C125.912 287.231 125.399 287.079 124.79 287.079C124.315 287.079 123.882 287.182 123.489 287.387C123.103 287.586 122.769 287.867 122.487 288.23C122.206 288.588 121.989 289.013 121.837 289.505C121.685 289.991 121.608 290.527 121.608 291.113V291.491C121.608 292.036 121.69 292.546 121.854 293.021C122.024 293.495 122.259 293.911 122.558 294.269C122.862 294.626 123.223 294.907 123.639 295.112C124.055 295.317 124.509 295.42 125.001 295.42C125.558 295.42 126.059 295.32 126.504 295.121C126.949 294.916 127.354 294.579 127.717 294.11L128.271 294.532C128.065 294.837 127.811 295.115 127.506 295.367C127.201 295.613 126.841 295.81 126.425 295.956C126.009 296.103 125.525 296.176 124.975 296.176ZM130.591 282.5H131.461V294.154L131.408 296H130.591V282.5ZM138.141 291.157V291.342C138.141 292.057 138.059 292.71 137.895 293.302C137.73 293.888 137.493 294.397 137.183 294.831C136.878 295.259 136.5 295.59 136.049 295.824C135.604 296.059 135.097 296.176 134.528 296.176C133.972 296.176 133.474 296.091 133.034 295.921C132.601 295.751 132.229 295.511 131.918 295.2C131.607 294.89 131.355 294.526 131.162 294.11C130.975 293.694 130.846 293.243 130.775 292.757V289.927C130.863 289.394 131.004 288.907 131.197 288.468C131.396 288.028 131.648 287.647 131.953 287.325C132.264 287.003 132.63 286.754 133.052 286.578C133.479 286.402 133.966 286.314 134.511 286.314C135.085 286.314 135.598 286.429 136.049 286.657C136.5 286.88 136.878 287.202 137.183 287.624C137.493 288.046 137.73 288.556 137.895 289.153C138.059 289.745 138.141 290.413 138.141 291.157ZM137.253 291.342V291.157C137.253 290.577 137.197 290.041 137.086 289.549C136.975 289.057 136.802 288.629 136.567 288.266C136.333 287.896 136.034 287.609 135.671 287.404C135.308 287.199 134.877 287.097 134.379 287.097C133.846 287.097 133.392 287.185 133.017 287.36C132.647 287.536 132.343 287.768 132.103 288.055C131.868 288.336 131.684 288.641 131.549 288.969C131.414 289.297 131.314 289.613 131.25 289.918V292.845C131.35 293.296 131.528 293.715 131.786 294.102C132.044 294.488 132.387 294.802 132.814 295.042C133.248 295.276 133.775 295.394 134.396 295.394C134.889 295.394 135.313 295.291 135.671 295.086C136.034 294.881 136.33 294.597 136.559 294.233C136.793 293.87 136.966 293.442 137.077 292.95C137.194 292.452 137.253 291.916 137.253 291.342ZM146.394 294.269V289.364C146.394 288.89 146.294 288.482 146.095 288.143C145.896 287.797 145.603 287.533 145.216 287.352C144.835 287.164 144.363 287.07 143.801 287.07C143.285 287.07 142.822 287.161 142.412 287.343C142.008 287.524 141.686 287.771 141.445 288.081C141.211 288.392 141.094 288.737 141.094 289.118L140.232 289.101C140.232 288.743 140.317 288.397 140.487 288.063C140.663 287.729 140.909 287.431 141.226 287.167C141.548 286.903 141.929 286.695 142.368 286.543C142.813 286.391 143.303 286.314 143.836 286.314C144.51 286.314 145.102 286.429 145.611 286.657C146.127 286.88 146.531 287.22 146.824 287.677C147.117 288.128 147.264 288.696 147.264 289.382V294.031C147.264 294.359 147.287 294.699 147.334 295.051C147.381 295.402 147.451 295.687 147.545 295.903V296H146.604C146.534 295.783 146.481 295.517 146.446 295.2C146.411 294.878 146.394 294.567 146.394 294.269ZM146.631 290.533L146.648 291.245H144.46C143.892 291.245 143.385 291.298 142.939 291.403C142.5 291.503 142.125 291.649 141.814 291.843C141.51 292.036 141.275 292.271 141.111 292.546C140.947 292.815 140.865 293.12 140.865 293.46C140.865 293.812 140.956 294.134 141.138 294.427C141.319 294.72 141.577 294.954 141.911 295.13C142.251 295.3 142.646 295.385 143.098 295.385C143.707 295.385 144.246 295.276 144.715 295.06C145.189 294.843 145.582 294.553 145.893 294.189C146.203 293.82 146.423 293.407 146.552 292.95L146.93 293.504C146.842 293.803 146.695 294.11 146.49 294.427C146.285 294.737 146.019 295.024 145.69 295.288C145.362 295.552 144.976 295.766 144.53 295.93C144.091 296.094 143.587 296.176 143.019 296.176C142.409 296.176 141.876 296.062 141.419 295.833C140.968 295.599 140.616 295.282 140.364 294.884C140.118 294.479 139.995 294.022 139.995 293.513C139.995 293.062 140.095 292.654 140.294 292.291C140.493 291.922 140.78 291.608 141.155 291.351C141.53 291.087 141.987 290.885 142.526 290.744C143.065 290.604 143.672 290.533 144.346 290.533H146.631ZM155.903 293.601C155.903 293.337 155.833 293.073 155.692 292.81C155.552 292.54 155.291 292.294 154.91 292.071C154.529 291.843 153.973 291.652 153.24 291.5C152.713 291.383 152.244 291.254 151.834 291.113C151.424 290.967 151.078 290.791 150.797 290.586C150.521 290.381 150.311 290.138 150.164 289.856C150.023 289.569 149.953 289.232 149.953 288.846C149.953 288.494 150.029 288.166 150.182 287.861C150.334 287.557 150.554 287.29 150.841 287.062C151.128 286.827 151.474 286.646 151.878 286.517C152.288 286.382 152.748 286.314 153.258 286.314C153.984 286.314 154.605 286.438 155.121 286.684C155.637 286.924 156.032 287.255 156.308 287.677C156.589 288.099 156.729 288.579 156.729 289.118H155.859C155.859 288.767 155.757 288.438 155.552 288.134C155.353 287.823 155.06 287.571 154.673 287.378C154.286 287.179 153.814 287.079 153.258 287.079C152.678 287.079 152.209 287.167 151.852 287.343C151.494 287.519 151.233 287.738 151.069 288.002C150.905 288.266 150.823 288.538 150.823 288.819C150.823 289.042 150.855 289.244 150.92 289.426C150.99 289.607 151.119 289.777 151.307 289.936C151.494 290.094 151.761 290.243 152.106 290.384C152.458 290.519 152.912 290.65 153.469 290.779C154.236 290.949 154.86 291.157 155.341 291.403C155.827 291.644 156.185 291.939 156.413 292.291C156.647 292.643 156.765 293.067 156.765 293.565C156.765 293.952 156.683 294.307 156.519 294.629C156.36 294.945 156.129 295.221 155.824 295.455C155.525 295.684 155.162 295.862 154.734 295.991C154.312 296.114 153.841 296.176 153.319 296.176C152.522 296.176 151.852 296.047 151.307 295.789C150.762 295.531 150.349 295.191 150.067 294.77C149.786 294.348 149.646 293.894 149.646 293.407H150.516C150.551 293.917 150.712 294.318 150.999 294.611C151.292 294.904 151.646 295.112 152.062 295.235C152.484 295.353 152.903 295.411 153.319 295.411C153.882 295.411 154.354 295.326 154.734 295.156C155.121 294.98 155.411 294.755 155.604 294.479C155.804 294.204 155.903 293.911 155.903 293.601ZM162.82 296.176C162.211 296.176 161.648 296.062 161.133 295.833C160.617 295.604 160.169 295.282 159.788 294.866C159.407 294.444 159.111 293.949 158.9 293.381C158.689 292.807 158.584 292.177 158.584 291.491V291.113C158.584 290.387 158.689 289.73 158.9 289.145C159.117 288.559 159.413 288.055 159.788 287.633C160.169 287.205 160.603 286.88 161.089 286.657C161.575 286.429 162.091 286.314 162.636 286.314C163.21 286.314 163.726 286.42 164.183 286.631C164.646 286.836 165.038 287.129 165.36 287.51C165.683 287.891 165.926 288.342 166.09 288.863C166.26 289.379 166.345 289.95 166.345 290.577V291.192H159.12V290.428H165.475V290.313C165.469 289.745 165.354 289.218 165.132 288.731C164.915 288.239 164.596 287.841 164.174 287.536C163.758 287.231 163.245 287.079 162.636 287.079C162.161 287.079 161.728 287.182 161.335 287.387C160.948 287.586 160.614 287.867 160.333 288.23C160.052 288.588 159.835 289.013 159.683 289.505C159.53 289.991 159.454 290.527 159.454 291.113V291.491C159.454 292.036 159.536 292.546 159.7 293.021C159.87 293.495 160.104 293.911 160.403 294.269C160.708 294.626 161.068 294.907 161.484 295.112C161.9 295.317 162.354 295.42 162.847 295.42C163.403 295.42 163.904 295.32 164.35 295.121C164.795 294.916 165.199 294.579 165.562 294.11L166.116 294.532C165.911 294.837 165.656 295.115 165.352 295.367C165.047 295.613 164.687 295.81 164.271 295.956C163.854 296.103 163.371 296.176 162.82 296.176Z" fill="white"/>
<defs>
<radialGradient id="paint0_radial_448_843" cx="0" cy="0" r="1" gradientUnits="userSpaceOnUse" gradientTransform="translate(233.226 135.085) scale(233.226 135.085)">
<stop stop-color="#1A5069"/>
<stop offset="1" stop-color="#0F7BAE" stop-opacity="0"/>
</radialGradient>
<radialGradient id="paint1_radial_448_843" cx="0" cy="0" r="1" gradientUnits="userSpaceOnUse" gradientTransform="translate(233.226 135.085) scale(233.226 135.085)">
<stop stop-color="#1A5069"/>
<stop offset="1" stop-color="#0F7BAE" stop-opacity="0"/>
</radialGradient>
</defs>
</svg>
