<svg width="139" height="139" viewBox="0 0 139 139" fill="none" xmlns="http://www.w3.org/2000/svg">
<path d="M138.461 121.133C137.397 124.025 136.818 126.704 135.065 129.33C132.434 133.272 125.671 138.088 120.789 137.993C116.78 137.917 104.94 130.627 100.752 128.309C82.6329 118.302 65.0034 107.383 47.1175 96.9872C47.8061 101.922 49.5206 107.179 52.5982 111.145C53.3296 112.085 58.0361 116.16 57.528 116.858C56.7301 116.949 55.9892 117.314 55.3148 117.727C45.3792 123.788 33.3397 131.619 23.0004 136.53C18.3223 138.753 16.1519 139 11.2934 136.834C3.50922 133.367 -2.60315 124.054 1.12032 115.595C6.27808 103.878 22.8532 83.6226 23.917 72.1293C25.3751 56.3521 7.66963 37.312 1.2533 22.8599C-4.21317 10.5401 10.106 -4.01652 22.3498 1.28847C26.2585 2.97923 31.2595 6.21826 35.1207 8.3982C53.757 18.9274 71.8947 30.416 90.4217 41.1352C90.0275 36.2719 87.9758 30.568 84.9648 26.7116C84.2619 25.8139 79.7073 21.9955 80.2439 21.2641C91.4476 16.1253 101.849 7.90427 112.891 2.55179C117.056 0.533331 119.155 -0.729987 123.995 0.462091C129.428 1.79665 134.291 6.53647 136.571 11.5517L138.456 16.9992V17.9443C137.592 19.6113 137.179 21.4778 136.348 23.1733C131.119 33.826 114.98 55.3452 113.902 65.5705C113.266 71.6116 114.24 76.0617 116.909 81.3762C123.439 94.3703 133.166 106.476 138.456 120.178V121.123L138.461 121.133ZM68.2994 59.2064C66.6182 59.6148 58.7913 67.5842 58.929 69.2654C59.8931 71.5356 66.8984 79.0728 69.0403 78.8923C71.0303 78.7261 78.3917 71.2839 78.8334 68.8618C78.7099 67.3705 70.9448 59.5673 69.463 59.2064C69.0071 59.0972 68.7506 59.0972 68.2947 59.2064H68.2994Z" fill="white"/>
</svg>
