<svg width="1399" height="261" viewBox="0 0 1399 261" fill="none" xmlns="http://www.w3.org/2000/svg">
<mask id="mask0_335_203" style="mask-type:alpha" maskUnits="userSpaceOnUse" x="0" y="0" width="1345" height="260">
<rect x="-1.00204" y="0.996219" width="252.724" height="1341.64" rx="96" transform="matrix(-0.00204685 0.999998 -0.999993 -0.00377841 1344.91 7.45808)" fill="black" stroke="#136A93" stroke-width="2"/>
</mask>
<g mask="url(#mask0_335_203)">
<rect width="278.585" height="1360.75" rx="47.5" transform="matrix(-0.00204685 0.999998 -0.999993 -0.00377841 1854.06 99.416)" fill="url(#paint0_radial_335_203)" fill-opacity="0.74"/>
<rect width="278.585" height="1360.75" rx="47.5" transform="matrix(-0.00204685 0.999998 -0.999993 -0.00377841 852.874 -83.4805)" fill="url(#paint1_radial_335_203)" fill-opacity="0.74"/>
</g>
<rect x="6.0166" y="2.17383" width="1339.22" height="254.46" rx="96" fill="#D9D9D9" fill-opacity="0.14" stroke="#136A93" stroke-width="2"/>
<mask id="mask1_335_203" style="mask-type:alpha" maskUnits="userSpaceOnUse" x="31" y="19" width="293" height="223">
<rect x="-1.0004" y="0.984908" width="218.68" height="289.443" rx="96" transform="matrix(-0.000512409 1 -0.999886 -0.0150915 323.448 24.092)" fill="black" stroke="#136A93" stroke-width="2"/>
</mask>
<g mask="url(#mask1_335_203)">
<rect width="241.352" height="295.153" rx="47.5" transform="matrix(-0.000512409 1 -0.999886 -0.0150915 433.89 103.493)" fill="url(#paint2_radial_335_203)" fill-opacity="0.74"/>
<rect width="241.352" height="295.153" rx="47.5" transform="matrix(-0.000512409 1 -0.999886 -0.0150915 216.75 -54.959)" fill="url(#paint3_radial_335_203)" fill-opacity="0.74"/>
</g>
<rect x="33.8643" y="19.3809" width="288.887" height="220.184" rx="96" fill="#D9D9D9" fill-opacity="0.14" stroke="#136A93" stroke-width="2"/>
<g clip-path="url(#clip0_335_203)">
<path d="M197.756 54.1798C199.108 55.069 200.797 56.2304 201.064 57.9725C201.528 60.9607 201.443 71.4223 201.085 74.5557C200.788 77.1567 198.765 78.6387 196.273 78.9623C194.996 85.2956 201.528 88.1598 201.652 94.2148L201.849 121.184C202.768 122.823 203.999 121.187 205.331 120.745C208.678 119.635 211.677 119.678 214.916 121.133C217.851 122.454 226.942 131.528 229.226 134.328C231.118 136.651 232.264 139.319 232.564 142.322C236.998 141.348 236.798 147.818 232.564 146.544C232.246 150.149 232.758 154.112 235.782 156.483C237.701 154.973 240.033 154.332 242.232 155.763C243.526 156.607 253.103 166.167 254.052 167.519C255.28 169.27 255.407 171.79 253.906 173.414L224.092 203.444C222.172 205.292 219.534 205.845 217.281 204.194C213.278 201.26 209.3 195.523 205.37 192.226C204.278 190.248 204.488 187.744 206.225 186.234C202.656 181.368 197.189 183.131 192.513 179.995C190.523 178.661 184.798 173.208 183.376 171.3C181.487 168.768 183.664 166.276 186.166 167.61C188.495 168.85 192.046 173.759 194.426 175.673C198.086 178.619 202.55 177.209 206.983 180.657C207.659 181.184 208.824 182.947 209.652 182.732L232.54 159.934C230.924 157.944 229.329 156.259 228.543 153.721C226.954 148.595 229.629 142.401 226.063 137.782C224.268 135.457 216.735 127.929 214.409 126.162C212.129 124.432 208.681 123.891 206.237 125.566L212.36 132.136C213.297 134.28 210.631 135.916 208.784 134.788L201.689 127.829V144.581C201.689 144.745 201.176 146.03 201.046 146.354C199.387 150.452 194.866 152.23 190.793 150.467V156.655C190.793 157.109 189.844 159.383 189.529 159.922C187.537 163.333 183.146 164.371 179.601 162.843C179.313 164.712 177.79 166.754 176.247 167.803C175.468 168.333 174.603 168.466 173.833 169.016C169.224 172.307 165.227 179.632 159.484 181.568C155.596 182.877 151.503 182.167 148.737 186.234C150.499 187.75 150.736 190.481 149.471 192.407C148.413 194.022 139.589 202.706 137.842 204.049C135.416 205.912 132.784 205.328 130.716 203.296L111.187 183.534C110.181 181.404 111.569 179.42 113.944 180.179L134.7 200.549L145.684 189.595L115.903 159.804L115.139 159.652L104.565 170.277C104.449 170.943 108.361 173.892 108.81 175.056C109.35 176.468 108.094 178.332 106.533 178.232C105.168 178.144 100.929 173.226 100.004 171.895V169.179C100.441 168.68 100.489 168.076 100.908 167.513C102.117 165.895 111.221 156.743 112.728 155.76C114.926 154.329 117.258 154.97 119.178 156.48C124.654 151.952 121.097 144.696 123.162 138.699C124.408 135.082 133.815 125.627 137.084 123.002C139.185 121.311 141.775 120.204 144.492 119.974C143.825 118.734 143.394 117.331 143.27 115.912C142.909 111.723 142.788 101.307 143.415 97.3239C144.656 89.4663 154.86 87.2917 154.159 78.9412C151.433 78.8625 149.323 76.9662 149.028 74.2502C148.686 71.0987 148.601 60.9939 149.101 58.0209C149.429 56.0761 150.987 54.9299 152.661 54.1768H197.756V54.1798ZM196.546 58.7074H154.023L153.568 59.1611V74.102H163.405C164.481 74.102 165.803 75.7231 165.622 76.8906C165.164 79.8334 160.818 78.7416 158.714 78.9291C159.238 83.4658 157.17 86.8532 154.332 90.1045C152.061 92.7056 148.434 94.8015 147.9 98.4793C147.436 101.67 147.418 112.954 147.955 116.076C148.382 118.547 150.332 120.758 152.652 121.665L153.268 121.341V113.19C153.268 111.566 157.343 110.378 157.789 113.208L157.795 155.158C157.753 159.05 162.425 160.602 164.099 156.894L164.154 118.314C164.809 114.34 169.166 115.359 169.015 119.215L169.021 162.069C169.461 164.836 173.621 165.226 174.828 162.762L175.049 118.311C175.622 114.981 179.331 114.978 179.904 118.311L179.913 156.634C180.671 159.885 185.556 159.725 185.957 156.356C186.781 144.315 184.838 130.769 185.938 118.91C186.275 115.28 189.568 114.681 190.775 118.033L190.927 144.745C193.058 148.035 197.073 146.653 197.143 142.764C196.188 127.436 198.435 110.526 197.143 95.3822C196.722 90.4644 191.7 86.829 191.7 83.3025V78.926L173.521 78.796C171.723 78.5692 171.074 75.9621 172.338 74.8612C172.49 74.7281 173.903 74.099 173.994 74.099H196.54V58.7074H196.546ZM153.268 127.829L146.172 134.788C144.328 135.916 141.663 134.28 142.597 132.136C143.152 130.865 148.901 126.304 148.725 125.57C146.281 123.891 142.83 124.429 140.547 126.162C138.263 127.895 130.689 135.457 128.893 137.782C125.327 142.401 128.002 148.595 126.413 153.721C125.627 156.259 124.029 157.947 122.416 159.934L145.547 182.774C147.937 180.803 149.65 179.036 152.764 178.192C156.094 177.288 157.725 177.963 160.685 175.528C163.247 173.42 165.54 170.332 168.084 168.127C166.458 166.696 164.736 165.166 164.457 162.843C160.821 164.573 155.924 163.067 154.111 159.435C153.962 159.141 153.265 157.109 153.265 156.958V127.829H153.268ZM239.411 159.546L209.279 189.601L220.044 200.555L250.395 170.501L239.411 159.546Z" fill="url(#paint4_linear_335_203)"/>
<path d="M135.04 187.949C138.366 187.532 138.848 192.338 135.837 192.719C132.429 193.152 131.919 188.34 135.04 187.949Z" fill="url(#paint5_linear_335_203)"/>
<path d="M197.977 185.542C201.786 184.707 202.095 190.169 198.52 190.03C195.869 189.927 195.8 186.02 197.977 185.542Z" fill="url(#paint6_linear_335_203)"/>
<path d="M212.803 87.2918C210.544 89.2123 207.326 85.8975 209.704 83.7562C212.081 81.6148 214.992 85.4317 212.803 87.2918Z" fill="url(#paint7_linear_335_203)"/>
<path d="M228.24 105.252C231.872 104.456 232.397 109.885 228.783 109.74C226.163 109.634 225.962 105.751 228.24 105.252Z" fill="url(#paint8_linear_335_203)"/>
<path d="M171.65 190.366C174.64 189.755 175.468 193.98 173.264 194.706C169.652 195.895 168.791 190.953 171.65 190.366Z" fill="url(#paint9_linear_335_203)"/>
<path d="M232.947 133.349C234.918 131.383 238.065 134.063 236.516 136.455C234.833 139.053 230.572 135.717 232.947 133.349Z" fill="url(#paint10_linear_335_203)"/>
<path d="M217.96 89.5483C221.053 89.0402 221.514 94.2997 218.178 94.1818C215.613 94.088 214.897 90.0534 217.96 89.5483Z" fill="url(#paint11_linear_335_203)"/>
<path d="M204.933 78.7142C207.25 81.0249 203.347 84.2218 201.379 81.8083C199.617 79.6518 202.922 76.709 204.933 78.7142Z" fill="url(#paint12_linear_335_203)"/>
<path d="M189.192 188.564C192.54 187.562 193.626 192.021 190.806 192.898C187.746 193.85 186.818 189.271 189.192 188.564Z" fill="url(#paint13_linear_335_203)"/>
<path d="M161.522 193.245C159.205 190.934 163.107 187.737 165.075 190.151C166.837 192.307 163.532 195.25 161.522 193.245Z" fill="url(#paint14_linear_335_203)"/>
<path d="M233.989 114.633C236.091 116.729 232.943 119.901 230.717 118.044C228.492 116.187 231.669 112.319 233.989 114.633Z" fill="url(#paint15_linear_335_203)"/>
<path d="M223.391 97.1058C226.606 96.144 227.667 100.605 225.008 101.44C221.905 102.414 220.856 97.8649 223.391 97.1058Z" fill="url(#paint16_linear_335_203)"/>
<path d="M233.689 123.355C236.77 122.717 237.34 127.088 235.069 127.768C231.785 128.754 230.66 123.982 233.689 123.355Z" fill="url(#paint17_linear_335_203)"/>
<path d="M153.789 187.051C158.165 186.111 157.361 192.867 153.646 191.288C151.727 190.472 151.715 187.496 153.789 187.051Z" fill="url(#paint18_linear_335_203)"/>
<path d="M180.728 190.063C183.724 189.452 184.528 193.753 182.108 194.476C178.73 195.486 177.854 190.65 180.728 190.063Z" fill="url(#paint19_linear_335_203)"/>
<path d="M124.603 96.2256C126.959 94.2234 130.076 97.8497 127.705 99.7642C125.109 101.86 122.541 97.9768 124.603 96.2256Z" fill="url(#paint20_linear_335_203)"/>
<path d="M117.17 111.893C120.906 111.077 121.288 116.515 117.713 116.381C115.066 116.282 114.993 112.371 117.17 111.893Z" fill="url(#paint21_linear_335_203)"/>
<path d="M120.803 103.433C123.793 102.822 124.62 107.047 122.416 107.773C118.804 108.962 117.943 104.02 120.803 103.433Z" fill="url(#paint22_linear_335_203)"/>
<path d="M114.141 129.698C117.932 128.57 118.353 135.424 113.908 134.029C111.861 133.388 112.416 130.212 114.141 129.698Z" fill="url(#paint23_linear_335_203)"/>
<path d="M131.082 88.9553C134.685 87.8816 135.452 92.4546 132.696 93.2954C129.939 94.1362 128.487 89.7296 131.082 88.9553Z" fill="url(#paint24_linear_335_203)"/>
<path d="M145.611 78.0911C149.152 77.0416 150.105 81.5481 147.224 82.4282C144.473 83.269 143.142 78.82 145.611 78.0911Z" fill="url(#paint25_linear_335_203)"/>
<path d="M114.751 138.75C117.731 138.13 118.574 142.362 116.364 143.09C112.619 144.324 112.134 139.295 114.751 138.75Z" fill="url(#paint26_linear_335_203)"/>
<path d="M118.983 151.592C116.666 153.902 113.546 149.986 115.711 148.18C117.876 146.375 121.085 149.499 118.983 151.592Z" fill="url(#paint27_linear_335_203)"/>
<path d="M138.045 82.918C141.162 81.9835 142.475 86.3659 139.661 87.2521C136.471 88.2562 135.655 83.6348 138.045 82.918Z" fill="url(#paint28_linear_335_203)"/>
<path d="M115.053 120.64C118.034 120.02 118.877 124.251 116.666 124.98C112.922 126.214 112.436 121.184 115.053 120.64Z" fill="url(#paint29_linear_335_203)"/>
<path d="M162.865 68.2825C160.211 70.9289 156.785 66.0958 159.757 64.4293C162.419 62.9352 164.845 66.3105 162.865 68.2825Z" fill="url(#paint30_linear_335_203)"/>
<path d="M239.436 167.434C243.46 166.545 243.517 171.759 240.497 172.146C237.677 172.506 236.673 168.045 239.436 167.434Z" fill="url(#paint31_linear_335_203)"/>
</g>
<path d="M370.663 71.2676H364.413L364.452 66.3457H370.663C372.082 66.3457 373.28 66.0202 374.257 65.3691C375.233 64.7051 375.976 63.7285 376.483 62.4395C376.991 61.1374 377.245 59.5553 377.245 57.6934V56.3848C377.245 54.9785 377.102 53.7415 376.815 52.6738C376.529 51.5931 376.106 50.6882 375.546 49.959C374.986 49.2298 374.289 48.6829 373.456 48.3184C372.636 47.9538 371.692 47.7715 370.624 47.7715H364.296V42.8301H370.624C372.551 42.8301 374.309 43.1556 375.897 43.8066C377.499 44.4577 378.879 45.3887 380.038 46.5996C381.21 47.8105 382.115 49.2428 382.753 50.8965C383.391 52.5501 383.71 54.3926 383.71 56.4238V57.6934C383.71 59.7116 383.391 61.554 382.753 63.2207C382.115 64.8743 381.21 66.3066 380.038 67.5176C378.879 68.7155 377.506 69.64 375.917 70.291C374.328 70.9421 372.577 71.2676 370.663 71.2676ZM368.026 42.8301V71.2676H361.659V42.8301H368.026ZM396.995 71.6582C395.315 71.6582 393.812 71.3913 392.483 70.8574C391.155 70.3236 390.029 69.5879 389.104 68.6504C388.193 67.6999 387.496 66.6061 387.015 65.3691C386.533 64.1322 386.292 62.8105 386.292 61.4043V60.6621C386.292 59.0866 386.513 57.6348 386.956 56.3066C387.399 54.9785 388.043 53.8262 388.89 52.8496C389.749 51.86 390.804 51.0983 392.054 50.5645C393.304 50.0176 394.729 49.7441 396.331 49.7441C397.828 49.7441 399.163 49.9915 400.335 50.4863C401.507 50.9681 402.496 51.6647 403.304 52.5762C404.111 53.4746 404.723 54.5618 405.14 55.8379C405.569 57.1009 405.784 58.5202 405.784 60.0957V62.5957H388.753V58.6699H399.808V58.2012C399.808 57.459 399.671 56.8079 399.397 56.248C399.137 55.6882 398.746 55.2585 398.226 54.959C397.718 54.6465 397.073 54.4902 396.292 54.4902C395.55 54.4902 394.931 54.6465 394.437 54.959C393.942 55.2715 393.545 55.7142 393.245 56.2871C392.959 56.847 392.75 57.5046 392.62 58.2598C392.49 59.002 392.425 59.8027 392.425 60.6621V61.4043C392.425 62.2246 392.535 62.9733 392.757 63.6504C392.978 64.3275 393.304 64.9069 393.733 65.3887C394.163 65.8704 394.684 66.248 395.296 66.5215C395.908 66.7949 396.604 66.9316 397.386 66.9316C398.349 66.9316 399.267 66.7493 400.14 66.3848C401.012 66.0072 401.767 65.4212 402.405 64.627L405.257 67.8887C404.827 68.5137 404.222 69.1191 403.44 69.7051C402.672 70.278 401.748 70.7467 400.667 71.1113C399.586 71.4759 398.362 71.6582 396.995 71.6582ZM420.808 66.541V41.2676H426.94V71.2676H421.433L420.808 66.541ZM407.644 60.9551V60.5449C407.644 58.9434 407.819 57.485 408.171 56.1699C408.535 54.8418 409.063 53.7025 409.753 52.752C410.456 51.7884 411.322 51.0462 412.351 50.5254C413.379 50.0046 414.558 49.7441 415.886 49.7441C417.11 49.7441 418.177 50.0176 419.089 50.5645C420 51.0983 420.775 51.8535 421.413 52.8301C422.064 53.7936 422.591 54.9329 422.995 56.248C423.399 57.5501 423.705 58.9629 423.913 60.4863V61.1895C423.718 62.6478 423.412 64.0085 422.995 65.2715C422.591 66.5345 422.064 67.6478 421.413 68.6113C420.775 69.5618 419.994 70.3105 419.069 70.8574C418.158 71.3913 417.084 71.6582 415.847 71.6582C414.519 71.6582 413.34 71.3913 412.312 70.8574C411.296 70.3236 410.443 69.5749 409.753 68.6113C409.063 67.6478 408.535 66.515 408.171 65.2129C407.819 63.9108 407.644 62.4915 407.644 60.9551ZM413.737 60.5449V60.9551C413.737 61.7884 413.796 62.5632 413.913 63.2793C414.043 63.9954 414.252 64.627 414.538 65.1738C414.825 65.7207 415.202 66.1504 415.671 66.4629C416.14 66.7624 416.713 66.9121 417.39 66.9121C418.301 66.9121 419.05 66.7038 419.636 66.2871C420.222 65.8574 420.664 65.265 420.964 64.5098C421.263 63.7546 421.42 62.8757 421.433 61.873V59.8223C421.433 58.9889 421.348 58.2402 421.179 57.5762C421.009 56.9121 420.756 56.3522 420.417 55.8965C420.091 55.4408 419.681 55.0957 419.187 54.8613C418.692 54.6139 418.106 54.4902 417.429 54.4902C416.765 54.4902 416.198 54.6465 415.729 54.959C415.261 55.2585 414.877 55.6816 414.577 56.2285C414.291 56.7754 414.076 57.4199 413.933 58.1621C413.802 58.8913 413.737 59.6855 413.737 60.5449ZM437.179 50.1348V71.2676H431.065V50.1348H437.179ZM430.694 44.666C430.694 43.7806 431.007 43.0579 431.632 42.498C432.257 41.9251 433.077 41.6387 434.093 41.6387C435.108 41.6387 435.929 41.9251 436.554 42.498C437.192 43.0579 437.511 43.7806 437.511 44.666C437.511 45.5384 437.192 46.2611 436.554 46.834C435.929 47.3939 435.108 47.6738 434.093 47.6738C433.077 47.6738 432.257 47.3939 431.632 46.834C431.007 46.2611 430.694 45.5384 430.694 44.666ZM450.151 66.9121C450.802 66.9121 451.369 66.7884 451.851 66.541C452.332 66.2936 452.703 65.9486 452.964 65.5059C453.237 65.0501 453.374 64.5033 453.374 63.8652H459.116C459.116 65.4017 458.719 66.7559 457.925 67.9277C457.144 69.0996 456.089 70.0176 454.761 70.6816C453.433 71.3327 451.935 71.6582 450.269 71.6582C448.628 71.6582 447.196 71.3913 445.972 70.8574C444.748 70.3105 443.726 69.5488 442.905 68.5723C442.085 67.5957 441.466 66.4629 441.05 65.1738C440.646 63.8717 440.444 62.4655 440.444 60.9551V60.4473C440.444 58.9499 440.646 57.5501 441.05 56.248C441.466 54.946 442.085 53.8066 442.905 52.8301C443.726 51.8535 444.741 51.0983 445.952 50.5645C447.176 50.0176 448.608 49.7441 450.249 49.7441C451.981 49.7441 453.511 50.0762 454.839 50.7402C456.18 51.4043 457.228 52.3613 457.983 53.6113C458.739 54.8483 459.116 56.3392 459.116 58.084H453.374C453.374 57.4069 453.25 56.8014 453.003 56.2676C452.769 55.7207 452.404 55.291 451.909 54.9785C451.427 54.653 450.828 54.4902 450.112 54.4902C449.37 54.4902 448.758 54.653 448.276 54.9785C447.808 55.291 447.45 55.7272 447.202 56.2871C446.955 56.847 446.785 57.485 446.694 58.2012C446.603 58.9043 446.558 59.653 446.558 60.4473V60.9551C446.558 61.7624 446.603 62.5306 446.694 63.2598C446.785 63.9759 446.955 64.6074 447.202 65.1543C447.463 65.7012 447.827 66.1309 448.296 66.4434C448.765 66.7559 449.383 66.9121 450.151 66.9121ZM473.085 66.2285V57.166C473.085 56.528 472.987 55.9811 472.792 55.5254C472.597 55.0697 472.291 54.7116 471.874 54.4512C471.457 54.1908 470.917 54.0605 470.253 54.0605C469.693 54.0605 469.205 54.1582 468.788 54.3535C468.384 54.5488 468.072 54.8288 467.851 55.1934C467.642 55.5579 467.538 56.0072 467.538 56.541H461.444C461.444 55.5905 461.659 54.7051 462.089 53.8848C462.519 53.0645 463.131 52.3418 463.925 51.7168C464.732 51.0918 465.696 50.61 466.815 50.2715C467.935 49.9199 469.192 49.7441 470.585 49.7441C472.239 49.7441 473.71 50.0241 474.999 50.584C476.301 51.1309 477.33 51.9577 478.085 53.0645C478.84 54.1582 479.218 55.5384 479.218 57.2051V66.0527C479.218 67.3288 479.289 68.3314 479.433 69.0605C479.589 69.7767 479.81 70.4017 480.097 70.9355V71.2676H473.944C473.658 70.6556 473.443 69.9004 473.3 69.002C473.157 68.0905 473.085 67.166 473.085 66.2285ZM473.847 58.377L473.886 61.7363H470.858C470.181 61.7363 469.595 61.821 469.101 61.9902C468.619 62.1595 468.228 62.3939 467.929 62.6934C467.629 62.9798 467.408 63.3184 467.265 63.709C467.134 64.0866 467.069 64.5033 467.069 64.959C467.069 65.3887 467.174 65.7793 467.382 66.1309C467.59 66.4694 467.877 66.7363 468.241 66.9316C468.606 67.127 469.029 67.2246 469.511 67.2246C470.305 67.2246 470.982 67.0684 471.542 66.7559C472.115 66.4434 472.558 66.0658 472.87 65.623C473.183 65.1673 473.339 64.7441 473.339 64.3535L474.804 66.8926C474.569 67.4134 474.283 67.9538 473.944 68.5137C473.606 69.0605 473.176 69.5749 472.655 70.0566C472.134 70.5254 471.503 70.9095 470.761 71.209C470.032 71.5085 469.153 71.6582 468.124 71.6582C466.796 71.6582 465.591 71.3913 464.511 70.8574C463.43 70.3105 462.564 69.5618 461.913 68.6113C461.275 67.6608 460.956 66.5671 460.956 65.3301C460.956 64.2233 461.158 63.2402 461.562 62.3809C461.965 61.5215 462.571 60.7923 463.378 60.1934C464.198 59.5944 465.227 59.1452 466.464 58.8457C467.701 58.5332 469.146 58.377 470.8 58.377H473.847ZM493.714 50.1348V54.4121H481.175V50.1348H493.714ZM484.046 44.9004H490.159V64.6465C490.159 65.2324 490.231 65.6816 490.374 65.9941C490.517 66.3066 490.752 66.528 491.077 66.6582C491.403 66.7754 491.819 66.834 492.327 66.834C492.692 66.834 493.004 66.821 493.265 66.7949C493.525 66.7689 493.766 66.7363 493.987 66.6973V71.1113C493.466 71.2806 492.913 71.4108 492.327 71.502C491.741 71.6061 491.103 71.6582 490.413 71.6582C489.098 71.6582 487.959 71.4434 486.995 71.0137C486.045 70.584 485.315 69.9069 484.808 68.9824C484.3 68.0449 484.046 66.8275 484.046 65.3301V44.9004ZM506.354 71.6582C504.675 71.6582 503.171 71.3913 501.843 70.8574C500.515 70.3236 499.388 69.5879 498.464 68.6504C497.552 67.6999 496.856 66.6061 496.374 65.3691C495.892 64.1322 495.651 62.8105 495.651 61.4043V60.6621C495.651 59.0866 495.873 57.6348 496.315 56.3066C496.758 54.9785 497.403 53.8262 498.249 52.8496C499.108 51.86 500.163 51.0983 501.413 50.5645C502.663 50.0176 504.089 49.7441 505.69 49.7441C507.188 49.7441 508.522 49.9915 509.694 50.4863C510.866 50.9681 511.856 51.6647 512.663 52.5762C513.47 53.4746 514.082 54.5618 514.499 55.8379C514.929 57.1009 515.144 58.5202 515.144 60.0957V62.5957H498.112V58.6699H509.167V58.2012C509.167 57.459 509.03 56.8079 508.757 56.248C508.496 55.6882 508.106 55.2585 507.585 54.959C507.077 54.6465 506.433 54.4902 505.651 54.4902C504.909 54.4902 504.291 54.6465 503.796 54.959C503.301 55.2715 502.904 55.7142 502.604 56.2871C502.318 56.847 502.11 57.5046 501.979 58.2598C501.849 59.002 501.784 59.8027 501.784 60.6621V61.4043C501.784 62.2246 501.895 62.9733 502.116 63.6504C502.338 64.3275 502.663 64.9069 503.093 65.3887C503.522 65.8704 504.043 66.248 504.655 66.5215C505.267 66.7949 505.964 66.9316 506.745 66.9316C507.709 66.9316 508.627 66.7493 509.499 66.3848C510.371 66.0072 511.127 65.4212 511.765 64.627L514.616 67.8887C514.187 68.5137 513.581 69.1191 512.8 69.7051C512.032 70.278 511.107 70.7467 510.026 71.1113C508.946 71.4759 507.722 71.6582 506.354 71.6582ZM530.167 66.541V41.2676H536.3V71.2676H530.792L530.167 66.541ZM517.003 60.9551V60.5449C517.003 58.9434 517.179 57.485 517.53 56.1699C517.895 54.8418 518.422 53.7025 519.112 52.752C519.815 51.7884 520.681 51.0462 521.71 50.5254C522.739 50.0046 523.917 49.7441 525.245 49.7441C526.469 49.7441 527.537 50.0176 528.448 50.5645C529.36 51.0983 530.134 51.8535 530.772 52.8301C531.424 53.7936 531.951 54.9329 532.354 56.248C532.758 57.5501 533.064 58.9629 533.272 60.4863V61.1895C533.077 62.6478 532.771 64.0085 532.354 65.2715C531.951 66.5345 531.424 67.6478 530.772 68.6113C530.134 69.5618 529.353 70.3105 528.429 70.8574C527.517 71.3913 526.443 71.6582 525.206 71.6582C523.878 71.6582 522.7 71.3913 521.671 70.8574C520.655 70.3236 519.802 69.5749 519.112 68.6113C518.422 67.6478 517.895 66.515 517.53 65.2129C517.179 63.9108 517.003 62.4915 517.003 60.9551ZM523.097 60.5449V60.9551C523.097 61.7884 523.155 62.5632 523.272 63.2793C523.403 63.9954 523.611 64.627 523.897 65.1738C524.184 65.7207 524.562 66.1504 525.03 66.4629C525.499 66.7624 526.072 66.9121 526.749 66.9121C527.66 66.9121 528.409 66.7038 528.995 66.2871C529.581 65.8574 530.024 65.265 530.323 64.5098C530.623 63.7546 530.779 62.8757 530.792 61.873V59.8223C530.792 58.9889 530.707 58.2402 530.538 57.5762C530.369 56.9121 530.115 56.3522 529.776 55.8965C529.451 55.4408 529.041 55.0957 528.546 54.8613C528.051 54.6139 527.465 54.4902 526.788 54.4902C526.124 54.4902 525.558 54.6465 525.089 54.959C524.62 55.2585 524.236 55.6816 523.937 56.2285C523.65 56.7754 523.435 57.4199 523.292 58.1621C523.162 58.8913 523.097 59.6855 523.097 60.5449ZM562.284 42.8301V71.2676H555.937V42.8301H562.284ZM570.937 42.8301V47.7715H547.46V42.8301H570.937ZM581.683 71.6582C580.003 71.6582 578.499 71.3913 577.171 70.8574C575.843 70.3236 574.716 69.5879 573.792 68.6504C572.881 67.6999 572.184 66.6061 571.702 65.3691C571.22 64.1322 570.979 62.8105 570.979 61.4043V60.6621C570.979 59.0866 571.201 57.6348 571.644 56.3066C572.086 54.9785 572.731 53.8262 573.577 52.8496C574.437 51.86 575.491 51.0983 576.741 50.5645C577.991 50.0176 579.417 49.7441 581.019 49.7441C582.516 49.7441 583.851 49.9915 585.022 50.4863C586.194 50.9681 587.184 51.6647 587.991 52.5762C588.799 53.4746 589.41 54.5618 589.827 55.8379C590.257 57.1009 590.472 58.5202 590.472 60.0957V62.5957H573.44V58.6699H584.495V58.2012C584.495 57.459 584.358 56.8079 584.085 56.248C583.825 55.6882 583.434 55.2585 582.913 54.959C582.405 54.6465 581.761 54.4902 580.979 54.4902C580.237 54.4902 579.619 54.6465 579.124 54.959C578.629 55.2715 578.232 55.7142 577.933 56.2871C577.646 56.847 577.438 57.5046 577.308 58.2598C577.177 59.002 577.112 59.8027 577.112 60.6621V61.4043C577.112 62.2246 577.223 62.9733 577.444 63.6504C577.666 64.3275 577.991 64.9069 578.421 65.3887C578.851 65.8704 579.371 66.248 579.983 66.5215C580.595 66.7949 581.292 66.9316 582.073 66.9316C583.037 66.9316 583.955 66.7493 584.827 66.3848C585.7 66.0072 586.455 65.4212 587.093 64.627L589.944 67.8887C589.515 68.5137 588.909 69.1191 588.128 69.7051C587.36 70.278 586.435 70.7467 585.354 71.1113C584.274 71.4759 583.05 71.6582 581.683 71.6582ZM604.382 66.2285V57.166C604.382 56.528 604.284 55.9811 604.089 55.5254C603.894 55.0697 603.588 54.7116 603.171 54.4512C602.754 54.1908 602.214 54.0605 601.55 54.0605C600.99 54.0605 600.502 54.1582 600.085 54.3535C599.681 54.5488 599.369 54.8288 599.147 55.1934C598.939 55.5579 598.835 56.0072 598.835 56.541H592.741C592.741 55.5905 592.956 54.7051 593.386 53.8848C593.815 53.0645 594.427 52.3418 595.222 51.7168C596.029 51.0918 596.993 50.61 598.112 50.2715C599.232 49.9199 600.489 49.7441 601.882 49.7441C603.535 49.7441 605.007 50.0241 606.296 50.584C607.598 51.1309 608.627 51.9577 609.382 53.0645C610.137 54.1582 610.515 55.5384 610.515 57.2051V66.0527C610.515 67.3288 610.586 68.3314 610.729 69.0605C610.886 69.7767 611.107 70.4017 611.394 70.9355V71.2676H605.241C604.955 70.6556 604.74 69.9004 604.597 69.002C604.453 68.0905 604.382 67.166 604.382 66.2285ZM605.144 58.377L605.183 61.7363H602.155C601.478 61.7363 600.892 61.821 600.397 61.9902C599.916 62.1595 599.525 62.3939 599.226 62.6934C598.926 62.9798 598.705 63.3184 598.562 63.709C598.431 64.0866 598.366 64.5033 598.366 64.959C598.366 65.3887 598.47 65.7793 598.679 66.1309C598.887 66.4694 599.174 66.7363 599.538 66.9316C599.903 67.127 600.326 67.2246 600.808 67.2246C601.602 67.2246 602.279 67.0684 602.839 66.7559C603.412 66.4434 603.854 66.0658 604.167 65.623C604.479 65.1673 604.636 64.7441 604.636 64.3535L606.101 66.8926C605.866 67.4134 605.58 67.9538 605.241 68.5137C604.903 69.0605 604.473 69.5749 603.952 70.0566C603.431 70.5254 602.8 70.9095 602.058 71.209C601.328 71.5085 600.45 71.6582 599.421 71.6582C598.093 71.6582 596.888 71.3913 595.808 70.8574C594.727 70.3105 593.861 69.5618 593.21 68.6113C592.572 67.6608 592.253 66.5671 592.253 65.3301C592.253 64.2233 592.455 63.2402 592.858 62.3809C593.262 61.5215 593.868 60.7923 594.675 60.1934C595.495 59.5944 596.524 59.1452 597.761 58.8457C598.998 58.5332 600.443 58.377 602.097 58.377H605.144ZM620.382 54.5684V71.2676H614.288V50.1348H620.011L620.382 54.5684ZM619.601 59.959L618.058 59.998C618.058 58.5137 618.233 57.153 618.585 55.916C618.95 54.666 619.477 53.5788 620.167 52.6543C620.857 51.7298 621.71 51.0137 622.726 50.5059C623.754 49.998 624.939 49.7441 626.28 49.7441C627.218 49.7441 628.071 49.8874 628.839 50.1738C629.607 50.4473 630.265 50.8835 630.812 51.4824C631.371 52.0684 631.801 52.8366 632.101 53.7871C632.4 54.7246 632.55 55.8509 632.55 57.166V71.2676H626.456V57.9082C626.456 56.9707 626.339 56.2611 626.104 55.7793C625.883 55.2845 625.558 54.946 625.128 54.7637C624.698 54.5814 624.184 54.4902 623.585 54.4902C622.934 54.4902 622.354 54.6335 621.847 54.9199C621.352 55.1934 620.935 55.5775 620.597 56.0723C620.258 56.5671 620.004 57.1465 619.835 57.8105C619.679 58.4746 619.601 59.1908 619.601 59.959ZM631.925 59.6465L629.991 59.8027C629.991 58.3704 630.16 57.0423 630.499 55.8184C630.838 54.5944 631.345 53.5332 632.022 52.6348C632.7 51.7233 633.539 51.0137 634.542 50.5059C635.558 49.998 636.736 49.7441 638.077 49.7441C639.067 49.7441 639.965 49.8874 640.772 50.1738C641.593 50.4603 642.296 50.9225 642.882 51.5605C643.481 52.1986 643.943 53.0384 644.269 54.0801C644.594 55.1087 644.757 56.3717 644.757 57.8691V71.2676H638.624V57.8691C638.624 56.9447 638.507 56.2415 638.272 55.7598C638.051 55.278 637.726 54.946 637.296 54.7637C636.879 54.5814 636.378 54.4902 635.792 54.4902C635.141 54.4902 634.575 54.627 634.093 54.9004C633.611 55.1608 633.207 55.5254 632.882 55.9941C632.556 56.4499 632.315 56.9902 632.159 57.6152C632.003 58.2402 631.925 58.9173 631.925 59.6465Z" fill="white"/>
<path d="M358.8 113.818L348.819 140.811H346.749L357.452 112.373H358.976L358.8 113.818ZM368.077 140.811L358.097 113.818L357.921 112.373H359.425L370.147 140.811H368.077ZM365.929 130.928V132.666H351.104V130.928H365.929ZM390.722 139.502C391.737 139.502 392.694 139.313 393.593 138.936C394.504 138.545 395.259 137.965 395.858 137.197C396.47 136.429 396.815 135.465 396.894 134.307H398.749C398.684 135.674 398.28 136.878 397.538 137.92C396.796 138.962 395.826 139.769 394.628 140.342C393.443 140.915 392.141 141.201 390.722 141.201C389.276 141.201 388 140.941 386.894 140.42C385.787 139.886 384.856 139.144 384.101 138.193C383.358 137.243 382.792 136.13 382.401 134.854C382.024 133.564 381.835 132.165 381.835 130.654V129.834C381.835 128.324 382.024 126.93 382.401 125.654C382.792 124.365 383.358 123.245 384.101 122.295C384.856 121.344 385.78 120.609 386.874 120.088C387.981 119.554 389.257 119.287 390.702 119.287C392.16 119.287 393.482 119.587 394.667 120.186C395.865 120.771 396.828 121.624 397.558 122.744C398.287 123.851 398.684 125.186 398.749 126.748H396.894C396.828 125.524 396.509 124.489 395.937 123.643C395.364 122.783 394.621 122.126 393.71 121.67C392.799 121.214 391.796 120.986 390.702 120.986C389.465 120.986 388.404 121.227 387.519 121.709C386.646 122.178 385.93 122.829 385.37 123.662C384.823 124.482 384.413 125.42 384.14 126.475C383.879 127.529 383.749 128.649 383.749 129.834V130.654C383.749 131.839 383.879 132.965 384.14 134.033C384.4 135.088 384.81 136.025 385.37 136.846C385.93 137.666 386.653 138.317 387.538 138.799C388.424 139.268 389.485 139.502 390.722 139.502ZM405.296 123.232V140.811H403.362V119.678H405.257L405.296 123.232ZM413.069 119.521L412.991 121.279C412.744 121.24 412.496 121.214 412.249 121.201C412.015 121.175 411.761 121.162 411.487 121.162C410.42 121.162 409.482 121.364 408.675 121.768C407.868 122.171 407.19 122.731 406.644 123.447C406.11 124.163 405.7 124.997 405.413 125.947C405.14 126.885 404.99 127.9 404.964 128.994L404.163 129.229C404.163 127.809 404.306 126.501 404.593 125.303C404.892 124.092 405.348 123.037 405.96 122.139C406.572 121.24 407.34 120.544 408.265 120.049C409.189 119.541 410.283 119.287 411.546 119.287C411.845 119.287 412.132 119.313 412.405 119.365C412.692 119.404 412.913 119.456 413.069 119.521ZM414.792 130.596V129.893C414.792 128.356 415.013 126.943 415.456 125.654C415.899 124.352 416.53 123.226 417.351 122.275C418.171 121.325 419.154 120.589 420.3 120.068C421.459 119.548 422.741 119.287 424.147 119.287C425.567 119.287 426.849 119.548 427.995 120.068C429.154 120.589 430.144 121.325 430.964 122.275C431.797 123.226 432.435 124.352 432.878 125.654C433.321 126.943 433.542 128.356 433.542 129.893V130.596C433.542 132.132 433.321 133.551 432.878 134.854C432.435 136.143 431.797 137.262 430.964 138.213C430.144 139.163 429.16 139.899 428.015 140.42C426.869 140.941 425.593 141.201 424.187 141.201C422.767 141.201 421.478 140.941 420.319 140.42C419.174 139.899 418.184 139.163 417.351 138.213C416.53 137.262 415.899 136.143 415.456 134.854C415.013 133.551 414.792 132.132 414.792 130.596ZM416.706 129.893V130.596C416.706 131.781 416.869 132.913 417.194 133.994C417.533 135.062 418.015 136.012 418.64 136.846C419.278 137.666 420.059 138.317 420.983 138.799C421.921 139.268 422.989 139.502 424.187 139.502C425.371 139.502 426.42 139.268 427.331 138.799C428.256 138.317 429.03 137.666 429.655 136.846C430.293 136.012 430.775 135.062 431.101 133.994C431.439 132.913 431.608 131.781 431.608 130.596V129.893C431.608 128.734 431.439 127.62 431.101 126.553C430.775 125.485 430.293 124.535 429.655 123.701C429.017 122.868 428.236 122.21 427.312 121.729C426.387 121.234 425.332 120.986 424.147 120.986C422.963 120.986 421.908 121.234 420.983 121.729C420.059 122.21 419.278 122.868 418.64 123.701C418.002 124.535 417.52 125.485 417.194 126.553C416.869 127.62 416.706 128.734 416.706 129.893ZM451.007 135.479C451.007 134.893 450.851 134.307 450.538 133.721C450.226 133.122 449.646 132.575 448.8 132.08C447.953 131.572 446.716 131.149 445.089 130.811C443.917 130.55 442.875 130.264 441.964 129.951C441.052 129.626 440.284 129.235 439.659 128.779C439.047 128.324 438.578 127.783 438.253 127.158C437.94 126.52 437.784 125.771 437.784 124.912C437.784 124.131 437.953 123.402 438.292 122.725C438.631 122.048 439.119 121.455 439.757 120.947C440.395 120.426 441.163 120.023 442.062 119.736C442.973 119.437 443.995 119.287 445.128 119.287C446.743 119.287 448.123 119.561 449.269 120.107C450.414 120.641 451.293 121.377 451.905 122.314C452.53 123.252 452.843 124.32 452.843 125.518H450.909C450.909 124.736 450.681 124.007 450.226 123.33C449.783 122.64 449.132 122.08 448.272 121.65C447.413 121.208 446.365 120.986 445.128 120.986C443.839 120.986 442.797 121.182 442.003 121.572C441.209 121.963 440.629 122.451 440.265 123.037C439.9 123.623 439.718 124.229 439.718 124.854C439.718 125.348 439.789 125.798 439.933 126.201C440.089 126.605 440.375 126.982 440.792 127.334C441.209 127.686 441.801 128.018 442.569 128.33C443.351 128.63 444.36 128.923 445.597 129.209C447.302 129.587 448.689 130.049 449.757 130.596C450.838 131.13 451.632 131.787 452.14 132.568C452.66 133.35 452.921 134.294 452.921 135.4C452.921 136.26 452.739 137.048 452.374 137.764C452.022 138.467 451.508 139.079 450.831 139.6C450.167 140.107 449.36 140.505 448.409 140.791C447.472 141.064 446.424 141.201 445.265 141.201C443.494 141.201 442.003 140.915 440.792 140.342C439.581 139.769 438.663 139.014 438.038 138.076C437.413 137.139 437.101 136.13 437.101 135.049H439.034C439.112 136.182 439.47 137.074 440.108 137.725C440.759 138.376 441.547 138.838 442.472 139.111C443.409 139.372 444.34 139.502 445.265 139.502C446.515 139.502 447.563 139.313 448.409 138.936C449.269 138.545 449.913 138.044 450.343 137.432C450.785 136.82 451.007 136.169 451.007 135.479ZM470.913 135.479C470.913 134.893 470.757 134.307 470.444 133.721C470.132 133.122 469.552 132.575 468.706 132.08C467.86 131.572 466.623 131.149 464.995 130.811C463.823 130.55 462.782 130.264 461.87 129.951C460.959 129.626 460.19 129.235 459.565 128.779C458.953 128.324 458.485 127.783 458.159 127.158C457.847 126.52 457.69 125.771 457.69 124.912C457.69 124.131 457.86 123.402 458.198 122.725C458.537 122.048 459.025 121.455 459.663 120.947C460.301 120.426 461.069 120.023 461.968 119.736C462.879 119.437 463.901 119.287 465.034 119.287C466.649 119.287 468.029 119.561 469.175 120.107C470.321 120.641 471.2 121.377 471.812 122.314C472.437 123.252 472.749 124.32 472.749 125.518H470.815C470.815 124.736 470.588 124.007 470.132 123.33C469.689 122.64 469.038 122.08 468.179 121.65C467.319 121.208 466.271 120.986 465.034 120.986C463.745 120.986 462.703 121.182 461.909 121.572C461.115 121.963 460.535 122.451 460.171 123.037C459.806 123.623 459.624 124.229 459.624 124.854C459.624 125.348 459.696 125.798 459.839 126.201C459.995 126.605 460.282 126.982 460.698 127.334C461.115 127.686 461.707 128.018 462.476 128.33C463.257 128.63 464.266 128.923 465.503 129.209C467.209 129.587 468.595 130.049 469.663 130.596C470.744 131.13 471.538 131.787 472.046 132.568C472.567 133.35 472.827 134.294 472.827 135.4C472.827 136.26 472.645 137.048 472.28 137.764C471.929 138.467 471.414 139.079 470.737 139.6C470.073 140.107 469.266 140.505 468.315 140.791C467.378 141.064 466.33 141.201 465.171 141.201C463.4 141.201 461.909 140.915 460.698 140.342C459.487 139.769 458.569 139.014 457.944 138.076C457.319 137.139 457.007 136.13 457.007 135.049H458.94C459.019 136.182 459.377 137.074 460.015 137.725C460.666 138.376 461.453 138.838 462.378 139.111C463.315 139.372 464.246 139.502 465.171 139.502C466.421 139.502 467.469 139.313 468.315 138.936C469.175 138.545 469.819 138.044 470.249 137.432C470.692 136.82 470.913 136.169 470.913 135.479ZM485.214 127.256V128.975H475.917V127.256H485.214ZM492.972 140.811H491.038V116.943C491.038 115.524 491.279 114.333 491.761 113.369C492.243 112.393 492.933 111.657 493.831 111.162C494.743 110.654 495.817 110.4 497.054 110.4C497.457 110.4 497.874 110.426 498.304 110.479C498.733 110.518 499.15 110.602 499.554 110.732L499.378 112.393C499.052 112.301 498.72 112.236 498.382 112.197C498.056 112.158 497.659 112.139 497.19 112.139C496.318 112.139 495.563 112.327 494.925 112.705C494.3 113.083 493.818 113.63 493.479 114.346C493.141 115.049 492.972 115.915 492.972 116.943V140.811ZM498.187 119.678V121.338H487.483V119.678H498.187ZM515.925 135.928V119.678H517.878V140.811H515.983L515.925 135.928ZM516.276 132.178L517.37 132.139C517.37 133.441 517.214 134.645 516.901 135.752C516.589 136.846 516.094 137.803 515.417 138.623C514.753 139.443 513.894 140.081 512.839 140.537C511.784 140.98 510.521 141.201 509.05 141.201C508.021 141.201 507.077 141.058 506.218 140.771C505.371 140.472 504.636 140.003 504.011 139.365C503.399 138.727 502.924 137.9 502.585 136.885C502.259 135.856 502.097 134.619 502.097 133.174V119.678H504.03V133.213C504.03 134.385 504.16 135.374 504.421 136.182C504.694 136.976 505.065 137.614 505.534 138.096C506.016 138.577 506.569 138.929 507.194 139.15C507.819 139.359 508.496 139.463 509.226 139.463C510.996 139.463 512.396 139.124 513.425 138.447C514.453 137.757 515.183 136.859 515.612 135.752C516.055 134.632 516.276 133.441 516.276 132.178ZM525.812 124.189V140.811H523.878V119.678H525.753L525.812 124.189ZM525.401 128.779L524.522 128.018C524.614 126.846 524.874 125.732 525.304 124.678C525.733 123.623 526.313 122.692 527.042 121.885C527.771 121.077 528.631 120.446 529.62 119.99C530.61 119.521 531.697 119.287 532.882 119.287C533.937 119.287 534.881 119.43 535.714 119.717C536.547 120.003 537.25 120.459 537.823 121.084C538.409 121.709 538.852 122.516 539.151 123.506C539.464 124.482 539.62 125.674 539.62 127.08V140.811H537.687V127.061C537.687 125.498 537.465 124.281 537.022 123.408C536.593 122.536 535.987 121.917 535.206 121.553C534.438 121.188 533.526 121.006 532.472 121.006C531.287 121.006 530.258 121.266 529.386 121.787C528.513 122.308 527.784 122.972 527.198 123.779C526.625 124.587 526.189 125.439 525.89 126.338C525.59 127.223 525.427 128.037 525.401 128.779ZM553.198 139.502C554.214 139.502 555.171 139.313 556.069 138.936C556.981 138.545 557.736 137.965 558.335 137.197C558.947 136.429 559.292 135.465 559.37 134.307H561.226C561.16 135.674 560.757 136.878 560.015 137.92C559.272 138.962 558.302 139.769 557.104 140.342C555.92 140.915 554.618 141.201 553.198 141.201C551.753 141.201 550.477 140.941 549.37 140.42C548.263 139.886 547.332 139.144 546.577 138.193C545.835 137.243 545.269 136.13 544.878 134.854C544.5 133.564 544.312 132.165 544.312 130.654V129.834C544.312 128.324 544.5 126.93 544.878 125.654C545.269 124.365 545.835 123.245 546.577 122.295C547.332 121.344 548.257 120.609 549.351 120.088C550.457 119.554 551.733 119.287 553.179 119.287C554.637 119.287 555.959 119.587 557.144 120.186C558.341 120.771 559.305 121.624 560.034 122.744C560.763 123.851 561.16 125.186 561.226 126.748H559.37C559.305 125.524 558.986 124.489 558.413 123.643C557.84 122.783 557.098 122.126 556.187 121.67C555.275 121.214 554.272 120.986 553.179 120.986C551.942 120.986 550.881 121.227 549.995 121.709C549.123 122.178 548.407 122.829 547.847 123.662C547.3 124.482 546.89 125.42 546.616 126.475C546.356 127.529 546.226 128.649 546.226 129.834V130.654C546.226 131.839 546.356 132.965 546.616 134.033C546.877 135.088 547.287 136.025 547.847 136.846C548.407 137.666 549.129 138.317 550.015 138.799C550.9 139.268 551.961 139.502 553.198 139.502ZM573.593 119.678V121.338H563.241V119.678H573.593ZM567.128 114.17H569.081V135.693C569.081 136.748 569.211 137.549 569.472 138.096C569.745 138.63 570.103 138.988 570.546 139.17C570.989 139.352 571.464 139.443 571.972 139.443C572.336 139.443 572.675 139.424 572.987 139.385C573.313 139.346 573.625 139.3 573.925 139.248L574.042 140.908C573.756 140.999 573.384 141.071 572.929 141.123C572.473 141.175 572.043 141.201 571.64 141.201C570.741 141.201 569.953 141.038 569.276 140.713C568.599 140.374 568.072 139.808 567.694 139.014C567.317 138.206 567.128 137.1 567.128 135.693V114.17ZM580.608 119.678V140.811H578.675V119.678H580.608ZM578.226 113.408C578.226 113.018 578.356 112.686 578.616 112.412C578.877 112.126 579.222 111.982 579.651 111.982C580.094 111.982 580.446 112.126 580.706 112.412C580.979 112.686 581.116 113.018 581.116 113.408C581.116 113.799 580.979 114.131 580.706 114.404C580.446 114.678 580.094 114.814 579.651 114.814C579.222 114.814 578.877 114.678 578.616 114.404C578.356 114.131 578.226 113.799 578.226 113.408ZM585.534 130.596V129.893C585.534 128.356 585.756 126.943 586.198 125.654C586.641 124.352 587.272 123.226 588.093 122.275C588.913 121.325 589.896 120.589 591.042 120.068C592.201 119.548 593.483 119.287 594.89 119.287C596.309 119.287 597.591 119.548 598.737 120.068C599.896 120.589 600.886 121.325 601.706 122.275C602.539 123.226 603.177 124.352 603.62 125.654C604.063 126.943 604.284 128.356 604.284 129.893V130.596C604.284 132.132 604.063 133.551 603.62 134.854C603.177 136.143 602.539 137.262 601.706 138.213C600.886 139.163 599.903 139.899 598.757 140.42C597.611 140.941 596.335 141.201 594.929 141.201C593.509 141.201 592.22 140.941 591.062 140.42C589.916 139.899 588.926 139.163 588.093 138.213C587.272 137.262 586.641 136.143 586.198 134.854C585.756 133.551 585.534 132.132 585.534 130.596ZM587.448 129.893V130.596C587.448 131.781 587.611 132.913 587.937 133.994C588.275 135.062 588.757 136.012 589.382 136.846C590.02 137.666 590.801 138.317 591.726 138.799C592.663 139.268 593.731 139.502 594.929 139.502C596.114 139.502 597.162 139.268 598.073 138.799C598.998 138.317 599.772 137.666 600.397 136.846C601.035 136.012 601.517 135.062 601.843 133.994C602.181 132.913 602.351 131.781 602.351 130.596V129.893C602.351 128.734 602.181 127.62 601.843 126.553C601.517 125.485 601.035 124.535 600.397 123.701C599.759 122.868 598.978 122.21 598.054 121.729C597.129 121.234 596.075 120.986 594.89 120.986C593.705 120.986 592.65 121.234 591.726 121.729C590.801 122.21 590.02 122.868 589.382 123.701C588.744 124.535 588.262 125.485 587.937 126.553C587.611 127.62 587.448 128.734 587.448 129.893ZM610.89 124.189V140.811H608.956V119.678H610.831L610.89 124.189ZM610.479 128.779L609.601 128.018C609.692 126.846 609.952 125.732 610.382 124.678C610.812 123.623 611.391 122.692 612.12 121.885C612.849 121.077 613.709 120.446 614.698 119.99C615.688 119.521 616.775 119.287 617.96 119.287C619.015 119.287 619.959 119.43 620.792 119.717C621.625 120.003 622.328 120.459 622.901 121.084C623.487 121.709 623.93 122.516 624.229 123.506C624.542 124.482 624.698 125.674 624.698 127.08V140.811H622.765V127.061C622.765 125.498 622.543 124.281 622.101 123.408C621.671 122.536 621.065 121.917 620.284 121.553C619.516 121.188 618.604 121.006 617.55 121.006C616.365 121.006 615.336 121.266 614.464 121.787C613.591 122.308 612.862 122.972 612.276 123.779C611.703 124.587 611.267 125.439 610.968 126.338C610.668 127.223 610.506 128.037 610.479 128.779ZM643.647 136.963V126.064C643.647 125.01 643.426 124.105 642.983 123.35C642.541 122.581 641.89 121.995 641.03 121.592C640.184 121.175 639.136 120.967 637.886 120.967C636.74 120.967 635.711 121.169 634.8 121.572C633.901 121.976 633.185 122.523 632.651 123.213C632.131 123.903 631.87 124.671 631.87 125.518L629.956 125.479C629.956 124.684 630.145 123.916 630.522 123.174C630.913 122.432 631.46 121.768 632.163 121.182C632.879 120.596 633.726 120.133 634.702 119.795C635.692 119.456 636.779 119.287 637.964 119.287C639.461 119.287 640.776 119.541 641.909 120.049C643.055 120.544 643.953 121.299 644.604 122.314C645.256 123.317 645.581 124.58 645.581 126.104V136.436C645.581 137.165 645.633 137.92 645.737 138.701C645.841 139.482 645.998 140.114 646.206 140.596V140.811H644.116C643.96 140.329 643.843 139.736 643.765 139.033C643.687 138.317 643.647 137.627 643.647 136.963ZM644.175 128.662L644.214 130.244H639.351C638.088 130.244 636.961 130.361 635.972 130.596C634.995 130.817 634.162 131.143 633.472 131.572C632.795 132.002 632.274 132.523 631.909 133.135C631.545 133.734 631.362 134.411 631.362 135.166C631.362 135.947 631.564 136.663 631.968 137.314C632.371 137.965 632.944 138.486 633.687 138.877C634.442 139.255 635.321 139.443 636.323 139.443C637.677 139.443 638.875 139.202 639.917 138.721C640.972 138.239 641.844 137.594 642.534 136.787C643.224 135.967 643.713 135.049 643.999 134.033L644.839 135.264C644.644 135.928 644.318 136.611 643.862 137.314C643.407 138.005 642.814 138.643 642.085 139.229C641.356 139.814 640.496 140.29 639.507 140.654C638.53 141.019 637.41 141.201 636.147 141.201C634.793 141.201 633.608 140.947 632.593 140.439C631.59 139.919 630.809 139.215 630.249 138.33C629.702 137.432 629.429 136.416 629.429 135.283C629.429 134.281 629.65 133.376 630.093 132.568C630.535 131.748 631.174 131.051 632.007 130.479C632.84 129.893 633.856 129.443 635.054 129.131C636.252 128.818 637.599 128.662 639.097 128.662H644.175ZM653.944 110.811V140.811H652.011V110.811H653.944ZM662.171 137.295V139.99C662.171 141.188 661.943 142.308 661.487 143.35C661.032 144.404 660.42 145.296 659.651 146.025L658.479 145.127C658.87 144.606 659.202 144.079 659.476 143.545C659.749 143.024 659.951 142.477 660.081 141.904C660.211 141.331 660.276 140.706 660.276 140.029V137.295H662.171ZM678.976 110.811V140.811H677.042V110.811H678.976ZM678.565 128.779L677.687 128.018C677.778 126.846 678.038 125.732 678.468 124.678C678.897 123.623 679.477 122.692 680.206 121.885C680.935 121.077 681.795 120.446 682.784 119.99C683.774 119.521 684.861 119.287 686.046 119.287C687.101 119.287 688.045 119.43 688.878 119.717C689.711 120.003 690.414 120.459 690.987 121.084C691.573 121.709 692.016 122.516 692.315 123.506C692.628 124.482 692.784 125.674 692.784 127.08V140.811H690.851V127.061C690.851 125.498 690.629 124.281 690.187 123.408C689.757 122.536 689.151 121.917 688.37 121.553C687.602 121.188 686.69 121.006 685.636 121.006C684.451 121.006 683.422 121.266 682.55 121.787C681.677 122.308 680.948 122.972 680.362 123.779C679.789 124.587 679.353 125.439 679.054 126.338C678.754 127.223 678.591 128.037 678.565 128.779ZM711.733 136.963V126.064C711.733 125.01 711.512 124.105 711.069 123.35C710.627 122.581 709.976 121.995 709.116 121.592C708.27 121.175 707.222 120.967 705.972 120.967C704.826 120.967 703.797 121.169 702.886 121.572C701.987 121.976 701.271 122.523 700.737 123.213C700.216 123.903 699.956 124.671 699.956 125.518L698.042 125.479C698.042 124.684 698.231 123.916 698.608 123.174C698.999 122.432 699.546 121.768 700.249 121.182C700.965 120.596 701.812 120.133 702.788 119.795C703.778 119.456 704.865 119.287 706.05 119.287C707.547 119.287 708.862 119.541 709.995 120.049C711.141 120.544 712.039 121.299 712.69 122.314C713.341 123.317 713.667 124.58 713.667 126.104V136.436C713.667 137.165 713.719 137.92 713.823 138.701C713.927 139.482 714.084 140.114 714.292 140.596V140.811H712.202C712.046 140.329 711.929 139.736 711.851 139.033C711.772 138.317 711.733 137.627 711.733 136.963ZM712.261 128.662L712.3 130.244H707.437C706.174 130.244 705.047 130.361 704.058 130.596C703.081 130.817 702.248 131.143 701.558 131.572C700.881 132.002 700.36 132.523 699.995 133.135C699.631 133.734 699.448 134.411 699.448 135.166C699.448 135.947 699.65 136.663 700.054 137.314C700.457 137.965 701.03 138.486 701.772 138.877C702.528 139.255 703.407 139.443 704.409 139.443C705.763 139.443 706.961 139.202 708.003 138.721C709.058 138.239 709.93 137.594 710.62 136.787C711.31 135.967 711.799 135.049 712.085 134.033L712.925 135.264C712.729 135.928 712.404 136.611 711.948 137.314C711.493 138.005 710.9 138.643 710.171 139.229C709.442 139.814 708.582 140.29 707.593 140.654C706.616 141.019 705.496 141.201 704.233 141.201C702.879 141.201 701.694 140.947 700.679 140.439C699.676 139.919 698.895 139.215 698.335 138.33C697.788 137.432 697.515 136.416 697.515 135.283C697.515 134.281 697.736 133.376 698.179 132.568C698.621 131.748 699.259 131.051 700.093 130.479C700.926 129.893 701.942 129.443 703.14 129.131C704.338 128.818 705.685 128.662 707.183 128.662H712.261ZM721.757 124.189V140.811H719.823V119.678H721.698L721.757 124.189ZM721.347 128.779L720.468 128.018C720.559 126.846 720.819 125.732 721.249 124.678C721.679 123.623 722.258 122.692 722.987 121.885C723.716 121.077 724.576 120.446 725.565 119.99C726.555 119.521 727.642 119.287 728.827 119.287C729.882 119.287 730.826 119.43 731.659 119.717C732.493 120.003 733.196 120.459 733.769 121.084C734.354 121.709 734.797 122.516 735.097 123.506C735.409 124.482 735.565 125.674 735.565 127.08V140.811H733.632V127.061C733.632 125.498 733.41 124.281 732.968 123.408C732.538 122.536 731.933 121.917 731.151 121.553C730.383 121.188 729.472 121.006 728.417 121.006C727.232 121.006 726.203 121.266 725.331 121.787C724.459 122.308 723.729 122.972 723.144 123.779C722.571 124.587 722.134 125.439 721.835 126.338C721.535 127.223 721.373 128.037 721.347 128.779ZM755.413 136.709V110.811H757.347V140.811H755.511L755.413 136.709ZM740.589 130.459V130.049C740.589 128.395 740.771 126.911 741.136 125.596C741.513 124.268 742.054 123.135 742.757 122.197C743.46 121.26 744.306 120.544 745.296 120.049C746.299 119.541 747.431 119.287 748.694 119.287C749.905 119.287 750.979 119.482 751.917 119.873C752.854 120.264 753.662 120.817 754.339 121.533C755.016 122.249 755.569 123.096 755.999 124.072C756.429 125.049 756.748 126.13 756.956 127.314V133.604C756.8 134.684 756.507 135.687 756.077 136.611C755.66 137.536 755.107 138.343 754.417 139.033C753.74 139.723 752.92 140.257 751.956 140.635C750.993 141.012 749.892 141.201 748.655 141.201C747.405 141.201 746.279 140.941 745.276 140.42C744.287 139.899 743.44 139.163 742.737 138.213C742.047 137.249 741.513 136.117 741.136 134.814C740.771 133.499 740.589 132.048 740.589 130.459ZM742.542 130.049V130.459C742.542 131.735 742.672 132.926 742.933 134.033C743.193 135.127 743.584 136.077 744.104 136.885C744.625 137.692 745.289 138.324 746.097 138.779C746.904 139.235 747.854 139.463 748.948 139.463C750.328 139.463 751.494 139.209 752.444 138.701C753.395 138.18 754.157 137.49 754.729 136.631C755.302 135.771 755.713 134.827 755.96 133.799V127.295C755.804 126.618 755.576 125.915 755.276 125.186C754.977 124.456 754.56 123.779 754.026 123.154C753.493 122.516 752.815 122.002 751.995 121.611C751.175 121.221 750.172 121.025 748.987 121.025C747.881 121.025 746.924 121.253 746.116 121.709C745.309 122.165 744.638 122.803 744.104 123.623C743.584 124.43 743.193 125.381 742.933 126.475C742.672 127.568 742.542 128.76 742.542 130.049ZM776.218 135.479C776.218 134.893 776.062 134.307 775.749 133.721C775.437 133.122 774.857 132.575 774.011 132.08C773.164 131.572 771.927 131.149 770.3 130.811C769.128 130.55 768.086 130.264 767.175 129.951C766.263 129.626 765.495 129.235 764.87 128.779C764.258 128.324 763.789 127.783 763.464 127.158C763.151 126.52 762.995 125.771 762.995 124.912C762.995 124.131 763.164 123.402 763.503 122.725C763.841 122.048 764.33 121.455 764.968 120.947C765.606 120.426 766.374 120.023 767.272 119.736C768.184 119.437 769.206 119.287 770.339 119.287C771.953 119.287 773.334 119.561 774.479 120.107C775.625 120.641 776.504 121.377 777.116 122.314C777.741 123.252 778.054 124.32 778.054 125.518H776.12C776.12 124.736 775.892 124.007 775.437 123.33C774.994 122.64 774.343 122.08 773.483 121.65C772.624 121.208 771.576 120.986 770.339 120.986C769.05 120.986 768.008 121.182 767.214 121.572C766.42 121.963 765.84 122.451 765.476 123.037C765.111 123.623 764.929 124.229 764.929 124.854C764.929 125.348 765 125.798 765.144 126.201C765.3 126.605 765.586 126.982 766.003 127.334C766.42 127.686 767.012 128.018 767.78 128.33C768.562 128.63 769.571 128.923 770.808 129.209C772.513 129.587 773.9 130.049 774.968 130.596C776.049 131.13 776.843 131.787 777.351 132.568C777.871 133.35 778.132 134.294 778.132 135.4C778.132 136.26 777.95 137.048 777.585 137.764C777.233 138.467 776.719 139.079 776.042 139.6C775.378 140.107 774.571 140.505 773.62 140.791C772.683 141.064 771.634 141.201 770.476 141.201C768.705 141.201 767.214 140.915 766.003 140.342C764.792 139.769 763.874 139.014 763.249 138.076C762.624 137.139 762.312 136.13 762.312 135.049H764.245C764.323 136.182 764.681 137.074 765.319 137.725C765.97 138.376 766.758 138.838 767.683 139.111C768.62 139.372 769.551 139.502 770.476 139.502C771.726 139.502 772.774 139.313 773.62 138.936C774.479 138.545 775.124 138.044 775.554 137.432C775.996 136.82 776.218 136.169 776.218 135.479ZM790.519 127.256V128.975H781.222V127.256H790.519ZM793.315 130.596V129.893C793.315 128.356 793.537 126.943 793.979 125.654C794.422 124.352 795.054 123.226 795.874 122.275C796.694 121.325 797.677 120.589 798.823 120.068C799.982 119.548 801.265 119.287 802.671 119.287C804.09 119.287 805.373 119.548 806.519 120.068C807.677 120.589 808.667 121.325 809.487 122.275C810.321 123.226 810.959 124.352 811.401 125.654C811.844 126.943 812.065 128.356 812.065 129.893V130.596C812.065 132.132 811.844 133.551 811.401 134.854C810.959 136.143 810.321 137.262 809.487 138.213C808.667 139.163 807.684 139.899 806.538 140.42C805.392 140.941 804.116 141.201 802.71 141.201C801.291 141.201 800.002 140.941 798.843 140.42C797.697 139.899 796.707 139.163 795.874 138.213C795.054 137.262 794.422 136.143 793.979 134.854C793.537 133.551 793.315 132.132 793.315 130.596ZM795.229 129.893V130.596C795.229 131.781 795.392 132.913 795.718 133.994C796.056 135.062 796.538 136.012 797.163 136.846C797.801 137.666 798.582 138.317 799.507 138.799C800.444 139.268 801.512 139.502 802.71 139.502C803.895 139.502 804.943 139.268 805.854 138.799C806.779 138.317 807.554 137.666 808.179 136.846C808.817 136.012 809.299 135.062 809.624 133.994C809.963 132.913 810.132 131.781 810.132 130.596V129.893C810.132 128.734 809.963 127.62 809.624 126.553C809.299 125.485 808.817 124.535 808.179 123.701C807.541 122.868 806.759 122.21 805.835 121.729C804.91 121.234 803.856 120.986 802.671 120.986C801.486 120.986 800.431 121.234 799.507 121.729C798.582 122.21 797.801 122.868 797.163 123.701C796.525 124.535 796.043 125.485 795.718 126.553C795.392 127.62 795.229 128.734 795.229 129.893ZM818.671 124.189V140.811H816.737V119.678H818.612L818.671 124.189ZM818.261 128.779L817.382 128.018C817.473 126.846 817.733 125.732 818.163 124.678C818.593 123.623 819.172 122.692 819.901 121.885C820.631 121.077 821.49 120.446 822.479 119.99C823.469 119.521 824.556 119.287 825.741 119.287C826.796 119.287 827.74 119.43 828.573 119.717C829.407 120.003 830.11 120.459 830.683 121.084C831.269 121.709 831.711 122.516 832.011 123.506C832.323 124.482 832.479 125.674 832.479 127.08V140.811H830.546V127.061C830.546 125.498 830.325 124.281 829.882 123.408C829.452 122.536 828.847 121.917 828.065 121.553C827.297 121.188 826.386 121.006 825.331 121.006C824.146 121.006 823.118 121.266 822.245 121.787C821.373 122.308 820.644 122.972 820.058 123.779C819.485 124.587 819.049 125.439 818.749 126.338C818.45 127.223 818.287 128.037 818.261 128.779ZM855.495 139.502C856.511 139.502 857.468 139.313 858.366 138.936C859.278 138.545 860.033 137.965 860.632 137.197C861.244 136.429 861.589 135.465 861.667 134.307H863.522C863.457 135.674 863.054 136.878 862.312 137.92C861.569 138.962 860.599 139.769 859.401 140.342C858.216 140.915 856.914 141.201 855.495 141.201C854.05 141.201 852.774 140.941 851.667 140.42C850.56 139.886 849.629 139.144 848.874 138.193C848.132 137.243 847.565 136.13 847.175 134.854C846.797 133.564 846.608 132.165 846.608 130.654V129.834C846.608 128.324 846.797 126.93 847.175 125.654C847.565 124.365 848.132 123.245 848.874 122.295C849.629 121.344 850.554 120.609 851.647 120.088C852.754 119.554 854.03 119.287 855.476 119.287C856.934 119.287 858.256 119.587 859.44 120.186C860.638 120.771 861.602 121.624 862.331 122.744C863.06 123.851 863.457 125.186 863.522 126.748H861.667C861.602 125.524 861.283 124.489 860.71 123.643C860.137 122.783 859.395 122.126 858.483 121.67C857.572 121.214 856.569 120.986 855.476 120.986C854.239 120.986 853.177 121.227 852.292 121.709C851.42 122.178 850.703 122.829 850.144 123.662C849.597 124.482 849.187 125.42 848.913 126.475C848.653 127.529 848.522 128.649 848.522 129.834V130.654C848.522 131.839 848.653 132.965 848.913 134.033C849.174 135.088 849.584 136.025 850.144 136.846C850.703 137.666 851.426 138.317 852.312 138.799C853.197 139.268 854.258 139.502 855.495 139.502ZM870.069 123.232V140.811H868.136V119.678H870.03L870.069 123.232ZM877.843 119.521L877.765 121.279C877.517 121.24 877.27 121.214 877.022 121.201C876.788 121.175 876.534 121.162 876.261 121.162C875.193 121.162 874.256 121.364 873.448 121.768C872.641 122.171 871.964 122.731 871.417 123.447C870.883 124.163 870.473 124.997 870.187 125.947C869.913 126.885 869.763 127.9 869.737 128.994L868.937 129.229C868.937 127.809 869.08 126.501 869.366 125.303C869.666 124.092 870.121 123.037 870.733 122.139C871.345 121.24 872.114 120.544 873.038 120.049C873.963 119.541 875.056 119.287 876.319 119.287C876.619 119.287 876.905 119.313 877.179 119.365C877.465 119.404 877.687 119.456 877.843 119.521ZM888.94 141.201C887.586 141.201 886.336 140.947 885.19 140.439C884.045 139.932 883.049 139.215 882.202 138.291C881.356 137.354 880.698 136.253 880.229 134.99C879.761 133.714 879.526 132.314 879.526 130.791V129.951C879.526 128.337 879.761 126.878 880.229 125.576C880.711 124.274 881.369 123.154 882.202 122.217C883.049 121.266 884.012 120.544 885.093 120.049C886.174 119.541 887.319 119.287 888.53 119.287C889.806 119.287 890.952 119.521 891.968 119.99C892.996 120.446 893.869 121.097 894.585 121.943C895.301 122.79 895.841 123.792 896.206 124.951C896.584 126.097 896.772 127.367 896.772 128.76V130.127H880.718V128.428H894.839V128.174C894.826 126.911 894.572 125.739 894.077 124.658C893.595 123.564 892.886 122.679 891.948 122.002C891.024 121.325 889.884 120.986 888.53 120.986C887.476 120.986 886.512 121.214 885.64 121.67C884.78 122.113 884.038 122.738 883.413 123.545C882.788 124.339 882.306 125.283 881.968 126.377C881.629 127.458 881.46 128.649 881.46 129.951V130.791C881.46 132.002 881.642 133.135 882.007 134.189C882.384 135.244 882.905 136.169 883.569 136.963C884.246 137.757 885.047 138.382 885.972 138.838C886.896 139.294 887.905 139.521 888.999 139.521C890.236 139.521 891.349 139.3 892.339 138.857C893.328 138.402 894.227 137.653 895.034 136.611L896.265 137.549C895.809 138.226 895.243 138.844 894.565 139.404C893.888 139.951 893.088 140.387 892.163 140.713C891.239 141.038 890.164 141.201 888.94 141.201ZM907.226 135.498L912.206 119.678H913.651L912.499 124.326L907.226 140.811H905.78L907.226 135.498ZM901.425 119.678L905.858 135.576L906.991 140.811H905.526L899.394 119.678H901.425ZM920.351 135.518L924.687 119.678H926.718L920.565 140.811H919.12L920.351 135.518ZM913.905 119.678L918.847 135.4L920.312 140.811H918.886L913.495 124.307L912.421 119.678H913.905ZM948.327 119.678V121.338H937.976V119.678H948.327ZM941.862 114.17H943.815V135.693C943.815 136.748 943.946 137.549 944.206 138.096C944.479 138.63 944.838 138.988 945.28 139.17C945.723 139.352 946.198 139.443 946.706 139.443C947.071 139.443 947.409 139.424 947.722 139.385C948.047 139.346 948.36 139.3 948.659 139.248L948.776 140.908C948.49 140.999 948.119 141.071 947.663 141.123C947.207 141.175 946.778 141.201 946.374 141.201C945.476 141.201 944.688 141.038 944.011 140.713C943.334 140.374 942.806 139.808 942.429 139.014C942.051 138.206 941.862 137.1 941.862 135.693V114.17ZM955.069 110.811V140.811H953.136V110.811H955.069ZM954.659 128.779L953.78 128.018C953.871 126.846 954.132 125.732 954.562 124.678C954.991 123.623 955.571 122.692 956.3 121.885C957.029 121.077 957.888 120.446 958.878 119.99C959.868 119.521 960.955 119.287 962.14 119.287C963.194 119.287 964.138 119.43 964.972 119.717C965.805 120.003 966.508 120.459 967.081 121.084C967.667 121.709 968.11 122.516 968.409 123.506C968.722 124.482 968.878 125.674 968.878 127.08V140.811H966.944V127.061C966.944 125.498 966.723 124.281 966.28 123.408C965.851 122.536 965.245 121.917 964.464 121.553C963.696 121.188 962.784 121.006 961.729 121.006C960.545 121.006 959.516 121.266 958.644 121.787C957.771 122.308 957.042 122.972 956.456 123.779C955.883 124.587 955.447 125.439 955.147 126.338C954.848 127.223 954.685 128.037 954.659 128.779ZM987.827 136.963V126.064C987.827 125.01 987.606 124.105 987.163 123.35C986.72 122.581 986.069 121.995 985.21 121.592C984.364 121.175 983.315 120.967 982.065 120.967C980.92 120.967 979.891 121.169 978.979 121.572C978.081 121.976 977.365 122.523 976.831 123.213C976.31 123.903 976.05 124.671 976.05 125.518L974.136 125.479C974.136 124.684 974.325 123.916 974.702 123.174C975.093 122.432 975.64 121.768 976.343 121.182C977.059 120.596 977.905 120.133 978.882 119.795C979.871 119.456 980.959 119.287 982.144 119.287C983.641 119.287 984.956 119.541 986.089 120.049C987.235 120.544 988.133 121.299 988.784 122.314C989.435 123.317 989.761 124.58 989.761 126.104V136.436C989.761 137.165 989.813 137.92 989.917 138.701C990.021 139.482 990.177 140.114 990.386 140.596V140.811H988.296C988.14 140.329 988.022 139.736 987.944 139.033C987.866 138.317 987.827 137.627 987.827 136.963ZM988.354 128.662L988.394 130.244H983.53C982.267 130.244 981.141 130.361 980.151 130.596C979.175 130.817 978.341 131.143 977.651 131.572C976.974 132.002 976.453 132.523 976.089 133.135C975.724 133.734 975.542 134.411 975.542 135.166C975.542 135.947 975.744 136.663 976.147 137.314C976.551 137.965 977.124 138.486 977.866 138.877C978.621 139.255 979.5 139.443 980.503 139.443C981.857 139.443 983.055 139.202 984.097 138.721C985.151 138.239 986.024 137.594 986.714 136.787C987.404 135.967 987.892 135.049 988.179 134.033L989.019 135.264C988.823 135.928 988.498 136.611 988.042 137.314C987.586 138.005 986.994 138.643 986.265 139.229C985.535 139.814 984.676 140.29 983.687 140.654C982.71 141.019 981.59 141.201 980.327 141.201C978.973 141.201 977.788 140.947 976.772 140.439C975.77 139.919 974.989 139.215 974.429 138.33C973.882 137.432 973.608 136.416 973.608 135.283C973.608 134.281 973.83 133.376 974.272 132.568C974.715 131.748 975.353 131.051 976.187 130.479C977.02 129.893 978.035 129.443 979.233 129.131C980.431 128.818 981.779 128.662 983.276 128.662H988.354ZM1003.67 119.678V121.338H993.319V119.678H1003.67ZM997.206 114.17H999.159V135.693C999.159 136.748 999.289 137.549 999.55 138.096C999.823 138.63 1000.18 138.988 1000.62 139.17C1001.07 139.352 1001.54 139.443 1002.05 139.443C1002.41 139.443 1002.75 139.424 1003.07 139.385C1003.39 139.346 1003.7 139.3 1004 139.248L1004.12 140.908C1003.83 140.999 1003.46 141.071 1003.01 141.123C1002.55 141.175 1002.12 141.201 1001.72 141.201C1000.82 141.201 1000.03 141.038 999.354 140.713C998.677 140.374 998.15 139.808 997.772 139.014C997.395 138.206 997.206 137.1 997.206 135.693V114.17ZM1025.67 119.678V121.338H1015.32V119.678H1025.67ZM1019.21 114.17H1021.16V135.693C1021.16 136.748 1021.29 137.549 1021.55 138.096C1021.82 138.63 1022.18 138.988 1022.62 139.17C1023.07 139.352 1023.54 139.443 1024.05 139.443C1024.41 139.443 1024.75 139.424 1025.07 139.385C1025.39 139.346 1025.7 139.3 1026 139.248L1026.12 140.908C1025.83 140.999 1025.46 141.071 1025.01 141.123C1024.55 141.175 1024.12 141.201 1023.72 141.201C1022.82 141.201 1022.03 141.038 1021.35 140.713C1020.68 140.374 1020.15 139.808 1019.77 139.014C1019.39 138.206 1019.21 137.1 1019.21 135.693V114.17ZM1032.41 123.232V140.811H1030.48V119.678H1032.37L1032.41 123.232ZM1040.19 119.521L1040.11 121.279C1039.86 121.24 1039.61 121.214 1039.37 121.201C1039.13 121.175 1038.88 121.162 1038.6 121.162C1037.54 121.162 1036.6 121.364 1035.79 121.768C1034.98 122.171 1034.31 122.731 1033.76 123.447C1033.23 124.163 1032.82 124.997 1032.53 125.947C1032.26 126.885 1032.11 127.9 1032.08 128.994L1031.28 129.229C1031.28 127.809 1031.42 126.501 1031.71 125.303C1032.01 124.092 1032.47 123.037 1033.08 122.139C1033.69 121.24 1034.46 120.544 1035.38 120.049C1036.31 119.541 1037.4 119.287 1038.66 119.287C1038.96 119.287 1039.25 119.313 1039.52 119.365C1039.81 119.404 1040.03 119.456 1040.19 119.521ZM1051.28 141.201C1049.93 141.201 1048.68 140.947 1047.53 140.439C1046.39 139.932 1045.39 139.215 1044.55 138.291C1043.7 137.354 1043.04 136.253 1042.57 134.99C1042.1 133.714 1041.87 132.314 1041.87 130.791V129.951C1041.87 128.337 1042.1 126.878 1042.57 125.576C1043.06 124.274 1043.71 123.154 1044.55 122.217C1045.39 121.266 1046.36 120.544 1047.44 120.049C1048.52 119.541 1049.66 119.287 1050.87 119.287C1052.15 119.287 1053.3 119.521 1054.31 119.99C1055.34 120.446 1056.21 121.097 1056.93 121.943C1057.64 122.79 1058.19 123.792 1058.55 124.951C1058.93 126.097 1059.12 127.367 1059.12 128.76V130.127H1043.06V128.428H1057.18V128.174C1057.17 126.911 1056.92 125.739 1056.42 124.658C1055.94 123.564 1055.23 122.679 1054.29 122.002C1053.37 121.325 1052.23 120.986 1050.87 120.986C1049.82 120.986 1048.86 121.214 1047.98 121.67C1047.12 122.113 1046.38 122.738 1045.76 123.545C1045.13 124.339 1044.65 125.283 1044.31 126.377C1043.97 127.458 1043.8 128.649 1043.8 129.951V130.791C1043.8 132.002 1043.99 133.135 1044.35 134.189C1044.73 135.244 1045.25 136.169 1045.91 136.963C1046.59 137.757 1047.39 138.382 1048.32 138.838C1049.24 139.294 1050.25 139.521 1051.34 139.521C1052.58 139.521 1053.69 139.3 1054.68 138.857C1055.67 138.402 1056.57 137.653 1057.38 136.611L1058.61 137.549C1058.15 138.226 1057.59 138.844 1056.91 139.404C1056.23 139.951 1055.43 140.387 1054.51 140.713C1053.58 141.038 1052.51 141.201 1051.28 141.201ZM1076.52 136.963V126.064C1076.52 125.01 1076.3 124.105 1075.86 123.35C1075.42 122.581 1074.76 121.995 1073.91 121.592C1073.06 121.175 1072.01 120.967 1070.76 120.967C1069.61 120.967 1068.59 121.169 1067.67 121.572C1066.78 121.976 1066.06 122.523 1065.53 123.213C1065.01 123.903 1064.75 124.671 1064.75 125.518L1062.83 125.479C1062.83 124.684 1063.02 123.916 1063.4 123.174C1063.79 122.432 1064.33 121.768 1065.04 121.182C1065.75 120.596 1066.6 120.133 1067.58 119.795C1068.57 119.456 1069.65 119.287 1070.84 119.287C1072.34 119.287 1073.65 119.541 1074.78 120.049C1075.93 120.544 1076.83 121.299 1077.48 122.314C1078.13 123.317 1078.46 124.58 1078.46 126.104V136.436C1078.46 137.165 1078.51 137.92 1078.61 138.701C1078.72 139.482 1078.87 140.114 1079.08 140.596V140.811H1076.99C1076.83 140.329 1076.72 139.736 1076.64 139.033C1076.56 138.317 1076.52 137.627 1076.52 136.963ZM1077.05 128.662L1077.09 130.244H1072.23C1070.96 130.244 1069.84 130.361 1068.85 130.596C1067.87 130.817 1067.04 131.143 1066.35 131.572C1065.67 132.002 1065.15 132.523 1064.78 133.135C1064.42 133.734 1064.24 134.411 1064.24 135.166C1064.24 135.947 1064.44 136.663 1064.84 137.314C1065.25 137.965 1065.82 138.486 1066.56 138.877C1067.32 139.255 1068.2 139.443 1069.2 139.443C1070.55 139.443 1071.75 139.202 1072.79 138.721C1073.85 138.239 1074.72 137.594 1075.41 136.787C1076.1 135.967 1076.59 135.049 1076.87 134.033L1077.71 135.264C1077.52 135.928 1077.19 136.611 1076.74 137.314C1076.28 138.005 1075.69 138.643 1074.96 139.229C1074.23 139.814 1073.37 140.29 1072.38 140.654C1071.41 141.019 1070.29 141.201 1069.02 141.201C1067.67 141.201 1066.48 140.947 1065.47 140.439C1064.47 139.919 1063.68 139.215 1063.12 138.33C1062.58 137.432 1062.3 136.416 1062.3 135.283C1062.3 134.281 1062.53 133.376 1062.97 132.568C1063.41 131.748 1064.05 131.051 1064.88 130.479C1065.72 129.893 1066.73 129.443 1067.93 129.131C1069.13 128.818 1070.47 128.662 1071.97 128.662H1077.05ZM1092.37 119.678V121.338H1082.01V119.678H1092.37ZM1085.9 114.17H1087.85V135.693C1087.85 136.748 1087.98 137.549 1088.25 138.096C1088.52 138.63 1088.88 138.988 1089.32 139.17C1089.76 139.352 1090.24 139.443 1090.75 139.443C1091.11 139.443 1091.45 139.424 1091.76 139.385C1092.09 139.346 1092.4 139.3 1092.7 139.248L1092.82 140.908C1092.53 140.999 1092.16 141.071 1091.7 141.123C1091.25 141.175 1090.82 141.201 1090.41 141.201C1089.51 141.201 1088.73 141.038 1088.05 140.713C1087.37 140.374 1086.85 139.808 1086.47 139.014C1086.09 138.206 1085.9 137.1 1085.9 135.693V114.17ZM1109.97 135.479C1109.97 134.893 1109.81 134.307 1109.5 133.721C1109.19 133.122 1108.61 132.575 1107.76 132.08C1106.91 131.572 1105.68 131.149 1104.05 130.811C1102.88 130.55 1101.84 130.264 1100.92 129.951C1100.01 129.626 1099.25 129.235 1098.62 128.779C1098.01 128.324 1097.54 127.783 1097.21 127.158C1096.9 126.52 1096.75 125.771 1096.75 124.912C1096.75 124.131 1096.91 123.402 1097.25 122.725C1097.59 122.048 1098.08 121.455 1098.72 120.947C1099.36 120.426 1100.12 120.023 1101.02 119.736C1101.93 119.437 1102.96 119.287 1104.09 119.287C1105.7 119.287 1107.08 119.561 1108.23 120.107C1109.38 120.641 1110.25 121.377 1110.87 122.314C1111.49 123.252 1111.8 124.32 1111.8 125.518H1109.87C1109.87 124.736 1109.64 124.007 1109.19 123.33C1108.74 122.64 1108.09 122.08 1107.23 121.65C1106.37 121.208 1105.33 120.986 1104.09 120.986C1102.8 120.986 1101.76 121.182 1100.96 121.572C1100.17 121.963 1099.59 122.451 1099.23 123.037C1098.86 123.623 1098.68 124.229 1098.68 124.854C1098.68 125.348 1098.75 125.798 1098.89 126.201C1099.05 126.605 1099.34 126.982 1099.75 127.334C1100.17 127.686 1100.76 128.018 1101.53 128.33C1102.31 128.63 1103.32 128.923 1104.56 129.209C1106.26 129.587 1107.65 130.049 1108.72 130.596C1109.8 131.13 1110.59 131.787 1111.1 132.568C1111.62 133.35 1111.88 134.294 1111.88 135.4C1111.88 136.26 1111.7 137.048 1111.33 137.764C1110.98 138.467 1110.47 139.079 1109.79 139.6C1109.13 140.107 1108.32 140.505 1107.37 140.791C1106.43 141.064 1105.38 141.201 1104.23 141.201C1102.45 141.201 1100.96 140.915 1099.75 140.342C1098.54 139.769 1097.62 139.014 1097 138.076C1096.37 137.139 1096.06 136.13 1096.06 135.049H1098C1098.07 136.182 1098.43 137.074 1099.07 137.725C1099.72 138.376 1100.51 138.838 1101.43 139.111C1102.37 139.372 1103.3 139.502 1104.23 139.502C1105.48 139.502 1106.52 139.313 1107.37 138.936C1108.23 138.545 1108.87 138.044 1109.3 137.432C1109.75 136.82 1109.97 136.169 1109.97 135.479ZM1132.91 138.721L1139.72 119.678H1141.81L1132.73 144.248C1132.55 144.717 1132.32 145.238 1132.05 145.811C1131.79 146.396 1131.43 146.956 1130.99 147.49C1130.56 148.037 1130.01 148.48 1129.35 148.818C1128.7 149.17 1127.89 149.346 1126.93 149.346C1126.69 149.346 1126.39 149.32 1126.01 149.268C1125.63 149.215 1125.37 149.157 1125.21 149.092L1125.19 147.451C1125.35 147.49 1125.57 147.523 1125.85 147.549C1126.14 147.575 1126.34 147.588 1126.46 147.588C1127.31 147.588 1128.02 147.432 1128.59 147.119C1129.17 146.807 1129.66 146.357 1130.05 145.771C1130.44 145.186 1130.79 144.476 1131.09 143.643L1132.91 138.721ZM1126.19 119.678L1133.32 138.369L1133.86 140.361L1132.42 141.221L1124.08 119.678H1126.19ZM1143.65 130.596V129.893C1143.65 128.356 1143.87 126.943 1144.32 125.654C1144.76 124.352 1145.39 123.226 1146.21 122.275C1147.03 121.325 1148.01 120.589 1149.16 120.068C1150.32 119.548 1151.6 119.287 1153.01 119.287C1154.43 119.287 1155.71 119.548 1156.85 120.068C1158.01 120.589 1159 121.325 1159.82 122.275C1160.66 123.226 1161.29 124.352 1161.74 125.654C1162.18 126.943 1162.4 128.356 1162.4 129.893V130.596C1162.4 132.132 1162.18 133.551 1161.74 134.854C1161.29 136.143 1160.66 137.262 1159.82 138.213C1159 139.163 1158.02 139.899 1156.87 140.42C1155.73 140.941 1154.45 141.201 1153.05 141.201C1151.63 141.201 1150.34 140.941 1149.18 140.42C1148.03 139.899 1147.04 139.163 1146.21 138.213C1145.39 137.262 1144.76 136.143 1144.32 134.854C1143.87 133.551 1143.65 132.132 1143.65 130.596ZM1145.57 129.893V130.596C1145.57 131.781 1145.73 132.913 1146.05 133.994C1146.39 135.062 1146.87 136.012 1147.5 136.846C1148.14 137.666 1148.92 138.317 1149.84 138.799C1150.78 139.268 1151.85 139.502 1153.05 139.502C1154.23 139.502 1155.28 139.268 1156.19 138.799C1157.11 138.317 1157.89 137.666 1158.51 136.846C1159.15 136.012 1159.63 135.062 1159.96 133.994C1160.3 132.913 1160.47 131.781 1160.47 130.596V129.893C1160.47 128.734 1160.3 127.62 1159.96 126.553C1159.63 125.485 1159.15 124.535 1158.51 123.701C1157.88 122.868 1157.1 122.21 1156.17 121.729C1155.25 121.234 1154.19 120.986 1153.01 120.986C1151.82 120.986 1150.77 121.234 1149.84 121.729C1148.92 122.21 1148.14 122.868 1147.5 123.701C1146.86 124.535 1146.38 125.485 1146.05 126.553C1145.73 127.62 1145.57 128.734 1145.57 129.893ZM1180.82 135.928V119.678H1182.78V140.811H1180.88L1180.82 135.928ZM1181.17 132.178L1182.27 132.139C1182.27 133.441 1182.11 134.645 1181.8 135.752C1181.49 136.846 1180.99 137.803 1180.32 138.623C1179.65 139.443 1178.79 140.081 1177.74 140.537C1176.68 140.98 1175.42 141.201 1173.95 141.201C1172.92 141.201 1171.98 141.058 1171.12 140.771C1170.27 140.472 1169.53 140.003 1168.91 139.365C1168.3 138.727 1167.82 137.9 1167.48 136.885C1167.16 135.856 1167 134.619 1167 133.174V119.678H1168.93V133.213C1168.93 134.385 1169.06 135.374 1169.32 136.182C1169.59 136.976 1169.96 137.614 1170.43 138.096C1170.91 138.577 1171.47 138.929 1172.09 139.15C1172.72 139.359 1173.39 139.463 1174.12 139.463C1175.89 139.463 1177.29 139.124 1178.32 138.447C1179.35 137.757 1180.08 136.859 1180.51 135.752C1180.95 134.632 1181.17 133.441 1181.17 132.178ZM1190.71 123.232V140.811H1188.78V119.678H1190.67L1190.71 123.232ZM1198.48 119.521L1198.41 121.279C1198.16 121.24 1197.91 121.214 1197.66 121.201C1197.43 121.175 1197.17 121.162 1196.9 121.162C1195.83 121.162 1194.9 121.364 1194.09 121.768C1193.28 122.171 1192.6 122.731 1192.06 123.447C1191.52 124.163 1191.11 124.997 1190.83 125.947C1190.55 126.885 1190.4 127.9 1190.38 128.994L1189.58 129.229C1189.58 127.809 1189.72 126.501 1190.01 125.303C1190.31 124.092 1190.76 123.037 1191.37 122.139C1191.99 121.24 1192.75 120.544 1193.68 120.049C1194.6 119.541 1195.7 119.287 1196.96 119.287C1197.26 119.287 1197.55 119.313 1197.82 119.365C1198.11 119.404 1198.33 119.456 1198.48 119.521ZM363.253 183.678H365.069V204.459C365.069 206.282 364.731 207.851 364.054 209.166C363.377 210.494 362.413 211.51 361.163 212.213C359.926 212.916 358.461 213.268 356.769 213.268C355.844 213.268 354.933 213.131 354.034 212.857C353.136 212.584 352.296 212.174 351.515 211.627C350.746 211.093 350.089 210.442 349.542 209.674L350.675 208.482C351.521 209.524 352.433 210.299 353.409 210.807C354.386 211.314 355.466 211.568 356.651 211.568C358.045 211.568 359.223 211.282 360.187 210.709C361.15 210.149 361.879 209.342 362.374 208.287C362.882 207.232 363.136 205.976 363.136 204.518V188.326L363.253 183.678ZM348.331 194.459V194.049C348.331 192.395 348.513 190.911 348.878 189.596C349.243 188.268 349.77 187.135 350.46 186.197C351.163 185.26 352.016 184.544 353.019 184.049C354.021 183.541 355.154 183.287 356.417 183.287C357.628 183.287 358.702 183.482 359.64 183.873C360.577 184.264 361.384 184.817 362.062 185.533C362.752 186.249 363.312 187.096 363.741 188.072C364.171 189.049 364.49 190.13 364.698 191.314V197.604C364.529 198.684 364.236 199.687 363.819 200.611C363.403 201.536 362.849 202.343 362.159 203.033C361.469 203.723 360.642 204.257 359.679 204.635C358.728 205.012 357.628 205.201 356.378 205.201C355.128 205.201 354.002 204.941 352.999 204.42C352.009 203.899 351.163 203.163 350.46 202.213C349.77 201.249 349.243 200.117 348.878 198.814C348.513 197.499 348.331 196.048 348.331 194.459ZM350.265 194.049V194.459C350.265 195.735 350.395 196.926 350.655 198.033C350.916 199.127 351.306 200.077 351.827 200.885C352.361 201.692 353.025 202.324 353.819 202.779C354.627 203.235 355.577 203.463 356.671 203.463C358.051 203.463 359.216 203.209 360.167 202.701C361.118 202.18 361.873 201.49 362.433 200.631C362.993 199.771 363.39 198.827 363.624 197.799V191.295C363.481 190.618 363.259 189.915 362.96 189.186C362.674 188.456 362.263 187.779 361.729 187.154C361.209 186.516 360.538 186.002 359.718 185.611C358.897 185.221 357.895 185.025 356.71 185.025C355.603 185.025 354.646 185.253 353.839 185.709C353.032 186.165 352.361 186.803 351.827 187.623C351.306 188.43 350.916 189.381 350.655 190.475C350.395 191.568 350.265 192.76 350.265 194.049ZM373.062 187.232V204.811H371.128V183.678H373.022L373.062 187.232ZM380.835 183.521L380.757 185.279C380.509 185.24 380.262 185.214 380.015 185.201C379.78 185.175 379.526 185.162 379.253 185.162C378.185 185.162 377.248 185.364 376.44 185.768C375.633 186.171 374.956 186.731 374.409 187.447C373.875 188.163 373.465 188.997 373.179 189.947C372.905 190.885 372.756 191.9 372.729 192.994L371.929 193.229C371.929 191.809 372.072 190.501 372.358 189.303C372.658 188.092 373.114 187.037 373.726 186.139C374.338 185.24 375.106 184.544 376.03 184.049C376.955 183.541 378.049 183.287 379.312 183.287C379.611 183.287 379.897 183.313 380.171 183.365C380.457 183.404 380.679 183.456 380.835 183.521ZM382.558 194.596V193.893C382.558 192.356 382.779 190.943 383.222 189.654C383.664 188.352 384.296 187.226 385.116 186.275C385.937 185.325 386.92 184.589 388.065 184.068C389.224 183.548 390.507 183.287 391.913 183.287C393.332 183.287 394.615 183.548 395.761 184.068C396.92 184.589 397.909 185.325 398.729 186.275C399.563 187.226 400.201 188.352 400.644 189.654C401.086 190.943 401.308 192.356 401.308 193.893V194.596C401.308 196.132 401.086 197.551 400.644 198.854C400.201 200.143 399.563 201.262 398.729 202.213C397.909 203.163 396.926 203.899 395.78 204.42C394.634 204.941 393.358 205.201 391.952 205.201C390.533 205.201 389.244 204.941 388.085 204.42C386.939 203.899 385.95 203.163 385.116 202.213C384.296 201.262 383.664 200.143 383.222 198.854C382.779 197.551 382.558 196.132 382.558 194.596ZM384.472 193.893V194.596C384.472 195.781 384.634 196.913 384.96 197.994C385.299 199.062 385.78 200.012 386.405 200.846C387.043 201.666 387.825 202.317 388.749 202.799C389.687 203.268 390.754 203.502 391.952 203.502C393.137 203.502 394.185 203.268 395.097 202.799C396.021 202.317 396.796 201.666 397.421 200.846C398.059 200.012 398.541 199.062 398.866 197.994C399.205 196.913 399.374 195.781 399.374 194.596V193.893C399.374 192.734 399.205 191.62 398.866 190.553C398.541 189.485 398.059 188.535 397.421 187.701C396.783 186.868 396.002 186.21 395.077 185.729C394.153 185.234 393.098 184.986 391.913 184.986C390.728 184.986 389.674 185.234 388.749 185.729C387.825 186.21 387.043 186.868 386.405 187.701C385.767 188.535 385.285 189.485 384.96 190.553C384.634 191.62 384.472 192.734 384.472 193.893ZM412.015 199.498L416.995 183.678H418.44L417.288 188.326L412.015 204.811H410.569L412.015 199.498ZM406.214 183.678L410.647 199.576L411.78 204.811H410.315L404.183 183.678H406.214ZM425.14 199.518L429.476 183.678H431.507L425.354 204.811H423.909L425.14 199.518ZM418.694 183.678L423.636 199.4L425.101 204.811H423.675L418.284 188.307L417.21 183.678H418.694ZM443.679 183.678V185.338H433.327V183.678H443.679ZM437.214 178.17H439.167V199.693C439.167 200.748 439.297 201.549 439.558 202.096C439.831 202.63 440.189 202.988 440.632 203.17C441.075 203.352 441.55 203.443 442.058 203.443C442.422 203.443 442.761 203.424 443.073 203.385C443.399 203.346 443.711 203.3 444.011 203.248L444.128 204.908C443.841 204.999 443.47 205.071 443.015 205.123C442.559 205.175 442.129 205.201 441.726 205.201C440.827 205.201 440.039 205.038 439.362 204.713C438.685 204.374 438.158 203.808 437.78 203.014C437.403 202.206 437.214 201.1 437.214 199.693V178.17ZM450.421 174.811V204.811H448.487V174.811H450.421ZM450.011 192.779L449.132 192.018C449.223 190.846 449.483 189.732 449.913 188.678C450.343 187.623 450.922 186.692 451.651 185.885C452.381 185.077 453.24 184.446 454.229 183.99C455.219 183.521 456.306 183.287 457.491 183.287C458.546 183.287 459.49 183.43 460.323 183.717C461.157 184.003 461.86 184.459 462.433 185.084C463.019 185.709 463.461 186.516 463.761 187.506C464.073 188.482 464.229 189.674 464.229 191.08V204.811H462.296V191.061C462.296 189.498 462.075 188.281 461.632 187.408C461.202 186.536 460.597 185.917 459.815 185.553C459.047 185.188 458.136 185.006 457.081 185.006C455.896 185.006 454.868 185.266 453.995 185.787C453.123 186.308 452.394 186.972 451.808 187.779C451.235 188.587 450.799 189.439 450.499 190.338C450.2 191.223 450.037 192.037 450.011 192.779ZM481.835 174.811V204.811H479.901V174.811H481.835ZM490.335 183.678V204.811H488.401V183.678H490.335ZM487.952 177.408C487.952 177.018 488.082 176.686 488.343 176.412C488.603 176.126 488.948 175.982 489.378 175.982C489.821 175.982 490.172 176.126 490.433 176.412C490.706 176.686 490.843 177.018 490.843 177.408C490.843 177.799 490.706 178.131 490.433 178.404C490.172 178.678 489.821 178.814 489.378 178.814C488.948 178.814 488.603 178.678 488.343 178.404C488.082 178.131 487.952 177.799 487.952 177.408ZM498.562 174.811V204.811H496.628V174.811H498.562ZM511.94 183.678L501.843 193.463L497.937 197.135L497.585 195.318L500.866 191.9L509.44 183.678H511.94ZM510.3 204.811L501.081 193.541L502.175 191.9L512.663 204.811H510.3ZM523.409 205.201C522.055 205.201 520.805 204.947 519.659 204.439C518.513 203.932 517.517 203.215 516.671 202.291C515.825 201.354 515.167 200.253 514.698 198.99C514.229 197.714 513.995 196.314 513.995 194.791V193.951C513.995 192.337 514.229 190.878 514.698 189.576C515.18 188.274 515.838 187.154 516.671 186.217C517.517 185.266 518.481 184.544 519.562 184.049C520.642 183.541 521.788 183.287 522.999 183.287C524.275 183.287 525.421 183.521 526.437 183.99C527.465 184.446 528.338 185.097 529.054 185.943C529.77 186.79 530.31 187.792 530.675 188.951C531.052 190.097 531.241 191.367 531.241 192.76V194.127H515.187V192.428H529.308V192.174C529.295 190.911 529.041 189.739 528.546 188.658C528.064 187.564 527.354 186.679 526.417 186.002C525.493 185.325 524.353 184.986 522.999 184.986C521.944 184.986 520.981 185.214 520.108 185.67C519.249 186.113 518.507 186.738 517.882 187.545C517.257 188.339 516.775 189.283 516.437 190.377C516.098 191.458 515.929 192.649 515.929 193.951V194.791C515.929 196.002 516.111 197.135 516.476 198.189C516.853 199.244 517.374 200.169 518.038 200.963C518.715 201.757 519.516 202.382 520.44 202.838C521.365 203.294 522.374 203.521 523.468 203.521C524.705 203.521 525.818 203.3 526.808 202.857C527.797 202.402 528.696 201.653 529.503 200.611L530.733 201.549C530.278 202.226 529.711 202.844 529.034 203.404C528.357 203.951 527.556 204.387 526.632 204.713C525.707 205.038 524.633 205.201 523.409 205.201ZM552.851 183.678V185.338H542.499V183.678H552.851ZM546.386 178.17H548.339V199.693C548.339 200.748 548.469 201.549 548.729 202.096C549.003 202.63 549.361 202.988 549.804 203.17C550.246 203.352 550.722 203.443 551.229 203.443C551.594 203.443 551.933 203.424 552.245 203.385C552.571 203.346 552.883 203.3 553.183 203.248L553.3 204.908C553.013 204.999 552.642 205.071 552.187 205.123C551.731 205.175 551.301 205.201 550.897 205.201C549.999 205.201 549.211 205.038 548.534 204.713C547.857 204.374 547.33 203.808 546.952 203.014C546.575 202.206 546.386 201.1 546.386 199.693V178.17ZM559.593 174.811V204.811H557.659V174.811H559.593ZM559.183 192.779L558.304 192.018C558.395 190.846 558.655 189.732 559.085 188.678C559.515 187.623 560.094 186.692 560.823 185.885C561.552 185.077 562.412 184.446 563.401 183.99C564.391 183.521 565.478 183.287 566.663 183.287C567.718 183.287 568.662 183.43 569.495 183.717C570.328 184.003 571.032 184.459 571.604 185.084C572.19 185.709 572.633 186.516 572.933 187.506C573.245 188.482 573.401 189.674 573.401 191.08V204.811H571.468V191.061C571.468 189.498 571.246 188.281 570.804 187.408C570.374 186.536 569.769 185.917 568.987 185.553C568.219 185.188 567.308 185.006 566.253 185.006C565.068 185.006 564.039 185.266 563.167 185.787C562.295 186.308 561.565 186.972 560.979 187.779C560.407 188.587 559.97 189.439 559.671 190.338C559.371 191.223 559.209 192.037 559.183 192.779ZM587.37 205.201C586.016 205.201 584.766 204.947 583.62 204.439C582.474 203.932 581.478 203.215 580.632 202.291C579.785 201.354 579.128 200.253 578.659 198.99C578.19 197.714 577.956 196.314 577.956 194.791V193.951C577.956 192.337 578.19 190.878 578.659 189.576C579.141 188.274 579.799 187.154 580.632 186.217C581.478 185.266 582.442 184.544 583.522 184.049C584.603 183.541 585.749 183.287 586.96 183.287C588.236 183.287 589.382 183.521 590.397 183.99C591.426 184.446 592.299 185.097 593.015 185.943C593.731 186.79 594.271 187.792 594.636 188.951C595.013 190.097 595.202 191.367 595.202 192.76V194.127H579.147V192.428H593.269V192.174C593.256 190.911 593.002 189.739 592.507 188.658C592.025 187.564 591.315 186.679 590.378 186.002C589.453 185.325 588.314 184.986 586.96 184.986C585.905 184.986 584.942 185.214 584.069 185.67C583.21 186.113 582.468 186.738 581.843 187.545C581.218 188.339 580.736 189.283 580.397 190.377C580.059 191.458 579.89 192.649 579.89 193.951V194.791C579.89 196.002 580.072 197.135 580.437 198.189C580.814 199.244 581.335 200.169 581.999 200.963C582.676 201.757 583.477 202.382 584.401 202.838C585.326 203.294 586.335 203.521 587.429 203.521C588.666 203.521 589.779 203.3 590.769 202.857C591.758 202.402 592.657 201.653 593.464 200.611L594.694 201.549C594.239 202.226 593.672 202.844 592.995 203.404C592.318 203.951 591.517 204.387 590.593 204.713C589.668 205.038 588.594 205.201 587.37 205.201ZM601.827 183.678V204.811H599.894V183.678H601.827ZM599.444 177.408C599.444 177.018 599.575 176.686 599.835 176.412C600.095 176.126 600.44 175.982 600.87 175.982C601.313 175.982 601.664 176.126 601.925 176.412C602.198 176.686 602.335 177.018 602.335 177.408C602.335 177.799 602.198 178.131 601.925 178.404C601.664 178.678 601.313 178.814 600.87 178.814C600.44 178.814 600.095 178.678 599.835 178.404C599.575 178.131 599.444 177.799 599.444 177.408ZM610.054 187.232V204.811H608.12V183.678H610.015L610.054 187.232ZM617.827 183.521L617.749 185.279C617.502 185.24 617.254 185.214 617.007 185.201C616.772 185.175 616.519 185.162 616.245 185.162C615.177 185.162 614.24 185.364 613.433 185.768C612.625 186.171 611.948 186.731 611.401 187.447C610.868 188.163 610.457 188.997 610.171 189.947C609.897 190.885 609.748 191.9 609.722 192.994L608.921 193.229C608.921 191.809 609.064 190.501 609.351 189.303C609.65 188.092 610.106 187.037 610.718 186.139C611.33 185.24 612.098 184.544 613.022 184.049C613.947 183.541 615.041 183.287 616.304 183.287C616.603 183.287 616.89 183.313 617.163 183.365C617.45 183.404 617.671 183.456 617.827 183.521ZM629.378 194.596V193.893C629.378 192.356 629.599 190.943 630.042 189.654C630.485 188.352 631.116 187.226 631.937 186.275C632.757 185.325 633.74 184.589 634.886 184.068C636.045 183.548 637.327 183.287 638.733 183.287C640.153 183.287 641.435 183.548 642.581 184.068C643.74 184.589 644.729 185.325 645.55 186.275C646.383 187.226 647.021 188.352 647.464 189.654C647.907 190.943 648.128 192.356 648.128 193.893V194.596C648.128 196.132 647.907 197.551 647.464 198.854C647.021 200.143 646.383 201.262 645.55 202.213C644.729 203.163 643.746 203.899 642.601 204.42C641.455 204.941 640.179 205.201 638.772 205.201C637.353 205.201 636.064 204.941 634.905 204.42C633.759 203.899 632.77 203.163 631.937 202.213C631.116 201.262 630.485 200.143 630.042 198.854C629.599 197.551 629.378 196.132 629.378 194.596ZM631.292 193.893V194.596C631.292 195.781 631.455 196.913 631.78 197.994C632.119 199.062 632.601 200.012 633.226 200.846C633.864 201.666 634.645 202.317 635.569 202.799C636.507 203.268 637.575 203.502 638.772 203.502C639.957 203.502 641.006 203.268 641.917 202.799C642.841 202.317 643.616 201.666 644.241 200.846C644.879 200.012 645.361 199.062 645.687 197.994C646.025 196.913 646.194 195.781 646.194 194.596V193.893C646.194 192.734 646.025 191.62 645.687 190.553C645.361 189.485 644.879 188.535 644.241 187.701C643.603 186.868 642.822 186.21 641.897 185.729C640.973 185.234 639.918 184.986 638.733 184.986C637.549 184.986 636.494 185.234 635.569 185.729C634.645 186.21 633.864 186.868 633.226 187.701C632.588 188.535 632.106 189.485 631.78 190.553C631.455 191.62 631.292 192.734 631.292 193.893ZM658.835 199.498L663.815 183.678H665.261L664.108 188.326L658.835 204.811H657.39L658.835 199.498ZM653.034 183.678L657.468 199.576L658.601 204.811H657.136L651.003 183.678H653.034ZM671.96 199.518L676.296 183.678H678.327L672.175 204.811H670.729L671.96 199.518ZM665.515 183.678L670.456 199.4L671.921 204.811H670.495L665.104 188.307L664.03 183.678H665.515ZM684.679 188.189V204.811H682.745V183.678H684.62L684.679 188.189ZM684.269 192.779L683.39 192.018C683.481 190.846 683.741 189.732 684.171 188.678C684.601 187.623 685.18 186.692 685.909 185.885C686.638 185.077 687.498 184.446 688.487 183.99C689.477 183.521 690.564 183.287 691.749 183.287C692.804 183.287 693.748 183.43 694.581 183.717C695.414 184.003 696.118 184.459 696.69 185.084C697.276 185.709 697.719 186.516 698.019 187.506C698.331 188.482 698.487 189.674 698.487 191.08V204.811H696.554V191.061C696.554 189.498 696.332 188.281 695.89 187.408C695.46 186.536 694.854 185.917 694.073 185.553C693.305 185.188 692.394 185.006 691.339 185.006C690.154 185.006 689.125 185.266 688.253 185.787C687.381 186.308 686.651 186.972 686.065 187.779C685.493 188.587 685.056 189.439 684.757 190.338C684.457 191.223 684.295 192.037 684.269 192.779ZM704.155 203.521C704.155 203.118 704.285 202.773 704.546 202.486C704.819 202.2 705.177 202.057 705.62 202.057C706.076 202.057 706.44 202.2 706.714 202.486C706.987 202.773 707.124 203.118 707.124 203.521C707.124 203.925 706.987 204.27 706.714 204.557C706.44 204.83 706.076 204.967 705.62 204.967C705.177 204.967 704.819 204.83 704.546 204.557C704.285 204.27 704.155 203.925 704.155 203.521Z" fill="white"/>
<defs>
<radialGradient id="paint0_radial_335_203" cx="0" cy="0" r="1" gradientUnits="userSpaceOnUse" gradientTransform="translate(139.293 680.374) scale(139.293 680.374)">
<stop stop-color="#1A5069"/>
<stop offset="1" stop-color="#0F7BAE" stop-opacity="0"/>
</radialGradient>
<radialGradient id="paint1_radial_335_203" cx="0" cy="0" r="1" gradientUnits="userSpaceOnUse" gradientTransform="translate(139.293 680.374) scale(139.293 680.374)">
<stop stop-color="#1A5069"/>
<stop offset="1" stop-color="#0F7BAE" stop-opacity="0"/>
</radialGradient>
<radialGradient id="paint2_radial_335_203" cx="0" cy="0" r="1" gradientUnits="userSpaceOnUse" gradientTransform="translate(120.676 147.576) scale(120.676 147.576)">
<stop stop-color="#1A5069"/>
<stop offset="1" stop-color="#0F7BAE" stop-opacity="0"/>
</radialGradient>
<radialGradient id="paint3_radial_335_203" cx="0" cy="0" r="1" gradientUnits="userSpaceOnUse" gradientTransform="translate(120.676 147.576) scale(120.676 147.576)">
<stop stop-color="#1A5069"/>
<stop offset="1" stop-color="#0F7BAE" stop-opacity="0"/>
</radialGradient>
<linearGradient id="paint4_linear_335_203" x1="281.704" y1="133.62" x2="46.6028" y2="129.175" gradientUnits="userSpaceOnUse">
<stop stop-color="#FFE1AF"/>
<stop offset="1" stop-color="#156489"/>
</linearGradient>
<linearGradient id="paint5_linear_335_203" x1="138.679" y1="190.461" x2="131.287" y2="190.324" gradientUnits="userSpaceOnUse">
<stop stop-color="#FFE1AF"/>
<stop offset="1" stop-color="#156489"/>
</linearGradient>
<linearGradient id="paint6_linear_335_203" x1="201.818" y1="187.864" x2="194.847" y2="187.735" gradientUnits="userSpaceOnUse">
<stop stop-color="#FFE1AF"/>
<stop offset="1" stop-color="#156489"/>
</linearGradient>
<linearGradient id="paint7_linear_335_203" x1="214.388" y1="85.6192" x2="207.245" y2="85.4887" gradientUnits="userSpaceOnUse">
<stop stop-color="#FFE1AF"/>
<stop offset="1" stop-color="#156489"/>
</linearGradient>
<linearGradient id="paint8_linear_335_203" x1="232.032" y1="107.577" x2="225.086" y2="107.448" gradientUnits="userSpaceOnUse">
<stop stop-color="#FFE1AF"/>
<stop offset="1" stop-color="#156489"/>
</linearGradient>
<linearGradient id="paint9_linear_335_203" x1="175.298" y1="192.717" x2="168.368" y2="192.59" gradientUnits="userSpaceOnUse">
<stop stop-color="#FFE1AF"/>
<stop offset="1" stop-color="#156489"/>
</linearGradient>
<linearGradient id="paint10_linear_335_203" x1="237.738" y1="135.157" x2="230.628" y2="135.028" gradientUnits="userSpaceOnUse">
<stop stop-color="#FFE1AF"/>
<stop offset="1" stop-color="#156489"/>
</linearGradient>
<linearGradient id="paint11_linear_335_203" x1="221.269" y1="91.9707" x2="214.379" y2="91.8472" gradientUnits="userSpaceOnUse">
<stop stop-color="#FFE1AF"/>
<stop offset="1" stop-color="#156489"/>
</linearGradient>
<linearGradient id="paint12_linear_335_203" x1="206.467" y1="80.4777" x2="199.237" y2="80.3403" gradientUnits="userSpaceOnUse">
<stop stop-color="#FFE1AF"/>
<stop offset="1" stop-color="#156489"/>
</linearGradient>
<linearGradient id="paint13_linear_335_203" x1="193.208" y1="190.843" x2="186.277" y2="190.717" gradientUnits="userSpaceOnUse">
<stop stop-color="#FFE1AF"/>
<stop offset="1" stop-color="#156489"/>
</linearGradient>
<linearGradient id="paint14_linear_335_203" x1="166.397" y1="191.723" x2="159.166" y2="191.585" gradientUnits="userSpaceOnUse">
<stop stop-color="#FFE1AF"/>
<stop offset="1" stop-color="#156489"/>
</linearGradient>
<linearGradient id="paint15_linear_335_203" x1="235.494" y1="116.383" x2="228.336" y2="116.25" gradientUnits="userSpaceOnUse">
<stop stop-color="#FFE1AF"/>
<stop offset="1" stop-color="#156489"/>
</linearGradient>
<linearGradient id="paint16_linear_335_203" x1="227.297" y1="99.3936" x2="220.404" y2="99.2683" gradientUnits="userSpaceOnUse">
<stop stop-color="#FFE1AF"/>
<stop offset="1" stop-color="#156489"/>
</linearGradient>
<linearGradient id="paint17_linear_335_203" x1="237.233" y1="125.717" x2="230.358" y2="125.593" gradientUnits="userSpaceOnUse">
<stop stop-color="#FFE1AF"/>
<stop offset="1" stop-color="#156489"/>
</linearGradient>
<linearGradient id="paint18_linear_335_203" x1="157.544" y1="189.364" x2="150.655" y2="189.238" gradientUnits="userSpaceOnUse">
<stop stop-color="#FFE1AF"/>
<stop offset="1" stop-color="#156489"/>
</linearGradient>
<linearGradient id="paint19_linear_335_203" x1="184.312" y1="192.429" x2="177.436" y2="192.305" gradientUnits="userSpaceOnUse">
<stop stop-color="#FFE1AF"/>
<stop offset="1" stop-color="#156489"/>
</linearGradient>
<linearGradient id="paint20_linear_335_203" x1="129.362" y1="98.1285" x2="122.233" y2="97.998" gradientUnits="userSpaceOnUse">
<stop stop-color="#FFE1AF"/>
<stop offset="1" stop-color="#156489"/>
</linearGradient>
<linearGradient id="paint21_linear_335_203" x1="120.981" y1="114.216" x2="114.051" y2="114.089" gradientUnits="userSpaceOnUse">
<stop stop-color="#FFE1AF"/>
<stop offset="1" stop-color="#156489"/>
</linearGradient>
<linearGradient id="paint22_linear_335_203" x1="124.45" y1="105.785" x2="117.521" y2="105.658" gradientUnits="userSpaceOnUse">
<stop stop-color="#FFE1AF"/>
<stop offset="1" stop-color="#156489"/>
</linearGradient>
<linearGradient id="paint23_linear_335_203" x1="117.892" y1="132.016" x2="111.038" y2="131.893" gradientUnits="userSpaceOnUse">
<stop stop-color="#FFE1AF"/>
<stop offset="1" stop-color="#156489"/>
</linearGradient>
<linearGradient id="paint24_linear_335_203" x1="135.155" y1="91.2176" x2="128.129" y2="91.0876" gradientUnits="userSpaceOnUse">
<stop stop-color="#FFE1AF"/>
<stop offset="1" stop-color="#156489"/>
</linearGradient>
<linearGradient id="paint25_linear_335_203" x1="149.715" y1="80.3537" x2="142.722" y2="80.2246" gradientUnits="userSpaceOnUse">
<stop stop-color="#FFE1AF"/>
<stop offset="1" stop-color="#156489"/>
</linearGradient>
<linearGradient id="paint26_linear_335_203" x1="118.387" y1="141.107" x2="111.554" y2="140.983" gradientUnits="userSpaceOnUse">
<stop stop-color="#FFE1AF"/>
<stop offset="1" stop-color="#156489"/>
</linearGradient>
<linearGradient id="paint27_linear_335_203" x1="120.475" y1="150.092" x2="113.367" y2="149.961" gradientUnits="userSpaceOnUse">
<stop stop-color="#FFE1AF"/>
<stop offset="1" stop-color="#156489"/>
</linearGradient>
<linearGradient id="paint28_linear_335_203" x1="141.992" y1="85.2115" x2="135.096" y2="85.0861" gradientUnits="userSpaceOnUse">
<stop stop-color="#FFE1AF"/>
<stop offset="1" stop-color="#156489"/>
</linearGradient>
<linearGradient id="paint29_linear_335_203" x1="118.69" y1="122.996" x2="111.857" y2="122.873" gradientUnits="userSpaceOnUse">
<stop stop-color="#FFE1AF"/>
<stop offset="1" stop-color="#156489"/>
</linearGradient>
<linearGradient id="paint30_linear_335_203" x1="164.447" y1="66.6893" x2="156.891" y2="66.5507" gradientUnits="userSpaceOnUse">
<stop stop-color="#FFE1AF"/>
<stop offset="1" stop-color="#156489"/>
</linearGradient>
<linearGradient id="paint31_linear_335_203" x1="243.455" y1="169.876" x2="236.141" y2="169.741" gradientUnits="userSpaceOnUse">
<stop stop-color="#FFE1AF"/>
<stop offset="1" stop-color="#156489"/>
</linearGradient>
<clipPath id="clip0_335_203">
<rect width="155" height="151" fill="white" transform="translate(100.001 54.1797)"/>
</clipPath>
</defs>
</svg>
