<svg width="267" height="435" viewBox="0 0 267 435" fill="none" xmlns="http://www.w3.org/2000/svg">
<mask id="mask0_448_863" style="mask-type:alpha" maskUnits="userSpaceOnUse" x="0" y="3" width="267" height="429">
<rect x="-0.999735" y="0.968136" width="424.5" height="264.773" rx="96" transform="matrix(-0.000242594 1 -0.999492 -0.031864 266.71 10.4987)" fill="black" stroke="#136A93" stroke-width="2"/>
</mask>
<g mask="url(#mask0_448_863)">
<rect width="466.451" height="270.169" rx="47.5" transform="matrix(-0.000242594 1 -0.999492 -0.031864 367.779 165.822)" fill="url(#paint0_radial_448_863)" fill-opacity="0.74"/>
<rect width="466.451" height="270.169" rx="47.5" transform="matrix(-0.000242594 1 -0.999492 -0.031864 169.098 -140.412)" fill="url(#paint1_radial_448_863)" fill-opacity="0.74"/>
</g>
<rect x="1.83984" y="2.32422" width="264.159" height="427.406" rx="96" fill="#D9D9D9" fill-opacity="0.14" stroke="#136A93" stroke-width="2"/>
<path d="M79.064 119H73.6978L73.7319 115.309H79.064C80.5109 115.309 81.7243 114.99 82.7041 114.352C83.6839 113.702 84.4245 112.774 84.9258 111.566C85.4271 110.347 85.6777 108.889 85.6777 107.191V105.909C85.6777 104.599 85.5353 103.443 85.2505 102.44C84.9657 101.437 84.5441 100.594 83.9858 99.9106C83.439 99.2271 82.7611 98.7087 81.9521 98.3555C81.1432 98.0023 80.2147 97.8257 79.1665 97.8257H73.5952V94.1172H79.1665C80.8299 94.1172 82.3452 94.3963 83.7124 94.9546C85.091 95.5129 86.2816 96.3161 87.2842 97.3643C88.2982 98.401 89.0729 99.6429 89.6084 101.09C90.1553 102.537 90.4287 104.155 90.4287 105.943V107.191C90.4287 108.968 90.1553 110.586 89.6084 112.044C89.0729 113.491 88.2982 114.733 87.2842 115.77C86.2816 116.807 85.0853 117.604 83.6953 118.163C82.3053 118.721 80.7616 119 79.064 119ZM76.3296 94.1172V119H71.6299V94.1172H76.3296ZM102.142 119.342C100.74 119.342 99.4813 119.114 98.3647 118.658C97.2482 118.202 96.2969 117.57 95.5107 116.761C94.736 115.941 94.1379 114.99 93.7163 113.907C93.3062 112.813 93.1011 111.64 93.1011 110.387V109.703C93.1011 108.279 93.3062 106.986 93.7163 105.824C94.1265 104.65 94.7075 103.642 95.4595 102.799C96.2114 101.956 97.1115 101.306 98.1597 100.851C99.2078 100.395 100.364 100.167 101.629 100.167C102.939 100.167 104.096 100.389 105.098 100.833C106.101 101.266 106.938 101.882 107.61 102.679C108.283 103.477 108.79 104.434 109.131 105.55C109.473 106.655 109.644 107.88 109.644 109.225V111.122H95.1519V108.011H105.201V107.669C105.178 106.952 105.041 106.297 104.791 105.704C104.54 105.1 104.153 104.622 103.628 104.269C103.104 103.904 102.426 103.722 101.595 103.722C100.923 103.722 100.336 103.87 99.8345 104.166C99.3446 104.451 98.9344 104.861 98.604 105.396C98.285 105.921 98.0457 106.547 97.8862 107.276C97.7267 108.006 97.647 108.814 97.647 109.703V110.387C97.647 111.161 97.7495 111.879 97.9546 112.54C98.1711 113.201 98.4844 113.776 98.8945 114.266C99.3161 114.745 99.8174 115.121 100.398 115.394C100.991 115.656 101.663 115.787 102.415 115.787C103.361 115.787 104.215 115.605 104.979 115.24C105.753 114.864 106.425 114.312 106.995 113.583L109.268 115.941C108.881 116.511 108.357 117.057 107.696 117.582C107.046 118.106 106.26 118.533 105.337 118.863C104.415 119.182 103.349 119.342 102.142 119.342ZM118.315 115.582L122.622 100.509H127.338L120.998 119H118.127L118.315 115.582ZM115.17 100.509L119.528 115.616L119.682 119H116.794L110.437 100.509H115.17ZM149.955 105.926V107.208C149.955 109.088 149.704 110.78 149.203 112.284C148.701 113.776 147.989 115.047 147.066 116.095C146.144 117.143 145.044 117.946 143.768 118.504C142.492 119.063 141.074 119.342 139.513 119.342C137.975 119.342 136.562 119.063 135.274 118.504C133.998 117.946 132.893 117.143 131.959 116.095C131.025 115.047 130.301 113.776 129.789 112.284C129.276 110.78 129.02 109.088 129.02 107.208V105.926C129.02 104.035 129.276 102.343 129.789 100.851C130.301 99.3581 131.019 98.0877 131.942 97.0396C132.865 95.98 133.964 95.1711 135.24 94.6128C136.528 94.0545 137.94 93.7754 139.479 93.7754C141.039 93.7754 142.458 94.0545 143.734 94.6128C145.01 95.1711 146.109 95.98 147.032 97.0396C147.966 98.0877 148.684 99.3581 149.186 100.851C149.698 102.343 149.955 104.035 149.955 105.926ZM145.204 107.208V105.892C145.204 104.536 145.078 103.346 144.828 102.32C144.577 101.284 144.207 100.412 143.717 99.7056C143.227 98.9992 142.623 98.4694 141.905 98.1162C141.188 97.7516 140.379 97.5693 139.479 97.5693C138.567 97.5693 137.758 97.7516 137.052 98.1162C136.357 98.4694 135.764 98.9992 135.274 99.7056C134.785 100.412 134.409 101.284 134.146 102.32C133.896 103.346 133.771 104.536 133.771 105.892V107.208C133.771 108.552 133.896 109.743 134.146 110.78C134.409 111.817 134.785 112.694 135.274 113.412C135.776 114.118 136.38 114.653 137.086 115.018C137.792 115.383 138.601 115.565 139.513 115.565C140.424 115.565 141.233 115.383 141.939 115.018C142.646 114.653 143.238 114.118 143.717 113.412C144.207 112.694 144.577 111.817 144.828 110.78C145.078 109.743 145.204 108.552 145.204 107.208ZM157.856 104.063V126.109H153.328V100.509H157.515L157.856 104.063ZM169.734 109.566V109.925C169.734 111.27 169.574 112.517 169.255 113.668C168.948 114.807 168.492 115.804 167.888 116.659C167.284 117.502 166.532 118.163 165.632 118.641C164.744 119.108 163.718 119.342 162.556 119.342C161.417 119.342 160.426 119.125 159.583 118.692C158.739 118.248 158.027 117.621 157.446 116.812C156.865 116.004 156.398 115.064 156.045 113.993C155.703 112.91 155.447 111.731 155.276 110.455V109.31C155.447 107.954 155.703 106.724 156.045 105.619C156.398 104.502 156.865 103.539 157.446 102.73C158.027 101.91 158.734 101.278 159.565 100.833C160.409 100.389 161.394 100.167 162.522 100.167C163.695 100.167 164.727 100.389 165.615 100.833C166.515 101.278 167.273 101.916 167.888 102.748C168.503 103.579 168.965 104.57 169.272 105.721C169.58 106.872 169.734 108.154 169.734 109.566ZM165.205 109.925V109.566C165.205 108.746 165.131 107.988 164.983 107.293C164.835 106.587 164.607 105.972 164.299 105.448C163.992 104.912 163.593 104.496 163.103 104.2C162.613 103.904 162.021 103.756 161.326 103.756C160.631 103.756 160.033 103.87 159.531 104.098C159.03 104.326 158.62 104.65 158.301 105.072C157.982 105.493 157.731 105.995 157.549 106.576C157.378 107.145 157.264 107.778 157.207 108.473V111.31C157.31 112.153 157.509 112.91 157.805 113.583C158.101 114.255 158.534 114.79 159.104 115.189C159.685 115.588 160.437 115.787 161.36 115.787C162.055 115.787 162.647 115.633 163.137 115.326C163.627 115.018 164.026 114.597 164.333 114.061C164.641 113.514 164.863 112.888 165 112.181C165.137 111.475 165.205 110.723 165.205 109.925ZM182.951 113.941C182.951 113.554 182.848 113.207 182.643 112.899C182.438 112.591 182.051 112.312 181.481 112.062C180.923 111.799 180.102 111.555 179.02 111.327C178.063 111.122 177.18 110.865 176.371 110.558C175.562 110.25 174.867 109.88 174.286 109.447C173.705 109.002 173.249 108.484 172.919 107.892C172.6 107.288 172.44 106.593 172.44 105.807C172.44 105.043 172.606 104.326 172.936 103.653C173.266 102.97 173.745 102.372 174.372 101.859C174.998 101.335 175.762 100.925 176.662 100.628C177.562 100.321 178.576 100.167 179.704 100.167C181.276 100.167 182.626 100.423 183.754 100.936C184.893 101.449 185.765 102.155 186.369 103.055C186.972 103.944 187.274 104.946 187.274 106.063H182.763C182.763 105.573 182.649 105.129 182.421 104.73C182.204 104.331 181.868 104.012 181.413 103.773C180.957 103.522 180.382 103.397 179.687 103.397C179.06 103.397 178.53 103.5 178.097 103.705C177.676 103.91 177.357 104.177 177.14 104.508C176.924 104.838 176.815 105.203 176.815 105.602C176.815 105.898 176.872 106.166 176.986 106.405C177.112 106.633 177.311 106.843 177.584 107.037C177.858 107.231 178.228 107.407 178.695 107.567C179.174 107.726 179.761 107.88 180.456 108.028C181.834 108.302 183.036 108.666 184.062 109.122C185.098 109.566 185.907 110.159 186.488 110.899C187.069 111.64 187.36 112.586 187.36 113.736C187.36 114.557 187.183 115.309 186.83 115.992C186.477 116.664 185.964 117.251 185.292 117.752C184.62 118.254 183.817 118.647 182.882 118.932C181.948 119.205 180.894 119.342 179.721 119.342C178.023 119.342 176.588 119.04 175.414 118.436C174.241 117.821 173.352 117.046 172.748 116.112C172.144 115.166 171.842 114.186 171.842 113.172H176.166C176.2 113.89 176.394 114.465 176.747 114.898C177.1 115.331 177.545 115.645 178.08 115.838C178.627 116.021 179.202 116.112 179.806 116.112C180.49 116.112 181.065 116.021 181.532 115.838C181.999 115.645 182.353 115.388 182.592 115.069C182.831 114.739 182.951 114.363 182.951 113.941Z" fill="#EDD5B1"/>
<path d="M111.229 174H108.267L108.284 173.218H111.229C112.148 173.218 112.951 173.007 113.637 172.585C114.322 172.163 114.855 171.58 115.236 170.836C115.617 170.092 115.808 169.23 115.808 168.252V166.934C115.808 166.195 115.696 165.524 115.474 164.921C115.257 164.312 114.946 163.79 114.542 163.356C114.144 162.917 113.666 162.58 113.109 162.346C112.559 162.105 111.949 161.985 111.281 161.985H108.214V161.203H111.281C112.066 161.203 112.787 161.341 113.443 161.616C114.105 161.886 114.68 162.275 115.166 162.785C115.652 163.289 116.027 163.896 116.291 164.604C116.555 165.308 116.687 166.093 116.687 166.96V168.252C116.687 169.113 116.555 169.898 116.291 170.607C116.027 171.311 115.649 171.917 115.157 172.427C114.671 172.931 114.094 173.32 113.426 173.596C112.764 173.865 112.031 174 111.229 174ZM108.609 161.203V174H107.713V161.203H108.609ZM118.646 169.403V169.087C118.646 168.396 118.746 167.76 118.945 167.18C119.145 166.594 119.429 166.087 119.798 165.659C120.167 165.231 120.609 164.9 121.125 164.666C121.646 164.432 122.224 164.314 122.856 164.314C123.495 164.314 124.072 164.432 124.588 164.666C125.109 164.9 125.555 165.231 125.924 165.659C126.299 166.087 126.586 166.594 126.785 167.18C126.984 167.76 127.084 168.396 127.084 169.087V169.403C127.084 170.095 126.984 170.733 126.785 171.319C126.586 171.899 126.299 172.403 125.924 172.831C125.555 173.259 125.112 173.59 124.597 173.824C124.081 174.059 123.507 174.176 122.874 174.176C122.235 174.176 121.655 174.059 121.134 173.824C120.618 173.59 120.173 173.259 119.798 172.831C119.429 172.403 119.145 171.899 118.945 171.319C118.746 170.733 118.646 170.095 118.646 169.403ZM119.508 169.087V169.403C119.508 169.937 119.581 170.446 119.728 170.933C119.88 171.413 120.097 171.841 120.378 172.216C120.665 172.585 121.017 172.878 121.433 173.095C121.854 173.306 122.335 173.411 122.874 173.411C123.407 173.411 123.879 173.306 124.289 173.095C124.705 172.878 125.054 172.585 125.335 172.216C125.622 171.841 125.839 171.413 125.985 170.933C126.138 170.446 126.214 169.937 126.214 169.403V169.087C126.214 168.565 126.138 168.064 125.985 167.584C125.839 167.104 125.622 166.676 125.335 166.301C125.048 165.926 124.696 165.63 124.28 165.413C123.864 165.19 123.39 165.079 122.856 165.079C122.323 165.079 121.849 165.19 121.433 165.413C121.017 165.63 120.665 165.926 120.378 166.301C120.091 166.676 119.874 167.104 119.728 167.584C119.581 168.064 119.508 168.565 119.508 169.087ZM132.727 173.411C133.184 173.411 133.614 173.326 134.019 173.156C134.429 172.98 134.769 172.72 135.038 172.374C135.313 172.028 135.469 171.595 135.504 171.073H136.339C136.31 171.688 136.128 172.23 135.794 172.699C135.46 173.168 135.023 173.531 134.484 173.789C133.951 174.047 133.365 174.176 132.727 174.176C132.076 174.176 131.502 174.059 131.004 173.824C130.506 173.584 130.087 173.25 129.747 172.822C129.413 172.395 129.158 171.894 128.982 171.319C128.812 170.739 128.728 170.109 128.728 169.43V169.061C128.728 168.381 128.812 167.754 128.982 167.18C129.158 166.6 129.413 166.096 129.747 165.668C130.087 165.24 130.503 164.909 130.995 164.675C131.493 164.435 132.067 164.314 132.718 164.314C133.374 164.314 133.969 164.449 134.502 164.719C135.041 164.982 135.475 165.366 135.803 165.87C136.131 166.368 136.31 166.969 136.339 167.672H135.504C135.475 167.121 135.331 166.655 135.073 166.274C134.815 165.888 134.481 165.592 134.071 165.387C133.661 165.182 133.21 165.079 132.718 165.079C132.161 165.079 131.684 165.188 131.285 165.404C130.893 165.615 130.57 165.908 130.318 166.283C130.072 166.652 129.888 167.074 129.765 167.549C129.647 168.023 129.589 168.527 129.589 169.061V169.43C129.589 169.963 129.647 170.47 129.765 170.95C129.882 171.425 130.066 171.847 130.318 172.216C130.57 172.585 130.896 172.878 131.294 173.095C131.692 173.306 132.17 173.411 132.727 173.411ZM139.397 160.5V174H138.527V160.5H139.397ZM145.418 164.49L140.874 168.894L139.116 170.546L138.958 169.729L140.435 168.19L144.293 164.49H145.418ZM144.68 174L140.531 168.929L141.023 168.19L145.743 174H144.68ZM150.691 174.176C150.082 174.176 149.52 174.062 149.004 173.833C148.488 173.604 148.04 173.282 147.659 172.866C147.278 172.444 146.982 171.949 146.771 171.381C146.561 170.807 146.455 170.177 146.455 169.491V169.113C146.455 168.387 146.561 167.73 146.771 167.145C146.988 166.559 147.284 166.055 147.659 165.633C148.04 165.205 148.474 164.88 148.96 164.657C149.446 164.429 149.962 164.314 150.507 164.314C151.081 164.314 151.597 164.42 152.054 164.631C152.517 164.836 152.909 165.129 153.231 165.51C153.554 165.891 153.797 166.342 153.961 166.863C154.131 167.379 154.216 167.95 154.216 168.577V169.192H146.991V168.428H153.346V168.313C153.34 167.745 153.226 167.218 153.003 166.731C152.786 166.239 152.467 165.841 152.045 165.536C151.629 165.231 151.116 165.079 150.507 165.079C150.032 165.079 149.599 165.182 149.206 165.387C148.819 165.586 148.485 165.867 148.204 166.23C147.923 166.588 147.706 167.013 147.554 167.505C147.401 167.991 147.325 168.527 147.325 169.113V169.491C147.325 170.036 147.407 170.546 147.571 171.021C147.741 171.495 147.976 171.911 148.274 172.269C148.579 172.626 148.939 172.907 149.355 173.112C149.771 173.317 150.226 173.42 150.718 173.42C151.274 173.42 151.775 173.32 152.221 173.121C152.666 172.916 153.07 172.579 153.434 172.11L153.987 172.532C153.782 172.837 153.527 173.115 153.223 173.367C152.918 173.613 152.558 173.81 152.142 173.956C151.726 174.103 151.242 174.176 150.691 174.176ZM157.187 166.09V174H156.316V164.49H157.169L157.187 166.09ZM160.685 164.42L160.649 165.211C160.538 165.193 160.427 165.182 160.315 165.176C160.21 165.164 160.096 165.158 159.973 165.158C159.492 165.158 159.07 165.249 158.707 165.431C158.344 165.612 158.039 165.864 157.793 166.187C157.553 166.509 157.368 166.884 157.239 167.312C157.116 167.733 157.049 168.19 157.037 168.683L156.677 168.788C156.677 168.149 156.741 167.561 156.87 167.021C157.005 166.477 157.21 166.002 157.485 165.598C157.761 165.193 158.106 164.88 158.522 164.657C158.938 164.429 159.431 164.314 159.999 164.314C160.134 164.314 160.263 164.326 160.386 164.35C160.515 164.367 160.614 164.391 160.685 164.42ZM91.3301 222.203V235H90.4336V222.203H91.3301ZM99.3018 222.203L93.7207 228.03L91.0049 230.649L90.9521 229.63L93.1846 227.362L98.1592 222.203H99.3018ZM98.6338 235L93.0439 228.329L93.5801 227.591L99.7236 235H98.6338ZM107.555 232.803V225.49H108.434V235H107.581L107.555 232.803ZM107.713 231.115L108.205 231.098C108.205 231.684 108.135 232.226 107.994 232.724C107.854 233.216 107.631 233.646 107.326 234.016C107.027 234.385 106.641 234.672 106.166 234.877C105.691 235.076 105.123 235.176 104.461 235.176C103.998 235.176 103.573 235.111 103.187 234.982C102.806 234.848 102.475 234.637 102.193 234.35C101.918 234.062 101.704 233.69 101.552 233.233C101.405 232.771 101.332 232.214 101.332 231.563V225.49H102.202V231.581C102.202 232.108 102.261 232.554 102.378 232.917C102.501 233.274 102.668 233.562 102.879 233.778C103.096 233.995 103.345 234.153 103.626 234.253C103.907 234.347 104.212 234.394 104.54 234.394C105.337 234.394 105.967 234.241 106.43 233.937C106.893 233.626 107.221 233.222 107.414 232.724C107.613 232.22 107.713 231.684 107.713 231.115ZM111.237 221.5H112.107V233.154L112.055 235H111.237V221.5ZM118.787 230.157V230.342C118.787 231.057 118.705 231.71 118.541 232.302C118.377 232.888 118.14 233.397 117.829 233.831C117.524 234.259 117.146 234.59 116.695 234.824C116.25 235.059 115.743 235.176 115.175 235.176C114.618 235.176 114.12 235.091 113.681 234.921C113.247 234.751 112.875 234.511 112.564 234.2C112.254 233.89 112.002 233.526 111.809 233.11C111.621 232.694 111.492 232.243 111.422 231.757V228.927C111.51 228.394 111.65 227.907 111.844 227.468C112.043 227.028 112.295 226.647 112.6 226.325C112.91 226.003 113.276 225.754 113.698 225.578C114.126 225.402 114.612 225.314 115.157 225.314C115.731 225.314 116.244 225.429 116.695 225.657C117.146 225.88 117.524 226.202 117.829 226.624C118.14 227.046 118.377 227.556 118.541 228.153C118.705 228.745 118.787 229.413 118.787 230.157ZM117.899 230.342V230.157C117.899 229.577 117.844 229.041 117.732 228.549C117.621 228.057 117.448 227.629 117.214 227.266C116.979 226.896 116.681 226.609 116.317 226.404C115.954 226.199 115.523 226.097 115.025 226.097C114.492 226.097 114.038 226.185 113.663 226.36C113.294 226.536 112.989 226.768 112.749 227.055C112.515 227.336 112.33 227.641 112.195 227.969C112.061 228.297 111.961 228.613 111.896 228.918V231.845C111.996 232.296 112.175 232.715 112.433 233.102C112.69 233.488 113.033 233.802 113.461 234.042C113.895 234.276 114.422 234.394 115.043 234.394C115.535 234.394 115.96 234.291 116.317 234.086C116.681 233.881 116.977 233.597 117.205 233.233C117.439 232.87 117.612 232.442 117.724 231.95C117.841 231.452 117.899 230.916 117.899 230.342ZM124.799 235.176C124.189 235.176 123.627 235.062 123.111 234.833C122.596 234.604 122.147 234.282 121.767 233.866C121.386 233.444 121.09 232.949 120.879 232.381C120.668 231.807 120.562 231.177 120.562 230.491V230.113C120.562 229.387 120.668 228.73 120.879 228.145C121.096 227.559 121.392 227.055 121.767 226.633C122.147 226.205 122.581 225.88 123.067 225.657C123.554 225.429 124.069 225.314 124.614 225.314C125.188 225.314 125.704 225.42 126.161 225.631C126.624 225.836 127.017 226.129 127.339 226.51C127.661 226.891 127.904 227.342 128.068 227.863C128.238 228.379 128.323 228.95 128.323 229.577V230.192H121.099V229.428H127.453V229.313C127.447 228.745 127.333 228.218 127.11 227.731C126.894 227.239 126.574 226.841 126.152 226.536C125.736 226.231 125.224 226.079 124.614 226.079C124.14 226.079 123.706 226.182 123.313 226.387C122.927 226.586 122.593 226.867 122.312 227.23C122.03 227.588 121.813 228.013 121.661 228.505C121.509 228.991 121.433 229.527 121.433 230.113V230.491C121.433 231.036 121.515 231.546 121.679 232.021C121.849 232.495 122.083 232.911 122.382 233.269C122.687 233.626 123.047 233.907 123.463 234.112C123.879 234.317 124.333 234.42 124.825 234.42C125.382 234.42 125.883 234.32 126.328 234.121C126.773 233.916 127.178 233.579 127.541 233.11L128.095 233.532C127.89 233.837 127.635 234.115 127.33 234.367C127.025 234.613 126.665 234.81 126.249 234.956C125.833 235.103 125.35 235.176 124.799 235.176ZM131.294 227.09V235H130.424V225.49H131.276L131.294 227.09ZM134.792 225.42L134.757 226.211C134.646 226.193 134.534 226.182 134.423 226.176C134.317 226.164 134.203 226.158 134.08 226.158C133.6 226.158 133.178 226.249 132.814 226.431C132.451 226.612 132.146 226.864 131.9 227.187C131.66 227.509 131.476 227.884 131.347 228.312C131.224 228.733 131.156 229.19 131.145 229.683L130.784 229.788C130.784 229.149 130.849 228.561 130.978 228.021C131.112 227.477 131.317 227.002 131.593 226.598C131.868 226.193 132.214 225.88 132.63 225.657C133.046 225.429 133.538 225.314 134.106 225.314C134.241 225.314 134.37 225.326 134.493 225.35C134.622 225.367 134.722 225.391 134.792 225.42ZM137.341 227.521V235H136.471V225.49H137.314L137.341 227.521ZM137.156 229.586L136.761 229.243C136.802 228.716 136.919 228.215 137.112 227.74C137.306 227.266 137.566 226.847 137.895 226.483C138.223 226.12 138.609 225.836 139.055 225.631C139.5 225.42 139.989 225.314 140.522 225.314C140.997 225.314 141.422 225.379 141.797 225.508C142.172 225.637 142.488 225.842 142.746 226.123C143.01 226.404 143.209 226.768 143.344 227.213C143.484 227.652 143.555 228.188 143.555 228.821V235H142.685V228.812C142.685 228.109 142.585 227.562 142.386 227.169C142.192 226.776 141.92 226.498 141.568 226.334C141.223 226.17 140.812 226.088 140.338 226.088C139.805 226.088 139.342 226.205 138.949 226.439C138.557 226.674 138.229 226.973 137.965 227.336C137.707 227.699 137.511 228.083 137.376 228.487C137.241 228.886 137.168 229.252 137.156 229.586ZM149.953 235.176C149.344 235.176 148.781 235.062 148.266 234.833C147.75 234.604 147.302 234.282 146.921 233.866C146.54 233.444 146.244 232.949 146.033 232.381C145.822 231.807 145.717 231.177 145.717 230.491V230.113C145.717 229.387 145.822 228.73 146.033 228.145C146.25 227.559 146.546 227.055 146.921 226.633C147.302 226.205 147.735 225.88 148.222 225.657C148.708 225.429 149.224 225.314 149.769 225.314C150.343 225.314 150.858 225.42 151.315 225.631C151.778 225.836 152.171 226.129 152.493 226.51C152.815 226.891 153.059 227.342 153.223 227.863C153.393 228.379 153.478 228.95 153.478 229.577V230.192H146.253V229.428H152.607V229.313C152.602 228.745 152.487 228.218 152.265 227.731C152.048 227.239 151.729 226.841 151.307 226.536C150.891 226.231 150.378 226.079 149.769 226.079C149.294 226.079 148.86 226.182 148.468 226.387C148.081 226.586 147.747 226.867 147.466 227.23C147.185 227.588 146.968 228.013 146.815 228.505C146.663 228.991 146.587 229.527 146.587 230.113V230.491C146.587 231.036 146.669 231.546 146.833 232.021C147.003 232.495 147.237 232.911 147.536 233.269C147.841 233.626 148.201 233.907 148.617 234.112C149.033 234.317 149.487 234.42 149.979 234.42C150.536 234.42 151.037 234.32 151.482 234.121C151.928 233.916 152.332 233.579 152.695 233.11L153.249 233.532C153.044 233.837 152.789 234.115 152.484 234.367C152.18 234.613 151.819 234.81 151.403 234.956C150.987 235.103 150.504 235.176 149.953 235.176ZM159.067 225.49V226.237H154.409V225.49H159.067ZM156.158 223.012H157.037V232.697C157.037 233.172 157.096 233.532 157.213 233.778C157.336 234.019 157.497 234.18 157.696 234.262C157.896 234.344 158.109 234.385 158.338 234.385C158.502 234.385 158.654 234.376 158.795 234.358C158.941 234.341 159.082 234.32 159.217 234.297L159.27 235.044C159.141 235.085 158.974 235.117 158.769 235.141C158.563 235.164 158.37 235.176 158.188 235.176C157.784 235.176 157.43 235.103 157.125 234.956C156.82 234.804 156.583 234.549 156.413 234.191C156.243 233.828 156.158 233.33 156.158 232.697V223.012ZM164.947 235.176C164.338 235.176 163.775 235.062 163.26 234.833C162.744 234.604 162.296 234.282 161.915 233.866C161.534 233.444 161.238 232.949 161.027 232.381C160.816 231.807 160.711 231.177 160.711 230.491V230.113C160.711 229.387 160.816 228.73 161.027 228.145C161.244 227.559 161.54 227.055 161.915 226.633C162.296 226.205 162.729 225.88 163.216 225.657C163.702 225.429 164.218 225.314 164.763 225.314C165.337 225.314 165.853 225.42 166.31 225.631C166.772 225.836 167.165 226.129 167.487 226.51C167.81 226.891 168.053 227.342 168.217 227.863C168.387 228.379 168.472 228.95 168.472 229.577V230.192H161.247V229.428H167.602V229.313C167.596 228.745 167.481 228.218 167.259 227.731C167.042 227.239 166.723 226.841 166.301 226.536C165.885 226.231 165.372 226.079 164.763 226.079C164.288 226.079 163.854 226.182 163.462 226.387C163.075 226.586 162.741 226.867 162.46 227.23C162.179 227.588 161.962 228.013 161.81 228.505C161.657 228.991 161.581 229.527 161.581 230.113V230.491C161.581 231.036 161.663 231.546 161.827 232.021C161.997 232.495 162.231 232.911 162.53 233.269C162.835 233.626 163.195 233.907 163.611 234.112C164.027 234.317 164.481 234.42 164.974 234.42C165.53 234.42 166.031 234.32 166.477 234.121C166.922 233.916 167.326 233.579 167.689 233.11L168.243 233.532C168.038 233.837 167.783 234.115 167.479 234.367C167.174 234.613 166.813 234.81 166.397 234.956C165.981 235.103 165.498 235.176 164.947 235.176ZM176.329 232.601C176.329 232.337 176.259 232.073 176.118 231.81C175.978 231.54 175.717 231.294 175.336 231.071C174.955 230.843 174.398 230.652 173.666 230.5C173.139 230.383 172.67 230.254 172.26 230.113C171.85 229.967 171.504 229.791 171.223 229.586C170.947 229.381 170.736 229.138 170.59 228.856C170.449 228.569 170.379 228.232 170.379 227.846C170.379 227.494 170.455 227.166 170.607 226.861C170.76 226.557 170.979 226.29 171.267 226.062C171.554 225.827 171.899 225.646 172.304 225.517C172.714 225.382 173.174 225.314 173.684 225.314C174.41 225.314 175.031 225.438 175.547 225.684C176.062 225.924 176.458 226.255 176.733 226.677C177.015 227.099 177.155 227.579 177.155 228.118H176.285C176.285 227.767 176.183 227.438 175.978 227.134C175.778 226.823 175.485 226.571 175.099 226.378C174.712 226.179 174.24 226.079 173.684 226.079C173.104 226.079 172.635 226.167 172.277 226.343C171.92 226.519 171.659 226.738 171.495 227.002C171.331 227.266 171.249 227.538 171.249 227.819C171.249 228.042 171.281 228.244 171.346 228.426C171.416 228.607 171.545 228.777 171.732 228.936C171.92 229.094 172.187 229.243 172.532 229.384C172.884 229.519 173.338 229.65 173.895 229.779C174.662 229.949 175.286 230.157 175.767 230.403C176.253 230.644 176.61 230.939 176.839 231.291C177.073 231.643 177.19 232.067 177.19 232.565C177.19 232.952 177.108 233.307 176.944 233.629C176.786 233.945 176.555 234.221 176.25 234.455C175.951 234.684 175.588 234.862 175.16 234.991C174.738 235.114 174.267 235.176 173.745 235.176C172.948 235.176 172.277 235.047 171.732 234.789C171.188 234.531 170.774 234.191 170.493 233.77C170.212 233.348 170.071 232.894 170.071 232.407H170.941C170.977 232.917 171.138 233.318 171.425 233.611C171.718 233.904 172.072 234.112 172.488 234.235C172.91 234.353 173.329 234.411 173.745 234.411C174.308 234.411 174.779 234.326 175.16 234.156C175.547 233.98 175.837 233.755 176.03 233.479C176.229 233.204 176.329 232.911 176.329 232.601ZM110.587 292.168V283.203H111.475V292.168C111.475 293.029 111.308 293.759 110.974 294.356C110.646 294.954 110.194 295.408 109.62 295.719C109.046 296.023 108.396 296.176 107.669 296.176C106.907 296.176 106.239 296.041 105.665 295.771C105.091 295.502 104.646 295.095 104.329 294.55C104.013 293.999 103.854 293.305 103.854 292.467H104.751C104.751 293.105 104.862 293.645 105.085 294.084C105.313 294.518 105.645 294.846 106.078 295.068C106.518 295.285 107.048 295.394 107.669 295.394C108.208 295.394 108.697 295.273 109.137 295.033C109.576 294.787 109.928 294.424 110.191 293.943C110.455 293.463 110.587 292.871 110.587 292.168ZM118.11 296.176C117.501 296.176 116.938 296.062 116.423 295.833C115.907 295.604 115.459 295.282 115.078 294.866C114.697 294.444 114.401 293.949 114.19 293.381C113.979 292.807 113.874 292.177 113.874 291.491V291.113C113.874 290.387 113.979 289.73 114.19 289.145C114.407 288.559 114.703 288.055 115.078 287.633C115.459 287.205 115.893 286.88 116.379 286.657C116.865 286.429 117.381 286.314 117.926 286.314C118.5 286.314 119.016 286.42 119.473 286.631C119.936 286.836 120.328 287.129 120.65 287.51C120.973 287.891 121.216 288.342 121.38 288.863C121.55 289.379 121.635 289.95 121.635 290.577V291.192H114.41V290.428H120.765V290.313C120.759 289.745 120.645 289.218 120.422 288.731C120.205 288.239 119.886 287.841 119.464 287.536C119.048 287.231 118.535 287.079 117.926 287.079C117.451 287.079 117.018 287.182 116.625 287.387C116.238 287.586 115.904 287.867 115.623 288.23C115.342 288.588 115.125 289.013 114.973 289.505C114.82 289.991 114.744 290.527 114.744 291.113V291.491C114.744 292.036 114.826 292.546 114.99 293.021C115.16 293.495 115.395 293.911 115.693 294.269C115.998 294.626 116.358 294.907 116.774 295.112C117.19 295.317 117.645 295.42 118.137 295.42C118.693 295.42 119.194 295.32 119.64 295.121C120.085 294.916 120.489 294.579 120.853 294.11L121.406 294.532C121.201 294.837 120.946 295.115 120.642 295.367C120.337 295.613 119.977 295.81 119.561 295.956C119.145 296.103 118.661 296.176 118.11 296.176ZM124.605 288.521V296H123.735V286.49H124.579L124.605 288.521ZM124.421 290.586L124.025 290.243C124.066 289.716 124.184 289.215 124.377 288.74C124.57 288.266 124.831 287.847 125.159 287.483C125.487 287.12 125.874 286.836 126.319 286.631C126.765 286.42 127.254 286.314 127.787 286.314C128.262 286.314 128.687 286.379 129.062 286.508C129.437 286.637 129.753 286.842 130.011 287.123C130.274 287.404 130.474 287.768 130.608 288.213C130.749 288.652 130.819 289.188 130.819 289.821V296H129.949V289.812C129.949 289.109 129.85 288.562 129.65 288.169C129.457 287.776 129.185 287.498 128.833 287.334C128.487 287.17 128.077 287.088 127.603 287.088C127.069 287.088 126.606 287.205 126.214 287.439C125.821 287.674 125.493 287.973 125.229 288.336C124.972 288.699 124.775 289.083 124.641 289.487C124.506 289.886 124.433 290.252 124.421 290.586ZM134.484 282.5V296H133.614V282.5H134.484ZM140.505 286.49L135.961 290.894L134.203 292.546L134.045 291.729L135.521 290.19L139.38 286.49H140.505ZM139.767 296L135.618 290.929L136.11 290.19L140.83 296H139.767ZM143.344 286.49V296H142.474V286.49H143.344ZM142.271 283.669C142.271 283.493 142.33 283.344 142.447 283.221C142.564 283.092 142.72 283.027 142.913 283.027C143.112 283.027 143.271 283.092 143.388 283.221C143.511 283.344 143.572 283.493 143.572 283.669C143.572 283.845 143.511 283.994 143.388 284.117C143.271 284.24 143.112 284.302 142.913 284.302C142.72 284.302 142.564 284.24 142.447 284.117C142.33 283.994 142.271 283.845 142.271 283.669ZM147.158 288.521V296H146.288V286.49H147.132L147.158 288.521ZM146.974 290.586L146.578 290.243C146.619 289.716 146.736 289.215 146.93 288.74C147.123 288.266 147.384 287.847 147.712 287.483C148.04 287.12 148.427 286.836 148.872 286.631C149.317 286.42 149.807 286.314 150.34 286.314C150.814 286.314 151.239 286.379 151.614 286.508C151.989 286.637 152.306 286.842 152.563 287.123C152.827 287.404 153.026 287.768 153.161 288.213C153.302 288.652 153.372 289.188 153.372 289.821V296H152.502V289.812C152.502 289.109 152.402 288.562 152.203 288.169C152.01 287.776 151.737 287.498 151.386 287.334C151.04 287.17 150.63 287.088 150.155 287.088C149.622 287.088 149.159 287.205 148.767 287.439C148.374 287.674 148.046 287.973 147.782 288.336C147.524 288.699 147.328 289.083 147.193 289.487C147.059 289.886 146.985 290.252 146.974 290.586ZM161.924 293.601C161.924 293.337 161.854 293.073 161.713 292.81C161.572 292.54 161.312 292.294 160.931 292.071C160.55 291.843 159.993 291.652 159.261 291.5C158.733 291.383 158.265 291.254 157.854 291.113C157.444 290.967 157.099 290.791 156.817 290.586C156.542 290.381 156.331 290.138 156.185 289.856C156.044 289.569 155.974 289.232 155.974 288.846C155.974 288.494 156.05 288.166 156.202 287.861C156.354 287.557 156.574 287.29 156.861 287.062C157.148 286.827 157.494 286.646 157.898 286.517C158.309 286.382 158.769 286.314 159.278 286.314C160.005 286.314 160.626 286.438 161.142 286.684C161.657 286.924 162.053 287.255 162.328 287.677C162.609 288.099 162.75 288.579 162.75 289.118H161.88C161.88 288.767 161.777 288.438 161.572 288.134C161.373 287.823 161.08 287.571 160.693 287.378C160.307 287.179 159.835 287.079 159.278 287.079C158.698 287.079 158.229 287.167 157.872 287.343C157.515 287.519 157.254 287.738 157.09 288.002C156.926 288.266 156.844 288.538 156.844 288.819C156.844 289.042 156.876 289.244 156.94 289.426C157.011 289.607 157.14 289.777 157.327 289.936C157.515 290.094 157.781 290.243 158.127 290.384C158.479 290.519 158.933 290.65 159.489 290.779C160.257 290.949 160.881 291.157 161.361 291.403C161.848 291.644 162.205 291.939 162.434 292.291C162.668 292.643 162.785 293.067 162.785 293.565C162.785 293.952 162.703 294.307 162.539 294.629C162.381 294.945 162.149 295.221 161.845 295.455C161.546 295.684 161.183 295.862 160.755 295.991C160.333 296.114 159.861 296.176 159.34 296.176C158.543 296.176 157.872 296.047 157.327 295.789C156.782 295.531 156.369 295.191 156.088 294.77C155.807 294.348 155.666 293.894 155.666 293.407H156.536C156.571 293.917 156.732 294.318 157.02 294.611C157.312 294.904 157.667 295.112 158.083 295.235C158.505 295.353 158.924 295.411 159.34 295.411C159.902 295.411 160.374 295.326 160.755 295.156C161.142 294.98 161.432 294.755 161.625 294.479C161.824 294.204 161.924 293.911 161.924 293.601Z" fill="white"/>
<defs>
<radialGradient id="paint0_radial_448_863" cx="0" cy="0" r="1" gradientUnits="userSpaceOnUse" gradientTransform="translate(233.226 135.085) scale(233.226 135.085)">
<stop stop-color="#1A5069"/>
<stop offset="1" stop-color="#0F7BAE" stop-opacity="0"/>
</radialGradient>
<radialGradient id="paint1_radial_448_863" cx="0" cy="0" r="1" gradientUnits="userSpaceOnUse" gradientTransform="translate(233.226 135.085) scale(233.226 135.085)">
<stop stop-color="#1A5069"/>
<stop offset="1" stop-color="#0F7BAE" stop-opacity="0"/>
</radialGradient>
</defs>
</svg>
