<svg width="125" height="152" viewBox="0 0 125 152" fill="none" xmlns="http://www.w3.org/2000/svg">
<path d="M37.2686 151.948V126.383L3.82289 108.23C2.80966 108.009 0.210938 105.021 0.210938 104.336V47.8116C17.0558 56.0768 33.1829 65.8713 49.9245 74.3242C54.5638 76.6649 59.6111 80.2487 64.9305 78.0534L124.518 46.4043V101.053C124.518 102.286 122.736 105.743 121.39 106.367L37.2686 151.948Z" fill="#F5F5F5"/>
<path d="M124.442 37.4218L66.0505 68.386C60.2104 71.3319 55.4868 67.9826 50.3972 65.4167C33.8995 57.1045 18.0116 47.5071 1.45761 39.2981C-1.45541 37.1638 0.374022 31.3002 3.63885 29.8976L58.0526 0.814416C61.0876 -0.428658 63.4753 -0.16128 66.4633 1.0255L120.919 30.0665C123.377 31.7505 124.93 34.3868 124.437 37.4218H124.442Z" fill="#F5F5F5"/>
</svg>
