<svg width="51" height="68" viewBox="0 0 51 68" fill="none" xmlns="http://www.w3.org/2000/svg">
<path d="M50.2187 16.1131L49.4377 17.494L27.3092 37.4041C25.293 38.9176 24.4044 37.8176 22.8541 36.4879C15.7331 30.3736 9.05697 23.7106 1.9057 17.6239C1.34915 17.1015 1.01967 16.4334 0.988171 15.6602C1.28483 11.4414 0.606191 6.71457 0.994733 2.55744C1.11418 1.28812 1.60642 0.554352 2.82587 0.131682L3.74209 0.131682C4.54017 0.48872 5.17943 1.07547 5.83838 1.63597C12.3097 7.153 18.4095 13.5561 24.9491 18.9326C25.1421 19.0915 25.3468 19.2424 25.5634 19.3684L47.4701 0.130371L48.3863 0.130371C49.0964 0.409963 49.6674 0.743374 49.9864 1.47714L50.2187 2.22666L50.2187 16.1131Z" fill="#2B4C5B"/>
<path d="M50.2187 45.066C50.0442 45.6619 49.8696 46.1082 49.4194 46.5585C41.7037 53.3212 34.2636 60.4514 26.4298 67.0475C25.5149 67.4439 24.6104 67.1039 23.9029 66.487L1.79413 46.5585C1.16012 45.8667 1.05249 45.4151 0.988171 44.4819C0.696765 40.2447 1.20607 35.6622 1.00917 31.3896C1.20344 29.7908 2.59615 28.7801 4.16213 29.3839C4.70032 29.5913 5.01404 30.1242 5.50759 30.3959L25.5608 48.4618L46.7166 29.5742C48.2616 28.6317 49.7974 29.5703 50.2187 31.1796L50.2187 45.066Z" fill="#2B4C5B"/>
</svg>
