<svg width="267" height="435" viewBox="0 0 267 435" fill="none" xmlns="http://www.w3.org/2000/svg">
<mask id="mask0_448_823" style="mask-type:alpha" maskUnits="userSpaceOnUse" x="0" y="3" width="267" height="429">
<rect x="-0.999735" y="0.968136" width="424.5" height="264.773" rx="96" transform="matrix(-0.000242594 1 -0.999492 -0.031864 266.708 10.4987)" fill="black" stroke="#136A93" stroke-width="2"/>
</mask>
<g mask="url(#mask0_448_823)">
<rect width="466.451" height="270.169" rx="47.5" transform="matrix(-0.000242594 1 -0.999492 -0.031864 367.777 165.823)" fill="url(#paint0_radial_448_823)" fill-opacity="0.74"/>
<rect width="466.451" height="270.169" rx="47.5" transform="matrix(-0.000242594 1 -0.999492 -0.031864 169.096 -140.412)" fill="url(#paint1_radial_448_823)" fill-opacity="0.74"/>
</g>
<rect x="1.83984" y="2.32422" width="264.159" height="427.406" rx="96" fill="#D9D9D9" fill-opacity="0.14" stroke="#136A93" stroke-width="2"/>
<path d="M67.3706 94.1172V119H62.6709V94.1172H67.3706ZM77.4023 104.867V108.575H66.1401V104.867H77.4023ZM78.7183 94.1172V97.8257H66.1401V94.1172H78.7183ZM85.3896 104.286V119H80.8779V100.509H85.1504L85.3896 104.286ZM91.0122 100.389L90.9438 104.593C90.6932 104.548 90.4084 104.514 90.0894 104.491C89.7817 104.468 89.4912 104.457 89.2178 104.457C88.5228 104.457 87.9132 104.553 87.3892 104.747C86.8651 104.929 86.4264 105.197 86.0732 105.55C85.7314 105.903 85.4694 106.336 85.2871 106.849C85.1048 107.35 85.0023 107.92 84.9795 108.558L84.0054 108.438C84.0054 107.265 84.125 106.177 84.3643 105.174C84.6035 104.172 84.951 103.294 85.4067 102.542C85.8625 101.791 86.4321 101.209 87.1157 100.799C87.8107 100.378 88.6082 100.167 89.5083 100.167C89.759 100.167 90.0267 100.19 90.3115 100.235C90.6077 100.27 90.8413 100.321 91.0122 100.389ZM91.9585 109.942V109.583C91.9585 108.228 92.1522 106.98 92.5396 105.841C92.9269 104.69 93.4909 103.693 94.2314 102.85C94.972 102.007 95.8778 101.352 96.9487 100.885C98.0197 100.406 99.2388 100.167 100.606 100.167C101.996 100.167 103.226 100.406 104.297 100.885C105.38 101.352 106.291 102.007 107.032 102.85C107.772 103.693 108.336 104.69 108.724 105.841C109.111 106.98 109.305 108.228 109.305 109.583V109.942C109.305 111.287 109.111 112.534 108.724 113.685C108.336 114.824 107.772 115.821 107.032 116.676C106.291 117.519 105.385 118.174 104.314 118.641C103.243 119.108 102.019 119.342 100.64 119.342C99.2729 119.342 98.0482 119.108 96.9658 118.641C95.8835 118.174 94.972 117.519 94.2314 116.676C93.4909 115.821 92.9269 114.824 92.5396 113.685C92.1522 112.534 91.9585 111.287 91.9585 109.942ZM96.4702 109.583V109.942C96.4702 110.751 96.55 111.509 96.7095 112.215C96.869 112.922 97.1139 113.543 97.4443 114.078C97.7747 114.614 98.202 115.035 98.7261 115.343C99.2616 115.639 99.8996 115.787 100.64 115.787C101.369 115.787 101.996 115.639 102.52 115.343C103.044 115.035 103.471 114.614 103.802 114.078C104.144 113.543 104.394 112.922 104.554 112.215C104.713 111.509 104.793 110.751 104.793 109.942V109.583C104.793 108.786 104.713 108.04 104.554 107.345C104.394 106.638 104.144 106.017 103.802 105.482C103.471 104.935 103.038 104.508 102.503 104.2C101.979 103.881 101.347 103.722 100.606 103.722C99.8768 103.722 99.2502 103.881 98.7261 104.2C98.202 104.508 97.7747 104.935 97.4443 105.482C97.1139 106.017 96.869 106.638 96.7095 107.345C96.55 108.04 96.4702 108.786 96.4702 109.583ZM116.762 104.457V119H112.25V100.509H116.489L116.762 104.457ZM116.044 109.088H114.711C114.723 107.743 114.905 106.524 115.258 105.431C115.611 104.337 116.107 103.397 116.745 102.611C117.395 101.825 118.164 101.221 119.052 100.799C119.941 100.378 120.932 100.167 122.026 100.167C122.915 100.167 123.718 100.292 124.436 100.543C125.153 100.794 125.769 101.192 126.281 101.739C126.805 102.286 127.204 103.004 127.478 103.893C127.762 104.77 127.905 105.852 127.905 107.14V119H123.359V107.105C123.359 106.262 123.234 105.596 122.983 105.106C122.744 104.616 122.39 104.269 121.923 104.063C121.468 103.858 120.904 103.756 120.231 103.756C119.536 103.756 118.927 103.898 118.403 104.183C117.89 104.457 117.457 104.838 117.104 105.328C116.762 105.818 116.5 106.382 116.318 107.02C116.136 107.658 116.044 108.347 116.044 109.088ZM140.387 100.509V103.756H129.791V100.509H140.387ZM132.628 95.9629H137.157V113.668C137.157 114.215 137.231 114.636 137.379 114.933C137.527 115.229 137.749 115.428 138.045 115.531C138.342 115.633 138.695 115.685 139.105 115.685C139.401 115.685 139.675 115.667 139.925 115.633C140.176 115.599 140.387 115.565 140.558 115.531L140.575 118.915C140.199 119.04 139.771 119.142 139.293 119.222C138.826 119.302 138.296 119.342 137.704 119.342C136.69 119.342 135.801 119.171 135.038 118.829C134.274 118.476 133.682 117.912 133.26 117.137C132.839 116.351 132.628 115.314 132.628 114.027V95.9629ZM151.45 119.342C150.049 119.342 148.79 119.114 147.673 118.658C146.557 118.202 145.605 117.57 144.819 116.761C144.045 115.941 143.446 114.99 143.025 113.907C142.615 112.813 142.41 111.64 142.41 110.387V109.703C142.41 108.279 142.615 106.986 143.025 105.824C143.435 104.65 144.016 103.642 144.768 102.799C145.52 101.956 146.42 101.306 147.468 100.851C148.516 100.395 149.673 100.167 150.938 100.167C152.248 100.167 153.404 100.389 154.407 100.833C155.409 101.266 156.247 101.882 156.919 102.679C157.591 103.477 158.098 104.434 158.44 105.55C158.782 106.655 158.953 107.88 158.953 109.225V111.122H144.46V108.011H154.509V107.669C154.486 106.952 154.35 106.297 154.099 105.704C153.848 105.1 153.461 104.622 152.937 104.269C152.413 103.904 151.735 103.722 150.903 103.722C150.231 103.722 149.644 103.87 149.143 104.166C148.653 104.451 148.243 104.861 147.913 105.396C147.594 105.921 147.354 106.547 147.195 107.276C147.035 108.006 146.956 108.814 146.956 109.703V110.387C146.956 111.161 147.058 111.879 147.263 112.54C147.48 113.201 147.793 113.776 148.203 114.266C148.625 114.745 149.126 115.121 149.707 115.394C150.299 115.656 150.972 115.787 151.724 115.787C152.669 115.787 153.524 115.605 154.287 115.24C155.062 114.864 155.734 114.312 156.304 113.583L158.577 115.941C158.189 116.511 157.665 117.057 157.004 117.582C156.355 118.106 155.569 118.533 154.646 118.863C153.723 119.182 152.658 119.342 151.45 119.342ZM166.154 104.457V119H161.642V100.509H165.88L166.154 104.457ZM165.436 109.088H164.103C164.114 107.743 164.297 106.524 164.65 105.431C165.003 104.337 165.499 103.397 166.137 102.611C166.786 101.825 167.555 101.221 168.444 100.799C169.333 100.378 170.324 100.167 171.417 100.167C172.306 100.167 173.109 100.292 173.827 100.543C174.545 100.794 175.16 101.192 175.673 101.739C176.197 102.286 176.596 103.004 176.869 103.893C177.154 104.77 177.296 105.852 177.296 107.14V119H172.75V107.105C172.75 106.262 172.625 105.596 172.375 105.106C172.135 104.616 171.782 104.269 171.315 104.063C170.859 103.858 170.295 103.756 169.623 103.756C168.928 103.756 168.319 103.898 167.794 104.183C167.282 104.457 166.849 104.838 166.496 105.328C166.154 105.818 165.892 106.382 165.709 107.02C165.527 107.658 165.436 108.347 165.436 109.088ZM192.12 115.069V92.75H196.666V119H192.564L192.12 115.069ZM180.242 109.977V109.618C180.242 108.205 180.402 106.923 180.721 105.772C181.051 104.61 181.53 103.613 182.156 102.782C182.783 101.95 183.541 101.306 184.429 100.851C185.329 100.395 186.349 100.167 187.488 100.167C188.593 100.167 189.556 100.389 190.376 100.833C191.208 101.278 191.915 101.91 192.496 102.73C193.088 103.551 193.561 104.525 193.914 105.653C194.267 106.769 194.524 108 194.683 109.344V110.318C194.524 111.629 194.267 112.831 193.914 113.924C193.561 115.018 193.088 115.975 192.496 116.795C191.915 117.604 191.208 118.231 190.376 118.675C189.545 119.12 188.571 119.342 187.454 119.342C186.326 119.342 185.312 119.108 184.412 118.641C183.523 118.174 182.766 117.519 182.139 116.676C181.524 115.833 181.051 114.841 180.721 113.702C180.402 112.563 180.242 111.321 180.242 109.977ZM184.771 109.618V109.977C184.771 110.774 184.839 111.52 184.976 112.215C185.113 112.91 185.335 113.526 185.643 114.061C185.95 114.585 186.343 114.995 186.822 115.292C187.312 115.588 187.904 115.736 188.599 115.736C189.488 115.736 190.217 115.542 190.787 115.155C191.368 114.756 191.818 114.215 192.137 113.531C192.456 112.836 192.661 112.056 192.752 111.19V108.507C192.706 107.823 192.587 107.191 192.393 106.61C192.211 106.029 191.949 105.528 191.607 105.106C191.277 104.684 190.866 104.354 190.376 104.115C189.887 103.875 189.306 103.756 188.633 103.756C187.938 103.756 187.346 103.91 186.856 104.217C186.366 104.514 185.967 104.929 185.66 105.465C185.352 106 185.124 106.621 184.976 107.328C184.839 108.034 184.771 108.797 184.771 109.618Z" fill="#EDD5B1"/>
<path d="M103.811 161.203H107.941C108.809 161.203 109.564 161.347 110.209 161.634C110.854 161.921 111.352 162.343 111.703 162.899C112.061 163.456 112.239 164.139 112.239 164.947C112.239 165.557 112.11 166.11 111.853 166.608C111.595 167.101 111.24 167.511 110.789 167.839C110.344 168.161 109.834 168.378 109.26 168.489L108.917 168.621H104.329L104.312 167.839H108.249C108.935 167.839 109.506 167.704 109.963 167.435C110.426 167.159 110.771 166.802 111 166.362C111.234 165.917 111.352 165.445 111.352 164.947C111.352 164.332 111.217 163.805 110.947 163.365C110.684 162.926 110.297 162.586 109.787 162.346C109.277 162.105 108.662 161.985 107.941 161.985H104.707V174H103.811V161.203ZM111.844 174L108.469 168.305L109.436 168.287L112.793 173.886V174H111.844ZM118.743 174.176C118.134 174.176 117.571 174.062 117.056 173.833C116.54 173.604 116.092 173.282 115.711 172.866C115.33 172.444 115.034 171.949 114.823 171.381C114.612 170.807 114.507 170.177 114.507 169.491V169.113C114.507 168.387 114.612 167.73 114.823 167.145C115.04 166.559 115.336 166.055 115.711 165.633C116.092 165.205 116.525 164.88 117.012 164.657C117.498 164.429 118.014 164.314 118.559 164.314C119.133 164.314 119.648 164.42 120.105 164.631C120.568 164.836 120.961 165.129 121.283 165.51C121.605 165.891 121.849 166.342 122.013 166.863C122.183 167.379 122.268 167.95 122.268 168.577V169.192H115.043V168.428H121.397V168.313C121.392 167.745 121.277 167.218 121.055 166.731C120.838 166.239 120.519 165.841 120.097 165.536C119.681 165.231 119.168 165.079 118.559 165.079C118.084 165.079 117.65 165.182 117.258 165.387C116.871 165.586 116.537 165.867 116.256 166.23C115.975 166.588 115.758 167.013 115.605 167.505C115.453 167.991 115.377 168.527 115.377 169.113V169.491C115.377 170.036 115.459 170.546 115.623 171.021C115.793 171.495 116.027 171.911 116.326 172.269C116.631 172.626 116.991 172.907 117.407 173.112C117.823 173.317 118.277 173.42 118.77 173.42C119.326 173.42 119.827 173.32 120.272 173.121C120.718 172.916 121.122 172.579 121.485 172.11L122.039 172.532C121.834 172.837 121.579 173.115 121.274 173.367C120.97 173.613 120.609 173.81 120.193 173.956C119.777 174.103 119.294 174.176 118.743 174.176ZM130.213 172.269V167.364C130.213 166.89 130.113 166.482 129.914 166.143C129.715 165.797 129.422 165.533 129.035 165.352C128.654 165.164 128.183 165.07 127.62 165.07C127.104 165.07 126.642 165.161 126.231 165.343C125.827 165.524 125.505 165.771 125.265 166.081C125.03 166.392 124.913 166.737 124.913 167.118L124.052 167.101C124.052 166.743 124.137 166.397 124.307 166.063C124.482 165.729 124.729 165.431 125.045 165.167C125.367 164.903 125.748 164.695 126.188 164.543C126.633 164.391 127.122 164.314 127.655 164.314C128.329 164.314 128.921 164.429 129.431 164.657C129.946 164.88 130.351 165.22 130.644 165.677C130.937 166.128 131.083 166.696 131.083 167.382V172.031C131.083 172.359 131.106 172.699 131.153 173.051C131.2 173.402 131.271 173.687 131.364 173.903V174H130.424C130.354 173.783 130.301 173.517 130.266 173.2C130.23 172.878 130.213 172.567 130.213 172.269ZM130.45 168.533L130.468 169.245H128.279C127.711 169.245 127.204 169.298 126.759 169.403C126.319 169.503 125.944 169.649 125.634 169.843C125.329 170.036 125.095 170.271 124.931 170.546C124.767 170.815 124.685 171.12 124.685 171.46C124.685 171.812 124.775 172.134 124.957 172.427C125.139 172.72 125.396 172.954 125.73 173.13C126.07 173.3 126.466 173.385 126.917 173.385C127.526 173.385 128.065 173.276 128.534 173.06C129.009 172.843 129.401 172.553 129.712 172.189C130.022 171.82 130.242 171.407 130.371 170.95L130.749 171.504C130.661 171.803 130.515 172.11 130.31 172.427C130.104 172.737 129.838 173.024 129.51 173.288C129.182 173.552 128.795 173.766 128.35 173.93C127.91 174.094 127.406 174.176 126.838 174.176C126.229 174.176 125.695 174.062 125.238 173.833C124.787 173.599 124.436 173.282 124.184 172.884C123.938 172.479 123.814 172.022 123.814 171.513C123.814 171.062 123.914 170.654 124.113 170.291C124.312 169.922 124.6 169.608 124.975 169.351C125.35 169.087 125.807 168.885 126.346 168.744C126.885 168.604 127.491 168.533 128.165 168.533H130.45ZM137.394 173.411C137.851 173.411 138.281 173.326 138.686 173.156C139.096 172.98 139.436 172.72 139.705 172.374C139.98 172.028 140.136 171.595 140.171 171.073H141.006C140.977 171.688 140.795 172.23 140.461 172.699C140.127 173.168 139.69 173.531 139.151 173.789C138.618 174.047 138.032 174.176 137.394 174.176C136.743 174.176 136.169 174.059 135.671 173.824C135.173 173.584 134.754 173.25 134.414 172.822C134.08 172.395 133.825 171.894 133.649 171.319C133.479 170.739 133.395 170.109 133.395 169.43V169.061C133.395 168.381 133.479 167.754 133.649 167.18C133.825 166.6 134.08 166.096 134.414 165.668C134.754 165.24 135.17 164.909 135.662 164.675C136.16 164.435 136.734 164.314 137.385 164.314C138.041 164.314 138.636 164.449 139.169 164.719C139.708 164.982 140.142 165.366 140.47 165.87C140.798 166.368 140.977 166.969 141.006 167.672H140.171C140.142 167.121 139.998 166.655 139.74 166.274C139.482 165.888 139.148 165.592 138.738 165.387C138.328 165.182 137.877 165.079 137.385 165.079C136.828 165.079 136.351 165.188 135.952 165.404C135.56 165.615 135.237 165.908 134.985 166.283C134.739 166.652 134.555 167.074 134.432 167.549C134.314 168.023 134.256 168.527 134.256 169.061V169.43C134.256 169.963 134.314 170.47 134.432 170.95C134.549 171.425 134.733 171.847 134.985 172.216C135.237 172.585 135.562 172.878 135.961 173.095C136.359 173.306 136.837 173.411 137.394 173.411ZM146.684 164.49V165.237H142.025V164.49H146.684ZM143.774 162.012H144.653V171.697C144.653 172.172 144.712 172.532 144.829 172.778C144.952 173.019 145.113 173.18 145.312 173.262C145.512 173.344 145.726 173.385 145.954 173.385C146.118 173.385 146.271 173.376 146.411 173.358C146.558 173.341 146.698 173.32 146.833 173.297L146.886 174.044C146.757 174.085 146.59 174.117 146.385 174.141C146.18 174.164 145.986 174.176 145.805 174.176C145.4 174.176 145.046 174.103 144.741 173.956C144.437 173.804 144.199 173.549 144.029 173.191C143.859 172.828 143.774 172.33 143.774 171.697V162.012ZM148.828 173.42C148.828 173.238 148.887 173.083 149.004 172.954C149.127 172.825 149.288 172.761 149.487 172.761C149.692 172.761 149.856 172.825 149.979 172.954C150.103 173.083 150.164 173.238 150.164 173.42C150.164 173.602 150.103 173.757 149.979 173.886C149.856 174.009 149.692 174.07 149.487 174.07C149.288 174.07 149.127 174.009 149.004 173.886C148.887 173.757 148.828 173.602 148.828 173.42ZM153.223 164.49H154.093V175.134C154.093 175.714 153.996 176.206 153.803 176.61C153.609 177.015 153.328 177.319 152.959 177.524C152.59 177.735 152.136 177.841 151.597 177.841C151.45 177.841 151.298 177.826 151.14 177.797C150.976 177.768 150.823 177.727 150.683 177.674L150.709 176.927C150.809 176.956 150.932 176.985 151.078 177.015C151.225 177.044 151.368 177.059 151.509 177.059C151.878 177.059 152.188 176.985 152.44 176.839C152.698 176.692 152.892 176.476 153.021 176.188C153.155 175.901 153.223 175.55 153.223 175.134V164.49ZM153.038 161.669C153.038 161.493 153.097 161.344 153.214 161.221C153.331 161.092 153.486 161.027 153.68 161.027C153.879 161.027 154.037 161.092 154.154 161.221C154.277 161.344 154.339 161.493 154.339 161.669C154.339 161.845 154.277 161.994 154.154 162.117C154.037 162.24 153.879 162.302 153.68 162.302C153.486 162.302 153.331 162.24 153.214 162.117C153.097 161.994 153.038 161.845 153.038 161.669ZM162.926 171.601C162.926 171.337 162.855 171.073 162.715 170.81C162.574 170.54 162.313 170.294 161.933 170.071C161.552 169.843 160.995 169.652 160.263 169.5C159.735 169.383 159.267 169.254 158.856 169.113C158.446 168.967 158.101 168.791 157.819 168.586C157.544 168.381 157.333 168.138 157.187 167.856C157.046 167.569 156.976 167.232 156.976 166.846C156.976 166.494 157.052 166.166 157.204 165.861C157.356 165.557 157.576 165.29 157.863 165.062C158.15 164.827 158.496 164.646 158.9 164.517C159.311 164.382 159.771 164.314 160.28 164.314C161.007 164.314 161.628 164.438 162.144 164.684C162.659 164.924 163.055 165.255 163.33 165.677C163.611 166.099 163.752 166.579 163.752 167.118H162.882C162.882 166.767 162.779 166.438 162.574 166.134C162.375 165.823 162.082 165.571 161.695 165.378C161.309 165.179 160.837 165.079 160.28 165.079C159.7 165.079 159.231 165.167 158.874 165.343C158.517 165.519 158.256 165.738 158.092 166.002C157.928 166.266 157.846 166.538 157.846 166.819C157.846 167.042 157.878 167.244 157.942 167.426C158.013 167.607 158.142 167.777 158.329 167.936C158.517 168.094 158.783 168.243 159.129 168.384C159.48 168.519 159.935 168.65 160.491 168.779C161.259 168.949 161.883 169.157 162.363 169.403C162.85 169.644 163.207 169.939 163.436 170.291C163.67 170.643 163.787 171.067 163.787 171.565C163.787 171.952 163.705 172.307 163.541 172.629C163.383 172.945 163.151 173.221 162.847 173.455C162.548 173.684 162.185 173.862 161.757 173.991C161.335 174.114 160.863 174.176 160.342 174.176C159.545 174.176 158.874 174.047 158.329 173.789C157.784 173.531 157.371 173.191 157.09 172.77C156.809 172.348 156.668 171.894 156.668 171.407H157.538C157.573 171.917 157.734 172.318 158.021 172.611C158.314 172.904 158.669 173.112 159.085 173.235C159.507 173.353 159.926 173.411 160.342 173.411C160.904 173.411 161.376 173.326 161.757 173.156C162.144 172.98 162.434 172.755 162.627 172.479C162.826 172.204 162.926 171.911 162.926 171.601ZM109.014 222.854L104.522 235H103.591L108.407 222.203H109.093L109.014 222.854ZM113.188 235L108.697 222.854L108.618 222.203H109.295L114.12 235H113.188ZM112.222 230.553V231.335H105.551V230.553H112.222ZM116.687 227.521V235H115.816V225.49H116.66L116.687 227.521ZM116.502 229.586L116.106 229.243C116.147 228.716 116.265 228.215 116.458 227.74C116.651 227.266 116.912 226.847 117.24 226.483C117.568 226.12 117.955 225.836 118.4 225.631C118.846 225.42 119.335 225.314 119.868 225.314C120.343 225.314 120.768 225.379 121.143 225.508C121.518 225.637 121.834 225.842 122.092 226.123C122.355 226.404 122.555 226.768 122.689 227.213C122.83 227.652 122.9 228.188 122.9 228.821V235H122.03V228.812C122.03 228.109 121.931 227.562 121.731 227.169C121.538 226.776 121.266 226.498 120.914 226.334C120.568 226.17 120.158 226.088 119.684 226.088C119.15 226.088 118.688 226.205 118.295 226.439C117.902 226.674 117.574 226.973 117.311 227.336C117.053 227.699 116.856 228.083 116.722 228.487C116.587 228.886 116.514 229.252 116.502 229.586ZM131.988 225.49H132.806V234.842C132.806 235.662 132.653 236.368 132.349 236.96C132.044 237.558 131.61 238.015 131.048 238.331C130.491 238.647 129.832 238.806 129.07 238.806C128.654 238.806 128.244 238.744 127.84 238.621C127.436 238.498 127.058 238.313 126.706 238.067C126.36 237.827 126.064 237.534 125.818 237.188L126.328 236.652C126.709 237.121 127.119 237.47 127.559 237.698C127.998 237.927 128.484 238.041 129.018 238.041C129.645 238.041 130.175 237.912 130.608 237.654C131.042 237.402 131.37 237.039 131.593 236.564C131.821 236.09 131.936 235.524 131.936 234.868V227.582L131.988 225.49ZM125.273 230.342V230.157C125.273 229.413 125.355 228.745 125.52 228.153C125.684 227.556 125.921 227.046 126.231 226.624C126.548 226.202 126.932 225.88 127.383 225.657C127.834 225.429 128.344 225.314 128.912 225.314C129.457 225.314 129.94 225.402 130.362 225.578C130.784 225.754 131.147 226.003 131.452 226.325C131.763 226.647 132.015 227.028 132.208 227.468C132.401 227.907 132.545 228.394 132.639 228.927V231.757C132.562 232.243 132.431 232.694 132.243 233.11C132.056 233.526 131.807 233.89 131.496 234.2C131.186 234.511 130.813 234.751 130.38 234.921C129.952 235.091 129.457 235.176 128.895 235.176C128.332 235.176 127.825 235.059 127.374 234.824C126.929 234.59 126.548 234.259 126.231 233.831C125.921 233.397 125.684 232.888 125.52 232.302C125.355 231.71 125.273 231.057 125.273 230.342ZM126.144 230.157V230.342C126.144 230.916 126.202 231.452 126.319 231.95C126.437 232.442 126.612 232.87 126.847 233.233C127.087 233.597 127.386 233.881 127.743 234.086C128.106 234.291 128.534 234.394 129.026 234.394C129.647 234.394 130.172 234.279 130.6 234.051C131.027 233.816 131.367 233.506 131.619 233.119C131.871 232.732 132.05 232.308 132.155 231.845V228.918C132.091 228.613 131.991 228.297 131.856 227.969C131.728 227.641 131.543 227.336 131.303 227.055C131.068 226.768 130.767 226.536 130.397 226.36C130.028 226.185 129.577 226.097 129.044 226.097C128.546 226.097 128.115 226.199 127.752 226.404C127.389 226.609 127.087 226.896 126.847 227.266C126.612 227.629 126.437 228.057 126.319 228.549C126.202 229.041 126.144 229.577 126.144 230.157ZM141.832 232.803V225.49H142.711V235H141.858L141.832 232.803ZM141.99 231.115L142.482 231.098C142.482 231.684 142.412 232.226 142.271 232.724C142.131 233.216 141.908 233.646 141.604 234.016C141.305 234.385 140.918 234.672 140.443 234.877C139.969 235.076 139.4 235.176 138.738 235.176C138.275 235.176 137.851 235.111 137.464 234.982C137.083 234.848 136.752 234.637 136.471 234.35C136.195 234.062 135.981 233.69 135.829 233.233C135.683 232.771 135.609 232.214 135.609 231.563V225.49H136.479V231.581C136.479 232.108 136.538 232.554 136.655 232.917C136.778 233.274 136.945 233.562 137.156 233.778C137.373 233.995 137.622 234.153 137.903 234.253C138.185 234.347 138.489 234.394 138.817 234.394C139.614 234.394 140.244 234.241 140.707 233.937C141.17 233.626 141.498 233.222 141.691 232.724C141.891 232.22 141.99 231.684 141.99 231.115ZM146.517 221.5V235H145.646V221.5H146.517ZM155.306 233.269V228.364C155.306 227.89 155.206 227.482 155.007 227.143C154.808 226.797 154.515 226.533 154.128 226.352C153.747 226.164 153.275 226.07 152.713 226.07C152.197 226.07 151.734 226.161 151.324 226.343C150.92 226.524 150.598 226.771 150.357 227.081C150.123 227.392 150.006 227.737 150.006 228.118L149.145 228.101C149.145 227.743 149.229 227.397 149.399 227.063C149.575 226.729 149.821 226.431 150.138 226.167C150.46 225.903 150.841 225.695 151.28 225.543C151.726 225.391 152.215 225.314 152.748 225.314C153.422 225.314 154.014 225.429 154.523 225.657C155.039 225.88 155.443 226.22 155.736 226.677C156.029 227.128 156.176 227.696 156.176 228.382V233.031C156.176 233.359 156.199 233.699 156.246 234.051C156.293 234.402 156.363 234.687 156.457 234.903V235H155.517C155.446 234.783 155.394 234.517 155.358 234.2C155.323 233.878 155.306 233.567 155.306 233.269ZM155.543 229.533L155.561 230.245H153.372C152.804 230.245 152.297 230.298 151.852 230.403C151.412 230.503 151.037 230.649 150.727 230.843C150.422 231.036 150.188 231.271 150.023 231.546C149.859 231.815 149.777 232.12 149.777 232.46C149.777 232.812 149.868 233.134 150.05 233.427C150.231 233.72 150.489 233.954 150.823 234.13C151.163 234.3 151.559 234.385 152.01 234.385C152.619 234.385 153.158 234.276 153.627 234.06C154.102 233.843 154.494 233.553 154.805 233.189C155.115 232.82 155.335 232.407 155.464 231.95L155.842 232.504C155.754 232.803 155.607 233.11 155.402 233.427C155.197 233.737 154.931 234.024 154.603 234.288C154.274 234.552 153.888 234.766 153.442 234.93C153.003 235.094 152.499 235.176 151.931 235.176C151.321 235.176 150.788 235.062 150.331 234.833C149.88 234.599 149.528 234.282 149.276 233.884C149.03 233.479 148.907 233.022 148.907 232.513C148.907 232.062 149.007 231.654 149.206 231.291C149.405 230.922 149.692 230.608 150.067 230.351C150.442 230.087 150.899 229.885 151.438 229.744C151.978 229.604 152.584 229.533 153.258 229.533H155.543ZM159.929 227.09V235H159.059V225.49H159.911L159.929 227.09ZM163.427 225.42L163.392 226.211C163.28 226.193 163.169 226.182 163.058 226.176C162.952 226.164 162.838 226.158 162.715 226.158C162.234 226.158 161.812 226.249 161.449 226.431C161.086 226.612 160.781 226.864 160.535 227.187C160.295 227.509 160.11 227.884 159.981 228.312C159.858 228.733 159.791 229.19 159.779 229.683L159.419 229.788C159.419 229.149 159.483 228.561 159.612 228.021C159.747 227.477 159.952 227.002 160.228 226.598C160.503 226.193 160.849 225.88 161.265 225.657C161.681 225.429 162.173 225.314 162.741 225.314C162.876 225.314 163.005 225.326 163.128 225.35C163.257 225.367 163.356 225.391 163.427 225.42ZM115.553 294.515L119.675 283.203H120.642L115.878 296H115.131L115.553 294.515ZM111.185 283.203L115.289 294.515L115.72 296H114.981L110.218 283.203H111.185ZM128.288 293.803V286.49H129.167V296H128.314L128.288 293.803ZM128.446 292.115L128.938 292.098C128.938 292.684 128.868 293.226 128.728 293.724C128.587 294.216 128.364 294.646 128.06 295.016C127.761 295.385 127.374 295.672 126.899 295.877C126.425 296.076 125.856 296.176 125.194 296.176C124.731 296.176 124.307 296.111 123.92 295.982C123.539 295.848 123.208 295.637 122.927 295.35C122.651 295.062 122.438 294.69 122.285 294.233C122.139 293.771 122.065 293.214 122.065 292.563V286.49H122.936V292.581C122.936 293.108 122.994 293.554 123.111 293.917C123.234 294.274 123.401 294.562 123.612 294.778C123.829 294.995 124.078 295.153 124.359 295.253C124.641 295.347 124.945 295.394 125.273 295.394C126.07 295.394 126.7 295.241 127.163 294.937C127.626 294.626 127.954 294.222 128.147 293.724C128.347 293.22 128.446 292.684 128.446 292.115ZM135.583 296.176C134.974 296.176 134.411 296.062 133.896 295.833C133.38 295.604 132.932 295.282 132.551 294.866C132.17 294.444 131.874 293.949 131.663 293.381C131.452 292.807 131.347 292.177 131.347 291.491V291.113C131.347 290.387 131.452 289.73 131.663 289.145C131.88 288.559 132.176 288.055 132.551 287.633C132.932 287.205 133.365 286.88 133.852 286.657C134.338 286.429 134.854 286.314 135.398 286.314C135.973 286.314 136.488 286.42 136.945 286.631C137.408 286.836 137.801 287.129 138.123 287.51C138.445 287.891 138.688 288.342 138.853 288.863C139.022 289.379 139.107 289.95 139.107 290.577V291.192H131.883V290.428H138.237V290.313C138.231 289.745 138.117 289.218 137.895 288.731C137.678 288.239 137.358 287.841 136.937 287.536C136.521 287.231 136.008 287.079 135.398 287.079C134.924 287.079 134.49 287.182 134.098 287.387C133.711 287.586 133.377 287.867 133.096 288.23C132.814 288.588 132.598 289.013 132.445 289.505C132.293 289.991 132.217 290.527 132.217 291.113V291.491C132.217 292.036 132.299 292.546 132.463 293.021C132.633 293.495 132.867 293.911 133.166 294.269C133.471 294.626 133.831 294.907 134.247 295.112C134.663 295.317 135.117 295.42 135.609 295.42C136.166 295.42 136.667 295.32 137.112 295.121C137.558 294.916 137.962 294.579 138.325 294.11L138.879 294.532C138.674 294.837 138.419 295.115 138.114 295.367C137.81 295.613 137.449 295.81 137.033 295.956C136.617 296.103 136.134 296.176 135.583 296.176ZM141.076 295.42C141.076 295.238 141.135 295.083 141.252 294.954C141.375 294.825 141.536 294.761 141.735 294.761C141.94 294.761 142.104 294.825 142.228 294.954C142.351 295.083 142.412 295.238 142.412 295.42C142.412 295.602 142.351 295.757 142.228 295.886C142.104 296.009 141.94 296.07 141.735 296.07C141.536 296.07 141.375 296.009 141.252 295.886C141.135 295.757 141.076 295.602 141.076 295.42ZM145.471 286.49H146.341V297.134C146.341 297.714 146.244 298.206 146.051 298.61C145.857 299.015 145.576 299.319 145.207 299.524C144.838 299.735 144.384 299.841 143.845 299.841C143.698 299.841 143.546 299.826 143.388 299.797C143.224 299.768 143.071 299.727 142.931 299.674L142.957 298.927C143.057 298.956 143.18 298.985 143.326 299.015C143.473 299.044 143.616 299.059 143.757 299.059C144.126 299.059 144.437 298.985 144.688 298.839C144.946 298.692 145.14 298.476 145.269 298.188C145.403 297.901 145.471 297.55 145.471 297.134V286.49ZM145.286 283.669C145.286 283.493 145.345 283.344 145.462 283.221C145.579 283.092 145.734 283.027 145.928 283.027C146.127 283.027 146.285 283.092 146.402 283.221C146.525 283.344 146.587 283.493 146.587 283.669C146.587 283.845 146.525 283.994 146.402 284.117C146.285 284.24 146.127 284.302 145.928 284.302C145.734 284.302 145.579 284.24 145.462 284.117C145.345 283.994 145.286 283.845 145.286 283.669ZM155.174 293.601C155.174 293.337 155.104 293.073 154.963 292.81C154.822 292.54 154.562 292.294 154.181 292.071C153.8 291.843 153.243 291.652 152.511 291.5C151.983 291.383 151.515 291.254 151.104 291.113C150.694 290.967 150.349 290.791 150.067 290.586C149.792 290.381 149.581 290.138 149.435 289.856C149.294 289.569 149.224 289.232 149.224 288.846C149.224 288.494 149.3 288.166 149.452 287.861C149.604 287.557 149.824 287.29 150.111 287.062C150.398 286.827 150.744 286.646 151.148 286.517C151.559 286.382 152.019 286.314 152.528 286.314C153.255 286.314 153.876 286.438 154.392 286.684C154.907 286.924 155.303 287.255 155.578 287.677C155.859 288.099 156 288.579 156 289.118H155.13C155.13 288.767 155.027 288.438 154.822 288.134C154.623 287.823 154.33 287.571 153.943 287.378C153.557 287.179 153.085 287.079 152.528 287.079C151.948 287.079 151.479 287.167 151.122 287.343C150.765 287.519 150.504 287.738 150.34 288.002C150.176 288.266 150.094 288.538 150.094 288.819C150.094 289.042 150.126 289.244 150.19 289.426C150.261 289.607 150.39 289.777 150.577 289.936C150.765 290.094 151.031 290.243 151.377 290.384C151.729 290.519 152.183 290.65 152.739 290.779C153.507 290.949 154.131 291.157 154.611 291.403C155.098 291.644 155.455 291.939 155.684 292.291C155.918 292.643 156.035 293.067 156.035 293.565C156.035 293.952 155.953 294.307 155.789 294.629C155.631 294.945 155.399 295.221 155.095 295.455C154.796 295.684 154.433 295.862 154.005 295.991C153.583 296.114 153.111 296.176 152.59 296.176C151.793 296.176 151.122 296.047 150.577 295.789C150.032 295.531 149.619 295.191 149.338 294.77C149.057 294.348 148.916 293.894 148.916 293.407H149.786C149.821 293.917 149.982 294.318 150.27 294.611C150.562 294.904 150.917 295.112 151.333 295.235C151.755 295.353 152.174 295.411 152.59 295.411C153.152 295.411 153.624 295.326 154.005 295.156C154.392 294.98 154.682 294.755 154.875 294.479C155.074 294.204 155.174 293.911 155.174 293.601ZM110.657 344.203V357H109.761V344.203H110.657ZM116.801 350.127V350.927H110.306V350.127H116.801ZM117.688 344.203V344.985H110.306V344.203H117.688ZM120.686 343.5V357H119.815V343.5H120.686ZM129.817 354.803V347.49H130.696V357H129.844L129.817 354.803ZM129.976 353.115L130.468 353.098C130.468 353.684 130.397 354.226 130.257 354.724C130.116 355.216 129.894 355.646 129.589 356.016C129.29 356.385 128.903 356.672 128.429 356.877C127.954 357.076 127.386 357.176 126.724 357.176C126.261 357.176 125.836 357.111 125.449 356.982C125.068 356.848 124.737 356.637 124.456 356.35C124.181 356.062 123.967 355.69 123.814 355.233C123.668 354.771 123.595 354.214 123.595 353.563V347.49H124.465V353.581C124.465 354.108 124.523 354.554 124.641 354.917C124.764 355.274 124.931 355.562 125.142 355.778C125.358 355.995 125.607 356.153 125.889 356.253C126.17 356.347 126.475 356.394 126.803 356.394C127.6 356.394 128.229 356.241 128.692 355.937C129.155 355.626 129.483 355.222 129.677 354.724C129.876 354.22 129.976 353.684 129.976 353.115ZM136.998 347.49V348.237H132.34V347.49H136.998ZM134.089 345.012H134.968V354.697C134.968 355.172 135.026 355.532 135.144 355.778C135.267 356.019 135.428 356.18 135.627 356.262C135.826 356.344 136.04 356.385 136.269 356.385C136.433 356.385 136.585 356.376 136.726 356.358C136.872 356.341 137.013 356.32 137.147 356.297L137.2 357.044C137.071 357.085 136.904 357.117 136.699 357.141C136.494 357.164 136.301 357.176 136.119 357.176C135.715 357.176 135.36 357.103 135.056 356.956C134.751 356.804 134.514 356.549 134.344 356.191C134.174 355.828 134.089 355.33 134.089 354.697V345.012ZM142.764 347.49V348.237H138.105V347.49H142.764ZM139.854 345.012H140.733V354.697C140.733 355.172 140.792 355.532 140.909 355.778C141.032 356.019 141.193 356.18 141.393 356.262C141.592 356.344 141.806 356.385 142.034 356.385C142.198 356.385 142.351 356.376 142.491 356.358C142.638 356.341 142.778 356.32 142.913 356.297L142.966 357.044C142.837 357.085 142.67 357.117 142.465 357.141C142.26 357.164 142.066 357.176 141.885 357.176C141.48 357.176 141.126 357.103 140.821 356.956C140.517 356.804 140.279 356.549 140.109 356.191C139.939 355.828 139.854 355.33 139.854 354.697V345.012ZM148.644 357.176C148.034 357.176 147.472 357.062 146.956 356.833C146.44 356.604 145.992 356.282 145.611 355.866C145.23 355.444 144.935 354.949 144.724 354.381C144.513 353.807 144.407 353.177 144.407 352.491V352.113C144.407 351.387 144.513 350.73 144.724 350.145C144.94 349.559 145.236 349.055 145.611 348.633C145.992 348.205 146.426 347.88 146.912 347.657C147.398 347.429 147.914 347.314 148.459 347.314C149.033 347.314 149.549 347.42 150.006 347.631C150.469 347.836 150.861 348.129 151.184 348.51C151.506 348.891 151.749 349.342 151.913 349.863C152.083 350.379 152.168 350.95 152.168 351.577V352.192H144.943V351.428H151.298V351.313C151.292 350.745 151.178 350.218 150.955 349.731C150.738 349.239 150.419 348.841 149.997 348.536C149.581 348.231 149.068 348.079 148.459 348.079C147.984 348.079 147.551 348.182 147.158 348.387C146.771 348.586 146.438 348.867 146.156 349.23C145.875 349.588 145.658 350.013 145.506 350.505C145.354 350.991 145.277 351.527 145.277 352.113V352.491C145.277 353.036 145.359 353.546 145.523 354.021C145.693 354.495 145.928 354.911 146.227 355.269C146.531 355.626 146.892 355.907 147.308 356.112C147.724 356.317 148.178 356.42 148.67 356.42C149.227 356.42 149.728 356.32 150.173 356.121C150.618 355.916 151.022 355.579 151.386 355.11L151.939 355.532C151.734 355.837 151.479 356.115 151.175 356.367C150.87 356.613 150.51 356.81 150.094 356.956C149.678 357.103 149.194 357.176 148.644 357.176ZM155.139 349.09V357H154.269V347.49H155.121L155.139 349.09ZM158.637 347.42L158.602 348.211C158.49 348.193 158.379 348.182 158.268 348.176C158.162 348.164 158.048 348.158 157.925 348.158C157.444 348.158 157.022 348.249 156.659 348.431C156.296 348.612 155.991 348.864 155.745 349.187C155.505 349.509 155.32 349.884 155.191 350.312C155.068 350.733 155.001 351.19 154.989 351.683L154.629 351.788C154.629 351.149 154.693 350.561 154.822 350.021C154.957 349.477 155.162 349.002 155.438 348.598C155.713 348.193 156.059 347.88 156.475 347.657C156.891 347.429 157.383 347.314 157.951 347.314C158.086 347.314 158.215 347.326 158.338 347.35C158.467 347.367 158.566 347.391 158.637 347.42Z" fill="white"/>
<defs>
<radialGradient id="paint0_radial_448_823" cx="0" cy="0" r="1" gradientUnits="userSpaceOnUse" gradientTransform="translate(233.226 135.085) scale(233.226 135.085)">
<stop stop-color="#1A5069"/>
<stop offset="1" stop-color="#0F7BAE" stop-opacity="0"/>
</radialGradient>
<radialGradient id="paint1_radial_448_823" cx="0" cy="0" r="1" gradientUnits="userSpaceOnUse" gradientTransform="translate(233.226 135.085) scale(233.226 135.085)">
<stop stop-color="#1A5069"/>
<stop offset="1" stop-color="#0F7BAE" stop-opacity="0"/>
</radialGradient>
</defs>
</svg>
