<svg width="136" height="152" viewBox="0 0 136 152" fill="none" xmlns="http://www.w3.org/2000/svg">
<path d="M120.225 0C128.361 2.37982 133.037 7.52538 135.662 15.4367V137C132.51 144.783 127.905 149.691 119.582 151.794H113.15C105.792 149.048 99.9258 143.998 98.4078 135.984L98.3242 17.6621C98.5815 8.77318 105.702 2.34766 113.787 0H120.219L120.225 0Z" fill="white"/>
<path d="M70.3269 151.794H64.5381C55.4112 149.414 50.3879 142.506 49.2816 133.283C47.0754 114.855 50.5744 93.0507 49.0757 74.263C52.877 50.9214 84.5093 51.7833 86.4325 76.199C87.6224 91.3205 87.6224 117.73 86.4325 132.845C85.6285 143.027 80.0263 149.169 70.3269 151.794Z" fill="white"/>
<path d="M21.8686 151.794H14.7935C7.26167 148.957 2.83006 144.506 0 137V129.282C3.80771 114.495 22.2674 108.693 32.8158 120.586C42.6695 131.694 36.1411 148.951 21.8686 151.794Z" fill="white"/>
</svg>
