<svg width="114" height="130" viewBox="0 0 114 130" fill="none" xmlns="http://www.w3.org/2000/svg">
<path d="M46.8854 117.512C47.1396 113.571 49.1968 111.202 52.6398 109.36C53.2536 109.03 54.7641 108.593 55.517 108.401L56.2315 108.876L56.476 108.401C56.7829 108.377 57.1282 108.382 57.4351 108.401L58.1496 108.876L58.3941 108.401C59.5594 108.507 60.6863 109.413 61.9235 108.334L105.513 76.1578C112.605 73.8992 116.523 81.3511 110.413 85.8539C105.637 90.4334 68.5074 114.981 67.6107 117.858C67.1647 119.282 67.462 120.879 66.7332 122.734C64.0622 129.52 54.5531 131.385 49.5085 126.163C47.0053 123.574 46.6648 120.989 46.8902 117.512H46.8854ZM55.8718 113.782C49.9928 114.909 51.5225 123.943 57.1522 123.722C64.0094 123.449 63.1511 112.386 55.8718 113.782Z" fill="white"/>
<path d="M52.6389 109.36C49.1959 111.202 47.1387 113.57 46.8845 117.512C31.4245 107.197 16.9859 95.3962 1.78958 84.6836C-2.718 79.9842 2.04373 73.7982 7.72616 76.3493L52.6389 109.36Z" fill="white"/>
<path d="M76.9847 30.3341C79.929 29.9265 82.9932 32.3433 83.3385 35.2637C83.6646 38.0018 83.7029 48.4459 83.1227 50.8915C81.78 56.526 73.0478 56.5164 72.2901 50.1483C71.9592 47.367 71.8969 36.966 72.41 34.4245C72.8512 32.2426 74.8268 30.6314 76.9847 30.3341Z" fill="white"/>
<path d="M97.5996 15.4634C101.186 14.9312 103.656 18.0193 103.968 21.3473C104.231 24.1621 104.337 33.0526 103.742 35.5461C102.337 41.4491 93.6099 40.7107 92.9098 34.8029C92.5837 32.0695 92.5262 22.0666 93.0297 19.5586C93.4373 17.5446 95.6048 15.7607 97.5996 15.4634Z" fill="white"/>
<path d="M54.916 62.4866C59.2749 61.3741 62.224 63.532 62.7131 67.8814C62.9913 70.3509 63.044 79.8648 62.3967 81.9507C60.9485 86.6022 53.8754 87.2304 52.1299 82.7803C51.4106 80.9485 51.3579 68.8116 51.7175 66.4715C51.9573 64.9035 53.3479 62.8847 54.9208 62.4866H54.916Z" fill="white"/>
<path d="M14.1477 0.14262C17.4085 -0.519131 20.5974 1.14963 21.0002 4.57347C21.3023 7.14375 21.3934 18.0674 20.8899 20.3068C19.7966 25.1549 11.2322 25.8838 10.4218 19.9472C10.0717 17.3913 10.0286 6.04563 10.4649 3.64798C10.7622 2.02717 12.5749 0.459109 14.1477 0.137825V0.14262Z" fill="white"/>
<path d="M35.7453 46.1533C38.4642 45.8416 41.3078 48.455 41.6243 51.0877C41.9408 53.7203 41.9983 63.4116 41.5044 65.8524C40.3583 71.5108 31.7412 71.3046 31.0555 65.4927C30.7486 62.9129 30.6622 52.0131 31.1658 49.7594C31.5734 47.9467 33.9998 46.3499 35.7501 46.1485L35.7453 46.1533Z" fill="white"/>
<path d="M56.3614 89.7856C62.3459 88.98 65.4916 98.0815 59.066 100.681C51.2017 103.86 47.9936 90.9125 56.3614 89.7856Z" fill="white"/>
<path d="M76.9806 15.4637C82.5143 14.6437 86.2211 22.5224 80.4284 26.138C73.0628 30.7415 68.2531 16.7536 76.9806 15.4637Z" fill="white"/>
<path d="M97.1044 43.7748C103.636 42.4561 106.623 50.541 101.526 53.9552C94.0307 58.9711 88.9476 45.4244 97.1044 43.7748Z" fill="white"/>
<path d="M102.366 1.61437C107.708 6.32815 100.309 15.4536 94.5878 10.1068C89.3274 5.18687 96.88 -3.22888 102.366 1.61437Z" fill="white"/>
<path d="M54.8977 46.6479C65.6919 44.1975 64.1718 59.6671 55.5067 57.351C50.0784 55.9028 50.2703 47.698 54.8977 46.6479Z" fill="white"/>
<path d="M56.3553 30.7989C61.8747 29.8494 65.5239 38.7735 59.4819 41.6362C51.632 45.3526 47.8245 32.2662 56.3553 30.7989Z" fill="white"/>
<path d="M76.4913 59.1251C84.2549 57.7777 85.3818 68.1643 79.9967 69.8282C71.533 72.4417 69.3847 60.3623 76.4913 59.1251Z" fill="white"/>
<path d="M98.0847 59.1008C103.479 58.487 106.702 67.0274 101.101 69.8279C93.136 73.808 89.1942 60.1126 98.0847 59.1008Z" fill="white"/>
<path d="M76.0114 74.475C85.6883 71.9527 85.6356 88.2759 75.6278 85.1685C70.9428 83.7155 71.2689 75.7074 76.0114 74.475Z" fill="white"/>
<path d="M34.7573 31.3027C42.9669 29.4086 44.1034 41.6318 36.5172 42.2168C30.2689 42.6963 28.5139 32.7461 34.7573 31.3027Z" fill="white"/>
<path d="M14.1424 28.9148C20.429 27.62 23.6323 35.4364 18.2664 38.7883C11.0398 43.3055 6.18701 30.55 14.1424 28.9148Z" fill="white"/>
<path d="M34.7662 15.9677C41.3117 14.6299 44.2656 22.451 38.9764 25.9276C31.9993 30.5119 27.1177 17.531 34.7662 15.9677Z" fill="white"/>
<path d="M35.2501 74.4556C42.4814 73.0506 44.1885 84.3627 37.0147 85.3601C30.0951 86.3239 28.6278 75.7407 35.2501 74.4556Z" fill="white"/>
<path d="M13.6581 59.5951C22.5246 57.5523 23.4549 70.538 14.9864 70.0729C8.78132 69.7324 8.4936 60.7844 13.6581 59.5951Z" fill="white"/>
<path d="M14.1429 44.2598C21.6379 42.7109 22.9182 52.8626 17.6578 54.4834C9.40031 57.0297 7.24722 45.6888 14.1429 44.2598Z" fill="white"/>
</svg>
