<svg width="136" height="125" viewBox="0 0 136 125" fill="none" xmlns="http://www.w3.org/2000/svg">
<path d="M69.3034 0.0278333C104.115 1.25893 131.256 31.1211 127.103 66.347C126.681 69.9268 125.779 73.4455 124.802 76.9016H127.193C127.508 76.9016 129.064 77.5113 129.443 77.6961C133.899 79.876 135.662 85.8365 132.943 90.0537C135.754 92.302 136.683 96.2237 135.49 99.607C135.328 100.068 134.561 101.355 134.543 101.556C134.52 101.838 135.194 102.893 135.34 103.316C138.17 111.548 127.931 116.214 121.94 118.57C110.652 123.011 90.8493 127.73 80.328 119.828C79.3895 119.123 78.6264 118.241 77.7517 117.467C71.3096 118.558 64.6803 118.619 58.2251 117.585C57.8537 117.633 56.8731 118.851 56.4742 119.184C46.4301 127.559 27.6128 123.504 16.3749 119.441C9.04643 116.791 -3.81469 111.66 1.45538 101.553C-0.933772 97.9496 -0.368034 92.7749 3.05396 90.0522C-0.473929 84.4759 3.66176 76.7008 10.3244 76.8987C9.92986 74.9516 9.3177 73.0628 8.92023 71.1143C1.43653 34.3749 29.2462 1.27348 65.9699 0.0278333C67.0433 -0.00854662 68.2299 -0.0100018 69.3034 0.0278333ZM120.02 70.9426C124.482 51.7136 117.459 31.3975 102.49 18.8435C65.2344 -12.3966 7.65095 17.8802 14.405 66.6352C14.5138 67.421 15.0462 70.912 15.3232 71.382C15.4683 71.6294 15.4915 71.4621 15.6163 71.3791C15.9238 71.1768 16.2313 70.7039 16.5708 70.4463C19.9971 67.8401 24.5723 68.4644 27.9943 70.7374C29.664 71.8462 30.9144 73.4251 32.2823 74.8643C37.9165 68.4745 45.2929 70.9338 48.5089 78.2113C50.3149 82.2975 51.809 85.7725 54.674 89.3217C56.287 91.3197 58.2816 92.9975 59.799 95.0814C63.5633 100.253 64.4757 105.972 61.7718 111.921C65.9147 112.312 70.1056 112.375 74.2326 111.775C72.5731 108.26 72.193 104.483 73.2911 100.733C75.0377 94.7758 80.0074 91.5685 83.2757 86.6238C85.2354 83.6595 86.2567 80.9893 87.6826 77.8198C90.858 70.765 98.4287 68.6841 103.721 74.8629C104.946 73.5692 106.072 72.178 107.512 71.1114C111.213 68.3741 116.421 67.632 120.021 70.9411L120.02 70.9426ZM7.33471 99.0832C10.661 102.448 21.1431 104.169 22.9999 107.133C23.8644 108.513 22.8461 109.481 21.3317 109.24C17.6616 108.657 13.0922 104.232 9.23791 103.932C6.74721 103.738 5.56497 105.579 7.14178 107.631C9.89939 111.22 22.0541 115.098 26.5814 116.182C35.4722 118.312 49.7825 120.463 55.2179 111.094C60.7723 101.521 53.4293 98.1737 48.6075 91.4783C46.597 88.6872 44.9404 85.6342 43.4839 82.5216C42.7427 80.9369 42.512 79.1993 41.0469 77.9901C39.0117 76.3108 37.1462 78.0759 36.5138 80.1307C35.6071 83.0745 36.6124 86.2862 38.7216 88.4617C39.3947 89.1558 40.458 89.7364 41.1267 90.4102C44.5284 93.8343 40.2186 96.3561 37.4233 93.9783C36.0771 92.8331 33.1643 87.0458 31.9211 85.1089C30.0817 82.2451 26.1506 75.9164 22.8534 75.0215C19.6112 74.1411 19.044 77.1999 19.8201 79.6621C20.9618 83.2826 29.0663 89.7554 31.7703 93.2551C32.3186 93.9638 33.7373 95.6867 32.555 96.359C30.6765 97.4272 27.43 93.7542 26.1259 92.6672C23.1188 90.1657 20.0377 87.606 16.6926 85.5615C14.6893 84.3362 9.66004 81.174 8.19347 84.425C6.99382 87.0807 10.8452 89.4629 12.7179 90.7114C16.7158 93.3788 22.0642 95.758 25.6139 98.8503C26.799 99.8821 28.1118 101.211 26.7526 102.749C26.0621 102.983 24.1067 101.851 23.4191 101.487C20.0276 99.6944 11.5487 93.7804 7.97298 94.3771C5.5229 94.786 5.89861 97.6294 7.33761 99.0861L7.33471 99.0832ZM113.609 74.9051C110.198 75.394 106.121 81.9642 104.311 84.7611C102.646 87.3325 100.946 91.0447 99.2179 93.3133C97.071 96.1291 92.0823 94.9053 94.1088 91.3866C94.7834 90.2167 96.1136 89.5866 97.0565 88.6756C99.3803 86.4317 100.532 82.9232 99.3702 79.8091C98.4142 77.2465 96.2137 76.3268 94.3119 78.6566C93.3357 79.8527 93.1369 81.1901 92.5132 82.5201C90.7202 86.3458 88.5211 90.2778 85.8186 93.536C82.179 97.9234 77.1628 101.222 79.2966 107.931C83.2278 120.291 97.7803 118.675 107.875 116.528C112.675 115.507 126.321 111.34 129.067 107.408C130.407 105.489 129.071 103.808 126.897 103.926C122.972 104.139 117.694 109.152 114.29 109.312C112.939 109.376 112.301 108.249 112.999 107.133C114.85 104.175 125.467 102.442 128.699 99.0468C130.492 97.1638 130.217 94.1617 127.196 94.3407C123.112 94.5823 116.347 99.495 112.581 101.486C111.925 101.832 110.298 102.756 109.652 102.776C108.666 102.808 108.547 101.381 108.83 100.63C109.321 99.3233 112.566 97.2671 113.801 96.4609C116.889 94.4411 120.215 92.7603 123.284 90.7114C125.188 89.4396 129.103 87.0618 127.759 84.3289C126.465 81.6979 122.792 83.5839 120.938 84.5807C117.464 86.4491 113.879 89.3624 110.823 91.8756C109.32 93.111 106.337 96.3823 104.44 96.5249C101.78 96.7243 103.583 94.1311 104.375 93.111C105.453 91.7199 107.038 90.1977 108.28 88.8895C110.508 86.5423 116.125 81.7678 116.403 78.5809C116.59 76.433 116.205 74.5369 113.609 74.908V74.9051Z" fill="white"/>
<path d="M48.1039 58.9129C49.0163 58.699 49.9491 59.0453 50.7919 59.3524C57.3994 61.7564 61.39 65.5152 69.2277 64.693C75.1752 64.0687 78.7684 60.9909 83.9383 59.2462C87.3502 58.0951 87.488 59.7438 87.2675 62.7299C86.7351 69.9652 81.7668 77.407 74.9503 80.022C61.6976 85.105 47.9371 76.3389 47.132 62.1493C47.0841 61.3111 47.0478 59.1588 48.1039 58.9129Z" fill="white"/>
<path d="M85.3572 34.0751C93.0542 33.3184 97.0883 43.0042 90.8812 47.7525C87.6187 50.2482 87.5346 45.8738 85.2441 44.8581C83.4889 44.0796 80.6253 46.7048 79.5258 45.5057C79.0485 44.9847 78.5147 43.093 78.4494 42.3712C78.0766 38.2501 81.2839 34.4767 85.3572 34.0751Z" fill="white"/>
<path d="M46.6677 34.075C52.3642 33.4667 56.8742 39.0415 54.7374 44.4927C53.4261 47.8397 50.4073 43.5308 48.1531 45.0108C45.9453 46.4587 45.9496 50.3674 42.4928 47.4759C37.3707 43.1903 40.0601 34.7793 46.6677 34.075Z" fill="white"/>
<path d="M31.4484 42.0659C35.0039 41.6788 37.9138 44.8934 36.8882 48.3917C35.8989 51.7663 31.6994 53.0352 28.949 50.8859C25.453 48.153 27.0618 42.5432 31.4484 42.0659Z" fill="white"/>
<path d="M103.323 42.0654C110.077 41.332 110.859 51.1619 104.717 51.8909C97.7574 52.716 96.9015 42.7639 103.323 42.0654Z" fill="white"/>
</svg>
