<svg width="242" height="123" viewBox="0 0 242 123" fill="none" xmlns="http://www.w3.org/2000/svg">
<path d="M188.484 0C205.964 3.28868 221.415 11.9727 231.347 26.7195C236.955 35.0498 239.682 43.782 241.832 53.4873C241.451 58.36 242.351 63.884 241.832 68.6522C238.773 96.819 212.164 119.558 184.078 121.376C142.302 124.077 97.581 119.253 55.4969 121.376C-17.4968 115.16 -18.8196 7.66286 53.5088 0H188.484ZM121.398 93.4097C120.522 93.2891 119.508 92.9594 118.956 92.2519C110.11 81.0109 107.027 67.7114 97.5729 56.6634C93.1908 51.5414 86.9261 47.0627 82.6333 41.8844C75.2081 32.927 73.7474 19.7321 59.4489 19.2175C56.9171 19.129 53.7036 20.1984 51.8533 21.9192C49.8652 23.7685 50.1249 25.5697 48.9969 27.0813C48.372 27.9176 47.0493 28.2794 46.3595 29.2684C43.779 32.9592 41.4581 38.2178 45.4182 41.5226C45.8645 36.0709 47.6904 39.3837 50.0437 39.7617C51.9264 40.0592 54.8478 39.4159 56.0163 40.4451C61.8591 51.9595 59.7248 64.4147 68.8947 74.6345C70.5826 76.5161 73.9178 78.1805 74.7293 80.046C75.8492 82.6029 75.0052 84.9187 75.3785 87.3872C75.6869 89.4456 77.886 91.2307 76.612 93.466C74.6969 96.0793 63.3928 91.3272 61.5994 96.6019C65.0158 94.9857 63.4658 97.0602 65.3728 98.0332C70.331 100.574 74.1613 95.5405 79.3711 96.61L76.9528 98.99C81.6351 100.1 83.9885 98.395 88.265 97.406L85.0434 102.182C86.0172 103.139 92.0628 98.6282 93.7345 98.3387C96.5504 97.8402 99.066 99.7941 102.012 98.186C100.397 95.2672 95.8525 97.3899 93.1908 95.7416L95.9904 85.4011C102.766 86.8565 105.818 91.0377 110.743 94.8249L121.009 95.0179L121.406 93.4339L121.398 93.4097ZM181.433 73.6535C182.463 72.6324 185.628 72.1499 187.275 71.0403C202.101 61.0858 216.83 38.8772 195.496 27.009C179.988 18.3812 168.936 29.9037 159.4 41.1125C158.118 42.6242 157.631 45.2133 156.755 46.0897C155.879 46.9662 152.56 47.7944 151.05 48.8397C138.172 57.7408 123.533 75.5672 138.35 89.8316C151.578 102.568 166.769 93.4017 176.344 81.7989C178.081 79.6922 180.475 74.6104 181.433 73.6535Z" fill="white"/>
<path d="M89.8393 94.9455C88.1433 95.1384 86.3905 96.819 84.7188 96.634C84.4023 96.6019 82.7306 93.0237 79.3792 94.9857C78.6651 92.0186 81.132 92.7584 82.4385 90.4346C83.2743 88.947 83.6152 86.3257 84.2319 84.6211L89.4579 92.6136L89.8312 94.9455H89.8393Z" fill="white"/>
<path d="M182.836 63.0641C182.009 55.8193 176.563 49.4028 169.601 47.2157C167.199 48.5746 166.355 51.2682 166.631 53.8654C166.98 55.7389 170.023 56.8164 171.508 58.6738C174.527 62.453 175.297 68.371 172.693 72.6085C171.857 73.9674 162.111 83.5761 160.609 84.6214C154.199 89.0518 144.875 87.3713 142.01 79.8291C137.774 68.6604 148.786 63.9405 154.945 56.6797C156.706 63.8601 161.802 71.5069 169.771 72.5361L172.384 65.1707C156.674 56.7279 166.055 44.3371 176.352 36.3124C183.047 31.0939 191.99 31.0376 195.893 39.3759C201.095 50.4722 189.442 56.1409 182.828 63.056L182.836 63.0641Z" fill="white"/>
</svg>
