<svg width="84" height="134" viewBox="0 0 84 134" fill="none" xmlns="http://www.w3.org/2000/svg">
<path d="M24.3273 55.6898L28.9736 67.7601C13.6091 76.3816 9.4575 96.8579 21.1628 110.41C34.2445 125.554 59.1883 121.853 67.2466 103.601C76.6936 82.2012 57.5302 60.0006 35.1238 65.47L30.2203 52.9834C52.4699 46.1669 76.3384 59.7704 81.9327 82.2184C89.9027 114.199 58.9606 142.055 27.9572 130.805C-3.1834 119.507 -8.60373 77.0479 18.8776 58.4135C19.6148 57.9138 23.7762 55.2098 24.3297 55.6874L24.3273 55.6898Z" fill="white" stroke="black" stroke-miterlimit="10"/>
<path d="M30.4645 20.4102C30.5625 20.7678 30.3666 20.8168 30.2269 21.0225C29.8473 21.576 24.6033 26.9009 24.1845 26.9792C18.8009 23.8931 11.8987 26.2934 10.2944 32.4436C8.73913 38.4053 13.3095 43.9505 19.4083 43.953C20.0794 46.4317 21.8234 49.1161 22.5165 51.5042C22.6096 51.83 22.7467 52.1973 22.5239 52.506C22.4038 52.6701 19.5357 53.0032 19.0777 53.0007C10.003 52.9346 1.78798 45.5303 1.06543 36.4556C-0.218007 20.3661 17.6546 11.0367 30.4645 20.4102Z" fill="white" stroke="black" stroke-miterlimit="10"/>
<path d="M39.958 1.11913C49.1773 -0.132471 56.099 8.6973 52.474 17.3091C50.3015 22.4698 44.4574 25.2816 39.0298 23.9639C38.4174 23.8145 35.2333 22.6437 35.3729 22.0118C35.444 21.6909 39.7254 17.4658 40.0266 17.3336C40.5042 17.1229 41.2317 17.5075 41.8514 17.4879C45.518 17.3679 47.715 13.6253 46.0323 10.3481C44.1415 6.66192 38.05 7.23996 37.1854 11.3279C36.9723 12.3321 37.2907 13.7747 36.9503 14.5218C36.8205 14.8059 32.8036 18.8252 32.5023 18.906C31.7651 19.1069 31.4099 17.9484 31.1552 17.385C28.1009 10.5955 32.5611 2.1209 39.958 1.11668V1.11913Z" fill="white" stroke="black" stroke-miterlimit="10"/>
<path d="M28.7653 49.7846C28.4469 47.7713 25.5371 43.3111 25.5469 41.5868C25.5518 40.7173 26.2939 40.5777 26.654 39.9849C27.8786 37.9716 28.5081 35.924 28.2338 33.5359C28.1285 32.6223 27.2222 30.8416 27.2712 30.3346C27.3545 29.5043 32.2752 25.4042 33.0222 24.3118C33.975 23.4594 35.1604 26.161 35.5352 26.9668C38.4474 33.2175 37.7004 40.4111 33.5047 45.8584C32.9463 46.5834 29.5246 50.3137 28.7604 49.7846H28.7653Z" fill="white" stroke="black" stroke-miterlimit="10"/>
</svg>
