<svg width="180" height="120" viewBox="0 0 180 120" fill="none" xmlns="http://www.w3.org/2000/svg">
<path d="M90.4428 53.951C76.5494 73.6813 66.7404 101.257 44.1428 113.997C-6.86082 142.779 -5.92344 59.8684 8.6562 29.8456C27.0523 -8.08934 65.2172 -9.44715 89.6393 23.7439C98.9797 14.9767 107.985 2.37086 121.594 0.459859C181.268 -7.92171 195.43 100.838 163.09 117.433C133.529 132.604 98.9797 76.531 90.4763 53.951H90.4428ZM49.8843 15.7478C25.1273 19.3854 14.9668 58.8123 16.8416 79.9004C17.9631 92.4392 23.6376 103.888 38.1503 97.9208C52.0771 92.1878 68.3139 51.7215 78.5079 39.2833C76.5829 27.2306 63.1081 13.8033 49.8843 15.7478ZM121.845 15.7311C114.413 17.1559 98.1929 31.9913 101.206 40.5741C111.651 53.2302 126.499 91.9195 141.112 97.9208C168.781 109.286 162.069 60.7233 157.482 46.3406C152.896 31.9578 138.885 12.4455 121.862 15.7311H121.845Z" fill="#F5F5F5"/>
</svg>
