<svg width="129" height="122" viewBox="0 0 129 122" fill="none" xmlns="http://www.w3.org/2000/svg">
<path d="M67.1095 15.1006L68.3798 14.7183C75.8409 1.35606 93.9944 -2.7075 107.93 1.7137C116.255 4.35286 122.248 10.9384 125.085 19.0902C128.377 28.543 128.729 60.3979 127.526 70.9113C126.324 81.4248 112.444 81.3015 111.47 70.936C109.909 54.2871 119.264 14.7368 93.3099 14.447C63.0768 14.1017 74.2377 53.2697 72.0425 71.5465C70.9881 80.3395 58.5385 81.061 56.1398 72.6256C53.4328 55.2922 65.1425 14.7923 37.2032 14.447C8.06155 14.0894 18.5627 53.763 16.5401 71.528C15.4795 80.8205 1.43283 81.7516 0.483229 69.7028C-1.0645 50.0694 1.71031 28.4506 0.483229 8.60757C0.816206 2.44132 5.24974 -0.0128466 11.1508 1.06625C17.3602 2.207 16.2935 8.37325 16.534 12.9548C16.571 13.6516 16.1332 14.6505 17.1444 14.484C26.0855 -5.24182 58.1931 -4.41555 67.1095 15.1006Z" fill="white"/>
<path d="M14.5359 88.9415C36.3829 85.9077 39.1084 120.574 17.4279 121.481C-2.64325 122.319 -5.4304 91.7101 14.5359 88.9415Z" fill="white"/>
<path d="M73.1339 93.8564C88.346 92.1915 89.8382 114.729 76.6055 116.468C60.1478 118.632 59.155 95.3856 73.1339 93.8564Z" fill="white"/>
<path d="M126.115 108.951C121.866 113.995 113.098 106.299 118.863 101.385C124.036 96.976 130.184 104.129 126.115 108.951Z" fill="white"/>
</svg>
