<svg width="165" height="164" viewBox="0 0 165 164" fill="none" xmlns="http://www.w3.org/2000/svg">
<path d="M144.574 163.49C143.127 162.837 141.988 161.909 140.75 160.93C129.918 152.392 119.766 142.929 108.904 134.412C97.6101 133.649 85.4737 135.176 74.2822 134.354C62.9918 133.525 53.5068 124.333 52.5803 113.019C51.8588 104.199 51.9064 89.0719 52.562 80.2156C53.2907 70.3404 62.7208 58.5479 73.2019 58.5479H93.4646V68.9344L82.1924 80.2777L81.72 88.3744C70.4772 92.5268 77.3841 109.052 88.1764 104.473C95.4165 101.398 95.1272 90.8979 87.682 88.3744L87.6967 83.2213L99.3057 71.1219V58.5515H105.147V88.4328C97.4563 90.8139 97.4197 101.741 104.861 104.568C115.738 108.702 122.11 92.3222 110.988 88.4328V58.5515H116.829V71.1219L128.438 83.2213L128.453 88.3744C121.004 90.8979 120.715 101.401 127.958 104.473C138.751 109.052 145.654 92.5268 134.415 88.3744L133.942 80.2777L122.67 68.9344V58.5479H142.933C153.399 58.5479 162.848 70.355 163.573 80.2156C164.232 89.1194 164.228 103.772 163.573 112.675C162.767 123.613 154.029 132.773 143.112 133.981L151.847 156.789C152.271 160.229 150.36 162.099 147.496 163.494H144.574V163.49Z" fill="url(#paint0_linear_448_1894)"/>
<path d="M0 38.1401L13.5426 15.0371C18.362 10.4172 24.6463 17.473 29.3229 19.1201L34.9882 15.6726C35.6474 10.1762 32.6042 0.940099 40.6902 0.227944C48.7762 -0.484211 57.2541 0.742887 65.1351 0.275421C73.5214 1.41122 68.3688 13.7698 70.4562 16.0999C71.1081 16.8266 75.0229 18.1231 76.0593 19.1311C80.9263 17.0092 87.5401 9.85116 92.235 15.8588C95.509 22.6079 101.27 29.5797 104.243 36.3031C107.763 44.2574 99.1126 45.8752 93.883 49.1292L93.8244 52.7156H75.9348C75.9641 32.9104 52.4201 21.9286 37.2331 35.0395C22.7603 47.5296 28.8614 71.4288 47.4615 75.311C45.9564 85.135 47.0697 95.255 46.7291 105.189H39.6099C38.6101 105.189 36.3615 103.311 35.8305 102.402C34.0361 99.338 35.9074 90.6972 34.6843 89.3349C34.0324 88.6082 30.1176 87.3117 29.0812 86.3037C24.5731 88.2539 18.0178 95.0797 13.3595 90.2151L0 67.2947V64.3803C2.06912 60.1001 7.35727 58.6319 11.2575 56.3056V49.1329C7.36459 46.8102 2.07278 45.342 0 41.0581V38.1438V38.1401Z" fill="url(#paint1_linear_448_1894)"/>
<path d="M70.0793 53.4276C61.0191 54.9944 53.1711 61.5937 49.4247 69.8693C36.5559 67.4735 30.495 52.1896 38.874 41.7775C49.5382 28.5314 70.6689 36.7741 70.0756 53.4276H70.0793Z" fill="url(#paint2_linear_448_1894)"/>
<defs>
<linearGradient id="paint0_linear_448_1894" x1="183.362" y1="113.762" x2="13.4688" y2="110.422" gradientUnits="userSpaceOnUse">
<stop stop-color="#FFE1AF"/>
<stop offset="1" stop-color="#156489"/>
</linearGradient>
<linearGradient id="paint1_linear_448_1894" x1="123.161" y1="55.3419" x2="-36.1996" y2="52.41" gradientUnits="userSpaceOnUse">
<stop stop-color="#FFE1AF"/>
<stop offset="1" stop-color="#156489"/>
</linearGradient>
<linearGradient id="paint2_linear_448_1894" x1="76.1298" y1="53.442" x2="22.9318" y2="52.4506" gradientUnits="userSpaceOnUse">
<stop stop-color="#FFE1AF"/>
<stop offset="1" stop-color="#156489"/>
</linearGradient>
</defs>
</svg>
