<svg width="139" height="166" viewBox="0 0 139 166" fill="none" xmlns="http://www.w3.org/2000/svg">
<path d="M138.058 118.451V121C137.538 121.793 137.556 122.505 136.967 123.374C135.538 125.478 130.697 129.477 128.569 131.394C115.865 142.814 89.6039 164.244 72.4504 165.413C61.409 166.165 47.9213 159.961 36.3525 160.709L18.2578 160.724V128.838C22.1104 127.289 26.4134 126.749 30.4015 125.284C35.5688 123.389 41.0731 119.353 46.5663 118.82C55.2602 117.976 68.5136 125.098 77.3174 126.76C81.2872 128.608 82.9901 136.638 77.8887 137.683C73.9739 138.486 65.4556 135.214 60.801 134.856C59.1274 134.728 53.1435 134.436 52.466 136.025C50.1369 141.47 58.1753 139.713 61.127 139.995C70.2275 140.86 83.1842 148.442 86.1798 134.29C94.3208 132.249 102.026 128.195 109.445 124.342C115.309 121.3 122.922 115.92 128.668 113.638C133.041 111.899 136.498 114.383 138.054 118.447L138.058 118.451Z" fill="url(#paint0_linear_448_2716)"/>
<path d="M37.175 38.3835C57.5146 39.3914 79.7842 36.6925 99.9077 38.2666C104.138 38.5989 107.001 40.7208 107.748 45.0193C106.877 57.944 108.906 72.377 107.763 85.1191C106.58 98.2738 84.9735 87.9421 78.1692 94.5816C76.5359 96.1776 69.9769 107.324 69.2115 107.514C68.6805 107.645 68.611 107.178 68.3583 106.911C64.3592 102.682 61.4954 92.9382 54.9731 92.2078C49.6263 91.6088 37.7316 93.5554 33.6227 90.9149C31.9381 89.8339 30.5429 87.4637 30.3158 85.466C28.9022 72.9321 31.3778 57.8235 30.3158 45.0156C30.8102 41.4841 33.5861 38.6574 37.1787 38.3798L37.175 38.3835ZM69.3874 50.6727L68.6329 50.8991L63.3851 59.0688L53.6913 61.607L59.8108 69.5284L59.5361 79.8236L68.8783 76.1824L78.5281 79.8236L78.2534 69.5284L84.3729 61.607L74.6792 59.0688L69.391 50.6727H69.3874Z" fill="url(#paint1_linear_448_2716)"/>
<path d="M11.9386 164.617C10.6898 165.72 4.85237 165.713 3.12383 165.439C1.7908 165.227 0.530998 163.883 0.0768909 162.649L0 128.834C0.106202 126.953 1.344 125.427 3.18972 125.095C6.09015 124.569 12.5319 124.28 13.0629 128.192L13.1581 162.006C13.1142 162.751 12.4513 164.165 11.9386 164.617Z" fill="url(#paint2_linear_448_2716)"/>
<path d="M68.2 0.0912084C69.3207 -0.153481 70.7891 0.0546866 71.3165 1.20144C71.7449 2.13637 71.7779 9.48435 71.5069 10.6932C70.8697 13.5382 66.8596 13.4797 66.4641 10.0504C66.2847 8.50924 66.2407 1.67621 67.0317 0.76319C67.3211 0.427199 67.7642 0.189814 68.2 0.0948599V0.0912084Z" fill="url(#paint3_linear_448_2716)"/>
<path d="M5.37176 62.7755C6.5583 62.5053 13.1465 62.5089 14.3477 62.7755C17.0613 63.3818 17.0357 67.1215 14.3477 67.7204C13.1501 67.9871 6.5583 67.9907 5.37176 67.7204C3.01333 67.1799 3.00967 63.316 5.37176 62.7755Z" fill="url(#paint4_linear_448_2716)"/>
<path d="M123.711 62.7753C124.876 62.516 131.929 62.5233 132.969 62.8593C135.075 63.5423 135.027 67.3587 132.376 67.7787C131.043 67.9868 124.565 67.9905 123.433 67.6399C120.957 66.8656 121.162 63.345 123.711 62.779V62.7753Z" fill="url(#paint5_linear_448_2716)"/>
<path d="M24.0096 18.2968C24.8556 18.147 25.2401 18.3771 25.914 18.8044C26.4267 19.1331 31.9162 24.5455 32.1579 24.9581C33.5019 27.2626 31.224 29.7022 28.8583 28.6175C28.1881 28.3108 22.0907 21.916 21.9661 21.2476C21.7354 19.9913 22.7645 18.5159 24.0059 18.2931L24.0096 18.2968Z" fill="url(#paint6_linear_448_2716)"/>
<path d="M113.127 18.2931C115.16 17.9242 116.756 20.0753 115.731 22.0182C115.478 22.4966 109.619 28.424 109.198 28.6175C106.953 29.6511 104.693 27.4415 105.74 25.17C106.044 24.5089 112.453 18.4173 113.127 18.2968V18.2931Z" fill="url(#paint7_linear_448_2716)"/>
<defs>
<linearGradient id="paint0_linear_448_2716" x1="158.696" y1="140.645" x2="-22.7597" y2="133.003" gradientUnits="userSpaceOnUse">
<stop stop-color="#FFE1AF"/>
<stop offset="1" stop-color="#156489"/>
</linearGradient>
<linearGradient id="paint1_linear_448_2716" x1="121.603" y1="74.4714" x2="2.91454" y2="72.0195" gradientUnits="userSpaceOnUse">
<stop stop-color="#FFE1AF"/>
<stop offset="1" stop-color="#156489"/>
</linearGradient>
<linearGradient id="paint2_linear_448_2716" x1="15.4249" y1="146.258" x2="-4.53975" y2="146.14" gradientUnits="userSpaceOnUse">
<stop stop-color="#FFE1AF"/>
<stop offset="1" stop-color="#156489"/>
</linearGradient>
<linearGradient id="paint3_linear_448_2716" x1="72.5981" y1="6.69857" x2="64.5184" y2="6.63632" gradientUnits="userSpaceOnUse">
<stop stop-color="#FFE1AF"/>
<stop offset="1" stop-color="#156489"/>
</linearGradient>
<linearGradient id="paint4_linear_448_2716" x1="18.5735" y1="65.3877" x2="-0.768134" y2="64.5368" gradientUnits="userSpaceOnUse">
<stop stop-color="#FFE1AF"/>
<stop offset="1" stop-color="#156489"/>
</linearGradient>
<linearGradient id="paint5_linear_448_2716" x1="136.666" y1="65.3965" x2="117.311" y2="64.5415" gradientUnits="userSpaceOnUse">
<stop stop-color="#FFE1AF"/>
<stop offset="1" stop-color="#156489"/>
</linearGradient>
<linearGradient id="paint6_linear_448_2716" x1="34.3886" y1="23.8448" x2="18.2728" y2="23.5481" gradientUnits="userSpaceOnUse">
<stop stop-color="#FFE1AF"/>
<stop offset="1" stop-color="#156489"/>
</linearGradient>
<linearGradient id="paint7_linear_448_2716" x1="117.872" y1="23.8429" x2="101.833" y2="23.549" gradientUnits="userSpaceOnUse">
<stop stop-color="#FFE1AF"/>
<stop offset="1" stop-color="#156489"/>
</linearGradient>
</defs>
</svg>
