<svg width="176" height="176" viewBox="0 0 176 176" fill="none" xmlns="http://www.w3.org/2000/svg">
<path d="M76.8446 0.0080187C79.6145 0.633343 82.4524 0.833766 85.2424 1.40297C102.687 4.97454 118.268 15.2283 128.498 29.715C129.504 31.138 132.563 35.4832 133.02 36.826C133.112 37.0986 133.304 37.295 133.032 37.5916L124.814 45.5966C109.939 12.5546 67.9978 0.841781 37.6976 21.0366C1.39669 45.2318 2.62729 99.7874 40.1909 122.055C80.0112 145.657 129.476 117.148 130.61 71.5997C133.805 68.934 136.78 64.657 139.994 62.1918C140.395 61.8831 140.499 61.4141 141.193 61.5945C142.247 72.7902 141.257 83.8857 137.497 94.4842C113.59 161.915 15.9997 154.335 1.46889 85.2005L0.0819683 76.3898C0.270367 72.7261 -0.174575 68.8218 0.0819683 65.1901C2.43896 31.8234 30.6347 2.74582 64.2058 0.368781L64.8431 0H76.8366L76.8446 0.0080187Z" fill="url(#paint0_linear_446_178)"/>
<path d="M125.612 76.7946C120.453 118.463 72.952 140.201 38.3427 115.116C13.2415 96.9213 8.38723 60.9931 27.6881 36.6135C48.8008 9.94098 89.431 8.60215 112.035 34.1924C114.753 37.2709 119.731 44.3058 120.914 48.1219C121.07 48.6269 121.423 49.0358 121.03 49.589L104.627 65.9917L74.9523 36.866L73.6335 36.9702L26.2691 83.9898C25.0946 85.2124 24.9864 86.1584 25.8963 87.5815C26.8063 89.0045 36.8035 98.9656 38.2666 99.9958C39.1124 100.589 39.7938 101.082 40.8801 100.633L74.5915 67.6312L103.008 96.0193C103.669 96.5084 104.647 96.5444 105.417 96.3921C107.89 95.9111 122.032 78.9672 125.612 76.7986V76.7946Z" fill="url(#paint1_linear_446_178)"/>
<path d="M173.987 12.4062L171.185 35.5994C168.379 34.7656 166.748 29.274 163.393 32.0038L104.628 90.7843L76.8533 62.9854C76.2 62.4883 75.0535 61.6305 74.2438 61.6265C71.8708 61.6145 44.5849 91.4697 40.2117 94.7647L31.3008 86.1385L74.2999 42.8307L103.005 71.2188L105.923 71.295L154.574 22.7882C156.731 19.6295 151.768 17.6413 150.397 15.2122L173.983 12.4103L173.987 12.4062Z" fill="url(#paint2_linear_446_178)"/>
<path d="M134.624 111.191C134.884 111.127 138.287 114.114 138.813 114.587C147.615 122.483 156.907 130.973 165.401 139.179C169.77 143.4 174.42 147.364 175.142 153.83C176.965 170.136 159.104 181.22 145.635 171.752L111.234 134.966C111.074 134.389 111.615 134.328 111.888 134.06C114.196 131.763 118.486 129.434 121.223 127.001C126.402 122.399 130.635 116.831 134.624 111.199V111.191Z" fill="url(#paint3_linear_446_178)"/>
<defs>
<linearGradient id="paint0_linear_446_178" x1="165.981" y1="74.314" x2="-48.7847" y2="70.3486" gradientUnits="userSpaceOnUse">
<stop stop-color="#FFE1AF"/>
<stop offset="1" stop-color="#156489"/>
</linearGradient>
<linearGradient id="paint1_linear_446_178" x1="144.519" y1="73.6543" x2="-21.9565" y2="70.5949" gradientUnits="userSpaceOnUse">
<stop stop-color="#FFE1AF"/>
<stop offset="1" stop-color="#156489"/>
</linearGradient>
<linearGradient id="paint2_linear_446_178" x1="198.568" y1="55.7367" x2="-17.7156" y2="48.8346" gradientUnits="userSpaceOnUse">
<stop stop-color="#FFE1AF"/>
<stop offset="1" stop-color="#156489"/>
</linearGradient>
<linearGradient id="paint3_linear_446_178" x1="186.308" y1="144.888" x2="89.131" y2="143.098" gradientUnits="userSpaceOnUse">
<stop stop-color="#FFE1AF"/>
<stop offset="1" stop-color="#156489"/>
</linearGradient>
</defs>
</svg>
