<svg width="123" height="139" viewBox="0 0 123 139" fill="none" xmlns="http://www.w3.org/2000/svg">
<g opacity="0.98">
<path d="M77.0295 16.0022C76.0623 20.2744 75.6938 25.0302 74.6919 29.2563C74.335 30.7533 75.5901 31.2254 73.0683 30.9145C71.007 30.6612 68.9228 29.5327 66.6773 29.7975L68.9458 13.7107L57.016 19.5604L52.8359 12.5707C58.6972 11.7991 70.4198 0.525691 75.2447 0.997818C78.515 1.32025 89.2357 16.4859 91.7115 20.0441L85.7811 25.1569L77.0295 15.9907V16.0022Z" fill="white"/>
<path d="M62.0455 55.1652L50.0696 60.8192L46.0508 54.5549C51.0484 51.9409 64.3025 41.1165 69.3001 42.6596L85.0185 61.4986L78.7426 66.6459L70.682 57.4797L67.2619 71.3441C54.0078 74.0502 60.9861 62.961 62.0455 55.1652Z" fill="white"/>
<path d="M64.019 81.9967C65.2626 83.0331 77.964 98.3829 77.964 99.4999L71.9991 104.59L63.2129 95.4696L60.8868 110.439L52.9528 109.173L55.1177 93.1665L44.1436 98.9357C41.2763 98.8781 40.3551 94.2144 39.0078 92.0265C45.8939 91.1629 58.1232 77.1142 64.0075 81.9967H64.019Z" fill="white"/>
<path d="M14.8373 65.5059L29.8302 68.4423L28.6556 75.8811L13.6973 73.5781L19.1555 84.5291L12.1197 88.6401C10.0815 84.2297 0.592911 71.2174 0.984431 67.2907C1.37595 63.364 15.1022 54.7391 17.8773 50.6396L23.9689 56.7312L14.8373 65.5174V65.5059Z" fill="white"/>
<path d="M112.702 66.6689C112.955 72.1042 123.975 84.8401 122.928 88.8819C122.663 89.9068 109.224 102.481 107.589 103.587C104.849 105.429 102.879 104.462 101.129 101.848C97.1103 95.7911 108.038 95.4687 108.107 89.711L95.3945 88.0298L95.4521 79.3357L110.41 81.6273L104.664 70.7684L112.702 66.6689Z" fill="white"/>
<path d="M50.5346 20.6084V28.6806H37.8678C40.8272 36.6607 53.8971 39.3207 40.7812 45.942L30.9702 35.5783L28.7823 46.4256L21.6888 46.5638C20.8137 45.9996 20.6755 45.3202 20.6525 44.3299C20.6294 42.7523 23.7155 25.1915 24.2683 23.706C24.6828 22.6005 27.3428 20.6084 28.0798 20.6084H50.5346Z" fill="white"/>
<path d="M111.47 61.9828L103.501 60.9119L105.804 48.2566L92.5386 55.0391L88.5312 47.1166L101.198 41.3244L89.7058 35.5322L92.0089 27.5176L114.487 36.6837C116.87 40.2304 112.195 57.0427 111.47 61.9828Z" fill="white"/>
<path d="M19.4329 94.3171L19.456 106.972L30.5682 99.0153C41.0932 105.303 30.6718 109.563 24.0506 112.742L36.7174 117.348L34.4028 125.397L10.7734 117.348L11.545 95.0426L13.7329 93.6377L19.4214 94.3171H19.4329Z" fill="white"/>
<path d="M93.1261 119.639L95.4407 108.124L103.513 109.287L96.6383 132.928L72.4102 132.318V124.245L85.077 125.397L77.0278 111.602L83.96 108.619L93.1261 119.639Z" fill="white"/>
<path d="M50.209 122.173C61.9891 119.525 64.3613 136.061 54.2854 137.88C44.4168 139.665 40.6859 124.315 50.209 122.173Z" fill="white"/>
</g>
</svg>
