<svg width="135" height="142" viewBox="0 0 135 142" fill="none" xmlns="http://www.w3.org/2000/svg">
<path d="M134.039 43.5255C134.091 44.513 134.046 45.5918 134.039 46.59C133.884 69.6972 133.892 92.9044 133.89 116.052C131.761 126.83 121.477 132.31 111.059 128.927C109.156 128.309 104.507 126.09 103.2 124.663C101.315 122.606 101.714 119.228 104.378 118.109C107.122 116.956 108.642 118.854 111.096 119.697C117.277 121.822 124.347 119.761 125.521 112.743C125.572 95.4641 125.435 78.1843 125.508 60.9053C125.529 56.0853 126.006 50.6319 125.653 45.8519C125.263 40.5805 122.185 39.677 117.89 38.2942C87.4176 28.4808 56.6527 19.3715 26.0411 9.98757C25.0589 9.68619 24.0427 9.20813 23.0778 8.95409C18.2974 7.69792 14.0444 10.3603 13.6237 15.3496L13.5937 62.7482C11.4965 66.5567 6.26667 66.9341 3.83679 63.2363L3.80078 12.7193C5.06907 3.64869 13.4043 -1.77672 22.3089 0.530928C25.7317 1.41772 29.3585 2.74857 32.804 3.75671L126.178 31.0711C131.117 33.3701 133.763 38.2335 134.039 43.5249V43.5255Z" fill="white"/>
<path d="M81.2581 45.0254C83.1585 44.7681 87.7856 44.8154 89.7533 44.9861C92.4019 45.2161 94.5051 47.3497 94.7418 49.9888L94.7485 136.722C94.6204 139.174 92.6426 141.591 90.1468 141.845C87.9983 142.063 83.5246 142.039 81.3521 141.851C78.8509 141.635 76.8324 139.302 76.6304 136.848L76.623 50.2475C76.7071 47.7638 78.7815 45.3601 81.2581 45.0248V45.0254Z" fill="white"/>
<path d="M55.413 59.0115C57.0034 58.7641 61.4244 58.8295 63.1114 58.9748C65.7114 59.1989 67.7152 61.4365 67.9665 63.9775V128.322C67.7738 130.419 66.3235 132.403 64.3104 133.058C62.9121 133.514 57.5629 133.468 55.9085 133.324C53.4646 133.112 51.3828 131.154 51.0527 128.722V63.5761C51.2521 61.4565 53.3332 59.3342 55.4124 59.0108L55.413 59.0115Z" fill="white"/>
<path d="M31.0437 66.2116C32.8448 65.9962 38.1666 65.9782 39.7297 66.6423C41.3887 67.3471 42.603 69.0273 42.9144 70.7849L42.9277 120.463C42.6123 122.776 40.6812 124.904 38.3193 125.18C36.6216 125.378 32.8694 125.349 31.1357 125.199C28.6425 124.983 26.7194 122.991 26.2926 120.584L26.2793 70.9056C26.6487 68.4652 28.5758 66.5076 31.0444 66.2123L31.0437 66.2116Z" fill="white"/>
<path d="M5.59634 74.7351C7.22671 74.5144 11.0749 74.5504 12.76 74.6957C15.2358 74.9098 17.3323 76.8847 17.7157 79.331L17.7364 111.923C17.489 114.155 15.5172 116.325 13.2534 116.632C11.5957 116.857 7.67014 116.82 5.95642 116.672C3.65257 116.473 1.64078 114.676 1.136 112.433C0.753252 101.601 1.05532 90.7013 0.98197 79.8458C1.16734 77.4194 3.14379 75.0671 5.59567 74.7351H5.59634Z" fill="white"/>
</svg>
