<svg width="180" height="171" viewBox="0 0 180 171" fill="none" xmlns="http://www.w3.org/2000/svg">
<path d="M79.8805 63.3356C80.2138 61.6702 81.7519 60.728 83.334 60.5856C90.2994 59.961 98.2023 61.0786 105.27 60.6111C107.339 61.389 107.863 63.5255 108.032 65.5085C108.995 76.7131 106.662 90.3646 108.01 101.244C108.35 103.994 110.339 107.832 110.844 111.174C115.264 140.387 85.9084 163.337 58.5485 151.657C55.7323 150.456 53.2274 148.575 50.5357 147.377L25.1716 166.949C5.15792 180.476 -10.9775 154.977 9.46095 142.538L37.0553 127.955C35.4989 121.06 35.0704 114.757 36.7806 107.821C41.4572 88.849 60.5553 76.4283 79.8805 79.916V63.3356ZM72.1277 83.6703C47.0017 84.6016 32.0162 112.186 44.603 133.861C57.4572 155.992 90.098 155.649 102.601 133.371C115.378 110.604 98.0997 82.7135 72.1277 83.674V83.6703Z" fill="url(#paint0_linear_448_2704)"/>
<path d="M154.338 43.9245C157.422 43.373 173.37 43.3584 176.524 43.8587C177.875 44.0742 179.186 45.4364 179.494 46.7292L179.666 128.583C179.486 130.621 178.981 132.126 176.824 132.674C170.001 132.082 160.813 133.766 154.269 132.736C153.009 132.538 151.972 131.487 151.584 130.311L151.5 46.9228C151.603 45.3086 152.793 44.1947 154.335 43.9208L154.338 43.9245Z" fill="url(#paint1_linear_448_2704)"/>
<path d="M162.754 0.198364C187.089 -3.09946 184.046 35.9339 159.451 27.3589C158.462 27.0119 157.77 25.8871 156.638 26.5225L141.327 42.1278C149.38 53.8474 138.02 68.9158 124.371 63.792C118.417 61.5569 114.828 55.4068 115.337 49.1252C115.432 47.9419 116.593 44.8194 116.263 44.2059L104.548 36.2918C99.1206 41.3609 92.0527 42.0913 85.5963 38.4283L69.6842 55.027C70.391 57.0466 71.6398 58.7083 72.1122 60.8739C75.6279 77.038 53.4865 85.215 45.5946 71.2787C37.9736 57.8208 53.5488 44.0634 66.3627 52.0469L82.3883 34.9734C74.8186 24.974 82.9595 10.9756 95.4072 12.1333C99.5931 12.5241 103.977 15.3472 106.119 18.9445C108.734 23.3343 108.624 27.7971 107.075 32.5375L118.611 40.4114C119.826 40.9263 120.332 39.5495 121.207 38.9505C124.532 36.6643 128.096 35.7038 132.157 36.3503C134.53 36.7264 136.211 38.1763 138.46 38.6912L154.02 22.9544C147.494 15.0879 152.581 1.5825 162.751 0.205668L162.754 0.198364ZM163.109 4.56625C151.911 6.45072 153.192 26.1318 167.314 24.0647C179.406 22.2934 177.509 2.14492 163.109 4.56625ZM92.2175 16.5998C80.2862 18.3273 81.7767 36.584 93.9094 36.5073C107.774 36.416 106.58 14.5182 92.2175 16.5998ZM128.033 40.6524C113.733 42.6866 119.706 65.7495 133.856 59.5738C144.033 55.1329 139.844 38.9725 128.033 40.6524ZM56.7641 54.1359C42.555 55.8377 47.4513 78.4112 61.4957 73.4298C72.4895 69.533 68.5746 52.7189 56.7641 54.1359Z" fill="url(#paint2_linear_448_2704)"/>
<path d="M118.511 77.4434C125.249 77.8999 133.442 76.5706 140.004 77.3594C142.689 77.6808 143.626 79.4192 143.85 81.9099C145.146 96.5365 142.839 113.033 143.85 127.857C143.769 129.639 143.018 131.476 141.297 132.236L118.456 132.378C117.032 132.192 116.361 131.074 115.867 129.858L115.688 80.8216C115.68 79.4959 117.281 77.721 118.515 77.4434H118.511Z" fill="url(#paint3_linear_448_2704)"/>
<path d="M73.4816 95.7915C100.897 95.7915 101.603 136.64 74.9575 138.24C45.8982 139.982 44.481 95.7915 73.4816 95.7915Z" fill="url(#paint4_linear_448_2704)"/>
<defs>
<linearGradient id="paint0_linear_448_2704" x1="130.46" y1="118.478" x2="-38.344" y2="115.344" gradientUnits="userSpaceOnUse">
<stop stop-color="#FFE1AF"/>
<stop offset="1" stop-color="#156489"/>
</linearGradient>
<linearGradient id="paint1_linear_448_2704" x1="184.518" y1="90.6268" x2="141.782" y2="90.3793" gradientUnits="userSpaceOnUse">
<stop stop-color="#FFE1AF"/>
<stop offset="1" stop-color="#156489"/>
</linearGradient>
<linearGradient id="paint2_linear_448_2704" x1="202.948" y1="41.2438" x2="-3.11856" y2="34.6614" gradientUnits="userSpaceOnUse">
<stop stop-color="#FFE1AF"/>
<stop offset="1" stop-color="#156489"/>
</linearGradient>
<linearGradient id="paint3_linear_448_2704" x1="149.178" y1="106.185" x2="105.833" y2="105.772" gradientUnits="userSpaceOnUse">
<stop stop-color="#FFE1AF"/>
<stop offset="1" stop-color="#156489"/>
</linearGradient>
<linearGradient id="paint4_linear_448_2704" x1="101.748" y1="118.151" x2="37.9388" y2="116.987" gradientUnits="userSpaceOnUse">
<stop stop-color="#FFE1AF"/>
<stop offset="1" stop-color="#156489"/>
</linearGradient>
</defs>
</svg>
