<svg width="797" height="180" viewBox="0 0 797 180" fill="none" xmlns="http://www.w3.org/2000/svg">
<mask id="mask0_446_207" style="mask-type:alpha" maskUnits="userSpaceOnUse" x="70" y="0" width="727" height="180">
<rect x="-1.00159" y="0.995166" width="174.036" height="724.019" rx="87.0179" transform="matrix(-0.00160036 0.999999 -0.999988 -0.00483255 796.285 5.51011)" fill="black" stroke="#136A93" stroke-width="2"/>
</mask>
<g mask="url(#mask0_446_207)">
<rect width="192.526" height="735.262" rx="47.5" transform="matrix(-0.00160036 0.999999 -0.999988 -0.00483255 1071.4 68.4429)" fill="url(#paint0_radial_446_207)" fill-opacity="0.74"/>
<rect width="192.526" height="735.262" rx="47.5" transform="matrix(-0.00160036 0.999999 -0.999988 -0.00483255 530.426 -57.9541)" fill="url(#paint1_radial_446_207)" fill-opacity="0.74"/>
</g>
<rect x="73.291" y="1.54663" width="722.708" height="175.235" rx="87.6177" fill="#D9D9D9" fill-opacity="0.14" stroke="#136A93" stroke-width="2"/>
<path d="M297.142 79.0002H291.775L291.81 75.3088H297.142C298.589 75.3088 299.802 74.9898 300.782 74.3518C301.762 73.7024 302.502 72.7738 303.003 71.5662C303.505 70.3471 303.755 68.8888 303.755 67.1912V65.9094C303.755 64.5992 303.613 63.4428 303.328 62.4402C303.043 61.4376 302.622 60.5945 302.063 59.9109C301.517 59.2273 300.839 58.7089 300.03 58.3557C299.221 58.0025 298.292 57.8259 297.244 57.8259H291.673V54.1174H297.244C298.908 54.1174 300.423 54.3966 301.79 54.9548C303.169 55.5131 304.359 56.3163 305.362 57.3645C306.376 58.4013 307.151 59.6431 307.686 61.0901C308.233 62.537 308.506 64.1549 308.506 65.9436V67.1912C308.506 68.9685 308.233 70.5863 307.686 72.0447C307.151 73.4916 306.376 74.7335 305.362 75.7703C304.359 76.807 303.163 77.6046 301.773 78.1628C300.383 78.7211 298.839 79.0002 297.142 79.0002ZM294.407 54.1174V79.0002H289.708V54.1174H294.407ZM320.219 79.342C318.818 79.342 317.559 79.1142 316.442 78.6584C315.326 78.2027 314.375 77.5704 313.588 76.7615C312.814 75.9412 312.215 74.9898 311.794 73.9075C311.384 72.8137 311.179 71.6402 311.179 70.387V69.7034C311.179 68.2792 311.384 66.9861 311.794 65.824C312.204 64.6505 312.785 63.6422 313.537 62.7991C314.289 61.956 315.189 61.3066 316.237 60.8508C317.285 60.3951 318.442 60.1672 319.707 60.1672C321.017 60.1672 322.173 60.3894 323.176 60.8337C324.178 61.2667 325.016 61.8819 325.688 62.6794C326.36 63.477 326.867 64.434 327.209 65.5505C327.551 66.6557 327.722 67.8805 327.722 69.2249V71.1218H313.229V68.0115H323.278V67.6697C323.256 66.9519 323.119 66.2968 322.868 65.7043C322.618 65.1005 322.23 64.622 321.706 64.2688C321.182 63.9042 320.504 63.7219 319.672 63.7219C319 63.7219 318.413 63.87 317.912 64.1663C317.422 64.4511 317.012 64.8612 316.682 65.3967C316.363 65.9208 316.123 66.5474 315.964 67.2766C315.804 68.0058 315.725 68.8147 315.725 69.7034V70.387C315.725 71.1617 315.827 71.8795 316.032 72.5403C316.249 73.2011 316.562 73.7764 316.972 74.2664C317.394 74.7449 317.895 75.1208 318.476 75.3943C319.069 75.6563 319.741 75.7874 320.493 75.7874C321.438 75.7874 322.293 75.6051 323.056 75.2405C323.831 74.8645 324.503 74.3119 325.073 73.5828L327.346 75.9412C326.958 76.5108 326.434 77.0577 325.773 77.5818C325.124 78.1059 324.338 78.5331 323.415 78.8635C322.492 79.1825 321.427 79.342 320.219 79.342ZM340.665 73.9417C340.665 73.5543 340.562 73.2068 340.357 72.8992C340.152 72.5916 339.765 72.3124 339.195 72.0618C338.637 71.7997 337.817 71.5548 336.734 71.3269C335.777 71.1218 334.894 70.8655 334.085 70.5579C333.277 70.2502 332.582 69.88 332 69.447C331.419 69.0027 330.964 68.4843 330.633 67.8918C330.314 67.288 330.155 66.593 330.155 65.8069C330.155 65.0435 330.32 64.3258 330.65 63.6536C330.981 62.97 331.459 62.3718 332.086 61.8591C332.713 61.335 333.476 60.9249 334.376 60.6287C335.276 60.321 336.29 60.1672 337.418 60.1672C338.99 60.1672 340.34 60.4236 341.468 60.9363C342.608 61.449 343.479 62.1554 344.083 63.0554C344.687 63.9441 344.989 64.9467 344.989 66.0632H340.477C340.477 65.5733 340.363 65.129 340.135 64.7302C339.919 64.3315 339.583 64.0125 339.127 63.7732C338.671 63.5225 338.096 63.3972 337.401 63.3972C336.774 63.3972 336.244 63.4998 335.812 63.7048C335.39 63.9099 335.071 64.1777 334.854 64.5081C334.638 64.8385 334.53 65.203 334.53 65.6018C334.53 65.898 334.587 66.1658 334.701 66.405C334.826 66.6329 335.025 66.8437 335.299 67.0374C335.572 67.231 335.943 67.4076 336.41 67.5671C336.888 67.7266 337.475 67.8805 338.17 68.0286C339.549 68.302 340.75 68.6666 341.776 69.1223C342.813 69.5667 343.622 70.1591 344.203 70.8997C344.784 71.6402 345.074 72.5859 345.074 73.7366C345.074 74.5569 344.898 75.3088 344.544 75.9924C344.191 76.6646 343.679 77.2514 343.006 77.7527C342.334 78.254 341.531 78.6471 340.597 78.9319C339.662 79.2053 338.609 79.342 337.435 79.342C335.737 79.342 334.302 79.0401 333.128 78.4363C331.955 77.821 331.066 77.0463 330.462 76.1121C329.859 75.1664 329.557 74.1866 329.557 73.1726H333.88C333.915 73.8904 334.108 74.4657 334.461 74.8987C334.815 75.3316 335.259 75.6449 335.794 75.8386C336.341 76.0209 336.917 76.1121 337.521 76.1121C338.204 76.1121 338.779 76.0209 339.247 75.8386C339.714 75.6449 340.067 75.3886 340.306 75.0696C340.545 74.7392 340.665 74.3632 340.665 73.9417ZM353.044 60.509V79.0002H348.516V60.509H353.044ZM348.208 55.6726C348.208 55.0004 348.436 54.4421 348.892 53.9978C349.359 53.5535 349.985 53.3313 350.771 53.3313C351.558 53.3313 352.179 53.5535 352.634 53.9978C353.101 54.4421 353.335 55.0004 353.335 55.6726C353.335 56.3334 353.101 56.886 352.634 57.3303C352.179 57.7747 351.558 57.9968 350.771 57.9968C349.985 57.9968 349.359 57.7747 348.892 57.3303C348.436 56.886 348.208 56.3334 348.208 55.6726ZM368.859 60.509H372.96V78.4363C372.96 80.1111 372.596 81.5295 371.867 82.6917C371.149 83.8652 370.141 84.7538 368.842 85.3577C367.543 85.9729 366.033 86.2805 364.313 86.2805C363.572 86.2805 362.769 86.178 361.903 85.9729C361.049 85.7678 360.223 85.4431 359.425 84.9988C358.639 84.5658 357.984 84.0019 357.46 83.3069L359.494 80.6409C360.109 81.3586 360.804 81.8998 361.579 82.2644C362.353 82.6404 363.191 82.8284 364.091 82.8284C365.002 82.8284 365.777 82.6575 366.415 82.3157C367.064 81.9853 367.56 81.4954 367.902 80.8459C368.255 80.2079 368.432 79.4218 368.432 78.4875V64.7302L368.859 60.509ZM356.366 69.9768V69.6179C356.366 68.2052 356.537 66.9234 356.879 65.7727C357.221 64.6106 357.711 63.6137 358.349 62.782C358.998 61.9503 359.778 61.3066 360.69 60.8508C361.613 60.3951 362.65 60.1672 363.8 60.1672C365.019 60.1672 366.045 60.3894 366.876 60.8337C367.72 61.2781 368.415 61.9104 368.961 62.7307C369.52 63.551 369.953 64.5251 370.26 65.6531C370.579 66.7696 370.824 68.0001 370.995 69.3445V70.3186C370.836 71.6288 370.579 72.8308 370.226 73.9246C369.884 75.0183 369.429 75.9753 368.859 76.7957C368.289 77.6046 367.583 78.2312 366.74 78.6755C365.897 79.1199 364.905 79.342 363.766 79.342C362.627 79.342 361.601 79.1085 360.69 78.6414C359.778 78.1742 358.998 77.5191 358.349 76.676C357.711 75.8329 357.221 74.8417 356.879 73.7024C356.537 72.5631 356.366 71.3212 356.366 69.9768ZM360.878 69.6179V69.9768C360.878 70.7743 360.958 71.5206 361.117 72.2156C361.277 72.9106 361.522 73.5258 361.852 74.0613C362.182 74.5854 362.598 74.9955 363.1 75.2917C363.601 75.588 364.199 75.7361 364.894 75.7361C365.828 75.7361 366.592 75.5424 367.184 75.155C367.788 74.7563 368.244 74.2151 368.551 73.5315C368.87 72.8365 369.075 72.0561 369.167 71.1902V68.5071C369.11 67.8235 368.984 67.1912 368.791 66.6101C368.608 66.0291 368.352 65.5278 368.021 65.1062C367.691 64.6847 367.27 64.3542 366.757 64.115C366.244 63.8757 365.635 63.7561 364.928 63.7561C364.245 63.7561 363.646 63.9099 363.134 64.2175C362.621 64.5138 362.2 64.9296 361.869 65.4651C361.539 66.0006 361.288 66.6215 361.117 67.3279C360.958 68.0343 360.878 68.7976 360.878 69.6179ZM381.204 64.4568V79.0002H376.692V60.509H380.931L381.204 64.4568ZM380.486 69.0881H379.153C379.165 67.7437 379.347 66.5247 379.7 65.4309C380.053 64.3372 380.549 63.3972 381.187 62.6111C381.836 61.825 382.605 61.2211 383.494 60.7996C384.383 60.378 385.374 60.1672 386.468 60.1672C387.356 60.1672 388.16 60.2926 388.877 60.5432C389.595 60.7939 390.21 61.1926 390.723 61.7395C391.247 62.2864 391.646 63.0042 391.919 63.8928C392.204 64.7701 392.347 65.8525 392.347 67.1399V79.0002H387.801V67.1057C387.801 66.2626 387.675 65.5961 387.425 65.1062C387.186 64.6163 386.832 64.2688 386.365 64.0637C385.91 63.8586 385.346 63.7561 384.673 63.7561C383.978 63.7561 383.369 63.8985 382.845 64.1833C382.332 64.4568 381.899 64.8385 381.546 65.3284C381.204 65.8183 380.942 66.3822 380.76 67.0203C380.577 67.6583 380.486 68.3476 380.486 69.0881ZM408.612 65.5676L413.141 62.594C413.858 62.1155 414.354 61.6541 414.627 61.2097C414.901 60.7654 415.038 60.2299 415.038 59.6033C415.038 59.045 414.821 58.5266 414.388 58.0481C413.967 57.5582 413.368 57.3132 412.594 57.3132C412.047 57.3132 411.585 57.4386 411.209 57.6892C410.833 57.9399 410.549 58.276 410.355 58.6975C410.173 59.1077 410.082 59.5634 410.082 60.0647C410.082 60.5774 410.213 61.1015 410.475 61.637C410.748 62.1724 411.113 62.7364 411.568 63.3289C412.035 63.9099 412.554 64.5422 413.124 65.2258L424.864 79.0002H419.703L410.099 67.8235C409.29 66.8209 408.572 65.898 407.945 65.0549C407.319 64.2118 406.829 63.3972 406.476 62.6111C406.134 61.8136 405.963 60.9932 405.963 60.1501C405.963 58.8513 406.236 57.7234 406.783 56.7664C407.33 55.8093 408.099 55.0688 409.09 54.5447C410.093 54.0206 411.266 53.7585 412.611 53.7585C413.887 53.7585 414.986 54.0206 415.909 54.5447C416.843 55.0574 417.567 55.741 418.08 56.5955C418.592 57.45 418.849 58.3842 418.849 59.3982C418.849 60.1729 418.706 60.8907 418.421 61.5515C418.137 62.2009 417.743 62.7991 417.242 63.3459C416.741 63.8814 416.16 64.3884 415.499 64.8669L410.167 68.6951C409.654 69.128 409.267 69.5553 409.005 69.9768C408.754 70.387 408.583 70.7686 408.492 71.1218C408.412 71.475 408.373 71.8054 408.373 72.113C408.373 72.808 408.521 73.4347 408.817 73.9929C409.125 74.5398 409.557 74.9784 410.116 75.3088C410.685 75.6278 411.358 75.7874 412.132 75.7874C413.078 75.7874 413.989 75.5766 414.867 75.155C415.744 74.7335 416.53 74.1353 417.225 73.3606C417.931 72.5859 418.49 71.663 418.9 70.592C419.321 69.5097 419.532 68.3191 419.532 67.0203H423.395C423.395 68.2621 423.275 69.4413 423.036 70.5579C422.796 71.663 422.409 72.6884 421.874 73.634C421.338 74.5797 420.637 75.4228 419.771 76.1633C419.692 76.2317 419.595 76.3228 419.481 76.4368C419.378 76.5507 419.287 76.6418 419.208 76.7102C418.171 77.5989 417.049 78.2654 415.841 78.7097C414.645 79.1427 413.34 79.3591 411.927 79.3591C410.264 79.3591 408.828 79.0572 407.621 78.4534C406.413 77.8495 405.479 77.0178 404.818 75.9583C404.168 74.8987 403.844 73.6853 403.844 72.3181C403.844 71.3041 404.043 70.4211 404.442 69.6692C404.852 68.9058 405.416 68.1995 406.134 67.55C406.852 66.8892 407.678 66.2284 408.612 65.5676ZM445.402 69.9255H438.993V66.2341H445.402C446.45 66.2341 447.299 66.0632 447.948 65.7214C448.609 65.3682 449.093 64.8897 449.401 64.2859C449.708 63.6707 449.862 62.97 449.862 62.1838C449.862 61.4205 449.708 60.7084 449.401 60.0476C449.093 59.3868 448.609 58.8513 447.948 58.4412C447.299 58.031 446.45 57.8259 445.402 57.8259H440.531V79.0002H435.832V54.1174H445.402C447.339 54.1174 448.991 54.4649 450.358 55.1599C451.736 55.8435 452.785 56.7948 453.502 58.0139C454.232 59.2216 454.596 60.6002 454.596 62.1497C454.596 63.7561 454.232 65.1404 453.502 66.3025C452.785 67.4646 451.736 68.359 450.358 68.9856C448.991 69.6122 447.339 69.9255 445.402 69.9255ZM462.208 64.2859V79.0002H457.696V60.509H461.968L462.208 64.2859ZM467.83 60.3894L467.762 64.5935C467.511 64.5479 467.226 64.5138 466.907 64.491C466.6 64.4682 466.309 64.4568 466.036 64.4568C465.341 64.4568 464.731 64.5536 464.207 64.7473C463.683 64.9296 463.244 65.1973 462.891 65.5505C462.549 65.9037 462.287 66.3367 462.105 66.8494C461.923 67.3507 461.82 67.9203 461.797 68.5583L460.823 68.4387C460.823 67.2652 460.943 66.1772 461.182 65.1746C461.421 64.172 461.769 63.2947 462.225 62.5427C462.68 61.7908 463.25 61.2097 463.934 60.7996C464.629 60.378 465.426 60.1672 466.326 60.1672C466.577 60.1672 466.845 60.19 467.129 60.2356C467.426 60.2698 467.659 60.321 467.83 60.3894ZM468.776 69.9426V69.5837C468.776 68.2279 468.97 66.9804 469.357 65.8411C469.745 64.6903 470.309 63.6934 471.049 62.8503C471.79 62.0072 472.696 61.3521 473.767 60.885C474.838 60.4065 476.057 60.1672 477.424 60.1672C478.814 60.1672 480.044 60.4065 481.115 60.885C482.198 61.3521 483.109 62.0072 483.85 62.8503C484.59 63.6934 485.154 64.6903 485.542 65.8411C485.929 66.9804 486.123 68.2279 486.123 69.5837V69.9426C486.123 71.287 485.929 72.5346 485.542 73.6853C485.154 74.8246 484.59 75.8215 483.85 76.676C483.109 77.5191 482.203 78.1742 481.132 78.6414C480.061 79.1085 478.837 79.342 477.458 79.342C476.091 79.342 474.866 79.1085 473.784 78.6414C472.701 78.1742 471.79 77.5191 471.049 76.676C470.309 75.8215 469.745 74.8246 469.357 73.6853C468.97 72.5346 468.776 71.287 468.776 69.9426ZM473.288 69.5837V69.9426C473.288 70.7515 473.368 71.5092 473.527 72.2156C473.687 72.922 473.932 73.5429 474.262 74.0784C474.593 74.6139 475.02 75.0354 475.544 75.343C476.079 75.6392 476.717 75.7874 477.458 75.7874C478.187 75.7874 478.814 75.6392 479.338 75.343C479.862 75.0354 480.289 74.6139 480.62 74.0784C480.961 73.5429 481.212 72.922 481.372 72.2156C481.531 71.5092 481.611 70.7515 481.611 69.9426V69.5837C481.611 68.7862 481.531 68.04 481.372 67.345C481.212 66.6386 480.961 66.0177 480.62 65.4822C480.289 64.9353 479.856 64.5081 479.321 64.2004C478.797 63.8814 478.164 63.7219 477.424 63.7219C476.695 63.7219 476.068 63.8814 475.544 64.2004C475.02 64.5081 474.593 64.9353 474.262 65.4822C473.932 66.0177 473.687 66.6386 473.527 67.345C473.368 68.04 473.288 68.7862 473.288 69.5837ZM497.904 60.509V63.7561H487.308V60.509H497.904ZM490.145 55.9631H494.674V73.6682C494.674 74.2151 494.748 74.6366 494.896 74.9329C495.044 75.2291 495.266 75.4285 495.562 75.531C495.859 75.6335 496.212 75.6848 496.622 75.6848C496.918 75.6848 497.192 75.6677 497.442 75.6335C497.693 75.5994 497.904 75.5652 498.075 75.531L498.092 78.9148C497.716 79.0401 497.289 79.1427 496.81 79.2224C496.343 79.3022 495.813 79.342 495.221 79.342C494.207 79.342 493.318 79.1711 492.555 78.8293C491.791 78.4762 491.199 77.9122 490.777 77.1375C490.356 76.3513 490.145 75.3145 490.145 74.0271V55.9631ZM499.414 69.9426V69.5837C499.414 68.2279 499.608 66.9804 499.995 65.8411C500.382 64.6903 500.946 63.6934 501.687 62.8503C502.428 62.0072 503.333 61.3521 504.404 60.885C505.475 60.4065 506.694 60.1672 508.062 60.1672C509.451 60.1672 510.682 60.4065 511.753 60.885C512.835 61.3521 513.747 62.0072 514.487 62.8503C515.228 63.6934 515.792 64.6903 516.179 65.8411C516.567 66.9804 516.76 68.2279 516.76 69.5837V69.9426C516.76 71.287 516.567 72.5346 516.179 73.6853C515.792 74.8246 515.228 75.8215 514.487 76.676C513.747 77.5191 512.841 78.1742 511.77 78.6414C510.699 79.1085 509.474 79.342 508.096 79.342C506.729 79.342 505.504 79.1085 504.421 78.6414C503.339 78.1742 502.428 77.5191 501.687 76.676C500.946 75.8215 500.382 74.8246 499.995 73.6853C499.608 72.5346 499.414 71.287 499.414 69.9426ZM503.926 69.5837V69.9426C503.926 70.7515 504.006 71.5092 504.165 72.2156C504.325 72.922 504.569 73.5429 504.9 74.0784C505.23 74.6139 505.658 75.0354 506.182 75.343C506.717 75.6392 507.355 75.7874 508.096 75.7874C508.825 75.7874 509.451 75.6392 509.976 75.343C510.5 75.0354 510.927 74.6139 511.257 74.0784C511.599 73.5429 511.85 72.922 512.009 72.2156C512.169 71.5092 512.249 70.7515 512.249 69.9426V69.5837C512.249 68.7862 512.169 68.04 512.009 67.345C511.85 66.6386 511.599 66.0177 511.257 65.4822C510.927 64.9353 510.494 64.5081 509.958 64.2004C509.434 63.8814 508.802 63.7219 508.062 63.7219C507.332 63.7219 506.706 63.8814 506.182 64.2004C505.658 64.5081 505.23 64.9353 504.9 65.4822C504.569 66.0177 504.325 66.6386 504.165 67.345C504.006 68.04 503.926 68.7862 503.926 69.5837ZM528.542 60.509V63.7561H517.946V60.509H528.542ZM520.783 55.9631H525.312V73.6682C525.312 74.2151 525.386 74.6366 525.534 74.9329C525.682 75.2291 525.904 75.4285 526.2 75.531C526.496 75.6335 526.85 75.6848 527.26 75.6848C527.556 75.6848 527.829 75.6677 528.08 75.6335C528.331 75.5994 528.542 75.5652 528.712 75.531L528.729 78.9148C528.354 79.0401 527.926 79.1427 527.448 79.2224C526.981 79.3022 526.451 79.342 525.858 79.342C524.844 79.342 523.956 79.1711 523.192 78.8293C522.429 78.4762 521.837 77.9122 521.415 77.1375C520.993 76.3513 520.783 75.3145 520.783 74.0271V55.9631ZM536.717 76.9495L541.673 60.509H546.509L539.092 81.803C538.921 82.2587 538.699 82.7543 538.426 83.2898C538.164 83.8253 537.811 84.3323 537.366 84.8108C536.922 85.3007 536.364 85.6995 535.691 86.0071C535.031 86.3147 534.227 86.4685 533.282 86.4685C532.872 86.4685 532.507 86.44 532.188 86.3831C531.869 86.3261 531.533 86.252 531.18 86.1609V82.7771C531.294 82.7885 531.425 82.7942 531.573 82.7942C531.732 82.8056 531.869 82.8113 531.983 82.8113C532.644 82.8113 533.191 82.7315 533.624 82.572C534.056 82.4239 534.404 82.179 534.666 81.8372C534.939 81.5068 535.167 81.0738 535.35 80.5383L536.717 76.9495ZM534.273 60.509L538.46 74.1296L539.195 78.8977L536.084 79.4617L529.402 60.509H534.273ZM552.958 64.0637V86.1096H548.43V60.509H552.617L552.958 64.0637ZM564.836 69.5667V69.9255C564.836 71.2699 564.676 72.5175 564.357 73.6682C564.05 74.8075 563.594 75.8044 562.99 76.6589C562.386 77.502 561.634 78.1628 560.734 78.6414C559.846 79.1085 558.82 79.342 557.658 79.342C556.519 79.342 555.528 79.1256 554.685 78.6926C553.841 78.2483 553.129 77.6217 552.548 76.8127C551.967 76.0038 551.5 75.0639 551.147 73.9929C550.805 72.9106 550.549 71.7314 550.378 70.4553V69.3103C550.549 67.9545 550.805 66.724 551.147 65.6189C551.5 64.5024 551.967 63.5396 552.548 62.7307C553.129 61.9104 553.836 61.2781 554.667 60.8337C555.511 60.3894 556.496 60.1672 557.624 60.1672C558.798 60.1672 559.829 60.3894 560.717 60.8337C561.617 61.2781 562.375 61.9161 562.99 62.7478C563.605 63.5795 564.067 64.5707 564.375 65.7214C564.682 66.8722 564.836 68.1539 564.836 69.5667ZM560.307 69.9255V69.5667C560.307 68.7463 560.233 67.9887 560.085 67.2937C559.937 66.5873 559.709 65.9721 559.401 65.448C559.094 64.9125 558.695 64.4967 558.205 64.2004C557.715 63.9042 557.123 63.7561 556.428 63.7561C555.733 63.7561 555.135 63.87 554.633 64.0979C554.132 64.3258 553.722 64.6505 553.403 65.072C553.084 65.4936 552.833 65.9949 552.651 66.5759C552.48 67.1456 552.366 67.7779 552.309 68.4729V71.3098C552.412 72.1529 552.611 72.9106 552.907 73.5828C553.203 74.255 553.636 74.7904 554.206 75.1892C554.787 75.588 555.539 75.7874 556.462 75.7874C557.157 75.7874 557.749 75.6335 558.239 75.3259C558.729 75.0183 559.128 74.5968 559.436 74.0613C559.743 73.5144 559.965 72.8878 560.102 72.1814C560.239 71.475 560.307 70.7231 560.307 69.9255ZM576.19 79.342C574.789 79.342 573.53 79.1142 572.413 78.6584C571.297 78.2027 570.345 77.5704 569.559 76.7615C568.784 75.9412 568.186 74.9898 567.765 73.9075C567.354 72.8137 567.149 71.6402 567.149 70.387V69.7034C567.149 68.2792 567.354 66.9861 567.765 65.824C568.175 64.6505 568.756 63.6422 569.508 62.7991C570.26 61.956 571.16 61.3066 572.208 60.8508C573.256 60.3951 574.413 60.1672 575.677 60.1672C576.987 60.1672 578.144 60.3894 579.146 60.8337C580.149 61.2667 580.986 61.8819 581.659 62.6794C582.331 63.477 582.838 64.434 583.18 65.5505C583.521 66.6557 583.692 67.8805 583.692 69.2249V71.1218H569.2V68.0115H579.249V67.6697C579.226 66.9519 579.09 66.2968 578.839 65.7043C578.588 65.1005 578.201 64.622 577.677 64.2688C577.153 63.9042 576.475 63.7219 575.643 63.7219C574.971 63.7219 574.384 63.87 573.883 64.1663C573.393 64.4511 572.983 64.8612 572.652 65.3967C572.333 65.9208 572.094 66.5474 571.935 67.2766C571.775 68.0058 571.695 68.8147 571.695 69.7034V70.387C571.695 71.1617 571.798 71.8795 572.003 72.5403C572.219 73.2011 572.533 73.7764 572.943 74.2664C573.364 74.7449 573.866 75.1208 574.447 75.3943C575.039 75.6563 575.711 75.7874 576.463 75.7874C577.409 75.7874 578.264 75.6051 579.027 75.2405C579.802 74.8645 580.474 74.3119 581.043 73.5828L583.316 75.9412C582.929 76.5108 582.405 77.0577 581.744 77.5818C581.095 78.1059 580.309 78.5331 579.386 78.8635C578.463 79.1825 577.398 79.342 576.19 79.342Z" fill="#EDD5B1"/>
<path d="M286.656 111.028H287.544C287.456 111.912 287.216 112.662 286.823 113.278C286.437 113.893 285.912 114.365 285.25 114.693C284.588 115.015 283.8 115.176 282.886 115.176C282.165 115.176 281.512 115.041 280.926 114.772C280.346 114.496 279.845 114.107 279.423 113.603C279.007 113.093 278.688 112.487 278.465 111.783C278.242 111.08 278.131 110.304 278.131 109.454V107.758C278.131 106.897 278.242 106.117 278.465 105.42C278.688 104.717 279.01 104.114 279.432 103.61C279.854 103.1 280.357 102.71 280.943 102.441C281.535 102.165 282.2 102.028 282.938 102.028C283.829 102.028 284.603 102.189 285.259 102.511C285.921 102.833 286.445 103.302 286.832 103.917C287.219 104.532 287.456 105.285 287.544 106.176H286.656C286.568 105.455 286.375 104.846 286.076 104.348C285.783 103.85 285.376 103.469 284.854 103.205C284.333 102.942 283.694 102.81 282.938 102.81C282.335 102.81 281.79 102.927 281.304 103.161C280.823 103.396 280.413 103.73 280.073 104.163C279.733 104.597 279.473 105.115 279.291 105.719C279.109 106.323 279.019 106.996 279.019 107.74V109.454C279.019 110.175 279.106 110.84 279.282 111.449C279.458 112.053 279.713 112.574 280.047 113.014C280.381 113.453 280.785 113.793 281.26 114.033C281.74 114.274 282.282 114.394 282.886 114.394C283.653 114.394 284.301 114.271 284.828 114.025C285.355 113.779 285.769 113.406 286.067 112.908C286.372 112.41 286.568 111.783 286.656 111.028ZM290.91 107.09V115H290.04V105.49H290.893L290.91 107.09ZM294.408 105.42L294.373 106.211C294.262 106.194 294.15 106.182 294.039 106.176C293.934 106.164 293.819 106.158 293.696 106.158C293.216 106.158 292.794 106.249 292.431 106.431C292.067 106.613 291.763 106.865 291.517 107.187C291.276 107.509 291.092 107.884 290.963 108.312C290.84 108.734 290.772 109.191 290.761 109.683L290.4 109.788C290.4 109.15 290.465 108.561 290.594 108.022C290.729 107.477 290.934 107.002 291.209 106.598C291.484 106.194 291.83 105.88 292.246 105.657C292.662 105.429 293.154 105.315 293.723 105.315C293.857 105.315 293.986 105.326 294.109 105.35C294.238 105.367 294.338 105.391 294.408 105.42ZM299.515 115.176C298.905 115.176 298.343 115.062 297.827 114.833C297.312 114.605 296.863 114.282 296.482 113.866C296.102 113.445 295.806 112.949 295.595 112.381C295.384 111.807 295.278 111.177 295.278 110.491V110.114C295.278 109.387 295.384 108.731 295.595 108.145C295.812 107.559 296.107 107.055 296.482 106.633C296.863 106.205 297.297 105.88 297.783 105.657C298.27 105.429 298.785 105.315 299.33 105.315C299.904 105.315 300.42 105.42 300.877 105.631C301.34 105.836 301.732 106.129 302.055 106.51C302.377 106.891 302.62 107.342 302.784 107.864C302.954 108.379 303.039 108.95 303.039 109.577V110.193H295.814V109.428H302.169V109.314C302.163 108.745 302.049 108.218 301.826 107.732C301.609 107.24 301.29 106.841 300.868 106.536C300.452 106.232 299.939 106.079 299.33 106.079C298.855 106.079 298.422 106.182 298.029 106.387C297.643 106.586 297.309 106.867 297.027 107.231C296.746 107.588 296.529 108.013 296.377 108.505C296.225 108.991 296.148 109.528 296.148 110.114V110.491C296.148 111.036 296.23 111.546 296.395 112.021C296.564 112.495 296.799 112.911 297.098 113.269C297.402 113.626 297.763 113.907 298.179 114.113C298.595 114.318 299.049 114.42 299.541 114.42C300.098 114.42 300.599 114.321 301.044 114.121C301.489 113.916 301.894 113.579 302.257 113.111L302.811 113.532C302.605 113.837 302.351 114.115 302.046 114.367C301.741 114.614 301.381 114.81 300.965 114.956C300.549 115.103 300.065 115.176 299.515 115.176ZM310.984 113.269V108.365C310.984 107.89 310.885 107.483 310.686 107.143C310.486 106.797 310.193 106.533 309.807 106.352C309.426 106.164 308.954 106.071 308.392 106.071C307.876 106.071 307.413 106.161 307.003 106.343C306.599 106.525 306.276 106.771 306.036 107.081C305.802 107.392 305.685 107.738 305.685 108.118L304.823 108.101C304.823 107.743 304.908 107.398 305.078 107.064C305.254 106.73 305.5 106.431 305.816 106.167C306.139 105.904 306.52 105.696 306.959 105.543C307.404 105.391 307.894 105.315 308.427 105.315C309.101 105.315 309.692 105.429 310.202 105.657C310.718 105.88 311.122 106.22 311.415 106.677C311.708 107.128 311.854 107.697 311.854 108.382V113.031C311.854 113.36 311.878 113.699 311.925 114.051C311.972 114.403 312.042 114.687 312.136 114.904V115H311.195C311.125 114.783 311.072 114.517 311.037 114.2C311.002 113.878 310.984 113.568 310.984 113.269ZM311.222 109.533L311.239 110.245H309.051C308.482 110.245 307.976 110.298 307.53 110.404C307.091 110.503 306.716 110.65 306.405 110.843C306.101 111.036 305.866 111.271 305.702 111.546C305.538 111.816 305.456 112.12 305.456 112.46C305.456 112.812 305.547 113.134 305.729 113.427C305.91 113.72 306.168 113.954 306.502 114.13C306.842 114.3 307.237 114.385 307.688 114.385C308.298 114.385 308.837 114.277 309.306 114.06C309.78 113.843 310.173 113.553 310.483 113.19C310.794 112.821 311.014 112.407 311.143 111.95L311.521 112.504C311.433 112.803 311.286 113.111 311.081 113.427C310.876 113.738 310.609 114.025 310.281 114.288C309.953 114.552 309.566 114.766 309.121 114.93C308.682 115.094 308.178 115.176 307.609 115.176C307 115.176 306.467 115.062 306.01 114.833C305.559 114.599 305.207 114.282 304.955 113.884C304.709 113.48 304.586 113.023 304.586 112.513C304.586 112.062 304.686 111.655 304.885 111.291C305.084 110.922 305.371 110.609 305.746 110.351C306.121 110.087 306.578 109.885 307.117 109.744C307.656 109.604 308.263 109.533 308.937 109.533H311.222ZM318.227 105.49V106.238H313.568V105.49H318.227ZM315.317 103.012H316.196V112.698C316.196 113.172 316.255 113.532 316.372 113.779C316.495 114.019 316.656 114.18 316.855 114.262C317.055 114.344 317.269 114.385 317.497 114.385C317.661 114.385 317.813 114.376 317.954 114.359C318.101 114.341 318.241 114.321 318.376 114.297L318.429 115.044C318.3 115.085 318.133 115.117 317.928 115.141C317.723 115.164 317.529 115.176 317.348 115.176C316.943 115.176 316.589 115.103 316.284 114.956C315.979 114.804 315.742 114.549 315.572 114.192C315.402 113.828 315.317 113.33 315.317 112.698V103.012ZM324.106 115.176C323.497 115.176 322.935 115.062 322.419 114.833C321.903 114.605 321.455 114.282 321.074 113.866C320.693 113.445 320.397 112.949 320.187 112.381C319.976 111.807 319.87 111.177 319.87 110.491V110.114C319.87 109.387 319.976 108.731 320.187 108.145C320.403 107.559 320.699 107.055 321.074 106.633C321.455 106.205 321.889 105.88 322.375 105.657C322.861 105.429 323.377 105.315 323.922 105.315C324.496 105.315 325.012 105.42 325.469 105.631C325.932 105.836 326.324 106.129 326.646 106.51C326.969 106.891 327.212 107.342 327.376 107.864C327.546 108.379 327.631 108.95 327.631 109.577V110.193H320.406V109.428H326.761V109.314C326.755 108.745 326.641 108.218 326.418 107.732C326.201 107.24 325.882 106.841 325.46 106.536C325.044 106.232 324.531 106.079 323.922 106.079C323.447 106.079 323.014 106.182 322.621 106.387C322.234 106.586 321.9 106.867 321.619 107.231C321.338 107.588 321.121 108.013 320.969 108.505C320.816 108.991 320.74 109.528 320.74 110.114V110.491C320.74 111.036 320.822 111.546 320.986 112.021C321.156 112.495 321.391 112.911 321.689 113.269C321.994 113.626 322.354 113.907 322.771 114.113C323.187 114.318 323.641 114.42 324.133 114.42C324.689 114.42 325.19 114.321 325.636 114.121C326.081 113.916 326.485 113.579 326.849 113.111L327.402 113.532C327.197 113.837 326.942 114.115 326.638 114.367C326.333 114.614 325.973 114.81 325.557 114.956C325.141 115.103 324.657 115.176 324.106 115.176ZM335.084 105.49V115H334.214V105.49H335.084ZM334.012 102.669C334.012 102.493 334.07 102.344 334.188 102.221C334.305 102.092 334.46 102.028 334.653 102.028C334.853 102.028 335.011 102.092 335.128 102.221C335.251 102.344 335.312 102.493 335.312 102.669C335.312 102.845 335.251 102.994 335.128 103.117C335.011 103.24 334.853 103.302 334.653 103.302C334.46 103.302 334.305 103.24 334.188 103.117C334.07 102.994 334.012 102.845 334.012 102.669ZM338.898 107.521V115H338.028V105.49H338.872L338.898 107.521ZM338.714 109.586L338.318 109.243C338.359 108.716 338.477 108.215 338.67 107.74C338.863 107.266 339.124 106.847 339.452 106.484C339.78 106.12 340.167 105.836 340.612 105.631C341.058 105.42 341.547 105.315 342.08 105.315C342.555 105.315 342.979 105.379 343.354 105.508C343.729 105.637 344.046 105.842 344.304 106.123C344.567 106.405 344.767 106.768 344.901 107.213C345.042 107.653 345.112 108.189 345.112 108.822V115H344.242V108.813C344.242 108.11 344.143 107.562 343.943 107.169C343.75 106.777 343.478 106.498 343.126 106.334C342.78 106.17 342.37 106.088 341.896 106.088C341.362 106.088 340.899 106.205 340.507 106.44C340.114 106.674 339.786 106.973 339.522 107.336C339.265 107.699 339.068 108.083 338.934 108.488C338.799 108.886 338.726 109.252 338.714 109.586ZM351.396 105.49V106.238H346.738V105.49H351.396ZM348.487 103.012H349.366V112.698C349.366 113.172 349.425 113.532 349.542 113.779C349.665 114.019 349.826 114.18 350.025 114.262C350.225 114.344 350.438 114.385 350.667 114.385C350.831 114.385 350.983 114.376 351.124 114.359C351.271 114.341 351.411 114.321 351.546 114.297L351.599 115.044C351.47 115.085 351.303 115.117 351.098 115.141C350.893 115.164 350.699 115.176 350.518 115.176C350.113 115.176 349.759 115.103 349.454 114.956C349.149 114.804 348.912 114.549 348.742 114.192C348.572 113.828 348.487 113.33 348.487 112.698V103.012ZM359.86 112.803V105.49H360.739V115H359.887L359.86 112.803ZM360.019 111.115L360.511 111.098C360.511 111.684 360.44 112.226 360.3 112.724C360.159 113.216 359.937 113.647 359.632 114.016C359.333 114.385 358.946 114.672 358.472 114.877C357.997 115.076 357.429 115.176 356.767 115.176C356.304 115.176 355.879 115.112 355.492 114.983C355.111 114.848 354.78 114.637 354.499 114.35C354.224 114.063 354.01 113.691 353.857 113.234C353.711 112.771 353.638 112.214 353.638 111.564V105.49H354.508V111.581C354.508 112.109 354.566 112.554 354.684 112.917C354.807 113.275 354.974 113.562 355.185 113.779C355.401 113.995 355.65 114.154 355.932 114.253C356.213 114.347 356.518 114.394 356.846 114.394C357.643 114.394 358.272 114.241 358.735 113.937C359.198 113.626 359.526 113.222 359.72 112.724C359.919 112.22 360.019 111.684 360.019 111.115ZM364.545 105.49V115H363.675V105.49H364.545ZM363.473 102.669C363.473 102.493 363.531 102.344 363.648 102.221C363.766 102.092 363.921 102.028 364.114 102.028C364.313 102.028 364.472 102.092 364.589 102.221C364.712 102.344 364.773 102.493 364.773 102.669C364.773 102.845 364.712 102.994 364.589 103.117C364.472 103.24 364.313 103.302 364.114 103.302C363.921 103.302 363.766 103.24 363.648 103.117C363.531 102.994 363.473 102.845 363.473 102.669ZM370.979 105.49V106.238H366.32V105.49H370.979ZM368.069 103.012H368.948V112.698C368.948 113.172 369.007 113.532 369.124 113.779C369.247 114.019 369.408 114.18 369.607 114.262C369.807 114.344 370.021 114.385 370.249 114.385C370.413 114.385 370.565 114.376 370.706 114.359C370.853 114.341 370.993 114.321 371.128 114.297L371.181 115.044C371.052 115.085 370.885 115.117 370.68 115.141C370.475 115.164 370.281 115.176 370.1 115.176C369.695 115.176 369.341 115.103 369.036 114.956C368.731 114.804 368.494 114.549 368.324 114.192C368.154 113.828 368.069 113.33 368.069 112.698V103.012ZM374.248 105.49V115H373.378V105.49H374.248ZM373.176 102.669C373.176 102.493 373.234 102.344 373.352 102.221C373.469 102.092 373.624 102.028 373.817 102.028C374.017 102.028 374.175 102.092 374.292 102.221C374.415 102.344 374.477 102.493 374.477 102.669C374.477 102.845 374.415 102.994 374.292 103.117C374.175 103.24 374.017 103.302 373.817 103.302C373.624 103.302 373.469 103.24 373.352 103.117C373.234 102.994 373.176 102.845 373.176 102.669ZM379.97 114.13L383.16 105.49H384.065L380.462 115H379.794L379.97 114.13ZM377.034 105.49L380.251 114.148L380.409 115H379.732L376.129 105.49H377.034ZM389.321 115.176C388.712 115.176 388.149 115.062 387.634 114.833C387.118 114.605 386.67 114.282 386.289 113.866C385.908 113.445 385.612 112.949 385.401 112.381C385.19 111.807 385.085 111.177 385.085 110.491V110.114C385.085 109.387 385.19 108.731 385.401 108.145C385.618 107.559 385.914 107.055 386.289 106.633C386.67 106.205 387.104 105.88 387.59 105.657C388.076 105.429 388.592 105.315 389.137 105.315C389.711 105.315 390.227 105.42 390.684 105.631C391.146 105.836 391.539 106.129 391.861 106.51C392.184 106.891 392.427 107.342 392.591 107.864C392.761 108.379 392.846 108.95 392.846 109.577V110.193H385.621V109.428H391.976V109.314C391.97 108.745 391.855 108.218 391.633 107.732C391.416 107.24 391.097 106.841 390.675 106.536C390.259 106.232 389.746 106.079 389.137 106.079C388.662 106.079 388.229 106.182 387.836 106.387C387.449 106.586 387.115 106.867 386.834 107.231C386.553 107.588 386.336 108.013 386.184 108.505C386.031 108.991 385.955 109.528 385.955 110.114V110.491C385.955 111.036 386.037 111.546 386.201 112.021C386.371 112.495 386.605 112.911 386.904 113.269C387.209 113.626 387.569 113.907 387.985 114.113C388.401 114.318 388.855 114.42 389.348 114.42C389.904 114.42 390.405 114.321 390.851 114.121C391.296 113.916 391.7 113.579 392.063 113.111L392.617 113.532C392.412 113.837 392.157 114.115 391.853 114.367C391.548 114.614 391.188 114.81 390.771 114.956C390.355 115.103 389.872 115.176 389.321 115.176ZM402.021 112.61L404.263 105.49H404.913L404.395 107.582L402.021 115H401.371L402.021 112.61ZM399.411 105.49L401.406 112.645L401.916 115H401.257L398.497 105.49H399.411ZM407.928 112.618L409.879 105.49H410.793L408.024 115H407.374L407.928 112.618ZM405.027 105.49L407.251 112.566L407.91 115H407.269L404.843 107.573L404.359 105.49H405.027ZM413.887 105.49V115H413.017V105.49H413.887ZM412.814 102.669C412.814 102.493 412.873 102.344 412.99 102.221C413.107 102.092 413.263 102.028 413.456 102.028C413.655 102.028 413.813 102.092 413.931 102.221C414.054 102.344 414.115 102.493 414.115 102.669C414.115 102.845 414.054 102.994 413.931 103.117C413.813 103.24 413.655 103.302 413.456 103.302C413.263 103.302 413.107 103.24 412.99 103.117C412.873 102.994 412.814 102.845 412.814 102.669ZM417.701 107.09V115H416.831V105.49H417.684L417.701 107.09ZM421.199 105.42L421.164 106.211C421.053 106.194 420.941 106.182 420.83 106.176C420.725 106.164 420.61 106.158 420.487 106.158C420.007 106.158 419.585 106.249 419.222 106.431C418.858 106.613 418.554 106.865 418.308 107.187C418.067 107.509 417.883 107.884 417.754 108.312C417.631 108.734 417.563 109.191 417.552 109.683L417.191 109.788C417.191 109.15 417.256 108.561 417.385 108.022C417.52 107.477 417.725 107.002 418 106.598C418.275 106.194 418.621 105.88 419.037 105.657C419.453 105.429 419.945 105.315 420.514 105.315C420.648 105.315 420.777 105.326 420.9 105.35C421.029 105.367 421.129 105.391 421.199 105.42ZM426.306 115.176C425.696 115.176 425.134 115.062 424.618 114.833C424.103 114.605 423.654 114.282 423.273 113.866C422.893 113.445 422.597 112.949 422.386 112.381C422.175 111.807 422.069 111.177 422.069 110.491V110.114C422.069 109.387 422.175 108.731 422.386 108.145C422.603 107.559 422.898 107.055 423.273 106.633C423.654 106.205 424.088 105.88 424.574 105.657C425.061 105.429 425.576 105.315 426.121 105.315C426.695 105.315 427.211 105.42 427.668 105.631C428.131 105.836 428.523 106.129 428.846 106.51C429.168 106.891 429.411 107.342 429.575 107.864C429.745 108.379 429.83 108.95 429.83 109.577V110.193H422.605V109.428H428.96V109.314C428.954 108.745 428.84 108.218 428.617 107.732C428.4 107.24 428.081 106.841 427.659 106.536C427.243 106.232 426.73 106.079 426.121 106.079C425.646 106.079 425.213 106.182 424.82 106.387C424.434 106.586 424.1 106.867 423.818 107.231C423.537 107.588 423.32 108.013 423.168 108.505C423.016 108.991 422.939 109.528 422.939 110.114V110.491C422.939 111.036 423.021 111.546 423.186 112.021C423.355 112.495 423.59 112.911 423.889 113.269C424.193 113.626 424.554 113.907 424.97 114.113C425.386 114.318 425.84 114.42 426.332 114.42C426.889 114.42 427.39 114.321 427.835 114.121C428.28 113.916 428.685 113.579 429.048 113.111L429.602 113.532C429.396 113.837 429.142 114.115 428.837 114.367C428.532 114.614 428.172 114.81 427.756 114.956C427.34 115.103 426.856 115.176 426.306 115.176ZM433.548 115H432.678V104.26C432.678 103.621 432.786 103.085 433.003 102.652C433.22 102.212 433.53 101.881 433.935 101.658C434.345 101.43 434.828 101.316 435.385 101.316C435.566 101.316 435.754 101.327 435.947 101.351C436.141 101.368 436.328 101.406 436.51 101.465L436.431 102.212C436.284 102.171 436.135 102.142 435.982 102.124C435.836 102.107 435.657 102.098 435.446 102.098C435.054 102.098 434.714 102.183 434.427 102.353C434.146 102.523 433.929 102.769 433.776 103.091C433.624 103.407 433.548 103.797 433.548 104.26V115ZM435.895 105.49V106.238H431.078V105.49H435.895ZM438.672 107.09V115H437.802V105.49H438.654L438.672 107.09ZM442.17 105.42L442.135 106.211C442.023 106.194 441.912 106.182 441.801 106.176C441.695 106.164 441.581 106.158 441.458 106.158C440.978 106.158 440.556 106.249 440.192 106.431C439.829 106.613 439.524 106.865 439.278 107.187C439.038 107.509 438.854 107.884 438.725 108.312C438.602 108.734 438.534 109.191 438.522 109.683L438.162 109.788C438.162 109.15 438.227 108.561 438.355 108.022C438.49 107.477 438.695 107.002 438.971 106.598C439.246 106.194 439.592 105.88 440.008 105.657C440.424 105.429 440.916 105.315 441.484 105.315C441.619 105.315 441.748 105.326 441.871 105.35C442 105.367 442.1 105.391 442.17 105.42ZM449.342 113.269V108.365C449.342 107.89 449.242 107.483 449.043 107.143C448.844 106.797 448.551 106.533 448.164 106.352C447.783 106.164 447.312 106.071 446.749 106.071C446.233 106.071 445.771 106.161 445.36 106.343C444.956 106.525 444.634 106.771 444.394 107.081C444.159 107.392 444.042 107.738 444.042 108.118L443.181 108.101C443.181 107.743 443.266 107.398 443.436 107.064C443.611 106.73 443.857 106.431 444.174 106.167C444.496 105.904 444.877 105.696 445.316 105.543C445.762 105.391 446.251 105.315 446.784 105.315C447.458 105.315 448.05 105.429 448.56 105.657C449.075 105.88 449.479 106.22 449.772 106.677C450.065 107.128 450.212 107.697 450.212 108.382V113.031C450.212 113.36 450.235 113.699 450.282 114.051C450.329 114.403 450.399 114.687 450.493 114.904V115H449.553C449.482 114.783 449.43 114.517 449.395 114.2C449.359 113.878 449.342 113.568 449.342 113.269ZM449.579 109.533L449.597 110.245H447.408C446.84 110.245 446.333 110.298 445.888 110.404C445.448 110.503 445.073 110.65 444.763 110.843C444.458 111.036 444.224 111.271 444.06 111.546C443.896 111.816 443.813 112.12 443.813 112.46C443.813 112.812 443.904 113.134 444.086 113.427C444.268 113.72 444.525 113.954 444.859 114.13C445.199 114.3 445.595 114.385 446.046 114.385C446.655 114.385 447.194 114.277 447.663 114.06C448.138 113.843 448.53 113.553 448.841 113.19C449.151 112.821 449.371 112.407 449.5 111.95L449.878 112.504C449.79 112.803 449.644 113.111 449.438 113.427C449.233 113.738 448.967 114.025 448.639 114.288C448.311 114.552 447.924 114.766 447.479 114.93C447.039 115.094 446.535 115.176 445.967 115.176C445.357 115.176 444.824 115.062 444.367 114.833C443.916 114.599 443.564 114.282 443.312 113.884C443.066 113.48 442.943 113.023 442.943 112.513C442.943 112.062 443.043 111.655 443.242 111.291C443.441 110.922 443.729 110.609 444.104 110.351C444.479 110.087 444.936 109.885 445.475 109.744C446.014 109.604 446.62 109.533 447.294 109.533H449.579ZM453.903 107.477V115H453.024V105.49H453.877L453.903 107.477ZM453.754 109.586L453.323 109.243C453.364 108.716 453.476 108.215 453.657 107.74C453.845 107.266 454.1 106.847 454.422 106.484C454.744 106.12 455.125 105.836 455.564 105.631C456.01 105.42 456.511 105.315 457.067 105.315C457.536 105.315 457.958 105.379 458.333 105.508C458.714 105.631 459.036 105.827 459.3 106.097C459.563 106.361 459.766 106.706 459.906 107.134C460.053 107.562 460.126 108.074 460.126 108.672V115H459.256V108.698C459.256 108.025 459.153 107.5 458.948 107.125C458.749 106.75 458.468 106.484 458.104 106.325C457.741 106.167 457.322 106.088 456.848 106.088C456.291 106.088 455.819 106.205 455.433 106.44C455.046 106.674 454.729 106.973 454.483 107.336C454.243 107.699 454.064 108.083 453.947 108.488C453.83 108.886 453.766 109.252 453.754 109.586ZM460.117 108.778L459.537 108.698C459.578 108.259 459.692 107.837 459.88 107.433C460.067 107.023 460.322 106.659 460.645 106.343C460.967 106.027 461.351 105.778 461.796 105.596C462.241 105.408 462.736 105.315 463.281 105.315C463.768 105.315 464.201 105.382 464.582 105.517C464.969 105.646 465.294 105.854 465.558 106.141C465.827 106.422 466.029 106.782 466.164 107.222C466.305 107.661 466.375 108.192 466.375 108.813V115H465.505V108.813C465.505 108.098 465.402 107.544 465.197 107.152C464.998 106.753 464.717 106.475 464.354 106.317C463.99 106.158 463.571 106.082 463.097 106.088C462.604 106.094 462.174 106.185 461.805 106.361C461.441 106.536 461.137 106.762 460.891 107.037C460.65 107.307 460.466 107.597 460.337 107.907C460.208 108.212 460.135 108.502 460.117 108.778ZM472.712 115.176C472.103 115.176 471.54 115.062 471.024 114.833C470.509 114.605 470.061 114.282 469.68 113.866C469.299 113.445 469.003 112.949 468.792 112.381C468.581 111.807 468.476 111.177 468.476 110.491V110.114C468.476 109.387 468.581 108.731 468.792 108.145C469.009 107.559 469.305 107.055 469.68 106.633C470.061 106.205 470.494 105.88 470.98 105.657C471.467 105.429 471.982 105.315 472.527 105.315C473.102 105.315 473.617 105.42 474.074 105.631C474.537 105.836 474.93 106.129 475.252 106.51C475.574 106.891 475.817 107.342 475.981 107.864C476.151 108.379 476.236 108.95 476.236 109.577V110.193H469.012V109.428H475.366V109.314C475.36 108.745 475.246 108.218 475.023 107.732C474.807 107.24 474.487 106.841 474.065 106.536C473.649 106.232 473.137 106.079 472.527 106.079C472.053 106.079 471.619 106.182 471.227 106.387C470.84 106.586 470.506 106.867 470.225 107.231C469.943 107.588 469.727 108.013 469.574 108.505C469.422 108.991 469.346 109.528 469.346 110.114V110.491C469.346 111.036 469.428 111.546 469.592 112.021C469.762 112.495 469.996 112.911 470.295 113.269C470.6 113.626 470.96 113.907 471.376 114.113C471.792 114.318 472.246 114.42 472.738 114.42C473.295 114.42 473.796 114.321 474.241 114.121C474.687 113.916 475.091 113.579 475.454 113.111L476.008 113.532C475.803 113.837 475.548 114.115 475.243 114.367C474.938 114.614 474.578 114.81 474.162 114.956C473.746 115.103 473.263 115.176 472.712 115.176ZM484.094 112.601C484.094 112.337 484.023 112.073 483.883 111.81C483.742 111.54 483.481 111.294 483.101 111.072C482.72 110.843 482.163 110.653 481.431 110.5C480.903 110.383 480.435 110.254 480.024 110.114C479.614 109.967 479.269 109.791 478.987 109.586C478.712 109.381 478.501 109.138 478.354 108.857C478.214 108.57 478.144 108.233 478.144 107.846C478.144 107.494 478.22 107.166 478.372 106.862C478.524 106.557 478.744 106.29 479.031 106.062C479.318 105.827 479.664 105.646 480.068 105.517C480.479 105.382 480.938 105.315 481.448 105.315C482.175 105.315 482.796 105.438 483.312 105.684C483.827 105.924 484.223 106.255 484.498 106.677C484.779 107.099 484.92 107.579 484.92 108.118H484.05C484.05 107.767 483.947 107.439 483.742 107.134C483.543 106.823 483.25 106.572 482.863 106.378C482.477 106.179 482.005 106.079 481.448 106.079C480.868 106.079 480.399 106.167 480.042 106.343C479.685 106.519 479.424 106.739 479.26 107.002C479.096 107.266 479.014 107.538 479.014 107.82C479.014 108.042 479.046 108.244 479.11 108.426C479.181 108.608 479.31 108.778 479.497 108.936C479.685 109.094 479.951 109.243 480.297 109.384C480.648 109.519 481.103 109.651 481.659 109.78C482.427 109.949 483.051 110.157 483.531 110.404C484.018 110.644 484.375 110.94 484.604 111.291C484.838 111.643 484.955 112.068 484.955 112.566C484.955 112.952 484.873 113.307 484.709 113.629C484.551 113.946 484.319 114.221 484.015 114.455C483.716 114.684 483.353 114.863 482.925 114.991C482.503 115.115 482.031 115.176 481.51 115.176C480.713 115.176 480.042 115.047 479.497 114.789C478.952 114.531 478.539 114.192 478.258 113.77C477.977 113.348 477.836 112.894 477.836 112.407H478.706C478.741 112.917 478.902 113.319 479.189 113.612C479.482 113.905 479.837 114.113 480.253 114.236C480.675 114.353 481.094 114.411 481.51 114.411C482.072 114.411 482.544 114.326 482.925 114.156C483.312 113.981 483.602 113.755 483.795 113.48C483.994 113.204 484.094 112.911 484.094 112.601ZM497.611 113.269V108.365C497.611 107.89 497.512 107.483 497.312 107.143C497.113 106.797 496.82 106.533 496.434 106.352C496.053 106.164 495.581 106.071 495.019 106.071C494.503 106.071 494.04 106.161 493.63 106.343C493.226 106.525 492.903 106.771 492.663 107.081C492.429 107.392 492.312 107.738 492.312 108.118L491.45 108.101C491.45 107.743 491.535 107.398 491.705 107.064C491.881 106.73 492.127 106.431 492.443 106.167C492.766 105.904 493.146 105.696 493.586 105.543C494.031 105.391 494.521 105.315 495.054 105.315C495.728 105.315 496.319 105.429 496.829 105.657C497.345 105.88 497.749 106.22 498.042 106.677C498.335 107.128 498.481 107.697 498.481 108.382V113.031C498.481 113.36 498.505 113.699 498.552 114.051C498.599 114.403 498.669 114.687 498.763 114.904V115H497.822C497.752 114.783 497.699 114.517 497.664 114.2C497.629 113.878 497.611 113.568 497.611 113.269ZM497.849 109.533L497.866 110.245H495.678C495.109 110.245 494.603 110.298 494.157 110.404C493.718 110.503 493.343 110.65 493.032 110.843C492.728 111.036 492.493 111.271 492.329 111.546C492.165 111.816 492.083 112.12 492.083 112.46C492.083 112.812 492.174 113.134 492.355 113.427C492.537 113.72 492.795 113.954 493.129 114.13C493.469 114.3 493.864 114.385 494.315 114.385C494.925 114.385 495.464 114.277 495.933 114.06C496.407 113.843 496.8 113.553 497.11 113.19C497.421 112.821 497.641 112.407 497.77 111.95L498.147 112.504C498.06 112.803 497.913 113.111 497.708 113.427C497.503 113.738 497.236 114.025 496.908 114.288C496.58 114.552 496.193 114.766 495.748 114.93C495.309 115.094 494.805 115.176 494.236 115.176C493.627 115.176 493.094 115.062 492.637 114.833C492.186 114.599 491.834 114.282 491.582 113.884C491.336 113.48 491.213 113.023 491.213 112.513C491.213 112.062 491.312 111.655 491.512 111.291C491.711 110.922 491.998 110.609 492.373 110.351C492.748 110.087 493.205 109.885 493.744 109.744C494.283 109.604 494.89 109.533 495.563 109.533H497.849ZM502.234 107.521V115H501.364V105.49H502.208L502.234 107.521ZM502.05 109.586L501.654 109.243C501.695 108.716 501.812 108.215 502.006 107.74C502.199 107.266 502.46 106.847 502.788 106.484C503.116 106.12 503.503 105.836 503.948 105.631C504.394 105.42 504.883 105.315 505.416 105.315C505.891 105.315 506.315 105.379 506.69 105.508C507.065 105.637 507.382 105.842 507.64 106.123C507.903 106.405 508.103 106.768 508.237 107.213C508.378 107.653 508.448 108.189 508.448 108.822V115H507.578V108.813C507.578 108.11 507.479 107.562 507.279 107.169C507.086 106.777 506.813 106.498 506.462 106.334C506.116 106.17 505.706 106.088 505.231 106.088C504.698 106.088 504.235 106.205 503.843 106.44C503.45 106.674 503.122 106.973 502.858 107.336C502.601 107.699 502.404 108.083 502.27 108.488C502.135 108.886 502.062 109.252 502.05 109.586ZM517.492 113.155V101.5H518.362V115H517.536L517.492 113.155ZM510.821 110.342V110.157C510.821 109.413 510.903 108.745 511.067 108.154C511.237 107.556 511.48 107.046 511.797 106.624C512.113 106.202 512.494 105.88 512.939 105.657C513.391 105.429 513.9 105.315 514.469 105.315C515.014 105.315 515.497 105.403 515.919 105.578C516.341 105.754 516.704 106.003 517.009 106.325C517.313 106.648 517.562 107.029 517.756 107.468C517.949 107.907 518.093 108.394 518.187 108.927V111.757C518.116 112.243 517.984 112.695 517.791 113.111C517.604 113.527 517.354 113.89 517.044 114.2C516.739 114.511 516.37 114.751 515.937 114.921C515.503 115.091 515.008 115.176 514.451 115.176C513.889 115.176 513.382 115.059 512.931 114.824C512.485 114.59 512.104 114.259 511.788 113.831C511.478 113.398 511.237 112.888 511.067 112.302C510.903 111.71 510.821 111.057 510.821 110.342ZM511.7 110.157V110.342C511.7 110.916 511.759 111.452 511.876 111.95C511.993 112.443 512.169 112.87 512.403 113.234C512.638 113.597 512.937 113.881 513.3 114.086C513.663 114.291 514.091 114.394 514.583 114.394C515.204 114.394 515.729 114.28 516.156 114.051C516.584 113.817 516.927 113.506 517.185 113.119C517.442 112.733 517.627 112.308 517.738 111.845V108.918C517.668 108.614 517.565 108.297 517.431 107.969C517.296 107.641 517.108 107.336 516.868 107.055C516.628 106.768 516.323 106.536 515.954 106.361C515.585 106.185 515.134 106.097 514.601 106.097C514.103 106.097 513.672 106.199 513.309 106.405C512.945 106.61 512.644 106.897 512.403 107.266C512.169 107.629 511.993 108.057 511.876 108.549C511.759 109.041 511.7 109.577 511.7 110.157ZM526.097 102.203H527.011L531.906 113.735L536.819 102.203H537.725L532.249 115H531.563L526.097 102.203ZM525.815 102.203H526.624L526.703 109.226V115H525.815V102.203ZM537.206 102.203H538.015V115H537.127V109.226L537.206 102.203ZM545.318 113.515L549.44 102.203H550.407L545.644 115H544.896L545.318 113.515ZM540.95 102.203L545.055 113.515L545.485 115H544.747L539.983 102.203H540.95ZM556.604 109.727H552.877V108.945H556.604C557.4 108.945 558.045 108.816 558.537 108.558C559.035 108.294 559.398 107.943 559.627 107.503C559.855 107.058 559.97 106.56 559.97 106.009C559.97 105.464 559.855 104.963 559.627 104.506C559.398 104.049 559.035 103.683 558.537 103.407C558.045 103.126 557.4 102.986 556.604 102.986H553.255V115H552.358V102.203H556.604C557.535 102.203 558.314 102.365 558.941 102.687C559.574 103.003 560.052 103.446 560.374 104.014C560.696 104.582 560.857 105.241 560.857 105.991C560.857 106.771 560.696 107.439 560.374 107.995C560.058 108.552 559.583 108.98 558.95 109.279C558.317 109.577 557.535 109.727 556.604 109.727ZM569.093 115H568.223V104.26C568.223 103.621 568.331 103.085 568.548 102.652C568.771 102.212 569.087 101.881 569.497 101.658C569.907 101.43 570.399 101.316 570.974 101.316C571.249 101.316 571.565 101.342 571.923 101.395C572.28 101.442 572.652 101.506 573.039 101.588C573.432 101.67 573.812 101.758 574.182 101.852L573.707 102.476C573.215 102.376 572.746 102.288 572.301 102.212C571.855 102.136 571.431 102.098 571.026 102.098C570.622 102.098 570.273 102.183 569.98 102.353C569.693 102.523 569.474 102.769 569.321 103.091C569.169 103.407 569.093 103.797 569.093 104.26V115ZM573.32 115V101.852H574.182V115H573.32ZM571.439 105.49V106.238H566.623V105.49H571.439ZM576.528 110.404V110.087C576.528 109.396 576.628 108.76 576.827 108.18C577.026 107.594 577.311 107.087 577.68 106.659C578.049 106.232 578.491 105.901 579.007 105.666C579.528 105.432 580.105 105.315 580.738 105.315C581.377 105.315 581.954 105.432 582.47 105.666C582.991 105.901 583.437 106.232 583.806 106.659C584.181 107.087 584.468 107.594 584.667 108.18C584.866 108.76 584.966 109.396 584.966 110.087V110.404C584.966 111.095 584.866 111.734 584.667 112.32C584.468 112.9 584.181 113.404 583.806 113.831C583.437 114.259 582.994 114.59 582.479 114.824C581.963 115.059 581.389 115.176 580.756 115.176C580.117 115.176 579.537 115.059 579.016 114.824C578.5 114.59 578.055 114.259 577.68 113.831C577.311 113.404 577.026 112.9 576.827 112.32C576.628 111.734 576.528 111.095 576.528 110.404ZM577.39 110.087V110.404C577.39 110.937 577.463 111.447 577.609 111.933C577.762 112.413 577.979 112.841 578.26 113.216C578.547 113.585 578.898 113.878 579.314 114.095C579.736 114.306 580.217 114.411 580.756 114.411C581.289 114.411 581.761 114.306 582.171 114.095C582.587 113.878 582.936 113.585 583.217 113.216C583.504 112.841 583.721 112.413 583.867 111.933C584.02 111.447 584.096 110.937 584.096 110.404V110.087C584.096 109.566 584.02 109.065 583.867 108.584C583.721 108.104 583.504 107.676 583.217 107.301C582.93 106.926 582.578 106.63 582.162 106.413C581.746 106.191 581.271 106.079 580.738 106.079C580.205 106.079 579.73 106.191 579.314 106.413C578.898 106.63 578.547 106.926 578.26 107.301C577.973 107.676 577.756 108.104 577.609 108.584C577.463 109.065 577.39 109.566 577.39 110.087ZM589.896 112.61L592.138 105.49H592.788L592.27 107.582L589.896 115H589.246L589.896 112.61ZM587.286 105.49L589.281 112.645L589.791 115H589.132L586.372 105.49H587.286ZM595.803 112.618L597.754 105.49H598.668L595.899 115H595.249L595.803 112.618ZM592.902 105.49L595.126 112.566L595.785 115H595.144L592.718 107.573L592.234 105.49H592.902ZM606.525 112.601C606.525 112.337 606.455 112.073 606.314 111.81C606.174 111.54 605.913 111.294 605.532 111.072C605.151 110.843 604.595 110.653 603.862 110.5C603.335 110.383 602.866 110.254 602.456 110.114C602.046 109.967 601.7 109.791 601.419 109.586C601.144 109.381 600.933 109.138 600.786 108.857C600.646 108.57 600.575 108.233 600.575 107.846C600.575 107.494 600.651 107.166 600.804 106.862C600.956 106.557 601.176 106.29 601.463 106.062C601.75 105.827 602.096 105.646 602.5 105.517C602.91 105.382 603.37 105.315 603.88 105.315C604.606 105.315 605.228 105.438 605.743 105.684C606.259 105.924 606.654 106.255 606.93 106.677C607.211 107.099 607.352 107.579 607.352 108.118H606.481C606.481 107.767 606.379 107.439 606.174 107.134C605.975 106.823 605.682 106.572 605.295 106.378C604.908 106.179 604.437 106.079 603.88 106.079C603.3 106.079 602.831 106.167 602.474 106.343C602.116 106.519 601.855 106.739 601.691 107.002C601.527 107.266 601.445 107.538 601.445 107.82C601.445 108.042 601.478 108.244 601.542 108.426C601.612 108.608 601.741 108.778 601.929 108.936C602.116 109.094 602.383 109.243 602.729 109.384C603.08 109.519 603.534 109.651 604.091 109.78C604.858 109.949 605.482 110.157 605.963 110.404C606.449 110.644 606.807 110.94 607.035 111.291C607.27 111.643 607.387 112.068 607.387 112.566C607.387 112.952 607.305 113.307 607.141 113.629C606.982 113.946 606.751 114.221 606.446 114.455C606.147 114.684 605.784 114.863 605.356 114.991C604.935 115.115 604.463 115.176 603.941 115.176C603.145 115.176 602.474 115.047 601.929 114.789C601.384 114.531 600.971 114.192 600.689 113.77C600.408 113.348 600.268 112.894 600.268 112.407H601.138C601.173 112.917 601.334 113.319 601.621 113.612C601.914 113.905 602.269 114.113 602.685 114.236C603.106 114.353 603.525 114.411 603.941 114.411C604.504 114.411 604.976 114.326 605.356 114.156C605.743 113.981 606.033 113.755 606.227 113.48C606.426 113.204 606.525 112.911 606.525 112.601Z" fill="white"/>
<mask id="path-7-outside-1_446_207" maskUnits="userSpaceOnUse" x="0" y="47.0002" width="62" height="83" fill="black">
<rect fill="white" y="47.0002" width="62" height="83"/>
<path d="M56.5 112.305V125H6.89062V114.258L29.7422 90.2346C31.7604 87.9234 33.388 85.8564 34.625 84.0334C35.862 82.178 36.7572 80.5015 37.3105 79.0042C37.8965 77.5068 38.1895 76.1558 38.1895 74.9514C38.1895 72.9006 37.8802 71.1917 37.2617 69.8245C36.6758 68.4247 35.7969 67.3668 34.625 66.6506C33.4857 65.9345 32.0697 65.5764 30.377 65.5764C28.6842 65.5764 27.2031 66.0647 25.9336 67.0413C24.6641 68.0178 23.6712 69.3525 22.9551 71.0452C22.2715 72.7379 21.9297 74.6422 21.9297 76.7581H5.42578C5.42578 72.3961 6.48372 68.4084 8.59961 64.7952C10.748 61.1819 13.7266 58.301 17.5352 56.1526C21.3438 53.9716 25.7546 52.8811 30.7676 52.8811C36.0085 52.8811 40.403 53.6949 43.9512 55.3225C47.4993 56.9501 50.1686 59.3101 51.959 62.4026C53.7819 65.4625 54.6934 69.1571 54.6934 73.4866C54.6934 75.9605 54.3027 78.3368 53.5215 80.6155C52.7402 82.8941 51.6172 85.1565 50.1523 87.4026C48.6875 89.6161 46.8971 91.8948 44.7812 94.2385C42.6979 96.5823 40.3216 99.0725 37.6523 101.709L28.4727 112.305H56.5Z"/>
</mask>
<path d="M56.5 112.305H61.5V107.305H56.5V112.305ZM56.5 125V130H61.5V125H56.5ZM6.89062 125H1.89062V130H6.89062V125ZM6.89062 114.258L3.26783 110.812L1.89062 112.26V114.258H6.89062ZM29.7422 90.2346L33.365 93.6807L33.4383 93.6036L33.5084 93.5234L29.7422 90.2346ZM34.625 84.0334L38.7624 86.841L38.7739 86.824L38.7853 86.8069L34.625 84.0334ZM37.3105 79.0042L32.6543 77.1822L32.637 77.2264L32.6206 77.2709L37.3105 79.0042ZM37.2617 69.8245L32.6495 71.7552L32.6769 71.8206L32.7062 71.8853L37.2617 69.8245ZM34.625 66.6506L31.9641 70.8838L31.9908 70.9006L32.0177 70.917L34.625 66.6506ZM22.9551 71.0452L18.3502 69.097L18.3342 69.1348L18.3189 69.1729L22.9551 71.0452ZM21.9297 76.7581V81.7581H26.9297V76.7581H21.9297ZM5.42578 76.7581H0.425781V81.7581H5.42578V76.7581ZM8.59961 64.7952L4.30193 62.2398L4.29339 62.2541L4.28495 62.2686L8.59961 64.7952ZM17.5352 56.1526L19.9918 60.5075L20.0058 60.4995L20.0198 60.4915L17.5352 56.1526ZM51.959 62.4026L47.6319 64.9078L47.6475 64.9348L47.6635 64.9616L51.959 62.4026ZM50.1523 87.4026L54.322 90.1619L54.3312 90.148L54.3404 90.1339L50.1523 87.4026ZM44.7812 94.2385L41.0699 90.888L41.057 90.9023L41.0442 90.9167L44.7812 94.2385ZM37.6523 101.709L34.1386 98.1521L34.0004 98.2885L33.8733 98.4352L37.6523 101.709ZM28.4727 112.305L24.6936 109.031L17.5254 117.305H28.4727V112.305ZM56.5 112.305H51.5V125H56.5H61.5V112.305H56.5ZM56.5 125V120H6.89062V125V130H56.5V125ZM6.89062 125H11.8906V114.258H6.89062H1.89062V125H6.89062ZM6.89062 114.258L10.5134 117.704L33.365 93.6807L29.7422 90.2346L26.1194 86.7886L3.26783 110.812L6.89062 114.258ZM29.7422 90.2346L33.5084 93.5234C35.6124 91.1139 37.3771 88.8824 38.7624 86.841L34.625 84.0334L30.4876 81.2259C29.3989 82.8303 27.9084 84.733 25.976 86.9459L29.7422 90.2346ZM34.625 84.0334L38.7853 86.8069C40.1604 84.7443 41.2703 82.7134 42.0005 80.7374L37.3105 79.0042L32.6206 77.2709C32.2441 78.2897 31.5636 79.6117 30.4647 81.2599L34.625 84.0334ZM37.3105 79.0042L41.9668 80.8261C42.7082 78.9314 43.1895 76.9497 43.1895 74.9514H38.1895H33.1895C33.1895 75.362 33.0848 76.0821 32.6543 77.1822L37.3105 79.0042ZM38.1895 74.9514H43.1895C43.1895 72.4353 42.8153 69.9698 41.8173 67.7636L37.2617 69.8245L32.7062 71.8853C32.9451 72.4135 33.1895 73.366 33.1895 74.9514H38.1895ZM37.2617 69.8245L41.8739 67.8938C40.9266 65.6308 39.3954 63.7062 37.2323 62.3842L34.625 66.6506L32.0177 70.917C32.1983 71.0274 32.4249 71.2187 32.6495 71.7552L37.2617 69.8245ZM34.625 66.6506L37.2859 62.4175C35.1673 61.0858 32.7699 60.5764 30.377 60.5764V65.5764V70.5764C31.3695 70.5764 31.8041 70.7832 31.9641 70.8838L34.625 66.6506ZM30.377 65.5764V60.5764C27.6486 60.5764 25.0803 61.3894 22.885 63.0781L25.9336 67.0413L28.9821 71.0044C29.3259 70.7399 29.7199 70.5764 30.377 70.5764V65.5764ZM25.9336 67.0413L22.885 63.0781C20.8362 64.6542 19.3524 66.7283 18.3502 69.097L22.9551 71.0452L27.5599 72.9934C27.9901 71.9766 28.492 71.3814 28.9821 71.0044L25.9336 67.0413ZM22.9551 71.0452L18.3189 69.1729C17.3599 71.5473 16.9297 74.1013 16.9297 76.7581H21.9297H26.9297C26.9297 75.1831 27.183 73.9284 27.5913 72.9175L22.9551 71.0452ZM21.9297 76.7581V71.7581H5.42578V76.7581V81.7581H21.9297V76.7581ZM5.42578 76.7581H10.4258C10.4258 73.2455 11.2663 70.1359 12.9143 67.3218L8.59961 64.7952L4.28495 62.2686C1.70112 66.6809 0.425781 71.5466 0.425781 76.7581H5.42578ZM8.59961 64.7952L12.8973 67.3505C14.5813 64.5183 16.9116 62.245 19.9918 60.5075L17.5352 56.1526L15.0786 51.7977C10.5416 54.357 6.9148 57.8454 4.30193 62.2398L8.59961 64.7952ZM17.5352 56.1526L20.0198 60.4915C22.9698 58.8022 26.5004 57.8811 30.7676 57.8811V52.8811V47.8811C25.0087 47.8811 19.7177 49.141 15.0505 51.8137L17.5352 56.1526ZM30.7676 52.8811V57.8811C35.5227 57.8811 39.1559 58.6238 41.8665 59.8672L43.9512 55.3225L46.0359 50.7778C41.6501 48.766 36.4943 47.8811 30.7676 47.8811V52.8811ZM43.9512 55.3225L41.8665 59.8672C44.5655 61.1053 46.4081 62.794 47.6319 64.9078L51.959 62.4026L56.2861 59.8974C53.9291 55.8263 50.4332 52.795 46.0359 50.7778L43.9512 55.3225ZM51.959 62.4026L47.6635 64.9616C48.9352 67.0962 49.6934 69.8639 49.6934 73.4866H54.6934H59.6934C59.6934 68.4504 58.6286 63.8287 56.2545 59.8436L51.959 62.4026ZM54.6934 73.4866H49.6934C49.6934 75.4239 49.3892 77.2512 48.7918 78.9939L53.5215 80.6155L58.2512 82.2371C59.2162 79.4224 59.6934 76.4972 59.6934 73.4866H54.6934ZM53.5215 80.6155L48.7918 78.9939C48.1587 80.8404 47.2285 82.7327 45.9643 84.6712L50.1523 87.4026L54.3404 90.1339C56.0058 87.5802 57.3218 84.9478 58.2512 82.2371L53.5215 80.6155ZM50.1523 87.4026L45.9827 84.6433C44.6786 86.6139 43.0488 88.696 41.0699 90.888L44.7812 94.2385L48.4926 97.589C50.7454 95.0936 52.6964 92.6183 54.322 90.1619L50.1523 87.4026ZM44.7812 94.2385L41.0442 90.9167C39.045 93.1658 36.7453 95.5771 34.1386 98.1521L37.6523 101.709L41.1661 105.266C43.8979 102.568 46.3508 99.9988 48.5183 97.5603L44.7812 94.2385ZM37.6523 101.709L33.8733 98.4352L24.6936 109.031L28.4727 112.305L32.2517 115.579L41.4314 104.983L37.6523 101.709ZM28.4727 112.305V117.305H56.5V112.305V107.305H28.4727V112.305Z" fill="#1A5069" mask="url(#path-7-outside-1_446_207)"/>
<defs>
<radialGradient id="paint0_radial_446_207" cx="0" cy="0" r="1" gradientUnits="userSpaceOnUse" gradientTransform="translate(96.2629 367.631) scale(96.2629 367.631)">
<stop stop-color="#1A5069"/>
<stop offset="1" stop-color="#0F7BAE" stop-opacity="0"/>
</radialGradient>
<radialGradient id="paint1_radial_446_207" cx="0" cy="0" r="1" gradientUnits="userSpaceOnUse" gradientTransform="translate(96.2629 367.631) scale(96.2629 367.631)">
<stop stop-color="#1A5069"/>
<stop offset="1" stop-color="#0F7BAE" stop-opacity="0"/>
</radialGradient>
</defs>
</svg>
