<svg width="796" height="180" viewBox="0 0 796 180" fill="none" xmlns="http://www.w3.org/2000/svg">
<mask id="mask0_446_240" style="mask-type:alpha" maskUnits="userSpaceOnUse" x="69" y="0" width="727" height="180">
<rect x="-1.00159" y="0.995166" width="174.036" height="724.019" rx="87.0179" transform="matrix(-0.00160036 0.999999 -0.999988 -0.00483255 795.285 5.51011)" fill="black" stroke="#136A93" stroke-width="2"/>
</mask>
<g mask="url(#mask0_446_240)">
<rect width="192.526" height="735.262" rx="47.5" transform="matrix(-0.00160036 0.999999 -0.999988 -0.00483255 1070.4 68.4429)" fill="url(#paint0_radial_446_240)" fill-opacity="0.74"/>
<rect width="192.526" height="735.262" rx="47.5" transform="matrix(-0.00160036 0.999999 -0.999988 -0.00483255 529.428 -57.9541)" fill="url(#paint1_radial_446_240)" fill-opacity="0.74"/>
</g>
<rect x="72.291" y="1.54663" width="722.708" height="175.235" rx="87.6177" fill="#D9D9D9" fill-opacity="0.14" stroke="#136A93" stroke-width="2"/>
<path d="M314.56 72.5403C314.56 72.0618 314.486 71.6345 314.337 71.2585C314.201 70.8712 313.944 70.5237 313.568 70.2161C313.204 69.8971 312.685 69.5894 312.013 69.2932C311.352 68.9856 310.498 68.6666 309.45 68.3362C308.288 67.9716 307.205 67.5614 306.203 67.1057C305.2 66.65 304.317 66.1202 303.554 65.5164C302.802 64.9125 302.215 64.2175 301.793 63.4314C301.372 62.6339 301.161 61.711 301.161 60.6628C301.161 59.6375 301.378 58.7032 301.811 57.8601C302.255 57.017 302.882 56.2935 303.69 55.6897C304.499 55.0745 305.451 54.6016 306.544 54.2712C307.65 53.9408 308.869 53.7756 310.202 53.7756C312.047 53.7756 313.642 54.1117 314.987 54.7839C316.343 55.4561 317.391 56.3676 318.131 57.5183C318.872 58.669 319.242 59.9622 319.242 61.3977H314.56C314.56 60.623 314.394 59.9394 314.064 59.3469C313.745 58.7545 313.255 58.2874 312.594 57.9456C311.945 57.6038 311.125 57.4329 310.133 57.4329C309.176 57.4329 308.379 57.5753 307.741 57.8601C307.114 58.1449 306.641 58.5323 306.322 59.0222C306.015 59.5121 305.861 60.059 305.861 60.6628C305.861 61.1186 305.969 61.5287 306.186 61.8933C306.402 62.2465 306.727 62.5826 307.16 62.9016C307.593 63.2092 308.128 63.4998 308.766 63.7732C309.416 64.0352 310.167 64.2973 311.022 64.5593C312.389 64.9695 313.585 65.4252 314.611 65.9265C315.648 66.4278 316.508 66.9975 317.191 67.6355C317.886 68.2735 318.405 68.9913 318.747 69.7888C319.1 70.5863 319.276 71.4921 319.276 72.5061C319.276 73.5771 319.066 74.5341 318.644 75.3772C318.222 76.2203 317.619 76.9381 316.833 77.5305C316.046 78.123 315.101 78.573 313.996 78.8806C312.902 79.1882 311.677 79.342 310.321 79.342C309.114 79.342 307.917 79.1825 306.732 78.8635C305.559 78.5331 304.494 78.0432 303.537 77.3938C302.58 76.733 301.816 75.9013 301.247 74.8987C300.677 73.8847 300.392 72.6998 300.392 71.344H305.109C305.109 72.1301 305.234 72.8023 305.485 73.3606C305.747 73.9075 306.111 74.3575 306.579 74.7107C307.057 75.0525 307.615 75.3031 308.253 75.4626C308.891 75.6222 309.581 75.7019 310.321 75.7019C311.278 75.7019 312.064 75.5709 312.68 75.3088C313.306 75.0354 313.773 74.6594 314.081 74.1809C314.4 73.7024 314.56 73.1555 314.56 72.5403ZM333.313 74.6082V60.509H337.859V79.0002H333.587L333.313 74.6082ZM333.895 70.78L335.296 70.7458C335.296 71.9877 335.159 73.1327 334.886 74.1809C334.612 75.2291 334.185 76.1405 333.604 76.9153C333.034 77.6786 332.311 78.2768 331.434 78.7097C330.556 79.1313 329.52 79.342 328.323 79.342C327.412 79.342 326.58 79.2167 325.828 78.9661C325.076 78.704 324.427 78.2996 323.88 77.7527C323.344 77.1944 322.929 76.4823 322.632 75.6165C322.336 74.7392 322.188 73.6853 322.188 72.4548V60.509H326.7V72.489C326.7 73.1042 326.768 73.6169 326.905 74.0271C327.053 74.4373 327.252 74.7734 327.503 75.0354C327.765 75.2861 328.067 75.4683 328.409 75.5823C328.762 75.6848 329.138 75.7361 329.537 75.7361C330.63 75.7361 331.491 75.5196 332.117 75.0867C332.755 74.6423 333.211 74.0499 333.484 73.3093C333.758 72.5574 333.895 71.7143 333.895 70.78ZM346.12 64.0637V86.1096H341.591V60.509H345.778L346.12 64.0637ZM357.998 69.5667V69.9255C357.998 71.2699 357.838 72.5175 357.519 73.6682C357.211 74.8075 356.756 75.8044 356.152 76.6589C355.548 77.502 354.796 78.1628 353.896 78.6414C353.007 79.1085 351.982 79.342 350.82 79.342C349.681 79.342 348.689 79.1256 347.846 78.6926C347.003 78.2483 346.291 77.6217 345.71 76.8127C345.129 76.0038 344.662 75.0639 344.309 73.9929C343.967 72.9106 343.71 71.7314 343.54 70.4553V69.3103C343.71 67.9545 343.967 66.724 344.309 65.6189C344.662 64.5024 345.129 63.5396 345.71 62.7307C346.291 61.9104 346.997 61.2781 347.829 60.8337C348.672 60.3894 349.658 60.1672 350.786 60.1672C351.959 60.1672 352.99 60.3894 353.879 60.8337C354.779 61.2781 355.537 61.9161 356.152 62.7478C356.767 63.5795 357.229 64.5707 357.536 65.7214C357.844 66.8722 357.998 68.1539 357.998 69.5667ZM353.469 69.9255V69.5667C353.469 68.7463 353.395 67.9887 353.247 67.2937C353.098 66.5873 352.871 65.9721 352.563 65.448C352.255 64.9125 351.857 64.4967 351.367 64.2004C350.877 63.9042 350.284 63.7561 349.589 63.7561C348.894 63.7561 348.296 63.87 347.795 64.0979C347.294 64.3258 346.883 64.6505 346.564 65.072C346.245 65.4936 345.995 65.9949 345.812 66.5759C345.642 67.1456 345.528 67.7779 345.471 68.4729V71.3098C345.573 72.1529 345.773 72.9106 346.069 73.5828C346.365 74.255 346.798 74.7904 347.368 75.1892C347.949 75.588 348.701 75.7874 349.624 75.7874C350.319 75.7874 350.911 75.6335 351.401 75.3259C351.891 75.0183 352.29 74.5968 352.597 74.0613C352.905 73.5144 353.127 72.8878 353.264 72.1814C353.4 71.475 353.469 70.7231 353.469 69.9255ZM365.558 64.0637V86.1096H361.029V60.509H365.216L365.558 64.0637ZM377.435 69.5667V69.9255C377.435 71.2699 377.276 72.5175 376.957 73.6682C376.649 74.8075 376.193 75.8044 375.589 76.6589C374.986 77.502 374.234 78.1628 373.333 78.6414C372.445 79.1085 371.419 79.342 370.257 79.342C369.118 79.342 368.127 79.1256 367.284 78.6926C366.441 78.2483 365.729 77.6217 365.147 76.8127C364.566 76.0038 364.099 75.0639 363.746 73.9929C363.404 72.9106 363.148 71.7314 362.977 70.4553V69.3103C363.148 67.9545 363.404 66.724 363.746 65.6189C364.099 64.5024 364.566 63.5396 365.147 62.7307C365.729 61.9104 366.435 61.2781 367.267 60.8337C368.11 60.3894 369.095 60.1672 370.223 60.1672C371.397 60.1672 372.428 60.3894 373.316 60.8337C374.216 61.2781 374.974 61.9161 375.589 62.7478C376.205 63.5795 376.666 64.5707 376.974 65.7214C377.281 66.8722 377.435 68.1539 377.435 69.5667ZM372.906 69.9255V69.5667C372.906 68.7463 372.832 67.9887 372.684 67.2937C372.536 66.5873 372.308 65.9721 372 65.448C371.693 64.9125 371.294 64.4967 370.804 64.2004C370.314 63.9042 369.722 63.7561 369.027 63.7561C368.332 63.7561 367.734 63.87 367.232 64.0979C366.731 64.3258 366.321 64.6505 366.002 65.072C365.683 65.4936 365.432 65.9949 365.25 66.5759C365.079 67.1456 364.965 67.7779 364.908 68.4729V71.3098C365.011 72.1529 365.21 72.9106 365.506 73.5828C365.803 74.255 366.236 74.7904 366.805 75.1892C367.386 75.588 368.138 75.7874 369.061 75.7874C369.756 75.7874 370.348 75.6335 370.838 75.3259C371.328 75.0183 371.727 74.5968 372.035 74.0613C372.342 73.5144 372.564 72.8878 372.701 72.1814C372.838 71.475 372.906 70.7231 372.906 69.9255ZM379.68 69.9426V69.5837C379.68 68.2279 379.874 66.9804 380.261 65.8411C380.649 64.6903 381.213 63.6934 381.953 62.8503C382.694 62.0072 383.599 61.3521 384.67 60.885C385.741 60.4065 386.96 60.1672 388.328 60.1672C389.718 60.1672 390.948 60.4065 392.019 60.885C393.101 61.3521 394.013 62.0072 394.753 62.8503C395.494 63.6934 396.058 64.6903 396.445 65.8411C396.833 66.9804 397.026 68.2279 397.026 69.5837V69.9426C397.026 71.287 396.833 72.5346 396.445 73.6853C396.058 74.8246 395.494 75.8215 394.753 76.676C394.013 77.5191 393.107 78.1742 392.036 78.6414C390.965 79.1085 389.74 79.342 388.362 79.342C386.995 79.342 385.77 79.1085 384.688 78.6414C383.605 78.1742 382.694 77.5191 381.953 76.676C381.213 75.8215 380.649 74.8246 380.261 73.6853C379.874 72.5346 379.68 71.287 379.68 69.9426ZM384.192 69.5837V69.9426C384.192 70.7515 384.272 71.5092 384.431 72.2156C384.591 72.922 384.836 73.5429 385.166 74.0784C385.496 74.6139 385.924 75.0354 386.448 75.343C386.983 75.6392 387.621 75.7874 388.362 75.7874C389.091 75.7874 389.718 75.6392 390.242 75.343C390.766 75.0354 391.193 74.6139 391.523 74.0784C391.865 73.5429 392.116 72.922 392.275 72.2156C392.435 71.5092 392.515 70.7515 392.515 69.9426V69.5837C392.515 68.7862 392.435 68.04 392.275 67.345C392.116 66.6386 391.865 66.0177 391.523 65.4822C391.193 64.9353 390.76 64.5081 390.225 64.2004C389.701 63.8814 389.068 63.7219 388.328 63.7219C387.598 63.7219 386.972 63.8814 386.448 64.2004C385.924 64.5081 385.496 64.9353 385.166 65.4822C384.836 66.0177 384.591 66.6386 384.431 67.345C384.272 68.04 384.192 68.7862 384.192 69.5837ZM404.569 64.2859V79.0002H400.058V60.509H404.33L404.569 64.2859ZM410.192 60.3894L410.124 64.5935C409.873 64.5479 409.588 64.5138 409.269 64.491C408.961 64.4682 408.671 64.4568 408.397 64.4568C407.702 64.4568 407.093 64.5536 406.569 64.7473C406.045 64.9296 405.606 65.1973 405.253 65.5505C404.911 65.9037 404.649 66.3367 404.467 66.8494C404.285 67.3507 404.182 67.9203 404.159 68.5583L403.185 68.4387C403.185 67.2652 403.305 66.1772 403.544 65.1746C403.783 64.172 404.131 63.2947 404.586 62.5427C405.042 61.7908 405.612 61.2097 406.295 60.7996C406.99 60.378 407.788 60.1672 408.688 60.1672C408.939 60.1672 409.206 60.19 409.491 60.2356C409.787 60.2698 410.021 60.321 410.192 60.3894ZM422.024 60.509V63.7561H411.429V60.509H422.024ZM414.266 55.9631H418.794V73.6682C418.794 74.2151 418.868 74.6366 419.017 74.9329C419.165 75.2291 419.387 75.4285 419.683 75.531C419.979 75.6335 420.333 75.6848 420.743 75.6848C421.039 75.6848 421.312 75.6677 421.563 75.6335C421.814 75.5994 422.024 75.5652 422.195 75.531L422.212 78.9148C421.836 79.0401 421.409 79.1427 420.931 79.2224C420.464 79.3022 419.934 79.342 419.341 79.342C418.327 79.342 417.439 79.1711 416.675 78.8293C415.912 78.4762 415.319 77.9122 414.898 77.1375C414.476 76.3513 414.266 75.3145 414.266 74.0271V55.9631ZM437.315 65.5676L441.844 62.594C442.562 62.1155 443.058 61.6541 443.331 61.2097C443.604 60.7654 443.741 60.2299 443.741 59.6033C443.741 59.045 443.525 58.5266 443.092 58.0481C442.67 57.5582 442.072 57.3132 441.297 57.3132C440.75 57.3132 440.289 57.4386 439.913 57.6892C439.537 57.9399 439.252 58.276 439.059 58.6975C438.876 59.1077 438.785 59.5634 438.785 60.0647C438.785 60.5774 438.916 61.1015 439.178 61.637C439.452 62.1724 439.816 62.7364 440.272 63.3289C440.739 63.9099 441.257 64.5422 441.827 65.2258L453.568 79.0002H448.407L438.802 67.8235C437.993 66.8209 437.276 65.898 436.649 65.0549C436.022 64.2118 435.532 63.3972 435.179 62.6111C434.837 61.8136 434.667 60.9932 434.667 60.1501C434.667 58.8513 434.94 57.7234 435.487 56.7664C436.034 55.8093 436.803 55.0688 437.794 54.5447C438.797 54.0206 439.97 53.7585 441.314 53.7585C442.59 53.7585 443.69 54.0206 444.613 54.5447C445.547 55.0574 446.271 55.741 446.783 56.5955C447.296 57.45 447.552 58.3842 447.552 59.3982C447.552 60.1729 447.41 60.8907 447.125 61.5515C446.84 62.2009 446.447 62.7991 445.946 63.3459C445.444 63.8814 444.863 64.3884 444.203 64.8669L438.871 68.6951C438.358 69.128 437.971 69.5553 437.708 69.9768C437.458 70.387 437.287 70.7686 437.196 71.1218C437.116 71.475 437.076 71.8054 437.076 72.113C437.076 72.808 437.224 73.4347 437.521 73.9929C437.828 74.5398 438.261 74.9784 438.819 75.3088C439.389 75.6278 440.061 75.7874 440.836 75.7874C441.782 75.7874 442.693 75.5766 443.57 75.155C444.448 74.7335 445.234 74.1353 445.929 73.3606C446.635 72.5859 447.193 71.663 447.604 70.592C448.025 69.5097 448.236 68.3191 448.236 67.0203H452.098C452.098 68.2621 451.979 69.4413 451.739 70.5579C451.5 71.663 451.113 72.6884 450.577 73.634C450.042 74.5797 449.341 75.4228 448.475 76.1633C448.395 76.2317 448.299 76.3228 448.185 76.4368C448.082 76.5507 447.991 76.6418 447.911 76.7102C446.874 77.5989 445.752 78.2654 444.544 78.7097C443.348 79.1427 442.044 79.3591 440.631 79.3591C438.967 79.3591 437.532 79.0572 436.324 78.4534C435.117 77.8495 434.182 77.0178 433.521 75.9583C432.872 74.8987 432.547 73.6853 432.547 72.3181C432.547 71.3041 432.747 70.4211 433.146 69.6692C433.556 68.9058 434.12 68.1995 434.837 67.55C435.555 66.8892 436.381 66.2284 437.315 65.5676ZM484.684 65.9265V67.2083C484.684 69.0881 484.433 70.78 483.932 72.2839C483.431 73.7764 482.719 75.0468 481.796 76.095C480.873 77.1431 479.774 77.9464 478.498 78.5046C477.222 79.0629 475.803 79.342 474.242 79.342C472.704 79.342 471.291 79.0629 470.004 78.5046C468.728 77.9464 467.623 77.1431 466.688 76.095C465.754 75.0468 465.031 73.7764 464.518 72.2839C464.005 70.78 463.749 69.0881 463.749 67.2083V65.9265C463.749 64.0352 464.005 62.3433 464.518 60.8508C465.031 59.3583 465.749 58.088 466.671 57.0398C467.594 55.9802 468.694 55.1713 469.97 54.613C471.257 54.0548 472.67 53.7756 474.208 53.7756C475.769 53.7756 477.187 54.0548 478.463 54.613C479.739 55.1713 480.839 55.9802 481.762 57.0398C482.696 58.088 483.414 59.3583 483.915 60.8508C484.428 62.3433 484.684 64.0352 484.684 65.9265ZM479.933 67.2083V65.8923C479.933 64.5365 479.808 63.3459 479.557 62.3206C479.306 61.2838 478.936 60.4122 478.446 59.7058C477.956 58.9994 477.353 58.4696 476.635 58.1165C475.917 57.7519 475.108 57.5696 474.208 57.5696C473.297 57.5696 472.488 57.7519 471.781 58.1165C471.086 58.4696 470.494 58.9994 470.004 59.7058C469.514 60.4122 469.138 61.2838 468.876 62.3206C468.625 63.3459 468.5 64.5365 468.5 65.8923V67.2083C468.5 68.5527 468.625 69.7432 468.876 70.78C469.138 71.8168 469.514 72.6941 470.004 73.4119C470.505 74.1182 471.109 74.6537 471.815 75.0183C472.522 75.3829 473.331 75.5652 474.242 75.5652C475.154 75.5652 475.963 75.3829 476.669 75.0183C477.375 74.6537 477.968 74.1182 478.446 73.4119C478.936 72.6941 479.306 71.8168 479.557 70.78C479.808 69.7432 479.933 68.5527 479.933 67.2083ZM492.586 64.0637V86.1096H488.057V60.509H492.244L492.586 64.0637ZM504.463 69.5667V69.9255C504.463 71.2699 504.304 72.5175 503.985 73.6682C503.677 74.8075 503.222 75.8044 502.618 76.6589C502.014 77.502 501.262 78.1628 500.362 78.6414C499.473 79.1085 498.448 79.342 497.286 79.342C496.146 79.342 495.155 79.1256 494.312 78.6926C493.469 78.2483 492.757 77.6217 492.176 76.8127C491.595 76.0038 491.128 75.0639 490.774 73.9929C490.433 72.9106 490.176 71.7314 490.005 70.4553V69.3103C490.176 67.9545 490.433 66.724 490.774 65.6189C491.128 64.5024 491.595 63.5396 492.176 62.7307C492.757 61.9104 493.463 61.2781 494.295 60.8337C495.138 60.3894 496.124 60.1672 497.251 60.1672C498.425 60.1672 499.456 60.3894 500.345 60.8337C501.245 61.2781 502.002 61.9161 502.618 62.7478C503.233 63.5795 503.694 64.5707 504.002 65.7214C504.31 66.8722 504.463 68.1539 504.463 69.5667ZM499.935 69.9255V69.5667C499.935 68.7463 499.861 67.9887 499.712 67.2937C499.564 66.5873 499.336 65.9721 499.029 65.448C498.721 64.9125 498.322 64.4967 497.833 64.2004C497.343 63.9042 496.75 63.7561 496.055 63.7561C495.36 63.7561 494.762 63.87 494.261 64.0979C493.759 64.3258 493.349 64.6505 493.03 65.072C492.711 65.4936 492.461 65.9949 492.278 66.5759C492.107 67.1456 491.993 67.7779 491.937 68.4729V71.3098C492.039 72.1529 492.238 72.9106 492.535 73.5828C492.831 74.255 493.264 74.7904 493.833 75.1892C494.415 75.588 495.167 75.7874 496.089 75.7874C496.784 75.7874 497.377 75.6335 497.867 75.3259C498.357 75.0183 498.755 74.5968 499.063 74.0613C499.371 73.5144 499.593 72.8878 499.729 72.1814C499.866 71.475 499.935 70.7231 499.935 69.9255ZM516.262 60.509V63.7561H505.666V60.509H516.262ZM508.503 55.9631H513.032V73.6682C513.032 74.2151 513.106 74.6366 513.254 74.9329C513.402 75.2291 513.624 75.4285 513.92 75.531C514.217 75.6335 514.57 75.6848 514.98 75.6848C515.276 75.6848 515.55 75.6677 515.8 75.6335C516.051 75.5994 516.262 75.5652 516.433 75.531L516.45 78.9148C516.074 79.0401 515.646 79.1427 515.168 79.2224C514.701 79.3022 514.171 79.342 513.579 79.342C512.565 79.342 511.676 79.1711 510.913 78.8293C510.149 78.4762 509.557 77.9122 509.135 77.1375C508.714 76.3513 508.503 75.3145 508.503 74.0271V55.9631ZM523.805 60.509V79.0002H519.276V60.509H523.805ZM518.968 55.6726C518.968 55.0004 519.196 54.4421 519.652 53.9978C520.119 53.5535 520.746 53.3313 521.532 53.3313C522.318 53.3313 522.939 53.5535 523.395 53.9978C523.862 54.4421 524.095 55.0004 524.095 55.6726C524.095 56.3334 523.862 56.886 523.395 57.3303C522.939 57.7747 522.318 57.9968 521.532 57.9968C520.746 57.9968 520.119 57.7747 519.652 57.3303C519.196 56.886 518.968 56.3334 518.968 55.6726ZM532.356 64.303V79.0002H527.844V60.509H532.1L532.356 64.303ZM531.689 69.0881H530.305C530.305 67.8007 530.459 66.6158 530.767 65.5334C531.086 64.4511 531.553 63.5111 532.168 62.7136C532.783 61.9047 533.541 61.2781 534.441 60.8337C535.352 60.3894 536.406 60.1672 537.603 60.1672C538.434 60.1672 539.198 60.2926 539.893 60.5432C540.588 60.7825 541.186 61.1641 541.687 61.6882C542.2 62.2009 542.593 62.8731 542.866 63.7048C543.14 64.5251 543.276 65.5107 543.276 66.6614V79.0002H538.765V67.1228C538.765 66.2569 538.639 65.579 538.389 65.0891C538.149 64.5992 537.802 64.2574 537.346 64.0637C536.89 63.8586 536.344 63.7561 535.706 63.7561C534.999 63.7561 534.39 63.8985 533.877 64.1833C533.376 64.4568 532.96 64.8385 532.629 65.3284C532.31 65.8183 532.071 66.3822 531.912 67.0203C531.764 67.6583 531.689 68.3476 531.689 69.0881ZM542.935 68.2507L541.072 68.5925C541.083 67.4304 541.243 66.3424 541.55 65.3284C541.858 64.303 542.308 63.4086 542.9 62.6453C543.504 61.8705 544.25 61.2667 545.139 60.8337C546.039 60.3894 547.076 60.1672 548.25 60.1672C549.161 60.1672 549.981 60.2983 550.71 60.5603C551.451 60.811 552.083 61.2154 552.607 61.7737C553.132 62.3206 553.53 63.0326 553.804 63.9099C554.089 64.7872 554.231 65.8582 554.231 67.1228V79.0002H549.685V67.1057C549.685 66.2056 549.56 65.5164 549.309 65.0378C549.07 64.5593 548.722 64.2289 548.267 64.0466C547.811 63.8529 547.275 63.7561 546.66 63.7561C546.034 63.7561 545.487 63.8757 545.02 64.115C544.564 64.3429 544.176 64.6619 543.857 65.072C543.55 65.4822 543.316 65.9607 543.157 66.5076C543.009 67.0431 542.935 67.6241 542.935 68.2507ZM562.816 60.509V79.0002H558.288V60.509H562.816ZM557.98 55.6726C557.98 55.0004 558.208 54.4421 558.664 53.9978C559.131 53.5535 559.757 53.3313 560.543 53.3313C561.33 53.3313 561.951 53.5535 562.406 53.9978C562.873 54.4421 563.107 55.0004 563.107 55.6726C563.107 56.3334 562.873 56.886 562.406 57.3303C561.951 57.7747 561.33 57.9968 560.543 57.9968C559.757 57.9968 559.131 57.7747 558.664 57.3303C558.208 56.886 557.98 56.3334 557.98 55.6726ZM581.365 75.4456V79.0002H567.454V75.4456H581.365ZM581.041 63.2092L569.146 79.0002H566.172V76.2146L577.999 60.509H581.041V63.2092ZM579.383 60.509V64.0808H566.412V60.509H579.383ZM592.36 79.342C590.959 79.342 589.7 79.1142 588.583 78.6584C587.467 78.2027 586.516 77.5704 585.729 76.7615C584.955 75.9412 584.357 74.9898 583.935 73.9075C583.525 72.8137 583.32 71.6402 583.32 70.387V69.7034C583.32 68.2792 583.525 66.9861 583.935 65.824C584.345 64.6505 584.926 63.6422 585.678 62.7991C586.43 61.956 587.33 61.3066 588.378 60.8508C589.427 60.3951 590.583 60.1672 591.848 60.1672C593.158 60.1672 594.314 60.3894 595.317 60.8337C596.319 61.2667 597.157 61.8819 597.829 62.6794C598.501 63.477 599.008 64.434 599.35 65.5505C599.692 66.6557 599.863 67.8805 599.863 69.2249V71.1218H585.371V68.0115H595.419V67.6697C595.397 66.9519 595.26 66.2968 595.009 65.7043C594.759 65.1005 594.371 64.622 593.847 64.2688C593.323 63.9042 592.645 63.7219 591.813 63.7219C591.141 63.7219 590.555 63.87 590.053 64.1663C589.563 64.4511 589.153 64.8612 588.823 65.3967C588.504 65.9208 588.264 66.5474 588.105 67.2766C587.945 68.0058 587.866 68.8147 587.866 69.7034V70.387C587.866 71.1617 587.968 71.8795 588.173 72.5403C588.39 73.2011 588.703 73.7764 589.113 74.2664C589.535 74.7449 590.036 75.1208 590.617 75.3943C591.21 75.6563 591.882 75.7874 592.634 75.7874C593.579 75.7874 594.434 75.6051 595.197 75.2405C595.972 74.8645 596.644 74.3119 597.214 73.5828L599.487 75.9412C599.099 76.5108 598.575 77.0577 597.915 77.5818C597.265 78.1059 596.479 78.5331 595.556 78.8635C594.633 79.1825 593.568 79.342 592.36 79.342Z" fill="#EDD5B1"/>
<path d="M287.561 109.727H283.834V108.945H287.561C288.357 108.945 289.002 108.816 289.494 108.558C289.992 108.294 290.355 107.943 290.584 107.503C290.812 107.058 290.927 106.56 290.927 106.009C290.927 105.464 290.812 104.963 290.584 104.506C290.355 104.049 289.992 103.683 289.494 103.407C289.002 103.126 288.357 102.986 287.561 102.986H284.212V115H283.315V102.203H287.561C288.492 102.203 289.271 102.365 289.898 102.687C290.531 103.003 291.009 103.446 291.331 104.014C291.653 104.582 291.814 105.241 291.814 105.991C291.814 106.771 291.653 107.439 291.331 107.995C291.015 108.552 290.54 108.98 289.907 109.279C289.274 109.577 288.492 109.727 287.561 109.727ZM293.335 110.404V110.087C293.335 109.396 293.435 108.76 293.634 108.18C293.833 107.594 294.117 107.087 294.486 106.659C294.855 106.232 295.298 105.901 295.813 105.666C296.335 105.432 296.912 105.315 297.545 105.315C298.184 105.315 298.761 105.432 299.276 105.666C299.798 105.901 300.243 106.232 300.612 106.659C300.987 107.087 301.274 107.594 301.474 108.18C301.673 108.76 301.772 109.396 301.772 110.087V110.404C301.772 111.095 301.673 111.734 301.474 112.32C301.274 112.9 300.987 113.404 300.612 113.831C300.243 114.259 299.801 114.59 299.285 114.824C298.77 115.059 298.195 115.176 297.562 115.176C296.924 115.176 296.344 115.059 295.822 114.824C295.307 114.59 294.861 114.259 294.486 113.831C294.117 113.404 293.833 112.9 293.634 112.32C293.435 111.734 293.335 111.095 293.335 110.404ZM294.196 110.087V110.404C294.196 110.937 294.27 111.447 294.416 111.933C294.568 112.413 294.785 112.841 295.066 113.216C295.354 113.585 295.705 113.878 296.121 114.095C296.543 114.306 297.023 114.411 297.562 114.411C298.096 114.411 298.567 114.306 298.978 114.095C299.394 113.878 299.742 113.585 300.023 113.216C300.311 112.841 300.527 112.413 300.674 111.933C300.826 111.447 300.902 110.937 300.902 110.404V110.087C300.902 109.566 300.826 109.065 300.674 108.584C300.527 108.104 300.311 107.676 300.023 107.301C299.736 106.926 299.385 106.63 298.969 106.413C298.553 106.191 298.078 106.079 297.545 106.079C297.012 106.079 296.537 106.191 296.121 106.413C295.705 106.63 295.354 106.926 295.066 107.301C294.779 107.676 294.562 108.104 294.416 108.584C294.27 109.065 294.196 109.566 294.196 110.087ZM309.744 112.601C309.744 112.337 309.674 112.073 309.533 111.81C309.393 111.54 309.132 111.294 308.751 111.072C308.37 110.843 307.813 110.653 307.081 110.5C306.554 110.383 306.085 110.254 305.675 110.114C305.265 109.967 304.919 109.791 304.638 109.586C304.362 109.381 304.151 109.138 304.005 108.857C303.864 108.57 303.794 108.233 303.794 107.846C303.794 107.494 303.87 107.166 304.022 106.862C304.175 106.557 304.395 106.29 304.682 106.062C304.969 105.827 305.314 105.646 305.719 105.517C306.129 105.382 306.589 105.315 307.099 105.315C307.825 105.315 308.446 105.438 308.962 105.684C309.478 105.924 309.873 106.255 310.148 106.677C310.43 107.099 310.57 107.579 310.57 108.118H309.7C309.7 107.767 309.598 107.439 309.393 107.134C309.193 106.823 308.9 106.572 308.514 106.378C308.127 106.179 307.655 106.079 307.099 106.079C306.519 106.079 306.05 106.167 305.692 106.343C305.335 106.519 305.074 106.739 304.91 107.002C304.746 107.266 304.664 107.538 304.664 107.82C304.664 108.042 304.696 108.244 304.761 108.426C304.831 108.608 304.96 108.778 305.147 108.936C305.335 109.094 305.602 109.243 305.947 109.384C306.299 109.519 306.753 109.651 307.31 109.78C308.077 109.949 308.701 110.157 309.182 110.404C309.668 110.644 310.025 110.94 310.254 111.291C310.488 111.643 310.605 112.068 310.605 112.566C310.605 112.952 310.523 113.307 310.359 113.629C310.201 113.946 309.97 114.221 309.665 114.455C309.366 114.684 309.003 114.863 308.575 114.991C308.153 115.115 307.682 115.176 307.16 115.176C306.363 115.176 305.692 115.047 305.147 114.789C304.603 114.531 304.189 114.192 303.908 113.77C303.627 113.348 303.486 112.894 303.486 112.407H304.356C304.392 112.917 304.553 113.319 304.84 113.612C305.133 113.905 305.487 114.113 305.903 114.236C306.325 114.353 306.744 114.411 307.16 114.411C307.723 114.411 308.194 114.326 308.575 114.156C308.962 113.981 309.252 113.755 309.445 113.48C309.645 113.204 309.744 112.911 309.744 112.601ZM316.547 105.49V106.238H311.889V105.49H316.547ZM313.638 103.012H314.517V112.698C314.517 113.172 314.575 113.532 314.692 113.779C314.815 114.019 314.977 114.18 315.176 114.262C315.375 114.344 315.589 114.385 315.817 114.385C315.981 114.385 316.134 114.376 316.274 114.359C316.421 114.341 316.562 114.321 316.696 114.297L316.749 115.044C316.62 115.085 316.453 115.117 316.248 115.141C316.043 115.164 315.85 115.176 315.668 115.176C315.264 115.176 314.909 115.103 314.604 114.956C314.3 114.804 314.062 114.549 313.893 114.192C313.723 113.828 313.638 113.33 313.638 112.698V103.012ZM322.058 108.901V109.674H317.874V108.901H322.058ZM325.037 101.5V115H324.167V101.5H325.037ZM333.826 113.269V108.365C333.826 107.89 333.727 107.483 333.527 107.143C333.328 106.797 333.035 106.533 332.648 106.352C332.268 106.164 331.796 106.071 331.233 106.071C330.718 106.071 330.255 106.161 329.845 106.343C329.44 106.525 329.118 106.771 328.878 107.081C328.644 107.392 328.526 107.738 328.526 108.118L327.665 108.101C327.665 107.743 327.75 107.398 327.92 107.064C328.096 106.73 328.342 106.431 328.658 106.167C328.98 105.904 329.361 105.696 329.801 105.543C330.246 105.391 330.735 105.315 331.269 105.315C331.942 105.315 332.534 105.429 333.044 105.657C333.56 105.88 333.964 106.22 334.257 106.677C334.55 107.128 334.696 107.697 334.696 108.382V113.031C334.696 113.36 334.72 113.699 334.767 114.051C334.813 114.403 334.884 114.687 334.978 114.904V115H334.037C333.967 114.783 333.914 114.517 333.879 114.2C333.844 113.878 333.826 113.568 333.826 113.269ZM334.063 109.533L334.081 110.245H331.893C331.324 110.245 330.817 110.298 330.372 110.404C329.933 110.503 329.558 110.65 329.247 110.843C328.942 111.036 328.708 111.271 328.544 111.546C328.38 111.816 328.298 112.12 328.298 112.46C328.298 112.812 328.389 113.134 328.57 113.427C328.752 113.72 329.01 113.954 329.344 114.13C329.684 114.3 330.079 114.385 330.53 114.385C331.14 114.385 331.679 114.277 332.147 114.06C332.622 113.843 333.015 113.553 333.325 113.19C333.636 112.821 333.855 112.407 333.984 111.95L334.362 112.504C334.274 112.803 334.128 113.111 333.923 113.427C333.718 113.738 333.451 114.025 333.123 114.288C332.795 114.552 332.408 114.766 331.963 114.93C331.523 115.094 331.02 115.176 330.451 115.176C329.842 115.176 329.309 115.062 328.852 114.833C328.4 114.599 328.049 114.282 327.797 113.884C327.551 113.48 327.428 113.023 327.428 112.513C327.428 112.062 327.527 111.655 327.727 111.291C327.926 110.922 328.213 110.609 328.588 110.351C328.963 110.087 329.42 109.885 329.959 109.744C330.498 109.604 331.104 109.533 331.778 109.533H334.063ZM343.767 112.803V105.49H344.646V115H343.793L343.767 112.803ZM343.925 111.115L344.417 111.098C344.417 111.684 344.347 112.226 344.206 112.724C344.065 113.216 343.843 113.647 343.538 114.016C343.239 114.385 342.853 114.672 342.378 114.877C341.903 115.076 341.335 115.176 340.673 115.176C340.21 115.176 339.785 115.112 339.398 114.983C339.018 114.848 338.687 114.637 338.405 114.35C338.13 114.063 337.916 113.691 337.764 113.234C337.617 112.771 337.544 112.214 337.544 111.564V105.49H338.414V111.581C338.414 112.109 338.473 112.554 338.59 112.917C338.713 113.275 338.88 113.562 339.091 113.779C339.308 113.995 339.557 114.154 339.838 114.253C340.119 114.347 340.424 114.394 340.752 114.394C341.549 114.394 342.179 114.241 342.642 113.937C343.104 113.626 343.433 113.222 343.626 112.724C343.825 112.22 343.925 111.684 343.925 111.115ZM348.328 107.521V115H347.458V105.49H348.302L348.328 107.521ZM348.144 109.586L347.748 109.243C347.789 108.716 347.906 108.215 348.1 107.74C348.293 107.266 348.554 106.847 348.882 106.484C349.21 106.12 349.597 105.836 350.042 105.631C350.487 105.42 350.977 105.315 351.51 105.315C351.984 105.315 352.409 105.379 352.784 105.508C353.159 105.637 353.476 105.842 353.733 106.123C353.997 106.405 354.196 106.768 354.331 107.213C354.472 107.653 354.542 108.189 354.542 108.822V115H353.672V108.813C353.672 108.11 353.572 107.562 353.373 107.169C353.18 106.777 352.907 106.498 352.556 106.334C352.21 106.17 351.8 106.088 351.325 106.088C350.792 106.088 350.329 106.205 349.937 106.44C349.544 106.674 349.216 106.973 348.952 107.336C348.694 107.699 348.498 108.083 348.363 108.488C348.229 108.886 348.155 109.252 348.144 109.586ZM360.765 114.411C361.222 114.411 361.652 114.326 362.057 114.156C362.467 113.981 362.807 113.72 363.076 113.374C363.352 113.029 363.507 112.595 363.542 112.073H364.377C364.348 112.689 364.166 113.231 363.832 113.699C363.498 114.168 363.062 114.531 362.522 114.789C361.989 115.047 361.403 115.176 360.765 115.176C360.114 115.176 359.54 115.059 359.042 114.824C358.544 114.584 358.125 114.25 357.785 113.823C357.451 113.395 357.196 112.894 357.021 112.32C356.851 111.74 356.766 111.11 356.766 110.43V110.061C356.766 109.381 356.851 108.754 357.021 108.18C357.196 107.6 357.451 107.096 357.785 106.668C358.125 106.24 358.541 105.909 359.033 105.675C359.531 105.435 360.105 105.315 360.756 105.315C361.412 105.315 362.007 105.449 362.54 105.719C363.079 105.983 363.513 106.366 363.841 106.87C364.169 107.368 364.348 107.969 364.377 108.672H363.542C363.513 108.121 363.369 107.656 363.111 107.275C362.854 106.888 362.52 106.592 362.109 106.387C361.699 106.182 361.248 106.079 360.756 106.079C360.199 106.079 359.722 106.188 359.323 106.405C358.931 106.615 358.608 106.908 358.356 107.283C358.11 107.653 357.926 108.074 357.803 108.549C357.686 109.024 357.627 109.528 357.627 110.061V110.43C357.627 110.963 357.686 111.47 357.803 111.95C357.92 112.425 358.104 112.847 358.356 113.216C358.608 113.585 358.934 113.878 359.332 114.095C359.73 114.306 360.208 114.411 360.765 114.411ZM367.436 101.5V115H366.565V101.5H367.436ZM367.251 109.586L366.855 109.243C366.896 108.716 367.014 108.215 367.207 107.74C367.4 107.266 367.661 106.847 367.989 106.484C368.317 106.12 368.704 105.836 369.149 105.631C369.595 105.42 370.084 105.315 370.617 105.315C371.092 105.315 371.517 105.379 371.892 105.508C372.267 105.637 372.583 105.842 372.841 106.123C373.104 106.405 373.304 106.768 373.438 107.213C373.579 107.653 373.649 108.189 373.649 108.822V115H372.779V108.813C372.779 108.11 372.68 107.562 372.48 107.169C372.287 106.777 372.015 106.498 371.663 106.334C371.317 106.17 370.907 106.088 370.433 106.088C369.899 106.088 369.437 106.205 369.044 106.44C368.651 106.674 368.323 106.973 368.06 107.336C367.802 107.699 367.605 108.083 367.471 108.488C367.336 108.886 367.263 109.252 367.251 109.586ZM384.231 114.411C384.688 114.411 385.119 114.326 385.523 114.156C385.934 113.981 386.273 113.72 386.543 113.374C386.818 113.029 386.974 112.595 387.009 112.073H387.844C387.814 112.689 387.633 113.231 387.299 113.699C386.965 114.168 386.528 114.531 385.989 114.789C385.456 115.047 384.87 115.176 384.231 115.176C383.581 115.176 383.007 115.059 382.509 114.824C382.011 114.584 381.592 114.25 381.252 113.823C380.918 113.395 380.663 112.894 380.487 112.32C380.317 111.74 380.232 111.11 380.232 110.43V110.061C380.232 109.381 380.317 108.754 380.487 108.18C380.663 107.6 380.918 107.096 381.252 106.668C381.592 106.24 382.008 105.909 382.5 105.675C382.998 105.435 383.572 105.315 384.223 105.315C384.879 105.315 385.474 105.449 386.007 105.719C386.546 105.983 386.979 106.366 387.308 106.87C387.636 107.368 387.814 107.969 387.844 108.672H387.009C386.979 108.121 386.836 107.656 386.578 107.275C386.32 106.888 385.986 106.592 385.576 106.387C385.166 106.182 384.715 106.079 384.223 106.079C383.666 106.079 383.188 106.188 382.79 106.405C382.397 106.615 382.075 106.908 381.823 107.283C381.577 107.653 381.393 108.074 381.27 108.549C381.152 109.024 381.094 109.528 381.094 110.061V110.43C381.094 110.963 381.152 111.47 381.27 111.95C381.387 112.425 381.571 112.847 381.823 113.216C382.075 113.585 382.4 113.878 382.799 114.095C383.197 114.306 383.675 114.411 384.231 114.411ZM395.877 113.269V108.365C395.877 107.89 395.777 107.483 395.578 107.143C395.379 106.797 395.086 106.533 394.699 106.352C394.318 106.164 393.847 106.071 393.284 106.071C392.769 106.071 392.306 106.161 391.896 106.343C391.491 106.525 391.169 106.771 390.929 107.081C390.694 107.392 390.577 107.738 390.577 108.118L389.716 108.101C389.716 107.743 389.801 107.398 389.971 107.064C390.146 106.73 390.393 106.431 390.709 106.167C391.031 105.904 391.412 105.696 391.852 105.543C392.297 105.391 392.786 105.315 393.319 105.315C393.993 105.315 394.585 105.429 395.095 105.657C395.61 105.88 396.015 106.22 396.308 106.677C396.601 107.128 396.747 107.697 396.747 108.382V113.031C396.747 113.36 396.771 113.699 396.817 114.051C396.864 114.403 396.935 114.687 397.028 114.904V115H396.088C396.018 114.783 395.965 114.517 395.93 114.2C395.895 113.878 395.877 113.568 395.877 113.269ZM396.114 109.533L396.132 110.245H393.943C393.375 110.245 392.868 110.298 392.423 110.404C391.983 110.503 391.608 110.65 391.298 110.843C390.993 111.036 390.759 111.271 390.595 111.546C390.431 111.816 390.349 112.12 390.349 112.46C390.349 112.812 390.439 113.134 390.621 113.427C390.803 113.72 391.061 113.954 391.395 114.13C391.734 114.3 392.13 114.385 392.581 114.385C393.19 114.385 393.729 114.277 394.198 114.06C394.673 113.843 395.065 113.553 395.376 113.19C395.687 112.821 395.906 112.407 396.035 111.95L396.413 112.504C396.325 112.803 396.179 113.111 395.974 113.427C395.769 113.738 395.502 114.025 395.174 114.288C394.846 114.552 394.459 114.766 394.014 114.93C393.574 115.094 393.07 115.176 392.502 115.176C391.893 115.176 391.359 115.062 390.902 114.833C390.451 114.599 390.1 114.282 389.848 113.884C389.602 113.48 389.479 113.023 389.479 112.513C389.479 112.062 389.578 111.655 389.777 111.291C389.977 110.922 390.264 110.609 390.639 110.351C391.014 110.087 391.471 109.885 392.01 109.744C392.549 109.604 393.155 109.533 393.829 109.533H396.114ZM400.5 107.09V115H399.63V105.49H400.482L400.5 107.09ZM403.998 105.42L403.963 106.211C403.852 106.194 403.74 106.182 403.629 106.176C403.523 106.164 403.409 106.158 403.286 106.158C402.806 106.158 402.384 106.249 402.021 106.431C401.657 106.613 401.353 106.865 401.106 107.187C400.866 107.509 400.682 107.884 400.553 108.312C400.43 108.734 400.362 109.191 400.351 109.683L399.99 109.788C399.99 109.15 400.055 108.561 400.184 108.022C400.318 107.477 400.523 107.002 400.799 106.598C401.074 106.194 401.42 105.88 401.836 105.657C402.252 105.429 402.744 105.315 403.312 105.315C403.447 105.315 403.576 105.326 403.699 105.35C403.828 105.367 403.928 105.391 403.998 105.42ZM409.104 115.176C408.495 115.176 407.933 115.062 407.417 114.833C406.901 114.605 406.453 114.282 406.072 113.866C405.691 113.445 405.396 112.949 405.185 112.381C404.974 111.807 404.868 111.177 404.868 110.491V110.114C404.868 109.387 404.974 108.731 405.185 108.145C405.401 107.559 405.697 107.055 406.072 106.633C406.453 106.205 406.887 105.88 407.373 105.657C407.859 105.429 408.375 105.315 408.92 105.315C409.494 105.315 410.01 105.42 410.467 105.631C410.93 105.836 411.322 106.129 411.645 106.51C411.967 106.891 412.21 107.342 412.374 107.864C412.544 108.379 412.629 108.95 412.629 109.577V110.193H405.404V109.428H411.759V109.314C411.753 108.745 411.639 108.218 411.416 107.732C411.199 107.24 410.88 106.841 410.458 106.536C410.042 106.232 409.529 106.079 408.92 106.079C408.445 106.079 408.012 106.182 407.619 106.387C407.232 106.586 406.898 106.867 406.617 107.231C406.336 107.588 406.119 108.013 405.967 108.505C405.814 108.991 405.738 109.528 405.738 110.114V110.491C405.738 111.036 405.82 111.546 405.984 112.021C406.154 112.495 406.389 112.911 406.688 113.269C406.992 113.626 407.353 113.907 407.769 114.113C408.185 114.318 408.639 114.42 409.131 114.42C409.688 114.42 410.188 114.321 410.634 114.121C411.079 113.916 411.483 113.579 411.847 113.111L412.4 113.532C412.195 113.837 411.94 114.115 411.636 114.367C411.331 114.614 410.971 114.81 410.555 114.956C410.139 115.103 409.655 115.176 409.104 115.176ZM422.578 105.49V106.238H417.92V105.49H422.578ZM419.669 103.012H420.548V112.698C420.548 113.172 420.606 113.532 420.724 113.779C420.847 114.019 421.008 114.18 421.207 114.262C421.406 114.344 421.62 114.385 421.849 114.385C422.013 114.385 422.165 114.376 422.306 114.359C422.452 114.341 422.593 114.321 422.728 114.297L422.78 115.044C422.651 115.085 422.484 115.117 422.279 115.141C422.074 115.164 421.881 115.176 421.699 115.176C421.295 115.176 420.94 115.103 420.636 114.956C420.331 114.804 420.094 114.549 419.924 114.192C419.754 113.828 419.669 113.33 419.669 112.698V103.012ZM424.063 110.404V110.087C424.063 109.396 424.163 108.76 424.362 108.18C424.562 107.594 424.846 107.087 425.215 106.659C425.584 106.232 426.026 105.901 426.542 105.666C427.063 105.432 427.641 105.315 428.273 105.315C428.912 105.315 429.489 105.432 430.005 105.666C430.526 105.901 430.972 106.232 431.341 106.659C431.716 107.087 432.003 107.594 432.202 108.18C432.401 108.76 432.501 109.396 432.501 110.087V110.404C432.501 111.095 432.401 111.734 432.202 112.32C432.003 112.9 431.716 113.404 431.341 113.831C430.972 114.259 430.529 114.59 430.014 114.824C429.498 115.059 428.924 115.176 428.291 115.176C427.652 115.176 427.072 115.059 426.551 114.824C426.035 114.59 425.59 114.259 425.215 113.831C424.846 113.404 424.562 112.9 424.362 112.32C424.163 111.734 424.063 111.095 424.063 110.404ZM424.925 110.087V110.404C424.925 110.937 424.998 111.447 425.145 111.933C425.297 112.413 425.514 112.841 425.795 113.216C426.082 113.585 426.434 113.878 426.85 114.095C427.271 114.306 427.752 114.411 428.291 114.411C428.824 114.411 429.296 114.306 429.706 114.095C430.122 113.878 430.471 113.585 430.752 113.216C431.039 112.841 431.256 112.413 431.402 111.933C431.555 111.447 431.631 110.937 431.631 110.404V110.087C431.631 109.566 431.555 109.065 431.402 108.584C431.256 108.104 431.039 107.676 430.752 107.301C430.465 106.926 430.113 106.63 429.697 106.413C429.281 106.191 428.807 106.079 428.273 106.079C427.74 106.079 427.266 106.191 426.85 106.413C426.434 106.63 426.082 106.926 425.795 107.301C425.508 107.676 425.291 108.104 425.145 108.584C424.998 109.065 424.925 109.566 424.925 110.087ZM439.945 101.5V115H439.075V101.5H439.945ZM445.966 105.49L441.422 109.894L439.664 111.546L439.506 110.729L440.982 109.191L444.841 105.49H445.966ZM445.228 115L441.079 109.929L441.571 109.191L446.291 115H445.228ZM451.239 115.176C450.63 115.176 450.067 115.062 449.552 114.833C449.036 114.605 448.588 114.282 448.207 113.866C447.826 113.445 447.53 112.949 447.319 112.381C447.108 111.807 447.003 111.177 447.003 110.491V110.114C447.003 109.387 447.108 108.731 447.319 108.145C447.536 107.559 447.832 107.055 448.207 106.633C448.588 106.205 449.021 105.88 449.508 105.657C449.994 105.429 450.51 105.315 451.055 105.315C451.629 105.315 452.145 105.42 452.602 105.631C453.064 105.836 453.457 106.129 453.779 106.51C454.102 106.891 454.345 107.342 454.509 107.864C454.679 108.379 454.764 108.95 454.764 109.577V110.193H447.539V109.428H453.894V109.314C453.888 108.745 453.773 108.218 453.551 107.732C453.334 107.24 453.015 106.841 452.593 106.536C452.177 106.232 451.664 106.079 451.055 106.079C450.58 106.079 450.146 106.182 449.754 106.387C449.367 106.586 449.033 106.867 448.752 107.231C448.471 107.588 448.254 108.013 448.102 108.505C447.949 108.991 447.873 109.528 447.873 110.114V110.491C447.873 111.036 447.955 111.546 448.119 112.021C448.289 112.495 448.523 112.911 448.822 113.269C449.127 113.626 449.487 113.907 449.903 114.113C450.319 114.318 450.773 114.42 451.266 114.42C451.822 114.42 452.323 114.321 452.769 114.121C453.214 113.916 453.618 113.579 453.981 113.111L454.535 113.532C454.33 113.837 454.075 114.115 453.771 114.367C453.466 114.614 453.105 114.81 452.689 114.956C452.273 115.103 451.79 115.176 451.239 115.176ZM460.468 115.176C459.858 115.176 459.296 115.062 458.78 114.833C458.265 114.605 457.816 114.282 457.436 113.866C457.055 113.445 456.759 112.949 456.548 112.381C456.337 111.807 456.231 111.177 456.231 110.491V110.114C456.231 109.387 456.337 108.731 456.548 108.145C456.765 107.559 457.061 107.055 457.436 106.633C457.816 106.205 458.25 105.88 458.736 105.657C459.223 105.429 459.738 105.315 460.283 105.315C460.857 105.315 461.373 105.42 461.83 105.631C462.293 105.836 462.686 106.129 463.008 106.51C463.33 106.891 463.573 107.342 463.737 107.864C463.907 108.379 463.992 108.95 463.992 109.577V110.193H456.768V109.428H463.122V109.314C463.116 108.745 463.002 108.218 462.779 107.732C462.562 107.24 462.243 106.841 461.821 106.536C461.405 106.232 460.893 106.079 460.283 106.079C459.809 106.079 459.375 106.182 458.982 106.387C458.596 106.586 458.262 106.867 457.98 107.231C457.699 107.588 457.482 108.013 457.33 108.505C457.178 108.991 457.102 109.528 457.102 110.114V110.491C457.102 111.036 457.184 111.546 457.348 112.021C457.518 112.495 457.752 112.911 458.051 113.269C458.355 113.626 458.716 113.907 459.132 114.113C459.548 114.318 460.002 114.42 460.494 114.42C461.051 114.42 461.552 114.321 461.997 114.121C462.442 113.916 462.847 113.579 463.21 113.111L463.764 113.532C463.559 113.837 463.304 114.115 462.999 114.367C462.694 114.614 462.334 114.81 461.918 114.956C461.502 115.103 461.019 115.176 460.468 115.176ZM466.954 107.319V118.656H466.084V105.49H466.901L466.954 107.319ZM473.625 110.157V110.342C473.625 111.057 473.543 111.71 473.379 112.302C473.221 112.888 472.986 113.398 472.676 113.831C472.371 114.259 471.993 114.59 471.542 114.824C471.097 115.059 470.587 115.176 470.013 115.176C469.456 115.176 468.958 115.094 468.519 114.93C468.079 114.76 467.701 114.523 467.385 114.218C467.068 113.907 466.813 113.547 466.62 113.137C466.427 112.727 466.295 112.284 466.225 111.81V108.927C466.318 108.394 466.465 107.907 466.664 107.468C466.863 107.029 467.118 106.648 467.429 106.325C467.739 106.003 468.108 105.754 468.536 105.578C468.964 105.403 469.45 105.315 469.995 105.315C470.569 105.315 471.082 105.429 471.533 105.657C471.984 105.88 472.365 106.202 472.676 106.624C472.986 107.046 473.221 107.556 473.379 108.154C473.543 108.745 473.625 109.413 473.625 110.157ZM472.746 110.342V110.157C472.746 109.577 472.688 109.041 472.57 108.549C472.453 108.057 472.274 107.629 472.034 107.266C471.8 106.897 471.498 106.61 471.129 106.405C470.766 106.199 470.335 106.097 469.837 106.097C469.304 106.097 468.85 106.185 468.475 106.361C468.105 106.536 467.801 106.768 467.561 107.055C467.326 107.336 467.139 107.641 466.998 107.969C466.863 108.297 466.764 108.614 466.699 108.918V111.889C466.811 112.346 466.995 112.765 467.253 113.146C467.511 113.527 467.854 113.834 468.281 114.069C468.715 114.297 469.239 114.411 469.854 114.411C470.347 114.411 470.774 114.309 471.138 114.104C471.501 113.893 471.8 113.606 472.034 113.242C472.274 112.873 472.453 112.443 472.57 111.95C472.688 111.452 472.746 110.916 472.746 110.342ZM483.275 114.06L486.343 105.49H487.283L483.196 116.547C483.114 116.758 483.012 116.992 482.889 117.25C482.771 117.514 482.613 117.766 482.414 118.006C482.221 118.252 481.975 118.451 481.676 118.604C481.383 118.762 481.02 118.841 480.586 118.841C480.48 118.841 480.343 118.829 480.173 118.806C480.003 118.782 479.883 118.756 479.812 118.727L479.804 117.989C479.874 118.006 479.974 118.021 480.103 118.032C480.231 118.044 480.322 118.05 480.375 118.05C480.756 118.05 481.075 117.98 481.333 117.839C481.597 117.698 481.816 117.496 481.992 117.233C482.168 116.969 482.323 116.65 482.458 116.275L483.275 114.06ZM480.252 105.49L483.46 113.902L483.706 114.798L483.056 115.185L479.303 105.49H480.252ZM488.224 110.404V110.087C488.224 109.396 488.323 108.76 488.522 108.18C488.722 107.594 489.006 107.087 489.375 106.659C489.744 106.232 490.187 105.901 490.702 105.666C491.224 105.432 491.801 105.315 492.434 105.315C493.072 105.315 493.649 105.432 494.165 105.666C494.687 105.901 495.132 106.232 495.501 106.659C495.876 107.087 496.163 107.594 496.362 108.18C496.562 108.76 496.661 109.396 496.661 110.087V110.404C496.661 111.095 496.562 111.734 496.362 112.32C496.163 112.9 495.876 113.404 495.501 113.831C495.132 114.259 494.689 114.59 494.174 114.824C493.658 115.059 493.084 115.176 492.451 115.176C491.812 115.176 491.232 115.059 490.711 114.824C490.195 114.59 489.75 114.259 489.375 113.831C489.006 113.404 488.722 112.9 488.522 112.32C488.323 111.734 488.224 111.095 488.224 110.404ZM489.085 110.087V110.404C489.085 110.937 489.158 111.447 489.305 111.933C489.457 112.413 489.674 112.841 489.955 113.216C490.242 113.585 490.594 113.878 491.01 114.095C491.432 114.306 491.912 114.411 492.451 114.411C492.984 114.411 493.456 114.306 493.866 114.095C494.282 113.878 494.631 113.585 494.912 113.216C495.199 112.841 495.416 112.413 495.562 111.933C495.715 111.447 495.791 110.937 495.791 110.404V110.087C495.791 109.566 495.715 109.065 495.562 108.584C495.416 108.104 495.199 107.676 494.912 107.301C494.625 106.926 494.273 106.63 493.857 106.413C493.441 106.191 492.967 106.079 492.434 106.079C491.9 106.079 491.426 106.191 491.01 106.413C490.594 106.63 490.242 106.926 489.955 107.301C489.668 107.676 489.451 108.104 489.305 108.584C489.158 109.065 489.085 109.566 489.085 110.087ZM505.063 112.803V105.49H505.942V115H505.09L505.063 112.803ZM505.222 111.115L505.714 111.098C505.714 111.684 505.644 112.226 505.503 112.724C505.362 113.216 505.14 113.647 504.835 114.016C504.536 114.385 504.149 114.672 503.675 114.877C503.2 115.076 502.632 115.176 501.97 115.176C501.507 115.176 501.082 115.112 500.695 114.983C500.314 114.848 499.983 114.637 499.702 114.35C499.427 114.063 499.213 113.691 499.061 113.234C498.914 112.771 498.841 112.214 498.841 111.564V105.49H499.711V111.581C499.711 112.109 499.77 112.554 499.887 112.917C500.01 113.275 500.177 113.562 500.388 113.779C500.604 113.995 500.854 114.154 501.135 114.253C501.416 114.347 501.721 114.394 502.049 114.394C502.846 114.394 503.476 114.241 503.938 113.937C504.401 113.626 504.729 113.222 504.923 112.724C505.122 112.22 505.222 111.684 505.222 111.115ZM509.625 107.09V115H508.755V105.49H509.607L509.625 107.09ZM513.123 105.42L513.088 106.211C512.977 106.194 512.865 106.182 512.754 106.176C512.648 106.164 512.534 106.158 512.411 106.158C511.931 106.158 511.509 106.249 511.146 106.431C510.782 106.613 510.478 106.865 510.231 107.187C509.991 107.509 509.807 107.884 509.678 108.312C509.555 108.734 509.487 109.191 509.476 109.683L509.115 109.788C509.115 109.15 509.18 108.561 509.309 108.022C509.443 107.477 509.648 107.002 509.924 106.598C510.199 106.194 510.545 105.88 510.961 105.657C511.377 105.429 511.869 105.315 512.438 105.315C512.572 105.315 512.701 105.326 512.824 105.35C512.953 105.367 513.053 105.391 513.123 105.42ZM520.022 107.319V118.656H519.152V105.49H519.97L520.022 107.319ZM526.693 110.157V110.342C526.693 111.057 526.611 111.71 526.447 112.302C526.289 112.888 526.055 113.398 525.744 113.831C525.439 114.259 525.062 114.59 524.61 114.824C524.165 115.059 523.655 115.176 523.081 115.176C522.524 115.176 522.026 115.094 521.587 114.93C521.147 114.76 520.77 114.523 520.453 114.218C520.137 113.907 519.882 113.547 519.688 113.137C519.495 112.727 519.363 112.284 519.293 111.81V108.927C519.387 108.394 519.533 107.907 519.732 107.468C519.932 107.029 520.187 106.648 520.497 106.325C520.808 106.003 521.177 105.754 521.604 105.578C522.032 105.403 522.519 105.315 523.063 105.315C523.638 105.315 524.15 105.429 524.602 105.657C525.053 105.88 525.434 106.202 525.744 106.624C526.055 107.046 526.289 107.556 526.447 108.154C526.611 108.745 526.693 109.413 526.693 110.157ZM525.814 110.342V110.157C525.814 109.577 525.756 109.041 525.639 108.549C525.521 108.057 525.343 107.629 525.103 107.266C524.868 106.897 524.566 106.61 524.197 106.405C523.834 106.199 523.403 106.097 522.905 106.097C522.372 106.097 521.918 106.185 521.543 106.361C521.174 106.536 520.869 106.768 520.629 107.055C520.395 107.336 520.207 107.641 520.066 107.969C519.932 108.297 519.832 108.614 519.768 108.918V111.889C519.879 112.346 520.063 112.765 520.321 113.146C520.579 113.527 520.922 113.834 521.35 114.069C521.783 114.297 522.308 114.411 522.923 114.411C523.415 114.411 523.843 114.309 524.206 114.104C524.569 113.893 524.868 113.606 525.103 113.242C525.343 112.873 525.521 112.443 525.639 111.95C525.756 111.452 525.814 110.916 525.814 110.342ZM529.98 107.09V115H529.11V105.49H529.963L529.98 107.09ZM533.479 105.42L533.443 106.211C533.332 106.194 533.221 106.182 533.109 106.176C533.004 106.164 532.89 106.158 532.767 106.158C532.286 106.158 531.864 106.249 531.501 106.431C531.138 106.613 530.833 106.865 530.587 107.187C530.347 107.509 530.162 107.884 530.033 108.312C529.91 108.734 529.843 109.191 529.831 109.683L529.471 109.788C529.471 109.15 529.535 108.561 529.664 108.022C529.799 107.477 530.004 107.002 530.279 106.598C530.555 106.194 530.9 105.88 531.316 105.657C531.732 105.429 532.225 105.315 532.793 105.315C532.928 105.315 533.057 105.326 533.18 105.35C533.309 105.367 533.408 105.391 533.479 105.42ZM534.366 110.404V110.087C534.366 109.396 534.466 108.76 534.665 108.18C534.864 107.594 535.148 107.087 535.518 106.659C535.887 106.232 536.329 105.901 536.845 105.666C537.366 105.432 537.943 105.315 538.576 105.315C539.215 105.315 539.792 105.432 540.308 105.666C540.829 105.901 541.274 106.232 541.644 106.659C542.019 107.087 542.306 107.594 542.505 108.18C542.704 108.76 542.804 109.396 542.804 110.087V110.404C542.804 111.095 542.704 111.734 542.505 112.32C542.306 112.9 542.019 113.404 541.644 113.831C541.274 114.259 540.832 114.59 540.316 114.824C539.801 115.059 539.227 115.176 538.594 115.176C537.955 115.176 537.375 115.059 536.854 114.824C536.338 114.59 535.893 114.259 535.518 113.831C535.148 113.404 534.864 112.9 534.665 112.32C534.466 111.734 534.366 111.095 534.366 110.404ZM535.228 110.087V110.404C535.228 110.937 535.301 111.447 535.447 111.933C535.6 112.413 535.816 112.841 536.098 113.216C536.385 113.585 536.736 113.878 537.152 114.095C537.574 114.306 538.055 114.411 538.594 114.411C539.127 114.411 539.599 114.306 540.009 114.095C540.425 113.878 540.773 113.585 541.055 113.216C541.342 112.841 541.559 112.413 541.705 111.933C541.857 111.447 541.934 110.937 541.934 110.404V110.087C541.934 109.566 541.857 109.065 541.705 108.584C541.559 108.104 541.342 107.676 541.055 107.301C540.768 106.926 540.416 106.63 540 106.413C539.584 106.191 539.109 106.079 538.576 106.079C538.043 106.079 537.568 106.191 537.152 106.413C536.736 106.63 536.385 106.926 536.098 107.301C535.811 107.676 535.594 108.104 535.447 108.584C535.301 109.065 535.228 109.566 535.228 110.087ZM551.268 113.155V101.5H552.138V115H551.312L551.268 113.155ZM544.597 110.342V110.157C544.597 109.413 544.679 108.745 544.843 108.154C545.013 107.556 545.256 107.046 545.572 106.624C545.889 106.202 546.27 105.88 546.715 105.657C547.166 105.429 547.676 105.315 548.244 105.315C548.789 105.315 549.272 105.403 549.694 105.578C550.116 105.754 550.479 106.003 550.784 106.325C551.089 106.648 551.338 107.029 551.531 107.468C551.725 107.907 551.868 108.394 551.962 108.927V111.757C551.892 112.243 551.76 112.695 551.566 113.111C551.379 113.527 551.13 113.89 550.819 114.2C550.515 114.511 550.146 114.751 549.712 114.921C549.278 115.091 548.783 115.176 548.227 115.176C547.664 115.176 547.157 115.059 546.706 114.824C546.261 114.59 545.88 114.259 545.563 113.831C545.253 113.398 545.013 112.888 544.843 112.302C544.679 111.71 544.597 111.057 544.597 110.342ZM545.476 110.157V110.342C545.476 110.916 545.534 111.452 545.651 111.95C545.769 112.443 545.944 112.87 546.179 113.234C546.413 113.597 546.712 113.881 547.075 114.086C547.438 114.291 547.866 114.394 548.358 114.394C548.979 114.394 549.504 114.28 549.932 114.051C550.359 113.817 550.702 113.506 550.96 113.119C551.218 112.733 551.402 112.308 551.514 111.845V108.918C551.443 108.614 551.341 108.297 551.206 107.969C551.071 107.641 550.884 107.336 550.644 107.055C550.403 106.768 550.099 106.536 549.729 106.361C549.36 106.185 548.909 106.097 548.376 106.097C547.878 106.097 547.447 106.199 547.084 106.405C546.721 106.61 546.419 106.897 546.179 107.266C545.944 107.629 545.769 108.057 545.651 108.549C545.534 109.041 545.476 109.577 545.476 110.157ZM561.173 112.803V105.49H562.052V115H561.199L561.173 112.803ZM561.331 111.115L561.823 111.098C561.823 111.684 561.753 112.226 561.612 112.724C561.472 113.216 561.249 113.647 560.944 114.016C560.646 114.385 560.259 114.672 559.784 114.877C559.31 115.076 558.741 115.176 558.079 115.176C557.616 115.176 557.191 115.112 556.805 114.983C556.424 114.848 556.093 114.637 555.812 114.35C555.536 114.063 555.322 113.691 555.17 113.234C555.023 112.771 554.95 112.214 554.95 111.564V105.49H555.82V111.581C555.82 112.109 555.879 112.554 555.996 112.917C556.119 113.275 556.286 113.562 556.497 113.779C556.714 113.995 556.963 114.154 557.244 114.253C557.525 114.347 557.83 114.394 558.158 114.394C558.955 114.394 559.585 114.241 560.048 113.937C560.511 113.626 560.839 113.222 561.032 112.724C561.231 112.22 561.331 111.684 561.331 111.115ZM568.292 114.411C568.749 114.411 569.18 114.326 569.584 114.156C569.994 113.981 570.334 113.72 570.604 113.374C570.879 113.029 571.034 112.595 571.069 112.073H571.904C571.875 112.689 571.693 113.231 571.359 113.699C571.025 114.168 570.589 114.531 570.05 114.789C569.517 115.047 568.931 115.176 568.292 115.176C567.642 115.176 567.067 115.059 566.569 114.824C566.071 114.584 565.652 114.25 565.312 113.823C564.979 113.395 564.724 112.894 564.548 112.32C564.378 111.74 564.293 111.11 564.293 110.43V110.061C564.293 109.381 564.378 108.754 564.548 108.18C564.724 107.6 564.979 107.096 565.312 106.668C565.652 106.24 566.068 105.909 566.561 105.675C567.059 105.435 567.633 105.315 568.283 105.315C568.939 105.315 569.534 105.449 570.067 105.719C570.606 105.983 571.04 106.366 571.368 106.87C571.696 107.368 571.875 107.969 571.904 108.672H571.069C571.04 108.121 570.896 107.656 570.639 107.275C570.381 106.888 570.047 106.592 569.637 106.387C569.227 106.182 568.775 106.079 568.283 106.079C567.727 106.079 567.249 106.188 566.851 106.405C566.458 106.615 566.136 106.908 565.884 107.283C565.638 107.653 565.453 108.074 565.33 108.549C565.213 109.024 565.154 109.528 565.154 110.061V110.43C565.154 110.963 565.213 111.47 565.33 111.95C565.447 112.425 565.632 112.847 565.884 113.216C566.136 113.585 566.461 113.878 566.859 114.095C567.258 114.306 567.735 114.411 568.292 114.411ZM577.582 105.49V106.238H572.924V105.49H577.582ZM574.673 103.012H575.552V112.698C575.552 113.172 575.61 113.532 575.728 113.779C575.851 114.019 576.012 114.18 576.211 114.262C576.41 114.344 576.624 114.385 576.853 114.385C577.017 114.385 577.169 114.376 577.31 114.359C577.456 114.341 577.597 114.321 577.731 114.297L577.784 115.044C577.655 115.085 577.488 115.117 577.283 115.141C577.078 115.164 576.885 115.176 576.703 115.176C576.299 115.176 575.944 115.103 575.64 114.956C575.335 114.804 575.098 114.549 574.928 114.192C574.758 113.828 574.673 113.33 574.673 112.698V103.012ZM589.975 112.601C589.975 112.337 589.904 112.073 589.764 111.81C589.623 111.54 589.362 111.294 588.981 111.072C588.601 110.843 588.044 110.653 587.312 110.5C586.784 110.383 586.315 110.254 585.905 110.114C585.495 109.967 585.149 109.791 584.868 109.586C584.593 109.381 584.382 109.138 584.235 108.857C584.095 108.57 584.024 108.233 584.024 107.846C584.024 107.494 584.101 107.166 584.253 106.862C584.405 106.557 584.625 106.29 584.912 106.062C585.199 105.827 585.545 105.646 585.949 105.517C586.359 105.382 586.819 105.315 587.329 105.315C588.056 105.315 588.677 105.438 589.192 105.684C589.708 105.924 590.104 106.255 590.379 106.677C590.66 107.099 590.801 107.579 590.801 108.118H589.931C589.931 107.767 589.828 107.439 589.623 107.134C589.424 106.823 589.131 106.572 588.744 106.378C588.357 106.179 587.886 106.079 587.329 106.079C586.749 106.079 586.28 106.167 585.923 106.343C585.565 106.519 585.305 106.739 585.141 107.002C584.977 107.266 584.895 107.538 584.895 107.82C584.895 108.042 584.927 108.244 584.991 108.426C585.062 108.608 585.19 108.778 585.378 108.936C585.565 109.094 585.832 109.243 586.178 109.384C586.529 109.519 586.983 109.651 587.54 109.78C588.308 109.949 588.932 110.157 589.412 110.404C589.898 110.644 590.256 110.94 590.484 111.291C590.719 111.643 590.836 112.068 590.836 112.566C590.836 112.952 590.754 113.307 590.59 113.629C590.432 113.946 590.2 114.221 589.896 114.455C589.597 114.684 589.233 114.863 588.806 114.991C588.384 115.115 587.912 115.176 587.391 115.176C586.594 115.176 585.923 115.047 585.378 114.789C584.833 114.531 584.42 114.192 584.139 113.77C583.857 113.348 583.717 112.894 583.717 112.407H584.587C584.622 112.917 584.783 113.319 585.07 113.612C585.363 113.905 585.718 114.113 586.134 114.236C586.556 114.353 586.975 114.411 587.391 114.411C587.953 114.411 588.425 114.326 588.806 114.156C589.192 113.981 589.482 113.755 589.676 113.48C589.875 113.204 589.975 112.911 589.975 112.601ZM594.158 101.5V115H593.288V101.5H594.158ZM593.974 109.586L593.578 109.243C593.619 108.716 593.736 108.215 593.93 107.74C594.123 107.266 594.384 106.847 594.712 106.484C595.04 106.12 595.427 105.836 595.872 105.631C596.317 105.42 596.807 105.315 597.34 105.315C597.814 105.315 598.239 105.379 598.614 105.508C598.989 105.637 599.306 105.842 599.563 106.123C599.827 106.405 600.026 106.768 600.161 107.213C600.302 107.653 600.372 108.189 600.372 108.822V115H599.502V108.813C599.502 108.11 599.402 107.562 599.203 107.169C599.01 106.777 598.737 106.498 598.386 106.334C598.04 106.17 597.63 106.088 597.155 106.088C596.622 106.088 596.159 106.205 595.767 106.44C595.374 106.674 595.046 106.973 594.782 107.336C594.524 107.699 594.328 108.083 594.193 108.488C594.059 108.886 593.985 109.252 593.974 109.586ZM609.012 113.269V108.365C609.012 107.89 608.912 107.483 608.713 107.143C608.514 106.797 608.221 106.533 607.834 106.352C607.453 106.164 606.981 106.071 606.419 106.071C605.903 106.071 605.44 106.161 605.03 106.343C604.626 106.525 604.304 106.771 604.063 107.081C603.829 107.392 603.712 107.738 603.712 108.118L602.851 108.101C602.851 107.743 602.936 107.398 603.105 107.064C603.281 106.73 603.527 106.431 603.844 106.167C604.166 105.904 604.547 105.696 604.986 105.543C605.432 105.391 605.921 105.315 606.454 105.315C607.128 105.315 607.72 105.429 608.229 105.657C608.745 105.88 609.149 106.22 609.442 106.677C609.735 107.128 609.882 107.697 609.882 108.382V113.031C609.882 113.36 609.905 113.699 609.952 114.051C609.999 114.403 610.069 114.687 610.163 114.904V115H609.223C609.152 114.783 609.1 114.517 609.064 114.2C609.029 113.878 609.012 113.568 609.012 113.269ZM609.249 109.533L609.267 110.245H607.078C606.51 110.245 606.003 110.298 605.558 110.404C605.118 110.503 604.743 110.65 604.433 110.843C604.128 111.036 603.894 111.271 603.729 111.546C603.565 111.816 603.483 112.12 603.483 112.46C603.483 112.812 603.574 113.134 603.756 113.427C603.938 113.72 604.195 113.954 604.529 114.13C604.869 114.3 605.265 114.385 605.716 114.385C606.325 114.385 606.864 114.277 607.333 114.06C607.808 113.843 608.2 113.553 608.511 113.19C608.821 112.821 609.041 112.407 609.17 111.95L609.548 112.504C609.46 112.803 609.313 113.111 609.108 113.427C608.903 113.738 608.637 114.025 608.309 114.288C607.98 114.552 607.594 114.766 607.148 114.93C606.709 115.094 606.205 115.176 605.637 115.176C605.027 115.176 604.494 115.062 604.037 114.833C603.586 114.599 603.234 114.282 602.982 113.884C602.736 113.48 602.613 113.023 602.613 112.513C602.613 112.062 602.713 111.655 602.912 111.291C603.111 110.922 603.398 110.609 603.773 110.351C604.148 110.087 604.605 109.885 605.145 109.744C605.684 109.604 606.29 109.533 606.964 109.533H609.249ZM613.635 107.09V115H612.765V105.49H613.617L613.635 107.09ZM617.133 105.42L617.098 106.211C616.986 106.194 616.875 106.182 616.764 106.176C616.658 106.164 616.544 106.158 616.421 106.158C615.94 106.158 615.519 106.249 615.155 106.431C614.792 106.613 614.487 106.865 614.241 107.187C614.001 107.509 613.816 107.884 613.688 108.312C613.564 108.734 613.497 109.191 613.485 109.683L613.125 109.788C613.125 109.15 613.189 108.561 613.318 108.022C613.453 107.477 613.658 107.002 613.934 106.598C614.209 106.194 614.555 105.88 614.971 105.657C615.387 105.429 615.879 105.315 616.447 105.315C616.582 105.315 616.711 105.326 616.834 105.35C616.963 105.367 617.062 105.391 617.133 105.42ZM619.673 107.319V118.656H618.803V105.49H619.62L619.673 107.319ZM626.344 110.157V110.342C626.344 111.057 626.262 111.71 626.098 112.302C625.939 112.888 625.705 113.398 625.395 113.831C625.09 114.259 624.712 114.59 624.261 114.824C623.815 115.059 623.306 115.176 622.731 115.176C622.175 115.176 621.677 115.094 621.237 114.93C620.798 114.76 620.42 114.523 620.104 114.218C619.787 113.907 619.532 113.547 619.339 113.137C619.146 112.727 619.014 112.284 618.943 111.81V108.927C619.037 108.394 619.184 107.907 619.383 107.468C619.582 107.029 619.837 106.648 620.147 106.325C620.458 106.003 620.827 105.754 621.255 105.578C621.683 105.403 622.169 105.315 622.714 105.315C623.288 105.315 623.801 105.429 624.252 105.657C624.703 105.88 625.084 106.202 625.395 106.624C625.705 107.046 625.939 107.556 626.098 108.154C626.262 108.745 626.344 109.413 626.344 110.157ZM625.465 110.342V110.157C625.465 109.577 625.406 109.041 625.289 108.549C625.172 108.057 624.993 107.629 624.753 107.266C624.519 106.897 624.217 106.61 623.848 106.405C623.484 106.199 623.054 106.097 622.556 106.097C622.022 106.097 621.568 106.185 621.193 106.361C620.824 106.536 620.52 106.768 620.279 107.055C620.045 107.336 619.857 107.641 619.717 107.969C619.582 108.297 619.482 108.614 619.418 108.918V111.889C619.529 112.346 619.714 112.765 619.972 113.146C620.229 113.527 620.572 113.834 621 114.069C621.434 114.297 621.958 114.411 622.573 114.411C623.065 114.411 623.493 114.309 623.856 114.104C624.22 113.893 624.519 113.606 624.753 113.242C624.993 112.873 625.172 112.443 625.289 111.95C625.406 111.452 625.465 110.916 625.465 110.342Z" fill="white"/>
<mask id="path-7-outside-1_446_240" maskUnits="userSpaceOnUse" x="0" y="48.0002" width="61" height="83" fill="black">
<rect fill="white" y="48.0002" width="61" height="83"/>
<path d="M19.9531 93.3108L6.86719 90.2346L11.1641 53.9065H52.7168V66.6995H24.5918L22.9805 80.8108C23.7617 80.3551 25.0801 79.818 26.9355 79.1995C28.8236 78.5484 30.9069 78.2229 33.1855 78.2229C36.7012 78.2229 39.8099 78.76 42.5117 79.8342C45.2461 80.8759 47.5573 82.4221 49.4453 84.4729C51.3333 86.4911 52.7493 88.9814 53.6934 91.9436C54.6699 94.9058 55.1582 98.2913 55.1582 102.1C55.1582 105.16 54.6536 108.122 53.6445 110.987C52.668 113.819 51.1543 116.374 49.1035 118.653C47.0853 120.899 44.5299 122.689 41.4375 124.024C38.3451 125.326 34.6829 125.977 30.4512 125.977C27.2936 125.977 24.2174 125.489 21.2227 124.512C18.2279 123.535 15.526 122.136 13.1172 120.313C10.7409 118.457 8.85286 116.227 7.45312 113.623C6.08594 110.987 5.41862 108.041 5.45117 104.785H22.0039C22.1016 106.511 22.5085 108.008 23.2246 109.278C23.9408 110.547 24.901 111.54 26.1055 112.256C27.3424 112.94 28.7585 113.281 30.3535 113.281C31.9811 113.281 33.332 112.956 34.4062 112.305C35.4805 111.654 36.3268 110.759 36.9453 109.619C37.5638 108.48 38.0033 107.178 38.2637 105.713C38.5241 104.216 38.6543 102.637 38.6543 100.977C38.6543 99.219 38.459 97.6402 38.0684 96.2405C37.7103 94.8407 37.1243 93.6526 36.3105 92.676C35.4967 91.6669 34.4388 90.9019 33.1367 90.3811C31.8672 89.8603 30.3372 89.5999 28.5469 89.5999C26.1706 89.5999 24.2988 90.0068 22.9316 90.8206C21.5645 91.6344 20.5716 92.4644 19.9531 93.3108Z"/>
</mask>
<path d="M19.9531 93.3108L18.8089 98.1781L22.0349 98.9364L23.9901 96.2609L19.9531 93.3108ZM6.86719 90.2346L1.9018 89.6473L1.37745 94.0804L5.723 95.1019L6.86719 90.2346ZM11.1641 53.9065V48.9065H6.72061L6.19867 53.3192L11.1641 53.9065ZM52.7168 53.9065H57.7168V48.9065H52.7168V53.9065ZM52.7168 66.6995V71.6995H57.7168V66.6995H52.7168ZM24.5918 66.6995V61.6995H20.1302L19.6241 66.1322L24.5918 66.6995ZM22.9805 80.8108L18.0128 80.2435L16.8807 90.1575L25.4998 85.1297L22.9805 80.8108ZM26.9355 79.1995L28.5167 83.9429L28.5411 83.9347L28.5655 83.9263L26.9355 79.1995ZM42.5117 79.8342L40.6644 84.4805L40.698 84.4938L40.7317 84.5067L42.5117 79.8342ZM49.4453 84.4729L45.7668 87.8594L45.7803 87.8741L45.794 87.8887L49.4453 84.4729ZM53.6934 91.9436L48.9294 93.4618L48.937 93.4855L48.9448 93.5091L53.6934 91.9436ZM53.6445 110.987L48.9286 109.325L48.9231 109.341L48.9177 109.357L53.6445 110.987ZM49.1035 118.653L45.387 115.308L45.3844 115.311L49.1035 118.653ZM41.4375 124.024L43.3778 128.632L43.3983 128.623L43.4188 128.614L41.4375 124.024ZM13.1172 120.313L10.04 124.254L10.0698 124.277L10.1 124.3L13.1172 120.313ZM7.45312 113.623L3.01435 115.925L3.03143 115.958L3.049 115.991L7.45312 113.623ZM5.45117 104.785V99.7854H0.500922L0.451422 104.735L5.45117 104.785ZM22.0039 104.785L26.9959 104.503L26.7289 99.7854H22.0039V104.785ZM26.1055 112.256L23.5501 116.554L23.6179 116.594L23.687 116.632L26.1055 112.256ZM34.4062 112.305L31.8147 108.029L34.4062 112.305ZM36.9453 109.619L32.551 107.234L36.9453 109.619ZM38.2637 105.713L43.1865 106.588L43.1881 106.579L43.1897 106.57L38.2637 105.713ZM38.0684 96.2405L33.2243 97.4796L33.2378 97.5322L33.2524 97.5845L38.0684 96.2405ZM36.3105 92.676L32.4185 95.8148L32.4437 95.8461L32.4694 95.8769L36.3105 92.676ZM33.1367 90.3811L31.2389 95.0069L31.2593 95.0153L31.2798 95.0235L33.1367 90.3811ZM19.9531 93.3108L21.0973 88.4435L8.01137 85.3673L6.86719 90.2346L5.723 95.1019L18.8089 98.1781L19.9531 93.3108ZM6.86719 90.2346L11.8326 90.8219L16.1294 54.4938L11.1641 53.9065L6.19867 53.3192L1.9018 89.6473L6.86719 90.2346ZM11.1641 53.9065V58.9065H52.7168V53.9065V48.9065H11.1641V53.9065ZM52.7168 53.9065H47.7168V66.6995H52.7168H57.7168V53.9065H52.7168ZM52.7168 66.6995V61.6995H24.5918V66.6995V71.6995H52.7168V66.6995ZM24.5918 66.6995L19.6241 66.1322L18.0128 80.2435L22.9805 80.8108L27.9482 81.378L29.5595 67.2667L24.5918 66.6995ZM22.9805 80.8108L25.4998 85.1297C25.8041 84.9522 26.7015 84.5479 28.5167 83.9429L26.9355 79.1995L25.3544 74.456C23.4586 75.088 21.7194 75.7579 20.4611 76.4919L22.9805 80.8108ZM26.9355 79.1995L28.5655 83.9263C29.8609 83.4796 31.3846 83.2229 33.1855 83.2229V78.2229V73.2229C30.4292 73.2229 27.7862 73.6172 25.3056 74.4726L26.9355 79.1995ZM33.1855 78.2229V83.2229C36.1974 83.2229 38.6594 83.6833 40.6644 84.4805L42.5117 79.8342L44.359 75.188C40.9604 73.8367 37.2049 73.2229 33.1855 73.2229V78.2229ZM42.5117 79.8342L40.7317 84.5067C42.7792 85.2867 44.4297 86.407 45.7668 87.8594L49.4453 84.4729L53.1238 81.0864C50.6849 78.4372 47.713 76.4651 44.2917 75.1618L42.5117 79.8342ZM49.4453 84.4729L45.794 87.8887C47.1148 89.3006 48.1825 91.118 48.9294 93.4618L53.6934 91.9436L58.4573 90.4254C57.3162 86.8448 55.5519 83.6817 53.0967 81.0571L49.4453 84.4729ZM53.6934 91.9436L48.9448 93.5091C49.7227 95.8688 50.1582 98.7099 50.1582 102.1H55.1582H60.1582C60.1582 97.8727 59.6172 93.9429 58.442 90.3781L53.6934 91.9436ZM55.1582 102.1H50.1582C50.1582 104.598 49.7483 106.998 48.9286 109.325L53.6445 110.987L58.3605 112.648C59.559 109.246 60.1582 105.721 60.1582 102.1H55.1582ZM53.6445 110.987L48.9177 109.357C48.1647 111.54 47.0002 113.515 45.387 115.308L49.1035 118.653L52.82 121.997C55.3084 119.233 57.1712 116.097 58.3714 112.617L53.6445 110.987ZM49.1035 118.653L45.3844 115.311C43.9015 116.961 41.963 118.351 39.4562 119.433L41.4375 124.024L43.4188 128.614C47.0969 127.027 50.269 124.836 52.8227 121.994L49.1035 118.653ZM41.4375 124.024L39.4972 119.416C37.1567 120.401 34.1843 120.977 30.4512 120.977V125.977V130.977C35.1816 130.977 39.5334 130.251 43.3778 128.632L41.4375 124.024ZM30.4512 125.977V120.977C27.8188 120.977 25.2658 120.571 22.7728 119.758L21.2227 124.512L19.6726 129.266C23.1691 130.406 26.7685 130.977 30.4512 130.977V125.977ZM21.2227 124.512L22.7728 119.758C20.2834 118.947 18.0815 117.799 16.1344 116.326L13.1172 120.313L10.1 124.3C12.9706 126.472 16.1723 128.124 19.6726 129.266L21.2227 124.512ZM13.1172 120.313L16.1944 116.372C14.3536 114.935 12.922 113.237 11.8572 111.256L7.45312 113.623L3.049 115.991C4.78372 119.218 7.12813 121.98 10.04 124.254L13.1172 120.313ZM7.45312 113.623L11.8919 111.322C10.9365 109.479 10.4257 107.353 10.4509 104.835L5.45117 104.785L0.451422 104.735C0.411493 108.728 1.23535 112.494 3.01435 115.925L7.45312 113.623ZM5.45117 104.785V109.785H22.0039V104.785V99.7854H5.45117V104.785ZM22.0039 104.785L17.0119 105.068C17.1448 107.416 17.7141 109.686 18.8697 111.734L23.2246 109.278L27.5795 106.821C27.3028 106.331 27.0583 105.605 26.9959 104.503L22.0039 104.785ZM23.2246 109.278L18.8697 111.734C19.9967 113.732 21.5646 115.373 23.5501 116.554L26.1055 112.256L28.6608 107.958C28.2375 107.707 27.8848 107.362 27.5795 106.821L23.2246 109.278ZM26.1055 112.256L23.687 116.632C25.7555 117.775 28.023 118.281 30.3535 118.281V113.281V108.281C29.4939 108.281 28.9294 108.104 28.5239 107.88L26.1055 112.256ZM30.3535 113.281V118.281C32.6299 118.281 34.9429 117.826 36.9978 116.581L34.4062 112.305L31.8147 108.029C31.7212 108.086 31.3324 108.281 30.3535 108.281V113.281ZM34.4062 112.305L36.9978 116.581C38.8548 115.455 40.3125 113.897 41.3396 112.005L36.9453 109.619L32.551 107.234C32.3412 107.621 32.1061 107.852 31.8147 108.029L34.4062 112.305ZM36.9453 109.619L41.3396 112.005C42.2489 110.33 42.8457 108.505 43.1865 106.588L38.2637 105.713L33.3409 104.838C33.1608 105.851 32.8787 106.63 32.551 107.234L36.9453 109.619ZM38.2637 105.713L43.1897 106.57C43.5036 104.765 43.6543 102.898 43.6543 100.977H38.6543H33.6543C33.6543 102.376 33.5446 103.666 33.3376 104.856L38.2637 105.713ZM38.6543 100.977H43.6543C43.6543 98.8562 43.4194 96.814 42.8843 94.8965L38.0684 96.2405L33.2524 97.5845C33.4985 98.4665 33.6543 99.5817 33.6543 100.977H38.6543ZM38.0684 96.2405L42.9124 95.0013C42.3953 92.9799 41.5026 91.0963 40.1517 89.4751L36.3105 92.676L32.4694 95.8769C32.7461 96.2089 33.0253 96.7016 33.2243 97.4796L38.0684 96.2405ZM36.3105 92.676L40.2026 89.5373C38.807 87.8067 37.0248 86.5512 34.9937 85.7387L33.1367 90.3811L31.2798 95.0235C31.8528 95.2527 32.1865 95.5271 32.4185 95.8148L36.3105 92.676ZM33.1367 90.3811L35.0345 85.7553C33.0098 84.9246 30.7994 84.5999 28.5469 84.5999V89.5999V94.5999C29.8751 94.5999 30.7246 94.7959 31.2389 95.0069L33.1367 90.3811ZM28.5469 89.5999V84.5999C25.6834 84.5999 22.8061 85.0766 20.3742 86.5241L22.9316 90.8206L25.4891 95.117C25.7916 94.937 26.6577 94.5999 28.5469 94.5999V89.5999ZM22.9316 90.8206L20.3742 86.5241C18.6987 87.5214 17.0832 88.7637 15.9162 90.3607L19.9531 93.3108L23.9901 96.2609C24.06 96.1652 24.4302 95.7473 25.4891 95.117L22.9316 90.8206Z" fill="#1A5069" mask="url(#path-7-outside-1_446_240)"/>
<defs>
<radialGradient id="paint0_radial_446_240" cx="0" cy="0" r="1" gradientUnits="userSpaceOnUse" gradientTransform="translate(96.2629 367.631) scale(96.2629 367.631)">
<stop stop-color="#1A5069"/>
<stop offset="1" stop-color="#0F7BAE" stop-opacity="0"/>
</radialGradient>
<radialGradient id="paint1_radial_446_240" cx="0" cy="0" r="1" gradientUnits="userSpaceOnUse" gradientTransform="translate(96.2629 367.631) scale(96.2629 367.631)">
<stop stop-color="#1A5069"/>
<stop offset="1" stop-color="#0F7BAE" stop-opacity="0"/>
</radialGradient>
</defs>
</svg>
