<svg width="797" height="180" viewBox="0 0 797 180" fill="none" xmlns="http://www.w3.org/2000/svg">
<mask id="mask0_446_229" style="mask-type:alpha" maskUnits="userSpaceOnUse" x="70" y="0" width="727" height="180">
<rect x="-1.00159" y="0.995166" width="174.036" height="724.019" rx="87.0179" transform="matrix(-0.00160036 0.999999 -0.999988 -0.00483255 796.285 5.51011)" fill="black" stroke="#136A93" stroke-width="2"/>
</mask>
<g mask="url(#mask0_446_229)">
<rect width="192.526" height="735.262" rx="47.5" transform="matrix(-0.00160036 0.999999 -0.999988 -0.00483255 1071.4 68.4429)" fill="url(#paint0_radial_446_229)" fill-opacity="0.74"/>
<rect width="192.526" height="735.262" rx="47.5" transform="matrix(-0.00160036 0.999999 -0.999988 -0.00483255 530.426 -57.9541)" fill="url(#paint1_radial_446_229)" fill-opacity="0.74"/>
</g>
<rect x="73.293" y="1.54663" width="722.708" height="175.235" rx="87.6177" fill="#D9D9D9" fill-opacity="0.14" stroke="#136A93" stroke-width="2"/>
<path d="M329.23 75.3088V79.0002H316.721V75.3088H329.23ZM318.139 54.1174V79.0002H313.439V54.1174H318.139ZM341.969 75.0696V66.5417C341.969 65.9151 341.861 65.3739 341.644 64.9182C341.428 64.4625 341.097 64.1093 340.653 63.8586C340.208 63.608 339.645 63.4827 338.961 63.4827C338.357 63.4827 337.827 63.5852 337.372 63.7903C336.927 63.9954 336.585 64.2859 336.346 64.6619C336.107 65.0264 335.987 65.448 335.987 65.9265H331.458C331.458 65.1632 331.641 64.4397 332.005 63.7561C332.37 63.0611 332.888 62.4459 333.561 61.9104C334.244 61.3635 335.059 60.9363 336.004 60.6287C336.961 60.321 338.032 60.1672 339.217 60.1672C340.619 60.1672 341.866 60.4065 342.96 60.885C344.065 61.3521 344.931 62.0585 345.558 63.0042C346.196 63.9498 346.515 65.1404 346.515 66.5759V74.6423C346.515 75.5652 346.572 76.357 346.686 77.0178C346.811 77.6672 346.993 78.2312 347.232 78.7097V79.0002H342.635C342.419 78.5331 342.254 77.9407 342.14 77.2229C342.026 76.4937 341.969 75.776 341.969 75.0696ZM342.601 67.738L342.635 70.4211H339.781C339.075 70.4211 338.454 70.4952 337.918 70.6433C337.383 70.78 336.944 70.9851 336.603 71.2585C336.261 71.5206 336.004 71.8396 335.833 72.2156C335.663 72.5802 335.577 72.996 335.577 73.4631C335.577 73.9189 335.68 74.329 335.885 74.6936C336.101 75.0582 336.409 75.3487 336.808 75.5652C337.218 75.7703 337.696 75.8728 338.243 75.8728C339.041 75.8728 339.736 75.7133 340.328 75.3943C340.921 75.0639 341.382 74.6651 341.712 74.198C342.043 73.7309 342.219 73.2865 342.242 72.865L343.541 74.8132C343.382 75.2804 343.142 75.776 342.823 76.3C342.504 76.8241 342.094 77.314 341.593 77.7698C341.091 78.2255 340.488 78.6015 339.781 78.8977C339.075 79.1939 338.255 79.342 337.32 79.342C336.124 79.342 335.053 79.1028 334.107 78.6243C333.162 78.1458 332.416 77.4906 331.869 76.6589C331.322 75.8272 331.048 74.8816 331.048 73.822C331.048 72.8422 331.231 71.9763 331.595 71.2244C331.96 70.4724 332.501 69.8401 333.219 69.3274C333.937 68.8033 334.825 68.4102 335.885 68.1482C336.956 67.8748 338.181 67.738 339.559 67.738H342.601ZM361.338 74.6082V60.509H365.884V79.0002H361.611L361.338 74.6082ZM361.919 70.78L363.32 70.7458C363.32 71.9877 363.184 73.1327 362.91 74.1809C362.637 75.2291 362.209 76.1405 361.628 76.9153C361.059 77.6786 360.335 78.2768 359.458 78.7097C358.581 79.1313 357.544 79.342 356.348 79.342C355.436 79.342 354.604 79.2167 353.853 78.9661C353.101 78.704 352.451 78.2996 351.904 77.7527C351.369 77.1944 350.953 76.4823 350.657 75.6165C350.361 74.7392 350.212 73.6853 350.212 72.4548V60.509H354.724V72.489C354.724 73.1042 354.792 73.6169 354.929 74.0271C355.077 74.4373 355.277 74.7734 355.527 75.0354C355.789 75.2861 356.091 75.4683 356.433 75.5823C356.786 75.6848 357.162 75.7361 357.561 75.7361C358.655 75.7361 359.515 75.5196 360.142 75.0867C360.78 74.6423 361.235 74.0499 361.509 73.3093C361.782 72.5574 361.919 71.7143 361.919 70.78ZM374.059 64.4568V79.0002H369.547V60.509H373.786L374.059 64.4568ZM373.341 69.0881H372.008C372.02 67.7437 372.202 66.5247 372.555 65.4309C372.908 64.3372 373.404 63.3972 374.042 62.6111C374.691 61.825 375.46 61.2211 376.349 60.7996C377.238 60.378 378.229 60.1672 379.323 60.1672C380.211 60.1672 381.015 60.2926 381.732 60.5432C382.45 60.7939 383.065 61.1926 383.578 61.7395C384.102 62.2864 384.501 63.0042 384.774 63.8928C385.059 64.7701 385.202 65.8525 385.202 67.1399V79.0002H380.656V67.1057C380.656 66.2626 380.53 65.5961 380.28 65.1062C380.041 64.6163 379.687 64.2688 379.22 64.0637C378.764 63.8586 378.201 63.7561 377.528 63.7561C376.833 63.7561 376.224 63.8985 375.7 64.1833C375.187 64.4568 374.754 64.8385 374.401 65.3284C374.059 65.8183 373.797 66.3822 373.615 67.0203C373.432 67.6583 373.341 68.3476 373.341 69.0881ZM396.521 75.7874C397.16 75.7874 397.729 75.662 398.23 75.4114C398.732 75.1607 399.131 74.8075 399.427 74.3518C399.734 73.8961 399.9 73.3663 399.922 72.7625H404.178C404.155 74.0157 403.802 75.1379 403.118 76.1292C402.435 77.1204 401.523 77.9065 400.384 78.4875C399.256 79.0572 397.991 79.342 396.59 79.342C395.166 79.342 393.924 79.1028 392.864 78.6243C391.805 78.1458 390.922 77.4792 390.215 76.6248C389.52 75.7703 388.996 74.7791 388.643 73.6511C388.301 72.5232 388.13 71.3155 388.13 70.0281V69.4812C388.13 68.1938 388.301 66.9861 388.643 65.8582C388.996 64.7302 389.52 63.739 390.215 62.8845C390.922 62.03 391.805 61.3635 392.864 60.885C393.924 60.4065 395.16 60.1672 396.573 60.1672C398.065 60.1672 399.375 60.4578 400.503 61.0388C401.643 61.6199 402.531 62.4402 403.169 63.4998C403.819 64.5593 404.155 65.8069 404.178 67.2424H399.922C399.9 66.5816 399.751 65.9892 399.478 65.4651C399.205 64.941 398.817 64.5194 398.316 64.2004C397.815 63.8814 397.205 63.7219 396.487 63.7219C395.724 63.7219 395.086 63.8814 394.573 64.2004C394.072 64.5194 393.679 64.9581 393.394 65.5164C393.121 66.0632 392.927 66.6785 392.813 67.3621C392.71 68.0343 392.659 68.7406 392.659 69.4812V70.0281C392.659 70.78 392.71 71.4978 392.813 72.1814C392.927 72.865 393.121 73.4802 393.394 74.0271C393.679 74.5626 394.072 74.9898 394.573 75.3088C395.086 75.6278 395.735 75.7874 396.521 75.7874ZM411.362 52.7502V79.0002H406.833V52.7502H411.362ZM410.644 69.0881H409.311C409.311 67.8007 409.482 66.6158 409.824 65.5334C410.166 64.4511 410.65 63.5111 411.276 62.7136C411.903 61.9047 412.649 61.2781 413.515 60.8337C414.392 60.3894 415.361 60.1672 416.42 60.1672C417.332 60.1672 418.158 60.2983 418.898 60.5603C419.65 60.811 420.294 61.2154 420.83 61.7737C421.365 62.3319 421.775 63.0611 422.06 63.9612C422.356 64.8499 422.504 65.9322 422.504 67.2083V79.0002H417.958V67.1741C417.958 66.3196 417.833 65.6474 417.583 65.1575C417.332 64.6562 416.973 64.2973 416.506 64.0808C416.05 63.8643 415.486 63.7561 414.814 63.7561C414.085 63.7561 413.458 63.8985 412.934 64.1833C412.41 64.4568 411.977 64.8385 411.635 65.3284C411.305 65.8183 411.054 66.3822 410.883 67.0203C410.724 67.6583 410.644 68.3476 410.644 69.0881ZM438.77 65.5676L443.298 62.594C444.016 62.1155 444.512 61.6541 444.785 61.2097C445.059 60.7654 445.195 60.2299 445.195 59.6033C445.195 59.045 444.979 58.5266 444.546 58.0481C444.124 57.5582 443.526 57.3132 442.751 57.3132C442.205 57.3132 441.743 57.4386 441.367 57.6892C440.991 57.9399 440.706 58.276 440.513 58.6975C440.33 59.1077 440.239 59.5634 440.239 60.0647C440.239 60.5774 440.37 61.1015 440.632 61.637C440.906 62.1724 441.27 62.7364 441.726 63.3289C442.193 63.9099 442.712 64.5422 443.281 65.2258L455.022 79.0002H449.861L440.256 67.8235C439.447 66.8209 438.73 65.898 438.103 65.0549C437.476 64.2118 436.986 63.3972 436.633 62.6111C436.292 61.8136 436.121 60.9932 436.121 60.1501C436.121 58.8513 436.394 57.7234 436.941 56.7664C437.488 55.8093 438.257 55.0688 439.248 54.5447C440.251 54.0206 441.424 53.7585 442.769 53.7585C444.045 53.7585 445.144 54.0206 446.067 54.5447C447.001 55.0574 447.725 55.741 448.237 56.5955C448.75 57.45 449.006 58.3842 449.006 59.3982C449.006 60.1729 448.864 60.8907 448.579 61.5515C448.294 62.2009 447.901 62.7991 447.4 63.3459C446.899 63.8814 446.318 64.3884 445.657 64.8669L440.325 68.6951C439.812 69.128 439.425 69.5553 439.163 69.9768C438.912 70.387 438.741 70.7686 438.65 71.1218C438.57 71.475 438.53 71.8054 438.53 72.113C438.53 72.808 438.678 73.4347 438.975 73.9929C439.282 74.5398 439.715 74.9784 440.273 75.3088C440.843 75.6278 441.515 75.7874 442.29 75.7874C443.236 75.7874 444.147 75.5766 445.024 75.155C445.902 74.7335 446.688 74.1353 447.383 73.3606C448.089 72.5859 448.647 71.663 449.058 70.592C449.479 69.5097 449.69 68.3191 449.69 67.0203H453.552C453.552 68.2621 453.433 69.4413 453.193 70.5579C452.954 71.663 452.567 72.6884 452.031 73.634C451.496 74.5797 450.795 75.4228 449.929 76.1633C449.849 76.2317 449.753 76.3228 449.639 76.4368C449.536 76.5507 449.445 76.6418 449.365 76.7102C448.328 77.5989 447.206 78.2654 445.999 78.7097C444.802 79.1427 443.498 79.3591 442.085 79.3591C440.422 79.3591 438.986 79.0572 437.778 78.4534C436.571 77.8495 435.636 77.0178 434.976 75.9583C434.326 74.8987 434.001 73.6853 434.001 72.3181C434.001 71.3041 434.201 70.4211 434.6 69.6692C435.01 68.9058 435.574 68.1995 436.292 67.55C437.009 66.8892 437.835 66.2284 438.77 65.5676ZM479.012 72.5403C479.012 72.0618 478.938 71.6345 478.79 71.2585C478.653 70.8712 478.396 70.5237 478.021 70.2161C477.656 69.8971 477.138 69.5894 476.465 69.2932C475.805 68.9856 474.95 68.6666 473.902 68.3362C472.74 67.9716 471.657 67.5614 470.655 67.1057C469.652 66.65 468.769 66.1202 468.006 65.5164C467.254 64.9125 466.667 64.2175 466.246 63.4314C465.824 62.6339 465.613 61.711 465.613 60.6628C465.613 59.6375 465.83 58.7032 466.263 57.8601C466.707 57.017 467.334 56.2935 468.143 55.6897C468.951 55.0745 469.903 54.6016 470.997 54.2712C472.102 53.9408 473.321 53.7756 474.654 53.7756C476.5 53.7756 478.095 54.1117 479.439 54.7839C480.795 55.4561 481.843 56.3676 482.583 57.5183C483.324 58.669 483.694 59.9622 483.694 61.3977H479.012C479.012 60.623 478.847 59.9394 478.516 59.3469C478.197 58.7545 477.707 58.2874 477.046 57.9456C476.397 57.6038 475.577 57.4329 474.585 57.4329C473.628 57.4329 472.831 57.5753 472.193 57.8601C471.566 58.1449 471.093 58.5323 470.774 59.0222C470.467 59.5121 470.313 60.059 470.313 60.6628C470.313 61.1186 470.421 61.5287 470.638 61.8933C470.854 62.2465 471.179 62.5826 471.612 62.9016C472.045 63.2092 472.58 63.4998 473.218 63.7732C473.868 64.0352 474.62 64.2973 475.474 64.5593C476.841 64.9695 478.038 65.4252 479.063 65.9265C480.1 66.4278 480.96 66.9975 481.644 67.6355C482.339 68.2735 482.857 68.9913 483.199 69.7888C483.552 70.5863 483.729 71.4921 483.729 72.5061C483.729 73.5771 483.518 74.5341 483.096 75.3772C482.675 76.2203 482.071 76.9381 481.285 77.5305C480.499 78.123 479.553 78.573 478.448 78.8806C477.354 79.1882 476.129 79.342 474.773 79.342C473.566 79.342 472.369 79.1825 471.185 78.8635C470.011 78.5331 468.946 78.0432 467.989 77.3938C467.032 76.733 466.268 75.9013 465.699 74.8987C465.129 73.8847 464.844 72.6998 464.844 71.344H469.561C469.561 72.1301 469.686 72.8023 469.937 73.3606C470.199 73.9075 470.564 74.3575 471.031 74.7107C471.509 75.0525 472.068 75.3031 472.706 75.4626C473.344 75.6222 474.033 75.7019 474.773 75.7019C475.73 75.7019 476.517 75.5709 477.132 75.3088C477.758 75.0354 478.226 74.6594 478.533 74.1809C478.852 73.7024 479.012 73.1555 479.012 72.5403ZM494.348 75.7874C494.986 75.7874 495.555 75.662 496.057 75.4114C496.558 75.1607 496.957 74.8075 497.253 74.3518C497.561 73.8961 497.726 73.3663 497.749 72.7625H502.004C501.981 74.0157 501.628 75.1379 500.944 76.1292C500.261 77.1204 499.349 77.9065 498.21 78.4875C497.082 79.0572 495.817 79.342 494.416 79.342C492.992 79.342 491.75 79.1028 490.69 78.6243C489.631 78.1458 488.748 77.4792 488.042 76.6248C487.347 75.7703 486.822 74.7791 486.469 73.6511C486.127 72.5232 485.957 71.3155 485.957 70.0281V69.4812C485.957 68.1938 486.127 66.9861 486.469 65.8582C486.822 64.7302 487.347 63.739 488.042 62.8845C488.748 62.03 489.631 61.3635 490.69 60.885C491.75 60.4065 492.986 60.1672 494.399 60.1672C495.891 60.1672 497.202 60.4578 498.33 61.0388C499.469 61.6199 500.358 62.4402 500.996 63.4998C501.645 64.5593 501.981 65.8069 502.004 67.2424H497.749C497.726 66.5816 497.578 65.9892 497.304 65.4651C497.031 64.941 496.643 64.5194 496.142 64.2004C495.641 63.8814 495.031 63.7219 494.313 63.7219C493.55 63.7219 492.912 63.8814 492.399 64.2004C491.898 64.5194 491.505 64.9581 491.22 65.5164C490.947 66.0632 490.753 66.6785 490.639 67.3621C490.537 68.0343 490.485 68.7406 490.485 69.4812V70.0281C490.485 70.78 490.537 71.4978 490.639 72.1814C490.753 72.865 490.947 73.4802 491.22 74.0271C491.505 74.5626 491.898 74.9898 492.399 75.3088C492.912 75.6278 493.562 75.7874 494.348 75.7874ZM514.947 75.0696V66.5417C514.947 65.9151 514.839 65.3739 514.623 64.9182C514.406 64.4625 514.076 64.1093 513.631 63.8586C513.187 63.608 512.623 63.4827 511.939 63.4827C511.336 63.4827 510.806 63.5852 510.35 63.7903C509.906 63.9954 509.564 64.2859 509.325 64.6619C509.085 65.0264 508.966 65.448 508.966 65.9265H504.437C504.437 65.1632 504.619 64.4397 504.984 63.7561C505.348 63.0611 505.867 62.4459 506.539 61.9104C507.223 61.3635 508.037 60.9363 508.983 60.6287C509.94 60.321 511.011 60.1672 512.196 60.1672C513.597 60.1672 514.845 60.4065 515.938 60.885C517.044 61.3521 517.91 62.0585 518.536 63.0042C519.174 63.9498 519.493 65.1404 519.493 66.5759V74.6423C519.493 75.5652 519.55 76.357 519.664 77.0178C519.789 77.6672 519.972 78.2312 520.211 78.7097V79.0002H515.614C515.397 78.5331 515.232 77.9407 515.118 77.2229C515.004 76.4937 514.947 75.776 514.947 75.0696ZM515.58 67.738L515.614 70.4211H512.76C512.053 70.4211 511.432 70.4952 510.897 70.6433C510.361 70.78 509.923 70.9851 509.581 71.2585C509.239 71.5206 508.983 71.8396 508.812 72.2156C508.641 72.5802 508.556 72.996 508.556 73.4631C508.556 73.9189 508.658 74.329 508.863 74.6936C509.08 75.0582 509.387 75.3487 509.786 75.5652C510.196 75.7703 510.675 75.8728 511.222 75.8728C512.019 75.8728 512.714 75.7133 513.307 75.3943C513.899 75.0639 514.361 74.6651 514.691 74.198C515.021 73.7309 515.198 73.2865 515.221 72.865L516.52 74.8132C516.36 75.2804 516.121 75.776 515.802 76.3C515.483 76.8241 515.073 77.314 514.571 77.7698C514.07 78.2255 513.466 78.6015 512.76 78.8977C512.053 79.1939 511.233 79.342 510.299 79.342C509.103 79.342 508.032 79.1028 507.086 78.6243C506.14 78.1458 505.394 77.4906 504.847 76.6589C504.3 75.8272 504.027 74.8816 504.027 73.822C504.027 72.8422 504.209 71.9763 504.574 71.2244C504.938 70.4724 505.479 69.8401 506.197 69.3274C506.915 68.8033 507.804 68.4102 508.863 68.1482C509.934 67.8748 511.159 67.738 512.538 67.738H515.58ZM528.096 52.7502V79.0002H523.567V52.7502H528.096ZM540.458 79.342C539.057 79.342 537.798 79.1142 536.681 78.6584C535.565 78.2027 534.613 77.5704 533.827 76.7615C533.052 75.9412 532.454 74.9898 532.033 73.9075C531.623 72.8137 531.417 71.6402 531.417 70.387V69.7034C531.417 68.2792 531.623 66.9861 532.033 65.824C532.443 64.6505 533.024 63.6422 533.776 62.7991C534.528 61.956 535.428 61.3066 536.476 60.8508C537.524 60.3951 538.681 60.1672 539.945 60.1672C541.256 60.1672 542.412 60.3894 543.415 60.8337C544.417 61.2667 545.255 61.8819 545.927 62.6794C546.599 63.477 547.106 64.434 547.448 65.5505C547.79 66.6557 547.96 67.8805 547.96 69.2249V71.1218H533.468V68.0115H543.517V67.6697C543.494 66.9519 543.358 66.2968 543.107 65.7043C542.856 65.1005 542.469 64.622 541.945 64.2688C541.421 63.9042 540.743 63.7219 539.911 63.7219C539.239 63.7219 538.652 63.87 538.151 64.1663C537.661 64.4511 537.251 64.8612 536.92 65.3967C536.601 65.9208 536.362 66.5474 536.203 67.2766C536.043 68.0058 535.963 68.8147 535.963 69.7034V70.387C535.963 71.1617 536.066 71.8795 536.271 72.5403C536.487 73.2011 536.801 73.7764 537.211 74.2664C537.632 74.7449 538.134 75.1208 538.715 75.3943C539.307 75.6563 539.979 75.7874 540.731 75.7874C541.677 75.7874 542.532 75.6051 543.295 75.2405C544.07 74.8645 544.742 74.3119 545.312 73.5828L547.584 75.9412C547.197 76.5108 546.673 77.0577 546.012 77.5818C545.363 78.1059 544.577 78.5331 543.654 78.8635C542.731 79.1825 541.666 79.342 540.458 79.342Z" fill="#EDD5B1"/>
<path d="M283.126 109.006V113.524C282.985 113.729 282.733 113.96 282.37 114.218C282.007 114.476 281.523 114.701 280.92 114.895C280.322 115.082 279.584 115.176 278.705 115.176C277.961 115.176 277.278 115.041 276.657 114.772C276.036 114.502 275.5 114.113 275.049 113.603C274.598 113.093 274.249 112.484 274.003 111.775C273.757 111.06 273.634 110.266 273.634 109.393V107.679C273.634 106.818 273.748 106.041 273.977 105.35C274.211 104.658 274.542 104.064 274.97 103.566C275.397 103.068 275.913 102.687 276.517 102.423C277.12 102.159 277.797 102.028 278.547 102.028C279.49 102.028 280.284 102.192 280.929 102.52C281.573 102.848 282.077 103.293 282.44 103.856C282.804 104.418 283.029 105.054 283.117 105.763H282.229C282.142 105.236 281.963 104.749 281.693 104.304C281.424 103.859 281.034 103.498 280.524 103.223C280.015 102.948 279.355 102.81 278.547 102.81C277.914 102.81 277.349 102.927 276.851 103.161C276.353 103.396 275.931 103.727 275.585 104.155C275.245 104.582 274.984 105.095 274.803 105.693C274.621 106.284 274.53 106.941 274.53 107.661V109.393C274.53 110.143 274.627 110.825 274.82 111.441C275.02 112.05 275.304 112.577 275.673 113.023C276.042 113.462 276.481 113.802 276.991 114.042C277.507 114.277 278.081 114.394 278.714 114.394C279.376 114.394 279.947 114.329 280.428 114.2C280.908 114.072 281.298 113.916 281.597 113.735C281.901 113.547 282.115 113.377 282.238 113.225V109.788H278.652V109.006H283.126ZM285.42 110.404V110.087C285.42 109.396 285.52 108.76 285.719 108.18C285.918 107.594 286.202 107.087 286.571 106.659C286.94 106.232 287.383 105.901 287.898 105.666C288.42 105.432 288.997 105.315 289.63 105.315C290.269 105.315 290.846 105.432 291.361 105.666C291.883 105.901 292.328 106.232 292.697 106.659C293.072 107.087 293.359 107.594 293.559 108.18C293.758 108.76 293.857 109.396 293.857 110.087V110.404C293.857 111.095 293.758 111.734 293.559 112.32C293.359 112.9 293.072 113.404 292.697 113.831C292.328 114.259 291.886 114.59 291.37 114.824C290.854 115.059 290.28 115.176 289.647 115.176C289.009 115.176 288.429 115.059 287.907 114.824C287.392 114.59 286.946 114.259 286.571 113.831C286.202 113.404 285.918 112.9 285.719 112.32C285.52 111.734 285.42 111.095 285.42 110.404ZM286.281 110.087V110.404C286.281 110.937 286.354 111.447 286.501 111.933C286.653 112.413 286.87 112.841 287.151 113.216C287.438 113.585 287.79 113.878 288.206 114.095C288.628 114.306 289.108 114.411 289.647 114.411C290.181 114.411 290.652 114.306 291.062 114.095C291.479 113.878 291.827 113.585 292.108 113.216C292.396 112.841 292.612 112.413 292.759 111.933C292.911 111.447 292.987 110.937 292.987 110.404V110.087C292.987 109.566 292.911 109.065 292.759 108.584C292.612 108.104 292.396 107.676 292.108 107.301C291.821 106.926 291.47 106.63 291.054 106.413C290.638 106.191 290.163 106.079 289.63 106.079C289.097 106.079 288.622 106.191 288.206 106.413C287.79 106.63 287.438 106.926 287.151 107.301C286.864 107.676 286.647 108.104 286.501 108.584C286.354 109.065 286.281 109.566 286.281 110.087ZM301.425 101.5V115H300.555V101.5H301.425ZM305.362 105.49V115H304.492V105.49H305.362ZM304.29 102.669C304.29 102.493 304.349 102.344 304.466 102.221C304.583 102.092 304.738 102.028 304.932 102.028C305.131 102.028 305.289 102.092 305.406 102.221C305.529 102.344 305.591 102.493 305.591 102.669C305.591 102.845 305.529 102.994 305.406 103.117C305.289 103.24 305.131 103.302 304.932 103.302C304.738 103.302 304.583 103.24 304.466 103.117C304.349 102.994 304.29 102.845 304.29 102.669ZM311.084 114.13L314.274 105.49H315.18L311.576 115H310.908L311.084 114.13ZM308.148 105.49L311.365 114.148L311.523 115H310.847L307.243 105.49H308.148ZM320.436 115.176C319.826 115.176 319.264 115.062 318.748 114.833C318.232 114.605 317.784 114.282 317.403 113.866C317.022 113.445 316.727 112.949 316.516 112.381C316.305 111.807 316.199 111.177 316.199 110.491V110.114C316.199 109.387 316.305 108.731 316.516 108.145C316.732 107.559 317.028 107.055 317.403 106.633C317.784 106.205 318.218 105.88 318.704 105.657C319.19 105.429 319.706 105.315 320.251 105.315C320.825 105.315 321.341 105.42 321.798 105.631C322.261 105.836 322.653 106.129 322.976 106.51C323.298 106.891 323.541 107.342 323.705 107.864C323.875 108.379 323.96 108.95 323.96 109.577V110.193H316.735V109.428H323.09V109.314C323.084 108.745 322.97 108.218 322.747 107.732C322.53 107.24 322.211 106.841 321.789 106.536C321.373 106.232 320.86 106.079 320.251 106.079C319.776 106.079 319.343 106.182 318.95 106.387C318.563 106.586 318.229 106.867 317.948 107.231C317.667 107.588 317.45 108.013 317.298 108.505C317.146 108.991 317.069 109.528 317.069 110.114V110.491C317.069 111.036 317.151 111.546 317.315 112.021C317.485 112.495 317.72 112.911 318.019 113.269C318.323 113.626 318.684 113.907 319.1 114.113C319.516 114.318 319.97 114.42 320.462 114.42C321.019 114.42 321.52 114.321 321.965 114.121C322.41 113.916 322.814 113.579 323.178 113.111L323.731 113.532C323.526 113.837 323.271 114.115 322.967 114.367C322.662 114.614 322.302 114.81 321.886 114.956C321.47 115.103 320.986 115.176 320.436 115.176ZM333.136 112.61L335.377 105.49H336.027L335.509 107.582L333.136 115H332.485L333.136 112.61ZM330.525 105.49L332.521 112.645L333.03 115H332.371L329.611 105.49H330.525ZM339.042 112.618L340.993 105.49H341.907L339.139 115H338.488L339.042 112.618ZM336.142 105.49L338.365 112.566L339.024 115H338.383L335.957 107.573L335.474 105.49H336.142ZM345.001 105.49V115H344.131V105.49H345.001ZM343.929 102.669C343.929 102.493 343.987 102.344 344.104 102.221C344.222 102.092 344.377 102.028 344.57 102.028C344.77 102.028 344.928 102.092 345.045 102.221C345.168 102.344 345.229 102.493 345.229 102.669C345.229 102.845 345.168 102.994 345.045 103.117C344.928 103.24 344.77 103.302 344.57 103.302C344.377 103.302 344.222 103.24 344.104 103.117C343.987 102.994 343.929 102.845 343.929 102.669ZM351.435 105.49V106.238H346.776V105.49H351.435ZM348.525 103.012H349.404V112.698C349.404 113.172 349.463 113.532 349.58 113.779C349.703 114.019 349.864 114.18 350.063 114.262C350.263 114.344 350.477 114.385 350.705 114.385C350.869 114.385 351.021 114.376 351.162 114.359C351.309 114.341 351.449 114.321 351.584 114.297L351.637 115.044C351.508 115.085 351.341 115.117 351.136 115.141C350.931 115.164 350.737 115.176 350.556 115.176C350.151 115.176 349.797 115.103 349.492 114.956C349.188 114.804 348.95 114.549 348.78 114.192C348.61 113.828 348.525 113.33 348.525 112.698V103.012ZM354.581 101.5V115H353.711V101.5H354.581ZM354.396 109.586L354.001 109.243C354.042 108.716 354.159 108.215 354.353 107.74C354.546 107.266 354.807 106.847 355.135 106.484C355.463 106.12 355.85 105.836 356.295 105.631C356.74 105.42 357.229 105.315 357.763 105.315C358.237 105.315 358.662 105.379 359.037 105.508C359.412 105.637 359.729 105.842 359.986 106.123C360.25 106.405 360.449 106.768 360.584 107.213C360.725 107.653 360.795 108.189 360.795 108.822V115H359.925V108.813C359.925 108.11 359.825 107.562 359.626 107.169C359.433 106.777 359.16 106.498 358.809 106.334C358.463 106.17 358.053 106.088 357.578 106.088C357.045 106.088 356.582 106.205 356.189 106.44C355.797 106.674 355.469 106.973 355.205 107.336C354.947 107.699 354.751 108.083 354.616 108.488C354.481 108.886 354.408 109.252 354.396 109.586ZM371.377 114.411C371.834 114.411 372.265 114.326 372.669 114.156C373.079 113.981 373.419 113.72 373.688 113.374C373.964 113.029 374.119 112.595 374.154 112.073H374.989C374.96 112.689 374.778 113.231 374.444 113.699C374.11 114.168 373.674 114.531 373.135 114.789C372.602 115.047 372.016 115.176 371.377 115.176C370.727 115.176 370.152 115.059 369.654 114.824C369.156 114.584 368.737 114.25 368.397 113.823C368.063 113.395 367.809 112.894 367.633 112.32C367.463 111.74 367.378 111.11 367.378 110.43V110.061C367.378 109.381 367.463 108.754 367.633 108.18C367.809 107.6 368.063 107.096 368.397 106.668C368.737 106.24 369.153 105.909 369.646 105.675C370.144 105.435 370.718 105.315 371.368 105.315C372.024 105.315 372.619 105.449 373.152 105.719C373.691 105.983 374.125 106.366 374.453 106.87C374.781 107.368 374.96 107.969 374.989 108.672H374.154C374.125 108.121 373.981 107.656 373.724 107.275C373.466 106.888 373.132 106.592 372.722 106.387C372.312 106.182 371.86 106.079 371.368 106.079C370.812 106.079 370.334 106.188 369.936 106.405C369.543 106.615 369.221 106.908 368.969 107.283C368.723 107.653 368.538 108.074 368.415 108.549C368.298 109.024 368.239 109.528 368.239 110.061V110.43C368.239 110.963 368.298 111.47 368.415 111.95C368.532 112.425 368.717 112.847 368.969 113.216C369.221 113.585 369.546 113.878 369.944 114.095C370.343 114.306 370.82 114.411 371.377 114.411ZM376.562 110.404V110.087C376.562 109.396 376.662 108.76 376.861 108.18C377.061 107.594 377.345 107.087 377.714 106.659C378.083 106.232 378.525 105.901 379.041 105.666C379.562 105.432 380.14 105.315 380.772 105.315C381.411 105.315 381.988 105.432 382.504 105.666C383.025 105.901 383.471 106.232 383.84 106.659C384.215 107.087 384.502 107.594 384.701 108.18C384.9 108.76 385 109.396 385 110.087V110.404C385 111.095 384.9 111.734 384.701 112.32C384.502 112.9 384.215 113.404 383.84 113.831C383.471 114.259 383.028 114.59 382.513 114.824C381.997 115.059 381.423 115.176 380.79 115.176C380.151 115.176 379.571 115.059 379.05 114.824C378.534 114.59 378.089 114.259 377.714 113.831C377.345 113.404 377.061 112.9 376.861 112.32C376.662 111.734 376.562 111.095 376.562 110.404ZM377.424 110.087V110.404C377.424 110.937 377.497 111.447 377.644 111.933C377.796 112.413 378.013 112.841 378.294 113.216C378.581 113.585 378.933 113.878 379.349 114.095C379.771 114.306 380.251 114.411 380.79 114.411C381.323 114.411 381.795 114.306 382.205 114.095C382.621 113.878 382.97 113.585 383.251 113.216C383.538 112.841 383.755 112.413 383.901 111.933C384.054 111.447 384.13 110.937 384.13 110.404V110.087C384.13 109.566 384.054 109.065 383.901 108.584C383.755 108.104 383.538 107.676 383.251 107.301C382.964 106.926 382.612 106.63 382.196 106.413C381.78 106.191 381.306 106.079 380.772 106.079C380.239 106.079 379.765 106.191 379.349 106.413C378.933 106.63 378.581 106.926 378.294 107.301C378.007 107.676 377.79 108.104 377.644 108.584C377.497 109.065 377.424 109.566 377.424 110.087ZM388.085 107.521V115H387.215V105.49H388.059L388.085 107.521ZM387.9 109.586L387.505 109.243C387.546 108.716 387.663 108.215 387.856 107.74C388.05 107.266 388.311 106.847 388.639 106.484C388.967 106.12 389.354 105.836 389.799 105.631C390.244 105.42 390.733 105.315 391.267 105.315C391.741 105.315 392.166 105.379 392.541 105.508C392.916 105.637 393.232 105.842 393.49 106.123C393.754 106.405 393.953 106.768 394.088 107.213C394.229 107.653 394.299 108.189 394.299 108.822V115H393.429V108.813C393.429 108.11 393.329 107.562 393.13 107.169C392.937 106.777 392.664 106.498 392.312 106.334C391.967 106.17 391.557 106.088 391.082 106.088C390.549 106.088 390.086 106.205 389.693 106.44C389.301 106.674 388.973 106.973 388.709 107.336C388.451 107.699 388.255 108.083 388.12 108.488C387.985 108.886 387.912 109.252 387.9 109.586ZM398.623 115H397.762V104.436C397.762 103.762 397.885 103.194 398.131 102.731C398.377 102.268 398.729 101.916 399.186 101.676C399.643 101.436 400.188 101.316 400.82 101.316C401.201 101.316 401.594 101.357 401.998 101.439C402.402 101.521 402.81 101.65 403.22 101.825L403.079 102.599C402.757 102.458 402.426 102.344 402.086 102.256C401.752 102.168 401.345 102.124 400.864 102.124C400.144 102.124 399.59 102.323 399.203 102.722C398.816 103.12 398.623 103.692 398.623 104.436V115ZM400.943 105.49V106.238H396.153V105.49H400.943ZM403.712 105.49V115H402.851V105.49H403.712ZM412.923 113.155V101.5H413.793V115H412.967L412.923 113.155ZM406.252 110.342V110.157C406.252 109.413 406.334 108.745 406.498 108.154C406.668 107.556 406.911 107.046 407.228 106.624C407.544 106.202 407.925 105.88 408.37 105.657C408.821 105.429 409.331 105.315 409.899 105.315C410.444 105.315 410.928 105.403 411.35 105.578C411.771 105.754 412.135 106.003 412.439 106.325C412.744 106.648 412.993 107.029 413.187 107.468C413.38 107.907 413.523 108.394 413.617 108.927V111.757C413.547 112.243 413.415 112.695 413.222 113.111C413.034 113.527 412.785 113.89 412.475 114.2C412.17 114.511 411.801 114.751 411.367 114.921C410.934 115.091 410.438 115.176 409.882 115.176C409.319 115.176 408.812 115.059 408.361 114.824C407.916 114.59 407.535 114.259 407.219 113.831C406.908 113.398 406.668 112.888 406.498 112.302C406.334 111.71 406.252 111.057 406.252 110.342ZM407.131 110.157V110.342C407.131 110.916 407.189 111.452 407.307 111.95C407.424 112.443 407.6 112.87 407.834 113.234C408.068 113.597 408.367 113.881 408.73 114.086C409.094 114.291 409.521 114.394 410.014 114.394C410.635 114.394 411.159 114.28 411.587 114.051C412.015 113.817 412.357 113.506 412.615 113.119C412.873 112.733 413.058 112.308 413.169 111.845V108.918C413.099 108.614 412.996 108.297 412.861 107.969C412.727 107.641 412.539 107.336 412.299 107.055C412.059 106.768 411.754 106.536 411.385 106.361C411.016 106.185 410.564 106.097 410.031 106.097C409.533 106.097 409.103 106.199 408.739 106.405C408.376 106.61 408.074 106.897 407.834 107.266C407.6 107.629 407.424 108.057 407.307 108.549C407.189 109.041 407.131 109.577 407.131 110.157ZM420.244 115.176C419.635 115.176 419.072 115.062 418.557 114.833C418.041 114.605 417.593 114.282 417.212 113.866C416.831 113.445 416.535 112.949 416.324 112.381C416.113 111.807 416.008 111.177 416.008 110.491V110.114C416.008 109.387 416.113 108.731 416.324 108.145C416.541 107.559 416.837 107.055 417.212 106.633C417.593 106.205 418.026 105.88 418.513 105.657C418.999 105.429 419.515 105.315 420.06 105.315C420.634 105.315 421.149 105.42 421.606 105.631C422.069 105.836 422.462 106.129 422.784 106.51C423.106 106.891 423.35 107.342 423.514 107.864C423.684 108.379 423.769 108.95 423.769 109.577V110.193H416.544V109.428H422.898V109.314C422.893 108.745 422.778 108.218 422.556 107.732C422.339 107.24 422.02 106.841 421.598 106.536C421.182 106.232 420.669 106.079 420.06 106.079C419.585 106.079 419.151 106.182 418.759 106.387C418.372 106.586 418.038 106.867 417.757 107.231C417.476 107.588 417.259 108.013 417.106 108.505C416.954 108.991 416.878 109.528 416.878 110.114V110.491C416.878 111.036 416.96 111.546 417.124 112.021C417.294 112.495 417.528 112.911 417.827 113.269C418.132 113.626 418.492 113.907 418.908 114.113C419.324 114.318 419.778 114.42 420.271 114.42C420.827 114.42 421.328 114.321 421.773 114.121C422.219 113.916 422.623 113.579 422.986 113.111L423.54 113.532C423.335 113.837 423.08 114.115 422.775 114.367C422.471 114.614 422.11 114.81 421.694 114.956C421.278 115.103 420.795 115.176 420.244 115.176ZM426.739 107.521V115H425.869V105.49H426.713L426.739 107.521ZM426.555 109.586L426.159 109.243C426.2 108.716 426.317 108.215 426.511 107.74C426.704 107.266 426.965 106.847 427.293 106.484C427.621 106.12 428.008 105.836 428.453 105.631C428.898 105.42 429.388 105.315 429.921 105.315C430.396 105.315 430.82 105.379 431.195 105.508C431.57 105.637 431.887 105.842 432.145 106.123C432.408 106.405 432.607 106.768 432.742 107.213C432.883 107.653 432.953 108.189 432.953 108.822V115H432.083V108.813C432.083 108.11 431.983 107.562 431.784 107.169C431.591 106.777 431.318 106.498 430.967 106.334C430.621 106.17 430.211 106.088 429.736 106.088C429.203 106.088 428.74 106.205 428.348 106.44C427.955 106.674 427.627 106.973 427.363 107.336C427.105 107.699 426.909 108.083 426.774 108.488C426.64 108.886 426.566 109.252 426.555 109.586ZM439.176 114.411C439.633 114.411 440.063 114.326 440.468 114.156C440.878 113.981 441.218 113.72 441.487 113.374C441.763 113.029 441.918 112.595 441.953 112.073H442.788C442.759 112.689 442.577 113.231 442.243 113.699C441.909 114.168 441.473 114.531 440.934 114.789C440.4 115.047 439.814 115.176 439.176 115.176C438.525 115.176 437.951 115.059 437.453 114.824C436.955 114.584 436.536 114.25 436.196 113.823C435.862 113.395 435.607 112.894 435.432 112.32C435.262 111.74 435.177 111.11 435.177 110.43V110.061C435.177 109.381 435.262 108.754 435.432 108.18C435.607 107.6 435.862 107.096 436.196 106.668C436.536 106.24 436.952 105.909 437.444 105.675C437.942 105.435 438.517 105.315 439.167 105.315C439.823 105.315 440.418 105.449 440.951 105.719C441.49 105.983 441.924 106.366 442.252 106.87C442.58 107.368 442.759 107.969 442.788 108.672H441.953C441.924 108.121 441.78 107.656 441.522 107.275C441.265 106.888 440.931 106.592 440.521 106.387C440.11 106.182 439.659 106.079 439.167 106.079C438.61 106.079 438.133 106.188 437.734 106.405C437.342 106.615 437.02 106.908 436.768 107.283C436.521 107.653 436.337 108.074 436.214 108.549C436.097 109.024 436.038 109.528 436.038 110.061V110.43C436.038 110.963 436.097 111.47 436.214 111.95C436.331 112.425 436.516 112.847 436.768 113.216C437.02 113.585 437.345 113.878 437.743 114.095C438.142 114.306 438.619 114.411 439.176 114.411ZM448.58 115.176C447.971 115.176 447.408 115.062 446.893 114.833C446.377 114.605 445.929 114.282 445.548 113.866C445.167 113.445 444.871 112.949 444.66 112.381C444.449 111.807 444.344 111.177 444.344 110.491V110.114C444.344 109.387 444.449 108.731 444.66 108.145C444.877 107.559 445.173 107.055 445.548 106.633C445.929 106.205 446.362 105.88 446.849 105.657C447.335 105.429 447.851 105.315 448.396 105.315C448.97 105.315 449.485 105.42 449.942 105.631C450.405 105.836 450.798 106.129 451.12 106.51C451.442 106.891 451.686 107.342 451.85 107.864C452.02 108.379 452.104 108.95 452.104 109.577V110.193H444.88V109.428H451.234V109.314C451.229 108.745 451.114 108.218 450.892 107.732C450.675 107.24 450.355 106.841 449.934 106.536C449.518 106.232 449.005 106.079 448.396 106.079C447.921 106.079 447.487 106.182 447.095 106.387C446.708 106.586 446.374 106.867 446.093 107.231C445.812 107.588 445.595 108.013 445.442 108.505C445.29 108.991 445.214 109.528 445.214 110.114V110.491C445.214 111.036 445.296 111.546 445.46 112.021C445.63 112.495 445.864 112.911 446.163 113.269C446.468 113.626 446.828 113.907 447.244 114.113C447.66 114.318 448.114 114.42 448.606 114.42C449.163 114.42 449.664 114.321 450.109 114.121C450.555 113.916 450.959 113.579 451.322 113.111L451.876 113.532C451.671 113.837 451.416 114.115 451.111 114.367C450.807 114.614 450.446 114.81 450.03 114.956C449.614 115.103 449.131 115.176 448.58 115.176ZM464.409 113.269V108.365C464.409 107.89 464.31 107.483 464.11 107.143C463.911 106.797 463.618 106.533 463.231 106.352C462.851 106.164 462.379 106.071 461.816 106.071C461.301 106.071 460.838 106.161 460.428 106.343C460.023 106.525 459.701 106.771 459.461 107.081C459.227 107.392 459.109 107.738 459.109 108.118L458.248 108.101C458.248 107.743 458.333 107.398 458.503 107.064C458.679 106.73 458.925 106.431 459.241 106.167C459.563 105.904 459.944 105.696 460.384 105.543C460.829 105.391 461.318 105.315 461.852 105.315C462.525 105.315 463.117 105.429 463.627 105.657C464.143 105.88 464.547 106.22 464.84 106.677C465.133 107.128 465.279 107.697 465.279 108.382V113.031C465.279 113.36 465.303 113.699 465.35 114.051C465.396 114.403 465.467 114.687 465.561 114.904V115H464.62C464.55 114.783 464.497 114.517 464.462 114.2C464.427 113.878 464.409 113.568 464.409 113.269ZM464.646 109.533L464.664 110.245H462.476C461.907 110.245 461.4 110.298 460.955 110.404C460.516 110.503 460.141 110.65 459.83 110.843C459.525 111.036 459.291 111.271 459.127 111.546C458.963 111.816 458.881 112.12 458.881 112.46C458.881 112.812 458.972 113.134 459.153 113.427C459.335 113.72 459.593 113.954 459.927 114.13C460.267 114.3 460.662 114.385 461.113 114.385C461.723 114.385 462.262 114.277 462.73 114.06C463.205 113.843 463.598 113.553 463.908 113.19C464.219 112.821 464.438 112.407 464.567 111.95L464.945 112.504C464.857 112.803 464.711 113.111 464.506 113.427C464.301 113.738 464.034 114.025 463.706 114.288C463.378 114.552 462.991 114.766 462.546 114.93C462.106 115.094 461.603 115.176 461.034 115.176C460.425 115.176 459.892 115.062 459.435 114.833C458.983 114.599 458.632 114.282 458.38 113.884C458.134 113.48 458.011 113.023 458.011 112.513C458.011 112.062 458.11 111.655 458.31 111.291C458.509 110.922 458.796 110.609 459.171 110.351C459.546 110.087 460.003 109.885 460.542 109.744C461.081 109.604 461.688 109.533 462.361 109.533H464.646ZM469.032 107.521V115H468.162V105.49H469.006L469.032 107.521ZM468.848 109.586L468.452 109.243C468.493 108.716 468.61 108.215 468.804 107.74C468.997 107.266 469.258 106.847 469.586 106.484C469.914 106.12 470.301 105.836 470.746 105.631C471.191 105.42 471.681 105.315 472.214 105.315C472.688 105.315 473.113 105.379 473.488 105.508C473.863 105.637 474.18 105.842 474.438 106.123C474.701 106.405 474.9 106.768 475.035 107.213C475.176 107.653 475.246 108.189 475.246 108.822V115H474.376V108.813C474.376 108.11 474.276 107.562 474.077 107.169C473.884 106.777 473.611 106.498 473.26 106.334C472.914 106.17 472.504 106.088 472.029 106.088C471.496 106.088 471.033 106.205 470.641 106.44C470.248 106.674 469.92 106.973 469.656 107.336C469.398 107.699 469.202 108.083 469.067 108.488C468.933 108.886 468.859 109.252 468.848 109.586ZM484.29 113.155V101.5H485.16V115H484.334L484.29 113.155ZM477.619 110.342V110.157C477.619 109.413 477.701 108.745 477.865 108.154C478.035 107.556 478.278 107.046 478.595 106.624C478.911 106.202 479.292 105.88 479.737 105.657C480.188 105.429 480.698 105.315 481.267 105.315C481.812 105.315 482.295 105.403 482.717 105.578C483.139 105.754 483.502 106.003 483.807 106.325C484.111 106.648 484.36 107.029 484.554 107.468C484.747 107.907 484.891 108.394 484.984 108.927V111.757C484.914 112.243 484.782 112.695 484.589 113.111C484.401 113.527 484.152 113.89 483.842 114.2C483.537 114.511 483.168 114.751 482.734 114.921C482.301 115.091 481.806 115.176 481.249 115.176C480.687 115.176 480.18 115.059 479.729 114.824C479.283 114.59 478.902 114.259 478.586 113.831C478.275 113.398 478.035 112.888 477.865 112.302C477.701 111.71 477.619 111.057 477.619 110.342ZM478.498 110.157V110.342C478.498 110.916 478.557 111.452 478.674 111.95C478.791 112.443 478.967 112.87 479.201 113.234C479.436 113.597 479.734 113.881 480.098 114.086C480.461 114.291 480.889 114.394 481.381 114.394C482.002 114.394 482.526 114.28 482.954 114.051C483.382 113.817 483.725 113.506 483.982 113.119C484.24 112.733 484.425 112.308 484.536 111.845V108.918C484.466 108.614 484.363 108.297 484.229 107.969C484.094 107.641 483.906 107.336 483.666 107.055C483.426 106.768 483.121 106.536 482.752 106.361C482.383 106.185 481.932 106.097 481.398 106.097C480.9 106.097 480.47 106.199 480.106 106.405C479.743 106.61 479.441 106.897 479.201 107.266C478.967 107.629 478.791 108.057 478.674 108.549C478.557 109.041 478.498 109.577 478.498 110.157ZM493.237 107.09V115H492.367V105.49H493.22L493.237 107.09ZM496.735 105.42L496.7 106.211C496.589 106.194 496.478 106.182 496.366 106.176C496.261 106.164 496.146 106.158 496.023 106.158C495.543 106.158 495.121 106.249 494.758 106.431C494.395 106.613 494.09 106.865 493.844 107.187C493.604 107.509 493.419 107.884 493.29 108.312C493.167 108.734 493.1 109.191 493.088 109.683L492.728 109.788C492.728 109.15 492.792 108.561 492.921 108.022C493.056 107.477 493.261 107.002 493.536 106.598C493.812 106.194 494.157 105.88 494.573 105.657C494.989 105.429 495.481 105.315 496.05 105.315C496.185 105.315 496.313 105.326 496.437 105.35C496.565 105.367 496.665 105.391 496.735 105.42ZM497.623 110.404V110.087C497.623 109.396 497.723 108.76 497.922 108.18C498.121 107.594 498.405 107.087 498.774 106.659C499.144 106.232 499.586 105.901 500.102 105.666C500.623 105.432 501.2 105.315 501.833 105.315C502.472 105.315 503.049 105.432 503.564 105.666C504.086 105.901 504.531 106.232 504.9 106.659C505.275 107.087 505.562 107.594 505.762 108.18C505.961 108.76 506.061 109.396 506.061 110.087V110.404C506.061 111.095 505.961 111.734 505.762 112.32C505.562 112.9 505.275 113.404 504.9 113.831C504.531 114.259 504.089 114.59 503.573 114.824C503.058 115.059 502.483 115.176 501.851 115.176C501.212 115.176 500.632 115.059 500.11 114.824C499.595 114.59 499.149 114.259 498.774 113.831C498.405 113.404 498.121 112.9 497.922 112.32C497.723 111.734 497.623 111.095 497.623 110.404ZM498.484 110.087V110.404C498.484 110.937 498.558 111.447 498.704 111.933C498.856 112.413 499.073 112.841 499.354 113.216C499.642 113.585 499.993 113.878 500.409 114.095C500.831 114.306 501.312 114.411 501.851 114.411C502.384 114.411 502.855 114.306 503.266 114.095C503.682 113.878 504.03 113.585 504.312 113.216C504.599 112.841 504.815 112.413 504.962 111.933C505.114 111.447 505.19 110.937 505.19 110.404V110.087C505.19 109.566 505.114 109.065 504.962 108.584C504.815 108.104 504.599 107.676 504.312 107.301C504.024 106.926 503.673 106.63 503.257 106.413C502.841 106.191 502.366 106.079 501.833 106.079C501.3 106.079 500.825 106.191 500.409 106.413C499.993 106.63 499.642 106.926 499.354 107.301C499.067 107.676 498.851 108.104 498.704 108.584C498.558 109.065 498.484 109.566 498.484 110.087ZM507.66 110.404V110.087C507.66 109.396 507.76 108.76 507.959 108.18C508.158 107.594 508.442 107.087 508.812 106.659C509.181 106.232 509.623 105.901 510.139 105.666C510.66 105.432 511.237 105.315 511.87 105.315C512.509 105.315 513.086 105.432 513.602 105.666C514.123 105.901 514.568 106.232 514.938 106.659C515.312 107.087 515.6 107.594 515.799 108.18C515.998 108.76 516.098 109.396 516.098 110.087V110.404C516.098 111.095 515.998 111.734 515.799 112.32C515.6 112.9 515.312 113.404 514.938 113.831C514.568 114.259 514.126 114.59 513.61 114.824C513.095 115.059 512.521 115.176 511.888 115.176C511.249 115.176 510.669 115.059 510.147 114.824C509.632 114.59 509.187 114.259 508.812 113.831C508.442 113.404 508.158 112.9 507.959 112.32C507.76 111.734 507.66 111.095 507.66 110.404ZM508.521 110.087V110.404C508.521 110.937 508.595 111.447 508.741 111.933C508.894 112.413 509.11 112.841 509.392 113.216C509.679 113.585 510.03 113.878 510.446 114.095C510.868 114.306 511.349 114.411 511.888 114.411C512.421 114.411 512.893 114.306 513.303 114.095C513.719 113.878 514.067 113.585 514.349 113.216C514.636 112.841 514.853 112.413 514.999 111.933C515.151 111.447 515.228 110.937 515.228 110.404V110.087C515.228 109.566 515.151 109.065 514.999 108.584C514.853 108.104 514.636 107.676 514.349 107.301C514.062 106.926 513.71 106.63 513.294 106.413C512.878 106.191 512.403 106.079 511.87 106.079C511.337 106.079 510.862 106.191 510.446 106.413C510.03 106.63 509.679 106.926 509.392 107.301C509.104 107.676 508.888 108.104 508.741 108.584C508.595 109.065 508.521 109.566 508.521 110.087ZM519.121 107.477V115H518.242V105.49H519.095L519.121 107.477ZM518.972 109.586L518.541 109.243C518.582 108.716 518.693 108.215 518.875 107.74C519.062 107.266 519.317 106.847 519.64 106.484C519.962 106.12 520.343 105.836 520.782 105.631C521.228 105.42 521.729 105.315 522.285 105.315C522.754 105.315 523.176 105.379 523.551 105.508C523.932 105.631 524.254 105.827 524.518 106.097C524.781 106.361 524.983 106.706 525.124 107.134C525.271 107.562 525.344 108.074 525.344 108.672V115H524.474V108.698C524.474 108.025 524.371 107.5 524.166 107.125C523.967 106.75 523.686 106.484 523.322 106.325C522.959 106.167 522.54 106.088 522.065 106.088C521.509 106.088 521.037 106.205 520.65 106.44C520.264 106.674 519.947 106.973 519.701 107.336C519.461 107.699 519.282 108.083 519.165 108.488C519.048 108.886 518.983 109.252 518.972 109.586ZM525.335 108.778L524.755 108.698C524.796 108.259 524.91 107.837 525.098 107.433C525.285 107.023 525.54 106.659 525.862 106.343C526.185 106.027 526.568 105.778 527.014 105.596C527.459 105.408 527.954 105.315 528.499 105.315C528.985 105.315 529.419 105.382 529.8 105.517C530.187 105.646 530.512 105.854 530.775 106.141C531.045 106.422 531.247 106.782 531.382 107.222C531.522 107.661 531.593 108.192 531.593 108.813V115H530.723V108.813C530.723 108.098 530.62 107.544 530.415 107.152C530.216 106.753 529.935 106.475 529.571 106.317C529.208 106.158 528.789 106.082 528.314 106.088C527.822 106.094 527.392 106.185 527.022 106.361C526.659 106.536 526.354 106.762 526.108 107.037C525.868 107.307 525.684 107.597 525.555 107.907C525.426 108.212 525.353 108.502 525.335 108.778ZM542.175 105.49V106.238H537.517V105.49H542.175ZM539.266 103.012H540.145V112.698C540.145 113.172 540.203 113.532 540.32 113.779C540.443 114.019 540.604 114.18 540.804 114.262C541.003 114.344 541.217 114.385 541.445 114.385C541.609 114.385 541.762 114.376 541.902 114.359C542.049 114.341 542.189 114.321 542.324 114.297L542.377 115.044C542.248 115.085 542.081 115.117 541.876 115.141C541.671 115.164 541.478 115.176 541.296 115.176C540.892 115.176 540.537 115.103 540.232 114.956C539.928 114.804 539.69 114.549 539.521 114.192C539.351 113.828 539.266 113.33 539.266 112.698V103.012ZM543.66 110.404V110.087C543.66 109.396 543.76 108.76 543.959 108.18C544.158 107.594 544.442 107.087 544.812 106.659C545.181 106.232 545.623 105.901 546.139 105.666C546.66 105.432 547.237 105.315 547.87 105.315C548.509 105.315 549.086 105.432 549.602 105.666C550.123 105.901 550.568 106.232 550.938 106.659C551.312 107.087 551.6 107.594 551.799 108.18C551.998 108.76 552.098 109.396 552.098 110.087V110.404C552.098 111.095 551.998 111.734 551.799 112.32C551.6 112.9 551.312 113.404 550.938 113.831C550.568 114.259 550.126 114.59 549.61 114.824C549.095 115.059 548.521 115.176 547.888 115.176C547.249 115.176 546.669 115.059 546.147 114.824C545.632 114.59 545.187 114.259 544.812 113.831C544.442 113.404 544.158 112.9 543.959 112.32C543.76 111.734 543.66 111.095 543.66 110.404ZM544.521 110.087V110.404C544.521 110.937 544.595 111.447 544.741 111.933C544.894 112.413 545.11 112.841 545.392 113.216C545.679 113.585 546.03 113.878 546.446 114.095C546.868 114.306 547.349 114.411 547.888 114.411C548.421 114.411 548.893 114.306 549.303 114.095C549.719 113.878 550.067 113.585 550.349 113.216C550.636 112.841 550.853 112.413 550.999 111.933C551.151 111.447 551.228 110.937 551.228 110.404V110.087C551.228 109.566 551.151 109.065 550.999 108.584C550.853 108.104 550.636 107.676 550.349 107.301C550.062 106.926 549.71 106.63 549.294 106.413C548.878 106.191 548.403 106.079 547.87 106.079C547.337 106.079 546.862 106.191 546.446 106.413C546.03 106.63 545.679 106.926 545.392 107.301C545.104 107.676 544.888 108.104 544.741 108.584C544.595 109.065 544.521 109.566 544.521 110.087ZM564.965 105.49H565.782V114.842C565.782 115.662 565.63 116.368 565.325 116.96C565.021 117.558 564.587 118.015 564.024 118.331C563.468 118.648 562.809 118.806 562.047 118.806C561.631 118.806 561.221 118.744 560.816 118.621C560.412 118.498 560.034 118.314 559.683 118.068C559.337 117.827 559.041 117.534 558.795 117.189L559.305 116.653C559.686 117.121 560.096 117.47 560.535 117.698C560.975 117.927 561.461 118.041 561.994 118.041C562.621 118.041 563.151 117.912 563.585 117.655C564.019 117.403 564.347 117.039 564.569 116.565C564.798 116.09 564.912 115.525 564.912 114.868V107.582L564.965 105.49ZM558.25 110.342V110.157C558.25 109.413 558.332 108.745 558.496 108.154C558.66 107.556 558.897 107.046 559.208 106.624C559.524 106.202 559.908 105.88 560.359 105.657C560.811 105.429 561.32 105.315 561.889 105.315C562.434 105.315 562.917 105.403 563.339 105.578C563.761 105.754 564.124 106.003 564.429 106.325C564.739 106.648 564.991 107.029 565.185 107.468C565.378 107.907 565.521 108.394 565.615 108.927V111.757C565.539 112.243 565.407 112.695 565.22 113.111C565.032 113.527 564.783 113.89 564.473 114.2C564.162 114.511 563.79 114.751 563.356 114.921C562.929 115.091 562.434 115.176 561.871 115.176C561.309 115.176 560.802 115.059 560.351 114.824C559.905 114.59 559.524 114.259 559.208 113.831C558.897 113.398 558.66 112.888 558.496 112.302C558.332 111.71 558.25 111.057 558.25 110.342ZM559.12 110.157V110.342C559.12 110.916 559.179 111.452 559.296 111.95C559.413 112.443 559.589 112.87 559.823 113.234C560.063 113.597 560.362 113.881 560.72 114.086C561.083 114.291 561.511 114.394 562.003 114.394C562.624 114.394 563.148 114.28 563.576 114.051C564.004 113.817 564.344 113.506 564.596 113.119C564.848 112.733 565.026 112.308 565.132 111.845V108.918C565.067 108.614 564.968 108.297 564.833 107.969C564.704 107.641 564.52 107.336 564.279 107.055C564.045 106.768 563.743 106.536 563.374 106.361C563.005 106.185 562.554 106.097 562.021 106.097C561.522 106.097 561.092 106.199 560.729 106.405C560.365 106.61 560.063 106.897 559.823 107.266C559.589 107.629 559.413 108.057 559.296 108.549C559.179 109.041 559.12 109.577 559.12 110.157ZM569.491 107.09V115H568.621V105.49H569.474L569.491 107.09ZM572.989 105.42L572.954 106.211C572.843 106.194 572.731 106.182 572.62 106.176C572.515 106.164 572.4 106.158 572.277 106.158C571.797 106.158 571.375 106.249 571.012 106.431C570.648 106.613 570.344 106.865 570.098 107.187C569.857 107.509 569.673 107.884 569.544 108.312C569.421 108.734 569.354 109.191 569.342 109.683L568.981 109.788C568.981 109.15 569.046 108.561 569.175 108.022C569.31 107.477 569.515 107.002 569.79 106.598C570.065 106.194 570.411 105.88 570.827 105.657C571.243 105.429 571.735 105.315 572.304 105.315C572.438 105.315 572.567 105.326 572.69 105.35C572.819 105.367 572.919 105.391 572.989 105.42ZM573.877 110.404V110.087C573.877 109.396 573.977 108.76 574.176 108.18C574.375 107.594 574.659 107.087 575.028 106.659C575.397 106.232 575.84 105.901 576.355 105.666C576.877 105.432 577.454 105.315 578.087 105.315C578.726 105.315 579.303 105.432 579.818 105.666C580.34 105.901 580.785 106.232 581.154 106.659C581.529 107.087 581.816 107.594 582.016 108.18C582.215 108.76 582.314 109.396 582.314 110.087V110.404C582.314 111.095 582.215 111.734 582.016 112.32C581.816 112.9 581.529 113.404 581.154 113.831C580.785 114.259 580.343 114.59 579.827 114.824C579.312 115.059 578.737 115.176 578.104 115.176C577.466 115.176 576.886 115.059 576.364 114.824C575.849 114.59 575.403 114.259 575.028 113.831C574.659 113.404 574.375 112.9 574.176 112.32C573.977 111.734 573.877 111.095 573.877 110.404ZM574.738 110.087V110.404C574.738 110.937 574.812 111.447 574.958 111.933C575.11 112.413 575.327 112.841 575.608 113.216C575.896 113.585 576.247 113.878 576.663 114.095C577.085 114.306 577.565 114.411 578.104 114.411C578.638 114.411 579.109 114.306 579.52 114.095C579.936 113.878 580.284 113.585 580.565 113.216C580.853 112.841 581.069 112.413 581.216 111.933C581.368 111.447 581.444 110.937 581.444 110.404V110.087C581.444 109.566 581.368 109.065 581.216 108.584C581.069 108.104 580.853 107.676 580.565 107.301C580.278 106.926 579.927 106.63 579.511 106.413C579.095 106.191 578.62 106.079 578.087 106.079C577.554 106.079 577.079 106.191 576.663 106.413C576.247 106.63 575.896 106.926 575.608 107.301C575.321 107.676 575.104 108.104 574.958 108.584C574.812 109.065 574.738 109.566 574.738 110.087ZM587.245 112.61L589.486 105.49H590.137L589.618 107.582L587.245 115H586.595L587.245 112.61ZM584.635 105.49L586.63 112.645L587.14 115H586.48L583.721 105.49H584.635ZM593.151 112.618L595.103 105.49H596.017L593.248 115H592.598L593.151 112.618ZM590.251 105.49L592.475 112.566L593.134 115H592.492L590.066 107.573L589.583 105.49H590.251Z" fill="white"/>
<mask id="path-7-outside-1_446_229" maskUnits="userSpaceOnUse" x="0" y="48.0002" width="63" height="82" fill="black">
<rect fill="white" y="48.0002" width="63" height="82"/>
<path d="M57.5254 97.217V109.912H6.35352L5.37695 99.8538L33.9414 53.9065H46.9297L32.8184 77.0022L21.0996 97.217H57.5254ZM50.3477 53.9065V125H33.8926V53.9065H50.3477Z"/>
</mask>
<path d="M57.5254 97.217H62.5254V92.217H57.5254V97.217ZM57.5254 109.912V114.912H62.5254V109.912H57.5254ZM6.35352 109.912L1.37692 110.396L1.81544 114.912H6.35352V109.912ZM5.37695 99.8538L1.13064 97.2139L0.236746 98.6518L0.400353 100.337L5.37695 99.8538ZM33.9414 53.9065V48.9065H31.1623L29.6951 51.2666L33.9414 53.9065ZM46.9297 53.9065L51.1963 56.5134L55.8441 48.9065H46.9297V53.9065ZM32.8184 77.0022L28.5517 74.3953L28.5216 74.4446L28.4927 74.4945L32.8184 77.0022ZM21.0996 97.217L16.7739 94.7094L12.4216 102.217H21.0996V97.217ZM50.3477 53.9065H55.3477V48.9065H50.3477V53.9065ZM50.3477 125V130H55.3477V125H50.3477ZM33.8926 125H28.8926V130H33.8926V125ZM33.8926 53.9065V48.9065H28.8926V53.9065H33.8926ZM57.5254 97.217H52.5254V109.912H57.5254H62.5254V97.217H57.5254ZM57.5254 109.912V104.912H6.35352V109.912V114.912H57.5254V109.912ZM6.35352 109.912L11.3301 109.429L10.3536 99.3706L5.37695 99.8538L0.400353 100.337L1.37692 110.396L6.35352 109.912ZM5.37695 99.8538L9.62327 102.494L38.1877 56.5463L33.9414 53.9065L29.6951 51.2666L1.13064 97.2139L5.37695 99.8538ZM33.9414 53.9065V58.9065H46.9297V53.9065V48.9065H33.9414V53.9065ZM46.9297 53.9065L42.6631 51.2996L28.5517 74.3953L32.8184 77.0022L37.085 79.6091L51.1963 56.5134L46.9297 53.9065ZM32.8184 77.0022L28.4927 74.4945L16.7739 94.7094L21.0996 97.217L25.4253 99.7247L37.1441 79.5098L32.8184 77.0022ZM21.0996 97.217V102.217H57.5254V97.217V92.217H21.0996V97.217ZM50.3477 53.9065H45.3477V125H50.3477H55.3477V53.9065H50.3477ZM50.3477 125V120H33.8926V125V130H50.3477V125ZM33.8926 125H38.8926V53.9065H33.8926H28.8926V125H33.8926ZM33.8926 53.9065V58.9065H50.3477V53.9065V48.9065H33.8926V53.9065Z" fill="#1A5069" mask="url(#path-7-outside-1_446_229)"/>
<defs>
<radialGradient id="paint0_radial_446_229" cx="0" cy="0" r="1" gradientUnits="userSpaceOnUse" gradientTransform="translate(96.2629 367.631) scale(96.2629 367.631)">
<stop stop-color="#1A5069"/>
<stop offset="1" stop-color="#0F7BAE" stop-opacity="0"/>
</radialGradient>
<radialGradient id="paint1_radial_446_229" cx="0" cy="0" r="1" gradientUnits="userSpaceOnUse" gradientTransform="translate(96.2629 367.631) scale(96.2629 367.631)">
<stop stop-color="#1A5069"/>
<stop offset="1" stop-color="#0F7BAE" stop-opacity="0"/>
</radialGradient>
</defs>
</svg>
