<svg width="795" height="180" viewBox="0 0 795 180" fill="none" xmlns="http://www.w3.org/2000/svg">
<mask id="mask0_446_195" style="mask-type:alpha" maskUnits="userSpaceOnUse" x="68" y="0" width="727" height="180">
<rect x="-1.00159" y="0.995166" width="174.036" height="724.019" rx="87.0179" transform="matrix(-0.00160036 0.999999 -0.999988 -0.00483255 794.285 5.51011)" fill="black" stroke="#136A93" stroke-width="2"/>
</mask>
<g mask="url(#mask0_446_195)">
<rect width="192.526" height="735.262" rx="47.5" transform="matrix(-0.00160036 0.999999 -0.999988 -0.00483255 1069.4 68.4429)" fill="url(#paint0_radial_446_195)" fill-opacity="0.74"/>
<rect width="192.526" height="735.262" rx="47.5" transform="matrix(-0.00160036 0.999999 -0.999988 -0.00483255 528.426 -57.9541)" fill="url(#paint1_radial_446_195)" fill-opacity="0.74"/>
</g>
<rect x="71.291" y="1.54663" width="722.708" height="175.235" rx="87.6177" fill="#D9D9D9" fill-opacity="0.14" stroke="#136A93" stroke-width="2"/>
<path d="M272.634 54.1174V79.0002H267.935V54.1174H272.634ZM288.209 75.0696V52.7502H292.755V79.0002H288.654L288.209 75.0696ZM276.332 69.9768V69.6179C276.332 68.2052 276.492 66.9234 276.811 65.7727C277.141 64.6106 277.619 63.6137 278.246 62.782C278.873 61.9503 279.63 61.3066 280.519 60.8508C281.419 60.3951 282.439 60.1672 283.578 60.1672C284.683 60.1672 285.646 60.3894 286.466 60.8337C287.298 61.2781 288.004 61.9104 288.585 62.7307C289.178 63.551 289.651 64.5251 290.004 65.6531C290.357 66.7696 290.613 68.0001 290.773 69.3445V70.3186C290.613 71.6288 290.357 72.8308 290.004 73.9246C289.651 75.0183 289.178 75.9753 288.585 76.7957C288.004 77.6046 287.298 78.2312 286.466 78.6755C285.635 79.1199 284.66 79.342 283.544 79.342C282.416 79.342 281.402 79.1085 280.502 78.6414C279.613 78.1742 278.856 77.5191 278.229 76.676C277.614 75.8329 277.141 74.8417 276.811 73.7024C276.492 72.5631 276.332 71.3212 276.332 69.9768ZM280.861 69.6179V69.9768C280.861 70.7743 280.929 71.5206 281.066 72.2156C281.203 72.9106 281.425 73.5258 281.732 74.0613C282.04 74.5854 282.433 74.9955 282.912 75.2917C283.402 75.588 283.994 75.7361 284.689 75.7361C285.578 75.7361 286.307 75.5424 286.876 75.155C287.458 74.7563 287.908 74.2151 288.227 73.5315C288.546 72.8365 288.751 72.0561 288.842 71.1902V68.5071C288.796 67.8235 288.677 67.1912 288.483 66.6101C288.301 66.0291 288.039 65.5278 287.697 65.1062C287.366 64.6847 286.956 64.3542 286.466 64.115C285.976 63.8757 285.395 63.7561 284.723 63.7561C284.028 63.7561 283.436 63.9099 282.946 64.2175C282.456 64.5138 282.057 64.9296 281.75 65.4651C281.442 66.0006 281.214 66.6215 281.066 67.3279C280.929 68.0343 280.861 68.7976 280.861 69.6179ZM304.896 79.342C303.494 79.342 302.235 79.1142 301.119 78.6584C300.002 78.2027 299.051 77.5704 298.265 76.7615C297.49 75.9412 296.892 74.9898 296.47 73.9075C296.06 72.8137 295.855 71.6402 295.855 70.387V69.7034C295.855 68.2792 296.06 66.9861 296.47 65.824C296.88 64.6505 297.461 63.6422 298.213 62.7991C298.965 61.956 299.865 61.3066 300.914 60.8508C301.962 60.3951 303.118 60.1672 304.383 60.1672C305.693 60.1672 306.849 60.3894 307.852 60.8337C308.855 61.2667 309.692 61.8819 310.364 62.6794C311.036 63.477 311.543 64.434 311.885 65.5505C312.227 66.6557 312.398 67.8805 312.398 69.2249V71.1218H297.906V68.0115H307.955V67.6697C307.932 66.9519 307.795 66.2968 307.544 65.7043C307.294 65.1005 306.906 64.622 306.382 64.2688C305.858 63.9042 305.18 63.7219 304.349 63.7219C303.676 63.7219 303.09 63.87 302.588 64.1663C302.098 64.4511 301.688 64.8612 301.358 65.3967C301.039 65.9208 300.8 66.5474 300.64 67.2766C300.481 68.0058 300.401 68.8147 300.401 69.7034V70.387C300.401 71.1617 300.503 71.8795 300.708 72.5403C300.925 73.2011 301.238 73.7764 301.648 74.2664C302.07 74.7449 302.571 75.1208 303.152 75.3943C303.745 75.6563 304.417 75.7874 305.169 75.7874C306.115 75.7874 306.969 75.6051 307.732 75.2405C308.507 74.8645 309.179 74.3119 309.749 73.5828L312.022 75.9412C311.635 76.5108 311.111 77.0577 310.45 77.5818C309.8 78.1059 309.014 78.5331 308.091 78.8635C307.168 79.1825 306.103 79.342 304.896 79.342ZM325.358 75.0696V66.5417C325.358 65.9151 325.25 65.3739 325.034 64.9182C324.817 64.4625 324.487 64.1093 324.042 63.8586C323.598 63.608 323.034 63.4827 322.351 63.4827C321.747 63.4827 321.217 63.5852 320.761 63.7903C320.317 63.9954 319.975 64.2859 319.736 64.6619C319.497 65.0264 319.377 65.448 319.377 65.9265H314.848C314.848 65.1632 315.03 64.4397 315.395 63.7561C315.76 63.0611 316.278 62.4459 316.95 61.9104C317.634 61.3635 318.448 60.9363 319.394 60.6287C320.351 60.321 321.422 60.1672 322.607 60.1672C324.008 60.1672 325.256 60.4065 326.35 60.885C327.455 61.3521 328.321 62.0585 328.947 63.0042C329.585 63.9498 329.904 65.1404 329.904 66.5759V74.6423C329.904 75.5652 329.961 76.357 330.075 77.0178C330.201 77.6672 330.383 78.2312 330.622 78.7097V79.0002H326.025C325.808 78.5331 325.643 77.9407 325.529 77.2229C325.415 76.4937 325.358 75.776 325.358 75.0696ZM325.991 67.738L326.025 70.4211H323.171C322.465 70.4211 321.844 70.4952 321.308 70.6433C320.773 70.78 320.334 70.9851 319.992 71.2585C319.65 71.5206 319.394 71.8396 319.223 72.2156C319.052 72.5802 318.967 72.996 318.967 73.4631C318.967 73.9189 319.069 74.329 319.274 74.6936C319.491 75.0582 319.799 75.3487 320.197 75.5652C320.607 75.7703 321.086 75.8728 321.633 75.8728C322.43 75.8728 323.125 75.7133 323.718 75.3943C324.31 75.0639 324.772 74.6651 325.102 74.198C325.432 73.7309 325.609 73.2865 325.632 72.865L326.931 74.8132C326.771 75.2804 326.532 75.776 326.213 76.3C325.894 76.8241 325.484 77.314 324.982 77.7698C324.481 78.2255 323.877 78.6015 323.171 78.8977C322.465 79.1939 321.644 79.342 320.71 79.342C319.514 79.342 318.443 79.1028 317.497 78.6243C316.551 78.1458 315.805 77.4906 315.258 76.6589C314.711 75.8272 314.438 74.8816 314.438 73.822C314.438 72.8422 314.62 71.9763 314.985 71.2244C315.349 70.4724 315.891 69.8401 316.608 69.3274C317.326 68.8033 318.215 68.4102 319.274 68.1482C320.345 67.8748 321.57 67.738 322.949 67.738H325.991ZM342.472 60.509V63.7561H331.876V60.509H342.472ZM334.713 55.9631H339.242V73.6682C339.242 74.2151 339.316 74.6366 339.464 74.9329C339.612 75.2291 339.834 75.4285 340.13 75.531C340.427 75.6335 340.78 75.6848 341.19 75.6848C341.486 75.6848 341.76 75.6677 342.01 75.6335C342.261 75.5994 342.472 75.5652 342.643 75.531L342.66 78.9148C342.284 79.0401 341.856 79.1427 341.378 79.2224C340.911 79.3022 340.381 79.342 339.789 79.342C338.775 79.342 337.886 79.1711 337.123 78.8293C336.359 78.4762 335.767 77.9122 335.345 77.1375C334.924 76.3513 334.713 75.3145 334.713 74.0271V55.9631ZM353.535 79.342C352.134 79.342 350.875 79.1142 349.758 78.6584C348.642 78.2027 347.69 77.5704 346.904 76.7615C346.13 75.9412 345.531 74.9898 345.11 73.9075C344.7 72.8137 344.495 71.6402 344.495 70.387V69.7034C344.495 68.2792 344.7 66.9861 345.11 65.824C345.52 64.6505 346.101 63.6422 346.853 62.7991C347.605 61.956 348.505 61.3066 349.553 60.8508C350.601 60.3951 351.758 60.1672 353.022 60.1672C354.333 60.1672 355.489 60.3894 356.492 60.8337C357.494 61.2667 358.332 61.8819 359.004 62.6794C359.676 63.477 360.183 64.434 360.525 65.5505C360.867 66.6557 361.038 67.8805 361.038 69.2249V71.1218H346.545V68.0115H356.594V67.6697C356.571 66.9519 356.435 66.2968 356.184 65.7043C355.933 65.1005 355.546 64.622 355.022 64.2688C354.498 63.9042 353.82 63.7219 352.988 63.7219C352.316 63.7219 351.729 63.87 351.228 64.1663C350.738 64.4511 350.328 64.8612 349.998 65.3967C349.679 65.9208 349.439 66.5474 349.28 67.2766C349.12 68.0058 349.041 68.8147 349.041 69.7034V70.387C349.041 71.1617 349.143 71.8795 349.348 72.5403C349.565 73.2011 349.878 73.7764 350.288 74.2664C350.71 74.7449 351.211 75.1208 351.792 75.3943C352.384 75.6563 353.057 75.7874 353.809 75.7874C354.754 75.7874 355.609 75.6051 356.372 75.2405C357.147 74.8645 357.819 74.3119 358.389 73.5828L360.662 75.9412C360.274 76.5108 359.75 77.0577 359.089 77.5818C358.44 78.1059 357.654 78.5331 356.731 78.8635C355.808 79.1825 354.743 79.342 353.535 79.342ZM376.346 65.5676L380.875 62.594C381.592 62.1155 382.088 61.6541 382.361 61.2097C382.635 60.7654 382.771 60.2299 382.771 59.6033C382.771 59.045 382.555 58.5266 382.122 58.0481C381.701 57.5582 381.102 57.3132 380.328 57.3132C379.781 57.3132 379.319 57.4386 378.943 57.6892C378.567 57.9399 378.283 58.276 378.089 58.6975C377.907 59.1077 377.815 59.5634 377.815 60.0647C377.815 60.5774 377.946 61.1015 378.208 61.637C378.482 62.1724 378.847 62.7364 379.302 63.3289C379.769 63.9099 380.288 64.5422 380.857 65.2258L392.598 79.0002H387.437L377.833 67.8235C377.024 66.8209 376.306 65.898 375.679 65.0549C375.053 64.2118 374.563 63.3972 374.209 62.6111C373.868 61.8136 373.697 60.9932 373.697 60.1501C373.697 58.8513 373.97 57.7234 374.517 56.7664C375.064 55.8093 375.833 55.0688 376.824 54.5447C377.827 54.0206 379 53.7585 380.345 53.7585C381.621 53.7585 382.72 54.0206 383.643 54.5447C384.577 55.0574 385.301 55.741 385.813 56.5955C386.326 57.45 386.583 58.3842 386.583 59.3982C386.583 60.1729 386.44 60.8907 386.155 61.5515C385.87 62.2009 385.477 62.7991 384.976 63.3459C384.475 63.8814 383.894 64.3884 383.233 64.8669L377.901 68.6951C377.388 69.128 377.001 69.5553 376.739 69.9768C376.488 70.387 376.317 70.7686 376.226 71.1218C376.146 71.475 376.106 71.8054 376.106 72.113C376.106 72.808 376.255 73.4347 376.551 73.9929C376.858 74.5398 377.291 74.9784 377.85 75.3088C378.419 75.6278 379.091 75.7874 379.866 75.7874C380.812 75.7874 381.723 75.5766 382.601 75.155C383.478 74.7335 384.264 74.1353 384.959 73.3606C385.665 72.5859 386.224 71.663 386.634 70.592C387.055 69.5097 387.266 68.3191 387.266 67.0203H391.128C391.128 68.2621 391.009 69.4413 390.77 70.5579C390.53 71.663 390.143 72.6884 389.607 73.634C389.072 74.5797 388.371 75.4228 387.505 76.1633C387.426 76.2317 387.329 76.3228 387.215 76.4368C387.112 76.5507 387.021 76.6418 386.941 76.7102C385.905 77.5989 384.782 78.2654 383.575 78.7097C382.378 79.1427 381.074 79.3591 379.661 79.3591C377.998 79.3591 376.562 79.0572 375.354 78.4534C374.147 77.8495 373.213 77.0178 372.552 75.9583C371.902 74.8987 371.578 73.6853 371.578 72.3181C371.578 71.3041 371.777 70.4211 372.176 69.6692C372.586 68.9058 373.15 68.1995 373.868 67.55C374.585 66.8892 375.411 66.2284 376.346 65.5676ZM416.588 72.5403C416.588 72.0618 416.514 71.6345 416.366 71.2585C416.229 70.8712 415.973 70.5237 415.597 70.2161C415.232 69.8971 414.714 69.5894 414.042 69.2932C413.381 68.9856 412.526 68.6666 411.478 68.3362C410.316 67.9716 409.234 67.5614 408.231 67.1057C407.228 66.65 406.345 66.1202 405.582 65.5164C404.83 64.9125 404.243 64.2175 403.822 63.4314C403.4 62.6339 403.189 61.711 403.189 60.6628C403.189 59.6375 403.406 58.7032 403.839 57.8601C404.283 57.017 404.91 56.2935 405.719 55.6897C406.528 55.0745 407.479 54.6016 408.573 54.2712C409.678 53.9408 410.897 53.7756 412.23 53.7756C414.076 53.7756 415.671 54.1117 417.015 54.7839C418.371 55.4561 419.419 56.3676 420.16 57.5183C420.9 58.669 421.271 59.9622 421.271 61.3977H416.588C416.588 60.623 416.423 59.9394 416.092 59.3469C415.773 58.7545 415.283 58.2874 414.623 57.9456C413.973 57.6038 413.153 57.4329 412.162 57.4329C411.205 57.4329 410.407 57.5753 409.769 57.8601C409.142 58.1449 408.67 58.5323 408.351 59.0222C408.043 59.5121 407.889 60.059 407.889 60.6628C407.889 61.1186 407.997 61.5287 408.214 61.8933C408.43 62.2465 408.755 62.5826 409.188 62.9016C409.621 63.2092 410.156 63.4998 410.794 63.7732C411.444 64.0352 412.196 64.2973 413.05 64.5593C414.417 64.9695 415.614 65.4252 416.639 65.9265C417.676 66.4278 418.536 66.9975 419.22 67.6355C419.915 68.2735 420.433 68.9913 420.775 69.7888C421.128 70.5863 421.305 71.4921 421.305 72.5061C421.305 73.5771 421.094 74.5341 420.672 75.3772C420.251 76.2203 419.647 76.9381 418.861 77.5305C418.075 78.123 417.129 78.573 416.024 78.8806C414.93 79.1882 413.705 79.342 412.35 79.342C411.142 79.342 409.946 79.1825 408.761 78.8635C407.587 78.5331 406.522 78.0432 405.565 77.3938C404.608 76.733 403.845 75.9013 403.275 74.8987C402.705 73.8847 402.42 72.6998 402.42 71.344H407.137C407.137 72.1301 407.263 72.8023 407.513 73.3606C407.775 73.9075 408.14 74.3575 408.607 74.7107C409.085 75.0525 409.644 75.3031 410.282 75.4626C410.92 75.6222 411.609 75.7019 412.35 75.7019C413.307 75.7019 414.093 75.5709 414.708 75.3088C415.335 75.0354 415.802 74.6594 416.109 74.1809C416.428 73.7024 416.588 73.1555 416.588 72.5403ZM433.086 60.509V63.7561H422.49V60.509H433.086ZM425.327 55.9631H429.856V73.6682C429.856 74.2151 429.93 74.6366 430.078 74.9329C430.226 75.2291 430.448 75.4285 430.745 75.531C431.041 75.6335 431.394 75.6848 431.804 75.6848C432.1 75.6848 432.374 75.6677 432.625 75.6335C432.875 75.5994 433.086 75.5652 433.257 75.531L433.274 78.9148C432.898 79.0401 432.471 79.1427 431.992 79.2224C431.525 79.3022 430.995 79.342 430.403 79.342C429.389 79.342 428.5 79.1711 427.737 78.8293C426.973 78.4762 426.381 77.9122 425.959 77.1375C425.538 76.3513 425.327 75.3145 425.327 74.0271V55.9631ZM440.355 64.2859V79.0002H435.844V60.509H440.116L440.355 64.2859ZM445.978 60.3894L445.91 64.5935C445.659 64.5479 445.374 64.5138 445.055 64.491C444.748 64.4682 444.457 64.4568 444.184 64.4568C443.489 64.4568 442.879 64.5536 442.355 64.7473C441.831 64.9296 441.392 65.1973 441.039 65.5505C440.697 65.9037 440.435 66.3367 440.253 66.8494C440.071 67.3507 439.968 67.9203 439.945 68.5583L438.971 68.4387C438.971 67.2652 439.091 66.1772 439.33 65.1746C439.569 64.172 439.917 63.2947 440.373 62.5427C440.828 61.7908 441.398 61.2097 442.082 60.7996C442.777 60.378 443.574 60.1672 444.474 60.1672C444.725 60.1672 444.993 60.19 445.277 60.2356C445.574 60.2698 445.807 60.321 445.978 60.3894ZM457.811 75.0696V66.5417C457.811 65.9151 457.702 65.3739 457.486 64.9182C457.269 64.4625 456.939 64.1093 456.495 63.8586C456.05 63.608 455.486 63.4827 454.803 63.4827C454.199 63.4827 453.669 63.5852 453.213 63.7903C452.769 63.9954 452.427 64.2859 452.188 64.6619C451.949 65.0264 451.829 65.448 451.829 65.9265H447.3C447.3 65.1632 447.483 64.4397 447.847 63.7561C448.212 63.0611 448.73 62.4459 449.402 61.9104C450.086 61.3635 450.901 60.9363 451.846 60.6287C452.803 60.321 453.874 60.1672 455.059 60.1672C456.46 60.1672 457.708 60.4065 458.802 60.885C459.907 61.3521 460.773 62.0585 461.399 63.0042C462.037 63.9498 462.356 65.1404 462.356 66.5759V74.6423C462.356 75.5652 462.413 76.357 462.527 77.0178C462.653 77.6672 462.835 78.2312 463.074 78.7097V79.0002H458.477C458.261 78.5331 458.095 77.9407 457.981 77.2229C457.868 76.4937 457.811 75.776 457.811 75.0696ZM458.443 67.738L458.477 70.4211H455.623C454.917 70.4211 454.296 70.4952 453.76 70.6433C453.225 70.78 452.786 70.9851 452.444 71.2585C452.103 71.5206 451.846 71.8396 451.675 72.2156C451.504 72.5802 451.419 72.996 451.419 73.4631C451.419 73.9189 451.521 74.329 451.727 74.6936C451.943 75.0582 452.251 75.3487 452.649 75.5652C453.06 75.7703 453.538 75.8728 454.085 75.8728C454.882 75.8728 455.577 75.7133 456.17 75.3943C456.762 75.0639 457.224 74.6651 457.554 74.198C457.885 73.7309 458.061 73.2865 458.084 72.865L459.383 74.8132C459.223 75.2804 458.984 75.776 458.665 76.3C458.346 76.8241 457.936 77.314 457.435 77.7698C456.933 78.2255 456.329 78.6015 455.623 78.8977C454.917 79.1939 454.096 79.342 453.162 79.342C451.966 79.342 450.895 79.1028 449.949 78.6243C449.004 78.1458 448.257 77.4906 447.71 76.6589C447.164 75.8272 446.89 74.8816 446.89 73.822C446.89 72.8422 447.072 71.9763 447.437 71.2244C447.802 70.4724 448.343 69.8401 449.061 69.3274C449.778 68.8033 450.667 68.4102 451.727 68.1482C452.798 67.8748 454.022 67.738 455.401 67.738H458.443ZM474.924 60.509V63.7561H464.328V60.509H474.924ZM467.165 55.9631H471.694V73.6682C471.694 74.2151 471.768 74.6366 471.916 74.9329C472.064 75.2291 472.286 75.4285 472.583 75.531C472.879 75.6335 473.232 75.6848 473.642 75.6848C473.938 75.6848 474.212 75.6677 474.462 75.6335C474.713 75.5994 474.924 75.5652 475.095 75.531L475.112 78.9148C474.736 79.0401 474.309 79.1427 473.83 79.2224C473.363 79.3022 472.833 79.342 472.241 79.342C471.227 79.342 470.338 79.1711 469.575 78.8293C468.811 78.4762 468.219 77.9122 467.797 77.1375C467.376 76.3513 467.165 75.3145 467.165 74.0271V55.9631ZM485.987 79.342C484.586 79.342 483.327 79.1142 482.21 78.6584C481.094 78.2027 480.143 77.5704 479.356 76.7615C478.582 75.9412 477.984 74.9898 477.562 73.9075C477.152 72.8137 476.947 71.6402 476.947 70.387V69.7034C476.947 68.2792 477.152 66.9861 477.562 65.824C477.972 64.6505 478.553 63.6422 479.305 62.7991C480.057 61.956 480.957 61.3066 482.005 60.8508C483.054 60.3951 484.21 60.1672 485.475 60.1672C486.785 60.1672 487.941 60.3894 488.944 60.8337C489.946 61.2667 490.784 61.8819 491.456 62.6794C492.128 63.477 492.635 64.434 492.977 65.5505C493.319 66.6557 493.49 67.8805 493.49 69.2249V71.1218H478.998V68.0115H489.046V67.6697C489.024 66.9519 488.887 66.2968 488.636 65.7043C488.386 65.1005 487.998 64.622 487.474 64.2688C486.95 63.9042 486.272 63.7219 485.44 63.7219C484.768 63.7219 484.181 63.87 483.68 64.1663C483.19 64.4511 482.78 64.8612 482.45 65.3967C482.131 65.9208 481.891 66.5474 481.732 67.2766C481.572 68.0058 481.493 68.8147 481.493 69.7034V70.387C481.493 71.1617 481.595 71.8795 481.8 72.5403C482.017 73.2011 482.33 73.7764 482.74 74.2664C483.162 74.7449 483.663 75.1208 484.244 75.3943C484.837 75.6563 485.509 75.7874 486.261 75.7874C487.206 75.7874 488.061 75.6051 488.824 75.2405C489.599 74.8645 490.271 74.3119 490.841 73.5828L493.114 75.9412C492.726 76.5108 492.202 77.0577 491.542 77.5818C490.892 78.1059 490.106 78.5331 489.183 78.8635C488.26 79.1825 487.195 79.342 485.987 79.342ZM508.022 60.509H512.124V78.4363C512.124 80.1111 511.759 81.5295 511.03 82.6917C510.312 83.8652 509.304 84.7538 508.005 85.3577C506.707 85.9729 505.197 86.2805 503.477 86.2805C502.736 86.2805 501.933 86.178 501.067 85.9729C500.212 85.7678 499.386 85.4431 498.589 84.9988C497.803 84.5658 497.148 84.0019 496.624 83.3069L498.657 80.6409C499.272 81.3586 499.967 81.8998 500.742 82.2644C501.517 82.6404 502.354 82.8284 503.254 82.8284C504.166 82.8284 504.941 82.6575 505.579 82.3157C506.228 81.9853 506.724 81.4954 507.065 80.8459C507.419 80.2079 507.595 79.4218 507.595 78.4875V64.7302L508.022 60.509ZM495.53 69.9768V69.6179C495.53 68.2052 495.701 66.9234 496.042 65.7727C496.384 64.6106 496.874 63.6137 497.512 62.782C498.162 61.9503 498.942 61.3066 499.854 60.8508C500.776 60.3951 501.813 60.1672 502.964 60.1672C504.183 60.1672 505.208 60.3894 506.04 60.8337C506.883 61.2781 507.578 61.9104 508.125 62.7307C508.683 63.551 509.116 64.5251 509.424 65.6531C509.743 66.7696 509.988 68.0001 510.159 69.3445V70.3186C509.999 71.6288 509.743 72.8308 509.39 73.9246C509.048 75.0183 508.592 75.9753 508.022 76.7957C507.453 77.6046 506.746 78.2312 505.903 78.6755C505.06 79.1199 504.069 79.342 502.93 79.342C501.79 79.342 500.765 79.1085 499.854 78.6414C498.942 78.1742 498.162 77.5191 497.512 76.676C496.874 75.8329 496.384 74.8417 496.042 73.7024C495.701 72.5631 495.53 71.3212 495.53 69.9768ZM500.042 69.6179V69.9768C500.042 70.7743 500.121 71.5206 500.281 72.2156C500.44 72.9106 500.685 73.5258 501.016 74.0613C501.346 74.5854 501.762 74.9955 502.263 75.2917C502.764 75.588 503.363 75.7361 504.058 75.7361C504.992 75.7361 505.755 75.5424 506.348 75.155C506.951 74.7563 507.407 74.2151 507.715 73.5315C508.034 72.8365 508.239 72.0561 508.33 71.1902V68.5071C508.273 67.8235 508.148 67.1912 507.954 66.6101C507.772 66.0291 507.515 65.5278 507.185 65.1062C506.855 64.6847 506.433 64.3542 505.92 64.115C505.408 63.8757 504.798 63.7561 504.092 63.7561C503.408 63.7561 502.81 63.9099 502.297 64.2175C501.785 64.5138 501.363 64.9296 501.033 65.4651C500.702 66.0006 500.452 66.6215 500.281 67.3279C500.121 68.0343 500.042 68.7976 500.042 69.6179ZM520.727 60.509V79.0002H516.198V60.509H520.727ZM515.89 55.6726C515.89 55.0004 516.118 54.4421 516.574 53.9978C517.041 53.5535 517.667 53.3313 518.454 53.3313C519.24 53.3313 519.861 53.5535 520.316 53.9978C520.784 54.4421 521.017 55.0004 521.017 55.6726C521.017 56.3334 520.784 56.886 520.316 57.3303C519.861 57.7747 519.24 57.9968 518.454 57.9968C517.667 57.9968 517.041 57.7747 516.574 57.3303C516.118 56.886 515.89 56.3334 515.89 55.6726ZM539.275 75.4456V79.0002H525.364V75.4456H539.275ZM538.951 63.2092L527.056 79.0002H524.083V76.2146L535.909 60.509H538.951V63.2092ZM537.293 60.509V64.0808H524.322V60.509H537.293ZM550.271 79.342C548.869 79.342 547.61 79.1142 546.494 78.6584C545.377 78.2027 544.426 77.5704 543.64 76.7615C542.865 75.9412 542.267 74.9898 541.845 73.9075C541.435 72.8137 541.23 71.6402 541.23 70.387V69.7034C541.23 68.2792 541.435 66.9861 541.845 65.824C542.255 64.6505 542.836 63.6422 543.588 62.7991C544.34 61.956 545.24 61.3066 546.289 60.8508C547.337 60.3951 548.493 60.1672 549.758 60.1672C551.068 60.1672 552.224 60.3894 553.227 60.8337C554.23 61.2667 555.067 61.8819 555.739 62.6794C556.411 63.477 556.918 64.434 557.26 65.5505C557.602 66.6557 557.773 67.8805 557.773 69.2249V71.1218H543.281V68.0115H553.33V67.6697C553.307 66.9519 553.17 66.2968 552.919 65.7043C552.669 65.1005 552.281 64.622 551.757 64.2688C551.233 63.9042 550.555 63.7219 549.724 63.7219C549.051 63.7219 548.465 63.87 547.963 64.1663C547.473 64.4511 547.063 64.8612 546.733 65.3967C546.414 65.9208 546.175 66.5474 546.015 67.2766C545.856 68.0058 545.776 68.8147 545.776 69.7034V70.387C545.776 71.1617 545.878 71.8795 546.083 72.5403C546.3 73.2011 546.613 73.7764 547.023 74.2664C547.445 74.7449 547.946 75.1208 548.527 75.3943C549.12 75.6563 549.792 75.7874 550.544 75.7874C551.49 75.7874 552.344 75.6051 553.107 75.2405C553.882 74.8645 554.554 74.3119 555.124 73.5828L557.397 75.9412C557.01 76.5108 556.486 77.0577 555.825 77.5818C555.175 78.1059 554.389 78.5331 553.466 78.8635C552.543 79.1825 551.478 79.342 550.271 79.342Z" fill="#EDD5B1"/>
<path d="M234.452 102.203H235.34V110.869C235.34 111.83 235.141 112.63 234.742 113.269C234.344 113.907 233.808 114.385 233.134 114.701C232.46 115.018 231.707 115.176 230.875 115.176C230.031 115.176 229.272 115.018 228.599 114.701C227.925 114.385 227.392 113.907 226.999 113.269C226.612 112.63 226.419 111.83 226.419 110.869V102.203H227.298V110.869C227.298 111.637 227.453 112.284 227.764 112.812C228.074 113.333 228.499 113.729 229.038 113.998C229.577 114.262 230.189 114.394 230.875 114.394C231.566 114.394 232.182 114.262 232.721 113.998C233.26 113.729 233.682 113.333 233.986 112.812C234.297 112.284 234.452 111.637 234.452 110.869V102.203ZM239.093 107.521V115H238.223V105.49H239.066L239.093 107.521ZM238.908 109.586L238.513 109.243C238.554 108.716 238.671 108.215 238.864 107.74C239.058 107.266 239.318 106.847 239.646 106.484C239.975 106.12 240.361 105.836 240.807 105.631C241.252 105.42 241.741 105.315 242.274 105.315C242.749 105.315 243.174 105.379 243.549 105.508C243.924 105.637 244.24 105.842 244.498 106.123C244.762 106.405 244.961 106.768 245.096 107.213C245.236 107.653 245.307 108.189 245.307 108.822V115H244.437V108.813C244.437 108.11 244.337 107.562 244.138 107.169C243.944 106.777 243.672 106.498 243.32 106.334C242.975 106.17 242.564 106.088 242.09 106.088C241.557 106.088 241.094 106.205 240.701 106.44C240.309 106.674 239.98 106.973 239.717 107.336C239.459 107.699 239.263 108.083 239.128 108.488C238.993 108.886 238.92 109.252 238.908 109.586ZM254.351 113.155V101.5H255.221V115H254.395L254.351 113.155ZM247.68 110.342V110.157C247.68 109.413 247.762 108.745 247.926 108.154C248.096 107.556 248.339 107.046 248.655 106.624C248.972 106.202 249.353 105.88 249.798 105.657C250.249 105.429 250.759 105.315 251.327 105.315C251.872 105.315 252.355 105.403 252.777 105.578C253.199 105.754 253.562 106.003 253.867 106.325C254.172 106.648 254.421 107.029 254.614 107.468C254.808 107.907 254.951 108.394 255.045 108.927V111.757C254.975 112.243 254.843 112.695 254.649 113.111C254.462 113.527 254.213 113.89 253.902 114.2C253.598 114.511 253.229 114.751 252.795 114.921C252.361 115.091 251.866 115.176 251.31 115.176C250.747 115.176 250.24 115.059 249.789 114.824C249.344 114.59 248.963 114.259 248.646 113.831C248.336 113.398 248.096 112.888 247.926 112.302C247.762 111.71 247.68 111.057 247.68 110.342ZM248.559 110.157V110.342C248.559 110.916 248.617 111.452 248.734 111.95C248.852 112.443 249.027 112.87 249.262 113.234C249.496 113.597 249.795 113.881 250.158 114.086C250.521 114.291 250.949 114.394 251.441 114.394C252.062 114.394 252.587 114.28 253.015 114.051C253.442 113.817 253.785 113.506 254.043 113.119C254.301 112.733 254.485 112.308 254.597 111.845V108.918C254.526 108.614 254.424 108.297 254.289 107.969C254.154 107.641 253.967 107.336 253.727 107.055C253.486 106.768 253.182 106.536 252.812 106.361C252.443 106.185 251.992 106.097 251.459 106.097C250.961 106.097 250.53 106.199 250.167 106.405C249.804 106.61 249.502 106.897 249.262 107.266C249.027 107.629 248.852 108.057 248.734 108.549C248.617 109.041 248.559 109.577 248.559 110.157ZM261.672 115.176C261.062 115.176 260.5 115.062 259.984 114.833C259.469 114.605 259.021 114.282 258.64 113.866C258.259 113.445 257.963 112.949 257.752 112.381C257.541 111.807 257.436 111.177 257.436 110.491V110.114C257.436 109.387 257.541 108.731 257.752 108.145C257.969 107.559 258.265 107.055 258.64 106.633C259.021 106.205 259.454 105.88 259.94 105.657C260.427 105.429 260.942 105.315 261.487 105.315C262.062 105.315 262.577 105.42 263.034 105.631C263.497 105.836 263.89 106.129 264.212 106.51C264.534 106.891 264.777 107.342 264.941 107.864C265.111 108.379 265.196 108.95 265.196 109.577V110.193H257.972V109.428H264.326V109.314C264.32 108.745 264.206 108.218 263.983 107.732C263.767 107.24 263.447 106.841 263.025 106.536C262.609 106.232 262.097 106.079 261.487 106.079C261.013 106.079 260.579 106.182 260.187 106.387C259.8 106.586 259.466 106.867 259.185 107.231C258.903 107.588 258.687 108.013 258.534 108.505C258.382 108.991 258.306 109.528 258.306 110.114V110.491C258.306 111.036 258.388 111.546 258.552 112.021C258.722 112.495 258.956 112.911 259.255 113.269C259.56 113.626 259.92 113.907 260.336 114.113C260.752 114.318 261.206 114.42 261.698 114.42C262.255 114.42 262.756 114.321 263.201 114.121C263.646 113.916 264.051 113.579 264.414 113.111L264.968 113.532C264.763 113.837 264.508 114.115 264.203 114.367C263.898 114.614 263.538 114.81 263.122 114.956C262.706 115.103 262.223 115.176 261.672 115.176ZM268.167 107.09V115H267.297V105.49H268.149L268.167 107.09ZM271.665 105.42L271.63 106.211C271.519 106.194 271.407 106.182 271.296 106.176C271.19 106.164 271.076 106.158 270.953 106.158C270.473 106.158 270.051 106.249 269.688 106.431C269.324 106.613 269.02 106.865 268.773 107.187C268.533 107.509 268.349 107.884 268.22 108.312C268.097 108.734 268.029 109.191 268.018 109.683L267.657 109.788C267.657 109.15 267.722 108.561 267.851 108.022C267.985 107.477 268.19 107.002 268.466 106.598C268.741 106.194 269.087 105.88 269.503 105.657C269.919 105.429 270.411 105.315 270.979 105.315C271.114 105.315 271.243 105.326 271.366 105.35C271.495 105.367 271.595 105.391 271.665 105.42ZM279.101 112.601C279.101 112.337 279.03 112.073 278.89 111.81C278.749 111.54 278.488 111.294 278.107 111.072C277.727 110.843 277.17 110.653 276.438 110.5C275.91 110.383 275.441 110.254 275.031 110.114C274.621 109.967 274.275 109.791 273.994 109.586C273.719 109.381 273.508 109.138 273.361 108.857C273.221 108.57 273.15 108.233 273.15 107.846C273.15 107.494 273.227 107.166 273.379 106.862C273.531 106.557 273.751 106.29 274.038 106.062C274.325 105.827 274.671 105.646 275.075 105.517C275.485 105.382 275.945 105.315 276.455 105.315C277.182 105.315 277.803 105.438 278.318 105.684C278.834 105.924 279.229 106.255 279.505 106.677C279.786 107.099 279.927 107.579 279.927 108.118H279.057C279.057 107.767 278.954 107.439 278.749 107.134C278.55 106.823 278.257 106.572 277.87 106.378C277.483 106.179 277.012 106.079 276.455 106.079C275.875 106.079 275.406 106.167 275.049 106.343C274.691 106.519 274.431 106.739 274.267 107.002C274.103 107.266 274.021 107.538 274.021 107.82C274.021 108.042 274.053 108.244 274.117 108.426C274.188 108.608 274.316 108.778 274.504 108.936C274.691 109.094 274.958 109.243 275.304 109.384C275.655 109.519 276.109 109.651 276.666 109.78C277.434 109.949 278.058 110.157 278.538 110.404C279.024 110.644 279.382 110.94 279.61 111.291C279.845 111.643 279.962 112.068 279.962 112.566C279.962 112.952 279.88 113.307 279.716 113.629C279.558 113.946 279.326 114.221 279.021 114.455C278.723 114.684 278.359 114.863 277.932 114.991C277.51 115.115 277.038 115.176 276.517 115.176C275.72 115.176 275.049 115.047 274.504 114.789C273.959 114.531 273.546 114.192 273.265 113.77C272.983 113.348 272.843 112.894 272.843 112.407H273.713C273.748 112.917 273.909 113.319 274.196 113.612C274.489 113.905 274.844 114.113 275.26 114.236C275.682 114.353 276.101 114.411 276.517 114.411C277.079 114.411 277.551 114.326 277.932 114.156C278.318 113.981 278.608 113.755 278.802 113.48C279.001 113.204 279.101 112.911 279.101 112.601ZM285.903 105.49V106.238H281.245V105.49H285.903ZM282.994 103.012H283.873V112.698C283.873 113.172 283.932 113.532 284.049 113.779C284.172 114.019 284.333 114.18 284.532 114.262C284.731 114.344 284.945 114.385 285.174 114.385C285.338 114.385 285.49 114.376 285.631 114.359C285.777 114.341 285.918 114.321 286.053 114.297L286.105 115.044C285.977 115.085 285.81 115.117 285.604 115.141C285.399 115.164 285.206 115.176 285.024 115.176C284.62 115.176 284.266 115.103 283.961 114.956C283.656 114.804 283.419 114.549 283.249 114.192C283.079 113.828 282.994 113.33 282.994 112.698V103.012ZM294.024 113.269V108.365C294.024 107.89 293.925 107.483 293.726 107.143C293.526 106.797 293.233 106.533 292.847 106.352C292.466 106.164 291.994 106.071 291.432 106.071C290.916 106.071 290.453 106.161 290.043 106.343C289.639 106.525 289.316 106.771 289.076 107.081C288.842 107.392 288.725 107.738 288.725 108.118L287.863 108.101C287.863 107.743 287.948 107.398 288.118 107.064C288.294 106.73 288.54 106.431 288.856 106.167C289.179 105.904 289.56 105.696 289.999 105.543C290.444 105.391 290.934 105.315 291.467 105.315C292.141 105.315 292.732 105.429 293.242 105.657C293.758 105.88 294.162 106.22 294.455 106.677C294.748 107.128 294.895 107.697 294.895 108.382V113.031C294.895 113.36 294.918 113.699 294.965 114.051C295.012 114.403 295.082 114.687 295.176 114.904V115H294.235C294.165 114.783 294.112 114.517 294.077 114.2C294.042 113.878 294.024 113.568 294.024 113.269ZM294.262 109.533L294.279 110.245H292.091C291.522 110.245 291.016 110.298 290.57 110.404C290.131 110.503 289.756 110.65 289.445 110.843C289.141 111.036 288.906 111.271 288.742 111.546C288.578 111.816 288.496 112.12 288.496 112.46C288.496 112.812 288.587 113.134 288.769 113.427C288.95 113.72 289.208 113.954 289.542 114.13C289.882 114.3 290.277 114.385 290.729 114.385C291.338 114.385 291.877 114.277 292.346 114.06C292.82 113.843 293.213 113.553 293.523 113.19C293.834 112.821 294.054 112.407 294.183 111.95L294.561 112.504C294.473 112.803 294.326 113.111 294.121 113.427C293.916 113.738 293.649 114.025 293.321 114.288C292.993 114.552 292.606 114.766 292.161 114.93C291.722 115.094 291.218 115.176 290.649 115.176C290.04 115.176 289.507 115.062 289.05 114.833C288.599 114.599 288.247 114.282 287.995 113.884C287.749 113.48 287.626 113.023 287.626 112.513C287.626 112.062 287.726 111.655 287.925 111.291C288.124 110.922 288.411 110.609 288.786 110.351C289.161 110.087 289.618 109.885 290.157 109.744C290.696 109.604 291.303 109.533 291.977 109.533H294.262ZM298.647 107.521V115H297.777V105.49H298.621L298.647 107.521ZM298.463 109.586L298.067 109.243C298.108 108.716 298.226 108.215 298.419 107.74C298.612 107.266 298.873 106.847 299.201 106.484C299.529 106.12 299.916 105.836 300.361 105.631C300.807 105.42 301.296 105.315 301.829 105.315C302.304 105.315 302.729 105.379 303.104 105.508C303.479 105.637 303.795 105.842 304.053 106.123C304.316 106.405 304.516 106.768 304.65 107.213C304.791 107.653 304.861 108.189 304.861 108.822V115H303.991V108.813C303.991 108.11 303.892 107.562 303.692 107.169C303.499 106.777 303.227 106.498 302.875 106.334C302.529 106.17 302.119 106.088 301.645 106.088C301.111 106.088 300.648 106.205 300.256 106.44C299.863 106.674 299.535 106.973 299.271 107.336C299.014 107.699 298.817 108.083 298.683 108.488C298.548 108.886 298.475 109.252 298.463 109.586ZM313.905 113.155V101.5H314.775V115H313.949L313.905 113.155ZM307.234 110.342V110.157C307.234 109.413 307.316 108.745 307.48 108.154C307.65 107.556 307.894 107.046 308.21 106.624C308.526 106.202 308.907 105.88 309.353 105.657C309.804 105.429 310.313 105.315 310.882 105.315C311.427 105.315 311.91 105.403 312.332 105.578C312.754 105.754 313.117 106.003 313.422 106.325C313.727 106.648 313.976 107.029 314.169 107.468C314.362 107.907 314.506 108.394 314.6 108.927V111.757C314.529 112.243 314.397 112.695 314.204 113.111C314.017 113.527 313.768 113.89 313.457 114.2C313.152 114.511 312.783 114.751 312.35 114.921C311.916 115.091 311.421 115.176 310.864 115.176C310.302 115.176 309.795 115.059 309.344 114.824C308.898 114.59 308.518 114.259 308.201 113.831C307.891 113.398 307.65 112.888 307.48 112.302C307.316 111.71 307.234 111.057 307.234 110.342ZM308.113 110.157V110.342C308.113 110.916 308.172 111.452 308.289 111.95C308.406 112.443 308.582 112.87 308.816 113.234C309.051 113.597 309.35 113.881 309.713 114.086C310.076 114.291 310.504 114.394 310.996 114.394C311.617 114.394 312.142 114.28 312.569 114.051C312.997 113.817 313.34 113.506 313.598 113.119C313.855 112.733 314.04 112.308 314.151 111.845V108.918C314.081 108.614 313.979 108.297 313.844 107.969C313.709 107.641 313.521 107.336 313.281 107.055C313.041 106.768 312.736 106.536 312.367 106.361C311.998 106.185 311.547 106.097 311.014 106.097C310.516 106.097 310.085 106.199 309.722 106.405C309.358 106.61 309.057 106.897 308.816 107.266C308.582 107.629 308.406 108.057 308.289 108.549C308.172 109.041 308.113 109.577 308.113 110.157ZM324.856 114.06L327.924 105.49H328.864L324.777 116.547C324.695 116.758 324.593 116.992 324.47 117.25C324.353 117.514 324.194 117.766 323.995 118.006C323.802 118.252 323.556 118.451 323.257 118.604C322.964 118.762 322.601 118.841 322.167 118.841C322.062 118.841 321.924 118.829 321.754 118.806C321.584 118.782 321.464 118.756 321.394 118.727L321.385 117.989C321.455 118.006 321.555 118.021 321.684 118.032C321.812 118.044 321.903 118.05 321.956 118.05C322.337 118.05 322.656 117.98 322.914 117.839C323.178 117.698 323.397 117.496 323.573 117.233C323.749 116.969 323.904 116.65 324.039 116.275L324.856 114.06ZM321.833 105.49L325.041 113.902L325.287 114.798L324.637 115.185L320.884 105.49H321.833ZM329.805 110.404V110.087C329.805 109.396 329.904 108.76 330.104 108.18C330.303 107.594 330.587 107.087 330.956 106.659C331.325 106.232 331.768 105.901 332.283 105.666C332.805 105.432 333.382 105.315 334.015 105.315C334.653 105.315 335.23 105.432 335.746 105.666C336.268 105.901 336.713 106.232 337.082 106.659C337.457 107.087 337.744 107.594 337.943 108.18C338.143 108.76 338.242 109.396 338.242 110.087V110.404C338.242 111.095 338.143 111.734 337.943 112.32C337.744 112.9 337.457 113.404 337.082 113.831C336.713 114.259 336.271 114.59 335.755 114.824C335.239 115.059 334.665 115.176 334.032 115.176C333.394 115.176 332.813 115.059 332.292 114.824C331.776 114.59 331.331 114.259 330.956 113.831C330.587 113.404 330.303 112.9 330.104 112.32C329.904 111.734 329.805 111.095 329.805 110.404ZM330.666 110.087V110.404C330.666 110.937 330.739 111.447 330.886 111.933C331.038 112.413 331.255 112.841 331.536 113.216C331.823 113.585 332.175 113.878 332.591 114.095C333.013 114.306 333.493 114.411 334.032 114.411C334.565 114.411 335.037 114.306 335.447 114.095C335.863 113.878 336.212 113.585 336.493 113.216C336.78 112.841 336.997 112.413 337.144 111.933C337.296 111.447 337.372 110.937 337.372 110.404V110.087C337.372 109.566 337.296 109.065 337.144 108.584C336.997 108.104 336.78 107.676 336.493 107.301C336.206 106.926 335.854 106.63 335.438 106.413C335.022 106.191 334.548 106.079 334.015 106.079C333.481 106.079 333.007 106.191 332.591 106.413C332.175 106.63 331.823 106.926 331.536 107.301C331.249 107.676 331.032 108.104 330.886 108.584C330.739 109.065 330.666 109.566 330.666 110.087ZM346.645 112.803V105.49H347.523V115H346.671L346.645 112.803ZM346.803 111.115L347.295 111.098C347.295 111.684 347.225 112.226 347.084 112.724C346.943 113.216 346.721 113.647 346.416 114.016C346.117 114.385 345.73 114.672 345.256 114.877C344.781 115.076 344.213 115.176 343.551 115.176C343.088 115.176 342.663 115.112 342.276 114.983C341.896 114.848 341.564 114.637 341.283 114.35C341.008 114.063 340.794 113.691 340.642 113.234C340.495 112.771 340.422 112.214 340.422 111.564V105.49H341.292V111.581C341.292 112.109 341.351 112.554 341.468 112.917C341.591 113.275 341.758 113.562 341.969 113.779C342.186 113.995 342.435 114.154 342.716 114.253C342.997 114.347 343.302 114.394 343.63 114.394C344.427 114.394 345.057 114.241 345.52 113.937C345.982 113.626 346.311 113.222 346.504 112.724C346.703 112.22 346.803 111.684 346.803 111.115ZM351.206 107.09V115H350.336V105.49H351.188L351.206 107.09ZM354.704 105.42L354.669 106.211C354.558 106.194 354.446 106.182 354.335 106.176C354.229 106.164 354.115 106.158 353.992 106.158C353.512 106.158 353.09 106.249 352.727 106.431C352.363 106.613 352.059 106.865 351.812 107.187C351.572 107.509 351.388 107.884 351.259 108.312C351.136 108.734 351.068 109.191 351.057 109.683L350.696 109.788C350.696 109.15 350.761 108.561 350.89 108.022C351.024 107.477 351.229 107.002 351.505 106.598C351.78 106.194 352.126 105.88 352.542 105.657C352.958 105.429 353.45 105.315 354.019 105.315C354.153 105.315 354.282 105.326 354.405 105.35C354.534 105.367 354.634 105.391 354.704 105.42ZM367.035 105.49H367.853V114.842C367.853 115.662 367.7 116.368 367.396 116.96C367.091 117.558 366.657 118.015 366.095 118.331C365.538 118.648 364.879 118.806 364.117 118.806C363.701 118.806 363.291 118.744 362.887 118.621C362.482 118.498 362.104 118.314 361.753 118.068C361.407 117.827 361.111 117.534 360.865 117.189L361.375 116.653C361.756 117.121 362.166 117.47 362.605 117.698C363.045 117.927 363.531 118.041 364.064 118.041C364.691 118.041 365.222 117.912 365.655 117.655C366.089 117.403 366.417 117.039 366.64 116.565C366.868 116.09 366.982 115.525 366.982 114.868V107.582L367.035 105.49ZM360.32 110.342V110.157C360.32 109.413 360.402 108.745 360.566 108.154C360.73 107.556 360.968 107.046 361.278 106.624C361.595 106.202 361.979 105.88 362.43 105.657C362.881 105.429 363.391 105.315 363.959 105.315C364.504 105.315 364.987 105.403 365.409 105.578C365.831 105.754 366.194 106.003 366.499 106.325C366.81 106.648 367.062 107.029 367.255 107.468C367.448 107.907 367.592 108.394 367.686 108.927V111.757C367.609 112.243 367.478 112.695 367.29 113.111C367.103 113.527 366.854 113.89 366.543 114.2C366.232 114.511 365.86 114.751 365.427 114.921C364.999 115.091 364.504 115.176 363.941 115.176C363.379 115.176 362.872 115.059 362.421 114.824C361.976 114.59 361.595 114.259 361.278 113.831C360.968 113.398 360.73 112.888 360.566 112.302C360.402 111.71 360.32 111.057 360.32 110.342ZM361.19 110.157V110.342C361.19 110.916 361.249 111.452 361.366 111.95C361.483 112.443 361.659 112.87 361.894 113.234C362.134 113.597 362.433 113.881 362.79 114.086C363.153 114.291 363.581 114.394 364.073 114.394C364.694 114.394 365.219 114.28 365.646 114.051C366.074 113.817 366.414 113.506 366.666 113.119C366.918 112.733 367.097 112.308 367.202 111.845V108.918C367.138 108.614 367.038 108.297 366.903 107.969C366.774 107.641 366.59 107.336 366.35 107.055C366.115 106.768 365.813 106.536 365.444 106.361C365.075 106.185 364.624 106.097 364.091 106.097C363.593 106.097 363.162 106.199 362.799 106.405C362.436 106.61 362.134 106.897 361.894 107.266C361.659 107.629 361.483 108.057 361.366 108.549C361.249 109.041 361.19 109.577 361.19 110.157ZM370.076 110.404V110.087C370.076 109.396 370.176 108.76 370.375 108.18C370.574 107.594 370.858 107.087 371.228 106.659C371.597 106.232 372.039 105.901 372.555 105.666C373.076 105.432 373.653 105.315 374.286 105.315C374.925 105.315 375.502 105.432 376.018 105.666C376.539 105.901 376.984 106.232 377.354 106.659C377.729 107.087 378.016 107.594 378.215 108.18C378.414 108.76 378.514 109.396 378.514 110.087V110.404C378.514 111.095 378.414 111.734 378.215 112.32C378.016 112.9 377.729 113.404 377.354 113.831C376.984 114.259 376.542 114.59 376.026 114.824C375.511 115.059 374.937 115.176 374.304 115.176C373.665 115.176 373.085 115.059 372.563 114.824C372.048 114.59 371.603 114.259 371.228 113.831C370.858 113.404 370.574 112.9 370.375 112.32C370.176 111.734 370.076 111.095 370.076 110.404ZM370.938 110.087V110.404C370.938 110.937 371.011 111.447 371.157 111.933C371.31 112.413 371.526 112.841 371.808 113.216C372.095 113.585 372.446 113.878 372.862 114.095C373.284 114.306 373.765 114.411 374.304 114.411C374.837 114.411 375.309 114.306 375.719 114.095C376.135 113.878 376.483 113.585 376.765 113.216C377.052 112.841 377.269 112.413 377.415 111.933C377.567 111.447 377.644 110.937 377.644 110.404V110.087C377.644 109.566 377.567 109.065 377.415 108.584C377.269 108.104 377.052 107.676 376.765 107.301C376.478 106.926 376.126 106.63 375.71 106.413C375.294 106.191 374.819 106.079 374.286 106.079C373.753 106.079 373.278 106.191 372.862 106.413C372.446 106.63 372.095 106.926 371.808 107.301C371.521 107.676 371.304 108.104 371.157 108.584C371.011 109.065 370.938 109.566 370.938 110.087ZM386.573 113.269V108.365C386.573 107.89 386.474 107.483 386.274 107.143C386.075 106.797 385.782 106.533 385.396 106.352C385.015 106.164 384.543 106.071 383.98 106.071C383.465 106.071 383.002 106.161 382.592 106.343C382.188 106.525 381.865 106.771 381.625 107.081C381.391 107.392 381.273 107.738 381.273 108.118L380.412 108.101C380.412 107.743 380.497 107.398 380.667 107.064C380.843 106.73 381.089 106.431 381.405 106.167C381.728 105.904 382.108 105.696 382.548 105.543C382.993 105.391 383.482 105.315 384.016 105.315C384.689 105.315 385.281 105.429 385.791 105.657C386.307 105.88 386.711 106.22 387.004 106.677C387.297 107.128 387.443 107.697 387.443 108.382V113.031C387.443 113.36 387.467 113.699 387.514 114.051C387.561 114.403 387.631 114.687 387.725 114.904V115H386.784C386.714 114.783 386.661 114.517 386.626 114.2C386.591 113.878 386.573 113.568 386.573 113.269ZM386.811 109.533L386.828 110.245H384.64C384.071 110.245 383.564 110.298 383.119 110.404C382.68 110.503 382.305 110.65 381.994 110.843C381.689 111.036 381.455 111.271 381.291 111.546C381.127 111.816 381.045 112.12 381.045 112.46C381.045 112.812 381.136 113.134 381.317 113.427C381.499 113.72 381.757 113.954 382.091 114.13C382.431 114.3 382.826 114.385 383.277 114.385C383.887 114.385 384.426 114.277 384.895 114.06C385.369 113.843 385.762 113.553 386.072 113.19C386.383 112.821 386.603 112.407 386.731 111.95L387.109 112.504C387.021 112.803 386.875 113.111 386.67 113.427C386.465 113.738 386.198 114.025 385.87 114.288C385.542 114.552 385.155 114.766 384.71 114.93C384.271 115.094 383.767 115.176 383.198 115.176C382.589 115.176 382.056 115.062 381.599 114.833C381.147 114.599 380.796 114.282 380.544 113.884C380.298 113.48 380.175 113.023 380.175 112.513C380.175 112.062 380.274 111.655 380.474 111.291C380.673 110.922 380.96 110.609 381.335 110.351C381.71 110.087 382.167 109.885 382.706 109.744C383.245 109.604 383.852 109.533 384.525 109.533H386.811ZM391.319 101.5V115H390.449V101.5H391.319ZM400.021 112.601C400.021 112.337 399.95 112.073 399.81 111.81C399.669 111.54 399.408 111.294 399.027 111.072C398.646 110.843 398.09 110.653 397.357 110.5C396.83 110.383 396.361 110.254 395.951 110.114C395.541 109.967 395.195 109.791 394.914 109.586C394.639 109.381 394.428 109.138 394.281 108.857C394.141 108.57 394.07 108.233 394.07 107.846C394.07 107.494 394.146 107.166 394.299 106.862C394.451 106.557 394.671 106.29 394.958 106.062C395.245 105.827 395.591 105.646 395.995 105.517C396.405 105.382 396.865 105.315 397.375 105.315C398.102 105.315 398.723 105.438 399.238 105.684C399.754 105.924 400.149 106.255 400.425 106.677C400.706 107.099 400.847 107.579 400.847 108.118H399.977C399.977 107.767 399.874 107.439 399.669 107.134C399.47 106.823 399.177 106.572 398.79 106.378C398.403 106.179 397.932 106.079 397.375 106.079C396.795 106.079 396.326 106.167 395.969 106.343C395.611 106.519 395.351 106.739 395.187 107.002C395.022 107.266 394.94 107.538 394.94 107.82C394.94 108.042 394.973 108.244 395.037 108.426C395.107 108.608 395.236 108.778 395.424 108.936C395.611 109.094 395.878 109.243 396.224 109.384C396.575 109.519 397.029 109.651 397.586 109.78C398.354 109.949 398.978 110.157 399.458 110.404C399.944 110.644 400.302 110.94 400.53 111.291C400.765 111.643 400.882 112.068 400.882 112.566C400.882 112.952 400.8 113.307 400.636 113.629C400.478 113.946 400.246 114.221 399.941 114.455C399.643 114.684 399.279 114.863 398.852 114.991C398.43 115.115 397.958 115.176 397.437 115.176C396.64 115.176 395.969 115.047 395.424 114.789C394.879 114.531 394.466 114.192 394.185 113.77C393.903 113.348 393.763 112.894 393.763 112.407H394.633C394.668 112.917 394.829 113.319 395.116 113.612C395.409 113.905 395.764 114.113 396.18 114.236C396.602 114.353 397.021 114.411 397.437 114.411C397.999 114.411 398.471 114.326 398.852 114.156C399.238 113.981 399.528 113.755 399.722 113.48C399.921 113.204 400.021 112.911 400.021 112.601ZM404.204 113.418V114.631C404.204 115.17 404.102 115.674 403.896 116.143C403.691 116.617 403.416 117.019 403.07 117.347L402.543 116.943C402.719 116.708 402.868 116.471 402.991 116.231C403.114 115.996 403.205 115.75 403.264 115.492C403.322 115.235 403.352 114.953 403.352 114.649V113.418H404.204ZM416.966 113.269V108.365C416.966 107.89 416.866 107.483 416.667 107.143C416.468 106.797 416.175 106.533 415.788 106.352C415.407 106.164 414.936 106.071 414.373 106.071C413.857 106.071 413.395 106.161 412.984 106.343C412.58 106.525 412.258 106.771 412.018 107.081C411.783 107.392 411.666 107.738 411.666 108.118L410.805 108.101C410.805 107.743 410.89 107.398 411.06 107.064C411.235 106.73 411.481 106.431 411.798 106.167C412.12 105.904 412.501 105.696 412.94 105.543C413.386 105.391 413.875 105.315 414.408 105.315C415.082 105.315 415.674 105.429 416.184 105.657C416.699 105.88 417.104 106.22 417.396 106.677C417.689 107.128 417.836 107.697 417.836 108.382V113.031C417.836 113.36 417.859 113.699 417.906 114.051C417.953 114.403 418.023 114.687 418.117 114.904V115H417.177C417.106 114.783 417.054 114.517 417.019 114.2C416.983 113.878 416.966 113.568 416.966 113.269ZM417.203 109.533L417.221 110.245H415.032C414.464 110.245 413.957 110.298 413.512 110.404C413.072 110.503 412.697 110.65 412.387 110.843C412.082 111.036 411.848 111.271 411.684 111.546C411.52 111.816 411.438 112.12 411.438 112.46C411.438 112.812 411.528 113.134 411.71 113.427C411.892 113.72 412.149 113.954 412.483 114.13C412.823 114.3 413.219 114.385 413.67 114.385C414.279 114.385 414.818 114.277 415.287 114.06C415.762 113.843 416.154 113.553 416.465 113.19C416.775 112.821 416.995 112.407 417.124 111.95L417.502 112.504C417.414 112.803 417.268 113.111 417.062 113.427C416.857 113.738 416.591 114.025 416.263 114.288C415.935 114.552 415.548 114.766 415.103 114.93C414.663 115.094 414.159 115.176 413.591 115.176C412.981 115.176 412.448 115.062 411.991 114.833C411.54 114.599 411.188 114.282 410.937 113.884C410.69 113.48 410.567 113.023 410.567 112.513C410.567 112.062 410.667 111.655 410.866 111.291C411.065 110.922 411.353 110.609 411.728 110.351C412.103 110.087 412.56 109.885 413.099 109.744C413.638 109.604 414.244 109.533 414.918 109.533H417.203ZM426.906 112.803V105.49H427.785V115H426.933L426.906 112.803ZM427.064 111.115L427.557 111.098C427.557 111.684 427.486 112.226 427.346 112.724C427.205 113.216 426.982 113.647 426.678 114.016C426.379 114.385 425.992 114.672 425.518 114.877C425.043 115.076 424.475 115.176 423.812 115.176C423.35 115.176 422.925 115.112 422.538 114.983C422.157 114.848 421.826 114.637 421.545 114.35C421.27 114.063 421.056 113.691 420.903 113.234C420.757 112.771 420.684 112.214 420.684 111.564V105.49H421.554V111.581C421.554 112.109 421.612 112.554 421.729 112.917C421.853 113.275 422.02 113.562 422.23 113.779C422.447 113.995 422.696 114.154 422.978 114.253C423.259 114.347 423.563 114.394 423.892 114.394C424.688 114.394 425.318 114.241 425.781 113.937C426.244 113.626 426.572 113.222 426.766 112.724C426.965 112.22 427.064 111.684 427.064 111.115ZM436.847 113.155V101.5H437.717V115H436.891L436.847 113.155ZM430.176 110.342V110.157C430.176 109.413 430.258 108.745 430.422 108.154C430.592 107.556 430.835 107.046 431.151 106.624C431.468 106.202 431.849 105.88 432.294 105.657C432.745 105.429 433.255 105.315 433.823 105.315C434.368 105.315 434.852 105.403 435.273 105.578C435.695 105.754 436.059 106.003 436.363 106.325C436.668 106.648 436.917 107.029 437.11 107.468C437.304 107.907 437.447 108.394 437.541 108.927V111.757C437.471 112.243 437.339 112.695 437.146 113.111C436.958 113.527 436.709 113.89 436.398 114.2C436.094 114.511 435.725 114.751 435.291 114.921C434.857 115.091 434.362 115.176 433.806 115.176C433.243 115.176 432.736 115.059 432.285 114.824C431.84 114.59 431.459 114.259 431.143 113.831C430.832 113.398 430.592 112.888 430.422 112.302C430.258 111.71 430.176 111.057 430.176 110.342ZM431.055 110.157V110.342C431.055 110.916 431.113 111.452 431.23 111.95C431.348 112.443 431.523 112.87 431.758 113.234C431.992 113.597 432.291 113.881 432.654 114.086C433.018 114.291 433.445 114.394 433.938 114.394C434.559 114.394 435.083 114.28 435.511 114.051C435.938 113.817 436.281 113.506 436.539 113.119C436.797 112.733 436.981 112.308 437.093 111.845V108.918C437.022 108.614 436.92 108.297 436.785 107.969C436.65 107.641 436.463 107.336 436.223 107.055C435.982 106.768 435.678 106.536 435.309 106.361C434.939 106.185 434.488 106.097 433.955 106.097C433.457 106.097 433.026 106.199 432.663 106.405C432.3 106.61 431.998 106.897 431.758 107.266C431.523 107.629 431.348 108.057 431.23 108.549C431.113 109.041 431.055 109.577 431.055 110.157ZM441.558 105.49V115H440.688V105.49H441.558ZM440.485 102.669C440.485 102.493 440.544 102.344 440.661 102.221C440.778 102.092 440.934 102.028 441.127 102.028C441.326 102.028 441.484 102.092 441.602 102.221C441.725 102.344 441.786 102.493 441.786 102.669C441.786 102.845 441.725 102.994 441.602 103.117C441.484 103.24 441.326 103.302 441.127 103.302C440.934 103.302 440.778 103.24 440.661 103.117C440.544 102.994 440.485 102.845 440.485 102.669ZM448.105 115.176C447.496 115.176 446.934 115.062 446.418 114.833C445.902 114.605 445.454 114.282 445.073 113.866C444.692 113.445 444.396 112.949 444.186 112.381C443.975 111.807 443.869 111.177 443.869 110.491V110.114C443.869 109.387 443.975 108.731 444.186 108.145C444.402 107.559 444.698 107.055 445.073 106.633C445.454 106.205 445.888 105.88 446.374 105.657C446.86 105.429 447.376 105.315 447.921 105.315C448.495 105.315 449.011 105.42 449.468 105.631C449.931 105.836 450.323 106.129 450.646 106.51C450.968 106.891 451.211 107.342 451.375 107.864C451.545 108.379 451.63 108.95 451.63 109.577V110.193H444.405V109.428H450.76V109.314C450.754 108.745 450.64 108.218 450.417 107.732C450.2 107.24 449.881 106.841 449.459 106.536C449.043 106.232 448.53 106.079 447.921 106.079C447.446 106.079 447.013 106.182 446.62 106.387C446.233 106.586 445.899 106.867 445.618 107.231C445.337 107.588 445.12 108.013 444.968 108.505C444.815 108.991 444.739 109.528 444.739 110.114V110.491C444.739 111.036 444.821 111.546 444.985 112.021C445.155 112.495 445.39 112.911 445.688 113.269C445.993 113.626 446.354 113.907 446.77 114.113C447.186 114.318 447.64 114.42 448.132 114.42C448.688 114.42 449.189 114.321 449.635 114.121C450.08 113.916 450.484 113.579 450.848 113.111L451.401 113.532C451.196 113.837 450.941 114.115 450.637 114.367C450.332 114.614 449.972 114.81 449.556 114.956C449.14 115.103 448.656 115.176 448.105 115.176ZM454.601 107.521V115H453.73V105.49H454.574L454.601 107.521ZM454.416 109.586L454.021 109.243C454.062 108.716 454.179 108.215 454.372 107.74C454.565 107.266 454.826 106.847 455.154 106.484C455.482 106.12 455.869 105.836 456.314 105.631C456.76 105.42 457.249 105.315 457.782 105.315C458.257 105.315 458.682 105.379 459.057 105.508C459.432 105.637 459.748 105.842 460.006 106.123C460.27 106.405 460.469 106.768 460.604 107.213C460.744 107.653 460.814 108.189 460.814 108.822V115H459.944V108.813C459.944 108.11 459.845 107.562 459.646 107.169C459.452 106.777 459.18 106.498 458.828 106.334C458.482 106.17 458.072 106.088 457.598 106.088C457.064 106.088 456.602 106.205 456.209 106.44C455.816 106.674 455.488 106.973 455.225 107.336C454.967 107.699 454.771 108.083 454.636 108.488C454.501 108.886 454.428 109.252 454.416 109.586ZM467.037 114.411C467.494 114.411 467.925 114.326 468.329 114.156C468.739 113.981 469.079 113.72 469.349 113.374C469.624 113.029 469.779 112.595 469.814 112.073H470.649C470.62 112.689 470.438 113.231 470.104 113.699C469.771 114.168 469.334 114.531 468.795 114.789C468.262 115.047 467.676 115.176 467.037 115.176C466.387 115.176 465.812 115.059 465.314 114.824C464.816 114.584 464.397 114.25 464.058 113.823C463.724 113.395 463.469 112.894 463.293 112.32C463.123 111.74 463.038 111.11 463.038 110.43V110.061C463.038 109.381 463.123 108.754 463.293 108.18C463.469 107.6 463.724 107.096 464.058 106.668C464.397 106.24 464.813 105.909 465.306 105.675C465.804 105.435 466.378 105.315 467.028 105.315C467.685 105.315 468.279 105.449 468.812 105.719C469.352 105.983 469.785 106.366 470.113 106.87C470.441 107.368 470.62 107.969 470.649 108.672H469.814C469.785 108.121 469.642 107.656 469.384 107.275C469.126 106.888 468.792 106.592 468.382 106.387C467.972 106.182 467.521 106.079 467.028 106.079C466.472 106.079 465.994 106.188 465.596 106.405C465.203 106.615 464.881 106.908 464.629 107.283C464.383 107.653 464.198 108.074 464.075 108.549C463.958 109.024 463.899 109.528 463.899 110.061V110.43C463.899 110.963 463.958 111.47 464.075 111.95C464.192 112.425 464.377 112.847 464.629 113.216C464.881 113.585 465.206 113.878 465.604 114.095C466.003 114.306 466.48 114.411 467.037 114.411ZM476.441 115.176C475.832 115.176 475.27 115.062 474.754 114.833C474.238 114.605 473.79 114.282 473.409 113.866C473.028 113.445 472.732 112.949 472.521 112.381C472.311 111.807 472.205 111.177 472.205 110.491V110.114C472.205 109.387 472.311 108.731 472.521 108.145C472.738 107.559 473.034 107.055 473.409 106.633C473.79 106.205 474.224 105.88 474.71 105.657C475.196 105.429 475.712 105.315 476.257 105.315C476.831 105.315 477.347 105.42 477.804 105.631C478.267 105.836 478.659 106.129 478.981 106.51C479.304 106.891 479.547 107.342 479.711 107.864C479.881 108.379 479.966 108.95 479.966 109.577V110.193H472.741V109.428H479.096V109.314C479.09 108.745 478.976 108.218 478.753 107.732C478.536 107.24 478.217 106.841 477.795 106.536C477.379 106.232 476.866 106.079 476.257 106.079C475.782 106.079 475.349 106.182 474.956 106.387C474.569 106.586 474.235 106.867 473.954 107.231C473.673 107.588 473.456 108.013 473.304 108.505C473.151 108.991 473.075 109.528 473.075 110.114V110.491C473.075 111.036 473.157 111.546 473.321 112.021C473.491 112.495 473.726 112.911 474.024 113.269C474.329 113.626 474.689 113.907 475.105 114.113C475.521 114.318 475.976 114.42 476.468 114.42C477.024 114.42 477.525 114.321 477.971 114.121C478.416 113.916 478.82 113.579 479.184 113.111L479.737 113.532C479.532 113.837 479.277 114.115 478.973 114.367C478.668 114.614 478.308 114.81 477.892 114.956C477.476 115.103 476.992 115.176 476.441 115.176ZM482.937 113.418V114.631C482.937 115.17 482.834 115.674 482.629 116.143C482.424 116.617 482.148 117.019 481.803 117.347L481.275 116.943C481.451 116.708 481.601 116.471 481.724 116.231C481.847 115.996 481.938 115.75 481.996 115.492C482.055 115.235 482.084 114.953 482.084 114.649V113.418H482.937ZM495.698 113.269V108.365C495.698 107.89 495.599 107.483 495.399 107.143C495.2 106.797 494.907 106.533 494.521 106.352C494.14 106.164 493.668 106.071 493.105 106.071C492.59 106.071 492.127 106.161 491.717 106.343C491.312 106.525 490.99 106.771 490.75 107.081C490.516 107.392 490.398 107.738 490.398 108.118L489.537 108.101C489.537 107.743 489.622 107.398 489.792 107.064C489.968 106.73 490.214 106.431 490.53 106.167C490.853 105.904 491.233 105.696 491.673 105.543C492.118 105.391 492.607 105.315 493.141 105.315C493.814 105.315 494.406 105.429 494.916 105.657C495.432 105.88 495.836 106.22 496.129 106.677C496.422 107.128 496.568 107.697 496.568 108.382V113.031C496.568 113.36 496.592 113.699 496.639 114.051C496.686 114.403 496.756 114.687 496.85 114.904V115H495.909C495.839 114.783 495.786 114.517 495.751 114.2C495.716 113.878 495.698 113.568 495.698 113.269ZM495.936 109.533L495.953 110.245H493.765C493.196 110.245 492.689 110.298 492.244 110.404C491.805 110.503 491.43 110.65 491.119 110.843C490.814 111.036 490.58 111.271 490.416 111.546C490.252 111.816 490.17 112.12 490.17 112.46C490.17 112.812 490.261 113.134 490.442 113.427C490.624 113.72 490.882 113.954 491.216 114.13C491.556 114.3 491.951 114.385 492.402 114.385C493.012 114.385 493.551 114.277 494.02 114.06C494.494 113.843 494.887 113.553 495.197 113.19C495.508 112.821 495.728 112.407 495.856 111.95L496.234 112.504C496.146 112.803 496 113.111 495.795 113.427C495.59 113.738 495.323 114.025 494.995 114.288C494.667 114.552 494.28 114.766 493.835 114.93C493.396 115.094 492.892 115.176 492.323 115.176C491.714 115.176 491.181 115.062 490.724 114.833C490.272 114.599 489.921 114.282 489.669 113.884C489.423 113.48 489.3 113.023 489.3 112.513C489.3 112.062 489.399 111.655 489.599 111.291C489.798 110.922 490.085 110.609 490.46 110.351C490.835 110.087 491.292 109.885 491.831 109.744C492.37 109.604 492.977 109.533 493.65 109.533H495.936ZM500.321 107.521V115H499.451V105.49H500.295L500.321 107.521ZM500.137 109.586L499.741 109.243C499.782 108.716 499.899 108.215 500.093 107.74C500.286 107.266 500.547 106.847 500.875 106.484C501.203 106.12 501.59 105.836 502.035 105.631C502.48 105.42 502.97 105.315 503.503 105.315C503.978 105.315 504.402 105.379 504.777 105.508C505.152 105.637 505.469 105.842 505.727 106.123C505.99 106.405 506.189 106.768 506.324 107.213C506.465 107.653 506.535 108.189 506.535 108.822V115H505.665V108.813C505.665 108.11 505.565 107.562 505.366 107.169C505.173 106.777 504.9 106.498 504.549 106.334C504.203 106.17 503.793 106.088 503.318 106.088C502.785 106.088 502.322 106.205 501.93 106.44C501.537 106.674 501.209 106.973 500.945 107.336C500.688 107.699 500.491 108.083 500.356 108.488C500.222 108.886 500.148 109.252 500.137 109.586ZM515.579 113.155V101.5H516.449V115H515.623L515.579 113.155ZM508.908 110.342V110.157C508.908 109.413 508.99 108.745 509.154 108.154C509.324 107.556 509.567 107.046 509.884 106.624C510.2 106.202 510.581 105.88 511.026 105.657C511.478 105.429 511.987 105.315 512.556 105.315C513.101 105.315 513.584 105.403 514.006 105.578C514.428 105.754 514.791 106.003 515.096 106.325C515.4 106.648 515.649 107.029 515.843 107.468C516.036 107.907 516.18 108.394 516.273 108.927V111.757C516.203 112.243 516.071 112.695 515.878 113.111C515.69 113.527 515.441 113.89 515.131 114.2C514.826 114.511 514.457 114.751 514.023 114.921C513.59 115.091 513.095 115.176 512.538 115.176C511.976 115.176 511.469 115.059 511.018 114.824C510.572 114.59 510.191 114.259 509.875 113.831C509.564 113.398 509.324 112.888 509.154 112.302C508.99 111.71 508.908 111.057 508.908 110.342ZM509.787 110.157V110.342C509.787 110.916 509.846 111.452 509.963 111.95C510.08 112.443 510.256 112.87 510.49 113.234C510.725 113.597 511.023 113.881 511.387 114.086C511.75 114.291 512.178 114.394 512.67 114.394C513.291 114.394 513.815 114.28 514.243 114.051C514.671 113.817 515.014 113.506 515.271 113.119C515.529 112.733 515.714 112.308 515.825 111.845V108.918C515.755 108.614 515.652 108.297 515.518 107.969C515.383 107.641 515.195 107.336 514.955 107.055C514.715 106.768 514.41 106.536 514.041 106.361C513.672 106.185 513.221 106.097 512.688 106.097C512.189 106.097 511.759 106.199 511.396 106.405C511.032 106.61 510.73 106.897 510.49 107.266C510.256 107.629 510.08 108.057 509.963 108.549C509.846 109.041 509.787 109.577 509.787 110.157ZM527.146 105.49V106.238H522.487V105.49H527.146ZM524.236 103.012H525.115V112.698C525.115 113.172 525.174 113.532 525.291 113.779C525.414 114.019 525.575 114.18 525.774 114.262C525.974 114.344 526.188 114.385 526.416 114.385C526.58 114.385 526.732 114.376 526.873 114.359C527.02 114.341 527.16 114.321 527.295 114.297L527.348 115.044C527.219 115.085 527.052 115.117 526.847 115.141C526.642 115.164 526.448 115.176 526.267 115.176C525.862 115.176 525.508 115.103 525.203 114.956C524.898 114.804 524.661 114.549 524.491 114.192C524.321 113.828 524.236 113.33 524.236 112.698V103.012ZM533.025 115.176C532.416 115.176 531.854 115.062 531.338 114.833C530.822 114.605 530.374 114.282 529.993 113.866C529.612 113.445 529.316 112.949 529.105 112.381C528.895 111.807 528.789 111.177 528.789 110.491V110.114C528.789 109.387 528.895 108.731 529.105 108.145C529.322 107.559 529.618 107.055 529.993 106.633C530.374 106.205 530.808 105.88 531.294 105.657C531.78 105.429 532.296 105.315 532.841 105.315C533.415 105.315 533.931 105.42 534.388 105.631C534.851 105.836 535.243 106.129 535.565 106.51C535.888 106.891 536.131 107.342 536.295 107.864C536.465 108.379 536.55 108.95 536.55 109.577V110.193H529.325V109.428H535.68V109.314C535.674 108.745 535.56 108.218 535.337 107.732C535.12 107.24 534.801 106.841 534.379 106.536C533.963 106.232 533.45 106.079 532.841 106.079C532.366 106.079 531.933 106.182 531.54 106.387C531.153 106.586 530.819 106.867 530.538 107.231C530.257 107.588 530.04 108.013 529.888 108.505C529.735 108.991 529.659 109.528 529.659 110.114V110.491C529.659 111.036 529.741 111.546 529.905 112.021C530.075 112.495 530.31 112.911 530.608 113.269C530.913 113.626 531.273 113.907 531.689 114.113C532.105 114.318 532.56 114.42 533.052 114.42C533.608 114.42 534.109 114.321 534.555 114.121C535 113.916 535.404 113.579 535.768 113.111L536.321 113.532C536.116 113.837 535.861 114.115 535.557 114.367C535.252 114.614 534.892 114.81 534.476 114.956C534.06 115.103 533.576 115.176 533.025 115.176ZM542.078 114.411C542.535 114.411 542.966 114.326 543.37 114.156C543.78 113.981 544.12 113.72 544.39 113.374C544.665 113.029 544.82 112.595 544.855 112.073H545.69C545.661 112.689 545.479 113.231 545.146 113.699C544.812 114.168 544.375 114.531 543.836 114.789C543.303 115.047 542.717 115.176 542.078 115.176C541.428 115.176 540.854 115.059 540.355 114.824C539.857 114.584 539.438 114.25 539.099 113.823C538.765 113.395 538.51 112.894 538.334 112.32C538.164 111.74 538.079 111.11 538.079 110.43V110.061C538.079 109.381 538.164 108.754 538.334 108.18C538.51 107.6 538.765 107.096 539.099 106.668C539.438 106.24 539.854 105.909 540.347 105.675C540.845 105.435 541.419 105.315 542.069 105.315C542.726 105.315 543.32 105.449 543.854 105.719C544.393 105.983 544.826 106.366 545.154 106.87C545.482 107.368 545.661 107.969 545.69 108.672H544.855C544.826 108.121 544.683 107.656 544.425 107.275C544.167 106.888 543.833 106.592 543.423 106.387C543.013 106.182 542.562 106.079 542.069 106.079C541.513 106.079 541.035 106.188 540.637 106.405C540.244 106.615 539.922 106.908 539.67 107.283C539.424 107.653 539.239 108.074 539.116 108.549C538.999 109.024 538.94 109.528 538.94 110.061V110.43C538.94 110.963 538.999 111.47 539.116 111.95C539.233 112.425 539.418 112.847 539.67 113.216C539.922 113.585 540.247 113.878 540.646 114.095C541.044 114.306 541.521 114.411 542.078 114.411ZM548.749 101.5V115H547.879V101.5H548.749ZM548.564 109.586L548.169 109.243C548.21 108.716 548.327 108.215 548.521 107.74C548.714 107.266 548.975 106.847 549.303 106.484C549.631 106.12 550.018 105.836 550.463 105.631C550.908 105.42 551.397 105.315 551.931 105.315C552.405 105.315 552.83 105.379 553.205 105.508C553.58 105.637 553.896 105.842 554.154 106.123C554.418 106.405 554.617 106.768 554.752 107.213C554.893 107.653 554.963 108.189 554.963 108.822V115H554.093V108.813C554.093 108.11 553.993 107.562 553.794 107.169C553.601 106.777 553.328 106.498 552.977 106.334C552.631 106.17 552.221 106.088 551.746 106.088C551.213 106.088 550.75 106.205 550.357 106.44C549.965 106.674 549.637 106.973 549.373 107.336C549.115 107.699 548.919 108.083 548.784 108.488C548.649 108.886 548.576 109.252 548.564 109.586ZM562.987 107.521V115H562.117V105.49H562.961L562.987 107.521ZM562.803 109.586L562.407 109.243C562.448 108.716 562.565 108.215 562.759 107.74C562.952 107.266 563.213 106.847 563.541 106.484C563.869 106.12 564.256 105.836 564.701 105.631C565.146 105.42 565.636 105.315 566.169 105.315C566.644 105.315 567.068 105.379 567.443 105.508C567.818 105.637 568.135 105.842 568.393 106.123C568.656 106.405 568.855 106.768 568.99 107.213C569.131 107.653 569.201 108.189 569.201 108.822V115H568.331V108.813C568.331 108.11 568.231 107.562 568.032 107.169C567.839 106.777 567.566 106.498 567.215 106.334C566.869 106.17 566.459 106.088 565.984 106.088C565.451 106.088 564.988 106.205 564.596 106.44C564.203 106.674 563.875 106.973 563.611 107.336C563.354 107.699 563.157 108.083 563.022 108.488C562.888 108.886 562.814 109.252 562.803 109.586ZM575.6 115.176C574.99 115.176 574.428 115.062 573.912 114.833C573.396 114.605 572.948 114.282 572.567 113.866C572.187 113.445 571.891 112.949 571.68 112.381C571.469 111.807 571.363 111.177 571.363 110.491V110.114C571.363 109.387 571.469 108.731 571.68 108.145C571.896 107.559 572.192 107.055 572.567 106.633C572.948 106.205 573.382 105.88 573.868 105.657C574.354 105.429 574.87 105.315 575.415 105.315C575.989 105.315 576.505 105.42 576.962 105.631C577.425 105.836 577.817 106.129 578.14 106.51C578.462 106.891 578.705 107.342 578.869 107.864C579.039 108.379 579.124 108.95 579.124 109.577V110.193H571.899V109.428H578.254V109.314C578.248 108.745 578.134 108.218 577.911 107.732C577.694 107.24 577.375 106.841 576.953 106.536C576.537 106.232 576.024 106.079 575.415 106.079C574.94 106.079 574.507 106.182 574.114 106.387C573.728 106.586 573.394 106.867 573.112 107.231C572.831 107.588 572.614 108.013 572.462 108.505C572.31 108.991 572.233 109.528 572.233 110.114V110.491C572.233 111.036 572.315 111.546 572.479 112.021C572.649 112.495 572.884 112.911 573.183 113.269C573.487 113.626 573.848 113.907 574.264 114.113C574.68 114.318 575.134 114.42 575.626 114.42C576.183 114.42 576.684 114.321 577.129 114.121C577.574 113.916 577.979 113.579 578.342 113.111L578.896 113.532C578.69 113.837 578.436 114.115 578.131 114.367C577.826 114.614 577.466 114.81 577.05 114.956C576.634 115.103 576.15 115.176 575.6 115.176ZM584.828 115.176C584.219 115.176 583.656 115.062 583.141 114.833C582.625 114.605 582.177 114.282 581.796 113.866C581.415 113.445 581.119 112.949 580.908 112.381C580.697 111.807 580.592 111.177 580.592 110.491V110.114C580.592 109.387 580.697 108.731 580.908 108.145C581.125 107.559 581.421 107.055 581.796 106.633C582.177 106.205 582.61 105.88 583.097 105.657C583.583 105.429 584.099 105.315 584.644 105.315C585.218 105.315 585.733 105.42 586.19 105.631C586.653 105.836 587.046 106.129 587.368 106.51C587.69 106.891 587.934 107.342 588.098 107.864C588.268 108.379 588.353 108.95 588.353 109.577V110.193H581.128V109.428H587.482V109.314C587.477 108.745 587.362 108.218 587.14 107.732C586.923 107.24 586.604 106.841 586.182 106.536C585.766 106.232 585.253 106.079 584.644 106.079C584.169 106.079 583.735 106.182 583.343 106.387C582.956 106.586 582.622 106.867 582.341 107.231C582.06 107.588 581.843 108.013 581.69 108.505C581.538 108.991 581.462 109.528 581.462 110.114V110.491C581.462 111.036 581.544 111.546 581.708 112.021C581.878 112.495 582.112 112.911 582.411 113.269C582.716 113.626 583.076 113.907 583.492 114.113C583.908 114.318 584.362 114.42 584.854 114.42C585.411 114.42 585.912 114.321 586.357 114.121C586.803 113.916 587.207 113.579 587.57 113.111L588.124 113.532C587.919 113.837 587.664 114.115 587.359 114.367C587.055 114.614 586.694 114.81 586.278 114.956C585.862 115.103 585.379 115.176 584.828 115.176ZM596.702 113.155V101.5H597.572V115H596.746L596.702 113.155ZM590.031 110.342V110.157C590.031 109.413 590.113 108.745 590.277 108.154C590.447 107.556 590.69 107.046 591.007 106.624C591.323 106.202 591.704 105.88 592.149 105.657C592.601 105.429 593.11 105.315 593.679 105.315C594.224 105.315 594.707 105.403 595.129 105.578C595.551 105.754 595.914 106.003 596.219 106.325C596.523 106.648 596.772 107.029 596.966 107.468C597.159 107.907 597.303 108.394 597.396 108.927V111.757C597.326 112.243 597.194 112.695 597.001 113.111C596.813 113.527 596.564 113.89 596.254 114.2C595.949 114.511 595.58 114.751 595.146 114.921C594.713 115.091 594.218 115.176 593.661 115.176C593.099 115.176 592.592 115.059 592.141 114.824C591.695 114.59 591.314 114.259 590.998 113.831C590.688 113.398 590.447 112.888 590.277 112.302C590.113 111.71 590.031 111.057 590.031 110.342ZM590.91 110.157V110.342C590.91 110.916 590.969 111.452 591.086 111.95C591.203 112.443 591.379 112.87 591.613 113.234C591.848 113.597 592.146 113.881 592.51 114.086C592.873 114.291 593.301 114.394 593.793 114.394C594.414 114.394 594.938 114.28 595.366 114.051C595.794 113.817 596.137 113.506 596.395 113.119C596.652 112.733 596.837 112.308 596.948 111.845V108.918C596.878 108.614 596.775 108.297 596.641 107.969C596.506 107.641 596.318 107.336 596.078 107.055C595.838 106.768 595.533 106.536 595.164 106.361C594.795 106.185 594.344 106.097 593.811 106.097C593.312 106.097 592.882 106.199 592.519 106.405C592.155 106.61 591.854 106.897 591.613 107.266C591.379 107.629 591.203 108.057 591.086 108.549C590.969 109.041 590.91 109.577 590.91 110.157ZM606.177 112.601C606.177 112.337 606.106 112.073 605.966 111.81C605.825 111.54 605.564 111.294 605.184 111.072C604.803 110.843 604.246 110.653 603.514 110.5C602.986 110.383 602.518 110.254 602.107 110.114C601.697 109.967 601.352 109.791 601.07 109.586C600.795 109.381 600.584 109.138 600.438 108.857C600.297 108.57 600.227 108.233 600.227 107.846C600.227 107.494 600.303 107.166 600.455 106.862C600.607 106.557 600.827 106.29 601.114 106.062C601.401 105.827 601.747 105.646 602.151 105.517C602.562 105.382 603.021 105.315 603.531 105.315C604.258 105.315 604.879 105.438 605.395 105.684C605.91 105.924 606.306 106.255 606.581 106.677C606.862 107.099 607.003 107.579 607.003 108.118H606.133C606.133 107.767 606.03 107.439 605.825 107.134C605.626 106.823 605.333 106.572 604.946 106.378C604.56 106.179 604.088 106.079 603.531 106.079C602.951 106.079 602.482 106.167 602.125 106.343C601.768 106.519 601.507 106.739 601.343 107.002C601.179 107.266 601.097 107.538 601.097 107.82C601.097 108.042 601.129 108.244 601.193 108.426C601.264 108.608 601.393 108.778 601.58 108.936C601.768 109.094 602.034 109.243 602.38 109.384C602.731 109.519 603.186 109.651 603.742 109.78C604.51 109.949 605.134 110.157 605.614 110.404C606.101 110.644 606.458 110.94 606.687 111.291C606.921 111.643 607.038 112.068 607.038 112.566C607.038 112.952 606.956 113.307 606.792 113.629C606.634 113.946 606.402 114.221 606.098 114.455C605.799 114.684 605.436 114.863 605.008 114.991C604.586 115.115 604.114 115.176 603.593 115.176C602.796 115.176 602.125 115.047 601.58 114.789C601.035 114.531 600.622 114.192 600.341 113.77C600.06 113.348 599.919 112.894 599.919 112.407H600.789C600.824 112.917 600.985 113.319 601.272 113.612C601.565 113.905 601.92 114.113 602.336 114.236C602.758 114.353 603.177 114.411 603.593 114.411C604.155 114.411 604.627 114.326 605.008 114.156C605.395 113.981 605.685 113.755 605.878 113.48C606.077 113.204 606.177 112.911 606.177 112.601Z" fill="white"/>
<mask id="path-7-outside-1_446_195" maskUnits="userSpaceOnUse" x="3" y="48.0002" width="44" height="82" fill="black">
<rect fill="white" x="3" y="48.0002" width="44" height="82"/>
<path d="M41.3164 53.9065V125H24.8613V72.4612L8.65039 77.1975V64.6975L39.8027 53.9065H41.3164Z"/>
</mask>
<path d="M41.3164 53.9065H46.3164V48.9065H41.3164V53.9065ZM41.3164 125V130H46.3164V125H41.3164ZM24.8613 125H19.8613V130H24.8613V125ZM24.8613 72.4612H29.8613V65.7913L23.4591 67.6618L24.8613 72.4612ZM8.65039 77.1975H3.65039V83.8674L10.0526 81.9969L8.65039 77.1975ZM8.65039 64.6975L7.01382 59.9729L3.65039 61.138V64.6975H8.65039ZM39.8027 53.9065V48.9065H38.9613L38.1662 49.1819L39.8027 53.9065ZM41.3164 53.9065H36.3164V125H41.3164H46.3164V53.9065H41.3164ZM41.3164 125V120H24.8613V125V130H41.3164V125ZM24.8613 125H29.8613V72.4612H24.8613H19.8613V125H24.8613ZM24.8613 72.4612L23.4591 67.6618L7.24817 72.3982L8.65039 77.1975L10.0526 81.9969L26.2635 77.2605L24.8613 72.4612ZM8.65039 77.1975H13.6504V64.6975H8.65039H3.65039V77.1975H8.65039ZM8.65039 64.6975L10.287 69.4221L41.4393 58.6311L39.8027 53.9065L38.1662 49.1819L7.01382 59.9729L8.65039 64.6975ZM39.8027 53.9065V58.9065H41.3164V53.9065V48.9065H39.8027V53.9065Z" fill="#1A5069" mask="url(#path-7-outside-1_446_195)"/>
<defs>
<radialGradient id="paint0_radial_446_195" cx="0" cy="0" r="1" gradientUnits="userSpaceOnUse" gradientTransform="translate(96.2629 367.631) scale(96.2629 367.631)">
<stop stop-color="#1A5069"/>
<stop offset="1" stop-color="#0F7BAE" stop-opacity="0"/>
</radialGradient>
<radialGradient id="paint1_radial_446_195" cx="0" cy="0" r="1" gradientUnits="userSpaceOnUse" gradientTransform="translate(96.2629 367.631) scale(96.2629 367.631)">
<stop stop-color="#1A5069"/>
<stop offset="1" stop-color="#0F7BAE" stop-opacity="0"/>
</radialGradient>
</defs>
</svg>
