<svg width="798" height="180" viewBox="0 0 798 180" fill="none" xmlns="http://www.w3.org/2000/svg">
<mask id="mask0_446_218" style="mask-type:alpha" maskUnits="userSpaceOnUse" x="71" y="0" width="727" height="180">
<rect x="-1.00159" y="0.995166" width="174.036" height="724.019" rx="87.0179" transform="matrix(-0.00160036 0.999999 -0.999988 -0.00483255 797.285 5.51011)" fill="black" stroke="#136A93" stroke-width="2"/>
</mask>
<g mask="url(#mask0_446_218)">
<rect width="192.526" height="735.262" rx="47.5" transform="matrix(-0.00160036 0.999999 -0.999988 -0.00483255 1072.4 68.4429)" fill="url(#paint0_radial_446_218)" fill-opacity="0.74"/>
<rect width="192.526" height="735.262" rx="47.5" transform="matrix(-0.00160036 0.999999 -0.999988 -0.00483255 531.426 -57.9541)" fill="url(#paint1_radial_446_218)" fill-opacity="0.74"/>
</g>
<rect x="74.291" y="1.54663" width="722.708" height="175.235" rx="87.6177" fill="#D9D9D9" fill-opacity="0.14" stroke="#136A93" stroke-width="2"/>
<path d="M323.962 79.0002H318.596L318.63 75.3088H323.962C325.409 75.3088 326.623 74.9898 327.603 74.3518C328.582 73.7024 329.323 72.7738 329.824 71.5662C330.326 70.3471 330.576 68.8888 330.576 67.1912V65.9094C330.576 64.5992 330.434 63.4428 330.149 62.4402C329.864 61.4376 329.443 60.5945 328.884 59.9109C328.337 59.2273 327.66 58.7089 326.851 58.3557C326.042 58.0025 325.113 57.8259 324.065 57.8259H318.494V54.1174H324.065C325.728 54.1174 327.244 54.3966 328.611 54.9548C329.989 55.5131 331.18 56.3163 332.183 57.3645C333.197 58.4013 333.971 59.6431 334.507 61.0901C335.054 62.537 335.327 64.1549 335.327 65.9436V67.1912C335.327 68.9685 335.054 70.5863 334.507 72.0447C333.971 73.4916 333.197 74.7335 332.183 75.7703C331.18 76.807 329.984 77.6046 328.594 78.1628C327.204 78.7211 325.66 79.0002 323.962 79.0002ZM321.228 54.1174V79.0002H316.528V54.1174H321.228ZM347.04 79.342C345.639 79.342 344.38 79.1142 343.263 78.6584C342.147 78.2027 341.195 77.5704 340.409 76.7615C339.634 75.9412 339.036 74.9898 338.615 73.9075C338.205 72.8137 338 71.6402 338 70.387V69.7034C338 68.2792 338.205 66.9861 338.615 65.824C339.025 64.6505 339.606 63.6422 340.358 62.7991C341.11 61.956 342.01 61.3066 343.058 60.8508C344.106 60.3951 345.263 60.1672 346.527 60.1672C347.838 60.1672 348.994 60.3894 349.997 60.8337C350.999 61.2667 351.837 61.8819 352.509 62.6794C353.181 63.477 353.688 64.434 354.03 65.5505C354.372 66.6557 354.542 67.8805 354.542 69.2249V71.1218H340.05V68.0115H350.099V67.6697C350.076 66.9519 349.94 66.2968 349.689 65.7043C349.438 65.1005 349.051 64.622 348.527 64.2688C348.003 63.9042 347.325 63.7219 346.493 63.7219C345.821 63.7219 345.234 63.87 344.733 64.1663C344.243 64.4511 343.833 64.8612 343.502 65.3967C343.183 65.9208 342.944 66.5474 342.785 67.2766C342.625 68.0058 342.545 68.8147 342.545 69.7034V70.387C342.545 71.1617 342.648 71.8795 342.853 72.5403C343.069 73.2011 343.383 73.7764 343.793 74.2664C344.215 74.7449 344.716 75.1208 345.297 75.3943C345.889 75.6563 346.562 75.7874 347.313 75.7874C348.259 75.7874 349.114 75.6051 349.877 75.2405C350.652 74.8645 351.324 74.3119 351.894 73.5828L354.167 75.9412C353.779 76.5108 353.255 77.0577 352.594 77.5818C351.945 78.1059 351.159 78.5331 350.236 78.8635C349.313 79.1825 348.248 79.342 347.04 79.342ZM363.213 75.5823L367.52 60.509H372.237L365.896 79.0002H363.025L363.213 75.5823ZM360.069 60.509L364.427 75.6165L364.581 79.0002H361.692L355.335 60.509H360.069ZM382.429 79.342C381.027 79.342 379.768 79.1142 378.652 78.6584C377.535 78.2027 376.584 77.5704 375.798 76.7615C375.023 75.9412 374.425 74.9898 374.003 73.9075C373.593 72.8137 373.388 71.6402 373.388 70.387V69.7034C373.388 68.2792 373.593 66.9861 374.003 65.824C374.414 64.6505 374.995 63.6422 375.747 62.7991C376.499 61.956 377.399 61.3066 378.447 60.8508C379.495 60.3951 380.651 60.1672 381.916 60.1672C383.226 60.1672 384.383 60.3894 385.385 60.8337C386.388 61.2667 387.225 61.8819 387.897 62.6794C388.57 63.477 389.077 64.434 389.418 65.5505C389.76 66.6557 389.931 67.8805 389.931 69.2249V71.1218H375.439V68.0115H385.488V67.6697C385.465 66.9519 385.328 66.2968 385.078 65.7043C384.827 65.1005 384.44 64.622 383.916 64.2688C383.391 63.9042 382.714 63.7219 381.882 63.7219C381.21 63.7219 380.623 63.87 380.122 64.1663C379.632 64.4511 379.222 64.8612 378.891 65.3967C378.572 65.9208 378.333 66.5474 378.173 67.2766C378.014 68.0058 377.934 68.8147 377.934 69.7034V70.387C377.934 71.1617 378.037 71.8795 378.242 72.5403C378.458 73.2011 378.771 73.7764 379.182 74.2664C379.603 74.7449 380.104 75.1208 380.686 75.3943C381.278 75.6563 381.95 75.7874 382.702 75.7874C383.648 75.7874 384.502 75.6051 385.266 75.2405C386.04 74.8645 386.713 74.3119 387.282 73.5828L389.555 75.9412C389.168 76.5108 388.644 77.0577 387.983 77.5818C387.333 78.1059 386.547 78.5331 385.625 78.8635C384.702 79.1825 383.636 79.342 382.429 79.342ZM397.491 52.7502V79.0002H392.962V52.7502H397.491ZM400.745 69.9426V69.5837C400.745 68.2279 400.938 66.9804 401.326 65.8411C401.713 64.6903 402.277 63.6934 403.018 62.8503C403.758 62.0072 404.664 61.3521 405.735 60.885C406.806 60.4065 408.025 60.1672 409.392 60.1672C410.782 60.1672 412.013 60.4065 413.083 60.885C414.166 61.3521 415.077 62.0072 415.818 62.8503C416.558 63.6934 417.122 64.6903 417.51 65.8411C417.897 66.9804 418.091 68.2279 418.091 69.5837V69.9426C418.091 71.287 417.897 72.5346 417.51 73.6853C417.122 74.8246 416.558 75.8215 415.818 76.676C415.077 77.5191 414.172 78.1742 413.101 78.6414C412.03 79.1085 410.805 79.342 409.426 79.342C408.059 79.342 406.834 79.1085 405.752 78.6414C404.67 78.1742 403.758 77.5191 403.018 76.676C402.277 75.8215 401.713 74.8246 401.326 73.6853C400.938 72.5346 400.745 71.287 400.745 69.9426ZM405.256 69.5837V69.9426C405.256 70.7515 405.336 71.5092 405.496 72.2156C405.655 72.922 405.9 73.5429 406.23 74.0784C406.561 74.6139 406.988 75.0354 407.512 75.343C408.048 75.6392 408.686 75.7874 409.426 75.7874C410.155 75.7874 410.782 75.6392 411.306 75.343C411.83 75.0354 412.257 74.6139 412.588 74.0784C412.93 73.5429 413.18 72.922 413.34 72.2156C413.499 71.5092 413.579 70.7515 413.579 69.9426V69.5837C413.579 68.7862 413.499 68.04 413.34 67.345C413.18 66.6386 412.93 66.0177 412.588 65.4822C412.257 64.9353 411.825 64.5081 411.289 64.2004C410.765 63.8814 410.133 63.7219 409.392 63.7219C408.663 63.7219 408.036 63.8814 407.512 64.2004C406.988 64.5081 406.561 64.9353 406.23 65.4822C405.9 66.0177 405.655 66.6386 405.496 67.345C405.336 68.04 405.256 68.7862 405.256 69.5837ZM425.634 64.0637V86.1096H421.105V60.509H425.292L425.634 64.0637ZM437.511 69.5667V69.9255C437.511 71.2699 437.352 72.5175 437.033 73.6682C436.725 74.8075 436.269 75.8044 435.666 76.6589C435.062 77.502 434.31 78.1628 433.41 78.6414C432.521 79.1085 431.496 79.342 430.333 79.342C429.194 79.342 428.203 79.1256 427.36 78.6926C426.517 78.2483 425.805 77.6217 425.224 76.8127C424.643 76.0038 424.175 75.0639 423.822 73.9929C423.48 72.9106 423.224 71.7314 423.053 70.4553V69.3103C423.224 67.9545 423.48 66.724 423.822 65.6189C424.175 64.5024 424.643 63.5396 425.224 62.7307C425.805 61.9104 426.511 61.2781 427.343 60.8337C428.186 60.3894 429.171 60.1672 430.299 60.1672C431.473 60.1672 432.504 60.3894 433.393 60.8337C434.293 61.2781 435.05 61.9161 435.666 62.7478C436.281 63.5795 436.742 64.5707 437.05 65.7214C437.357 66.8722 437.511 68.1539 437.511 69.5667ZM432.982 69.9255V69.5667C432.982 68.7463 432.908 67.9887 432.76 67.2937C432.612 66.5873 432.384 65.9721 432.077 65.448C431.769 64.9125 431.37 64.4967 430.88 64.2004C430.39 63.9042 429.798 63.7561 429.103 63.7561C428.408 63.7561 427.81 63.87 427.309 64.0979C426.807 64.3258 426.397 64.6505 426.078 65.072C425.759 65.4936 425.508 65.9949 425.326 66.5759C425.155 67.1456 425.041 67.7779 424.984 68.4729V71.3098C425.087 72.1529 425.286 72.9106 425.583 73.5828C425.879 74.255 426.312 74.7904 426.881 75.1892C427.462 75.588 428.214 75.7874 429.137 75.7874C429.832 75.7874 430.425 75.6335 430.915 75.3259C431.404 75.0183 431.803 74.5968 432.111 74.0613C432.418 73.5144 432.641 72.8878 432.777 72.1814C432.914 71.475 432.982 70.7231 432.982 69.9255ZM453.093 65.5676L457.622 62.594C458.339 62.1155 458.835 61.6541 459.108 61.2097C459.382 60.7654 459.519 60.2299 459.519 59.6033C459.519 59.045 459.302 58.5266 458.869 58.0481C458.448 57.5582 457.849 57.3132 457.075 57.3132C456.528 57.3132 456.066 57.4386 455.69 57.6892C455.314 57.9399 455.03 58.276 454.836 58.6975C454.654 59.1077 454.562 59.5634 454.562 60.0647C454.562 60.5774 454.694 61.1015 454.956 61.637C455.229 62.1724 455.594 62.7364 456.049 63.3289C456.516 63.9099 457.035 64.5422 457.604 65.2258L469.345 79.0002H464.184L454.58 67.8235C453.771 66.8209 453.053 65.898 452.426 65.0549C451.8 64.2118 451.31 63.3972 450.957 62.6111C450.615 61.8136 450.444 60.9932 450.444 60.1501C450.444 58.8513 450.717 57.7234 451.264 56.7664C451.811 55.8093 452.58 55.0688 453.571 54.5447C454.574 54.0206 455.747 53.7585 457.092 53.7585C458.368 53.7585 459.467 54.0206 460.39 54.5447C461.324 55.0574 462.048 55.741 462.561 56.5955C463.073 57.45 463.33 58.3842 463.33 59.3982C463.33 60.1729 463.187 60.8907 462.902 61.5515C462.618 62.2009 462.224 62.7991 461.723 63.3459C461.222 63.8814 460.641 64.3884 459.98 64.8669L454.648 68.6951C454.135 69.128 453.748 69.5553 453.486 69.9768C453.235 70.387 453.064 70.7686 452.973 71.1218C452.893 71.475 452.854 71.8054 452.854 72.113C452.854 72.808 453.002 73.4347 453.298 73.9929C453.605 74.5398 454.038 74.9784 454.597 75.3088C455.166 75.6278 455.839 75.7874 456.613 75.7874C457.559 75.7874 458.47 75.5766 459.348 75.155C460.225 74.7335 461.011 74.1353 461.706 73.3606C462.412 72.5859 462.971 71.663 463.381 70.592C463.802 69.5097 464.013 68.3191 464.013 67.0203H467.875C467.875 68.2621 467.756 69.4413 467.517 70.5579C467.277 71.663 466.89 72.6884 466.354 73.634C465.819 74.5797 465.118 75.4228 464.252 76.1633C464.173 76.2317 464.076 76.3228 463.962 76.4368C463.859 76.5507 463.768 76.6418 463.688 76.7102C462.652 77.5989 461.529 78.2654 460.322 78.7097C459.125 79.1427 457.821 79.3591 456.408 79.3591C454.745 79.3591 453.309 79.0572 452.102 78.4534C450.894 77.8495 449.96 77.0178 449.299 75.9583C448.649 74.8987 448.325 73.6853 448.325 72.3181C448.325 71.3041 448.524 70.4211 448.923 69.6692C449.333 68.9058 449.897 68.1995 450.615 67.55C451.333 66.8892 452.159 66.2284 453.093 65.5676ZM490.139 54.1174V79.0002H485.457V54.1174H490.139ZM497.864 54.1174V57.8259H477.817V54.1174H497.864ZM507.099 79.342C505.697 79.342 504.438 79.1142 503.322 78.6584C502.205 78.2027 501.254 77.5704 500.468 76.7615C499.693 75.9412 499.095 74.9898 498.673 73.9075C498.263 72.8137 498.058 71.6402 498.058 70.387V69.7034C498.058 68.2792 498.263 66.9861 498.673 65.824C499.083 64.6505 499.665 63.6422 500.417 62.7991C501.168 61.956 502.069 61.3066 503.117 60.8508C504.165 60.3951 505.321 60.1672 506.586 60.1672C507.896 60.1672 509.053 60.3894 510.055 60.8337C511.058 61.2667 511.895 61.8819 512.567 62.6794C513.24 63.477 513.747 64.434 514.088 65.5505C514.43 66.6557 514.601 67.8805 514.601 69.2249V71.1218H500.109V68.0115H510.158V67.6697C510.135 66.9519 509.998 66.2968 509.748 65.7043C509.497 65.1005 509.11 64.622 508.585 64.2688C508.061 63.9042 507.383 63.7219 506.552 63.7219C505.88 63.7219 505.293 63.87 504.792 64.1663C504.302 64.4511 503.891 64.8612 503.561 65.3967C503.242 65.9208 503.003 66.5474 502.843 67.2766C502.684 68.0058 502.604 68.8147 502.604 69.7034V70.387C502.604 71.1617 502.707 71.8795 502.912 72.5403C503.128 73.2011 503.441 73.7764 503.852 74.2664C504.273 74.7449 504.774 75.1208 505.355 75.3943C505.948 75.6563 506.62 75.7874 507.372 75.7874C508.318 75.7874 509.172 75.6051 509.936 75.2405C510.71 74.8645 511.382 74.3119 511.952 73.5828L514.225 75.9412C513.838 76.5108 513.314 77.0577 512.653 77.5818C512.003 78.1059 511.217 78.5331 510.294 78.8635C509.372 79.1825 508.306 79.342 507.099 79.342ZM527.544 73.9417C527.544 73.5543 527.442 73.2068 527.237 72.8992C527.032 72.5916 526.644 72.3124 526.075 72.0618C525.516 71.7997 524.696 71.5548 523.614 71.3269C522.657 71.1218 521.774 70.8655 520.965 70.5579C520.156 70.2502 519.461 69.88 518.88 69.447C518.299 69.0027 517.843 68.4843 517.513 67.8918C517.194 67.288 517.034 66.593 517.034 65.8069C517.034 65.0435 517.199 64.3258 517.53 63.6536C517.86 62.97 518.339 62.3718 518.965 61.8591C519.592 61.335 520.355 60.9249 521.255 60.6287C522.155 60.321 523.169 60.1672 524.297 60.1672C525.87 60.1672 527.22 60.4236 528.348 60.9363C529.487 61.449 530.359 62.1554 530.962 63.0554C531.566 63.9441 531.868 64.9467 531.868 66.0632H527.356C527.356 65.5733 527.243 65.129 527.015 64.7302C526.798 64.3315 526.462 64.0125 526.006 63.7732C525.551 63.5225 524.975 63.3972 524.28 63.3972C523.654 63.3972 523.124 63.4998 522.691 63.7048C522.269 63.9099 521.95 64.1777 521.734 64.5081C521.517 64.8385 521.409 65.203 521.409 65.6018C521.409 65.898 521.466 66.1658 521.58 66.405C521.705 66.6329 521.905 66.8437 522.178 67.0374C522.452 67.231 522.822 67.4076 523.289 67.5671C523.768 67.7266 524.354 67.8805 525.049 68.0286C526.428 68.302 527.63 68.6666 528.655 69.1223C529.692 69.5667 530.501 70.1591 531.082 70.8997C531.663 71.6402 531.954 72.5859 531.954 73.7366C531.954 74.5569 531.777 75.3088 531.424 75.9924C531.071 76.6646 530.558 77.2514 529.886 77.7527C529.214 78.254 528.41 78.6471 527.476 78.9319C526.542 79.2053 525.488 79.342 524.314 79.342C522.617 79.342 521.181 79.0401 520.008 78.4363C518.834 77.821 517.946 77.0463 517.342 76.1121C516.738 75.1664 516.436 74.1866 516.436 73.1726H520.76C520.794 73.8904 520.988 74.4657 521.341 74.8987C521.694 75.3316 522.138 75.6449 522.674 75.8386C523.221 76.0209 523.796 76.1121 524.4 76.1121C525.083 76.1121 525.659 76.0209 526.126 75.8386C526.593 75.6449 526.946 75.3886 527.186 75.0696C527.425 74.7392 527.544 74.3632 527.544 73.9417ZM543.889 60.509V63.7561H533.293V60.509H543.889ZM536.13 55.9631H540.659V73.6682C540.659 74.2151 540.733 74.6366 540.881 74.9329C541.029 75.2291 541.251 75.4285 541.547 75.531C541.844 75.6335 542.197 75.6848 542.607 75.6848C542.903 75.6848 543.177 75.6677 543.427 75.6335C543.678 75.5994 543.889 75.5652 544.06 75.531L544.077 78.9148C543.701 79.0401 543.273 79.1427 542.795 79.2224C542.328 79.3022 541.798 79.342 541.206 79.342C540.192 79.342 539.303 79.1711 538.54 78.8293C537.776 78.4762 537.184 77.9122 536.762 77.1375C536.341 76.3513 536.13 75.3145 536.13 74.0271V55.9631Z" fill="#EDD5B1"/>
<path d="M332.76 111.028H333.647C333.56 111.912 333.319 112.662 332.927 113.278C332.54 113.893 332.016 114.365 331.354 114.693C330.691 115.015 329.903 115.176 328.989 115.176C328.269 115.176 327.615 115.041 327.029 114.772C326.449 114.496 325.948 114.107 325.526 113.603C325.11 113.093 324.791 112.487 324.568 111.783C324.346 111.08 324.234 110.304 324.234 109.454V107.758C324.234 106.897 324.346 106.117 324.568 105.42C324.791 104.717 325.113 104.114 325.535 103.61C325.957 103.1 326.461 102.71 327.047 102.441C327.639 102.165 328.304 102.028 329.042 102.028C329.933 102.028 330.706 102.189 331.362 102.511C332.024 102.833 332.549 103.302 332.936 103.917C333.322 104.532 333.56 105.285 333.647 106.176H332.76C332.672 105.455 332.479 104.846 332.18 104.348C331.887 103.85 331.479 103.469 330.958 103.205C330.437 102.942 329.798 102.81 329.042 102.81C328.438 102.81 327.894 102.927 327.407 103.161C326.927 103.396 326.517 103.73 326.177 104.163C325.837 104.597 325.576 105.115 325.395 105.719C325.213 106.323 325.122 106.996 325.122 107.74V109.454C325.122 110.175 325.21 110.84 325.386 111.449C325.562 112.053 325.816 112.574 326.15 113.014C326.484 113.453 326.889 113.793 327.363 114.033C327.844 114.274 328.386 114.394 328.989 114.394C329.757 114.394 330.404 114.271 330.932 114.025C331.459 113.779 331.872 113.406 332.171 112.908C332.476 112.41 332.672 111.783 332.76 111.028ZM335.528 110.404V110.087C335.528 109.396 335.628 108.76 335.827 108.18C336.026 107.594 336.311 107.087 336.68 106.659C337.049 106.232 337.491 105.901 338.007 105.666C338.528 105.432 339.105 105.315 339.738 105.315C340.377 105.315 340.954 105.432 341.47 105.666C341.991 105.901 342.437 106.232 342.806 106.659C343.181 107.087 343.468 107.594 343.667 108.18C343.866 108.76 343.966 109.396 343.966 110.087V110.404C343.966 111.095 343.866 111.734 343.667 112.32C343.468 112.9 343.181 113.404 342.806 113.831C342.437 114.259 341.994 114.59 341.479 114.824C340.963 115.059 340.389 115.176 339.756 115.176C339.117 115.176 338.537 115.059 338.016 114.824C337.5 114.59 337.055 114.259 336.68 113.831C336.311 113.404 336.026 112.9 335.827 112.32C335.628 111.734 335.528 111.095 335.528 110.404ZM336.39 110.087V110.404C336.39 110.937 336.463 111.447 336.609 111.933C336.762 112.413 336.979 112.841 337.26 113.216C337.547 113.585 337.898 113.878 338.314 114.095C338.736 114.306 339.217 114.411 339.756 114.411C340.289 114.411 340.761 114.306 341.171 114.095C341.587 113.878 341.936 113.585 342.217 113.216C342.504 112.841 342.721 112.413 342.867 111.933C343.02 111.447 343.096 110.937 343.096 110.404V110.087C343.096 109.566 343.02 109.065 342.867 108.584C342.721 108.104 342.504 107.676 342.217 107.301C341.93 106.926 341.578 106.63 341.162 106.413C340.746 106.191 340.271 106.079 339.738 106.079C339.205 106.079 338.73 106.191 338.314 106.413C337.898 106.63 337.547 106.926 337.26 107.301C336.973 107.676 336.756 108.104 336.609 108.584C336.463 109.065 336.39 109.566 336.39 110.087ZM352.43 113.155V101.5H353.3V115H352.474L352.43 113.155ZM345.759 110.342V110.157C345.759 109.413 345.841 108.745 346.005 108.154C346.175 107.556 346.418 107.046 346.734 106.624C347.051 106.202 347.432 105.88 347.877 105.657C348.328 105.429 348.838 105.315 349.406 105.315C349.951 105.315 350.435 105.403 350.856 105.578C351.278 105.754 351.642 106.003 351.946 106.325C352.251 106.648 352.5 107.029 352.693 107.468C352.887 107.907 353.03 108.394 353.124 108.927V111.757C353.054 112.243 352.922 112.695 352.729 113.111C352.541 113.527 352.292 113.89 351.981 114.2C351.677 114.511 351.308 114.751 350.874 114.921C350.44 115.091 349.945 115.176 349.389 115.176C348.826 115.176 348.319 115.059 347.868 114.824C347.423 114.59 347.042 114.259 346.726 113.831C346.415 113.398 346.175 112.888 346.005 112.302C345.841 111.71 345.759 111.057 345.759 110.342ZM346.638 110.157V110.342C346.638 110.916 346.696 111.452 346.813 111.95C346.931 112.443 347.106 112.87 347.341 113.234C347.575 113.597 347.874 113.881 348.237 114.086C348.601 114.291 349.028 114.394 349.521 114.394C350.142 114.394 350.666 114.28 351.094 114.051C351.521 113.817 351.864 113.506 352.122 113.119C352.38 112.733 352.564 112.308 352.676 111.845V108.918C352.605 108.614 352.503 108.297 352.368 107.969C352.233 107.641 352.046 107.336 351.806 107.055C351.565 106.768 351.261 106.536 350.892 106.361C350.522 106.185 350.071 106.097 349.538 106.097C349.04 106.097 348.609 106.199 348.246 106.405C347.883 106.61 347.581 106.897 347.341 107.266C347.106 107.629 346.931 108.057 346.813 108.549C346.696 109.041 346.638 109.577 346.638 110.157ZM359.751 115.176C359.142 115.176 358.579 115.062 358.063 114.833C357.548 114.605 357.1 114.282 356.719 113.866C356.338 113.445 356.042 112.949 355.831 112.381C355.62 111.807 355.515 111.177 355.515 110.491V110.114C355.515 109.387 355.62 108.731 355.831 108.145C356.048 107.559 356.344 107.055 356.719 106.633C357.1 106.205 357.533 105.88 358.02 105.657C358.506 105.429 359.021 105.315 359.566 105.315C360.141 105.315 360.656 105.42 361.113 105.631C361.576 105.836 361.969 106.129 362.291 106.51C362.613 106.891 362.856 107.342 363.021 107.864C363.19 108.379 363.275 108.95 363.275 109.577V110.193H356.051V109.428H362.405V109.314C362.399 108.745 362.285 108.218 362.062 107.732C361.846 107.24 361.526 106.841 361.104 106.536C360.688 106.232 360.176 106.079 359.566 106.079C359.092 106.079 358.658 106.182 358.266 106.387C357.879 106.586 357.545 106.867 357.264 107.231C356.982 107.588 356.766 108.013 356.613 108.505C356.461 108.991 356.385 109.528 356.385 110.114V110.491C356.385 111.036 356.467 111.546 356.631 112.021C356.801 112.495 357.035 112.911 357.334 113.269C357.639 113.626 357.999 113.907 358.415 114.113C358.831 114.318 359.285 114.42 359.777 114.42C360.334 114.42 360.835 114.321 361.28 114.121C361.726 113.916 362.13 113.579 362.493 113.111L363.047 113.532C362.842 113.837 362.587 114.115 362.282 114.367C361.978 114.614 361.617 114.81 361.201 114.956C360.785 115.103 360.302 115.176 359.751 115.176ZM366.246 113.418V114.631C366.246 115.17 366.144 115.674 365.938 116.143C365.733 116.617 365.458 117.019 365.112 117.347L364.585 116.943C364.761 116.708 364.91 116.471 365.033 116.231C365.156 115.996 365.247 115.75 365.306 115.492C365.364 115.235 365.394 114.953 365.394 114.649V113.418H366.246ZM374.156 105.49V115H373.286V105.49H374.156ZM373.084 102.669C373.084 102.493 373.143 102.344 373.26 102.221C373.377 102.092 373.532 102.028 373.726 102.028C373.925 102.028 374.083 102.092 374.2 102.221C374.323 102.344 374.385 102.493 374.385 102.669C374.385 102.845 374.323 102.994 374.2 103.117C374.083 103.24 373.925 103.302 373.726 103.302C373.532 103.302 373.377 103.24 373.26 103.117C373.143 102.994 373.084 102.845 373.084 102.669ZM380.59 105.49V106.238H375.932V105.49H380.59ZM377.681 103.012H378.56V112.698C378.56 113.172 378.618 113.532 378.735 113.779C378.858 114.019 379.02 114.18 379.219 114.262C379.418 114.344 379.632 114.385 379.86 114.385C380.024 114.385 380.177 114.376 380.317 114.359C380.464 114.341 380.604 114.321 380.739 114.297L380.792 115.044C380.663 115.085 380.496 115.117 380.291 115.141C380.086 115.164 379.893 115.176 379.711 115.176C379.307 115.176 378.952 115.103 378.647 114.956C378.343 114.804 378.105 114.549 377.936 114.192C377.766 113.828 377.681 113.33 377.681 112.698V103.012ZM386.47 115.176C385.86 115.176 385.298 115.062 384.782 114.833C384.267 114.605 383.818 114.282 383.438 113.866C383.057 113.445 382.761 112.949 382.55 112.381C382.339 111.807 382.233 111.177 382.233 110.491V110.114C382.233 109.387 382.339 108.731 382.55 108.145C382.767 107.559 383.062 107.055 383.438 106.633C383.818 106.205 384.252 105.88 384.738 105.657C385.225 105.429 385.74 105.315 386.285 105.315C386.859 105.315 387.375 105.42 387.832 105.631C388.295 105.836 388.688 106.129 389.01 106.51C389.332 106.891 389.575 107.342 389.739 107.864C389.909 108.379 389.994 108.95 389.994 109.577V110.193H382.77V109.428H389.124V109.314C389.118 108.745 389.004 108.218 388.781 107.732C388.564 107.24 388.245 106.841 387.823 106.536C387.407 106.232 386.895 106.079 386.285 106.079C385.811 106.079 385.377 106.182 384.984 106.387C384.598 106.586 384.264 106.867 383.982 107.231C383.701 107.588 383.484 108.013 383.332 108.505C383.18 108.991 383.104 109.528 383.104 110.114V110.491C383.104 111.036 383.186 111.546 383.35 112.021C383.52 112.495 383.754 112.911 384.053 113.269C384.357 113.626 384.718 113.907 385.134 114.113C385.55 114.318 386.004 114.42 386.496 114.42C387.053 114.42 387.554 114.321 387.999 114.121C388.444 113.916 388.849 113.579 389.212 113.111L389.766 113.532C389.561 113.837 389.306 114.115 389.001 114.367C388.696 114.614 388.336 114.81 387.92 114.956C387.504 115.103 387.021 115.176 386.47 115.176ZM392.965 107.09V115H392.095V105.49H392.947L392.965 107.09ZM396.463 105.42L396.428 106.211C396.316 106.194 396.205 106.182 396.094 106.176C395.988 106.164 395.874 106.158 395.751 106.158C395.271 106.158 394.849 106.249 394.485 106.431C394.122 106.613 393.817 106.865 393.571 107.187C393.331 107.509 393.146 107.884 393.018 108.312C392.895 108.734 392.827 109.191 392.815 109.683L392.455 109.788C392.455 109.15 392.52 108.561 392.648 108.022C392.783 107.477 392.988 107.002 393.264 106.598C393.539 106.194 393.885 105.88 394.301 105.657C394.717 105.429 395.209 105.315 395.777 105.315C395.912 105.315 396.041 105.326 396.164 105.35C396.293 105.367 396.393 105.391 396.463 105.42ZM403.635 113.269V108.365C403.635 107.89 403.535 107.483 403.336 107.143C403.137 106.797 402.844 106.533 402.457 106.352C402.076 106.164 401.604 106.071 401.042 106.071C400.526 106.071 400.063 106.161 399.653 106.343C399.249 106.525 398.927 106.771 398.687 107.081C398.452 107.392 398.335 107.738 398.335 108.118L397.474 108.101C397.474 107.743 397.559 107.398 397.729 107.064C397.904 106.73 398.15 106.431 398.467 106.167C398.789 105.904 399.17 105.696 399.609 105.543C400.055 105.391 400.544 105.315 401.077 105.315C401.751 105.315 402.343 105.429 402.853 105.657C403.368 105.88 403.772 106.22 404.065 106.677C404.358 107.128 404.505 107.697 404.505 108.382V113.031C404.505 113.36 404.528 113.699 404.575 114.051C404.622 114.403 404.692 114.687 404.786 114.904V115H403.846C403.775 114.783 403.723 114.517 403.688 114.2C403.652 113.878 403.635 113.568 403.635 113.269ZM403.872 109.533L403.89 110.245H401.701C401.133 110.245 400.626 110.298 400.181 110.404C399.741 110.503 399.366 110.65 399.056 110.843C398.751 111.036 398.517 111.271 398.353 111.546C398.188 111.816 398.106 112.12 398.106 112.46C398.106 112.812 398.197 113.134 398.379 113.427C398.561 113.72 398.818 113.954 399.152 114.13C399.492 114.3 399.888 114.385 400.339 114.385C400.948 114.385 401.487 114.277 401.956 114.06C402.431 113.843 402.823 113.553 403.134 113.19C403.444 112.821 403.664 112.407 403.793 111.95L404.171 112.504C404.083 112.803 403.937 113.111 403.731 113.427C403.526 113.738 403.26 114.025 402.932 114.288C402.604 114.552 402.217 114.766 401.771 114.93C401.332 115.094 400.828 115.176 400.26 115.176C399.65 115.176 399.117 115.062 398.66 114.833C398.209 114.599 397.857 114.282 397.605 113.884C397.359 113.48 397.236 113.023 397.236 112.513C397.236 112.062 397.336 111.655 397.535 111.291C397.734 110.922 398.021 110.609 398.396 110.351C398.771 110.087 399.229 109.885 399.768 109.744C400.307 109.604 400.913 109.533 401.587 109.533H403.872ZM410.877 105.49V106.238H406.219V105.49H410.877ZM407.968 103.012H408.847V112.698C408.847 113.172 408.905 113.532 409.022 113.779C409.146 114.019 409.307 114.18 409.506 114.262C409.705 114.344 409.919 114.385 410.147 114.385C410.312 114.385 410.464 114.376 410.604 114.359C410.751 114.341 410.892 114.321 411.026 114.297L411.079 115.044C410.95 115.085 410.783 115.117 410.578 115.141C410.373 115.164 410.18 115.176 409.998 115.176C409.594 115.176 409.239 115.103 408.935 114.956C408.63 114.804 408.393 114.549 408.223 114.192C408.053 113.828 407.968 113.33 407.968 112.698V103.012ZM416.757 115.176C416.147 115.176 415.585 115.062 415.069 114.833C414.554 114.605 414.105 114.282 413.725 113.866C413.344 113.445 413.048 112.949 412.837 112.381C412.626 111.807 412.521 111.177 412.521 110.491V110.114C412.521 109.387 412.626 108.731 412.837 108.145C413.054 107.559 413.35 107.055 413.725 106.633C414.105 106.205 414.539 105.88 415.025 105.657C415.512 105.429 416.027 105.315 416.572 105.315C417.146 105.315 417.662 105.42 418.119 105.631C418.582 105.836 418.975 106.129 419.297 106.51C419.619 106.891 419.862 107.342 420.026 107.864C420.196 108.379 420.281 108.95 420.281 109.577V110.193H413.057V109.428H419.411V109.314C419.405 108.745 419.291 108.218 419.068 107.732C418.852 107.24 418.532 106.841 418.11 106.536C417.694 106.232 417.182 106.079 416.572 106.079C416.098 106.079 415.664 106.182 415.271 106.387C414.885 106.586 414.551 106.867 414.27 107.231C413.988 107.588 413.771 108.013 413.619 108.505C413.467 108.991 413.391 109.528 413.391 110.114V110.491C413.391 111.036 413.473 111.546 413.637 112.021C413.807 112.495 414.041 112.911 414.34 113.269C414.645 113.626 415.005 113.907 415.421 114.113C415.837 114.318 416.291 114.42 416.783 114.42C417.34 114.42 417.841 114.321 418.286 114.121C418.731 113.916 419.136 113.579 419.499 113.111L420.053 113.532C419.848 113.837 419.593 114.115 419.288 114.367C418.983 114.614 418.623 114.81 418.207 114.956C417.791 115.103 417.308 115.176 416.757 115.176ZM423.252 113.418V114.631C423.252 115.17 423.149 115.674 422.944 116.143C422.739 116.617 422.464 117.019 422.118 117.347L421.591 116.943C421.767 116.708 421.916 116.471 422.039 116.231C422.162 115.996 422.253 115.75 422.312 115.492C422.37 115.235 422.399 114.953 422.399 114.649V113.418H423.252ZM433.658 105.49V106.238H429V105.49H433.658ZM430.749 103.012H431.628V112.698C431.628 113.172 431.687 113.532 431.804 113.779C431.927 114.019 432.088 114.18 432.287 114.262C432.486 114.344 432.7 114.385 432.929 114.385C433.093 114.385 433.245 114.376 433.386 114.359C433.532 114.341 433.673 114.321 433.808 114.297L433.86 115.044C433.731 115.085 433.564 115.117 433.359 115.141C433.154 115.164 432.961 115.176 432.779 115.176C432.375 115.176 432.021 115.103 431.716 114.956C431.411 114.804 431.174 114.549 431.004 114.192C430.834 113.828 430.749 113.33 430.749 112.698V103.012ZM439.538 115.176C438.929 115.176 438.366 115.062 437.851 114.833C437.335 114.605 436.887 114.282 436.506 113.866C436.125 113.445 435.829 112.949 435.618 112.381C435.407 111.807 435.302 111.177 435.302 110.491V110.114C435.302 109.387 435.407 108.731 435.618 108.145C435.835 107.559 436.131 107.055 436.506 106.633C436.887 106.205 437.32 105.88 437.807 105.657C438.293 105.429 438.809 105.315 439.354 105.315C439.928 105.315 440.443 105.42 440.9 105.631C441.363 105.836 441.756 106.129 442.078 106.51C442.4 106.891 442.644 107.342 442.808 107.864C442.978 108.379 443.062 108.95 443.062 109.577V110.193H435.838V109.428H442.192V109.314C442.187 108.745 442.072 108.218 441.85 107.732C441.633 107.24 441.313 106.841 440.892 106.536C440.476 106.232 439.963 106.079 439.354 106.079C438.879 106.079 438.445 106.182 438.053 106.387C437.666 106.586 437.332 106.867 437.051 107.231C436.77 107.588 436.553 108.013 436.4 108.505C436.248 108.991 436.172 109.528 436.172 110.114V110.491C436.172 111.036 436.254 111.546 436.418 112.021C436.588 112.495 436.822 112.911 437.121 113.269C437.426 113.626 437.786 113.907 438.202 114.113C438.618 114.318 439.072 114.42 439.564 114.42C440.121 114.42 440.622 114.321 441.067 114.121C441.513 113.916 441.917 113.579 442.28 113.111L442.834 113.532C442.629 113.837 442.374 114.115 442.069 114.367C441.765 114.614 441.404 114.81 440.988 114.956C440.572 115.103 440.089 115.176 439.538 115.176ZM450.92 112.601C450.92 112.337 450.85 112.073 450.709 111.81C450.568 111.54 450.308 111.294 449.927 111.072C449.546 110.843 448.989 110.653 448.257 110.5C447.729 110.383 447.261 110.254 446.851 110.114C446.44 109.967 446.095 109.791 445.813 109.586C445.538 109.381 445.327 109.138 445.181 108.857C445.04 108.57 444.97 108.233 444.97 107.846C444.97 107.494 445.046 107.166 445.198 106.862C445.351 106.557 445.57 106.29 445.857 106.062C446.145 105.827 446.49 105.646 446.895 105.517C447.305 105.382 447.765 105.315 448.274 105.315C449.001 105.315 449.622 105.438 450.138 105.684C450.653 105.924 451.049 106.255 451.324 106.677C451.605 107.099 451.746 107.579 451.746 108.118H450.876C450.876 107.767 450.773 107.439 450.568 107.134C450.369 106.823 450.076 106.572 449.689 106.378C449.303 106.179 448.831 106.079 448.274 106.079C447.694 106.079 447.226 106.167 446.868 106.343C446.511 106.519 446.25 106.739 446.086 107.002C445.922 107.266 445.84 107.538 445.84 107.82C445.84 108.042 445.872 108.244 445.937 108.426C446.007 108.608 446.136 108.778 446.323 108.936C446.511 109.094 446.777 109.243 447.123 109.384C447.475 109.519 447.929 109.651 448.485 109.78C449.253 109.949 449.877 110.157 450.357 110.404C450.844 110.644 451.201 110.94 451.43 111.291C451.664 111.643 451.781 112.068 451.781 112.566C451.781 112.952 451.699 113.307 451.535 113.629C451.377 113.946 451.146 114.221 450.841 114.455C450.542 114.684 450.179 114.863 449.751 114.991C449.329 115.115 448.857 115.176 448.336 115.176C447.539 115.176 446.868 115.047 446.323 114.789C445.778 114.531 445.365 114.192 445.084 113.77C444.803 113.348 444.662 112.894 444.662 112.407H445.532C445.567 112.917 445.729 113.319 446.016 113.612C446.309 113.905 446.663 114.113 447.079 114.236C447.501 114.353 447.92 114.411 448.336 114.411C448.898 114.411 449.37 114.326 449.751 114.156C450.138 113.981 450.428 113.755 450.621 113.48C450.82 113.204 450.92 112.911 450.92 112.601ZM457.723 105.49V106.238H453.064V105.49H457.723ZM454.813 103.012H455.692V112.698C455.692 113.172 455.751 113.532 455.868 113.779C455.991 114.019 456.152 114.18 456.352 114.262C456.551 114.344 456.765 114.385 456.993 114.385C457.157 114.385 457.31 114.376 457.45 114.359C457.597 114.341 457.737 114.321 457.872 114.297L457.925 115.044C457.796 115.085 457.629 115.117 457.424 115.141C457.219 115.164 457.025 115.176 456.844 115.176C456.439 115.176 456.085 115.103 455.78 114.956C455.476 114.804 455.238 114.549 455.068 114.192C454.898 113.828 454.813 113.33 454.813 112.698V103.012ZM460.869 113.418V114.631C460.869 115.17 460.767 115.674 460.562 116.143C460.356 116.617 460.081 117.019 459.735 117.347L459.208 116.943C459.384 116.708 459.533 116.471 459.656 116.231C459.779 115.996 459.87 115.75 459.929 115.492C459.987 115.235 460.017 114.953 460.017 114.649V113.418H460.869ZM473.631 113.269V108.365C473.631 107.89 473.531 107.483 473.332 107.143C473.133 106.797 472.84 106.533 472.453 106.352C472.072 106.164 471.601 106.071 471.038 106.071C470.522 106.071 470.06 106.161 469.649 106.343C469.245 106.525 468.923 106.771 468.683 107.081C468.448 107.392 468.331 107.738 468.331 108.118L467.47 108.101C467.47 107.743 467.555 107.398 467.725 107.064C467.9 106.73 468.146 106.431 468.463 106.167C468.785 105.904 469.166 105.696 469.605 105.543C470.051 105.391 470.54 105.315 471.073 105.315C471.747 105.315 472.339 105.429 472.849 105.657C473.364 105.88 473.769 106.22 474.062 106.677C474.354 107.128 474.501 107.697 474.501 108.382V113.031C474.501 113.36 474.524 113.699 474.571 114.051C474.618 114.403 474.688 114.687 474.782 114.904V115H473.842C473.771 114.783 473.719 114.517 473.684 114.2C473.648 113.878 473.631 113.568 473.631 113.269ZM473.868 109.533L473.886 110.245H471.697C471.129 110.245 470.622 110.298 470.177 110.404C469.737 110.503 469.362 110.65 469.052 110.843C468.747 111.036 468.513 111.271 468.349 111.546C468.185 111.816 468.103 112.12 468.103 112.46C468.103 112.812 468.193 113.134 468.375 113.427C468.557 113.72 468.814 113.954 469.148 114.13C469.488 114.3 469.884 114.385 470.335 114.385C470.944 114.385 471.483 114.277 471.952 114.06C472.427 113.843 472.819 113.553 473.13 113.19C473.44 112.821 473.66 112.407 473.789 111.95L474.167 112.504C474.079 112.803 473.933 113.111 473.728 113.427C473.522 113.738 473.256 114.025 472.928 114.288C472.6 114.552 472.213 114.766 471.768 114.93C471.328 115.094 470.824 115.176 470.256 115.176C469.646 115.176 469.113 115.062 468.656 114.833C468.205 114.599 467.854 114.282 467.602 113.884C467.355 113.48 467.232 113.023 467.232 112.513C467.232 112.062 467.332 111.655 467.531 111.291C467.73 110.922 468.018 110.609 468.393 110.351C468.768 110.087 469.225 109.885 469.764 109.744C470.303 109.604 470.909 109.533 471.583 109.533H473.868ZM478.254 107.521V115H477.384V105.49H478.228L478.254 107.521ZM478.069 109.586L477.674 109.243C477.715 108.716 477.832 108.215 478.025 107.74C478.219 107.266 478.479 106.847 478.808 106.484C479.136 106.12 479.522 105.836 479.968 105.631C480.413 105.42 480.902 105.315 481.436 105.315C481.91 105.315 482.335 105.379 482.71 105.508C483.085 105.637 483.401 105.842 483.659 106.123C483.923 106.405 484.122 106.768 484.257 107.213C484.397 107.653 484.468 108.189 484.468 108.822V115H483.598V108.813C483.598 108.11 483.498 107.562 483.299 107.169C483.105 106.777 482.833 106.498 482.481 106.334C482.136 106.17 481.726 106.088 481.251 106.088C480.718 106.088 480.255 106.205 479.862 106.44C479.47 106.674 479.142 106.973 478.878 107.336C478.62 107.699 478.424 108.083 478.289 108.488C478.154 108.886 478.081 109.252 478.069 109.586ZM493.512 113.155V101.5H494.382V115H493.556L493.512 113.155ZM486.841 110.342V110.157C486.841 109.413 486.923 108.745 487.087 108.154C487.257 107.556 487.5 107.046 487.816 106.624C488.133 106.202 488.514 105.88 488.959 105.657C489.41 105.429 489.92 105.315 490.488 105.315C491.033 105.315 491.517 105.403 491.938 105.578C492.36 105.754 492.724 106.003 493.028 106.325C493.333 106.648 493.582 107.029 493.775 107.468C493.969 107.907 494.112 108.394 494.206 108.927V111.757C494.136 112.243 494.004 112.695 493.811 113.111C493.623 113.527 493.374 113.89 493.063 114.2C492.759 114.511 492.39 114.751 491.956 114.921C491.522 115.091 491.027 115.176 490.471 115.176C489.908 115.176 489.401 115.059 488.95 114.824C488.505 114.59 488.124 114.259 487.808 113.831C487.497 113.398 487.257 112.888 487.087 112.302C486.923 111.71 486.841 111.057 486.841 110.342ZM487.72 110.157V110.342C487.72 110.916 487.778 111.452 487.896 111.95C488.013 112.443 488.188 112.87 488.423 113.234C488.657 113.597 488.956 113.881 489.319 114.086C489.683 114.291 490.11 114.394 490.603 114.394C491.224 114.394 491.748 114.28 492.176 114.051C492.604 113.817 492.946 113.506 493.204 113.119C493.462 112.733 493.646 112.308 493.758 111.845V108.918C493.688 108.614 493.585 108.297 493.45 107.969C493.315 107.641 493.128 107.336 492.888 107.055C492.647 106.768 492.343 106.536 491.974 106.361C491.604 106.185 491.153 106.097 490.62 106.097C490.122 106.097 489.691 106.199 489.328 106.405C488.965 106.61 488.663 106.897 488.423 107.266C488.188 107.629 488.013 108.057 487.896 108.549C487.778 109.041 487.72 109.577 487.72 110.157ZM502.459 107.09V115H501.589V105.49H502.441L502.459 107.09ZM505.957 105.42L505.922 106.211C505.811 106.194 505.699 106.182 505.588 106.176C505.482 106.164 505.368 106.158 505.245 106.158C504.765 106.158 504.343 106.249 503.979 106.431C503.616 106.613 503.312 106.865 503.065 107.187C502.825 107.509 502.641 107.884 502.512 108.312C502.389 108.734 502.321 109.191 502.31 109.683L501.949 109.788C501.949 109.15 502.014 108.561 502.143 108.022C502.277 107.477 502.482 107.002 502.758 106.598C503.033 106.194 503.379 105.88 503.795 105.657C504.211 105.429 504.703 105.315 505.271 105.315C505.406 105.315 505.535 105.326 505.658 105.35C505.787 105.367 505.887 105.391 505.957 105.42ZM511.063 115.176C510.454 115.176 509.892 115.062 509.376 114.833C508.86 114.605 508.412 114.282 508.031 113.866C507.65 113.445 507.354 112.949 507.144 112.381C506.933 111.807 506.827 111.177 506.827 110.491V110.114C506.827 109.387 506.933 108.731 507.144 108.145C507.36 107.559 507.656 107.055 508.031 106.633C508.412 106.205 508.846 105.88 509.332 105.657C509.818 105.429 510.334 105.315 510.879 105.315C511.453 105.315 511.969 105.42 512.426 105.631C512.889 105.836 513.281 106.129 513.604 106.51C513.926 106.891 514.169 107.342 514.333 107.864C514.503 108.379 514.588 108.95 514.588 109.577V110.193H507.363V109.428H513.718V109.314C513.712 108.745 513.598 108.218 513.375 107.732C513.158 107.24 512.839 106.841 512.417 106.536C512.001 106.232 511.488 106.079 510.879 106.079C510.404 106.079 509.971 106.182 509.578 106.387C509.191 106.586 508.857 106.867 508.576 107.231C508.295 107.588 508.078 108.013 507.926 108.505C507.773 108.991 507.697 109.528 507.697 110.114V110.491C507.697 111.036 507.779 111.546 507.943 112.021C508.113 112.495 508.348 112.911 508.646 113.269C508.951 113.626 509.312 113.907 509.728 114.113C510.144 114.318 510.598 114.42 511.09 114.42C511.646 114.42 512.147 114.321 512.593 114.121C513.038 113.916 513.442 113.579 513.806 113.111L514.359 113.532C514.154 113.837 513.899 114.115 513.595 114.367C513.29 114.614 512.93 114.81 512.514 114.956C512.098 115.103 511.614 115.176 511.063 115.176ZM518.218 115H517.356V104.436C517.356 103.762 517.479 103.194 517.726 102.731C517.972 102.268 518.323 101.916 518.78 101.676C519.237 101.436 519.782 101.316 520.415 101.316C520.796 101.316 521.188 101.357 521.593 101.439C521.997 101.521 522.404 101.65 522.814 101.825L522.674 102.599C522.352 102.458 522.021 102.344 521.681 102.256C521.347 102.168 520.939 102.124 520.459 102.124C519.738 102.124 519.185 102.323 518.798 102.722C518.411 103.12 518.218 103.692 518.218 104.436V115ZM520.538 105.49V106.238H515.748V105.49H520.538ZM523.307 105.49V115H522.445V105.49H523.307ZM527.139 107.521V115H526.269V105.49H527.112L527.139 107.521ZM526.954 109.586L526.559 109.243C526.6 108.716 526.717 108.215 526.91 107.74C527.104 107.266 527.364 106.847 527.692 106.484C528.021 106.12 528.407 105.836 528.853 105.631C529.298 105.42 529.787 105.315 530.32 105.315C530.795 105.315 531.22 105.379 531.595 105.508C531.97 105.637 532.286 105.842 532.544 106.123C532.808 106.405 533.007 106.768 533.142 107.213C533.282 107.653 533.353 108.189 533.353 108.822V115H532.482V108.813C532.482 108.11 532.383 107.562 532.184 107.169C531.99 106.777 531.718 106.498 531.366 106.334C531.021 106.17 530.61 106.088 530.136 106.088C529.603 106.088 529.14 106.205 528.747 106.44C528.354 106.674 528.026 106.973 527.763 107.336C527.505 107.699 527.309 108.083 527.174 108.488C527.039 108.886 526.966 109.252 526.954 109.586ZM539.751 115.176C539.142 115.176 538.579 115.062 538.063 114.833C537.548 114.605 537.1 114.282 536.719 113.866C536.338 113.445 536.042 112.949 535.831 112.381C535.62 111.807 535.515 111.177 535.515 110.491V110.114C535.515 109.387 535.62 108.731 535.831 108.145C536.048 107.559 536.344 107.055 536.719 106.633C537.1 106.205 537.533 105.88 538.02 105.657C538.506 105.429 539.021 105.315 539.566 105.315C540.141 105.315 540.656 105.42 541.113 105.631C541.576 105.836 541.969 106.129 542.291 106.51C542.613 106.891 542.856 107.342 543.021 107.864C543.19 108.379 543.275 108.95 543.275 109.577V110.193H536.051V109.428H542.405V109.314C542.399 108.745 542.285 108.218 542.062 107.732C541.846 107.24 541.526 106.841 541.104 106.536C540.688 106.232 540.176 106.079 539.566 106.079C539.092 106.079 538.658 106.182 538.266 106.387C537.879 106.586 537.545 106.867 537.264 107.231C536.982 107.588 536.766 108.013 536.613 108.505C536.461 108.991 536.385 109.528 536.385 110.114V110.491C536.385 111.036 536.467 111.546 536.631 112.021C536.801 112.495 537.035 112.911 537.334 113.269C537.639 113.626 537.999 113.907 538.415 114.113C538.831 114.318 539.285 114.42 539.777 114.42C540.334 114.42 540.835 114.321 541.28 114.121C541.726 113.916 542.13 113.579 542.493 113.111L543.047 113.532C542.842 113.837 542.587 114.115 542.282 114.367C541.978 114.614 541.617 114.81 541.201 114.956C540.785 115.103 540.302 115.176 539.751 115.176Z" fill="white"/>
<mask id="path-7-outside-1_446_218" maskUnits="userSpaceOnUse" x="0" y="47.0002" width="63" height="84" fill="black">
<rect fill="white" y="47.0002" width="63" height="84"/>
<path d="M22.8809 82.5686H30.8887C32.9395 82.5686 34.6159 82.2105 35.918 81.4944C37.2526 80.7457 38.2454 79.704 38.8965 78.3694C39.5475 77.0022 39.873 75.3909 39.873 73.5354C39.873 72.1031 39.5638 70.7847 38.9453 69.5803C38.3594 68.3759 37.4479 67.4156 36.2109 66.6995C34.974 65.9508 33.3952 65.5764 31.4746 65.5764C30.1725 65.5764 28.903 65.8531 27.666 66.4065C26.429 66.9273 25.4036 67.676 24.5898 68.6526C23.8086 69.6292 23.418 70.8173 23.418 72.217H6.91406C6.91406 68.1806 8.02083 64.7301 10.2344 61.8655C12.4805 58.9683 15.4264 56.7548 19.0723 55.2249C22.7507 53.6624 26.7057 52.8811 30.9375 52.8811C35.9831 52.8811 40.4102 53.6624 44.2188 55.2249C48.0273 56.7548 50.9896 59.0334 53.1055 62.0608C55.2539 65.0556 56.3281 68.7665 56.3281 73.1936C56.3281 75.635 55.7585 77.9299 54.6191 80.0784C53.4798 82.2268 51.8848 84.1148 49.834 85.7424C47.7832 87.37 45.3743 88.6558 42.6074 89.5999C39.873 90.5113 36.8783 90.967 33.623 90.967H22.8809V82.5686ZM22.8809 94.8245V86.6213H33.623C37.1712 86.6213 40.4102 87.0282 43.3398 87.842C46.2695 88.6233 48.7923 89.7952 50.9082 91.3577C53.0241 92.9202 54.6517 94.857 55.791 97.1682C56.9303 99.4469 57.5 102.067 57.5 105.03C57.5 108.35 56.8327 111.312 55.498 113.916C54.1634 116.52 52.2917 118.718 49.8828 120.508C47.474 122.298 44.6582 123.666 41.4355 124.61C38.2129 125.521 34.7135 125.977 30.9375 125.977C27.9753 125.977 25.013 125.586 22.0508 124.805C19.0885 123.991 16.3867 122.754 13.9453 121.094C11.5039 119.401 9.53451 117.253 8.03711 114.649C6.57227 112.012 5.83984 108.871 5.83984 105.225H22.3438C22.3438 106.722 22.7507 108.089 23.5645 109.326C24.4108 110.531 25.5339 111.491 26.9336 112.207C28.3333 112.923 29.847 113.281 31.4746 113.281C33.4928 113.281 35.2018 112.907 36.6016 112.158C38.0339 111.377 39.1243 110.336 39.873 109.033C40.6217 107.731 40.9961 106.283 40.9961 104.688C40.9961 102.279 40.5892 100.358 39.7754 98.926C38.9941 97.4937 37.8385 96.4521 36.3086 95.801C34.8112 95.15 33.0046 94.8245 30.8887 94.8245H22.8809Z"/>
</mask>
<path d="M22.8809 82.5686V77.5686H17.8809V82.5686H22.8809ZM35.918 81.4944L38.3276 85.8755L38.3459 85.8654L38.3642 85.8551L35.918 81.4944ZM38.8965 78.3694L43.3903 80.5615L43.4007 80.5403L43.4108 80.5191L38.8965 78.3694ZM38.9453 69.5803L34.4491 71.7677L34.4728 71.8163L34.4975 71.8643L38.9453 69.5803ZM36.2109 66.6995L33.6219 70.977L33.6636 71.0022L33.7058 71.0266L36.2109 66.6995ZM27.666 66.4065L29.6063 71.0147L29.6573 70.9932L29.7078 70.9706L27.666 66.4065ZM24.5898 68.6526L20.7487 65.4517L20.7167 65.4901L20.6855 65.5291L24.5898 68.6526ZM23.418 72.217V77.217H28.418V72.217H23.418ZM6.91406 72.217H1.91406V77.217H6.91406V72.217ZM10.2344 61.8655L6.28283 58.8019L6.27795 58.8082L10.2344 61.8655ZM19.0723 55.2249L21.007 59.8354L21.0171 59.8311L21.0271 59.8269L19.0723 55.2249ZM44.2188 55.2249L42.321 59.8507L42.3379 59.8577L42.355 59.8645L44.2188 55.2249ZM53.1055 62.0608L49.0072 64.9251L49.0249 64.9503L49.0428 64.9753L53.1055 62.0608ZM54.6191 80.0784L59.0364 82.4209V82.4209L54.6191 80.0784ZM42.6074 89.5999L44.1886 94.3433L44.2053 94.3377L44.2219 94.332L42.6074 89.5999ZM22.8809 90.967H17.8809V95.967H22.8809V90.967ZM22.8809 94.8245H17.8809V99.8245H22.8809V94.8245ZM22.8809 86.6213V81.6213H17.8809V86.6213H22.8809ZM43.3398 87.842L42.0016 92.6596L42.0265 92.6666L42.0515 92.6732L43.3398 87.842ZM55.791 97.1682L51.3063 99.379L51.3126 99.3916L51.3189 99.4043L55.791 97.1682ZM49.8828 120.508L46.9002 116.495L49.8828 120.508ZM41.4355 124.61L42.7963 129.421L42.8187 129.415L42.8411 129.408L41.4355 124.61ZM22.0508 124.805L20.7262 129.626L20.7509 129.633L20.7757 129.64L22.0508 124.805ZM13.9453 121.094L11.0964 125.203L11.115 125.216L11.1338 125.229L13.9453 121.094ZM8.03711 114.649L3.66632 117.077L3.68421 117.109L3.70258 117.141L8.03711 114.649ZM5.83984 105.225V100.225H0.839844V105.225H5.83984ZM22.3438 105.225H27.3438V100.225H22.3438V105.225ZM23.5645 109.326L19.3874 112.074L19.4295 112.138L19.4735 112.201L23.5645 109.326ZM26.9336 112.207L24.6562 116.659L26.9336 112.207ZM36.6016 112.158L38.9598 116.567L38.9779 116.558L38.9958 116.548L36.6016 112.158ZM39.7754 98.926L35.3859 101.32L35.4067 101.358L35.4281 101.396L39.7754 98.926ZM36.3086 95.801L34.315 100.386L34.3329 100.394L34.3508 100.402L36.3086 95.801ZM22.8809 82.5686V87.5686H30.8887V82.5686V77.5686H22.8809V82.5686ZM30.8887 82.5686V87.5686C33.4774 87.5686 36.0598 87.1227 38.3276 85.8755L35.918 81.4944L33.5084 77.1133C33.1719 77.2983 32.4015 77.5686 30.8887 77.5686V82.5686ZM35.918 81.4944L38.3642 85.8551C40.5573 84.6248 42.279 82.8397 43.3903 80.5615L38.8965 78.3694L34.4026 76.1773C34.2119 76.5683 33.9479 76.8665 33.4717 77.1337L35.918 81.4944ZM38.8965 78.3694L43.4108 80.5191C44.4454 78.3464 44.873 75.9704 44.873 73.5354H39.873H34.873C34.873 74.8113 34.6497 75.658 34.3822 76.2197L38.8965 78.3694ZM39.873 73.5354H44.873C44.873 71.356 44.3955 69.2483 43.3931 67.2963L38.9453 69.5803L34.4975 71.8643C34.7321 72.3212 34.873 72.8502 34.873 73.5354H39.873ZM38.9453 69.5803L43.4415 67.393C42.39 65.2317 40.7542 63.5523 38.7161 62.3723L36.2109 66.6995L33.7058 71.0266C34.1416 71.2789 34.3287 71.5201 34.4491 71.7677L38.9453 69.5803ZM36.2109 66.6995L38.7999 62.422C36.5657 61.0697 34.0167 60.5764 31.4746 60.5764V65.5764V70.5764C32.7737 70.5764 33.3822 70.8319 33.6219 70.977L36.2109 66.6995ZM31.4746 65.5764V60.5764C29.4401 60.5764 27.4767 61.0136 25.6242 61.8424L27.666 66.4065L29.7078 70.9706C30.3293 70.6926 30.905 70.5764 31.4746 70.5764V65.5764ZM27.666 66.4065L25.7257 61.7983C23.7941 62.6116 22.1031 63.8264 20.7487 65.4517L24.5898 68.6526L28.431 71.8535C28.7042 71.5257 29.064 71.243 29.6063 71.0147L27.666 66.4065ZM24.5898 68.6526L20.6855 65.5291C19.1104 67.498 18.418 69.8253 18.418 72.217H23.418H28.418C28.418 71.9852 28.4497 71.8717 28.4608 71.8377C28.4698 71.8105 28.4764 71.7983 28.4942 71.7761L24.5898 68.6526ZM23.418 72.217V67.217H6.91406V72.217V77.217H23.418V72.217ZM6.91406 72.217H11.9141C11.9141 69.1528 12.7316 66.8111 14.1908 64.9227L10.2344 61.8655L6.27795 58.8082C3.3101 62.649 1.91406 67.2084 1.91406 72.217H6.91406ZM10.2344 61.8655L14.1859 64.929C15.8631 62.7657 18.0912 61.059 21.007 59.8354L19.0723 55.2249L17.1375 50.6144C12.7617 52.4506 9.09787 55.1709 6.28284 58.8019L10.2344 61.8655ZM19.0723 55.2249L21.0271 59.8269C24.0513 58.5423 27.3373 57.8811 30.9375 57.8811V52.8811V47.8811C26.0742 47.8811 21.45 48.7824 17.1174 50.6228L19.0723 55.2249ZM30.9375 52.8811V57.8811C35.4748 57.8811 39.2338 58.5842 42.321 59.8507L44.2188 55.2249L46.1165 50.599C41.5865 48.7405 36.4913 47.8811 30.9375 47.8811V52.8811ZM44.2188 55.2249L42.355 59.8645C45.366 61.0741 47.5088 62.7812 49.0072 64.9251L53.1055 62.0608L57.2037 59.1964C54.4704 55.2857 50.6887 52.4355 46.0825 50.5852L44.2188 55.2249ZM53.1055 62.0608L49.0428 64.9753C50.4673 66.961 51.3281 69.597 51.3281 73.1936H56.3281H61.3281C61.3281 67.936 60.0405 63.1502 57.1682 59.1463L53.1055 62.0608ZM56.3281 73.1936H51.3281C51.3281 74.8217 50.957 76.3119 50.2018 77.7359L54.6191 80.0784L59.0364 82.4209C60.56 79.548 61.3281 76.4484 61.3281 73.1936H56.3281ZM54.6191 80.0784L50.2018 77.7359C49.4098 79.2294 48.2782 80.5939 46.7257 81.826L49.834 85.7424L52.9423 89.6589C55.4914 87.6358 57.5498 85.2242 59.0364 82.4209L54.6191 80.0784ZM49.834 85.7424L46.7257 81.826C45.1716 83.0594 43.2816 84.0869 40.9929 84.8677L42.6074 89.5999L44.2219 94.332C47.4671 93.2248 50.3948 91.6807 52.9423 89.6589L49.834 85.7424ZM42.6074 89.5999L41.0263 84.8564C38.863 85.5775 36.4095 85.967 33.623 85.967V90.967V95.967C37.347 95.967 40.8831 95.4451 44.1886 94.3433L42.6074 89.5999ZM33.623 90.967V85.967H22.8809V90.967V95.967H33.623V90.967ZM22.8809 90.967H27.8809V82.5686H22.8809H17.8809V90.967H22.8809ZM22.8809 94.8245H27.8809V86.6213H22.8809H17.8809V94.8245H22.8809ZM22.8809 86.6213V91.6213H33.623V86.6213V81.6213H22.8809V86.6213ZM33.623 86.6213V91.6213C36.7923 91.6213 39.5732 91.9851 42.0016 92.6596L43.3398 87.842L44.6781 83.0245C41.2472 82.0714 37.5501 81.6213 33.623 81.6213V86.6213ZM43.3398 87.842L42.0515 92.6732C44.4663 93.3172 46.398 94.2426 47.938 95.3798L50.9082 91.3577L53.8784 87.3355C51.1867 85.3478 48.0728 83.9294 44.6282 83.0109L43.3398 87.842ZM50.9082 91.3577L47.938 95.3798C49.4255 96.4783 50.5275 97.7991 51.3063 99.379L55.791 97.1682L60.2757 94.9574C58.7759 91.9149 56.6226 89.362 53.8784 87.3355L50.9082 91.3577ZM55.791 97.1682L51.3189 99.4043C52.0587 100.884 52.5 102.717 52.5 105.03H57.5H62.5C62.5 101.417 61.802 98.0098 60.2632 94.9321L55.791 97.1682ZM57.5 105.03H52.5C52.5 107.665 51.9752 109.827 51.0484 111.636L55.498 113.916L59.9477 116.197C61.6902 112.797 62.5 109.035 62.5 105.03H57.5ZM55.498 113.916L51.0484 111.636C50.0726 113.54 48.71 115.15 46.9002 116.495L49.8828 120.508L52.8654 124.521C55.8733 122.285 58.2542 119.501 59.9477 116.197L55.498 113.916ZM49.8828 120.508L46.9002 116.495C45.0194 117.893 42.7517 119.014 40.03 119.811L41.4355 124.61L42.8411 129.408C46.5647 128.317 49.9285 126.704 52.8654 124.521L49.8828 120.508ZM41.4355 124.61L40.0748 119.798C37.3471 120.57 34.311 120.977 30.9375 120.977V125.977V130.977C35.116 130.977 39.0787 130.472 42.7963 129.421L41.4355 124.61ZM30.9375 125.977V120.977C28.4202 120.977 25.8862 120.646 23.3259 119.97L22.0508 124.805L20.7757 129.64C24.1398 130.527 27.5304 130.977 30.9375 130.977V125.977ZM22.0508 124.805L23.3753 119.984C20.9214 119.309 18.7255 118.298 16.7569 116.959L13.9453 121.094L11.1338 125.229C14.048 127.21 17.2556 128.673 20.7262 129.626L22.0508 124.805ZM13.9453 121.094L16.7942 116.985C14.9687 115.719 13.504 114.126 12.3716 112.156L8.03711 114.649L3.70258 117.141C5.56502 120.38 8.03914 123.083 11.0964 125.203L13.9453 121.094ZM8.03711 114.649L12.4079 112.22C11.4337 110.467 10.8398 108.198 10.8398 105.225H5.83984H0.839844C0.839844 109.544 1.71082 113.557 3.66632 117.077L8.03711 114.649ZM5.83984 105.225V110.225H22.3438V105.225V100.225H5.83984V105.225ZM22.3438 105.225H17.3438C17.3438 107.687 18.0303 110.012 19.3874 112.074L23.5645 109.326L27.7415 106.578C27.471 106.167 27.3438 105.757 27.3438 105.225H22.3438ZM23.5645 109.326L19.4735 112.201C20.8189 114.116 22.5834 115.598 24.6562 116.659L26.9336 112.207L29.211 107.756C28.4843 107.384 28.0027 106.946 27.6554 106.452L23.5645 109.326ZM26.9336 112.207L24.6562 116.659C26.7861 117.748 29.0839 118.281 31.4746 118.281V113.281V108.281C30.6101 108.281 29.8805 108.099 29.211 107.756L26.9336 112.207ZM31.4746 113.281V118.281C34.0976 118.281 36.664 117.795 38.9598 116.567L36.6016 112.158L34.2433 107.75C33.7396 108.019 32.8881 108.281 31.4746 108.281V113.281ZM36.6016 112.158L38.9958 116.548C41.1651 115.365 42.96 113.696 44.2076 111.526L39.873 109.033L35.5385 106.541C35.2887 106.976 34.9026 107.39 34.2073 107.769L36.6016 112.158ZM39.873 109.033L44.2076 111.526C45.4195 109.418 45.9961 107.101 45.9961 104.688H40.9961H35.9961C35.9961 105.464 35.824 106.045 35.5385 106.541L39.873 109.033ZM40.9961 104.688H45.9961C45.9961 101.787 45.5172 98.9104 44.1227 96.456L39.7754 98.926L35.4281 101.396C35.6612 101.806 35.9961 102.771 35.9961 104.688H40.9961ZM39.7754 98.926L44.1649 96.5318C42.8335 94.0909 40.8107 92.2829 38.2664 91.2003L36.3086 95.801L34.3508 100.402C34.8664 100.621 35.1548 100.897 35.3859 101.32L39.7754 98.926ZM36.3086 95.801L38.3022 91.2157C36.0192 90.2231 33.4963 89.8245 30.8887 89.8245V94.8245V99.8245C32.5128 99.8245 33.6032 100.077 34.315 100.386L36.3086 95.801ZM30.8887 94.8245V89.8245H22.8809V94.8245V99.8245H30.8887V94.8245Z" fill="#1A5069" mask="url(#path-7-outside-1_446_218)"/>
<defs>
<radialGradient id="paint0_radial_446_218" cx="0" cy="0" r="1" gradientUnits="userSpaceOnUse" gradientTransform="translate(96.2629 367.631) scale(96.2629 367.631)">
<stop stop-color="#1A5069"/>
<stop offset="1" stop-color="#0F7BAE" stop-opacity="0"/>
</radialGradient>
<radialGradient id="paint1_radial_446_218" cx="0" cy="0" r="1" gradientUnits="userSpaceOnUse" gradientTransform="translate(96.2629 367.631) scale(96.2629 367.631)">
<stop stop-color="#1A5069"/>
<stop offset="1" stop-color="#0F7BAE" stop-opacity="0"/>
</radialGradient>
</defs>
</svg>
