<svg width="171" height="176" viewBox="0 0 171 176" fill="none" xmlns="http://www.w3.org/2000/svg">
<path d="M90.0902 0.00394658C92.4384 1.05374 94.4117 2.62842 94.7787 5.35551C94.9523 6.6421 94.4156 10.1861 95.201 10.8413L102.104 13.6789C105.434 10.3164 108.781 6.7605 113.687 10.0717C114.622 10.7031 118.553 14.6221 119.224 15.5614C122.602 20.2894 119.492 24.0031 115.865 27.1683L118.813 34.4774C122.432 34.9154 126.13 33.8498 128.459 37.4333C129.935 39.7026 129.962 48.243 128.617 50.5478C126.245 54.6128 122.259 53.0066 118.628 53.9458L115.79 60.8484C119.157 64.1162 122.646 67.6168 119.397 72.4316C118.766 73.367 114.851 77.2938 113.908 77.9687C109.093 81.4141 105.533 78.241 102.301 74.6102L94.9918 77.5583C94.5537 81.1773 95.6193 84.8752 92.0358 87.2037C89.7823 88.6679 81.2498 88.7192 78.9213 87.3616C75.1326 85.1515 76.135 81.2286 75.7285 77.5583L68.4195 74.6102C65.2543 78.466 60.9959 81.2523 56.4061 77.5859C49.5587 72.1159 47.2973 67.2143 54.93 60.8445L52.0924 53.9419C48.4616 53.0026 44.4755 54.6049 42.1036 50.5439C40.75 48.2272 40.7934 39.6908 42.2615 37.4294C44.59 33.8459 48.2879 34.9115 51.907 34.4734L54.8551 27.1643C51.2281 23.9992 48.1182 20.2854 51.4965 15.5574C52.4713 14.1919 57.3809 9.45601 58.8687 9.14818C63.6007 8.17337 65.6055 10.7347 68.6168 13.6749L75.5194 10.8373C76.3047 10.1861 75.768 6.63815 75.9416 5.35157C76.3087 2.62448 78.282 1.04979 80.6302 0H90.0783L90.0902 0.00394658ZM83.3099 25.3134C58.9792 27.9971 62.6022 64.8147 86.7395 62.9993C111.891 61.1089 108.383 22.5468 83.3099 25.3134Z" fill="url(#paint0_linear_446_117)"/>
<path d="M170.712 93.9597V94.749L169.559 96.5487C150.604 104.209 131.451 112.517 112.144 119.459C109.169 120.528 105.652 122.809 103.687 119.056L90 96.1501L156.03 70L170.716 93.9597H170.712Z" fill="url(#paint1_linear_446_117)"/>
<path d="M160.965 107.11V142.353C160.965 144.476 157.729 148.494 155.602 149.197L88.5176 175.236V105.93L99.939 124.633C104.687 129.306 108.902 127.443 114.21 125.521C129.937 119.83 145.297 112.955 160.969 107.11H160.965Z" fill="url(#paint2_linear_446_117)"/>
<path d="M82.2131 175.232L15.129 149.193C13.0018 148.49 9.76562 144.473 9.76562 142.349V107.106L62.0302 127.486C65.2822 128.019 68.4908 126.946 70.7956 124.625L82.217 105.922V175.228L82.2131 175.232Z" fill="url(#paint3_linear_446_117)"/>
<path d="M14.3318 70.1504L80.4647 96.0755L80.2673 97.0898C75.642 103.819 72.0585 111.87 67.4133 118.5C65.5861 121.109 65.365 121.851 61.9157 120.915L1.27647 96.8964C0.36876 96.0637 -0.388984 94.6508 0.218789 93.4511L14.3357 70.1465L14.3318 70.1504Z" fill="url(#paint4_linear_446_117)"/>
<path d="M146.788 66.9496L124.742 75.6045C127.386 71.5474 127.457 66.4524 125.137 62.2256L146.792 66.9536L146.788 66.9496Z" fill="url(#paint5_linear_446_117)"/>
<path d="M45.5963 62.2256C43.2757 66.4563 43.3428 71.5474 45.9909 75.6045L23.9453 67.3364L45.6002 62.2256H45.5963Z" fill="url(#paint6_linear_446_117)"/>
<defs>
<linearGradient id="paint0_linear_446_117" x1="144.839" y1="46.4787" x2="10.6391" y2="44.0031" gradientUnits="userSpaceOnUse">
<stop stop-color="#FFE1AF"/>
<stop offset="1" stop-color="#156489"/>
</linearGradient>
<linearGradient id="paint1_linear_446_117" x1="184.621" y1="96.8999" x2="62.2511" y2="93.3416" gradientUnits="userSpaceOnUse">
<stop stop-color="#FFE1AF"/>
<stop offset="1" stop-color="#156489"/>
</linearGradient>
<linearGradient id="paint2_linear_446_117" x1="173.45" y1="142.393" x2="63.5576" y2="140.277" gradientUnits="userSpaceOnUse">
<stop stop-color="#FFE1AF"/>
<stop offset="1" stop-color="#156489"/>
</linearGradient>
<linearGradient id="paint3_linear_446_117" x1="94.6984" y1="142.388" x2="-15.1944" y2="140.272" gradientUnits="userSpaceOnUse">
<stop stop-color="#FFE1AF"/>
<stop offset="1" stop-color="#156489"/>
</linearGradient>
<linearGradient id="paint4_linear_446_117" x1="94.3265" y1="97.0607" x2="-27.6635" y2="93.5263" gradientUnits="userSpaceOnUse">
<stop stop-color="#FFE1AF"/>
<stop offset="1" stop-color="#156489"/>
</linearGradient>
<linearGradient id="paint5_linear_446_117" x1="150.59" y1="69.2645" x2="117.164" y2="68.2498" gradientUnits="userSpaceOnUse">
<stop stop-color="#FFE1AF"/>
<stop offset="1" stop-color="#156489"/>
</linearGradient>
<linearGradient id="paint6_linear_446_117" x1="49.7888" y1="69.2645" x2="16.3688" y2="68.2501" gradientUnits="userSpaceOnUse">
<stop stop-color="#FFE1AF"/>
<stop offset="1" stop-color="#156489"/>
</linearGradient>
</defs>
</svg>
