<svg width="139" height="140" viewBox="0 0 139 140" fill="none" xmlns="http://www.w3.org/2000/svg">
<path d="M33.6704 106.072H16.6663C15.7388 106.072 10.9344 103.066 9.96977 102.256C-3.27489 91.0956 -4.12819 43.5211 19.1953 39.9657L72.6315 39.2979V33.7268H40.1629C39.2787 33.1826 39.3096 32.4963 39.2045 31.5935C38.8026 28.137 39.6435 13.8103 40.7874 10.8547C44.8127 0.503809 68.6185 0.237927 77.8688 0.967558C86.7789 1.67246 98.1377 5.94513 100.172 15.7642C101.211 20.7665 101.217 47.8309 100.407 53.1733C99.5969 58.5033 94.1247 65.1256 88.7328 66.2324C85.8081 66.8322 79.3837 67.0177 76.0447 67.1476C68.1671 67.4629 55.4975 65.8058 48.5227 68.0689C39.6497 70.9441 33.6642 79.8666 33.6642 89.0736V106.078L33.6704 106.072ZM51.4227 14.0762C44.5036 15.6591 46.2967 28.3782 55.9613 25.4164C61.9714 23.5738 60.4133 12.0233 51.4227 14.0762Z" fill="white"/>
<path d="M67.0598 100.507V106.69H100.45V125.549C100.45 126.612 98.6565 130.545 97.8774 131.633C92.0032 139.758 69.1868 139.597 60.0293 138.769C51.5891 138.002 41.1888 132.969 39.9088 123.644C38.9257 116.459 39.0184 94.5705 39.8532 87.2124C40.6879 79.8543 47.3103 73.8935 54.3654 73.2814C63.9125 72.4528 85.1645 74.5242 92.8318 71.5562C97.7043 69.6703 106.021 61.6629 106.021 56.302V34.6604L106.948 33.7329H121.17C142.249 33.7329 142.849 81.196 132.244 93.6554C130.092 96.1844 123.087 100.513 119.933 100.513H67.0659L67.0598 100.507ZM84.8182 114.24C78.9688 115.563 79.346 125.357 86.0858 126.353C95.0516 127.676 95.4597 111.828 84.8182 114.24Z" fill="white"/>
</svg>
