<svg width="139" height="166" viewBox="0 0 139 166" fill="none" xmlns="http://www.w3.org/2000/svg">
<path d="M138.06 118.451V121C137.54 121.793 137.558 122.505 136.968 123.374C135.54 125.478 130.699 129.477 128.571 131.394C115.867 142.814 89.6059 164.245 72.4523 165.413C61.4109 166.166 47.9232 159.961 36.3545 160.709L18.2598 160.724V128.838C22.1124 127.289 26.4154 126.749 30.4035 125.284C35.5708 123.389 41.075 119.353 46.5682 118.82C55.2622 117.977 68.5155 125.098 77.3194 126.76C81.2891 128.608 82.9921 136.639 77.8907 137.683C73.9758 138.487 65.4576 135.214 60.803 134.856C59.1294 134.729 53.1455 134.436 52.468 136.025C50.1388 141.47 58.1773 139.714 61.129 139.995C70.2294 140.86 83.1861 148.442 86.1817 134.29C94.3227 132.249 102.028 128.195 109.447 124.342C115.311 121.3 122.924 115.92 128.67 113.638C133.043 111.9 136.5 114.383 138.056 118.448L138.06 118.451Z" fill="url(#paint0_linear_448_1899)"/>
<path d="M37.175 38.3832C57.5146 39.3912 79.7842 36.6923 99.9077 38.2663C104.138 38.5987 107.001 40.7205 107.748 45.019C106.877 57.9437 108.906 72.3767 107.763 85.1188C106.58 98.2736 84.9735 87.9419 78.1692 94.5814C76.5359 96.1773 69.9769 107.323 69.2115 107.513C68.6805 107.645 68.611 107.177 68.3583 106.911C64.3592 102.682 61.4954 92.9379 54.9731 92.2075C49.6263 91.6086 37.7316 93.5551 33.6227 90.9147C31.9381 89.8337 30.5429 87.4635 30.3158 85.4658C28.9022 72.9318 31.3778 57.8232 30.3158 45.0154C30.8102 41.4838 33.5861 38.6571 37.1787 38.3796L37.175 38.3832ZM69.3874 50.6724L68.6329 50.8989L63.3851 59.0686L53.6913 61.6068L59.8108 69.5281L59.5361 79.8233L68.8783 76.1822L78.5281 79.8233L78.2534 69.5281L84.3729 61.6068L74.6792 59.0686L69.391 50.6724H69.3874Z" fill="url(#paint1_linear_448_1899)"/>
<path d="M11.9386 164.617C10.6898 165.72 4.85237 165.713 3.12383 165.439C1.7908 165.227 0.530998 163.883 0.0768909 162.649L0 128.834C0.106202 126.953 1.344 125.427 3.18972 125.094C6.09015 124.568 12.5319 124.28 13.0629 128.191L13.1581 162.006C13.1142 162.751 12.4513 164.164 11.9386 164.617Z" fill="url(#paint2_linear_448_1899)"/>
<path d="M68.2 0.0912084C69.3207 -0.153481 70.7891 0.0546866 71.3165 1.20144C71.7449 2.13637 71.7779 9.48435 71.5069 10.6932C70.8697 13.5382 66.8596 13.4797 66.4641 10.0504C66.2847 8.50924 66.2407 1.67621 67.0317 0.76319C67.3211 0.427199 67.7642 0.189814 68.2 0.0948599V0.0912084Z" fill="url(#paint3_linear_448_1899)"/>
<path d="M5.37176 62.7755C6.5583 62.5053 13.1465 62.5089 14.3477 62.7755C17.0613 63.3818 17.0357 67.1215 14.3477 67.7204C13.1501 67.9871 6.5583 67.9907 5.37176 67.7204C3.01333 67.1799 3.00967 63.316 5.37176 62.7755Z" fill="url(#paint4_linear_448_1899)"/>
<path d="M123.711 62.7753C124.876 62.516 131.929 62.5233 132.969 62.8593C135.075 63.5423 135.027 67.3587 132.376 67.7787C131.043 67.9868 124.565 67.9905 123.433 67.6399C120.957 66.8656 121.162 63.345 123.711 62.779V62.7753Z" fill="url(#paint5_linear_448_1899)"/>
<path d="M24.0096 18.2968C24.8556 18.147 25.2401 18.3771 25.914 18.8044C26.4267 19.1331 31.9162 24.5455 32.1579 24.9581C33.5019 27.2626 31.224 29.7022 28.8583 28.6175C28.1881 28.3108 22.0907 21.916 21.9661 21.2476C21.7354 19.9913 22.7645 18.5159 24.0059 18.2931L24.0096 18.2968Z" fill="url(#paint6_linear_448_1899)"/>
<path d="M113.127 18.2931C115.16 17.9242 116.756 20.0753 115.731 22.0182C115.478 22.4966 109.619 28.424 109.198 28.6175C106.953 29.6511 104.693 27.4415 105.74 25.17C106.044 24.5089 112.453 18.4173 113.127 18.2968V18.2931Z" fill="url(#paint7_linear_448_1899)"/>
<defs>
<linearGradient id="paint0_linear_448_1899" x1="158.698" y1="140.645" x2="-22.7577" y2="133.004" gradientUnits="userSpaceOnUse">
<stop stop-color="#FFE1AF"/>
<stop offset="1" stop-color="#156489"/>
</linearGradient>
<linearGradient id="paint1_linear_448_1899" x1="121.603" y1="74.4711" x2="2.91454" y2="72.0192" gradientUnits="userSpaceOnUse">
<stop stop-color="#FFE1AF"/>
<stop offset="1" stop-color="#156489"/>
</linearGradient>
<linearGradient id="paint2_linear_448_1899" x1="15.4249" y1="146.258" x2="-4.53975" y2="146.139" gradientUnits="userSpaceOnUse">
<stop stop-color="#FFE1AF"/>
<stop offset="1" stop-color="#156489"/>
</linearGradient>
<linearGradient id="paint3_linear_448_1899" x1="72.5981" y1="6.69857" x2="64.5184" y2="6.63632" gradientUnits="userSpaceOnUse">
<stop stop-color="#FFE1AF"/>
<stop offset="1" stop-color="#156489"/>
</linearGradient>
<linearGradient id="paint4_linear_448_1899" x1="18.5735" y1="65.3877" x2="-0.768134" y2="64.5368" gradientUnits="userSpaceOnUse">
<stop stop-color="#FFE1AF"/>
<stop offset="1" stop-color="#156489"/>
</linearGradient>
<linearGradient id="paint5_linear_448_1899" x1="136.666" y1="65.3965" x2="117.311" y2="64.5415" gradientUnits="userSpaceOnUse">
<stop stop-color="#FFE1AF"/>
<stop offset="1" stop-color="#156489"/>
</linearGradient>
<linearGradient id="paint6_linear_448_1899" x1="34.3886" y1="23.8448" x2="18.2728" y2="23.5481" gradientUnits="userSpaceOnUse">
<stop stop-color="#FFE1AF"/>
<stop offset="1" stop-color="#156489"/>
</linearGradient>
<linearGradient id="paint7_linear_448_1899" x1="117.872" y1="23.8429" x2="101.833" y2="23.549" gradientUnits="userSpaceOnUse">
<stop stop-color="#FFE1AF"/>
<stop offset="1" stop-color="#156489"/>
</linearGradient>
</defs>
</svg>
