<svg width="130" height="142" viewBox="0 0 130 142" fill="none" xmlns="http://www.w3.org/2000/svg">
<path d="M79.3557 1.25044C79.6872 1.46147 80.0693 1.72454 80.4451 1.90563C86.2127 4.68179 92.1536 7.59056 97.9561 10.6163C98.3397 10.8159 99.1724 10.9791 99.1909 11.5195L99.1831 25.2086C99.2637 25.8231 99.8525 25.3376 100.168 25.2606C105.961 23.8526 111.764 22.4018 117.566 21.0686C118.971 20.7456 119.326 21.2596 120.463 21.8136C122.939 23.0192 125.429 24.2625 127.883 25.5094C128.293 25.7176 128.707 25.7882 129.03 26.2145L129.04 115.772C129.019 115.883 128.711 116.284 128.609 116.339C128.483 116.408 128.304 116.398 128.166 116.466C125.304 117.874 122.41 119.564 119.472 120.883C119.323 120.95 118.642 121.227 118.533 121.228C118.352 121.229 117.907 121.063 117.668 121.02C115.424 120.613 113.241 119.906 111.019 119.404C107.571 118.624 104.163 117.777 100.744 116.924C100.302 116.813 99.8148 116.83 99.3756 116.672C99.233 116.711 99.176 116.987 99.1824 117.124L99.1902 130.885C99.1738 131.404 98.3568 131.607 97.974 131.806C97.137 132.243 96.2871 132.646 95.4537 133.063C89.8458 135.863 84.3933 138.608 78.739 141.359L51.3581 141.371C50.5917 141.147 49.7404 140.8 49.0296 140.421C43.5322 137.488 37.741 134.784 32.1395 131.873C31.9784 131.789 31.7852 131.786 31.6561 131.716C31.5685 131.668 30.9881 131.302 30.9618 131.27C30.8684 131.16 30.8484 131.024 30.8491 130.884C30.6623 126.36 31.1086 121.624 30.8555 117.125C30.8455 116.944 30.8177 116.774 30.775 116.6C30.7087 116.543 30.1005 116.703 29.9808 116.742C29.6207 116.859 29.4596 116.816 29.0689 116.913C28.813 116.977 28.259 117.283 28.1656 117.304C27.9368 117.357 27.6103 117.273 27.3415 117.322C27.1483 117.358 26.99 117.501 26.7811 117.546C22.0964 118.56 17.4823 119.791 12.8276 120.908C11.8637 121.139 11.4488 121.38 10.4941 120.956C10.3729 120.901 10.291 120.772 10.1676 120.712C7.36008 119.356 4.55611 118.011 1.82914 116.51C1.49192 116.324 1.19748 116.38 1.02923 115.884L1 26.2766C1.1875 25.801 1.72006 25.7055 2.0858 25.5102C4.91543 23.9987 7.91831 22.4681 10.7815 21.0949C11.5179 20.742 12.4718 21.1919 13.1826 21.3587C18.7335 22.667 24.2709 24.0123 29.8318 25.3027C30.0848 25.3611 30.477 25.6299 30.7129 25.493L30.9211 11.1638C31.2469 10.803 31.7403 10.7054 32.116 10.5065C38.3142 7.22625 44.6023 4.4066 50.7122 1.0993C59.9375 0.899679 69.185 1.07364 78.4189 1.0109C78.5872 1.02658 79.2416 1.17772 79.3564 1.25044H79.3557ZM51.2682 141.106H78.6299C78.6378 141.106 78.7369 141.007 78.7369 140.999V1.40586C78.7369 1.39802 78.6378 1.29892 78.6299 1.29892H51.1257C51.0258 1.29892 50.8498 1.59978 50.643 1.67179C50.248 1.80938 50.2309 1.83576 49.8987 1.99617C49.7312 2.07673 49.5002 2.04893 49.3818 2.12022C49.3041 2.16728 49.2784 2.32341 49.1637 2.4004C49.0054 2.50734 48.6717 2.51234 48.5463 2.60288C48.4743 2.65492 48.4443 2.84028 48.3103 2.90088C48.1506 2.9736 47.9453 2.91087 47.7906 3.00426C47.7057 3.05559 47.6857 3.2381 47.5104 3.31225C47.3236 3.39138 47.1461 3.32864 47.0049 3.37641C46.8908 3.41491 46.8637 3.59956 46.7404 3.68226C46.5379 3.81772 46.2456 3.74357 46.1023 3.82841C46.0153 3.87974 46.0161 4.04728 45.8357 4.13141C45.6703 4.2084 45.3637 4.17917 45.2639 4.23763C45.2161 4.26544 45.1798 4.45294 45.0279 4.53635C44.8426 4.6383 44.5089 4.60408 44.4084 4.6654C44.3649 4.69177 44.3385 4.84933 44.2066 4.92633C44.0206 5.03469 43.7496 4.99334 43.5914 5.07676C43.4958 5.12666 43.478 5.30632 43.3055 5.37904C43.1187 5.45818 42.9412 5.39615 42.8 5.44321C42.6845 5.48242 42.6596 5.68346 42.4885 5.77329C42.3124 5.86526 41.9402 5.84174 41.9074 5.86954C41.8746 5.89734 41.9138 6.07986 41.7527 6.17753C41.5773 6.28375 41.0897 6.26593 41.0526 6.2973C41.0184 6.32582 41.054 6.52116 40.8993 6.60671C40.7446 6.69227 40.252 6.683 40.1999 6.72649C40.1614 6.75928 40.1921 6.95962 40.046 7.0359C39.8998 7.11218 39.6239 7.05657 39.4592 7.14284C39.3573 7.19631 39.3237 7.40163 39.1897 7.46152C39.0265 7.53424 38.8154 7.4715 38.6365 7.54422C38.5238 7.58985 38.516 7.75739 38.357 7.83938C38.1645 7.93847 37.8943 7.88429 37.766 7.96129C37.699 8.00121 37.6648 8.14594 37.5892 8.21224C37.3083 8.4582 37.0231 8.27284 36.7686 8.38976C36.6902 8.42541 36.6239 8.56229 36.5027 8.62289C34.8622 9.44205 33.1148 10.1407 31.5777 11.1082C31.4002 11.2201 31.2348 11.2308 31.0623 11.3185C31.0416 16.0488 31.1257 20.7927 31.0202 25.5151C30.9568 25.7226 30.7358 25.8153 30.7778 26.0563V115.992C30.7208 116.24 30.9774 116.336 31.0359 116.518L31.1001 131.204C31.3945 131.229 31.6212 131.517 31.7831 131.593C31.8843 131.641 32.2536 131.57 32.476 131.682C32.6207 131.754 32.6379 131.927 32.7555 131.972C32.9223 132.035 33.226 131.98 33.4164 132.095C33.5362 132.168 33.5561 132.331 33.6331 132.377C33.7486 132.445 33.9981 132.408 34.1735 132.477C34.3888 132.563 34.3838 132.743 34.5043 132.793C34.6761 132.864 34.9413 132.81 35.0904 132.916C35.2073 132.999 35.1673 133.16 35.2515 133.197C35.4112 133.268 35.7626 133.223 35.9145 133.302C36.0664 133.381 36.03 133.579 36.0685 133.612C36.1205 133.656 36.6189 133.649 36.7679 133.731C36.9169 133.813 36.8869 134.012 36.9212 134.041C36.9554 134.069 37.3261 134.045 37.5022 134.137C37.6783 134.229 37.6854 134.394 37.7667 134.443C37.9093 134.528 38.2016 134.453 38.4048 134.589C38.5274 134.671 38.5545 134.856 38.6693 134.895C38.7919 134.936 38.9673 134.89 39.1248 134.938C39.3416 135.004 39.3565 135.207 39.4606 135.262C39.6196 135.345 39.8898 135.304 40.0759 135.412C40.2056 135.488 40.227 135.636 40.2805 135.671C40.4053 135.753 40.7503 135.715 40.9015 135.798C41.0526 135.882 41.0205 136.079 41.0548 136.108C41.0918 136.139 41.5795 136.121 41.7549 136.227C41.916 136.325 41.8761 136.507 41.9096 136.535C41.9466 136.567 42.435 136.549 42.6097 136.655C42.7708 136.753 42.7309 136.935 42.7644 136.963C42.8007 136.994 43.2549 136.978 43.4153 137.061C43.5443 137.128 43.5636 137.282 43.6976 137.349C43.8594 137.429 44.2024 137.4 44.3228 137.509C44.3963 137.575 44.3735 137.71 44.4084 137.742C44.4676 137.796 44.8853 137.794 45.0308 137.867C45.1762 137.94 45.2147 138.138 45.2646 138.167C45.3751 138.231 45.696 138.193 45.8842 138.296C46.0382 138.38 46.0688 138.579 46.1579 138.61C46.3084 138.663 46.5657 138.618 46.7411 138.722C46.8709 138.799 46.8937 138.971 46.9899 139.043C47.1974 139.197 47.9481 139.454 48.2197 139.595C48.5548 139.767 49.0767 140.136 49.384 140.283C49.5472 140.362 49.7597 140.323 49.9457 140.434C50.1033 140.527 50.1511 140.733 50.2373 140.783C50.3429 140.844 50.5111 140.816 50.6451 140.874C51.0045 141.028 50.6843 141.13 51.269 141.105L51.2682 141.106ZM11.3304 21.2511C10.9533 21.065 11.0288 21.3794 10.8292 21.4978C10.6838 21.584 10.4357 21.5619 10.2667 21.6482C9.42545 22.0774 8.62982 22.478 7.76931 22.8559C7.66664 22.9008 7.58252 23.0876 7.43137 23.1596C7.26312 23.2395 7.03213 23.2138 6.9145 23.2844C6.83251 23.3336 6.81397 23.494 6.69634 23.5646C6.52381 23.6686 6.20727 23.623 6.0604 23.7128C5.98483 23.7592 5.9663 23.9011 5.82585 23.9766C5.65902 24.0665 5.33036 24.0501 5.22199 24.1214C5.17565 24.152 5.15141 24.2868 5.06158 24.3509C4.85127 24.5021 4.5005 24.4629 4.36719 24.5491C4.30516 24.589 4.2909 24.7573 4.11623 24.8329C3.94156 24.9084 3.74266 24.8657 3.58011 24.9327C3.46105 24.9819 3.44037 25.1851 3.26143 25.2606C3.10957 25.3248 2.95914 25.2877 2.83153 25.3298C2.68466 25.3783 2.6041 25.5772 2.44298 25.6542C2.2733 25.7354 2.0751 25.7098 1.92753 25.7803C1.80205 25.8402 1.26878 26.2979 1.35005 26.4854L1.35861 115.699C1.45628 116.329 1.83271 116.178 2.19203 116.364C2.49787 116.52 2.957 116.841 3.25644 117.026C3.53733 117.2 4.3572 117.419 4.65949 117.6C4.79138 117.678 4.81277 117.824 4.8641 117.858C5.04732 117.977 6.05898 118.271 6.33631 118.417C7.26954 118.909 8.21631 119.451 9.17165 119.928C9.47322 120.078 9.71989 120.236 9.95445 120.356C10.097 120.429 10.3637 120.409 10.5269 120.496C10.7622 120.623 10.8649 121.005 11.329 120.799V21.2511H11.3304ZM118.567 21.2511C118.099 21.0279 117.833 21.3887 117.43 21.5035C117.071 21.6061 116.656 21.5512 116.337 21.6218C116.143 21.6646 115.952 21.8899 115.665 21.9469C115.34 22.0111 114.876 21.974 114.556 22.0496C114.351 22.098 114.173 22.3255 113.883 22.374C113.556 22.4296 113.095 22.3675 112.777 22.4788C112.638 22.5272 112.597 22.6819 112.459 22.7304C112.107 22.853 111.596 22.7504 111.259 22.8844C111.059 22.9636 110.966 23.1831 110.75 23.2309C110.397 23.3093 109.764 23.2345 109.425 23.315C109.352 23.3321 109.341 23.4804 109.273 23.5325C108.917 23.8077 108.157 23.6073 107.718 23.7442C107.633 23.7706 107.636 23.9224 107.522 23.9909C107.128 24.2262 106.418 23.9923 106.074 24.1114C105.965 24.1492 105.945 24.3402 105.743 24.4229C105.301 24.6061 104.726 24.4343 104.366 24.542C104.236 24.5812 104.144 24.7887 103.963 24.8514C103.551 24.994 102.977 24.8735 102.656 24.9697C102.522 25.0097 102.428 25.2264 102.254 25.2799C101.906 25.3875 101.266 25.3034 100.946 25.3975C100.831 25.431 100.548 25.739 100.362 25.739H99.1503L99.0526 116.191C99.1161 116.376 99.6529 116.351 99.8297 116.411C100.471 116.63 100.501 116.637 101.199 116.753C101.528 116.808 101.688 116.973 101.963 117.057C102.328 117.168 102.682 117.129 103.038 117.193C103.352 117.25 103.526 117.439 103.799 117.501C104.445 117.65 104.675 117.64 105.351 117.873C105.716 117.998 106.206 117.938 106.6 118.05C106.841 118.118 107.026 118.295 107.233 118.343C107.594 118.426 107.981 118.356 108.38 118.478C109.511 118.825 110.453 119.017 111.603 119.245C111.877 119.299 112.052 119.488 112.292 119.554C112.622 119.645 113.06 119.608 113.385 119.672C113.659 119.727 113.843 119.928 114.073 119.982C115.256 120.259 116.295 120.41 117.467 120.792C117.843 120.914 118.19 120.853 118.567 120.796V21.2511Z" fill="white" stroke="black" stroke-miterlimit="10"/>
<path d="M51.2669 141.106C50.6823 141.131 51.0024 141.029 50.6431 140.875C50.5091 140.817 50.3415 140.845 50.2353 140.784C50.149 140.734 50.1006 140.528 49.9437 140.434C49.7577 140.323 49.5452 140.362 49.3819 140.284C49.0747 140.136 48.5528 139.768 48.2177 139.595C47.9461 139.455 47.1954 139.197 46.9879 139.043C46.8917 138.971 46.8688 138.799 46.7391 138.723C46.563 138.618 46.3063 138.663 46.1559 138.611C46.0668 138.579 46.0368 138.381 45.8821 138.297C45.6939 138.194 45.3731 138.232 45.2626 138.168C45.2127 138.139 45.1763 137.941 45.0288 137.868C44.8812 137.794 44.4648 137.796 44.4064 137.742C44.3714 137.71 44.3942 137.576 44.3208 137.51C44.2003 137.4 43.8574 137.43 43.6956 137.349C43.5615 137.282 43.5423 137.128 43.4133 137.061C43.2528 136.979 42.7987 136.994 42.7623 136.964C42.7288 136.935 42.768 136.753 42.6076 136.656C42.4323 136.549 41.9446 136.567 41.9075 136.536C41.874 136.507 41.914 136.326 41.7528 136.228C41.5774 136.122 41.0898 136.14 41.0527 136.108C41.0185 136.08 41.0542 135.884 40.8994 135.799C40.7447 135.713 40.4032 135.754 40.2785 135.672C40.225 135.637 40.2036 135.489 40.0739 135.413C39.8878 135.305 39.6169 135.346 39.4586 135.263C39.3545 135.208 39.3403 135.005 39.1228 134.938C38.9653 134.89 38.7899 134.937 38.6673 134.895C38.5532 134.857 38.5261 134.672 38.4028 134.59C38.2003 134.454 37.9073 134.528 37.7647 134.443C37.6834 134.395 37.6691 134.227 37.5002 134.138C37.3312 134.049 36.9526 134.069 36.9191 134.041C36.8856 134.014 36.9213 133.818 36.7659 133.732C36.6104 133.646 36.1185 133.656 36.0665 133.612C36.028 133.579 36.0586 133.379 35.9125 133.303C35.7663 133.227 35.4091 133.269 35.2494 133.198C35.1653 133.161 35.206 133 35.0883 132.916C34.9393 132.81 34.6748 132.865 34.5023 132.794C34.3818 132.744 34.3868 132.563 34.1715 132.478C33.9968 132.409 33.7466 132.446 33.6311 132.377C33.5541 132.332 33.5334 132.168 33.4144 132.096C33.224 131.98 32.921 132.036 32.7535 131.972C32.6358 131.928 32.618 131.755 32.474 131.682C32.2516 131.57 31.8823 131.642 31.781 131.594C31.6192 131.518 31.3925 131.23 31.098 131.205L31.0339 116.518C30.9754 116.336 30.7188 116.239 30.7758 115.993V26.0562C30.7337 25.8152 30.9547 25.7225 31.0182 25.515C31.1237 20.7926 31.0403 16.0487 31.0603 11.3184C31.2328 11.2307 31.3982 11.22 31.5757 11.1081C33.1128 10.1406 34.8595 9.44267 36.5006 8.6228C36.6218 8.5622 36.6881 8.42603 36.7666 8.38967C37.0204 8.27346 37.3063 8.45811 37.5872 8.21215C37.6627 8.14584 37.697 8.00112 37.764 7.96119C37.893 7.8842 38.1625 7.93909 38.355 7.83928C38.514 7.75729 38.5225 7.58976 38.6345 7.54413C38.8134 7.47141 39.0244 7.53415 39.1877 7.46143C39.3217 7.40154 39.3552 7.19622 39.4572 7.14275C39.6219 7.05577 39.8999 7.11066 40.0439 7.03581C40.1879 6.96095 40.1587 6.75919 40.1979 6.72639C40.25 6.68219 40.7483 6.68861 40.8973 6.60662C41.0463 6.52463 41.0164 6.32572 41.0506 6.29721C41.0877 6.26584 41.5753 6.28366 41.7507 6.17743C41.9118 6.07976 41.8719 5.89796 41.9054 5.86945C41.9389 5.84093 42.3111 5.86517 42.4864 5.7732C42.6568 5.68337 42.6818 5.48232 42.798 5.44311C42.9391 5.39535 43.1167 5.45808 43.3035 5.37895C43.476 5.30552 43.4938 5.12657 43.5893 5.07666C43.7476 4.99396 44.0185 5.0346 44.2046 4.92623C44.3365 4.84924 44.3629 4.69168 44.4064 4.6653C44.5069 4.60399 44.8405 4.63821 45.0259 4.53626C45.1778 4.45285 45.2141 4.26535 45.2619 4.23754C45.3617 4.17979 45.6683 4.20831 45.8337 4.13131C46.014 4.04719 46.014 3.87965 46.1003 3.82832C46.2429 3.74348 46.5352 3.81834 46.7384 3.68217C46.861 3.60018 46.8881 3.41553 47.0029 3.37632C47.1433 3.32855 47.3208 3.39129 47.5083 3.31215C47.6837 3.23801 47.7037 3.0555 47.7885 3.00417C47.9432 2.91077 48.1486 2.97351 48.3083 2.90079C48.4423 2.83948 48.4722 2.65483 48.5442 2.60278C48.6697 2.51224 49.0034 2.50725 49.1616 2.40031C49.2764 2.3226 49.3021 2.16647 49.3798 2.12013C49.4981 2.04883 49.7291 2.07664 49.8967 1.99608C50.2289 1.83567 50.246 1.81 50.641 1.67169C50.8477 1.59969 51.0231 1.29883 51.1236 1.29883H78.6279C78.6357 1.29883 78.7348 1.39793 78.7348 1.40577V140.999C78.7348 141.007 78.6357 141.106 78.6279 141.106H51.2662H51.2669Z" fill="#CECDCC" stroke="black" stroke-miterlimit="10"/>
<path d="M118.565 21.2509V120.798C118.189 120.855 117.841 120.915 117.465 120.794C116.292 120.412 115.254 120.261 114.071 119.984C113.841 119.93 113.657 119.729 113.383 119.674C113.058 119.609 112.62 119.647 112.29 119.556C112.05 119.49 111.875 119.301 111.601 119.247C110.451 119.018 109.51 118.827 108.378 118.48C107.98 118.358 107.591 118.428 107.231 118.345C107.024 118.297 106.84 118.12 106.598 118.052C106.204 117.94 105.714 118.001 105.35 117.875C104.673 117.642 104.444 117.652 103.797 117.503C103.524 117.441 103.35 117.252 103.036 117.195C102.68 117.131 102.326 117.17 101.961 117.059C101.686 116.975 101.526 116.81 101.197 116.755C100.499 116.639 100.47 116.632 99.8279 116.413C99.6511 116.353 99.1142 116.378 99.0508 116.193L99.1485 25.741H100.36C100.546 25.741 100.83 25.433 100.944 25.3995C101.264 25.3061 101.905 25.3895 102.252 25.2818C102.427 25.2277 102.521 25.0116 102.654 24.9717C102.975 24.8755 103.549 24.9967 103.961 24.8534C104.142 24.7906 104.234 24.5832 104.364 24.544C104.724 24.4363 105.299 24.6081 105.742 24.4249C105.942 24.3422 105.963 24.1511 106.072 24.1133C106.416 23.9943 107.126 24.2281 107.52 23.9929C107.634 23.9244 107.631 23.7726 107.716 23.7462C108.155 23.6093 108.916 23.8096 109.271 23.5344C109.339 23.4824 109.35 23.3341 109.423 23.317C109.763 23.2364 110.394 23.3113 110.749 23.2329C110.964 23.1851 111.057 22.9648 111.257 22.8864C111.595 22.7531 112.106 22.8557 112.457 22.7324C112.595 22.6839 112.636 22.5292 112.775 22.4807C113.093 22.3695 113.554 22.4315 113.881 22.3759C114.171 22.3267 114.35 22.1 114.554 22.0515C114.874 21.976 115.338 22.013 115.663 21.9489C115.95 21.8918 116.142 21.6666 116.335 21.6238C116.655 21.5532 117.069 21.6074 117.428 21.5054C117.831 21.3906 118.098 21.0299 118.565 21.2531V21.2509Z" fill="#CECDCC" stroke="black" stroke-miterlimit="10"/>
<path d="M11.3291 21.2511V120.798C10.865 121.005 10.7631 120.621 10.5271 120.496C10.3645 120.409 10.0972 120.428 9.95459 120.355C9.72003 120.236 9.47336 120.077 9.17179 119.927C8.21574 119.451 7.26897 118.908 6.33645 118.416C6.05912 118.27 5.04675 117.976 4.86424 117.857C4.81291 117.824 4.79081 117.678 4.65963 117.599C4.35663 117.419 3.53747 117.199 3.25658 117.025C2.95786 116.84 2.49801 116.52 2.19217 116.363C1.83285 116.178 1.45571 116.329 1.35875 115.698L1.35019 26.4848C1.26892 26.2966 1.80148 25.8396 1.92767 25.7797C2.07524 25.7091 2.27344 25.7348 2.44312 25.6535C2.60424 25.5765 2.68409 25.3776 2.83167 25.3291C2.95928 25.2871 3.109 25.3241 3.26157 25.26C3.44051 25.1844 3.46119 24.9805 3.58025 24.932C3.7428 24.865 3.94384 24.9071 4.11637 24.8322C4.2889 24.7573 4.3053 24.5884 4.36733 24.5485C4.49993 24.4622 4.85141 24.5014 5.06172 24.3503C5.15155 24.2854 5.17579 24.1506 5.22213 24.1207C5.3305 24.0501 5.65916 24.0658 5.82599 23.976C5.96715 23.9004 5.98497 23.7578 6.06054 23.7122C6.20741 23.6224 6.52395 23.668 6.69648 23.5639C6.81412 23.4926 6.83265 23.3329 6.91464 23.2837C7.03156 23.2131 7.26326 23.2395 7.43152 23.159C7.58266 23.0869 7.66678 22.9009 7.76945 22.8552C8.63067 22.4774 9.4263 22.0767 10.2669 21.6475C10.4358 21.5613 10.6839 21.5834 10.8294 21.4971C11.029 21.3788 10.9534 21.0644 11.3306 21.2504L11.3291 21.2511Z" fill="#CECDCC" stroke="black" stroke-miterlimit="10"/>
</svg>
