<svg width="134" height="134" viewBox="0 0 134 134" fill="none" xmlns="http://www.w3.org/2000/svg">
<path d="M43.6482 27.1373V8.07156C43.6482 6.52082 45.2092 4.08938 46.356 3.08178C51.3253 -1.28533 59.1016 1.61734 60.0595 8.08086C60.2772 19.282 60.0934 30.5086 60.1535 41.72C59.7368 47.2647 54.2026 50.8552 48.9377 48.9508C38.8551 43.4797 28.9639 37.6202 18.9906 31.9401C10.5012 25.4833 18.9423 13.0326 28.161 18.2998L43.6491 27.1364L43.6482 27.1373Z" fill="white" stroke="black" stroke-miterlimit="10"/>
<path d="M43.6469 106.612L27.9895 115.533C18.2677 120.731 10.0739 107.339 19.8897 101.27C28.8627 95.7219 38.5421 90.9597 47.5685 85.4598C53.0748 82.184 60.1234 86.1391 60.1522 92.535L60.1565 124.919C59.666 132.62 49.8189 135.61 45.2206 129.432C44.6345 128.645 43.6478 126.633 43.6478 125.677V106.611L43.6469 106.612Z" fill="white" stroke="black" stroke-miterlimit="10"/>
<path d="M90.1186 27.137L105.86 18.1312C115.553 13.2142 123.461 26.423 113.929 32.4474C104.578 37.4 95.5605 43.4117 86.1962 48.2881C80.5925 51.206 74.517 48.311 73.6133 42.0581V8.32679C75.0066 -1.65191 89.3334 -1.22129 90.1211 8.82932L90.1186 27.137Z" fill="white" stroke="black" stroke-miterlimit="10"/>
<path d="M90.117 106.612V125.339C90.117 127.252 88.4679 129.858 86.978 130.996C81.7174 135.016 74.1571 131.728 73.6074 125.174L73.6125 91.6059C74.2749 86.1322 79.9929 82.8276 85.1214 84.9266C95.0168 90.479 104.855 96.1456 114.691 101.808C122.974 108.021 115.318 120.446 105.859 115.617L90.117 106.612Z" fill="white" stroke="black" stroke-miterlimit="10"/>
<path d="M20.4549 66.9571C19.9543 66.5611 19.3699 66.2506 18.8193 65.9292C14.0186 63.1289 9.13907 60.458 4.3468 57.6416C-4.16969 51.618 3.5032 38.8686 12.9793 43.6926L41.135 59.7871C45.0803 62.1289 46.4668 67.0628 44.0859 71.0721C43.1601 72.6304 41.993 73.4147 40.4887 74.3275C32.6371 79.0906 24.301 83.6785 16.28 88.1928C13.4663 89.7765 11.1803 91.5379 7.72629 91.043C-0.24643 89.9 -1.89806 79.2107 5.19379 75.5982L20.4549 66.9562V66.9571Z" fill="white" stroke="black" stroke-miterlimit="10"/>
<path d="M113.311 66.9573L128.826 75.7685C138.045 81.518 130.78 94.5474 121.153 90.2818C111.888 84.6973 102.154 79.8183 92.9395 74.1602C90.5154 72.6721 88.7231 70.5765 88.5072 67.5969C88.2429 63.9497 89.9572 61.421 92.9395 59.5894C102.27 53.8602 112.251 48.8163 121.692 43.2453C130.869 39.6937 137.651 52.1775 129.302 57.6943C124.358 60.9608 118.579 63.5445 113.537 66.7196L113.311 66.9581V66.9573Z" fill="white" stroke="black" stroke-miterlimit="10"/>
<path d="M64.873 51.5927C65.6853 51.4751 67.9137 51.4802 68.7454 51.5699C69.0444 51.602 69.5475 51.7864 69.7974 51.9565L81.867 63.9123C82.1059 64.2127 82.2778 64.6864 82.3218 65.0646C82.4184 65.8903 82.4209 68.5705 82.1643 69.2862C82.0999 69.4647 82.0262 69.6398 81.9068 69.7904L69.9736 81.6286C69.6703 81.8808 69.2164 82.1185 68.8225 82.1701C68.0475 82.2716 65.6285 82.275 64.8586 82.1701C64.4266 82.1109 63.9167 81.7691 63.5839 81.4984L52.025 70.0468C51.748 69.7405 51.4956 69.265 51.4414 68.8539C51.3339 68.0341 51.3432 65.8065 51.4338 64.9715C51.4609 64.7194 51.571 64.4918 51.6464 64.2533C55.457 60.0951 59.6979 56.2796 63.622 52.2044C63.9642 51.9294 64.4343 51.6562 64.8721 51.5936L64.873 51.5927ZM66.8118 61.4107C66.4196 61.4166 65.9334 61.5714 65.6133 61.8015C64.7858 62.3954 62.5726 64.5807 61.9289 65.392C61.2131 66.2938 61.1378 67.3319 61.8484 68.2667C62.4514 69.0603 64.4749 71.0366 65.2728 71.6948C66.1477 72.4173 67.1641 72.6085 68.139 71.9325C68.6811 71.5569 71.7844 68.507 72.0741 68.0003C73.0702 66.2583 71.665 65.3074 70.6054 64.255C69.6551 63.3108 68.1923 61.3912 66.8126 61.4107H66.8118Z" fill="white" stroke="black" stroke-miterlimit="10"/>
</svg>
