<svg width="796" height="180" viewBox="0 0 796 180" fill="none" xmlns="http://www.w3.org/2000/svg">
<mask id="mask0_448_1220" style="mask-type:alpha" maskUnits="userSpaceOnUse" x="69" y="0" width="727" height="180">
<rect x="-1.00159" y="0.995166" width="174.036" height="724.019" rx="87.0179" transform="matrix(-0.00160036 0.999999 -0.999988 -0.00483255 795.285 5.51011)" fill="black" stroke="#136A93" stroke-width="2"/>
</mask>
<g mask="url(#mask0_448_1220)">
<rect width="192.526" height="735.262" rx="47.5" transform="matrix(-0.00160036 0.999999 -0.999988 -0.00483255 1070.4 68.4429)" fill="url(#paint0_radial_448_1220)" fill-opacity="0.74"/>
<rect width="192.526" height="735.262" rx="47.5" transform="matrix(-0.00160036 0.999999 -0.999988 -0.00483255 529.426 -57.9541)" fill="url(#paint1_radial_448_1220)" fill-opacity="0.74"/>
</g>
<rect x="72.291" y="1.54663" width="722.708" height="175.235" rx="87.6177" fill="#D9D9D9" fill-opacity="0.14" stroke="#136A93" stroke-width="2"/>
<path d="M387.798 65.9265V67.2083C387.798 69.0881 387.547 70.78 387.046 72.2839C386.545 73.7764 385.833 75.0468 384.91 76.095C383.987 77.1431 382.887 77.9464 381.611 78.5046C380.335 79.0629 378.917 79.342 377.356 79.342C375.818 79.342 374.405 79.0629 373.118 78.5046C371.842 77.9464 370.736 77.1431 369.802 76.095C368.868 75.0468 368.145 73.7764 367.632 72.2839C367.119 70.78 366.863 69.0881 366.863 67.2083V65.9265C366.863 64.0352 367.119 62.3433 367.632 60.8508C368.145 59.3583 368.862 58.088 369.785 57.0398C370.708 55.9802 371.807 55.1713 373.083 54.613C374.371 54.0548 375.784 53.7756 377.322 53.7756C378.883 53.7756 380.301 54.0548 381.577 54.613C382.853 55.1713 383.953 55.9802 384.875 57.0398C385.81 58.088 386.528 59.3583 387.029 60.8508C387.542 62.3433 387.798 64.0352 387.798 65.9265ZM383.047 67.2083V65.8923C383.047 64.5365 382.922 63.3459 382.671 62.3206C382.42 61.2838 382.05 60.4122 381.56 59.7058C381.07 58.9994 380.466 58.4696 379.749 58.1165C379.031 57.7519 378.222 57.5696 377.322 57.5696C376.41 57.5696 375.601 57.7519 374.895 58.1165C374.2 58.4696 373.608 58.9994 373.118 59.7058C372.628 60.4122 372.252 61.2838 371.99 62.3206C371.739 63.3459 371.614 64.5365 371.614 65.8923V67.2083C371.614 68.5527 371.739 69.7432 371.99 70.78C372.252 71.8168 372.628 72.6941 373.118 73.4119C373.619 74.1182 374.223 74.6537 374.929 75.0183C375.636 75.3829 376.444 75.5652 377.356 75.5652C378.267 75.5652 379.076 75.3829 379.783 75.0183C380.489 74.6537 381.082 74.1182 381.56 73.4119C382.05 72.6941 382.42 71.8168 382.671 70.78C382.922 69.7432 383.047 68.5527 383.047 67.2083ZM395.7 64.0637V86.1096H391.171V60.509H395.358L395.7 64.0637ZM407.577 69.5667V69.9255C407.577 71.2699 407.418 72.5175 407.099 73.6682C406.791 74.8075 406.335 75.8044 405.731 76.6589C405.128 77.502 404.376 78.1628 403.476 78.6414C402.587 79.1085 401.562 79.342 400.399 79.342C399.26 79.342 398.269 79.1256 397.426 78.6926C396.583 78.2483 395.871 77.6217 395.29 76.8127C394.708 76.0038 394.241 75.0639 393.888 73.9929C393.546 72.9106 393.29 71.7314 393.119 70.4553V69.3103C393.29 67.9545 393.546 66.724 393.888 65.6189C394.241 64.5024 394.708 63.5396 395.29 62.7307C395.871 61.9104 396.577 61.2781 397.409 60.8337C398.252 60.3894 399.237 60.1672 400.365 60.1672C401.539 60.1672 402.57 60.3894 403.458 60.8337C404.359 61.2781 405.116 61.9161 405.731 62.7478C406.347 63.5795 406.808 64.5707 407.116 65.7214C407.423 66.8722 407.577 68.1539 407.577 69.5667ZM403.048 69.9255V69.5667C403.048 68.7463 402.974 67.9887 402.826 67.2937C402.678 66.5873 402.45 65.9721 402.143 65.448C401.835 64.9125 401.436 64.4967 400.946 64.2004C400.456 63.9042 399.864 63.7561 399.169 63.7561C398.474 63.7561 397.876 63.87 397.375 64.0979C396.873 64.3258 396.463 64.6505 396.144 65.072C395.825 65.4936 395.574 65.9949 395.392 66.5759C395.221 67.1456 395.107 67.7779 395.05 68.4729V71.3098C395.153 72.1529 395.352 72.9106 395.648 73.5828C395.945 74.255 396.378 74.7904 396.947 75.1892C397.528 75.588 398.28 75.7874 399.203 75.7874C399.898 75.7874 400.491 75.6335 400.98 75.3259C401.47 75.0183 401.869 74.5968 402.177 74.0613C402.484 73.5144 402.707 72.8878 402.843 72.1814C402.98 71.475 403.048 70.7231 403.048 69.9255ZM418.931 79.342C417.53 79.342 416.271 79.1142 415.154 78.6584C414.038 78.2027 413.086 77.5704 412.3 76.7615C411.526 75.9412 410.927 74.9898 410.506 73.9075C410.096 72.8137 409.891 71.6402 409.891 70.387V69.7034C409.891 68.2792 410.096 66.9861 410.506 65.824C410.916 64.6505 411.497 63.6422 412.249 62.7991C413.001 61.956 413.901 61.3066 414.949 60.8508C415.997 60.3951 417.154 60.1672 418.418 60.1672C419.729 60.1672 420.885 60.3894 421.888 60.8337C422.89 61.2667 423.728 61.8819 424.4 62.6794C425.072 63.477 425.579 64.434 425.921 65.5505C426.263 66.6557 426.434 67.8805 426.434 69.2249V71.1218H411.941V68.0115H421.99V67.6697C421.967 66.9519 421.831 66.2968 421.58 65.7043C421.329 65.1005 420.942 64.622 420.418 64.2688C419.894 63.9042 419.216 63.7219 418.384 63.7219C417.712 63.7219 417.125 63.87 416.624 64.1663C416.134 64.4511 415.724 64.8612 415.394 65.3967C415.075 65.9208 414.835 66.5474 414.676 67.2766C414.516 68.0058 414.437 68.8147 414.437 69.7034V70.387C414.437 71.1617 414.539 71.8795 414.744 72.5403C414.961 73.2011 415.274 73.7764 415.684 74.2664C416.106 74.7449 416.607 75.1208 417.188 75.3943C417.78 75.6563 418.453 75.7874 419.205 75.7874C420.15 75.7874 421.005 75.6051 421.768 75.2405C422.543 74.8645 423.215 74.3119 423.785 73.5828L426.058 75.9412C425.67 76.5108 425.146 77.0577 424.485 77.5818C423.836 78.1059 423.05 78.5331 422.127 78.8635C421.204 79.1825 420.139 79.342 418.931 79.342ZM433.72 64.2859V79.0002H429.208V60.509H433.481L433.72 64.2859ZM439.343 60.3894L439.274 64.5935C439.024 64.5479 438.739 64.5138 438.42 64.491C438.112 64.4682 437.822 64.4568 437.548 64.4568C436.853 64.4568 436.244 64.5536 435.72 64.7473C435.196 64.9296 434.757 65.1973 434.404 65.5505C434.062 65.9037 433.8 66.3367 433.618 66.8494C433.435 67.3507 433.333 67.9203 433.31 68.5583L432.336 68.4387C432.336 67.2652 432.456 66.1772 432.695 65.1746C432.934 64.172 433.282 63.2947 433.737 62.5427C434.193 61.7908 434.763 61.2097 435.446 60.7996C436.141 60.378 436.939 60.1672 437.839 60.1672C438.09 60.1672 438.357 60.19 438.642 60.2356C438.938 60.2698 439.172 60.321 439.343 60.3894ZM451.175 75.0696V66.5417C451.175 65.9151 451.067 65.3739 450.851 64.9182C450.634 64.4625 450.304 64.1093 449.859 63.8586C449.415 63.608 448.851 63.4827 448.167 63.4827C447.564 63.4827 447.034 63.5852 446.578 63.7903C446.134 63.9954 445.792 64.2859 445.553 64.6619C445.313 65.0264 445.194 65.448 445.194 65.9265H440.665C440.665 65.1632 440.847 64.4397 441.212 63.7561C441.576 63.0611 442.095 62.4459 442.767 61.9104C443.451 61.3635 444.265 60.9363 445.211 60.6287C446.168 60.321 447.239 60.1672 448.424 60.1672C449.825 60.1672 451.073 60.4065 452.167 60.885C453.272 61.3521 454.138 62.0585 454.764 63.0042C455.402 63.9498 455.721 65.1404 455.721 66.5759V74.6423C455.721 75.5652 455.778 76.357 455.892 77.0178C456.017 77.6672 456.2 78.2312 456.439 78.7097V79.0002H451.842C451.625 78.5331 451.46 77.9407 451.346 77.2229C451.232 76.4937 451.175 75.776 451.175 75.0696ZM451.808 67.738L451.842 70.4211H448.988C448.281 70.4211 447.66 70.4952 447.125 70.6433C446.59 70.78 446.151 70.9851 445.809 71.2585C445.467 71.5206 445.211 71.8396 445.04 72.2156C444.869 72.5802 444.784 72.996 444.784 73.4631C444.784 73.9189 444.886 74.329 445.091 74.6936C445.308 75.0582 445.615 75.3487 446.014 75.5652C446.424 75.7703 446.903 75.8728 447.45 75.8728C448.247 75.8728 448.942 75.7133 449.535 75.3943C450.127 75.0639 450.589 74.6651 450.919 74.198C451.249 73.7309 451.426 73.2865 451.449 72.865L452.748 74.8132C452.588 75.2804 452.349 75.776 452.03 76.3C451.711 76.8241 451.301 77.314 450.799 77.7698C450.298 78.2255 449.694 78.6015 448.988 78.8977C448.281 79.1939 447.461 79.342 446.527 79.342C445.331 79.342 444.26 79.1028 443.314 78.6243C442.368 78.1458 441.622 77.4906 441.075 76.6589C440.528 75.8272 440.255 74.8816 440.255 73.822C440.255 72.8422 440.437 71.9763 440.802 71.2244C441.166 70.4724 441.708 69.8401 442.425 69.3274C443.143 68.8033 444.032 68.4102 445.091 68.1482C446.162 67.8748 447.387 67.738 448.766 67.738H451.808ZM468.289 60.509V63.7561H457.693V60.509H468.289ZM460.53 55.9631H465.059V73.6682C465.059 74.2151 465.133 74.6366 465.281 74.9329C465.429 75.2291 465.651 75.4285 465.947 75.531C466.243 75.6335 466.597 75.6848 467.007 75.6848C467.303 75.6848 467.576 75.6677 467.827 75.6335C468.078 75.5994 468.289 75.5652 468.459 75.531L468.477 78.9148C468.101 79.0401 467.673 79.1427 467.195 79.2224C466.728 79.3022 466.198 79.342 465.605 79.342C464.591 79.342 463.703 79.1711 462.939 78.8293C462.176 78.4762 461.584 77.9122 461.162 77.1375C460.741 76.3513 460.53 75.3145 460.53 74.0271V55.9631ZM475.832 60.509V79.0002H471.303V60.509H475.832ZM470.995 55.6726C470.995 55.0004 471.223 54.4421 471.679 53.9978C472.146 53.5535 472.772 53.3313 473.559 53.3313C474.345 53.3313 474.966 53.5535 475.421 53.9978C475.889 54.4421 476.122 55.0004 476.122 55.6726C476.122 56.3334 475.889 56.886 475.421 57.3303C474.966 57.7747 474.345 57.9968 473.559 57.9968C472.772 57.9968 472.146 57.7747 471.679 57.3303C471.223 56.886 470.995 56.3334 470.995 55.6726ZM479.085 69.9426V69.5837C479.085 68.2279 479.279 66.9804 479.666 65.8411C480.053 64.6903 480.617 63.6934 481.358 62.8503C482.098 62.0072 483.004 61.3521 484.075 60.885C485.146 60.4065 486.365 60.1672 487.732 60.1672C489.122 60.1672 490.353 60.4065 491.424 60.885C492.506 61.3521 493.418 62.0072 494.158 62.8503C494.899 63.6934 495.463 64.6903 495.85 65.8411C496.237 66.9804 496.431 68.2279 496.431 69.5837V69.9426C496.431 71.287 496.237 72.5346 495.85 73.6853C495.463 74.8246 494.899 75.8215 494.158 76.676C493.418 77.5191 492.512 78.1742 491.441 78.6414C490.37 79.1085 489.145 79.342 487.767 79.342C486.399 79.342 485.175 79.1085 484.092 78.6414C483.01 78.1742 482.098 77.5191 481.358 76.676C480.617 75.8215 480.053 74.8246 479.666 73.6853C479.279 72.5346 479.085 71.287 479.085 69.9426ZM483.597 69.5837V69.9426C483.597 70.7515 483.676 71.5092 483.836 72.2156C483.995 72.922 484.24 73.5429 484.571 74.0784C484.901 74.6139 485.328 75.0354 485.853 75.343C486.388 75.6392 487.026 75.7874 487.767 75.7874C488.496 75.7874 489.122 75.6392 489.646 75.343C490.171 75.0354 490.598 74.6139 490.928 74.0784C491.27 73.5429 491.521 72.922 491.68 72.2156C491.84 71.5092 491.919 70.7515 491.919 69.9426V69.5837C491.919 68.7862 491.84 68.04 491.68 67.345C491.521 66.6386 491.27 66.0177 490.928 65.4822C490.598 64.9353 490.165 64.5081 489.629 64.2004C489.105 63.8814 488.473 63.7219 487.732 63.7219C487.003 63.7219 486.377 63.8814 485.853 64.2004C485.328 64.5081 484.901 64.9353 484.571 65.4822C484.24 66.0177 483.995 66.6386 483.836 67.345C483.676 68.04 483.597 68.7862 483.597 69.5837ZM503.889 64.4568V79.0002H499.377V60.509H503.615L503.889 64.4568ZM503.171 69.0881H501.838C501.849 67.7437 502.032 66.5247 502.385 65.4309C502.738 64.3372 503.234 63.3972 503.872 62.6111C504.521 61.825 505.29 61.2211 506.179 60.7996C507.067 60.378 508.059 60.1672 509.152 60.1672C510.041 60.1672 510.844 60.2926 511.562 60.5432C512.28 60.7939 512.895 61.1926 513.408 61.7395C513.932 62.2864 514.331 63.0042 514.604 63.8928C514.889 64.7701 515.031 65.8525 515.031 67.1399V79.0002H510.485V67.1057C510.485 66.2626 510.36 65.5961 510.109 65.1062C509.87 64.6163 509.517 64.2688 509.05 64.0637C508.594 63.8586 508.03 63.7561 507.358 63.7561C506.663 63.7561 506.053 63.8985 505.529 64.1833C505.017 64.4568 504.584 64.8385 504.23 65.3284C503.889 65.8183 503.627 66.3822 503.444 67.0203C503.262 67.6583 503.171 68.3476 503.171 69.0881ZM528.932 73.9417C528.932 73.5543 528.829 73.2068 528.624 72.8992C528.419 72.5916 528.032 72.3124 527.462 72.0618C526.904 71.7997 526.083 71.5548 525.001 71.3269C524.044 71.1218 523.161 70.8655 522.352 70.5579C521.543 70.2502 520.848 69.88 520.267 69.447C519.686 69.0027 519.23 68.4843 518.9 67.8918C518.581 67.288 518.421 66.593 518.421 65.8069C518.421 65.0435 518.587 64.3258 518.917 63.6536C519.247 62.97 519.726 62.3718 520.353 61.8591C520.979 61.335 521.743 60.9249 522.643 60.6287C523.543 60.321 524.557 60.1672 525.685 60.1672C527.257 60.1672 528.607 60.4236 529.735 60.9363C530.874 61.449 531.746 62.1554 532.35 63.0554C532.953 63.9441 533.255 64.9467 533.255 66.0632H528.744C528.744 65.5733 528.63 65.129 528.402 64.7302C528.185 64.3315 527.849 64.0125 527.394 63.7732C526.938 63.5225 526.362 63.3972 525.667 63.3972C525.041 63.3972 524.511 63.4998 524.078 63.7048C523.657 63.9099 523.338 64.1777 523.121 64.5081C522.905 64.8385 522.796 65.203 522.796 65.6018C522.796 65.898 522.853 66.1658 522.967 66.405C523.093 66.6329 523.292 66.8437 523.565 67.0374C523.839 67.231 524.209 67.4076 524.676 67.5671C525.155 67.7266 525.742 67.8805 526.437 68.0286C527.815 68.302 529.017 68.6666 530.042 69.1223C531.079 69.5667 531.888 70.1591 532.469 70.8997C533.05 71.6402 533.341 72.5859 533.341 73.7366C533.341 74.5569 533.164 75.3088 532.811 75.9924C532.458 76.6646 531.945 77.2514 531.273 77.7527C530.601 78.254 529.798 78.6471 528.863 78.9319C527.929 79.2053 526.875 79.342 525.702 79.342C524.004 79.342 522.569 79.0401 521.395 78.4363C520.222 77.821 519.333 77.0463 518.729 76.1121C518.125 75.1664 517.823 74.1866 517.823 73.1726H522.147C522.181 73.8904 522.375 74.4657 522.728 74.8987C523.081 75.3316 523.526 75.6449 524.061 75.8386C524.608 76.0209 525.183 76.1121 525.787 76.1121C526.471 76.1121 527.046 76.0209 527.513 75.8386C527.98 75.6449 528.333 75.3886 528.573 75.0696C528.812 74.7392 528.932 74.3632 528.932 73.9417Z" fill="#EDD5B1"/>
<path d="M312.495 111.766L315.352 102.203H316.107L315.413 104.787L312.372 115H311.66L312.495 111.766ZM309.085 102.203L311.52 111.713L312.258 115H311.493L308.162 102.203H309.085ZM319.992 111.704L322.4 102.203H323.323L320.001 115H319.236L319.992 111.704ZM316.187 102.203L319.008 111.766L319.834 115H319.122L316.134 104.787L315.431 102.203H316.187ZM324.334 110.404V110.087C324.334 109.396 324.434 108.76 324.633 108.18C324.832 107.594 325.116 107.087 325.485 106.659C325.854 106.232 326.297 105.901 326.812 105.666C327.334 105.432 327.911 105.315 328.544 105.315C329.183 105.315 329.76 105.432 330.275 105.666C330.797 105.901 331.242 106.232 331.611 106.659C331.986 107.087 332.273 107.594 332.473 108.18C332.672 108.76 332.771 109.396 332.771 110.087V110.404C332.771 111.095 332.672 111.734 332.473 112.32C332.273 112.9 331.986 113.404 331.611 113.831C331.242 114.259 330.8 114.59 330.284 114.824C329.769 115.059 329.194 115.176 328.562 115.176C327.923 115.176 327.343 115.059 326.821 114.824C326.306 114.59 325.86 114.259 325.485 113.831C325.116 113.404 324.832 112.9 324.633 112.32C324.434 111.734 324.334 111.095 324.334 110.404ZM325.195 110.087V110.404C325.195 110.937 325.269 111.447 325.415 111.933C325.567 112.413 325.784 112.841 326.065 113.216C326.353 113.585 326.704 113.878 327.12 114.095C327.542 114.306 328.022 114.411 328.562 114.411C329.095 114.411 329.566 114.306 329.977 114.095C330.393 113.878 330.741 113.585 331.022 113.216C331.31 112.841 331.526 112.413 331.673 111.933C331.825 111.447 331.901 110.937 331.901 110.404V110.087C331.901 109.566 331.825 109.065 331.673 108.584C331.526 108.104 331.31 107.676 331.022 107.301C330.735 106.926 330.384 106.63 329.968 106.413C329.552 106.191 329.077 106.079 328.544 106.079C328.011 106.079 327.536 106.191 327.12 106.413C326.704 106.63 326.353 106.926 326.065 107.301C325.778 107.676 325.562 108.104 325.415 108.584C325.269 109.065 325.195 109.566 325.195 110.087ZM335.856 107.09V115H334.986V105.49H335.839L335.856 107.09ZM339.354 105.42L339.319 106.211C339.208 106.194 339.097 106.182 338.985 106.176C338.88 106.164 338.766 106.158 338.643 106.158C338.162 106.158 337.74 106.249 337.377 106.431C337.014 106.613 336.709 106.865 336.463 107.187C336.223 107.509 336.038 107.884 335.909 108.312C335.786 108.734 335.719 109.191 335.707 109.683L335.347 109.788C335.347 109.15 335.411 108.561 335.54 108.022C335.675 107.477 335.88 107.002 336.155 106.598C336.431 106.194 336.776 105.88 337.192 105.657C337.608 105.429 338.101 105.315 338.669 105.315C338.804 105.315 338.933 105.326 339.056 105.35C339.185 105.367 339.284 105.391 339.354 105.42ZM341.903 101.5V115H341.033V101.5H341.903ZM347.924 105.49L343.38 109.894L341.622 111.546L341.464 110.729L342.94 109.191L346.799 105.49H347.924ZM347.186 115L343.037 109.929L343.529 109.191L348.249 115H347.186ZM351.387 115H350.517V104.26C350.517 103.621 350.625 103.085 350.842 102.652C351.064 102.212 351.381 101.881 351.791 101.658C352.201 101.43 352.693 101.316 353.268 101.316C353.543 101.316 353.859 101.342 354.217 101.395C354.574 101.442 354.946 101.506 355.333 101.588C355.726 101.67 356.106 101.758 356.476 101.852L356.001 102.476C355.509 102.376 355.04 102.288 354.595 102.212C354.149 102.136 353.725 102.098 353.32 102.098C352.916 102.098 352.567 102.183 352.274 102.353C351.987 102.523 351.768 102.769 351.615 103.091C351.463 103.407 351.387 103.797 351.387 104.26V115ZM355.614 115V101.852H356.476V115H355.614ZM353.733 105.49V106.238H348.917V105.49H353.733ZM358.822 110.404V110.087C358.822 109.396 358.922 108.76 359.121 108.18C359.32 107.594 359.604 107.087 359.974 106.659C360.343 106.232 360.785 105.901 361.301 105.666C361.822 105.432 362.399 105.315 363.032 105.315C363.671 105.315 364.248 105.432 364.764 105.666C365.285 105.901 365.73 106.232 366.1 106.659C366.475 107.087 366.762 107.594 366.961 108.18C367.16 108.76 367.26 109.396 367.26 110.087V110.404C367.26 111.095 367.16 111.734 366.961 112.32C366.762 112.9 366.475 113.404 366.1 113.831C365.73 114.259 365.288 114.59 364.772 114.824C364.257 115.059 363.683 115.176 363.05 115.176C362.411 115.176 361.831 115.059 361.31 114.824C360.794 114.59 360.349 114.259 359.974 113.831C359.604 113.404 359.32 112.9 359.121 112.32C358.922 111.734 358.822 111.095 358.822 110.404ZM359.684 110.087V110.404C359.684 110.937 359.757 111.447 359.903 111.933C360.056 112.413 360.272 112.841 360.554 113.216C360.841 113.585 361.192 113.878 361.608 114.095C362.03 114.306 362.511 114.411 363.05 114.411C363.583 114.411 364.055 114.306 364.465 114.095C364.881 113.878 365.229 113.585 365.511 113.216C365.798 112.841 366.015 112.413 366.161 111.933C366.313 111.447 366.39 110.937 366.39 110.404V110.087C366.39 109.566 366.313 109.065 366.161 108.584C366.015 108.104 365.798 107.676 365.511 107.301C365.224 106.926 364.872 106.63 364.456 106.413C364.04 106.191 363.565 106.079 363.032 106.079C362.499 106.079 362.024 106.191 361.608 106.413C361.192 106.63 360.841 106.926 360.554 107.301C360.267 107.676 360.05 108.104 359.903 108.584C359.757 109.065 359.684 109.566 359.684 110.087ZM372.19 112.61L374.432 105.49H375.082L374.563 107.582L372.19 115H371.54L372.19 112.61ZM369.58 105.49L371.575 112.645L372.085 115H371.426L368.666 105.49H369.58ZM378.097 112.618L380.048 105.49H380.962L378.193 115H377.543L378.097 112.618ZM375.196 105.49L377.42 112.566L378.079 115H377.438L375.012 107.573L374.528 105.49H375.196ZM393.267 113.269V108.365C393.267 107.89 393.167 107.483 392.968 107.143C392.769 106.797 392.476 106.533 392.089 106.352C391.708 106.164 391.236 106.071 390.674 106.071C390.158 106.071 389.695 106.161 389.285 106.343C388.881 106.525 388.559 106.771 388.318 107.081C388.084 107.392 387.967 107.738 387.967 108.118L387.105 108.101C387.105 107.743 387.19 107.398 387.36 107.064C387.536 106.73 387.782 106.431 388.099 106.167C388.421 105.904 388.802 105.696 389.241 105.543C389.687 105.391 390.176 105.315 390.709 105.315C391.383 105.315 391.975 105.429 392.484 105.657C393 105.88 393.404 106.22 393.697 106.677C393.99 107.128 394.137 107.697 394.137 108.382V113.031C394.137 113.36 394.16 113.699 394.207 114.051C394.254 114.403 394.324 114.687 394.418 114.904V115H393.478C393.407 114.783 393.354 114.517 393.319 114.2C393.284 113.878 393.267 113.568 393.267 113.269ZM393.504 109.533L393.521 110.245H391.333C390.765 110.245 390.258 110.298 389.812 110.404C389.373 110.503 388.998 110.65 388.688 110.843C388.383 111.036 388.148 111.271 387.984 111.546C387.82 111.816 387.738 112.12 387.738 112.46C387.738 112.812 387.829 113.134 388.011 113.427C388.192 113.72 388.45 113.954 388.784 114.13C389.124 114.3 389.52 114.385 389.971 114.385C390.58 114.385 391.119 114.277 391.588 114.06C392.062 113.843 392.455 113.553 392.766 113.19C393.076 112.821 393.296 112.407 393.425 111.95L393.803 112.504C393.715 112.803 393.568 113.111 393.363 113.427C393.158 113.738 392.892 114.025 392.563 114.288C392.235 114.552 391.849 114.766 391.403 114.93C390.964 115.094 390.46 115.176 389.892 115.176C389.282 115.176 388.749 115.062 388.292 114.833C387.841 114.599 387.489 114.282 387.237 113.884C386.991 113.48 386.868 113.023 386.868 112.513C386.868 112.062 386.968 111.655 387.167 111.291C387.366 110.922 387.653 110.609 388.028 110.351C388.403 110.087 388.86 109.885 389.399 109.744C389.938 109.604 390.545 109.533 391.219 109.533H393.504ZM403.207 112.803V105.49H404.086V115H403.233L403.207 112.803ZM403.365 111.115L403.857 111.098C403.857 111.684 403.787 112.226 403.646 112.724C403.506 113.216 403.283 113.647 402.979 114.016C402.68 114.385 402.293 114.672 401.818 114.877C401.344 115.076 400.775 115.176 400.113 115.176C399.65 115.176 399.226 115.112 398.839 114.983C398.458 114.848 398.127 114.637 397.846 114.35C397.57 114.063 397.356 113.691 397.204 113.234C397.058 112.771 396.984 112.214 396.984 111.564V105.49H397.854V111.581C397.854 112.109 397.913 112.554 398.03 112.917C398.153 113.275 398.32 113.562 398.531 113.779C398.748 113.995 398.997 114.154 399.278 114.253C399.56 114.347 399.864 114.394 400.192 114.394C400.989 114.394 401.619 114.241 402.082 113.937C402.545 113.626 402.873 113.222 403.066 112.724C403.266 112.22 403.365 111.684 403.365 111.115ZM410.388 105.49V106.238H405.729V105.49H410.388ZM407.479 103.012H408.357V112.698C408.357 113.172 408.416 113.532 408.533 113.779C408.656 114.019 408.817 114.18 409.017 114.262C409.216 114.344 409.43 114.385 409.658 114.385C409.822 114.385 409.975 114.376 410.115 114.359C410.262 114.341 410.402 114.321 410.537 114.297L410.59 115.044C410.461 115.085 410.294 115.117 410.089 115.141C409.884 115.164 409.69 115.176 409.509 115.176C409.104 115.176 408.75 115.103 408.445 114.956C408.141 114.804 407.903 114.549 407.733 114.192C407.563 113.828 407.479 113.33 407.479 112.698V103.012ZM411.873 110.404V110.087C411.873 109.396 411.973 108.76 412.172 108.18C412.371 107.594 412.655 107.087 413.024 106.659C413.394 106.232 413.836 105.901 414.352 105.666C414.873 105.432 415.45 105.315 416.083 105.315C416.722 105.315 417.299 105.432 417.814 105.666C418.336 105.901 418.781 106.232 419.15 106.659C419.525 107.087 419.812 107.594 420.012 108.18C420.211 108.76 420.311 109.396 420.311 110.087V110.404C420.311 111.095 420.211 111.734 420.012 112.32C419.812 112.9 419.525 113.404 419.15 113.831C418.781 114.259 418.339 114.59 417.823 114.824C417.308 115.059 416.733 115.176 416.101 115.176C415.462 115.176 414.882 115.059 414.36 114.824C413.845 114.59 413.399 114.259 413.024 113.831C412.655 113.404 412.371 112.9 412.172 112.32C411.973 111.734 411.873 111.095 411.873 110.404ZM412.734 110.087V110.404C412.734 110.937 412.808 111.447 412.954 111.933C413.106 112.413 413.323 112.841 413.604 113.216C413.892 113.585 414.243 113.878 414.659 114.095C415.081 114.306 415.562 114.411 416.101 114.411C416.634 114.411 417.105 114.306 417.516 114.095C417.932 113.878 418.28 113.585 418.562 113.216C418.849 112.841 419.065 112.413 419.212 111.933C419.364 111.447 419.44 110.937 419.44 110.404V110.087C419.44 109.566 419.364 109.065 419.212 108.584C419.065 108.104 418.849 107.676 418.562 107.301C418.274 106.926 417.923 106.63 417.507 106.413C417.091 106.191 416.616 106.079 416.083 106.079C415.55 106.079 415.075 106.191 414.659 106.413C414.243 106.63 413.892 106.926 413.604 107.301C413.317 107.676 413.101 108.104 412.954 108.584C412.808 109.065 412.734 109.566 412.734 110.087ZM423.334 107.477V115H422.455V105.49H423.308L423.334 107.477ZM423.185 109.586L422.754 109.243C422.795 108.716 422.906 108.215 423.088 107.74C423.275 107.266 423.53 106.847 423.853 106.484C424.175 106.12 424.556 105.836 424.995 105.631C425.44 105.42 425.941 105.315 426.498 105.315C426.967 105.315 427.389 105.379 427.764 105.508C428.145 105.631 428.467 105.827 428.73 106.097C428.994 106.361 429.196 106.706 429.337 107.134C429.483 107.562 429.557 108.074 429.557 108.672V115H428.687V108.698C428.687 108.025 428.584 107.5 428.379 107.125C428.18 106.75 427.898 106.484 427.535 106.325C427.172 106.167 426.753 106.088 426.278 106.088C425.722 106.088 425.25 106.205 424.863 106.44C424.477 106.674 424.16 106.973 423.914 107.336C423.674 107.699 423.495 108.083 423.378 108.488C423.261 108.886 423.196 109.252 423.185 109.586ZM429.548 108.778L428.968 108.698C429.009 108.259 429.123 107.837 429.311 107.433C429.498 107.023 429.753 106.659 430.075 106.343C430.397 106.027 430.781 105.778 431.227 105.596C431.672 105.408 432.167 105.315 432.712 105.315C433.198 105.315 433.632 105.382 434.013 105.517C434.399 105.646 434.725 105.854 434.988 106.141C435.258 106.422 435.46 106.782 435.595 107.222C435.735 107.661 435.806 108.192 435.806 108.813V115H434.936V108.813C434.936 108.098 434.833 107.544 434.628 107.152C434.429 106.753 434.147 106.475 433.784 106.317C433.421 106.158 433.002 106.082 432.527 106.088C432.035 106.094 431.604 106.185 431.235 106.361C430.872 106.536 430.567 106.762 430.321 107.037C430.081 107.307 429.896 107.597 429.768 107.907C429.639 108.212 429.565 108.502 429.548 108.778ZM444.384 113.269V108.365C444.384 107.89 444.284 107.483 444.085 107.143C443.886 106.797 443.593 106.533 443.206 106.352C442.825 106.164 442.354 106.071 441.791 106.071C441.275 106.071 440.812 106.161 440.402 106.343C439.998 106.525 439.676 106.771 439.436 107.081C439.201 107.392 439.084 107.738 439.084 108.118L438.223 108.101C438.223 107.743 438.308 107.398 438.478 107.064C438.653 106.73 438.899 106.431 439.216 106.167C439.538 105.904 439.919 105.696 440.358 105.543C440.804 105.391 441.293 105.315 441.826 105.315C442.5 105.315 443.092 105.429 443.602 105.657C444.117 105.88 444.521 106.22 444.814 106.677C445.107 107.128 445.254 107.697 445.254 108.382V113.031C445.254 113.36 445.277 113.699 445.324 114.051C445.371 114.403 445.441 114.687 445.535 114.904V115H444.595C444.524 114.783 444.472 114.517 444.437 114.2C444.401 113.878 444.384 113.568 444.384 113.269ZM444.621 109.533L444.639 110.245H442.45C441.882 110.245 441.375 110.298 440.93 110.404C440.49 110.503 440.115 110.65 439.805 110.843C439.5 111.036 439.266 111.271 439.102 111.546C438.938 111.816 438.855 112.12 438.855 112.46C438.855 112.812 438.946 113.134 439.128 113.427C439.31 113.72 439.567 113.954 439.901 114.13C440.241 114.3 440.637 114.385 441.088 114.385C441.697 114.385 442.236 114.277 442.705 114.06C443.18 113.843 443.572 113.553 443.883 113.19C444.193 112.821 444.413 112.407 444.542 111.95L444.92 112.504C444.832 112.803 444.686 113.111 444.48 113.427C444.275 113.738 444.009 114.025 443.681 114.288C443.353 114.552 442.966 114.766 442.521 114.93C442.081 115.094 441.577 115.176 441.009 115.176C440.399 115.176 439.866 115.062 439.409 114.833C438.958 114.599 438.606 114.282 438.354 113.884C438.108 113.48 437.985 113.023 437.985 112.513C437.985 112.062 438.085 111.655 438.284 111.291C438.483 110.922 438.771 110.609 439.146 110.351C439.521 110.087 439.978 109.885 440.517 109.744C441.056 109.604 441.662 109.533 442.336 109.533H444.621ZM451.626 105.49V106.238H446.968V105.49H451.626ZM448.717 103.012H449.596V112.698C449.596 113.172 449.654 113.532 449.771 113.779C449.895 114.019 450.056 114.18 450.255 114.262C450.454 114.344 450.668 114.385 450.896 114.385C451.061 114.385 451.213 114.376 451.354 114.359C451.5 114.341 451.641 114.321 451.775 114.297L451.828 115.044C451.699 115.085 451.532 115.117 451.327 115.141C451.122 115.164 450.929 115.176 450.747 115.176C450.343 115.176 449.988 115.103 449.684 114.956C449.379 114.804 449.142 114.549 448.972 114.192C448.802 113.828 448.717 113.33 448.717 112.698V103.012ZM454.896 105.49V115H454.025V105.49H454.896ZM453.823 102.669C453.823 102.493 453.882 102.344 453.999 102.221C454.116 102.092 454.271 102.028 454.465 102.028C454.664 102.028 454.822 102.092 454.939 102.221C455.062 102.344 455.124 102.493 455.124 102.669C455.124 102.845 455.062 102.994 454.939 103.117C454.822 103.24 454.664 103.302 454.465 103.302C454.271 103.302 454.116 103.24 453.999 103.117C453.882 102.994 453.823 102.845 453.823 102.669ZM457.225 110.404V110.087C457.225 109.396 457.324 108.76 457.523 108.18C457.723 107.594 458.007 107.087 458.376 106.659C458.745 106.232 459.188 105.901 459.703 105.666C460.225 105.432 460.802 105.315 461.435 105.315C462.073 105.315 462.65 105.432 463.166 105.666C463.688 105.901 464.133 106.232 464.502 106.659C464.877 107.087 465.164 107.594 465.363 108.18C465.562 108.76 465.662 109.396 465.662 110.087V110.404C465.662 111.095 465.562 111.734 465.363 112.32C465.164 112.9 464.877 113.404 464.502 113.831C464.133 114.259 463.69 114.59 463.175 114.824C462.659 115.059 462.085 115.176 461.452 115.176C460.813 115.176 460.233 115.059 459.712 114.824C459.196 114.59 458.751 114.259 458.376 113.831C458.007 113.404 457.723 112.9 457.523 112.32C457.324 111.734 457.225 111.095 457.225 110.404ZM458.086 110.087V110.404C458.086 110.937 458.159 111.447 458.306 111.933C458.458 112.413 458.675 112.841 458.956 113.216C459.243 113.585 459.595 113.878 460.011 114.095C460.433 114.306 460.913 114.411 461.452 114.411C461.985 114.411 462.457 114.306 462.867 114.095C463.283 113.878 463.632 113.585 463.913 113.216C464.2 112.841 464.417 112.413 464.563 111.933C464.716 111.447 464.792 110.937 464.792 110.404V110.087C464.792 109.566 464.716 109.065 464.563 108.584C464.417 108.104 464.2 107.676 463.913 107.301C463.626 106.926 463.274 106.63 462.858 106.413C462.442 106.191 461.968 106.079 461.435 106.079C460.901 106.079 460.427 106.191 460.011 106.413C459.595 106.63 459.243 106.926 458.956 107.301C458.669 107.676 458.452 108.104 458.306 108.584C458.159 109.065 458.086 109.566 458.086 110.087ZM468.747 107.521V115H467.877V105.49H468.721L468.747 107.521ZM468.562 109.586L468.167 109.243C468.208 108.716 468.325 108.215 468.519 107.74C468.712 107.266 468.973 106.847 469.301 106.484C469.629 106.12 470.016 105.836 470.461 105.631C470.906 105.42 471.396 105.315 471.929 105.315C472.403 105.315 472.828 105.379 473.203 105.508C473.578 105.637 473.895 105.842 474.152 106.123C474.416 106.405 474.615 106.768 474.75 107.213C474.891 107.653 474.961 108.189 474.961 108.822V115H474.091V108.813C474.091 108.11 473.991 107.562 473.792 107.169C473.599 106.777 473.326 106.498 472.975 106.334C472.629 106.17 472.219 106.088 471.744 106.088C471.211 106.088 470.748 106.205 470.355 106.44C469.963 106.674 469.635 106.973 469.371 107.336C469.113 107.699 468.917 108.083 468.782 108.488C468.647 108.886 468.574 109.252 468.562 109.586ZM478.626 113.418V114.631C478.626 115.17 478.523 115.674 478.318 116.143C478.113 116.617 477.838 117.019 477.492 117.347L476.965 116.943C477.141 116.708 477.29 116.471 477.413 116.231C477.536 115.996 477.627 115.75 477.686 115.492C477.744 115.235 477.773 114.953 477.773 114.649V113.418H478.626ZM486.413 107.09V115H485.543V105.49H486.396L486.413 107.09ZM489.911 105.42L489.876 106.211C489.765 106.194 489.653 106.182 489.542 106.176C489.437 106.164 489.322 106.158 489.199 106.158C488.719 106.158 488.297 106.249 487.934 106.431C487.57 106.613 487.266 106.865 487.02 107.187C486.779 107.509 486.595 107.884 486.466 108.312C486.343 108.734 486.275 109.191 486.264 109.683L485.903 109.788C485.903 109.15 485.968 108.561 486.097 108.022C486.231 107.477 486.437 107.002 486.712 106.598C486.987 106.194 487.333 105.88 487.749 105.657C488.165 105.429 488.657 105.315 489.226 105.315C489.36 105.315 489.489 105.326 489.612 105.35C489.741 105.367 489.841 105.391 489.911 105.42ZM495.018 115.176C494.408 115.176 493.846 115.062 493.33 114.833C492.814 114.605 492.366 114.282 491.985 113.866C491.604 113.445 491.309 112.949 491.098 112.381C490.887 111.807 490.781 111.177 490.781 110.491V110.114C490.781 109.387 490.887 108.731 491.098 108.145C491.314 107.559 491.61 107.055 491.985 106.633C492.366 106.205 492.8 105.88 493.286 105.657C493.772 105.429 494.288 105.315 494.833 105.315C495.407 105.315 495.923 105.42 496.38 105.631C496.843 105.836 497.235 106.129 497.558 106.51C497.88 106.891 498.123 107.342 498.287 107.864C498.457 108.379 498.542 108.95 498.542 109.577V110.193H491.317V109.428H497.672V109.314C497.666 108.745 497.552 108.218 497.329 107.732C497.112 107.24 496.793 106.841 496.371 106.536C495.955 106.232 495.442 106.079 494.833 106.079C494.358 106.079 493.925 106.182 493.532 106.387C493.146 106.586 492.812 106.867 492.53 107.231C492.249 107.588 492.032 108.013 491.88 108.505C491.728 108.991 491.651 109.528 491.651 110.114V110.491C491.651 111.036 491.733 111.546 491.897 112.021C492.067 112.495 492.302 112.911 492.601 113.269C492.905 113.626 493.266 113.907 493.682 114.113C494.098 114.318 494.552 114.42 495.044 114.42C495.601 114.42 496.102 114.321 496.547 114.121C496.992 113.916 497.396 113.579 497.76 113.111L498.313 113.532C498.108 113.837 497.854 114.115 497.549 114.367C497.244 114.614 496.884 114.81 496.468 114.956C496.052 115.103 495.568 115.176 495.018 115.176ZM506.487 113.269V108.365C506.487 107.89 506.388 107.483 506.188 107.143C505.989 106.797 505.696 106.533 505.31 106.352C504.929 106.164 504.457 106.071 503.895 106.071C503.379 106.071 502.916 106.161 502.506 106.343C502.102 106.525 501.779 106.771 501.539 107.081C501.305 107.392 501.188 107.738 501.188 108.118L500.326 108.101C500.326 107.743 500.411 107.398 500.581 107.064C500.757 106.73 501.003 106.431 501.319 106.167C501.642 105.904 502.022 105.696 502.462 105.543C502.907 105.391 503.396 105.315 503.93 105.315C504.604 105.315 505.195 105.429 505.705 105.657C506.221 105.88 506.625 106.22 506.918 106.677C507.211 107.128 507.357 107.697 507.357 108.382V113.031C507.357 113.36 507.381 113.699 507.428 114.051C507.475 114.403 507.545 114.687 507.639 114.904V115H506.698C506.628 114.783 506.575 114.517 506.54 114.2C506.505 113.878 506.487 113.568 506.487 113.269ZM506.725 109.533L506.742 110.245H504.554C503.985 110.245 503.479 110.298 503.033 110.404C502.594 110.503 502.219 110.65 501.908 110.843C501.604 111.036 501.369 111.271 501.205 111.546C501.041 111.816 500.959 112.12 500.959 112.46C500.959 112.812 501.05 113.134 501.231 113.427C501.413 113.72 501.671 113.954 502.005 114.13C502.345 114.3 502.74 114.385 503.191 114.385C503.801 114.385 504.34 114.277 504.809 114.06C505.283 113.843 505.676 113.553 505.986 113.19C506.297 112.821 506.517 112.407 506.646 111.95L507.023 112.504C506.936 112.803 506.789 113.111 506.584 113.427C506.379 113.738 506.112 114.025 505.784 114.288C505.456 114.552 505.069 114.766 504.624 114.93C504.185 115.094 503.681 115.176 503.112 115.176C502.503 115.176 501.97 115.062 501.513 114.833C501.062 114.599 500.71 114.282 500.458 113.884C500.212 113.48 500.089 113.023 500.089 112.513C500.089 112.062 500.188 111.655 500.388 111.291C500.587 110.922 500.874 110.609 501.249 110.351C501.624 110.087 502.081 109.885 502.62 109.744C503.159 109.604 503.766 109.533 504.439 109.533H506.725ZM511.233 101.5V115H510.363V101.5H511.233ZM517.412 108.901V109.674H513.229V108.901H517.412ZM522.888 105.49V106.238H518.229V105.49H522.888ZM519.979 103.012H520.857V112.698C520.857 113.172 520.916 113.532 521.033 113.779C521.156 114.019 521.317 114.18 521.517 114.262C521.716 114.344 521.93 114.385 522.158 114.385C522.322 114.385 522.475 114.376 522.615 114.359C522.762 114.341 522.902 114.321 523.037 114.297L523.09 115.044C522.961 115.085 522.794 115.117 522.589 115.141C522.384 115.164 522.19 115.176 522.009 115.176C521.604 115.176 521.25 115.103 520.945 114.956C520.641 114.804 520.403 114.549 520.233 114.192C520.063 113.828 519.979 113.33 519.979 112.698V103.012ZM526.157 105.49V115H525.287V105.49H526.157ZM525.085 102.669C525.085 102.493 525.144 102.344 525.261 102.221C525.378 102.092 525.533 102.028 525.727 102.028C525.926 102.028 526.084 102.092 526.201 102.221C526.324 102.344 526.386 102.493 526.386 102.669C526.386 102.845 526.324 102.994 526.201 103.117C526.084 103.24 525.926 103.302 525.727 103.302C525.533 103.302 525.378 103.24 525.261 103.117C525.144 102.994 525.085 102.845 525.085 102.669ZM529.91 107.477V115H529.031V105.49H529.884L529.91 107.477ZM529.761 109.586L529.33 109.243C529.371 108.716 529.482 108.215 529.664 107.74C529.852 107.266 530.106 106.847 530.429 106.484C530.751 106.12 531.132 105.836 531.571 105.631C532.017 105.42 532.518 105.315 533.074 105.315C533.543 105.315 533.965 105.379 534.34 105.508C534.721 105.631 535.043 105.827 535.307 106.097C535.57 106.361 535.772 106.706 535.913 107.134C536.06 107.562 536.133 108.074 536.133 108.672V115H535.263V108.698C535.263 108.025 535.16 107.5 534.955 107.125C534.756 106.75 534.475 106.484 534.111 106.325C533.748 106.167 533.329 106.088 532.854 106.088C532.298 106.088 531.826 106.205 531.439 106.44C531.053 106.674 530.736 106.973 530.49 107.336C530.25 107.699 530.071 108.083 529.954 108.488C529.837 108.886 529.772 109.252 529.761 109.586ZM536.124 108.778L535.544 108.698C535.585 108.259 535.699 107.837 535.887 107.433C536.074 107.023 536.329 106.659 536.651 106.343C536.974 106.027 537.357 105.778 537.803 105.596C538.248 105.408 538.743 105.315 539.288 105.315C539.774 105.315 540.208 105.382 540.589 105.517C540.976 105.646 541.301 105.854 541.564 106.141C541.834 106.422 542.036 106.782 542.171 107.222C542.312 107.661 542.382 108.192 542.382 108.813V115H541.512V108.813C541.512 108.098 541.409 107.544 541.204 107.152C541.005 106.753 540.724 106.475 540.36 106.317C539.997 106.158 539.578 106.082 539.104 106.088C538.611 106.094 538.181 106.185 537.812 106.361C537.448 106.536 537.144 106.762 536.897 107.037C536.657 107.307 536.473 107.597 536.344 107.907C536.215 108.212 536.142 108.502 536.124 108.778ZM548.719 115.176C548.109 115.176 547.547 115.062 547.031 114.833C546.516 114.605 546.067 114.282 545.687 113.866C545.306 113.445 545.01 112.949 544.799 112.381C544.588 111.807 544.482 111.177 544.482 110.491V110.114C544.482 109.387 544.588 108.731 544.799 108.145C545.016 107.559 545.312 107.055 545.687 106.633C546.067 106.205 546.501 105.88 546.987 105.657C547.474 105.429 547.989 105.315 548.534 105.315C549.108 105.315 549.624 105.42 550.081 105.631C550.544 105.836 550.937 106.129 551.259 106.51C551.581 106.891 551.824 107.342 551.988 107.864C552.158 108.379 552.243 108.95 552.243 109.577V110.193H545.019V109.428H551.373V109.314C551.367 108.745 551.253 108.218 551.03 107.732C550.813 107.24 550.494 106.841 550.072 106.536C549.656 106.232 549.144 106.079 548.534 106.079C548.06 106.079 547.626 106.182 547.233 106.387C546.847 106.586 546.513 106.867 546.231 107.231C545.95 107.588 545.733 108.013 545.581 108.505C545.429 108.991 545.353 109.528 545.353 110.114V110.491C545.353 111.036 545.435 111.546 545.599 112.021C545.769 112.495 546.003 112.911 546.302 113.269C546.606 113.626 546.967 113.907 547.383 114.113C547.799 114.318 548.253 114.42 548.745 114.42C549.302 114.42 549.803 114.321 550.248 114.121C550.693 113.916 551.098 113.579 551.461 113.111L552.015 113.532C551.81 113.837 551.555 114.115 551.25 114.367C550.945 114.614 550.585 114.81 550.169 114.956C549.753 115.103 549.27 115.176 548.719 115.176ZM564.548 113.269V108.365C564.548 107.89 564.448 107.483 564.249 107.143C564.05 106.797 563.757 106.533 563.37 106.352C562.989 106.164 562.518 106.071 561.955 106.071C561.439 106.071 560.977 106.161 560.566 106.343C560.162 106.525 559.84 106.771 559.6 107.081C559.365 107.392 559.248 107.738 559.248 108.118L558.387 108.101C558.387 107.743 558.472 107.398 558.642 107.064C558.817 106.73 559.063 106.431 559.38 106.167C559.702 105.904 560.083 105.696 560.522 105.543C560.968 105.391 561.457 105.315 561.99 105.315C562.664 105.315 563.256 105.429 563.766 105.657C564.281 105.88 564.686 106.22 564.979 106.677C565.271 107.128 565.418 107.697 565.418 108.382V113.031C565.418 113.36 565.441 113.699 565.488 114.051C565.535 114.403 565.605 114.687 565.699 114.904V115H564.759C564.688 114.783 564.636 114.517 564.601 114.2C564.565 113.878 564.548 113.568 564.548 113.269ZM564.785 109.533L564.803 110.245H562.614C562.046 110.245 561.539 110.298 561.094 110.404C560.654 110.503 560.279 110.65 559.969 110.843C559.664 111.036 559.43 111.271 559.266 111.546C559.102 111.816 559.02 112.12 559.02 112.46C559.02 112.812 559.11 113.134 559.292 113.427C559.474 113.72 559.731 113.954 560.065 114.13C560.405 114.3 560.801 114.385 561.252 114.385C561.861 114.385 562.4 114.277 562.869 114.06C563.344 113.843 563.736 113.553 564.047 113.19C564.357 112.821 564.577 112.407 564.706 111.95L565.084 112.504C564.996 112.803 564.85 113.111 564.645 113.427C564.439 113.738 564.173 114.025 563.845 114.288C563.517 114.552 563.13 114.766 562.685 114.93C562.245 115.094 561.741 115.176 561.173 115.176C560.563 115.176 560.03 115.062 559.573 114.833C559.122 114.599 558.771 114.282 558.519 113.884C558.272 113.48 558.149 113.023 558.149 112.513C558.149 112.062 558.249 111.655 558.448 111.291C558.647 110.922 558.935 110.609 559.31 110.351C559.685 110.087 560.142 109.885 560.681 109.744C561.22 109.604 561.826 109.533 562.5 109.533H564.785ZM569.294 101.5V115H568.424V101.5H569.294ZM575.842 115.176C575.232 115.176 574.67 115.062 574.154 114.833C573.639 114.605 573.19 114.282 572.81 113.866C572.429 113.445 572.133 112.949 571.922 112.381C571.711 111.807 571.605 111.177 571.605 110.491V110.114C571.605 109.387 571.711 108.731 571.922 108.145C572.139 107.559 572.435 107.055 572.81 106.633C573.19 106.205 573.624 105.88 574.11 105.657C574.597 105.429 575.112 105.315 575.657 105.315C576.231 105.315 576.747 105.42 577.204 105.631C577.667 105.836 578.06 106.129 578.382 106.51C578.704 106.891 578.947 107.342 579.111 107.864C579.281 108.379 579.366 108.95 579.366 109.577V110.193H572.142V109.428H578.496V109.314C578.49 108.745 578.376 108.218 578.153 107.732C577.937 107.24 577.617 106.841 577.195 106.536C576.779 106.232 576.267 106.079 575.657 106.079C575.183 106.079 574.749 106.182 574.356 106.387C573.97 106.586 573.636 106.867 573.354 107.231C573.073 107.588 572.856 108.013 572.704 108.505C572.552 108.991 572.476 109.528 572.476 110.114V110.491C572.476 111.036 572.558 111.546 572.722 112.021C572.892 112.495 573.126 112.911 573.425 113.269C573.729 113.626 574.09 113.907 574.506 114.113C574.922 114.318 575.376 114.42 575.868 114.42C576.425 114.42 576.926 114.321 577.371 114.121C577.816 113.916 578.221 113.579 578.584 113.111L579.138 113.532C578.933 113.837 578.678 114.115 578.373 114.367C578.068 114.614 577.708 114.81 577.292 114.956C576.876 115.103 576.393 115.176 575.842 115.176ZM582.337 107.09V115H581.467V105.49H582.319L582.337 107.09ZM585.835 105.42L585.8 106.211C585.688 106.194 585.577 106.182 585.466 106.176C585.36 106.164 585.246 106.158 585.123 106.158C584.643 106.158 584.221 106.249 583.857 106.431C583.494 106.613 583.189 106.865 582.943 107.187C582.703 107.509 582.519 107.884 582.39 108.312C582.267 108.734 582.199 109.191 582.188 109.683L581.827 109.788C581.827 109.15 581.892 108.561 582.021 108.022C582.155 107.477 582.36 107.002 582.636 106.598C582.911 106.194 583.257 105.88 583.673 105.657C584.089 105.429 584.581 105.315 585.149 105.315C585.284 105.315 585.413 105.326 585.536 105.35C585.665 105.367 585.765 105.391 585.835 105.42ZM591.442 105.49V106.238H586.784V105.49H591.442ZM588.533 103.012H589.412V112.698C589.412 113.172 589.471 113.532 589.588 113.779C589.711 114.019 589.872 114.18 590.071 114.262C590.271 114.344 590.484 114.385 590.713 114.385C590.877 114.385 591.029 114.376 591.17 114.359C591.316 114.341 591.457 114.321 591.592 114.297L591.645 115.044C591.516 115.085 591.349 115.117 591.144 115.141C590.938 115.164 590.745 115.176 590.563 115.176C590.159 115.176 589.805 115.103 589.5 114.956C589.195 114.804 588.958 114.549 588.788 114.192C588.618 113.828 588.533 113.33 588.533 112.698V103.012ZM599.476 112.601C599.476 112.337 599.405 112.073 599.265 111.81C599.124 111.54 598.863 111.294 598.482 111.072C598.102 110.843 597.545 110.653 596.812 110.5C596.285 110.383 595.816 110.254 595.406 110.114C594.996 109.967 594.65 109.791 594.369 109.586C594.094 109.381 593.883 109.138 593.736 108.857C593.596 108.57 593.525 108.233 593.525 107.846C593.525 107.494 593.602 107.166 593.754 106.862C593.906 106.557 594.126 106.29 594.413 106.062C594.7 105.827 595.046 105.646 595.45 105.517C595.86 105.382 596.32 105.315 596.83 105.315C597.557 105.315 598.178 105.438 598.693 105.684C599.209 105.924 599.604 106.255 599.88 106.677C600.161 107.099 600.302 107.579 600.302 108.118H599.432C599.432 107.767 599.329 107.439 599.124 107.134C598.925 106.823 598.632 106.572 598.245 106.378C597.858 106.179 597.387 106.079 596.83 106.079C596.25 106.079 595.781 106.167 595.424 106.343C595.066 106.519 594.806 106.739 594.642 107.002C594.478 107.266 594.396 107.538 594.396 107.82C594.396 108.042 594.428 108.244 594.492 108.426C594.562 108.608 594.691 108.778 594.879 108.936C595.066 109.094 595.333 109.243 595.679 109.384C596.03 109.519 596.484 109.651 597.041 109.78C597.809 109.949 598.433 110.157 598.913 110.404C599.399 110.644 599.757 110.94 599.985 111.291C600.22 111.643 600.337 112.068 600.337 112.566C600.337 112.952 600.255 113.307 600.091 113.629C599.933 113.946 599.701 114.221 599.396 114.455C599.098 114.684 598.734 114.863 598.307 114.991C597.885 115.115 597.413 115.176 596.892 115.176C596.095 115.176 595.424 115.047 594.879 114.789C594.334 114.531 593.921 114.192 593.64 113.77C593.358 113.348 593.218 112.894 593.218 112.407H594.088C594.123 112.917 594.284 113.319 594.571 113.612C594.864 113.905 595.219 114.113 595.635 114.236C596.057 114.353 596.476 114.411 596.892 114.411C597.454 114.411 597.926 114.326 598.307 114.156C598.693 113.981 598.983 113.755 599.177 113.48C599.376 113.204 599.476 112.911 599.476 112.601Z" fill="white"/>
<mask id="path-7-outside-1_448_1220" maskUnits="userSpaceOnUse" x="0" y="48.0002" width="61" height="83" fill="black">
<rect fill="white" y="48.0002" width="61" height="83"/>
<path d="M19.9531 93.3108L6.86719 90.2346L11.1641 53.9065H52.7168V66.6995H24.5918L22.9805 80.8108C23.7617 80.3551 25.0801 79.818 26.9355 79.1995C28.8236 78.5484 30.9069 78.2229 33.1855 78.2229C36.7012 78.2229 39.8099 78.76 42.5117 79.8342C45.2461 80.8759 47.5573 82.4221 49.4453 84.4729C51.3333 86.4911 52.7493 88.9814 53.6934 91.9436C54.6699 94.9058 55.1582 98.2913 55.1582 102.1C55.1582 105.16 54.6536 108.122 53.6445 110.987C52.668 113.819 51.1543 116.374 49.1035 118.653C47.0853 120.899 44.5299 122.689 41.4375 124.024C38.3451 125.326 34.6829 125.977 30.4512 125.977C27.2936 125.977 24.2174 125.489 21.2227 124.512C18.2279 123.535 15.526 122.136 13.1172 120.313C10.7409 118.457 8.85286 116.227 7.45312 113.623C6.08594 110.987 5.41862 108.041 5.45117 104.785H22.0039C22.1016 106.511 22.5085 108.008 23.2246 109.278C23.9408 110.547 24.901 111.54 26.1055 112.256C27.3424 112.94 28.7585 113.281 30.3535 113.281C31.9811 113.281 33.332 112.956 34.4062 112.305C35.4805 111.654 36.3268 110.759 36.9453 109.619C37.5638 108.48 38.0033 107.178 38.2637 105.713C38.5241 104.216 38.6543 102.637 38.6543 100.977C38.6543 99.219 38.459 97.6402 38.0684 96.2405C37.7103 94.8407 37.1243 93.6526 36.3105 92.676C35.4967 91.6669 34.4388 90.9019 33.1367 90.3811C31.8672 89.8603 30.3372 89.5999 28.5469 89.5999C26.1706 89.5999 24.2988 90.0068 22.9316 90.8206C21.5645 91.6344 20.5716 92.4644 19.9531 93.3108Z"/>
</mask>
<path d="M19.9531 93.3108L18.8089 98.1781L22.0349 98.9364L23.9901 96.2609L19.9531 93.3108ZM6.86719 90.2346L1.9018 89.6473L1.37745 94.0804L5.723 95.1019L6.86719 90.2346ZM11.1641 53.9065V48.9065H6.72061L6.19867 53.3192L11.1641 53.9065ZM52.7168 53.9065H57.7168V48.9065H52.7168V53.9065ZM52.7168 66.6995V71.6995H57.7168V66.6995H52.7168ZM24.5918 66.6995V61.6995H20.1302L19.6241 66.1322L24.5918 66.6995ZM22.9805 80.8108L18.0128 80.2435L16.8807 90.1575L25.4998 85.1297L22.9805 80.8108ZM26.9355 79.1995L28.5167 83.9429L28.5411 83.9347L28.5655 83.9263L26.9355 79.1995ZM42.5117 79.8342L40.6644 84.4805L40.698 84.4938L40.7317 84.5067L42.5117 79.8342ZM49.4453 84.4729L45.7668 87.8594L45.7803 87.8741L45.794 87.8887L49.4453 84.4729ZM53.6934 91.9436L48.9294 93.4618L48.937 93.4855L48.9448 93.5091L53.6934 91.9436ZM53.6445 110.987L48.9286 109.325L48.9231 109.341L48.9177 109.357L53.6445 110.987ZM49.1035 118.653L45.387 115.308L45.3844 115.311L49.1035 118.653ZM41.4375 124.024L43.3778 128.632L43.3983 128.623L43.4188 128.614L41.4375 124.024ZM13.1172 120.313L10.04 124.254L10.0698 124.277L10.1 124.3L13.1172 120.313ZM7.45312 113.623L3.01435 115.925L3.03143 115.958L3.049 115.991L7.45312 113.623ZM5.45117 104.785V99.7854H0.500922L0.451422 104.735L5.45117 104.785ZM22.0039 104.785L26.9959 104.503L26.7289 99.7854H22.0039V104.785ZM26.1055 112.256L23.5501 116.554L23.6179 116.594L23.687 116.632L26.1055 112.256ZM34.4062 112.305L31.8147 108.029L34.4062 112.305ZM36.9453 109.619L32.551 107.234L36.9453 109.619ZM38.2637 105.713L43.1865 106.588L43.1881 106.579L43.1897 106.57L38.2637 105.713ZM38.0684 96.2405L33.2243 97.4796L33.2378 97.5322L33.2524 97.5845L38.0684 96.2405ZM36.3105 92.676L32.4185 95.8148L32.4437 95.8461L32.4694 95.8769L36.3105 92.676ZM33.1367 90.3811L31.2389 95.0069L31.2593 95.0153L31.2798 95.0235L33.1367 90.3811ZM19.9531 93.3108L21.0973 88.4435L8.01137 85.3673L6.86719 90.2346L5.723 95.1019L18.8089 98.1781L19.9531 93.3108ZM6.86719 90.2346L11.8326 90.8219L16.1294 54.4938L11.1641 53.9065L6.19867 53.3192L1.9018 89.6473L6.86719 90.2346ZM11.1641 53.9065V58.9065H52.7168V53.9065V48.9065H11.1641V53.9065ZM52.7168 53.9065H47.7168V66.6995H52.7168H57.7168V53.9065H52.7168ZM52.7168 66.6995V61.6995H24.5918V66.6995V71.6995H52.7168V66.6995ZM24.5918 66.6995L19.6241 66.1322L18.0128 80.2435L22.9805 80.8108L27.9482 81.378L29.5595 67.2667L24.5918 66.6995ZM22.9805 80.8108L25.4998 85.1297C25.8041 84.9522 26.7015 84.5479 28.5167 83.9429L26.9355 79.1995L25.3544 74.456C23.4586 75.088 21.7194 75.7579 20.4611 76.4919L22.9805 80.8108ZM26.9355 79.1995L28.5655 83.9263C29.8609 83.4796 31.3846 83.2229 33.1855 83.2229V78.2229V73.2229C30.4292 73.2229 27.7862 73.6172 25.3056 74.4726L26.9355 79.1995ZM33.1855 78.2229V83.2229C36.1974 83.2229 38.6594 83.6833 40.6644 84.4805L42.5117 79.8342L44.359 75.188C40.9604 73.8367 37.2049 73.2229 33.1855 73.2229V78.2229ZM42.5117 79.8342L40.7317 84.5067C42.7792 85.2867 44.4297 86.407 45.7668 87.8594L49.4453 84.4729L53.1238 81.0864C50.6849 78.4372 47.713 76.4651 44.2917 75.1618L42.5117 79.8342ZM49.4453 84.4729L45.794 87.8887C47.1148 89.3006 48.1825 91.118 48.9294 93.4618L53.6934 91.9436L58.4573 90.4254C57.3162 86.8448 55.5519 83.6817 53.0967 81.0571L49.4453 84.4729ZM53.6934 91.9436L48.9448 93.5091C49.7227 95.8688 50.1582 98.7099 50.1582 102.1H55.1582H60.1582C60.1582 97.8727 59.6172 93.9429 58.442 90.3781L53.6934 91.9436ZM55.1582 102.1H50.1582C50.1582 104.598 49.7483 106.998 48.9286 109.325L53.6445 110.987L58.3605 112.648C59.559 109.246 60.1582 105.721 60.1582 102.1H55.1582ZM53.6445 110.987L48.9177 109.357C48.1647 111.54 47.0002 113.515 45.387 115.308L49.1035 118.653L52.82 121.997C55.3084 119.233 57.1712 116.097 58.3714 112.617L53.6445 110.987ZM49.1035 118.653L45.3844 115.311C43.9015 116.961 41.963 118.351 39.4562 119.433L41.4375 124.024L43.4188 128.614C47.0969 127.027 50.269 124.836 52.8227 121.994L49.1035 118.653ZM41.4375 124.024L39.4972 119.416C37.1567 120.401 34.1843 120.977 30.4512 120.977V125.977V130.977C35.1816 130.977 39.5334 130.251 43.3778 128.632L41.4375 124.024ZM30.4512 125.977V120.977C27.8188 120.977 25.2658 120.571 22.7728 119.758L21.2227 124.512L19.6726 129.266C23.1691 130.406 26.7685 130.977 30.4512 130.977V125.977ZM21.2227 124.512L22.7728 119.758C20.2834 118.947 18.0815 117.799 16.1344 116.326L13.1172 120.313L10.1 124.3C12.9706 126.472 16.1723 128.124 19.6726 129.266L21.2227 124.512ZM13.1172 120.313L16.1944 116.372C14.3536 114.935 12.922 113.237 11.8572 111.256L7.45312 113.623L3.049 115.991C4.78372 119.218 7.12813 121.98 10.04 124.254L13.1172 120.313ZM7.45312 113.623L11.8919 111.322C10.9365 109.479 10.4257 107.353 10.4509 104.835L5.45117 104.785L0.451422 104.735C0.411493 108.728 1.23535 112.494 3.01435 115.925L7.45312 113.623ZM5.45117 104.785V109.785H22.0039V104.785V99.7854H5.45117V104.785ZM22.0039 104.785L17.0119 105.068C17.1448 107.416 17.7141 109.686 18.8697 111.734L23.2246 109.278L27.5795 106.821C27.3028 106.331 27.0583 105.605 26.9959 104.503L22.0039 104.785ZM23.2246 109.278L18.8697 111.734C19.9967 113.732 21.5646 115.373 23.5501 116.554L26.1055 112.256L28.6608 107.958C28.2375 107.707 27.8848 107.362 27.5795 106.821L23.2246 109.278ZM26.1055 112.256L23.687 116.632C25.7555 117.775 28.023 118.281 30.3535 118.281V113.281V108.281C29.4939 108.281 28.9294 108.104 28.5239 107.88L26.1055 112.256ZM30.3535 113.281V118.281C32.6299 118.281 34.9429 117.826 36.9978 116.581L34.4062 112.305L31.8147 108.029C31.7212 108.086 31.3324 108.281 30.3535 108.281V113.281ZM34.4062 112.305L36.9978 116.581C38.8548 115.455 40.3125 113.897 41.3396 112.005L36.9453 109.619L32.551 107.234C32.3412 107.621 32.1061 107.852 31.8147 108.029L34.4062 112.305ZM36.9453 109.619L41.3396 112.005C42.2489 110.33 42.8457 108.505 43.1865 106.588L38.2637 105.713L33.3409 104.838C33.1608 105.851 32.8787 106.63 32.551 107.234L36.9453 109.619ZM38.2637 105.713L43.1897 106.57C43.5036 104.765 43.6543 102.898 43.6543 100.977H38.6543H33.6543C33.6543 102.376 33.5446 103.666 33.3376 104.856L38.2637 105.713ZM38.6543 100.977H43.6543C43.6543 98.8562 43.4194 96.814 42.8843 94.8965L38.0684 96.2405L33.2524 97.5845C33.4985 98.4665 33.6543 99.5817 33.6543 100.977H38.6543ZM38.0684 96.2405L42.9124 95.0013C42.3953 92.9799 41.5026 91.0963 40.1517 89.4751L36.3105 92.676L32.4694 95.8769C32.7461 96.2089 33.0253 96.7016 33.2243 97.4796L38.0684 96.2405ZM36.3105 92.676L40.2026 89.5373C38.807 87.8067 37.0248 86.5512 34.9937 85.7387L33.1367 90.3811L31.2798 95.0235C31.8528 95.2527 32.1865 95.5271 32.4185 95.8148L36.3105 92.676ZM33.1367 90.3811L35.0345 85.7553C33.0098 84.9246 30.7994 84.5999 28.5469 84.5999V89.5999V94.5999C29.8751 94.5999 30.7246 94.7959 31.2389 95.0069L33.1367 90.3811ZM28.5469 89.5999V84.5999C25.6834 84.5999 22.8061 85.0766 20.3742 86.5241L22.9316 90.8206L25.4891 95.117C25.7916 94.937 26.6577 94.5999 28.5469 94.5999V89.5999ZM22.9316 90.8206L20.3742 86.5241C18.6987 87.5214 17.0832 88.7637 15.9162 90.3607L19.9531 93.3108L23.9901 96.2609C24.06 96.1652 24.4302 95.7473 25.4891 95.117L22.9316 90.8206Z" fill="#1A5069" mask="url(#path-7-outside-1_448_1220)"/>
<defs>
<radialGradient id="paint0_radial_448_1220" cx="0" cy="0" r="1" gradientUnits="userSpaceOnUse" gradientTransform="translate(96.2629 367.631) scale(96.2629 367.631)">
<stop stop-color="#1A5069"/>
<stop offset="1" stop-color="#0F7BAE" stop-opacity="0"/>
</radialGradient>
<radialGradient id="paint1_radial_448_1220" cx="0" cy="0" r="1" gradientUnits="userSpaceOnUse" gradientTransform="translate(96.2629 367.631) scale(96.2629 367.631)">
<stop stop-color="#1A5069"/>
<stop offset="1" stop-color="#0F7BAE" stop-opacity="0"/>
</radialGradient>
</defs>
</svg>
