<svg width="798" height="180" viewBox="0 0 798 180" fill="none" xmlns="http://www.w3.org/2000/svg">
<mask id="mask0_448_1187" style="mask-type:alpha" maskUnits="userSpaceOnUse" x="71" y="0" width="727" height="180">
<rect x="-1.00159" y="0.995166" width="174.036" height="724.019" rx="87.0179" transform="matrix(-0.00160036 0.999999 -0.999988 -0.00483255 797.285 5.51011)" fill="black" stroke="#136A93" stroke-width="2"/>
</mask>
<g mask="url(#mask0_448_1187)">
<rect width="192.526" height="735.262" rx="47.5" transform="matrix(-0.00160036 0.999999 -0.999988 -0.00483255 1072.4 68.4429)" fill="url(#paint0_radial_448_1187)" fill-opacity="0.74"/>
<rect width="192.526" height="735.262" rx="47.5" transform="matrix(-0.00160036 0.999999 -0.999988 -0.00483255 531.426 -57.9541)" fill="url(#paint1_radial_448_1187)" fill-opacity="0.74"/>
</g>
<rect x="74.293" y="1.54663" width="722.708" height="175.235" rx="87.6177" fill="#D9D9D9" fill-opacity="0.14" stroke="#136A93" stroke-width="2"/>
<path d="M298.585 54.1174H302.652L309.454 72.8479L316.239 54.1174H320.323L311.078 79.0002H307.813L298.585 54.1174ZM296.534 54.1174H300.516L301.234 71.3269V79.0002H296.534V54.1174ZM318.375 54.1174H322.374V79.0002H317.674V71.3269L318.375 54.1174ZM336.753 75.0696V66.5417C336.753 65.9151 336.645 65.3739 336.428 64.9182C336.212 64.4625 335.881 64.1093 335.437 63.8586C334.993 63.608 334.429 63.4827 333.745 63.4827C333.141 63.4827 332.611 63.5852 332.156 63.7903C331.711 63.9954 331.37 64.2859 331.13 64.6619C330.891 65.0264 330.771 65.448 330.771 65.9265H326.243C326.243 65.1632 326.425 64.4397 326.79 63.7561C327.154 63.0611 327.673 62.4459 328.345 61.9104C329.028 61.3635 329.843 60.9363 330.789 60.6287C331.746 60.321 332.817 60.1672 334.001 60.1672C335.403 60.1672 336.65 60.4065 337.744 60.885C338.849 61.3521 339.715 62.0585 340.342 63.0042C340.98 63.9498 341.299 65.1404 341.299 66.5759V74.6423C341.299 75.5652 341.356 76.357 341.47 77.0178C341.595 77.6672 341.777 78.2312 342.017 78.7097V79.0002H337.419C337.203 78.5331 337.038 77.9407 336.924 77.2229C336.81 76.4937 336.753 75.776 336.753 75.0696ZM337.385 67.738L337.419 70.4211H334.565C333.859 70.4211 333.238 70.4952 332.703 70.6433C332.167 70.78 331.729 70.9851 331.387 71.2585C331.045 71.5206 330.789 71.8396 330.618 72.2156C330.447 72.5802 330.361 72.996 330.361 73.4631C330.361 73.9189 330.464 74.329 330.669 74.6936C330.885 75.0582 331.193 75.3487 331.592 75.5652C332.002 75.7703 332.48 75.8728 333.027 75.8728C333.825 75.8728 334.52 75.7133 335.112 75.3943C335.705 75.0639 336.166 74.6651 336.497 74.198C336.827 73.7309 337.004 73.2865 337.026 72.865L338.325 74.8132C338.166 75.2804 337.926 75.776 337.607 76.3C337.288 76.8241 336.878 77.314 336.377 77.7698C335.876 78.2255 335.272 78.6015 334.565 78.8977C333.859 79.1939 333.039 79.342 332.104 79.342C330.908 79.342 329.837 79.1028 328.892 78.6243C327.946 78.1458 327.2 77.4906 326.653 76.6589C326.106 75.8272 325.833 74.8816 325.833 73.822C325.833 72.8422 326.015 71.9763 326.379 71.2244C326.744 70.4724 327.285 69.8401 328.003 69.3274C328.721 68.8033 329.609 68.4102 330.669 68.1482C331.74 67.8748 332.965 67.738 334.343 67.738H337.385ZM349.628 64.2859V79.0002H345.116V60.509H349.389L349.628 64.2859ZM355.25 60.3894L355.182 64.5935C354.931 64.5479 354.647 64.5138 354.328 64.491C354.02 64.4682 353.729 64.4568 353.456 64.4568C352.761 64.4568 352.152 64.5536 351.627 64.7473C351.103 64.9296 350.665 65.1973 350.312 65.5505C349.97 65.9037 349.708 66.3367 349.525 66.8494C349.343 67.3507 349.241 67.9203 349.218 68.5583L348.244 68.4387C348.244 67.2652 348.363 66.1772 348.603 65.1746C348.842 64.172 349.189 63.2947 349.645 62.5427C350.101 61.7908 350.67 61.2097 351.354 60.7996C352.049 60.378 352.847 60.1672 353.747 60.1672C353.997 60.1672 354.265 60.19 354.55 60.2356C354.846 60.2698 355.08 60.321 355.25 60.3894ZM361.99 52.7332V79.0002H357.479V52.7332H361.99ZM373.577 60.509L365.528 69.5496L361.17 73.9758L359.734 70.4724L363.101 66.2341L368.125 60.509H373.577ZM368.963 79.0002L363.238 70.387L366.246 67.4646L374.192 79.0002H368.963ZM383.684 79.342C382.282 79.342 381.023 79.1142 379.907 78.6584C378.79 78.2027 377.839 77.5704 377.053 76.7615C376.278 75.9412 375.68 74.9898 375.258 73.9075C374.848 72.8137 374.643 71.6402 374.643 70.387V69.7034C374.643 68.2792 374.848 66.9861 375.258 65.824C375.668 64.6505 376.25 63.6422 377.001 62.7991C377.753 61.956 378.653 61.3066 379.702 60.8508C380.75 60.3951 381.906 60.1672 383.171 60.1672C384.481 60.1672 385.638 60.3894 386.64 60.8337C387.643 61.2667 388.48 61.8819 389.152 62.6794C389.825 63.477 390.332 64.434 390.673 65.5505C391.015 66.6557 391.186 67.8805 391.186 69.2249V71.1218H376.694V68.0115H386.743V67.6697C386.72 66.9519 386.583 66.2968 386.333 65.7043C386.082 65.1005 385.694 64.622 385.17 64.2688C384.646 63.9042 383.968 63.7219 383.137 63.7219C382.465 63.7219 381.878 63.87 381.376 64.1663C380.887 64.4511 380.476 64.8612 380.146 65.3967C379.827 65.9208 379.588 66.5474 379.428 67.2766C379.269 68.0058 379.189 68.8147 379.189 69.7034V70.387C379.189 71.1617 379.292 71.8795 379.497 72.5403C379.713 73.2011 380.026 73.7764 380.437 74.2664C380.858 74.7449 381.359 75.1208 381.94 75.3943C382.533 75.6563 383.205 75.7874 383.957 75.7874C384.903 75.7874 385.757 75.6051 386.521 75.2405C387.295 74.8645 387.967 74.3119 388.537 73.5828L390.81 75.9412C390.423 76.5108 389.899 77.0577 389.238 77.5818C388.588 78.1059 387.802 78.5331 386.879 78.8635C385.957 79.1825 384.891 79.342 383.684 79.342ZM402.711 60.509V63.7561H392.115V60.509H402.711ZM394.952 55.9631H399.481V73.6682C399.481 74.2151 399.555 74.6366 399.703 74.9329C399.851 75.2291 400.073 75.4285 400.37 75.531C400.666 75.6335 401.019 75.6848 401.429 75.6848C401.725 75.6848 401.999 75.6677 402.25 75.6335C402.5 75.5994 402.711 75.5652 402.882 75.531L402.899 78.9148C402.523 79.0401 402.096 79.1427 401.617 79.2224C401.15 79.3022 400.62 79.342 400.028 79.342C399.014 79.342 398.125 79.1711 397.362 78.8293C396.598 78.4762 396.006 77.9122 395.584 77.1375C395.163 76.3513 394.952 75.3145 394.952 74.0271V55.9631ZM410.254 60.509V79.0002H405.725V60.509H410.254ZM405.417 55.6726C405.417 55.0004 405.645 54.4421 406.101 53.9978C406.568 53.5535 407.195 53.3313 407.981 53.3313C408.767 53.3313 409.388 53.5535 409.844 53.9978C410.311 54.4421 410.544 55.0004 410.544 55.6726C410.544 56.3334 410.311 56.886 409.844 57.3303C409.388 57.7747 408.767 57.9968 407.981 57.9968C407.195 57.9968 406.568 57.7747 406.101 57.3303C405.645 56.886 405.417 56.3334 405.417 55.6726ZM418.737 64.4568V79.0002H414.225V60.509H418.463L418.737 64.4568ZM418.019 69.0881H416.686C416.697 67.7437 416.88 66.5247 417.233 65.4309C417.586 64.3372 418.082 63.3972 418.72 62.6111C419.369 61.825 420.138 61.2211 421.027 60.7996C421.916 60.378 422.907 60.1672 424 60.1672C424.889 60.1672 425.692 60.2926 426.41 60.5432C427.128 60.7939 427.743 61.1926 428.256 61.7395C428.78 62.2864 429.179 63.0042 429.452 63.8928C429.737 64.7701 429.879 65.8525 429.879 67.1399V79.0002H425.333V67.1057C425.333 66.2626 425.208 65.5961 424.958 65.1062C424.718 64.6163 424.365 64.2688 423.898 64.0637C423.442 63.8586 422.878 63.7561 422.206 63.7561C421.511 63.7561 420.902 63.8985 420.377 64.1833C419.865 64.4568 419.432 64.8385 419.079 65.3284C418.737 65.8183 418.475 66.3822 418.292 67.0203C418.11 67.6583 418.019 68.3476 418.019 69.0881ZM445.369 60.509H449.471V78.4363C449.471 80.1111 449.106 81.5295 448.377 82.6917C447.659 83.8652 446.651 84.7538 445.352 85.3577C444.053 85.9729 442.544 86.2805 440.823 86.2805C440.083 86.2805 439.279 86.178 438.414 85.9729C437.559 85.7678 436.733 85.4431 435.936 84.9988C435.149 84.5658 434.494 84.0019 433.97 83.3069L436.004 80.6409C436.619 81.3586 437.314 81.8998 438.089 82.2644C438.864 82.6404 439.701 82.8284 440.601 82.8284C441.513 82.8284 442.287 82.6575 442.925 82.3157C443.575 81.9853 444.07 81.4954 444.412 80.8459C444.765 80.2079 444.942 79.4218 444.942 78.4875V64.7302L445.369 60.509ZM432.876 69.9768V69.6179C432.876 68.2052 433.047 66.9234 433.389 65.7727C433.731 64.6106 434.221 63.6137 434.859 62.782C435.508 61.9503 436.289 61.3066 437.2 60.8508C438.123 60.3951 439.16 60.1672 440.311 60.1672C441.53 60.1672 442.555 60.3894 443.387 60.8337C444.23 61.2781 444.925 61.9104 445.472 62.7307C446.03 63.551 446.463 64.5251 446.771 65.6531C447.09 66.7696 447.334 68.0001 447.505 69.3445V70.3186C447.346 71.6288 447.09 72.8308 446.736 73.9246C446.395 75.0183 445.939 75.9753 445.369 76.7957C444.799 77.6046 444.093 78.2312 443.25 78.6755C442.407 79.1199 441.416 79.342 440.276 79.342C439.137 79.342 438.112 79.1085 437.2 78.6414C436.289 78.1742 435.508 77.5191 434.859 76.676C434.221 75.8329 433.731 74.8417 433.389 73.7024C433.047 72.5631 432.876 71.3212 432.876 69.9768ZM437.388 69.6179V69.9768C437.388 70.7743 437.468 71.5206 437.627 72.2156C437.787 72.9106 438.032 73.5258 438.362 74.0613C438.693 74.5854 439.109 74.9955 439.61 75.2917C440.111 75.588 440.709 75.7361 441.404 75.7361C442.339 75.7361 443.102 75.5424 443.694 75.155C444.298 74.7563 444.754 74.2151 445.062 73.5315C445.381 72.8365 445.586 72.0561 445.677 71.1902V68.5071C445.62 67.8235 445.494 67.1912 445.301 66.6101C445.118 66.0291 444.862 65.5278 444.532 65.1062C444.201 64.6847 443.78 64.3542 443.267 64.115C442.754 63.8757 442.145 63.7561 441.438 63.7561C440.755 63.7561 440.157 63.9099 439.644 64.2175C439.131 64.5138 438.71 64.9296 438.379 65.4651C438.049 66.0006 437.798 66.6215 437.627 67.3279C437.468 68.0343 437.388 68.7976 437.388 69.6179ZM471.922 54.1174V79.0002H467.24V54.1174H471.922ZM479.647 54.1174V57.8259H459.601V54.1174H479.647ZM488.882 79.342C487.48 79.342 486.222 79.1142 485.105 78.6584C483.988 78.2027 483.037 77.5704 482.251 76.7615C481.476 75.9412 480.878 74.9898 480.457 73.9075C480.046 72.8137 479.841 71.6402 479.841 70.387V69.7034C479.841 68.2792 480.046 66.9861 480.457 65.824C480.867 64.6505 481.448 63.6422 482.2 62.7991C482.952 61.956 483.852 61.3066 484.9 60.8508C485.948 60.3951 487.104 60.1672 488.369 60.1672C489.679 60.1672 490.836 60.3894 491.838 60.8337C492.841 61.2667 493.678 61.8819 494.351 62.6794C495.023 63.477 495.53 64.434 495.872 65.5505C496.213 66.6557 496.384 67.8805 496.384 69.2249V71.1218H481.892V68.0115H491.941V67.6697C491.918 66.9519 491.781 66.2968 491.531 65.7043C491.28 65.1005 490.893 64.622 490.369 64.2688C489.845 63.9042 489.167 63.7219 488.335 63.7219C487.663 63.7219 487.076 63.87 486.575 64.1663C486.085 64.4511 485.675 64.8612 485.344 65.3967C485.025 65.9208 484.786 66.5474 484.626 67.2766C484.467 68.0058 484.387 68.8147 484.387 69.7034V70.387C484.387 71.1617 484.49 71.8795 484.695 72.5403C484.911 73.2011 485.225 73.7764 485.635 74.2664C486.056 74.7449 486.558 75.1208 487.139 75.3943C487.731 75.6563 488.403 75.7874 489.155 75.7874C490.101 75.7874 490.955 75.6051 491.719 75.2405C492.493 74.8645 493.166 74.3119 493.735 73.5828L496.008 75.9412C495.621 76.5108 495.097 77.0577 494.436 77.5818C493.787 78.1059 493 78.5331 492.078 78.8635C491.155 79.1825 490.09 79.342 488.882 79.342ZM509.345 75.0696V66.5417C509.345 65.9151 509.236 65.3739 509.02 64.9182C508.804 64.4625 508.473 64.1093 508.029 63.8586C507.584 63.608 507.021 63.4827 506.337 63.4827C505.733 63.4827 505.203 63.5852 504.748 63.7903C504.303 63.9954 503.961 64.2859 503.722 64.6619C503.483 65.0264 503.363 65.448 503.363 65.9265H498.834C498.834 65.1632 499.017 64.4397 499.381 63.7561C499.746 63.0611 500.264 62.4459 500.937 61.9104C501.62 61.3635 502.435 60.9363 503.38 60.6287C504.337 60.321 505.408 60.1672 506.593 60.1672C507.995 60.1672 509.242 60.4065 510.336 60.885C511.441 61.3521 512.307 62.0585 512.934 63.0042C513.572 63.9498 513.891 65.1404 513.891 66.5759V74.6423C513.891 75.5652 513.948 76.357 514.062 77.0178C514.187 77.6672 514.369 78.2312 514.608 78.7097V79.0002H510.011C509.795 78.5331 509.63 77.9407 509.516 77.2229C509.402 76.4937 509.345 75.776 509.345 75.0696ZM509.977 67.738L510.011 70.4211H507.157C506.451 70.4211 505.83 70.4952 505.294 70.6433C504.759 70.78 504.32 70.9851 503.979 71.2585C503.637 71.5206 503.38 71.8396 503.209 72.2156C503.039 72.5802 502.953 72.996 502.953 73.4631C502.953 73.9189 503.056 74.329 503.261 74.6936C503.477 75.0582 503.785 75.3487 504.184 75.5652C504.594 75.7703 505.072 75.8728 505.619 75.8728C506.417 75.8728 507.112 75.7133 507.704 75.3943C508.297 75.0639 508.758 74.6651 509.088 74.198C509.419 73.7309 509.595 73.2865 509.618 72.865L510.917 74.8132C510.757 75.2804 510.518 75.776 510.199 76.3C509.88 76.8241 509.47 77.314 508.969 77.7698C508.467 78.2255 507.864 78.6015 507.157 78.8977C506.451 79.1939 505.631 79.342 504.696 79.342C503.5 79.342 502.429 79.1028 501.483 78.6243C500.538 78.1458 499.792 77.4906 499.245 76.6589C498.698 75.8272 498.424 74.8816 498.424 73.822C498.424 72.8422 498.607 71.9763 498.971 71.2244C499.336 70.4724 499.877 69.8401 500.595 69.3274C501.312 68.8033 502.201 68.4102 503.261 68.1482C504.332 67.8748 505.556 67.738 506.935 67.738H509.977ZM522.203 64.303V79.0002H517.691V60.509H521.946L522.203 64.303ZM521.536 69.0881H520.152C520.152 67.8007 520.306 66.6158 520.613 65.5334C520.932 64.4511 521.399 63.5111 522.015 62.7136C522.63 61.9047 523.388 61.2781 524.288 60.8337C525.199 60.3894 526.253 60.1672 527.449 60.1672C528.281 60.1672 529.044 60.2926 529.739 60.5432C530.434 60.7825 531.032 61.1641 531.534 61.6882C532.046 62.2009 532.439 62.8731 532.713 63.7048C532.986 64.5251 533.123 65.5107 533.123 66.6614V79.0002H528.611V67.1228C528.611 66.2569 528.486 65.579 528.235 65.0891C527.996 64.5992 527.649 64.2574 527.193 64.0637C526.737 63.8586 526.19 63.7561 525.552 63.7561C524.846 63.7561 524.236 63.8985 523.724 64.1833C523.222 64.4568 522.806 64.8385 522.476 65.3284C522.157 65.8183 521.918 66.3822 521.758 67.0203C521.61 67.6583 521.536 68.3476 521.536 69.0881ZM532.781 68.2507L530.918 68.5925C530.93 67.4304 531.089 66.3424 531.397 65.3284C531.705 64.303 532.155 63.4086 532.747 62.6453C533.351 61.8705 534.097 61.2667 534.986 60.8337C535.886 60.3894 536.923 60.1672 538.096 60.1672C539.008 60.1672 539.828 60.2983 540.557 60.5603C541.298 60.811 541.93 61.2154 542.454 61.7737C542.978 62.3206 543.377 63.0326 543.65 63.9099C543.935 64.7872 544.078 65.8582 544.078 67.1228V79.0002H539.532V67.1057C539.532 66.2056 539.406 65.5164 539.156 65.0378C538.917 64.5593 538.569 64.2289 538.113 64.0466C537.658 63.8529 537.122 63.7561 536.507 63.7561C535.88 63.7561 535.333 63.8757 534.866 64.115C534.41 64.3429 534.023 64.6619 533.704 65.072C533.396 65.4822 533.163 65.9607 533.003 66.5076C532.855 67.0431 532.781 67.6241 532.781 68.2507ZM558.046 73.9417C558.046 73.5543 557.944 73.2068 557.739 72.8992C557.534 72.5916 557.146 72.3124 556.577 72.0618C556.018 71.7997 555.198 71.5548 554.116 71.3269C553.159 71.1218 552.276 70.8655 551.467 70.5579C550.658 70.2502 549.963 69.88 549.382 69.447C548.801 69.0027 548.345 68.4843 548.015 67.8918C547.696 67.288 547.536 66.593 547.536 65.8069C547.536 65.0435 547.701 64.3258 548.032 63.6536C548.362 62.97 548.841 62.3718 549.467 61.8591C550.094 61.335 550.857 60.9249 551.757 60.6287C552.657 60.321 553.671 60.1672 554.799 60.1672C556.372 60.1672 557.722 60.4236 558.85 60.9363C559.989 61.449 560.861 62.1554 561.464 63.0554C562.068 63.9441 562.37 64.9467 562.37 66.0632H557.858C557.858 65.5733 557.744 65.129 557.517 64.7302C557.3 64.3315 556.964 64.0125 556.508 63.7732C556.053 63.5225 555.477 63.3972 554.782 63.3972C554.156 63.3972 553.626 63.4998 553.193 63.7048C552.771 63.9099 552.452 64.1777 552.236 64.5081C552.019 64.8385 551.911 65.203 551.911 65.6018C551.911 65.898 551.968 66.1658 552.082 66.405C552.207 66.6329 552.407 66.8437 552.68 67.0374C552.954 67.231 553.324 67.4076 553.791 67.5671C554.27 67.7266 554.856 67.8805 555.551 68.0286C556.93 68.302 558.132 68.6666 559.157 69.1223C560.194 69.5667 561.003 70.1591 561.584 70.8997C562.165 71.6402 562.456 72.5859 562.456 73.7366C562.456 74.5569 562.279 75.3088 561.926 75.9924C561.573 76.6646 561.06 77.2514 560.388 77.7527C559.715 78.254 558.912 78.6471 557.978 78.9319C557.044 79.2053 555.99 79.342 554.816 79.342C553.119 79.342 551.683 79.0401 550.51 78.4363C549.336 77.821 548.448 77.0463 547.844 76.1121C547.24 75.1664 546.938 74.1866 546.938 73.1726H551.262C551.296 73.8904 551.49 74.4657 551.843 74.8987C552.196 75.3316 552.64 75.6449 553.176 75.8386C553.723 76.0209 554.298 76.1121 554.902 76.1121C555.585 76.1121 556.161 76.0209 556.628 75.8386C557.095 75.6449 557.448 75.3886 557.688 75.0696C557.927 74.7392 558.046 74.3632 558.046 73.9417Z" fill="#EDD5B1"/>
<path d="M262.676 102.854L258.185 115H257.253L262.069 102.203H262.755L262.676 102.854ZM266.851 115L262.359 102.854L262.28 102.203H262.957L267.782 115H266.851ZM265.884 110.553V111.335H259.213V110.553H265.884ZM270.894 102.203V115H270.006V102.203H270.894ZM282.029 114.411C282.486 114.411 282.917 114.326 283.321 114.156C283.731 113.981 284.071 113.72 284.341 113.374C284.616 113.029 284.771 112.595 284.807 112.073H285.642C285.612 112.689 285.431 113.231 285.097 113.699C284.763 114.168 284.326 114.531 283.787 114.789C283.254 115.047 282.668 115.176 282.029 115.176C281.379 115.176 280.805 115.059 280.307 114.824C279.809 114.584 279.39 114.25 279.05 113.823C278.716 113.395 278.461 112.894 278.285 112.32C278.115 111.74 278.03 111.11 278.03 110.43V110.061C278.03 109.381 278.115 108.754 278.285 108.18C278.461 107.6 278.716 107.096 279.05 106.668C279.39 106.24 279.806 105.909 280.298 105.675C280.796 105.435 281.37 105.315 282.021 105.315C282.677 105.315 283.271 105.449 283.805 105.719C284.344 105.983 284.777 106.366 285.105 106.87C285.434 107.368 285.612 107.969 285.642 108.672H284.807C284.777 108.121 284.634 107.656 284.376 107.275C284.118 106.888 283.784 106.592 283.374 106.387C282.964 106.182 282.513 106.079 282.021 106.079C281.464 106.079 280.986 106.188 280.588 106.405C280.195 106.615 279.873 106.908 279.621 107.283C279.375 107.653 279.19 108.074 279.067 108.549C278.95 109.024 278.892 109.528 278.892 110.061V110.43C278.892 110.963 278.95 111.47 279.067 111.95C279.185 112.425 279.369 112.847 279.621 113.216C279.873 113.585 280.198 113.878 280.597 114.095C280.995 114.306 281.473 114.411 282.029 114.411ZM287.215 110.404V110.087C287.215 109.396 287.314 108.76 287.514 108.18C287.713 107.594 287.997 107.087 288.366 106.659C288.735 106.232 289.178 105.901 289.693 105.666C290.215 105.432 290.792 105.315 291.425 105.315C292.063 105.315 292.641 105.432 293.156 105.666C293.678 105.901 294.123 106.232 294.492 106.659C294.867 107.087 295.154 107.594 295.354 108.18C295.553 108.76 295.652 109.396 295.652 110.087V110.404C295.652 111.095 295.553 111.734 295.354 112.32C295.154 112.9 294.867 113.404 294.492 113.831C294.123 114.259 293.681 114.59 293.165 114.824C292.649 115.059 292.075 115.176 291.442 115.176C290.804 115.176 290.224 115.059 289.702 114.824C289.187 114.59 288.741 114.259 288.366 113.831C287.997 113.404 287.713 112.9 287.514 112.32C287.314 111.734 287.215 111.095 287.215 110.404ZM288.076 110.087V110.404C288.076 110.937 288.149 111.447 288.296 111.933C288.448 112.413 288.665 112.841 288.946 113.216C289.233 113.585 289.585 113.878 290.001 114.095C290.423 114.306 290.903 114.411 291.442 114.411C291.976 114.411 292.447 114.306 292.857 114.095C293.273 113.878 293.622 113.585 293.903 113.216C294.19 112.841 294.407 112.413 294.554 111.933C294.706 111.447 294.782 110.937 294.782 110.404V110.087C294.782 109.566 294.706 109.065 294.554 108.584C294.407 108.104 294.19 107.676 293.903 107.301C293.616 106.926 293.265 106.63 292.849 106.413C292.433 106.191 291.958 106.079 291.425 106.079C290.892 106.079 290.417 106.191 290.001 106.413C289.585 106.63 289.233 106.926 288.946 107.301C288.659 107.676 288.442 108.104 288.296 108.584C288.149 109.065 288.076 109.566 288.076 110.087ZM298.737 107.521V115H297.867V105.49H298.711L298.737 107.521ZM298.553 109.586L298.157 109.243C298.198 108.716 298.315 108.215 298.509 107.74C298.702 107.266 298.963 106.847 299.291 106.484C299.619 106.12 300.006 105.836 300.451 105.631C300.896 105.42 301.386 105.315 301.919 105.315C302.394 105.315 302.818 105.379 303.193 105.508C303.568 105.637 303.885 105.842 304.143 106.123C304.406 106.405 304.605 106.768 304.74 107.213C304.881 107.653 304.951 108.189 304.951 108.822V115H304.081V108.813C304.081 108.11 303.981 107.562 303.782 107.169C303.589 106.777 303.316 106.498 302.965 106.334C302.619 106.17 302.209 106.088 301.734 106.088C301.201 106.088 300.738 106.205 300.346 106.44C299.953 106.674 299.625 106.973 299.361 107.336C299.104 107.699 298.907 108.083 298.772 108.488C298.638 108.886 298.564 109.252 298.553 109.586ZM311.235 105.49V106.238H306.577V105.49H311.235ZM308.326 103.012H309.205V112.698C309.205 113.172 309.264 113.532 309.381 113.779C309.504 114.019 309.665 114.18 309.864 114.262C310.063 114.344 310.277 114.385 310.506 114.385C310.67 114.385 310.822 114.376 310.963 114.359C311.109 114.341 311.25 114.321 311.385 114.297L311.438 115.044C311.309 115.085 311.142 115.117 310.937 115.141C310.731 115.164 310.538 115.176 310.356 115.176C309.952 115.176 309.598 115.103 309.293 114.956C308.988 114.804 308.751 114.549 308.581 114.192C308.411 113.828 308.326 113.33 308.326 112.698V103.012ZM317.115 115.176C316.506 115.176 315.943 115.062 315.428 114.833C314.912 114.605 314.464 114.282 314.083 113.866C313.702 113.445 313.406 112.949 313.195 112.381C312.984 111.807 312.879 111.177 312.879 110.491V110.114C312.879 109.387 312.984 108.731 313.195 108.145C313.412 107.559 313.708 107.055 314.083 106.633C314.464 106.205 314.897 105.88 315.384 105.657C315.87 105.429 316.386 105.315 316.931 105.315C317.505 105.315 318.021 105.42 318.478 105.631C318.94 105.836 319.333 106.129 319.655 106.51C319.978 106.891 320.221 107.342 320.385 107.864C320.555 108.379 320.64 108.95 320.64 109.577V110.193H313.415V109.428H319.77V109.314C319.764 108.745 319.649 108.218 319.427 107.732C319.21 107.24 318.891 106.841 318.469 106.536C318.053 106.232 317.54 106.079 316.931 106.079C316.456 106.079 316.022 106.182 315.63 106.387C315.243 106.586 314.909 106.867 314.628 107.231C314.347 107.588 314.13 108.013 313.978 108.505C313.825 108.991 313.749 109.528 313.749 110.114V110.491C313.749 111.036 313.831 111.546 313.995 112.021C314.165 112.495 314.399 112.911 314.698 113.269C315.003 113.626 315.363 113.907 315.779 114.113C316.195 114.318 316.649 114.42 317.142 114.42C317.698 114.42 318.199 114.321 318.645 114.121C319.09 113.916 319.494 113.579 319.857 113.111L320.411 113.532C320.206 113.837 319.951 114.115 319.646 114.367C319.342 114.614 318.981 114.81 318.565 114.956C318.149 115.103 317.666 115.176 317.115 115.176ZM323.61 107.521V115H322.74V105.49H323.584L323.61 107.521ZM323.426 109.586L323.03 109.243C323.071 108.716 323.188 108.215 323.382 107.74C323.575 107.266 323.836 106.847 324.164 106.484C324.492 106.12 324.879 105.836 325.324 105.631C325.77 105.42 326.259 105.315 326.792 105.315C327.267 105.315 327.691 105.379 328.066 105.508C328.441 105.637 328.758 105.842 329.016 106.123C329.279 106.405 329.479 106.768 329.613 107.213C329.754 107.653 329.824 108.189 329.824 108.822V115H328.954V108.813C328.954 108.11 328.854 107.562 328.655 107.169C328.462 106.777 328.189 106.498 327.838 106.334C327.492 106.17 327.082 106.088 326.607 106.088C326.074 106.088 325.611 106.205 325.219 106.44C324.826 106.674 324.498 106.973 324.234 107.336C323.977 107.699 323.78 108.083 323.646 108.488C323.511 108.886 323.438 109.252 323.426 109.586ZM336.108 105.49V106.238H331.45V105.49H336.108ZM333.199 103.012H334.078V112.698C334.078 113.172 334.137 113.532 334.254 113.779C334.377 114.019 334.538 114.18 334.737 114.262C334.937 114.344 335.15 114.385 335.379 114.385C335.543 114.385 335.695 114.376 335.836 114.359C335.982 114.341 336.123 114.321 336.258 114.297L336.311 115.044C336.182 115.085 336.015 115.117 335.81 115.141C335.604 115.164 335.411 115.176 335.229 115.176C334.825 115.176 334.471 115.103 334.166 114.956C333.861 114.804 333.624 114.549 333.454 114.192C333.284 113.828 333.199 113.33 333.199 112.698V103.012ZM348.589 113.269V108.365C348.589 107.89 348.489 107.483 348.29 107.143C348.091 106.797 347.798 106.533 347.411 106.352C347.03 106.164 346.559 106.071 345.996 106.071C345.48 106.071 345.018 106.161 344.607 106.343C344.203 106.525 343.881 106.771 343.641 107.081C343.406 107.392 343.289 107.738 343.289 108.118L342.428 108.101C342.428 107.743 342.513 107.398 342.683 107.064C342.858 106.73 343.104 106.431 343.421 106.167C343.743 105.904 344.124 105.696 344.563 105.543C345.009 105.391 345.498 105.315 346.031 105.315C346.705 105.315 347.297 105.429 347.807 105.657C348.322 105.88 348.727 106.22 349.02 106.677C349.312 107.128 349.459 107.697 349.459 108.382V113.031C349.459 113.36 349.482 113.699 349.529 114.051C349.576 114.403 349.646 114.687 349.74 114.904V115H348.8C348.729 114.783 348.677 114.517 348.642 114.2C348.606 113.878 348.589 113.568 348.589 113.269ZM348.826 109.533L348.844 110.245H346.655C346.087 110.245 345.58 110.298 345.135 110.404C344.695 110.503 344.32 110.65 344.01 110.843C343.705 111.036 343.471 111.271 343.307 111.546C343.143 111.816 343.061 112.12 343.061 112.46C343.061 112.812 343.151 113.134 343.333 113.427C343.515 113.72 343.772 113.954 344.106 114.13C344.446 114.3 344.842 114.385 345.293 114.385C345.902 114.385 346.441 114.277 346.91 114.06C347.385 113.843 347.777 113.553 348.088 113.19C348.398 112.821 348.618 112.407 348.747 111.95L349.125 112.504C349.037 112.803 348.891 113.111 348.686 113.427C348.48 113.738 348.214 114.025 347.886 114.288C347.558 114.552 347.171 114.766 346.726 114.93C346.286 115.094 345.782 115.176 345.214 115.176C344.604 115.176 344.071 115.062 343.614 114.833C343.163 114.599 342.812 114.282 342.56 113.884C342.313 113.48 342.19 113.023 342.19 112.513C342.19 112.062 342.29 111.655 342.489 111.291C342.688 110.922 342.976 110.609 343.351 110.351C343.726 110.087 344.183 109.885 344.722 109.744C345.261 109.604 345.867 109.533 346.541 109.533H348.826ZM358.099 112.601C358.099 112.337 358.028 112.073 357.888 111.81C357.747 111.54 357.486 111.294 357.105 111.072C356.725 110.843 356.168 110.653 355.436 110.5C354.908 110.383 354.439 110.254 354.029 110.114C353.619 109.967 353.273 109.791 352.992 109.586C352.717 109.381 352.506 109.138 352.359 108.857C352.219 108.57 352.148 108.233 352.148 107.846C352.148 107.494 352.225 107.166 352.377 106.862C352.529 106.557 352.749 106.29 353.036 106.062C353.323 105.827 353.669 105.646 354.073 105.517C354.483 105.382 354.943 105.315 355.453 105.315C356.18 105.315 356.801 105.438 357.316 105.684C357.832 105.924 358.228 106.255 358.503 106.677C358.784 107.099 358.925 107.579 358.925 108.118H358.055C358.055 107.767 357.952 107.439 357.747 107.134C357.548 106.823 357.255 106.572 356.868 106.378C356.481 106.179 356.01 106.079 355.453 106.079C354.873 106.079 354.404 106.167 354.047 106.343C353.689 106.519 353.429 106.739 353.265 107.002C353.101 107.266 353.019 107.538 353.019 107.82C353.019 108.042 353.051 108.244 353.115 108.426C353.186 108.608 353.314 108.778 353.502 108.936C353.689 109.094 353.956 109.243 354.302 109.384C354.653 109.519 355.107 109.651 355.664 109.78C356.432 109.949 357.056 110.157 357.536 110.404C358.022 110.644 358.38 110.94 358.608 111.291C358.843 111.643 358.96 112.068 358.96 112.566C358.96 112.952 358.878 113.307 358.714 113.629C358.556 113.946 358.324 114.221 358.02 114.455C357.721 114.684 357.357 114.863 356.93 114.991C356.508 115.115 356.036 115.176 355.515 115.176C354.718 115.176 354.047 115.047 353.502 114.789C352.957 114.531 352.544 114.192 352.263 113.77C351.981 113.348 351.841 112.894 351.841 112.407H352.711C352.746 112.917 352.907 113.319 353.194 113.612C353.487 113.905 353.842 114.113 354.258 114.236C354.68 114.353 355.099 114.411 355.515 114.411C356.077 114.411 356.549 114.326 356.93 114.156C357.316 113.981 357.606 113.755 357.8 113.48C357.999 113.204 358.099 112.911 358.099 112.601ZM367.169 112.601C367.169 112.337 367.099 112.073 366.958 111.81C366.817 111.54 366.557 111.294 366.176 111.072C365.795 110.843 365.238 110.653 364.506 110.5C363.979 110.383 363.51 110.254 363.1 110.114C362.689 109.967 362.344 109.791 362.062 109.586C361.787 109.381 361.576 109.138 361.43 108.857C361.289 108.57 361.219 108.233 361.219 107.846C361.219 107.494 361.295 107.166 361.447 106.862C361.6 106.557 361.819 106.29 362.106 106.062C362.394 105.827 362.739 105.646 363.144 105.517C363.554 105.382 364.014 105.315 364.523 105.315C365.25 105.315 365.871 105.438 366.387 105.684C366.902 105.924 367.298 106.255 367.573 106.677C367.854 107.099 367.995 107.579 367.995 108.118H367.125C367.125 107.767 367.022 107.439 366.817 107.134C366.618 106.823 366.325 106.572 365.938 106.378C365.552 106.179 365.08 106.079 364.523 106.079C363.943 106.079 363.475 106.167 363.117 106.343C362.76 106.519 362.499 106.739 362.335 107.002C362.171 107.266 362.089 107.538 362.089 107.82C362.089 108.042 362.121 108.244 362.186 108.426C362.256 108.608 362.385 108.778 362.572 108.936C362.76 109.094 363.026 109.243 363.372 109.384C363.724 109.519 364.178 109.651 364.734 109.78C365.502 109.949 366.126 110.157 366.606 110.404C367.093 110.644 367.45 110.94 367.679 111.291C367.913 111.643 368.03 112.068 368.03 112.566C368.03 112.952 367.948 113.307 367.784 113.629C367.626 113.946 367.395 114.221 367.09 114.455C366.791 114.684 366.428 114.863 366 114.991C365.578 115.115 365.106 115.176 364.585 115.176C363.788 115.176 363.117 115.047 362.572 114.789C362.027 114.531 361.614 114.192 361.333 113.77C361.052 113.348 360.911 112.894 360.911 112.407H361.781C361.816 112.917 361.978 113.319 362.265 113.612C362.558 113.905 362.912 114.113 363.328 114.236C363.75 114.353 364.169 114.411 364.585 114.411C365.147 114.411 365.619 114.326 366 114.156C366.387 113.981 366.677 113.755 366.87 113.48C367.069 113.204 367.169 112.911 367.169 112.601ZM371.476 105.49V115H370.605V105.49H371.476ZM370.403 102.669C370.403 102.493 370.462 102.344 370.579 102.221C370.696 102.092 370.852 102.028 371.045 102.028C371.244 102.028 371.402 102.092 371.52 102.221C371.643 102.344 371.704 102.493 371.704 102.669C371.704 102.845 371.643 102.994 371.52 103.117C371.402 103.24 371.244 103.302 371.045 103.302C370.852 103.302 370.696 103.24 370.579 103.117C370.462 102.994 370.403 102.845 370.403 102.669ZM380.177 112.601C380.177 112.337 380.106 112.073 379.966 111.81C379.825 111.54 379.564 111.294 379.184 111.072C378.803 110.843 378.246 110.653 377.514 110.5C376.986 110.383 376.518 110.254 376.107 110.114C375.697 109.967 375.352 109.791 375.07 109.586C374.795 109.381 374.584 109.138 374.438 108.857C374.297 108.57 374.227 108.233 374.227 107.846C374.227 107.494 374.303 107.166 374.455 106.862C374.607 106.557 374.827 106.29 375.114 106.062C375.401 105.827 375.747 105.646 376.151 105.517C376.562 105.382 377.021 105.315 377.531 105.315C378.258 105.315 378.879 105.438 379.395 105.684C379.91 105.924 380.306 106.255 380.581 106.677C380.862 107.099 381.003 107.579 381.003 108.118H380.133C380.133 107.767 380.03 107.439 379.825 107.134C379.626 106.823 379.333 106.572 378.946 106.378C378.56 106.179 378.088 106.079 377.531 106.079C376.951 106.079 376.482 106.167 376.125 106.343C375.768 106.519 375.507 106.739 375.343 107.002C375.179 107.266 375.097 107.538 375.097 107.82C375.097 108.042 375.129 108.244 375.193 108.426C375.264 108.608 375.393 108.778 375.58 108.936C375.768 109.094 376.034 109.243 376.38 109.384C376.731 109.519 377.186 109.651 377.742 109.78C378.51 109.949 379.134 110.157 379.614 110.404C380.101 110.644 380.458 110.94 380.687 111.291C380.921 111.643 381.038 112.068 381.038 112.566C381.038 112.952 380.956 113.307 380.792 113.629C380.634 113.946 380.402 114.221 380.098 114.455C379.799 114.684 379.436 114.863 379.008 114.991C378.586 115.115 378.114 115.176 377.593 115.176C376.796 115.176 376.125 115.047 375.58 114.789C375.035 114.531 374.622 114.192 374.341 113.77C374.06 113.348 373.919 112.894 373.919 112.407H374.789C374.824 112.917 374.985 113.319 375.272 113.612C375.565 113.905 375.92 114.113 376.336 114.236C376.758 114.353 377.177 114.411 377.593 114.411C378.155 114.411 378.627 114.326 379.008 114.156C379.395 113.981 379.685 113.755 379.878 113.48C380.077 113.204 380.177 112.911 380.177 112.601ZM386.979 105.49V106.238H382.321V105.49H386.979ZM384.07 103.012H384.949V112.698C384.949 113.172 385.008 113.532 385.125 113.779C385.248 114.019 385.409 114.18 385.608 114.262C385.808 114.344 386.021 114.385 386.25 114.385C386.414 114.385 386.566 114.376 386.707 114.359C386.854 114.341 386.994 114.321 387.129 114.297L387.182 115.044C387.053 115.085 386.886 115.117 386.681 115.141C386.476 115.164 386.282 115.176 386.101 115.176C385.696 115.176 385.342 115.103 385.037 114.956C384.732 114.804 384.495 114.549 384.325 114.192C384.155 113.828 384.07 113.33 384.07 112.698V103.012ZM395.101 113.269V108.365C395.101 107.89 395.001 107.483 394.802 107.143C394.603 106.797 394.31 106.533 393.923 106.352C393.542 106.164 393.07 106.071 392.508 106.071C391.992 106.071 391.529 106.161 391.119 106.343C390.715 106.525 390.393 106.771 390.152 107.081C389.918 107.392 389.801 107.738 389.801 108.118L388.939 108.101C388.939 107.743 389.024 107.398 389.194 107.064C389.37 106.73 389.616 106.431 389.933 106.167C390.255 105.904 390.636 105.696 391.075 105.543C391.521 105.391 392.01 105.315 392.543 105.315C393.217 105.315 393.809 105.429 394.318 105.657C394.834 105.88 395.238 106.22 395.531 106.677C395.824 107.128 395.971 107.697 395.971 108.382V113.031C395.971 113.36 395.994 113.699 396.041 114.051C396.088 114.403 396.158 114.687 396.252 114.904V115H395.312C395.241 114.783 395.188 114.517 395.153 114.2C395.118 113.878 395.101 113.568 395.101 113.269ZM395.338 109.533L395.355 110.245H393.167C392.599 110.245 392.092 110.298 391.646 110.404C391.207 110.503 390.832 110.65 390.521 110.843C390.217 111.036 389.982 111.271 389.818 111.546C389.654 111.816 389.572 112.12 389.572 112.46C389.572 112.812 389.663 113.134 389.845 113.427C390.026 113.72 390.284 113.954 390.618 114.13C390.958 114.3 391.354 114.385 391.805 114.385C392.414 114.385 392.953 114.277 393.422 114.06C393.896 113.843 394.289 113.553 394.6 113.19C394.91 112.821 395.13 112.407 395.259 111.95L395.637 112.504C395.549 112.803 395.402 113.111 395.197 113.427C394.992 113.738 394.726 114.025 394.397 114.288C394.069 114.552 393.683 114.766 393.237 114.93C392.798 115.094 392.294 115.176 391.726 115.176C391.116 115.176 390.583 115.062 390.126 114.833C389.675 114.599 389.323 114.282 389.071 113.884C388.825 113.48 388.702 113.023 388.702 112.513C388.702 112.062 388.802 111.655 389.001 111.291C389.2 110.922 389.487 110.609 389.862 110.351C390.237 110.087 390.694 109.885 391.233 109.744C391.772 109.604 392.379 109.533 393.053 109.533H395.338ZM399.724 107.521V115H398.854V105.49H399.697L399.724 107.521ZM399.539 109.586L399.144 109.243C399.185 108.716 399.302 108.215 399.495 107.74C399.688 107.266 399.949 106.847 400.277 106.484C400.605 106.12 400.992 105.836 401.438 105.631C401.883 105.42 402.372 105.315 402.905 105.315C403.38 105.315 403.805 105.379 404.18 105.508C404.555 105.637 404.871 105.842 405.129 106.123C405.393 106.405 405.592 106.768 405.727 107.213C405.867 107.653 405.938 108.189 405.938 108.822V115H405.067V108.813C405.067 108.11 404.968 107.562 404.769 107.169C404.575 106.777 404.303 106.498 403.951 106.334C403.605 106.17 403.195 106.088 402.721 106.088C402.188 106.088 401.725 106.205 401.332 106.44C400.939 106.674 400.611 106.973 400.348 107.336C400.09 107.699 399.894 108.083 399.759 108.488C399.624 108.886 399.551 109.252 399.539 109.586ZM412.222 105.49V106.238H407.563V105.49H412.222ZM409.312 103.012H410.191V112.698C410.191 113.172 410.25 113.532 410.367 113.779C410.49 114.019 410.651 114.18 410.851 114.262C411.05 114.344 411.264 114.385 411.492 114.385C411.656 114.385 411.809 114.376 411.949 114.359C412.096 114.341 412.236 114.321 412.371 114.297L412.424 115.044C412.295 115.085 412.128 115.117 411.923 115.141C411.718 115.164 411.524 115.176 411.343 115.176C410.938 115.176 410.584 115.103 410.279 114.956C409.975 114.804 409.737 114.549 409.567 114.192C409.397 113.828 409.312 113.33 409.312 112.698V103.012ZM420.255 112.601C420.255 112.337 420.185 112.073 420.044 111.81C419.903 111.54 419.643 111.294 419.262 111.072C418.881 110.843 418.324 110.653 417.592 110.5C417.064 110.383 416.596 110.254 416.186 110.114C415.775 109.967 415.43 109.791 415.148 109.586C414.873 109.381 414.662 109.138 414.516 108.857C414.375 108.57 414.305 108.233 414.305 107.846C414.305 107.494 414.381 107.166 414.533 106.862C414.686 106.557 414.905 106.29 415.192 106.062C415.479 105.827 415.825 105.646 416.229 105.517C416.64 105.382 417.1 105.315 417.609 105.315C418.336 105.315 418.957 105.438 419.473 105.684C419.988 105.924 420.384 106.255 420.659 106.677C420.94 107.099 421.081 107.579 421.081 108.118H420.211C420.211 107.767 420.108 107.439 419.903 107.134C419.704 106.823 419.411 106.572 419.024 106.378C418.638 106.179 418.166 106.079 417.609 106.079C417.029 106.079 416.561 106.167 416.203 106.343C415.846 106.519 415.585 106.739 415.421 107.002C415.257 107.266 415.175 107.538 415.175 107.82C415.175 108.042 415.207 108.244 415.271 108.426C415.342 108.608 415.471 108.778 415.658 108.936C415.846 109.094 416.112 109.243 416.458 109.384C416.81 109.519 417.264 109.651 417.82 109.78C418.588 109.949 419.212 110.157 419.692 110.404C420.179 110.644 420.536 110.94 420.765 111.291C420.999 111.643 421.116 112.068 421.116 112.566C421.116 112.952 421.034 113.307 420.87 113.629C420.712 113.946 420.48 114.221 420.176 114.455C419.877 114.684 419.514 114.863 419.086 114.991C418.664 115.115 418.192 115.176 417.671 115.176C416.874 115.176 416.203 115.047 415.658 114.789C415.113 114.531 414.7 114.192 414.419 113.77C414.138 113.348 413.997 112.894 413.997 112.407H414.867C414.902 112.917 415.063 113.319 415.351 113.612C415.644 113.905 415.998 114.113 416.414 114.236C416.836 114.353 417.255 114.411 417.671 114.411C418.233 114.411 418.705 114.326 419.086 114.156C419.473 113.981 419.763 113.755 419.956 113.48C420.155 113.204 420.255 112.911 420.255 112.601ZM424.438 113.418V114.631C424.438 115.17 424.336 115.674 424.131 116.143C423.926 116.617 423.65 117.019 423.305 117.347L422.777 116.943C422.953 116.708 423.103 116.471 423.226 116.231C423.349 115.996 423.439 115.75 423.498 115.492C423.557 115.235 423.586 114.953 423.586 114.649V113.418H424.438ZM434.783 114.411C435.24 114.411 435.671 114.326 436.075 114.156C436.485 113.981 436.825 113.72 437.095 113.374C437.37 113.029 437.525 112.595 437.561 112.073H438.396C438.366 112.689 438.185 113.231 437.851 113.699C437.517 114.168 437.08 114.531 436.541 114.789C436.008 115.047 435.422 115.176 434.783 115.176C434.133 115.176 433.559 115.059 433.061 114.824C432.562 114.584 432.144 114.25 431.804 113.823C431.47 113.395 431.215 112.894 431.039 112.32C430.869 111.74 430.784 111.11 430.784 110.43V110.061C430.784 109.381 430.869 108.754 431.039 108.18C431.215 107.6 431.47 107.096 431.804 106.668C432.144 106.24 432.56 105.909 433.052 105.675C433.55 105.435 434.124 105.315 434.774 105.315C435.431 105.315 436.025 105.449 436.559 105.719C437.098 105.983 437.531 106.366 437.859 106.87C438.188 107.368 438.366 107.969 438.396 108.672H437.561C437.531 108.121 437.388 107.656 437.13 107.275C436.872 106.888 436.538 106.592 436.128 106.387C435.718 106.182 435.267 106.079 434.774 106.079C434.218 106.079 433.74 106.188 433.342 106.405C432.949 106.615 432.627 106.908 432.375 107.283C432.129 107.653 431.944 108.074 431.821 108.549C431.704 109.024 431.646 109.528 431.646 110.061V110.43C431.646 110.963 431.704 111.47 431.821 111.95C431.938 112.425 432.123 112.847 432.375 113.216C432.627 113.585 432.952 113.878 433.351 114.095C433.749 114.306 434.227 114.411 434.783 114.411ZM446.429 113.269V108.365C446.429 107.89 446.329 107.483 446.13 107.143C445.931 106.797 445.638 106.533 445.251 106.352C444.87 106.164 444.398 106.071 443.836 106.071C443.32 106.071 442.857 106.161 442.447 106.343C442.043 106.525 441.721 106.771 441.48 107.081C441.246 107.392 441.129 107.738 441.129 108.118L440.268 108.101C440.268 107.743 440.353 107.398 440.522 107.064C440.698 106.73 440.944 106.431 441.261 106.167C441.583 105.904 441.964 105.696 442.403 105.543C442.849 105.391 443.338 105.315 443.871 105.315C444.545 105.315 445.137 105.429 445.646 105.657C446.162 105.88 446.566 106.22 446.859 106.677C447.152 107.128 447.299 107.697 447.299 108.382V113.031C447.299 113.36 447.322 113.699 447.369 114.051C447.416 114.403 447.486 114.687 447.58 114.904V115H446.64C446.569 114.783 446.517 114.517 446.481 114.2C446.446 113.878 446.429 113.568 446.429 113.269ZM446.666 109.533L446.684 110.245H444.495C443.927 110.245 443.42 110.298 442.975 110.404C442.535 110.503 442.16 110.65 441.85 110.843C441.545 111.036 441.311 111.271 441.146 111.546C440.982 111.816 440.9 112.12 440.9 112.46C440.9 112.812 440.991 113.134 441.173 113.427C441.354 113.72 441.612 113.954 441.946 114.13C442.286 114.3 442.682 114.385 443.133 114.385C443.742 114.385 444.281 114.277 444.75 114.06C445.225 113.843 445.617 113.553 445.928 113.19C446.238 112.821 446.458 112.407 446.587 111.95L446.965 112.504C446.877 112.803 446.73 113.111 446.525 113.427C446.32 113.738 446.054 114.025 445.726 114.288C445.397 114.552 445.011 114.766 444.565 114.93C444.126 115.094 443.622 115.176 443.054 115.176C442.444 115.176 441.911 115.062 441.454 114.833C441.003 114.599 440.651 114.282 440.399 113.884C440.153 113.48 440.03 113.023 440.03 112.513C440.03 112.062 440.13 111.655 440.329 111.291C440.528 110.922 440.815 110.609 441.19 110.351C441.565 110.087 442.022 109.885 442.562 109.744C443.101 109.604 443.707 109.533 444.381 109.533H446.666ZM450.99 107.477V115H450.111V105.49H450.964L450.99 107.477ZM450.841 109.586L450.41 109.243C450.451 108.716 450.562 108.215 450.744 107.74C450.932 107.266 451.187 106.847 451.509 106.484C451.831 106.12 452.212 105.836 452.651 105.631C453.097 105.42 453.598 105.315 454.154 105.315C454.623 105.315 455.045 105.379 455.42 105.508C455.801 105.631 456.123 105.827 456.387 106.097C456.65 106.361 456.853 106.706 456.993 107.134C457.14 107.562 457.213 108.074 457.213 108.672V115H456.343V108.698C456.343 108.025 456.24 107.5 456.035 107.125C455.836 106.75 455.555 106.484 455.191 106.325C454.828 106.167 454.409 106.088 453.935 106.088C453.378 106.088 452.906 106.205 452.52 106.44C452.133 106.674 451.816 106.973 451.57 107.336C451.33 107.699 451.151 108.083 451.034 108.488C450.917 108.886 450.853 109.252 450.841 109.586ZM457.204 108.778L456.624 108.698C456.665 108.259 456.779 107.837 456.967 107.433C457.154 107.023 457.409 106.659 457.731 106.343C458.054 106.027 458.438 105.778 458.883 105.596C459.328 105.408 459.823 105.315 460.368 105.315C460.854 105.315 461.288 105.382 461.669 105.517C462.056 105.646 462.381 105.854 462.645 106.141C462.914 106.422 463.116 106.782 463.251 107.222C463.392 107.661 463.462 108.192 463.462 108.813V115H462.592V108.813C462.592 108.098 462.489 107.544 462.284 107.152C462.085 106.753 461.804 106.475 461.44 106.317C461.077 106.158 460.658 106.082 460.184 106.088C459.691 106.094 459.261 106.185 458.892 106.361C458.528 106.536 458.224 106.762 457.978 107.037C457.737 107.307 457.553 107.597 457.424 107.907C457.295 108.212 457.222 108.502 457.204 108.778ZM467.057 107.319V118.656H466.187V105.49H467.004L467.057 107.319ZM473.728 110.157V110.342C473.728 111.057 473.646 111.71 473.481 112.302C473.323 112.888 473.089 113.398 472.778 113.831C472.474 114.259 472.096 114.59 471.645 114.824C471.199 115.059 470.689 115.176 470.115 115.176C469.559 115.176 469.061 115.094 468.621 114.93C468.182 114.76 467.804 114.523 467.487 114.218C467.171 113.907 466.916 113.547 466.723 113.137C466.529 112.727 466.397 112.284 466.327 111.81V108.927C466.421 108.394 466.567 107.907 466.767 107.468C466.966 107.029 467.221 106.648 467.531 106.325C467.842 106.003 468.211 105.754 468.639 105.578C469.066 105.403 469.553 105.315 470.098 105.315C470.672 105.315 471.185 105.429 471.636 105.657C472.087 105.88 472.468 106.202 472.778 106.624C473.089 107.046 473.323 107.556 473.481 108.154C473.646 108.745 473.728 109.413 473.728 110.157ZM472.849 110.342V110.157C472.849 109.577 472.79 109.041 472.673 108.549C472.556 108.057 472.377 107.629 472.137 107.266C471.902 106.897 471.601 106.61 471.231 106.405C470.868 106.199 470.438 106.097 469.939 106.097C469.406 106.097 468.952 106.185 468.577 106.361C468.208 106.536 467.903 106.768 467.663 107.055C467.429 107.336 467.241 107.641 467.101 107.969C466.966 108.297 466.866 108.614 466.802 108.918V111.889C466.913 112.346 467.098 112.765 467.355 113.146C467.613 113.527 467.956 113.834 468.384 114.069C468.817 114.297 469.342 114.411 469.957 114.411C470.449 114.411 470.877 114.309 471.24 114.104C471.604 113.893 471.902 113.606 472.137 113.242C472.377 112.873 472.556 112.443 472.673 111.95C472.79 111.452 472.849 110.916 472.849 110.342ZM481.989 113.269V108.365C481.989 107.89 481.89 107.483 481.69 107.143C481.491 106.797 481.198 106.533 480.812 106.352C480.431 106.164 479.959 106.071 479.396 106.071C478.881 106.071 478.418 106.161 478.008 106.343C477.604 106.525 477.281 106.771 477.041 107.081C476.807 107.392 476.689 107.738 476.689 108.118L475.828 108.101C475.828 107.743 475.913 107.398 476.083 107.064C476.259 106.73 476.505 106.431 476.821 106.167C477.144 105.904 477.524 105.696 477.964 105.543C478.409 105.391 478.898 105.315 479.432 105.315C480.105 105.315 480.697 105.429 481.207 105.657C481.723 105.88 482.127 106.22 482.42 106.677C482.713 107.128 482.859 107.697 482.859 108.382V113.031C482.859 113.36 482.883 113.699 482.93 114.051C482.977 114.403 483.047 114.687 483.141 114.904V115H482.2C482.13 114.783 482.077 114.517 482.042 114.2C482.007 113.878 481.989 113.568 481.989 113.269ZM482.227 109.533L482.244 110.245H480.056C479.487 110.245 478.98 110.298 478.535 110.404C478.096 110.503 477.721 110.65 477.41 110.843C477.105 111.036 476.871 111.271 476.707 111.546C476.543 111.816 476.461 112.12 476.461 112.46C476.461 112.812 476.552 113.134 476.733 113.427C476.915 113.72 477.173 113.954 477.507 114.13C477.847 114.3 478.242 114.385 478.693 114.385C479.303 114.385 479.842 114.277 480.311 114.06C480.785 113.843 481.178 113.553 481.488 113.19C481.799 112.821 482.019 112.407 482.147 111.95L482.525 112.504C482.438 112.803 482.291 113.111 482.086 113.427C481.881 113.738 481.614 114.025 481.286 114.288C480.958 114.552 480.571 114.766 480.126 114.93C479.687 115.094 479.183 115.176 478.614 115.176C478.005 115.176 477.472 115.062 477.015 114.833C476.563 114.599 476.212 114.282 475.96 113.884C475.714 113.48 475.591 113.023 475.591 112.513C475.591 112.062 475.69 111.655 475.89 111.291C476.089 110.922 476.376 110.609 476.751 110.351C477.126 110.087 477.583 109.885 478.122 109.744C478.661 109.604 479.268 109.533 479.941 109.533H482.227ZM486.735 105.49V115H485.865V105.49H486.735ZM485.663 102.669C485.663 102.493 485.722 102.344 485.839 102.221C485.956 102.092 486.111 102.028 486.305 102.028C486.504 102.028 486.662 102.092 486.779 102.221C486.902 102.344 486.964 102.493 486.964 102.669C486.964 102.845 486.902 102.994 486.779 103.117C486.662 103.24 486.504 103.302 486.305 103.302C486.111 103.302 485.956 103.24 485.839 103.117C485.722 102.994 485.663 102.845 485.663 102.669ZM495.973 105.49H496.79V114.842C496.79 115.662 496.638 116.368 496.333 116.96C496.028 117.558 495.595 118.015 495.032 118.331C494.476 118.648 493.816 118.806 493.055 118.806C492.639 118.806 492.229 118.744 491.824 118.621C491.42 118.498 491.042 118.314 490.69 118.068C490.345 117.827 490.049 117.534 489.803 117.189L490.312 116.653C490.693 117.121 491.104 117.47 491.543 117.698C491.982 117.927 492.469 118.041 493.002 118.041C493.629 118.041 494.159 117.912 494.593 117.655C495.026 117.403 495.354 117.039 495.577 116.565C495.806 116.09 495.92 115.525 495.92 114.868V107.582L495.973 105.49ZM489.258 110.342V110.157C489.258 109.413 489.34 108.745 489.504 108.154C489.668 107.556 489.905 107.046 490.216 106.624C490.532 106.202 490.916 105.88 491.367 105.657C491.818 105.429 492.328 105.315 492.896 105.315C493.441 105.315 493.925 105.403 494.347 105.578C494.769 105.754 495.132 106.003 495.437 106.325C495.747 106.648 495.999 107.029 496.192 107.468C496.386 107.907 496.529 108.394 496.623 108.927V111.757C496.547 112.243 496.415 112.695 496.228 113.111C496.04 113.527 495.791 113.89 495.48 114.2C495.17 114.511 494.798 114.751 494.364 114.921C493.937 115.091 493.441 115.176 492.879 115.176C492.316 115.176 491.81 115.059 491.358 114.824C490.913 114.59 490.532 114.259 490.216 113.831C489.905 113.398 489.668 112.888 489.504 112.302C489.34 111.71 489.258 111.057 489.258 110.342ZM490.128 110.157V110.342C490.128 110.916 490.187 111.452 490.304 111.95C490.421 112.443 490.597 112.87 490.831 113.234C491.071 113.597 491.37 113.881 491.728 114.086C492.091 114.291 492.519 114.394 493.011 114.394C493.632 114.394 494.156 114.28 494.584 114.051C495.012 113.817 495.352 113.506 495.604 113.119C495.855 112.733 496.034 112.308 496.14 111.845V108.918C496.075 108.614 495.976 108.297 495.841 107.969C495.712 107.641 495.527 107.336 495.287 107.055C495.053 106.768 494.751 106.536 494.382 106.361C494.013 106.185 493.562 106.097 493.028 106.097C492.53 106.097 492.1 106.199 491.736 106.405C491.373 106.61 491.071 106.897 490.831 107.266C490.597 107.629 490.421 108.057 490.304 108.549C490.187 109.041 490.128 109.577 490.128 110.157ZM500.499 107.521V115H499.629V105.49H500.473L500.499 107.521ZM500.314 109.586L499.919 109.243C499.96 108.716 500.077 108.215 500.271 107.74C500.464 107.266 500.725 106.847 501.053 106.484C501.381 106.12 501.768 105.836 502.213 105.631C502.658 105.42 503.147 105.315 503.681 105.315C504.155 105.315 504.58 105.379 504.955 105.508C505.33 105.637 505.646 105.842 505.904 106.123C506.168 106.405 506.367 106.768 506.502 107.213C506.643 107.653 506.713 108.189 506.713 108.822V115H505.843V108.813C505.843 108.11 505.743 107.562 505.544 107.169C505.351 106.777 505.078 106.498 504.727 106.334C504.381 106.17 503.971 106.088 503.496 106.088C502.963 106.088 502.5 106.205 502.107 106.44C501.715 106.674 501.387 106.973 501.123 107.336C500.865 107.699 500.669 108.083 500.534 108.488C500.399 108.886 500.326 109.252 500.314 109.586ZM513.252 110.404V110.087C513.252 109.396 513.352 108.76 513.551 108.18C513.75 107.594 514.034 107.087 514.403 106.659C514.772 106.232 515.215 105.901 515.73 105.666C516.252 105.432 516.829 105.315 517.462 105.315C518.101 105.315 518.678 105.432 519.193 105.666C519.715 105.901 520.16 106.232 520.529 106.659C520.904 107.087 521.191 107.594 521.391 108.18C521.59 108.76 521.689 109.396 521.689 110.087V110.404C521.689 111.095 521.59 111.734 521.391 112.32C521.191 112.9 520.904 113.404 520.529 113.831C520.16 114.259 519.718 114.59 519.202 114.824C518.687 115.059 518.112 115.176 517.479 115.176C516.841 115.176 516.261 115.059 515.739 114.824C515.224 114.59 514.778 114.259 514.403 113.831C514.034 113.404 513.75 112.9 513.551 112.32C513.352 111.734 513.252 111.095 513.252 110.404ZM514.113 110.087V110.404C514.113 110.937 514.187 111.447 514.333 111.933C514.485 112.413 514.702 112.841 514.983 113.216C515.271 113.585 515.622 113.878 516.038 114.095C516.46 114.306 516.94 114.411 517.479 114.411C518.013 114.411 518.484 114.306 518.895 114.095C519.311 113.878 519.659 113.585 519.94 113.216C520.228 112.841 520.444 112.413 520.591 111.933C520.743 111.447 520.819 110.937 520.819 110.404V110.087C520.819 109.566 520.743 109.065 520.591 108.584C520.444 108.104 520.228 107.676 519.94 107.301C519.653 106.926 519.302 106.63 518.886 106.413C518.47 106.191 517.995 106.079 517.462 106.079C516.929 106.079 516.454 106.191 516.038 106.413C515.622 106.63 515.271 106.926 514.983 107.301C514.696 107.676 514.479 108.104 514.333 108.584C514.187 109.065 514.113 109.566 514.113 110.087ZM524.766 107.319V118.656H523.896V105.49H524.713L524.766 107.319ZM531.437 110.157V110.342C531.437 111.057 531.354 111.71 531.19 112.302C531.032 112.888 530.798 113.398 530.487 113.831C530.183 114.259 529.805 114.59 529.354 114.824C528.908 115.059 528.398 115.176 527.824 115.176C527.268 115.176 526.77 115.094 526.33 114.93C525.891 114.76 525.513 114.523 525.196 114.218C524.88 113.907 524.625 113.547 524.432 113.137C524.238 112.727 524.106 112.284 524.036 111.81V108.927C524.13 108.394 524.276 107.907 524.476 107.468C524.675 107.029 524.93 106.648 525.24 106.325C525.551 106.003 525.92 105.754 526.348 105.578C526.775 105.403 527.262 105.315 527.807 105.315C528.381 105.315 528.894 105.429 529.345 105.657C529.796 105.88 530.177 106.202 530.487 106.624C530.798 107.046 531.032 107.556 531.19 108.154C531.354 108.745 531.437 109.413 531.437 110.157ZM530.558 110.342V110.157C530.558 109.577 530.499 109.041 530.382 108.549C530.265 108.057 530.086 107.629 529.846 107.266C529.611 106.897 529.31 106.61 528.94 106.405C528.577 106.199 528.146 106.097 527.648 106.097C527.115 106.097 526.661 106.185 526.286 106.361C525.917 106.536 525.612 106.768 525.372 107.055C525.138 107.336 524.95 107.641 524.81 107.969C524.675 108.297 524.575 108.614 524.511 108.918V111.889C524.622 112.346 524.807 112.765 525.064 113.146C525.322 113.527 525.665 113.834 526.093 114.069C526.526 114.297 527.051 114.411 527.666 114.411C528.158 114.411 528.586 114.309 528.949 114.104C529.312 113.893 529.611 113.606 529.846 113.242C530.086 112.873 530.265 112.443 530.382 111.95C530.499 111.452 530.558 110.916 530.558 110.342ZM537.343 105.49V106.238H532.685V105.49H537.343ZM534.434 103.012H535.312V112.698C535.312 113.172 535.371 113.532 535.488 113.779C535.611 114.019 535.772 114.18 535.972 114.262C536.171 114.344 536.385 114.385 536.613 114.385C536.777 114.385 536.93 114.376 537.07 114.359C537.217 114.341 537.357 114.321 537.492 114.297L537.545 115.044C537.416 115.085 537.249 115.117 537.044 115.141C536.839 115.164 536.646 115.176 536.464 115.176C536.06 115.176 535.705 115.103 535.4 114.956C535.096 114.804 534.858 114.549 534.688 114.192C534.519 113.828 534.434 113.33 534.434 112.698V103.012ZM540.612 105.49V115H539.742V105.49H540.612ZM539.54 102.669C539.54 102.493 539.599 102.344 539.716 102.221C539.833 102.092 539.988 102.028 540.182 102.028C540.381 102.028 540.539 102.092 540.656 102.221C540.779 102.344 540.841 102.493 540.841 102.669C540.841 102.845 540.779 102.994 540.656 103.117C540.539 103.24 540.381 103.302 540.182 103.302C539.988 103.302 539.833 103.24 539.716 103.117C539.599 102.994 539.54 102.845 539.54 102.669ZM544.365 107.477V115H543.486V105.49H544.339L544.365 107.477ZM544.216 109.586L543.785 109.243C543.826 108.716 543.938 108.215 544.119 107.74C544.307 107.266 544.562 106.847 544.884 106.484C545.206 106.12 545.587 105.836 546.026 105.631C546.472 105.42 546.973 105.315 547.529 105.315C547.998 105.315 548.42 105.379 548.795 105.508C549.176 105.631 549.498 105.827 549.762 106.097C550.025 106.361 550.228 106.706 550.368 107.134C550.515 107.562 550.588 108.074 550.588 108.672V115H549.718V108.698C549.718 108.025 549.615 107.5 549.41 107.125C549.211 106.75 548.93 106.484 548.566 106.325C548.203 106.167 547.784 106.088 547.31 106.088C546.753 106.088 546.281 106.205 545.895 106.44C545.508 106.674 545.191 106.973 544.945 107.336C544.705 107.699 544.526 108.083 544.409 108.488C544.292 108.886 544.228 109.252 544.216 109.586ZM550.579 108.778L549.999 108.698C550.04 108.259 550.154 107.837 550.342 107.433C550.529 107.023 550.784 106.659 551.106 106.343C551.429 106.027 551.812 105.778 552.258 105.596C552.703 105.408 553.198 105.315 553.743 105.315C554.229 105.315 554.663 105.382 555.044 105.517C555.431 105.646 555.756 105.854 556.02 106.141C556.289 106.422 556.491 106.782 556.626 107.222C556.767 107.661 556.837 108.192 556.837 108.813V115H555.967V108.813C555.967 108.098 555.864 107.544 555.659 107.152C555.46 106.753 555.179 106.475 554.815 106.317C554.452 106.158 554.033 106.082 553.559 106.088C553.066 106.094 552.636 106.185 552.267 106.361C551.903 106.536 551.599 106.762 551.353 107.037C551.112 107.307 550.928 107.597 550.799 107.907C550.67 108.212 550.597 108.502 550.579 108.778ZM560.563 105.49V115H559.693V105.49H560.563ZM559.491 102.669C559.491 102.493 559.55 102.344 559.667 102.221C559.784 102.092 559.939 102.028 560.133 102.028C560.332 102.028 560.49 102.092 560.607 102.221C560.73 102.344 560.792 102.493 560.792 102.669C560.792 102.845 560.73 102.994 560.607 103.117C560.49 103.24 560.332 103.302 560.133 103.302C559.939 103.302 559.784 103.24 559.667 103.117C559.55 102.994 559.491 102.845 559.491 102.669ZM570.319 114.236V115H563.165V114.236H570.319ZM569.889 106.158L563.402 115H562.866V114.341L569.344 105.49H569.889V106.158ZM569.502 105.49V106.264H563.068V105.49H569.502ZM578.071 113.269V108.365C578.071 107.89 577.972 107.483 577.772 107.143C577.573 106.797 577.28 106.533 576.894 106.352C576.513 106.164 576.041 106.071 575.479 106.071C574.963 106.071 574.5 106.161 574.09 106.343C573.686 106.525 573.363 106.771 573.123 107.081C572.889 107.392 572.771 107.738 572.771 108.118L571.91 108.101C571.91 107.743 571.995 107.398 572.165 107.064C572.341 106.73 572.587 106.431 572.903 106.167C573.226 105.904 573.606 105.696 574.046 105.543C574.491 105.391 574.98 105.315 575.514 105.315C576.188 105.315 576.779 105.429 577.289 105.657C577.805 105.88 578.209 106.22 578.502 106.677C578.795 107.128 578.941 107.697 578.941 108.382V113.031C578.941 113.36 578.965 113.699 579.012 114.051C579.059 114.403 579.129 114.687 579.223 114.904V115H578.282C578.212 114.783 578.159 114.517 578.124 114.2C578.089 113.878 578.071 113.568 578.071 113.269ZM578.309 109.533L578.326 110.245H576.138C575.569 110.245 575.062 110.298 574.617 110.404C574.178 110.503 573.803 110.65 573.492 110.843C573.188 111.036 572.953 111.271 572.789 111.546C572.625 111.816 572.543 112.12 572.543 112.46C572.543 112.812 572.634 113.134 572.815 113.427C572.997 113.72 573.255 113.954 573.589 114.13C573.929 114.3 574.324 114.385 574.775 114.385C575.385 114.385 575.924 114.277 576.393 114.06C576.867 113.843 577.26 113.553 577.57 113.19C577.881 112.821 578.101 112.407 578.229 111.95L578.607 112.504C578.52 112.803 578.373 113.111 578.168 113.427C577.963 113.738 577.696 114.025 577.368 114.288C577.04 114.552 576.653 114.766 576.208 114.93C575.769 115.094 575.265 115.176 574.696 115.176C574.087 115.176 573.554 115.062 573.097 114.833C572.646 114.599 572.294 114.282 572.042 113.884C571.796 113.48 571.673 113.023 571.673 112.513C571.673 112.062 571.772 111.655 571.972 111.291C572.171 110.922 572.458 110.609 572.833 110.351C573.208 110.087 573.665 109.885 574.204 109.744C574.743 109.604 575.35 109.533 576.023 109.533H578.309ZM585.313 105.49V106.238H580.655V105.49H585.313ZM582.404 103.012H583.283V112.698C583.283 113.172 583.342 113.532 583.459 113.779C583.582 114.019 583.743 114.18 583.942 114.262C584.142 114.344 584.355 114.385 584.584 114.385C584.748 114.385 584.9 114.376 585.041 114.359C585.188 114.341 585.328 114.321 585.463 114.297L585.516 115.044C585.387 115.085 585.22 115.117 585.015 115.141C584.81 115.164 584.616 115.176 584.435 115.176C584.03 115.176 583.676 115.103 583.371 114.956C583.066 114.804 582.829 114.549 582.659 114.192C582.489 113.828 582.404 113.33 582.404 112.698V103.012ZM588.583 105.49V115H587.713V105.49H588.583ZM587.511 102.669C587.511 102.493 587.569 102.344 587.687 102.221C587.804 102.092 587.959 102.028 588.152 102.028C588.352 102.028 588.51 102.092 588.627 102.221C588.75 102.344 588.812 102.493 588.812 102.669C588.812 102.845 588.75 102.994 588.627 103.117C588.51 103.24 588.352 103.302 588.152 103.302C587.959 103.302 587.804 103.24 587.687 103.117C587.569 102.994 587.511 102.845 587.511 102.669ZM590.912 110.404V110.087C590.912 109.396 591.012 108.76 591.211 108.18C591.41 107.594 591.694 107.087 592.063 106.659C592.433 106.232 592.875 105.901 593.391 105.666C593.912 105.432 594.489 105.315 595.122 105.315C595.761 105.315 596.338 105.432 596.854 105.666C597.375 105.901 597.82 106.232 598.189 106.659C598.564 107.087 598.852 107.594 599.051 108.18C599.25 108.76 599.35 109.396 599.35 110.087V110.404C599.35 111.095 599.25 111.734 599.051 112.32C598.852 112.9 598.564 113.404 598.189 113.831C597.82 114.259 597.378 114.59 596.862 114.824C596.347 115.059 595.772 115.176 595.14 115.176C594.501 115.176 593.921 115.059 593.399 114.824C592.884 114.59 592.438 114.259 592.063 113.831C591.694 113.404 591.41 112.9 591.211 112.32C591.012 111.734 590.912 111.095 590.912 110.404ZM591.773 110.087V110.404C591.773 110.937 591.847 111.447 591.993 111.933C592.146 112.413 592.362 112.841 592.644 113.216C592.931 113.585 593.282 113.878 593.698 114.095C594.12 114.306 594.601 114.411 595.14 114.411C595.673 114.411 596.145 114.306 596.555 114.095C596.971 113.878 597.319 113.585 597.601 113.216C597.888 112.841 598.104 112.413 598.251 111.933C598.403 111.447 598.479 110.937 598.479 110.404V110.087C598.479 109.566 598.403 109.065 598.251 108.584C598.104 108.104 597.888 107.676 597.601 107.301C597.313 106.926 596.962 106.63 596.546 106.413C596.13 106.191 595.655 106.079 595.122 106.079C594.589 106.079 594.114 106.191 593.698 106.413C593.282 106.63 592.931 106.926 592.644 107.301C592.356 107.676 592.14 108.104 591.993 108.584C591.847 109.065 591.773 109.566 591.773 110.087ZM602.435 107.521V115H601.564V105.49H602.408L602.435 107.521ZM602.25 109.586L601.854 109.243C601.896 108.716 602.013 108.215 602.206 107.74C602.399 107.266 602.66 106.847 602.988 106.484C603.316 106.12 603.703 105.836 604.148 105.631C604.594 105.42 605.083 105.315 605.616 105.315C606.091 105.315 606.516 105.379 606.891 105.508C607.266 105.637 607.582 105.842 607.84 106.123C608.104 106.405 608.303 106.768 608.438 107.213C608.578 107.653 608.648 108.189 608.648 108.822V115H607.778V108.813C607.778 108.11 607.679 107.562 607.479 107.169C607.286 106.777 607.014 106.498 606.662 106.334C606.316 106.17 605.906 106.088 605.432 106.088C604.898 106.088 604.436 106.205 604.043 106.44C603.65 106.674 603.322 106.973 603.059 107.336C602.801 107.699 602.604 108.083 602.47 108.488C602.335 108.886 602.262 109.252 602.25 109.586Z" fill="white"/>
<mask id="path-7-outside-1_448_1187" maskUnits="userSpaceOnUse" x="0" y="47.0002" width="63" height="84" fill="black">
<rect fill="white" y="47.0002" width="63" height="84"/>
<path d="M22.8809 82.5686H30.8887C32.9395 82.5686 34.6159 82.2105 35.918 81.4944C37.2526 80.7457 38.2454 79.704 38.8965 78.3694C39.5475 77.0022 39.873 75.3909 39.873 73.5354C39.873 72.1031 39.5638 70.7847 38.9453 69.5803C38.3594 68.3759 37.4479 67.4156 36.2109 66.6995C34.974 65.9508 33.3952 65.5764 31.4746 65.5764C30.1725 65.5764 28.903 65.8531 27.666 66.4065C26.429 66.9273 25.4036 67.676 24.5898 68.6526C23.8086 69.6292 23.418 70.8173 23.418 72.217H6.91406C6.91406 68.1806 8.02083 64.7301 10.2344 61.8655C12.4805 58.9683 15.4264 56.7548 19.0723 55.2249C22.7507 53.6624 26.7057 52.8811 30.9375 52.8811C35.9831 52.8811 40.4102 53.6624 44.2188 55.2249C48.0273 56.7548 50.9896 59.0334 53.1055 62.0608C55.2539 65.0556 56.3281 68.7665 56.3281 73.1936C56.3281 75.635 55.7585 77.9299 54.6191 80.0784C53.4798 82.2268 51.8848 84.1148 49.834 85.7424C47.7832 87.37 45.3743 88.6558 42.6074 89.5999C39.873 90.5113 36.8783 90.967 33.623 90.967H22.8809V82.5686ZM22.8809 94.8245V86.6213H33.623C37.1712 86.6213 40.4102 87.0282 43.3398 87.842C46.2695 88.6233 48.7923 89.7952 50.9082 91.3577C53.0241 92.9202 54.6517 94.857 55.791 97.1682C56.9303 99.4469 57.5 102.067 57.5 105.03C57.5 108.35 56.8327 111.312 55.498 113.916C54.1634 116.52 52.2917 118.718 49.8828 120.508C47.474 122.298 44.6582 123.666 41.4355 124.61C38.2129 125.521 34.7135 125.977 30.9375 125.977C27.9753 125.977 25.013 125.586 22.0508 124.805C19.0885 123.991 16.3867 122.754 13.9453 121.094C11.5039 119.401 9.53451 117.253 8.03711 114.649C6.57227 112.012 5.83984 108.871 5.83984 105.225H22.3438C22.3438 106.722 22.7507 108.089 23.5645 109.326C24.4108 110.531 25.5339 111.491 26.9336 112.207C28.3333 112.923 29.847 113.281 31.4746 113.281C33.4928 113.281 35.2018 112.907 36.6016 112.158C38.0339 111.377 39.1243 110.336 39.873 109.033C40.6217 107.731 40.9961 106.283 40.9961 104.688C40.9961 102.279 40.5892 100.358 39.7754 98.926C38.9941 97.4937 37.8385 96.4521 36.3086 95.801C34.8112 95.15 33.0046 94.8245 30.8887 94.8245H22.8809Z"/>
</mask>
<path d="M22.8809 82.5686V77.5686H17.8809V82.5686H22.8809ZM35.918 81.4944L38.3276 85.8755L38.3459 85.8654L38.3642 85.8551L35.918 81.4944ZM38.8965 78.3694L43.3903 80.5615L43.4007 80.5403L43.4108 80.5191L38.8965 78.3694ZM38.9453 69.5803L34.4491 71.7677L34.4728 71.8163L34.4975 71.8643L38.9453 69.5803ZM36.2109 66.6995L33.6219 70.977L33.6636 71.0022L33.7058 71.0266L36.2109 66.6995ZM27.666 66.4065L29.6063 71.0147L29.6573 70.9932L29.7078 70.9706L27.666 66.4065ZM24.5898 68.6526L20.7487 65.4517L20.7167 65.4901L20.6855 65.5291L24.5898 68.6526ZM23.418 72.217V77.217H28.418V72.217H23.418ZM6.91406 72.217H1.91406V77.217H6.91406V72.217ZM10.2344 61.8655L6.28283 58.8019L6.27795 58.8082L10.2344 61.8655ZM19.0723 55.2249L21.007 59.8354L21.0171 59.8311L21.0271 59.8269L19.0723 55.2249ZM44.2188 55.2249L42.321 59.8507L42.3379 59.8577L42.355 59.8645L44.2188 55.2249ZM53.1055 62.0608L49.0072 64.9251L49.0249 64.9503L49.0428 64.9753L53.1055 62.0608ZM54.6191 80.0784L59.0364 82.4209V82.4209L54.6191 80.0784ZM42.6074 89.5999L44.1886 94.3433L44.2053 94.3377L44.2219 94.332L42.6074 89.5999ZM22.8809 90.967H17.8809V95.967H22.8809V90.967ZM22.8809 94.8245H17.8809V99.8245H22.8809V94.8245ZM22.8809 86.6213V81.6213H17.8809V86.6213H22.8809ZM43.3398 87.842L42.0016 92.6596L42.0265 92.6666L42.0515 92.6732L43.3398 87.842ZM55.791 97.1682L51.3063 99.379L51.3126 99.3916L51.3189 99.4043L55.791 97.1682ZM49.8828 120.508L46.9002 116.495L49.8828 120.508ZM41.4355 124.61L42.7963 129.421L42.8187 129.415L42.8411 129.408L41.4355 124.61ZM22.0508 124.805L20.7262 129.626L20.7509 129.633L20.7757 129.64L22.0508 124.805ZM13.9453 121.094L11.0964 125.203L11.115 125.216L11.1338 125.229L13.9453 121.094ZM8.03711 114.649L3.66632 117.077L3.68421 117.109L3.70258 117.141L8.03711 114.649ZM5.83984 105.225V100.225H0.839844V105.225H5.83984ZM22.3438 105.225H27.3438V100.225H22.3438V105.225ZM23.5645 109.326L19.3874 112.074L19.4295 112.138L19.4735 112.201L23.5645 109.326ZM26.9336 112.207L24.6562 116.659L26.9336 112.207ZM36.6016 112.158L38.9598 116.567L38.9779 116.558L38.9958 116.548L36.6016 112.158ZM39.7754 98.926L35.3859 101.32L35.4067 101.358L35.4281 101.396L39.7754 98.926ZM36.3086 95.801L34.315 100.386L34.3329 100.394L34.3508 100.402L36.3086 95.801ZM22.8809 82.5686V87.5686H30.8887V82.5686V77.5686H22.8809V82.5686ZM30.8887 82.5686V87.5686C33.4774 87.5686 36.0598 87.1227 38.3276 85.8755L35.918 81.4944L33.5084 77.1133C33.1719 77.2983 32.4015 77.5686 30.8887 77.5686V82.5686ZM35.918 81.4944L38.3642 85.8551C40.5573 84.6248 42.279 82.8397 43.3903 80.5615L38.8965 78.3694L34.4026 76.1773C34.2119 76.5683 33.9479 76.8665 33.4717 77.1337L35.918 81.4944ZM38.8965 78.3694L43.4108 80.5191C44.4454 78.3464 44.873 75.9704 44.873 73.5354H39.873H34.873C34.873 74.8113 34.6497 75.658 34.3822 76.2197L38.8965 78.3694ZM39.873 73.5354H44.873C44.873 71.356 44.3955 69.2483 43.3931 67.2963L38.9453 69.5803L34.4975 71.8643C34.7321 72.3212 34.873 72.8502 34.873 73.5354H39.873ZM38.9453 69.5803L43.4415 67.393C42.39 65.2317 40.7542 63.5523 38.7161 62.3723L36.2109 66.6995L33.7058 71.0266C34.1416 71.2789 34.3287 71.5201 34.4491 71.7677L38.9453 69.5803ZM36.2109 66.6995L38.7999 62.422C36.5657 61.0697 34.0167 60.5764 31.4746 60.5764V65.5764V70.5764C32.7737 70.5764 33.3822 70.8319 33.6219 70.977L36.2109 66.6995ZM31.4746 65.5764V60.5764C29.4401 60.5764 27.4767 61.0136 25.6242 61.8424L27.666 66.4065L29.7078 70.9706C30.3293 70.6926 30.905 70.5764 31.4746 70.5764V65.5764ZM27.666 66.4065L25.7257 61.7983C23.7941 62.6116 22.1031 63.8264 20.7487 65.4517L24.5898 68.6526L28.431 71.8535C28.7042 71.5257 29.064 71.243 29.6063 71.0147L27.666 66.4065ZM24.5898 68.6526L20.6855 65.5291C19.1104 67.498 18.418 69.8253 18.418 72.217H23.418H28.418C28.418 71.9852 28.4497 71.8717 28.4608 71.8377C28.4698 71.8105 28.4764 71.7983 28.4942 71.7761L24.5898 68.6526ZM23.418 72.217V67.217H6.91406V72.217V77.217H23.418V72.217ZM6.91406 72.217H11.9141C11.9141 69.1528 12.7316 66.8111 14.1908 64.9227L10.2344 61.8655L6.27795 58.8082C3.3101 62.649 1.91406 67.2084 1.91406 72.217H6.91406ZM10.2344 61.8655L14.1859 64.929C15.8631 62.7657 18.0912 61.059 21.007 59.8354L19.0723 55.2249L17.1375 50.6144C12.7617 52.4506 9.09787 55.1709 6.28284 58.8019L10.2344 61.8655ZM19.0723 55.2249L21.0271 59.8269C24.0513 58.5423 27.3373 57.8811 30.9375 57.8811V52.8811V47.8811C26.0742 47.8811 21.45 48.7824 17.1174 50.6228L19.0723 55.2249ZM30.9375 52.8811V57.8811C35.4748 57.8811 39.2338 58.5842 42.321 59.8507L44.2188 55.2249L46.1165 50.599C41.5865 48.7405 36.4913 47.8811 30.9375 47.8811V52.8811ZM44.2188 55.2249L42.355 59.8645C45.366 61.0741 47.5088 62.7812 49.0072 64.9251L53.1055 62.0608L57.2037 59.1964C54.4704 55.2857 50.6887 52.4355 46.0825 50.5852L44.2188 55.2249ZM53.1055 62.0608L49.0428 64.9753C50.4673 66.961 51.3281 69.597 51.3281 73.1936H56.3281H61.3281C61.3281 67.936 60.0405 63.1502 57.1682 59.1463L53.1055 62.0608ZM56.3281 73.1936H51.3281C51.3281 74.8217 50.957 76.3119 50.2018 77.7359L54.6191 80.0784L59.0364 82.4209C60.56 79.548 61.3281 76.4484 61.3281 73.1936H56.3281ZM54.6191 80.0784L50.2018 77.7359C49.4098 79.2294 48.2782 80.5939 46.7257 81.826L49.834 85.7424L52.9423 89.6589C55.4914 87.6358 57.5498 85.2242 59.0364 82.4209L54.6191 80.0784ZM49.834 85.7424L46.7257 81.826C45.1716 83.0594 43.2816 84.0869 40.9929 84.8677L42.6074 89.5999L44.2219 94.332C47.4671 93.2248 50.3948 91.6807 52.9423 89.6589L49.834 85.7424ZM42.6074 89.5999L41.0263 84.8564C38.863 85.5775 36.4095 85.967 33.623 85.967V90.967V95.967C37.347 95.967 40.8831 95.4451 44.1886 94.3433L42.6074 89.5999ZM33.623 90.967V85.967H22.8809V90.967V95.967H33.623V90.967ZM22.8809 90.967H27.8809V82.5686H22.8809H17.8809V90.967H22.8809ZM22.8809 94.8245H27.8809V86.6213H22.8809H17.8809V94.8245H22.8809ZM22.8809 86.6213V91.6213H33.623V86.6213V81.6213H22.8809V86.6213ZM33.623 86.6213V91.6213C36.7923 91.6213 39.5732 91.9851 42.0016 92.6596L43.3398 87.842L44.6781 83.0245C41.2472 82.0714 37.5501 81.6213 33.623 81.6213V86.6213ZM43.3398 87.842L42.0515 92.6732C44.4663 93.3172 46.398 94.2426 47.938 95.3798L50.9082 91.3577L53.8784 87.3355C51.1867 85.3478 48.0728 83.9294 44.6282 83.0109L43.3398 87.842ZM50.9082 91.3577L47.938 95.3798C49.4255 96.4783 50.5275 97.7991 51.3063 99.379L55.791 97.1682L60.2757 94.9574C58.7759 91.9149 56.6226 89.362 53.8784 87.3355L50.9082 91.3577ZM55.791 97.1682L51.3189 99.4043C52.0587 100.884 52.5 102.717 52.5 105.03H57.5H62.5C62.5 101.417 61.802 98.0098 60.2632 94.9321L55.791 97.1682ZM57.5 105.03H52.5C52.5 107.665 51.9752 109.827 51.0484 111.636L55.498 113.916L59.9477 116.197C61.6902 112.797 62.5 109.035 62.5 105.03H57.5ZM55.498 113.916L51.0484 111.636C50.0726 113.54 48.71 115.15 46.9002 116.495L49.8828 120.508L52.8654 124.521C55.8733 122.285 58.2542 119.501 59.9477 116.197L55.498 113.916ZM49.8828 120.508L46.9002 116.495C45.0194 117.893 42.7517 119.014 40.03 119.811L41.4355 124.61L42.8411 129.408C46.5647 128.317 49.9285 126.704 52.8654 124.521L49.8828 120.508ZM41.4355 124.61L40.0748 119.798C37.3471 120.57 34.311 120.977 30.9375 120.977V125.977V130.977C35.116 130.977 39.0787 130.472 42.7963 129.421L41.4355 124.61ZM30.9375 125.977V120.977C28.4202 120.977 25.8862 120.646 23.3259 119.97L22.0508 124.805L20.7757 129.64C24.1398 130.527 27.5304 130.977 30.9375 130.977V125.977ZM22.0508 124.805L23.3753 119.984C20.9214 119.309 18.7255 118.298 16.7569 116.959L13.9453 121.094L11.1338 125.229C14.048 127.21 17.2556 128.673 20.7262 129.626L22.0508 124.805ZM13.9453 121.094L16.7942 116.985C14.9687 115.719 13.504 114.126 12.3716 112.156L8.03711 114.649L3.70258 117.141C5.56502 120.38 8.03914 123.083 11.0964 125.203L13.9453 121.094ZM8.03711 114.649L12.4079 112.22C11.4337 110.467 10.8398 108.198 10.8398 105.225H5.83984H0.839844C0.839844 109.544 1.71082 113.557 3.66632 117.077L8.03711 114.649ZM5.83984 105.225V110.225H22.3438V105.225V100.225H5.83984V105.225ZM22.3438 105.225H17.3438C17.3438 107.687 18.0303 110.012 19.3874 112.074L23.5645 109.326L27.7415 106.578C27.471 106.167 27.3438 105.757 27.3438 105.225H22.3438ZM23.5645 109.326L19.4735 112.201C20.8189 114.116 22.5834 115.598 24.6562 116.659L26.9336 112.207L29.211 107.756C28.4843 107.384 28.0027 106.946 27.6554 106.452L23.5645 109.326ZM26.9336 112.207L24.6562 116.659C26.7861 117.748 29.0839 118.281 31.4746 118.281V113.281V108.281C30.6101 108.281 29.8805 108.099 29.211 107.756L26.9336 112.207ZM31.4746 113.281V118.281C34.0976 118.281 36.664 117.795 38.9598 116.567L36.6016 112.158L34.2433 107.75C33.7396 108.019 32.8881 108.281 31.4746 108.281V113.281ZM36.6016 112.158L38.9958 116.548C41.1651 115.365 42.96 113.696 44.2076 111.526L39.873 109.033L35.5385 106.541C35.2887 106.976 34.9026 107.39 34.2073 107.769L36.6016 112.158ZM39.873 109.033L44.2076 111.526C45.4195 109.418 45.9961 107.101 45.9961 104.688H40.9961H35.9961C35.9961 105.464 35.824 106.045 35.5385 106.541L39.873 109.033ZM40.9961 104.688H45.9961C45.9961 101.787 45.5172 98.9104 44.1227 96.456L39.7754 98.926L35.4281 101.396C35.6612 101.806 35.9961 102.771 35.9961 104.688H40.9961ZM39.7754 98.926L44.1649 96.5318C42.8335 94.0909 40.8107 92.2829 38.2664 91.2003L36.3086 95.801L34.3508 100.402C34.8664 100.621 35.1548 100.897 35.3859 101.32L39.7754 98.926ZM36.3086 95.801L38.3022 91.2157C36.0192 90.2231 33.4963 89.8245 30.8887 89.8245V94.8245V99.8245C32.5128 99.8245 33.6032 100.077 34.315 100.386L36.3086 95.801ZM30.8887 94.8245V89.8245H22.8809V94.8245V99.8245H30.8887V94.8245Z" fill="#1A5069" mask="url(#path-7-outside-1_448_1187)"/>
<defs>
<radialGradient id="paint0_radial_448_1187" cx="0" cy="0" r="1" gradientUnits="userSpaceOnUse" gradientTransform="translate(96.2629 367.631) scale(96.2629 367.631)">
<stop stop-color="#1A5069"/>
<stop offset="1" stop-color="#0F7BAE" stop-opacity="0"/>
</radialGradient>
<radialGradient id="paint1_radial_448_1187" cx="0" cy="0" r="1" gradientUnits="userSpaceOnUse" gradientTransform="translate(96.2629 367.631) scale(96.2629 367.631)">
<stop stop-color="#1A5069"/>
<stop offset="1" stop-color="#0F7BAE" stop-opacity="0"/>
</radialGradient>
</defs>
</svg>
