<svg width="797" height="180" viewBox="0 0 797 180" fill="none" xmlns="http://www.w3.org/2000/svg">
<mask id="mask0_448_1209" style="mask-type:alpha" maskUnits="userSpaceOnUse" x="70" y="0" width="727" height="180">
<rect x="-1.00159" y="0.995166" width="174.036" height="724.019" rx="87.0179" transform="matrix(-0.00160036 0.999999 -0.999988 -0.00483255 796.285 5.51011)" fill="black" stroke="#136A93" stroke-width="2"/>
</mask>
<g mask="url(#mask0_448_1209)">
<rect width="192.526" height="735.262" rx="47.5" transform="matrix(-0.00160036 0.999999 -0.999988 -0.00483255 1071.4 68.4429)" fill="url(#paint0_radial_448_1209)" fill-opacity="0.74"/>
<rect width="192.526" height="735.262" rx="47.5" transform="matrix(-0.00160036 0.999999 -0.999988 -0.00483255 530.426 -57.9541)" fill="url(#paint1_radial_448_1209)" fill-opacity="0.74"/>
</g>
<rect x="73.291" y="1.54663" width="722.708" height="175.235" rx="87.6177" fill="#D9D9D9" fill-opacity="0.14" stroke="#136A93" stroke-width="2"/>
<path d="M346.68 72.5403C346.68 72.0618 346.606 71.6345 346.458 71.2585C346.321 70.8712 346.065 70.5237 345.689 70.2161C345.324 69.8971 344.806 69.5894 344.134 69.2932C343.473 68.9856 342.618 68.6666 341.57 68.3362C340.408 67.9716 339.326 67.5614 338.323 67.1057C337.321 66.65 336.438 66.1202 335.674 65.5164C334.922 64.9125 334.336 64.2175 333.914 63.4314C333.493 62.6339 333.282 61.711 333.282 60.6628C333.282 59.6375 333.498 58.7032 333.931 57.8601C334.375 57.017 335.002 56.2935 335.811 55.6897C336.62 55.0745 337.571 54.6016 338.665 54.2712C339.77 53.9408 340.989 53.7756 342.322 53.7756C344.168 53.7756 345.763 54.1117 347.107 54.7839C348.463 55.4561 349.511 56.3676 350.252 57.5183C350.993 58.669 351.363 59.9622 351.363 61.3977H346.68C346.68 60.623 346.515 59.9394 346.185 59.3469C345.866 58.7545 345.376 58.2874 344.715 57.9456C344.065 57.6038 343.245 57.4329 342.254 57.4329C341.297 57.4329 340.499 57.5753 339.861 57.8601C339.235 58.1449 338.762 58.5323 338.443 59.0222C338.135 59.5121 337.981 60.059 337.981 60.6628C337.981 61.1186 338.09 61.5287 338.306 61.8933C338.523 62.2465 338.847 62.5826 339.28 62.9016C339.713 63.2092 340.249 63.4998 340.887 63.7732C341.536 64.0352 342.288 64.2973 343.143 64.5593C344.51 64.9695 345.706 65.4252 346.731 65.9265C347.768 66.4278 348.628 66.9975 349.312 67.6355C350.007 68.2735 350.525 68.9913 350.867 69.7888C351.22 70.5863 351.397 71.4921 351.397 72.5061C351.397 73.5771 351.186 74.5341 350.765 75.3772C350.343 76.2203 349.739 76.9381 348.953 77.5305C348.167 78.123 347.221 78.573 346.116 78.8806C345.022 79.1882 343.798 79.342 342.442 79.342C341.234 79.342 340.038 79.1825 338.853 78.8635C337.68 78.5331 336.614 78.0432 335.657 77.3938C334.7 76.733 333.937 75.9013 333.367 74.8987C332.798 73.8847 332.513 72.6998 332.513 71.344H337.229C337.229 72.1301 337.355 72.8023 337.605 73.3606C337.868 73.9075 338.232 74.3575 338.699 74.7107C339.178 75.0525 339.736 75.3031 340.374 75.4626C341.012 75.6222 341.701 75.7019 342.442 75.7019C343.399 75.7019 344.185 75.5709 344.8 75.3088C345.427 75.0354 345.894 74.6594 346.202 74.1809C346.521 73.7024 346.68 73.1555 346.68 72.5403ZM364.614 75.0696V66.5417C364.614 65.9151 364.506 65.3739 364.289 64.9182C364.073 64.4625 363.742 64.1093 363.298 63.8586C362.854 63.608 362.29 63.4827 361.606 63.4827C361.002 63.4827 360.472 63.5852 360.017 63.7903C359.572 63.9954 359.23 64.2859 358.991 64.6619C358.752 65.0264 358.632 65.448 358.632 65.9265H354.104C354.104 65.1632 354.286 64.4397 354.65 63.7561C355.015 63.0611 355.533 62.4459 356.206 61.9104C356.889 61.3635 357.704 60.9363 358.649 60.6287C359.606 60.321 360.677 60.1672 361.862 60.1672C363.264 60.1672 364.511 60.4065 365.605 60.885C366.71 61.3521 367.576 62.0585 368.203 63.0042C368.841 63.9498 369.16 65.1404 369.16 66.5759V74.6423C369.16 75.5652 369.217 76.357 369.331 77.0178C369.456 77.6672 369.638 78.2312 369.877 78.7097V79.0002H365.28C365.064 78.5331 364.899 77.9407 364.785 77.2229C364.671 76.4937 364.614 75.776 364.614 75.0696ZM365.246 67.738L365.28 70.4211H362.426C361.72 70.4211 361.099 70.4952 360.563 70.6433C360.028 70.78 359.589 70.9851 359.248 71.2585C358.906 71.5206 358.649 71.8396 358.479 72.2156C358.308 72.5802 358.222 72.996 358.222 73.4631C358.222 73.9189 358.325 74.329 358.53 74.6936C358.746 75.0582 359.054 75.3487 359.453 75.5652C359.863 75.7703 360.341 75.8728 360.888 75.8728C361.686 75.8728 362.381 75.7133 362.973 75.3943C363.566 75.0639 364.027 74.6651 364.357 74.198C364.688 73.7309 364.864 73.2865 364.887 72.865L366.186 74.8132C366.027 75.2804 365.787 75.776 365.468 76.3C365.149 76.8241 364.739 77.314 364.238 77.7698C363.736 78.2255 363.133 78.6015 362.426 78.8977C361.72 79.1939 360.9 79.342 359.965 79.342C358.769 79.342 357.698 79.1028 356.752 78.6243C355.807 78.1458 355.061 77.4906 354.514 76.6589C353.967 75.8272 353.693 74.8816 353.693 73.822C353.693 72.8422 353.876 71.9763 354.24 71.2244C354.605 70.4724 355.146 69.8401 355.864 69.3274C356.582 68.8033 357.47 68.4102 358.53 68.1482C359.601 67.8748 360.826 67.738 362.204 67.738H365.246ZM377.762 52.7502V79.0002H373.233V52.7502H377.762ZM390.125 79.342C388.723 79.342 387.464 79.1142 386.348 78.6584C385.231 78.2027 384.28 77.5704 383.494 76.7615C382.719 75.9412 382.121 74.9898 381.699 73.9075C381.289 72.8137 381.084 71.6402 381.084 70.387V69.7034C381.084 68.2792 381.289 66.9861 381.699 65.824C382.109 64.6505 382.69 63.6422 383.442 62.7991C384.194 61.956 385.094 61.3066 386.143 60.8508C387.191 60.3951 388.347 60.1672 389.612 60.1672C390.922 60.1672 392.078 60.3894 393.081 60.8337C394.084 61.2667 394.921 61.8819 395.593 62.6794C396.265 63.477 396.772 64.434 397.114 65.5505C397.456 66.6557 397.627 67.8805 397.627 69.2249V71.1218H383.135V68.0115H393.184V67.6697C393.161 66.9519 393.024 66.2968 392.773 65.7043C392.523 65.1005 392.135 64.622 391.611 64.2688C391.087 63.9042 390.409 63.7219 389.578 63.7219C388.905 63.7219 388.319 63.87 387.817 64.1663C387.327 64.4511 386.917 64.8612 386.587 65.3967C386.268 65.9208 386.029 66.5474 385.869 67.2766C385.71 68.0058 385.63 68.8147 385.63 69.7034V70.387C385.63 71.1617 385.732 71.8795 385.938 72.5403C386.154 73.2011 386.467 73.7764 386.877 74.2664C387.299 74.7449 387.8 75.1208 388.381 75.3943C388.974 75.6563 389.646 75.7874 390.398 75.7874C391.344 75.7874 392.198 75.6051 392.961 75.2405C393.736 74.8645 394.408 74.3119 394.978 73.5828L397.251 75.9412C396.864 76.5108 396.34 77.0577 395.679 77.5818C395.029 78.1059 394.243 78.5331 393.32 78.8635C392.397 79.1825 391.332 79.342 390.125 79.342ZM410.57 73.9417C410.57 73.5543 410.468 73.2068 410.263 72.8992C410.058 72.5916 409.67 72.3124 409.101 72.0618C408.542 71.7997 407.722 71.5548 406.64 71.3269C405.683 71.1218 404.8 70.8655 403.991 70.5579C403.182 70.2502 402.487 69.88 401.906 69.447C401.325 69.0027 400.869 68.4843 400.539 67.8918C400.22 67.288 400.06 66.593 400.06 65.8069C400.06 65.0435 400.225 64.3258 400.556 63.6536C400.886 62.97 401.365 62.3718 401.991 61.8591C402.618 61.335 403.381 60.9249 404.281 60.6287C405.181 60.321 406.195 60.1672 407.323 60.1672C408.896 60.1672 410.246 60.4236 411.374 60.9363C412.513 61.449 413.384 62.1554 413.988 63.0554C414.592 63.9441 414.894 64.9467 414.894 66.0632H410.382C410.382 65.5733 410.268 65.129 410.041 64.7302C409.824 64.3315 409.488 64.0125 409.032 63.7732C408.576 63.5225 408.001 63.3972 407.306 63.3972C406.68 63.3972 406.15 63.4998 405.717 63.7048C405.295 63.9099 404.976 64.1777 404.76 64.5081C404.543 64.8385 404.435 65.203 404.435 65.6018C404.435 65.898 404.492 66.1658 404.606 66.405C404.731 66.6329 404.931 66.8437 405.204 67.0374C405.478 67.231 405.848 67.4076 406.315 67.5671C406.793 67.7266 407.38 67.8805 408.075 68.0286C409.454 68.302 410.656 68.6666 411.681 69.1223C412.718 69.5667 413.527 70.1591 414.108 70.8997C414.689 71.6402 414.979 72.5859 414.979 73.7366C414.979 74.5569 414.803 75.3088 414.45 75.9924C414.097 76.6646 413.584 77.2514 412.912 77.7527C412.239 78.254 411.436 78.6471 410.502 78.9319C409.568 79.2053 408.514 79.342 407.34 79.342C405.643 79.342 404.207 79.0401 403.034 78.4363C401.86 77.821 400.972 77.0463 400.368 76.1121C399.764 75.1664 399.462 74.1866 399.462 73.1726H403.786C403.82 73.8904 404.014 74.4657 404.367 74.8987C404.72 75.3316 405.164 75.6449 405.7 75.8386C406.247 76.0209 406.822 76.1121 407.426 76.1121C408.109 76.1121 408.685 76.0209 409.152 75.8386C409.619 75.6449 409.972 75.3886 410.211 75.0696C410.451 74.7392 410.57 74.3632 410.57 73.9417ZM436.799 54.1174V79.0002H432.116V54.1174H436.799ZM444.523 54.1174V57.8259H424.477V54.1174H444.523ZM453.758 79.342C452.357 79.342 451.098 79.1142 449.981 78.6584C448.865 78.2027 447.914 77.5704 447.127 76.7615C446.353 75.9412 445.755 74.9898 445.333 73.9075C444.923 72.8137 444.718 71.6402 444.718 70.387V69.7034C444.718 68.2792 444.923 66.9861 445.333 65.824C445.743 64.6505 446.324 63.6422 447.076 62.7991C447.828 61.956 448.728 61.3066 449.776 60.8508C450.825 60.3951 451.981 60.1672 453.246 60.1672C454.556 60.1672 455.712 60.3894 456.715 60.8337C457.717 61.2667 458.555 61.8819 459.227 62.6794C459.899 63.477 460.406 64.434 460.748 65.5505C461.09 66.6557 461.261 67.8805 461.261 69.2249V71.1218H446.769V68.0115H456.817V67.6697C456.795 66.9519 456.658 66.2968 456.407 65.7043C456.157 65.1005 455.769 64.622 455.245 64.2688C454.721 63.9042 454.043 63.7219 453.211 63.7219C452.539 63.7219 451.952 63.87 451.451 64.1663C450.961 64.4511 450.551 64.8612 450.221 65.3967C449.902 65.9208 449.662 66.5474 449.503 67.2766C449.343 68.0058 449.264 68.8147 449.264 69.7034V70.387C449.264 71.1617 449.366 71.8795 449.571 72.5403C449.788 73.2011 450.101 73.7764 450.511 74.2664C450.933 74.7449 451.434 75.1208 452.015 75.3943C452.608 75.6563 453.28 75.7874 454.032 75.7874C454.977 75.7874 455.832 75.6051 456.595 75.2405C457.37 74.8645 458.042 74.3119 458.612 73.5828L460.885 75.9412C460.497 76.5108 459.973 77.0577 459.312 77.5818C458.663 78.1059 457.877 78.5331 456.954 78.8635C456.031 79.1825 454.966 79.342 453.758 79.342ZM474.221 75.0696V66.5417C474.221 65.9151 474.113 65.3739 473.896 64.9182C473.68 64.4625 473.35 64.1093 472.905 63.8586C472.461 63.608 471.897 63.4827 471.213 63.4827C470.61 63.4827 470.08 63.5852 469.624 63.7903C469.18 63.9954 468.838 64.2859 468.599 64.6619C468.359 65.0264 468.24 65.448 468.24 65.9265H463.711C463.711 65.1632 463.893 64.4397 464.258 63.7561C464.622 63.0611 465.141 62.4459 465.813 61.9104C466.497 61.3635 467.311 60.9363 468.257 60.6287C469.214 60.321 470.285 60.1672 471.47 60.1672C472.871 60.1672 474.119 60.4065 475.212 60.885C476.318 61.3521 477.183 62.0585 477.81 63.0042C478.448 63.9498 478.767 65.1404 478.767 66.5759V74.6423C478.767 75.5652 478.824 76.357 478.938 77.0178C479.063 77.6672 479.246 78.2312 479.485 78.7097V79.0002H474.888C474.671 78.5331 474.506 77.9407 474.392 77.2229C474.278 76.4937 474.221 75.776 474.221 75.0696ZM474.854 67.738L474.888 70.4211H472.034C471.327 70.4211 470.706 70.4952 470.171 70.6433C469.635 70.78 469.197 70.9851 468.855 71.2585C468.513 71.5206 468.257 71.8396 468.086 72.2156C467.915 72.5802 467.83 72.996 467.83 73.4631C467.83 73.9189 467.932 74.329 468.137 74.6936C468.354 75.0582 468.661 75.3487 469.06 75.5652C469.47 75.7703 469.949 75.8728 470.496 75.8728C471.293 75.8728 471.988 75.7133 472.581 75.3943C473.173 75.0639 473.634 74.6651 473.965 74.198C474.295 73.7309 474.472 73.2865 474.495 72.865L475.793 74.8132C475.634 75.2804 475.395 75.776 475.076 76.3C474.757 76.8241 474.347 77.314 473.845 77.7698C473.344 78.2255 472.74 78.6015 472.034 78.8977C471.327 79.1939 470.507 79.342 469.573 79.342C468.376 79.342 467.306 79.1028 466.36 78.6243C465.414 78.1458 464.668 77.4906 464.121 76.6589C463.574 75.8272 463.301 74.8816 463.301 73.822C463.301 72.8422 463.483 71.9763 463.848 71.2244C464.212 70.4724 464.753 69.8401 465.471 69.3274C466.189 68.8033 467.078 68.4102 468.137 68.1482C469.208 67.8748 470.433 67.738 471.812 67.738H474.854ZM487.079 64.303V79.0002H482.567V60.509H486.823L487.079 64.303ZM486.413 69.0881H485.028C485.028 67.8007 485.182 66.6158 485.49 65.5334C485.809 64.4511 486.276 63.5111 486.891 62.7136C487.506 61.9047 488.264 61.2781 489.164 60.8337C490.076 60.3894 491.129 60.1672 492.326 60.1672C493.157 60.1672 493.921 60.2926 494.616 60.5432C495.311 60.7825 495.909 61.1641 496.41 61.6882C496.923 62.2009 497.316 62.8731 497.589 63.7048C497.863 64.5251 498 65.5107 498 66.6614V79.0002H493.488V67.1228C493.488 66.2569 493.362 65.579 493.112 65.0891C492.873 64.5992 492.525 64.2574 492.069 64.0637C491.614 63.8586 491.067 63.7561 490.429 63.7561C489.722 63.7561 489.113 63.8985 488.6 64.1833C488.099 64.4568 487.683 64.8385 487.353 65.3284C487.034 65.8183 486.794 66.3822 486.635 67.0203C486.487 67.6583 486.413 68.3476 486.413 69.0881ZM497.658 68.2507L495.795 68.5925C495.806 67.4304 495.966 66.3424 496.273 65.3284C496.581 64.303 497.031 63.4086 497.624 62.6453C498.227 61.8705 498.974 61.2667 499.862 60.8337C500.762 60.3894 501.799 60.1672 502.973 60.1672C503.884 60.1672 504.704 60.2983 505.434 60.5603C506.174 60.811 506.806 61.2154 507.331 61.7737C507.855 62.3206 508.253 63.0326 508.527 63.9099C508.812 64.7872 508.954 65.8582 508.954 67.1228V79.0002H504.408V67.1057C504.408 66.2056 504.283 65.5164 504.032 65.0378C503.793 64.5593 503.445 64.2289 502.99 64.0466C502.534 63.8529 501.999 63.7561 501.383 63.7561C500.757 63.7561 500.21 63.8757 499.743 64.115C499.287 64.3429 498.9 64.6619 498.581 65.072C498.273 65.4822 498.039 65.9607 497.88 66.5076C497.732 67.0431 497.658 67.6241 497.658 68.2507ZM522.923 73.9417C522.923 73.5543 522.82 73.2068 522.615 72.8992C522.41 72.5916 522.023 72.3124 521.453 72.0618C520.895 71.7997 520.075 71.5548 518.992 71.3269C518.035 71.1218 517.152 70.8655 516.343 70.5579C515.534 70.2502 514.839 69.88 514.258 69.447C513.677 69.0027 513.222 68.4843 512.891 67.8918C512.572 67.288 512.413 66.593 512.413 65.8069C512.413 65.0435 512.578 64.3258 512.908 63.6536C513.239 62.97 513.717 62.3718 514.344 61.8591C514.97 61.335 515.734 60.9249 516.634 60.6287C517.534 60.321 518.548 60.1672 519.676 60.1672C521.248 60.1672 522.598 60.4236 523.726 60.9363C524.865 61.449 525.737 62.1554 526.341 63.0554C526.945 63.9441 527.247 64.9467 527.247 66.0632H522.735C522.735 65.5733 522.621 65.129 522.393 64.7302C522.177 64.3315 521.84 64.0125 521.385 63.7732C520.929 63.5225 520.354 63.3972 519.659 63.3972C519.032 63.3972 518.502 63.4998 518.069 63.7048C517.648 63.9099 517.329 64.1777 517.112 64.5081C516.896 64.8385 516.788 65.203 516.788 65.6018C516.788 65.898 516.845 66.1658 516.958 66.405C517.084 66.6329 517.283 66.8437 517.557 67.0374C517.83 67.231 518.2 67.4076 518.667 67.5671C519.146 67.7266 519.733 67.8805 520.428 68.0286C521.806 68.302 523.008 68.6666 524.034 69.1223C525.07 69.5667 525.879 70.1591 526.46 70.8997C527.042 71.6402 527.332 72.5859 527.332 73.7366C527.332 74.5569 527.155 75.3088 526.802 75.9924C526.449 76.6646 525.936 77.2514 525.264 77.7527C524.592 78.254 523.789 78.6471 522.854 78.9319C521.92 79.2053 520.866 79.342 519.693 79.342C517.995 79.342 516.56 79.0401 515.386 78.4363C514.213 77.821 513.324 77.0463 512.72 76.1121C512.116 75.1664 511.814 74.1866 511.814 73.1726H516.138C516.172 73.8904 516.366 74.4657 516.719 74.8987C517.072 75.3316 517.517 75.6449 518.052 75.8386C518.599 76.0209 519.174 76.1121 519.778 76.1121C520.462 76.1121 521.037 76.0209 521.504 75.8386C521.972 75.6449 522.325 75.3886 522.564 75.0696C522.803 74.7392 522.923 74.3632 522.923 73.9417Z" fill="#EDD5B1"/>
<path d="M305.617 114.218V115H298.902V114.218H305.617ZM299.219 102.203V115H298.322V102.203H299.219ZM311.119 115.176C310.51 115.176 309.947 115.062 309.432 114.833C308.916 114.605 308.468 114.282 308.087 113.866C307.706 113.445 307.41 112.949 307.199 112.381C306.988 111.807 306.883 111.177 306.883 110.491V110.114C306.883 109.387 306.988 108.731 307.199 108.145C307.416 107.559 307.712 107.055 308.087 106.633C308.468 106.205 308.901 105.88 309.388 105.657C309.874 105.429 310.39 105.315 310.935 105.315C311.509 105.315 312.024 105.42 312.481 105.631C312.944 105.836 313.337 106.129 313.659 106.51C313.981 106.891 314.225 107.342 314.389 107.864C314.559 108.379 314.644 108.95 314.644 109.577V110.193H307.419V109.428H313.773V109.314C313.768 108.745 313.653 108.218 313.431 107.732C313.214 107.24 312.895 106.841 312.473 106.536C312.057 106.232 311.544 106.079 310.935 106.079C310.46 106.079 310.026 106.182 309.634 106.387C309.247 106.586 308.913 106.867 308.632 107.231C308.351 107.588 308.134 108.013 307.981 108.505C307.829 108.991 307.753 109.528 307.753 110.114V110.491C307.753 111.036 307.835 111.546 307.999 112.021C308.169 112.495 308.403 112.911 308.702 113.269C309.007 113.626 309.367 113.907 309.783 114.113C310.199 114.318 310.653 114.42 311.146 114.42C311.702 114.42 312.203 114.321 312.648 114.121C313.094 113.916 313.498 113.579 313.861 113.111L314.415 113.532C314.21 113.837 313.955 114.115 313.65 114.367C313.346 114.614 312.985 114.81 312.569 114.956C312.153 115.103 311.67 115.176 311.119 115.176ZM322.589 113.269V108.365C322.589 107.89 322.489 107.483 322.29 107.143C322.091 106.797 321.798 106.533 321.411 106.352C321.03 106.164 320.559 106.071 319.996 106.071C319.48 106.071 319.018 106.161 318.607 106.343C318.203 106.525 317.881 106.771 317.641 107.081C317.406 107.392 317.289 107.738 317.289 108.118L316.428 108.101C316.428 107.743 316.513 107.398 316.683 107.064C316.858 106.73 317.104 106.431 317.421 106.167C317.743 105.904 318.124 105.696 318.563 105.543C319.009 105.391 319.498 105.315 320.031 105.315C320.705 105.315 321.297 105.429 321.807 105.657C322.322 105.88 322.727 106.22 323.02 106.677C323.312 107.128 323.459 107.697 323.459 108.382V113.031C323.459 113.36 323.482 113.699 323.529 114.051C323.576 114.403 323.646 114.687 323.74 114.904V115H322.8C322.729 114.783 322.677 114.517 322.642 114.2C322.606 113.878 322.589 113.568 322.589 113.269ZM322.826 109.533L322.844 110.245H320.655C320.087 110.245 319.58 110.298 319.135 110.404C318.695 110.503 318.32 110.65 318.01 110.843C317.705 111.036 317.471 111.271 317.307 111.546C317.143 111.816 317.061 112.12 317.061 112.46C317.061 112.812 317.151 113.134 317.333 113.427C317.515 113.72 317.772 113.954 318.106 114.13C318.446 114.3 318.842 114.385 319.293 114.385C319.902 114.385 320.441 114.277 320.91 114.06C321.385 113.843 321.777 113.553 322.088 113.19C322.398 112.821 322.618 112.407 322.747 111.95L323.125 112.504C323.037 112.803 322.891 113.111 322.686 113.427C322.48 113.738 322.214 114.025 321.886 114.288C321.558 114.552 321.171 114.766 320.726 114.93C320.286 115.094 319.782 115.176 319.214 115.176C318.604 115.176 318.071 115.062 317.614 114.833C317.163 114.599 316.812 114.282 316.56 113.884C316.313 113.48 316.19 113.023 316.19 112.513C316.19 112.062 316.29 111.655 316.489 111.291C316.688 110.922 316.976 110.609 317.351 110.351C317.726 110.087 318.183 109.885 318.722 109.744C319.261 109.604 319.867 109.533 320.541 109.533H322.826ZM332.591 113.155V101.5H333.461V115H332.635L332.591 113.155ZM325.92 110.342V110.157C325.92 109.413 326.002 108.745 326.166 108.154C326.336 107.556 326.579 107.046 326.896 106.624C327.212 106.202 327.593 105.88 328.038 105.657C328.489 105.429 328.999 105.315 329.567 105.315C330.112 105.315 330.596 105.403 331.018 105.578C331.439 105.754 331.803 106.003 332.107 106.325C332.412 106.648 332.661 107.029 332.854 107.468C333.048 107.907 333.191 108.394 333.285 108.927V111.757C333.215 112.243 333.083 112.695 332.89 113.111C332.702 113.527 332.453 113.89 332.143 114.2C331.838 114.511 331.469 114.751 331.035 114.921C330.602 115.091 330.106 115.176 329.55 115.176C328.987 115.176 328.48 115.059 328.029 114.824C327.584 114.59 327.203 114.259 326.887 113.831C326.576 113.398 326.336 112.888 326.166 112.302C326.002 111.71 325.92 111.057 325.92 110.342ZM326.799 110.157V110.342C326.799 110.916 326.857 111.452 326.975 111.95C327.092 112.443 327.268 112.87 327.502 113.234C327.736 113.597 328.035 113.881 328.398 114.086C328.762 114.291 329.189 114.394 329.682 114.394C330.303 114.394 330.827 114.28 331.255 114.051C331.683 113.817 332.025 113.506 332.283 113.119C332.541 112.733 332.726 112.308 332.837 111.845V108.918C332.767 108.614 332.664 108.297 332.529 107.969C332.395 107.641 332.207 107.336 331.967 107.055C331.727 106.768 331.422 106.536 331.053 106.361C330.684 106.185 330.232 106.097 329.699 106.097C329.201 106.097 328.771 106.199 328.407 106.405C328.044 106.61 327.742 106.897 327.502 107.266C327.268 107.629 327.092 108.057 326.975 108.549C326.857 109.041 326.799 109.577 326.799 110.157ZM346.425 112.601C346.425 112.337 346.354 112.073 346.214 111.81C346.073 111.54 345.812 111.294 345.432 111.072C345.051 110.843 344.494 110.653 343.762 110.5C343.234 110.383 342.766 110.254 342.355 110.114C341.945 109.967 341.6 109.791 341.318 109.586C341.043 109.381 340.832 109.138 340.686 108.857C340.545 108.57 340.475 108.233 340.475 107.846C340.475 107.494 340.551 107.166 340.703 106.862C340.855 106.557 341.075 106.29 341.362 106.062C341.649 105.827 341.995 105.646 342.399 105.517C342.81 105.382 343.27 105.315 343.779 105.315C344.506 105.315 345.127 105.438 345.643 105.684C346.158 105.924 346.554 106.255 346.829 106.677C347.11 107.099 347.251 107.579 347.251 108.118H346.381C346.381 107.767 346.278 107.439 346.073 107.134C345.874 106.823 345.581 106.572 345.194 106.378C344.808 106.179 344.336 106.079 343.779 106.079C343.199 106.079 342.73 106.167 342.373 106.343C342.016 106.519 341.755 106.739 341.591 107.002C341.427 107.266 341.345 107.538 341.345 107.82C341.345 108.042 341.377 108.244 341.441 108.426C341.512 108.608 341.641 108.778 341.828 108.936C342.016 109.094 342.282 109.243 342.628 109.384C342.979 109.519 343.434 109.651 343.99 109.78C344.758 109.949 345.382 110.157 345.862 110.404C346.349 110.644 346.706 110.94 346.935 111.291C347.169 111.643 347.286 112.068 347.286 112.566C347.286 112.952 347.204 113.307 347.04 113.629C346.882 113.946 346.65 114.221 346.346 114.455C346.047 114.684 345.684 114.863 345.256 114.991C344.834 115.115 344.362 115.176 343.841 115.176C343.044 115.176 342.373 115.047 341.828 114.789C341.283 114.531 340.87 114.192 340.589 113.77C340.308 113.348 340.167 112.894 340.167 112.407H341.037C341.072 112.917 341.233 113.319 341.521 113.612C341.813 113.905 342.168 114.113 342.584 114.236C343.006 114.353 343.425 114.411 343.841 114.411C344.403 114.411 344.875 114.326 345.256 114.156C345.643 113.981 345.933 113.755 346.126 113.48C346.325 113.204 346.425 112.911 346.425 112.601ZM353.166 114.411C353.623 114.411 354.054 114.326 354.458 114.156C354.868 113.981 355.208 113.72 355.478 113.374C355.753 113.029 355.908 112.595 355.943 112.073H356.778C356.749 112.689 356.567 113.231 356.233 113.699C355.899 114.168 355.463 114.531 354.924 114.789C354.391 115.047 353.805 115.176 353.166 115.176C352.516 115.176 351.941 115.059 351.443 114.824C350.945 114.584 350.526 114.25 350.187 113.823C349.853 113.395 349.598 112.894 349.422 112.32C349.252 111.74 349.167 111.11 349.167 110.43V110.061C349.167 109.381 349.252 108.754 349.422 108.18C349.598 107.6 349.853 107.096 350.187 106.668C350.526 106.24 350.942 105.909 351.435 105.675C351.933 105.435 352.507 105.315 353.157 105.315C353.813 105.315 354.408 105.449 354.941 105.719C355.48 105.983 355.914 106.366 356.242 106.87C356.57 107.368 356.749 107.969 356.778 108.672H355.943C355.914 108.121 355.771 107.656 355.513 107.275C355.255 106.888 354.921 106.592 354.511 106.387C354.101 106.182 353.649 106.079 353.157 106.079C352.601 106.079 352.123 106.188 351.725 106.405C351.332 106.615 351.01 106.908 350.758 107.283C350.512 107.653 350.327 108.074 350.204 108.549C350.087 109.024 350.028 109.528 350.028 110.061V110.43C350.028 110.963 350.087 111.47 350.204 111.95C350.321 112.425 350.506 112.847 350.758 113.216C351.01 113.585 351.335 113.878 351.733 114.095C352.132 114.306 352.609 114.411 353.166 114.411ZM358.352 110.404V110.087C358.352 109.396 358.451 108.76 358.65 108.18C358.85 107.594 359.134 107.087 359.503 106.659C359.872 106.232 360.314 105.901 360.83 105.666C361.352 105.432 361.929 105.315 362.562 105.315C363.2 105.315 363.777 105.432 364.293 105.666C364.814 105.901 365.26 106.232 365.629 106.659C366.004 107.087 366.291 107.594 366.49 108.18C366.689 108.76 366.789 109.396 366.789 110.087V110.404C366.789 111.095 366.689 111.734 366.49 112.32C366.291 112.9 366.004 113.404 365.629 113.831C365.26 114.259 364.817 114.59 364.302 114.824C363.786 115.059 363.212 115.176 362.579 115.176C361.94 115.176 361.36 115.059 360.839 114.824C360.323 114.59 359.878 114.259 359.503 113.831C359.134 113.404 358.85 112.9 358.65 112.32C358.451 111.734 358.352 111.095 358.352 110.404ZM359.213 110.087V110.404C359.213 110.937 359.286 111.447 359.433 111.933C359.585 112.413 359.802 112.841 360.083 113.216C360.37 113.585 360.722 113.878 361.138 114.095C361.56 114.306 362.04 114.411 362.579 114.411C363.112 114.411 363.584 114.306 363.994 114.095C364.41 113.878 364.759 113.585 365.04 113.216C365.327 112.841 365.544 112.413 365.69 111.933C365.843 111.447 365.919 110.937 365.919 110.404V110.087C365.919 109.566 365.843 109.065 365.69 108.584C365.544 108.104 365.327 107.676 365.04 107.301C364.753 106.926 364.401 106.63 363.985 106.413C363.569 106.191 363.095 106.079 362.562 106.079C362.028 106.079 361.554 106.191 361.138 106.413C360.722 106.63 360.37 106.926 360.083 107.301C359.796 107.676 359.579 108.104 359.433 108.584C359.286 109.065 359.213 109.566 359.213 110.087ZM369.874 107.09V115H369.004V105.49H369.856L369.874 107.09ZM373.372 105.42L373.337 106.211C373.226 106.194 373.114 106.182 373.003 106.176C372.897 106.164 372.783 106.158 372.66 106.158C372.18 106.158 371.758 106.249 371.395 106.431C371.031 106.613 370.727 106.865 370.48 107.187C370.24 107.509 370.056 107.884 369.927 108.312C369.804 108.734 369.736 109.191 369.725 109.683L369.364 109.788C369.364 109.15 369.429 108.561 369.558 108.022C369.692 107.477 369.897 107.002 370.173 106.598C370.448 106.194 370.794 105.88 371.21 105.657C371.626 105.429 372.118 105.315 372.687 105.315C372.821 105.315 372.95 105.326 373.073 105.35C373.202 105.367 373.302 105.391 373.372 105.42ZM376.044 105.49V115H375.174V105.49H376.044ZM374.972 102.669C374.972 102.493 375.03 102.344 375.147 102.221C375.265 102.092 375.42 102.028 375.613 102.028C375.812 102.028 375.971 102.092 376.088 102.221C376.211 102.344 376.272 102.493 376.272 102.669C376.272 102.845 376.211 102.994 376.088 103.117C375.971 103.24 375.812 103.302 375.613 103.302C375.42 103.302 375.265 103.24 375.147 103.117C375.03 102.994 374.972 102.845 374.972 102.669ZM379.858 107.521V115H378.988V105.49H379.832L379.858 107.521ZM379.674 109.586L379.278 109.243C379.319 108.716 379.437 108.215 379.63 107.74C379.823 107.266 380.084 106.847 380.412 106.484C380.74 106.12 381.127 105.836 381.572 105.631C382.018 105.42 382.507 105.315 383.04 105.315C383.515 105.315 383.939 105.379 384.314 105.508C384.689 105.637 385.006 105.842 385.264 106.123C385.527 106.405 385.727 106.768 385.861 107.213C386.002 107.653 386.072 108.189 386.072 108.822V115H385.202V108.813C385.202 108.11 385.103 107.562 384.903 107.169C384.71 106.777 384.438 106.498 384.086 106.334C383.74 106.17 383.33 106.088 382.855 106.088C382.322 106.088 381.859 106.205 381.467 106.44C381.074 106.674 380.746 106.973 380.482 107.336C380.225 107.699 380.028 108.083 379.894 108.488C379.759 108.886 379.686 109.252 379.674 109.586ZM395.16 105.49H395.978V114.842C395.978 115.662 395.825 116.368 395.521 116.96C395.216 117.558 394.782 118.015 394.22 118.331C393.663 118.648 393.004 118.806 392.242 118.806C391.826 118.806 391.416 118.744 391.012 118.621C390.607 118.498 390.229 118.314 389.878 118.068C389.532 117.827 389.236 117.534 388.99 117.189L389.5 116.653C389.881 117.121 390.291 117.47 390.73 117.698C391.17 117.927 391.656 118.041 392.189 118.041C392.816 118.041 393.347 117.912 393.78 117.655C394.214 117.403 394.542 117.039 394.765 116.565C394.993 116.09 395.107 115.525 395.107 114.868V107.582L395.16 105.49ZM388.445 110.342V110.157C388.445 109.413 388.527 108.745 388.691 108.154C388.855 107.556 389.093 107.046 389.403 106.624C389.72 106.202 390.104 105.88 390.555 105.657C391.006 105.429 391.516 105.315 392.084 105.315C392.629 105.315 393.112 105.403 393.534 105.578C393.956 105.754 394.319 106.003 394.624 106.325C394.935 106.648 395.187 107.029 395.38 107.468C395.573 107.907 395.717 108.394 395.811 108.927V111.757C395.734 112.243 395.603 112.695 395.415 113.111C395.228 113.527 394.979 113.89 394.668 114.2C394.357 114.511 393.985 114.751 393.552 114.921C393.124 115.091 392.629 115.176 392.066 115.176C391.504 115.176 390.997 115.059 390.546 114.824C390.101 114.59 389.72 114.259 389.403 113.831C389.093 113.398 388.855 112.888 388.691 112.302C388.527 111.71 388.445 111.057 388.445 110.342ZM389.315 110.157V110.342C389.315 110.916 389.374 111.452 389.491 111.95C389.608 112.443 389.784 112.87 390.019 113.234C390.259 113.597 390.558 113.881 390.915 114.086C391.278 114.291 391.706 114.394 392.198 114.394C392.819 114.394 393.344 114.28 393.771 114.051C394.199 113.817 394.539 113.506 394.791 113.119C395.043 112.733 395.222 112.308 395.327 111.845V108.918C395.263 108.614 395.163 108.297 395.028 107.969C394.899 107.641 394.715 107.336 394.475 107.055C394.24 106.768 393.938 106.536 393.569 106.361C393.2 106.185 392.749 106.097 392.216 106.097C391.718 106.097 391.287 106.199 390.924 106.405C390.561 106.61 390.259 106.897 390.019 107.266C389.784 107.629 389.608 108.057 389.491 108.549C389.374 109.041 389.315 109.577 389.315 110.157ZM399.687 113.418V114.631C399.687 115.17 399.584 115.674 399.379 116.143C399.174 116.617 398.898 117.019 398.553 117.347L398.025 116.943C398.201 116.708 398.351 116.471 398.474 116.231C398.597 115.996 398.688 115.75 398.746 115.492C398.805 115.235 398.834 114.953 398.834 114.649V113.418H399.687ZM408.221 115H407.351V104.26C407.351 103.621 407.459 103.085 407.676 102.652C407.893 102.212 408.203 101.881 408.607 101.658C409.018 101.43 409.501 101.316 410.058 101.316C410.239 101.316 410.427 101.327 410.62 101.351C410.813 101.368 411.001 101.406 411.183 101.465L411.104 102.212C410.957 102.171 410.808 102.142 410.655 102.124C410.509 102.107 410.33 102.098 410.119 102.098C409.727 102.098 409.387 102.183 409.1 102.353C408.818 102.523 408.602 102.769 408.449 103.091C408.297 103.407 408.221 103.797 408.221 104.26V115ZM410.567 105.49V106.238H405.751V105.49H410.567ZM411.859 110.404V110.087C411.859 109.396 411.959 108.76 412.158 108.18C412.357 107.594 412.642 107.087 413.011 106.659C413.38 106.232 413.822 105.901 414.338 105.666C414.859 105.432 415.437 105.315 416.069 105.315C416.708 105.315 417.285 105.432 417.801 105.666C418.322 105.901 418.768 106.232 419.137 106.659C419.512 107.087 419.799 107.594 419.998 108.18C420.197 108.76 420.297 109.396 420.297 110.087V110.404C420.297 111.095 420.197 111.734 419.998 112.32C419.799 112.9 419.512 113.404 419.137 113.831C418.768 114.259 418.325 114.59 417.81 114.824C417.294 115.059 416.72 115.176 416.087 115.176C415.448 115.176 414.868 115.059 414.347 114.824C413.831 114.59 413.386 114.259 413.011 113.831C412.642 113.404 412.357 112.9 412.158 112.32C411.959 111.734 411.859 111.095 411.859 110.404ZM412.721 110.087V110.404C412.721 110.937 412.794 111.447 412.94 111.933C413.093 112.413 413.31 112.841 413.591 113.216C413.878 113.585 414.229 113.878 414.646 114.095C415.067 114.306 415.548 114.411 416.087 114.411C416.62 114.411 417.092 114.306 417.502 114.095C417.918 113.878 418.267 113.585 418.548 113.216C418.835 112.841 419.052 112.413 419.198 111.933C419.351 111.447 419.427 110.937 419.427 110.404V110.087C419.427 109.566 419.351 109.065 419.198 108.584C419.052 108.104 418.835 107.676 418.548 107.301C418.261 106.926 417.909 106.63 417.493 106.413C417.077 106.191 416.603 106.079 416.069 106.079C415.536 106.079 415.062 106.191 414.646 106.413C414.229 106.63 413.878 106.926 413.591 107.301C413.304 107.676 413.087 108.104 412.94 108.584C412.794 109.065 412.721 109.566 412.721 110.087ZM423.505 101.5V115H422.635V101.5H423.505ZM427.442 101.5V115H426.572V101.5H427.442ZM429.771 110.404V110.087C429.771 109.396 429.871 108.76 430.07 108.18C430.27 107.594 430.554 107.087 430.923 106.659C431.292 106.232 431.734 105.901 432.25 105.666C432.771 105.432 433.349 105.315 433.981 105.315C434.62 105.315 435.197 105.432 435.713 105.666C436.234 105.901 436.68 106.232 437.049 106.659C437.424 107.087 437.711 107.594 437.91 108.18C438.109 108.76 438.209 109.396 438.209 110.087V110.404C438.209 111.095 438.109 111.734 437.91 112.32C437.711 112.9 437.424 113.404 437.049 113.831C436.68 114.259 436.237 114.59 435.722 114.824C435.206 115.059 434.632 115.176 433.999 115.176C433.36 115.176 432.78 115.059 432.259 114.824C431.743 114.59 431.298 114.259 430.923 113.831C430.554 113.404 430.27 112.9 430.07 112.32C429.871 111.734 429.771 111.095 429.771 110.404ZM430.633 110.087V110.404C430.633 110.937 430.706 111.447 430.853 111.933C431.005 112.413 431.222 112.841 431.503 113.216C431.79 113.585 432.142 113.878 432.558 114.095C432.979 114.306 433.46 114.411 433.999 114.411C434.532 114.411 435.004 114.306 435.414 114.095C435.83 113.878 436.179 113.585 436.46 113.216C436.747 112.841 436.964 112.413 437.11 111.933C437.263 111.447 437.339 110.937 437.339 110.404V110.087C437.339 109.566 437.263 109.065 437.11 108.584C436.964 108.104 436.747 107.676 436.46 107.301C436.173 106.926 435.821 106.63 435.405 106.413C434.989 106.191 434.515 106.079 433.981 106.079C433.448 106.079 432.974 106.191 432.558 106.413C432.142 106.63 431.79 106.926 431.503 107.301C431.216 107.676 430.999 108.104 430.853 108.584C430.706 109.065 430.633 109.566 430.633 110.087ZM443.14 112.61L445.381 105.49H446.031L445.513 107.582L443.14 115H442.489L443.14 112.61ZM440.529 105.49L442.524 112.645L443.034 115H442.375L439.615 105.49H440.529ZM449.046 112.618L450.997 105.49H451.911L449.143 115H448.492L449.046 112.618ZM446.146 105.49L448.369 112.566L449.028 115H448.387L445.961 107.573L445.478 105.49H446.146ZM457.246 108.901V109.674H453.062V108.901H457.246ZM465.42 112.803V105.49H466.299V115H465.446L465.42 112.803ZM465.578 111.115L466.07 111.098C466.07 111.684 466 112.226 465.859 112.724C465.719 113.216 465.496 113.647 465.191 114.016C464.893 114.385 464.506 114.672 464.031 114.877C463.557 115.076 462.988 115.176 462.326 115.176C461.863 115.176 461.438 115.112 461.052 114.983C460.671 114.848 460.34 114.637 460.059 114.35C459.783 114.063 459.569 113.691 459.417 113.234C459.271 112.771 459.197 112.214 459.197 111.564V105.49H460.067V111.581C460.067 112.109 460.126 112.554 460.243 112.917C460.366 113.275 460.533 113.562 460.744 113.779C460.961 113.995 461.21 114.154 461.491 114.253C461.772 114.347 462.077 114.394 462.405 114.394C463.202 114.394 463.832 114.241 464.295 113.937C464.758 113.626 465.086 113.222 465.279 112.724C465.479 112.22 465.578 111.684 465.578 111.115ZM469.973 107.319V118.656H469.103V105.49H469.92L469.973 107.319ZM476.644 110.157V110.342C476.644 111.057 476.562 111.71 476.397 112.302C476.239 112.888 476.005 113.398 475.694 113.831C475.39 114.259 475.012 114.59 474.561 114.824C474.115 115.059 473.605 115.176 473.031 115.176C472.475 115.176 471.977 115.094 471.537 114.93C471.098 114.76 470.72 114.523 470.403 114.218C470.087 113.907 469.832 113.547 469.639 113.137C469.445 112.727 469.313 112.284 469.243 111.81V108.927C469.337 108.394 469.483 107.907 469.683 107.468C469.882 107.029 470.137 106.648 470.447 106.325C470.758 106.003 471.127 105.754 471.555 105.578C471.982 105.403 472.469 105.315 473.014 105.315C473.588 105.315 474.101 105.429 474.552 105.657C475.003 105.88 475.384 106.202 475.694 106.624C476.005 107.046 476.239 107.556 476.397 108.154C476.562 108.745 476.644 109.413 476.644 110.157ZM475.765 110.342V110.157C475.765 109.577 475.706 109.041 475.589 108.549C475.472 108.057 475.293 107.629 475.053 107.266C474.818 106.897 474.517 106.61 474.147 106.405C473.784 106.199 473.354 106.097 472.855 106.097C472.322 106.097 471.868 106.185 471.493 106.361C471.124 106.536 470.819 106.768 470.579 107.055C470.345 107.336 470.157 107.641 470.017 107.969C469.882 108.297 469.782 108.614 469.718 108.918V111.889C469.829 112.346 470.014 112.765 470.271 113.146C470.529 113.527 470.872 113.834 471.3 114.069C471.733 114.297 472.258 114.411 472.873 114.411C473.365 114.411 473.793 114.309 474.156 114.104C474.52 113.893 474.818 113.606 475.053 113.242C475.293 112.873 475.472 112.443 475.589 111.95C475.706 111.452 475.765 110.916 475.765 110.342ZM489.265 113.269V108.365C489.265 107.89 489.165 107.483 488.966 107.143C488.767 106.797 488.474 106.533 488.087 106.352C487.706 106.164 487.234 106.071 486.672 106.071C486.156 106.071 485.693 106.161 485.283 106.343C484.879 106.525 484.557 106.771 484.316 107.081C484.082 107.392 483.965 107.738 483.965 108.118L483.104 108.101C483.104 107.743 483.188 107.398 483.358 107.064C483.534 106.73 483.78 106.431 484.097 106.167C484.419 105.904 484.8 105.696 485.239 105.543C485.685 105.391 486.174 105.315 486.707 105.315C487.381 105.315 487.973 105.429 488.482 105.657C488.998 105.88 489.402 106.22 489.695 106.677C489.988 107.128 490.135 107.697 490.135 108.382V113.031C490.135 113.36 490.158 113.699 490.205 114.051C490.252 114.403 490.322 114.687 490.416 114.904V115H489.476C489.405 114.783 489.353 114.517 489.317 114.2C489.282 113.878 489.265 113.568 489.265 113.269ZM489.502 109.533L489.52 110.245H487.331C486.763 110.245 486.256 110.298 485.811 110.404C485.371 110.503 484.996 110.65 484.686 110.843C484.381 111.036 484.146 111.271 483.982 111.546C483.818 111.816 483.736 112.12 483.736 112.46C483.736 112.812 483.827 113.134 484.009 113.427C484.19 113.72 484.448 113.954 484.782 114.13C485.122 114.3 485.518 114.385 485.969 114.385C486.578 114.385 487.117 114.277 487.586 114.06C488.061 113.843 488.453 113.553 488.764 113.19C489.074 112.821 489.294 112.407 489.423 111.95L489.801 112.504C489.713 112.803 489.566 113.111 489.361 113.427C489.156 113.738 488.89 114.025 488.562 114.288C488.233 114.552 487.847 114.766 487.401 114.93C486.962 115.094 486.458 115.176 485.89 115.176C485.28 115.176 484.747 115.062 484.29 114.833C483.839 114.599 483.487 114.282 483.235 113.884C482.989 113.48 482.866 113.023 482.866 112.513C482.866 112.062 482.966 111.655 483.165 111.291C483.364 110.922 483.651 110.609 484.026 110.351C484.401 110.087 484.858 109.885 485.397 109.744C485.937 109.604 486.543 109.533 487.217 109.533H489.502ZM499.205 112.803V105.49H500.084V115H499.231L499.205 112.803ZM499.363 111.115L499.855 111.098C499.855 111.684 499.785 112.226 499.645 112.724C499.504 113.216 499.281 113.647 498.977 114.016C498.678 114.385 498.291 114.672 497.816 114.877C497.342 115.076 496.773 115.176 496.111 115.176C495.648 115.176 495.224 115.112 494.837 114.983C494.456 114.848 494.125 114.637 493.844 114.35C493.568 114.063 493.354 113.691 493.202 113.234C493.056 112.771 492.982 112.214 492.982 111.564V105.49H493.853V111.581C493.853 112.109 493.911 112.554 494.028 112.917C494.151 113.275 494.318 113.562 494.529 113.779C494.746 113.995 494.995 114.154 495.276 114.253C495.558 114.347 495.862 114.394 496.19 114.394C496.987 114.394 497.617 114.241 498.08 113.937C498.543 113.626 498.871 113.222 499.064 112.724C499.264 112.22 499.363 111.684 499.363 111.115ZM506.386 105.49V106.238H501.728V105.49H506.386ZM503.477 103.012H504.355V112.698C504.355 113.172 504.414 113.532 504.531 113.779C504.654 114.019 504.815 114.18 505.015 114.262C505.214 114.344 505.428 114.385 505.656 114.385C505.82 114.385 505.973 114.376 506.113 114.359C506.26 114.341 506.4 114.321 506.535 114.297L506.588 115.044C506.459 115.085 506.292 115.117 506.087 115.141C505.882 115.164 505.688 115.176 505.507 115.176C505.103 115.176 504.748 115.103 504.443 114.956C504.139 114.804 503.901 114.549 503.731 114.192C503.562 113.828 503.477 113.33 503.477 112.698V103.012ZM507.871 110.404V110.087C507.871 109.396 507.971 108.76 508.17 108.18C508.369 107.594 508.653 107.087 509.022 106.659C509.392 106.232 509.834 105.901 510.35 105.666C510.871 105.432 511.448 105.315 512.081 105.315C512.72 105.315 513.297 105.432 513.812 105.666C514.334 105.901 514.779 106.232 515.148 106.659C515.523 107.087 515.811 107.594 516.01 108.18C516.209 108.76 516.309 109.396 516.309 110.087V110.404C516.309 111.095 516.209 111.734 516.01 112.32C515.811 112.9 515.523 113.404 515.148 113.831C514.779 114.259 514.337 114.59 513.821 114.824C513.306 115.059 512.731 115.176 512.099 115.176C511.46 115.176 510.88 115.059 510.358 114.824C509.843 114.59 509.397 114.259 509.022 113.831C508.653 113.404 508.369 112.9 508.17 112.32C507.971 111.734 507.871 111.095 507.871 110.404ZM508.732 110.087V110.404C508.732 110.937 508.806 111.447 508.952 111.933C509.104 112.413 509.321 112.841 509.603 113.216C509.89 113.585 510.241 113.878 510.657 114.095C511.079 114.306 511.56 114.411 512.099 114.411C512.632 114.411 513.104 114.306 513.514 114.095C513.93 113.878 514.278 113.585 514.56 113.216C514.847 112.841 515.063 112.413 515.21 111.933C515.362 111.447 515.438 110.937 515.438 110.404V110.087C515.438 109.566 515.362 109.065 515.21 108.584C515.063 108.104 514.847 107.676 514.56 107.301C514.272 106.926 513.921 106.63 513.505 106.413C513.089 106.191 512.614 106.079 512.081 106.079C511.548 106.079 511.073 106.191 510.657 106.413C510.241 106.63 509.89 106.926 509.603 107.301C509.315 107.676 509.099 108.104 508.952 108.584C508.806 109.065 508.732 109.566 508.732 110.087ZM519.332 107.477V115H518.453V105.49H519.306L519.332 107.477ZM519.183 109.586L518.752 109.243C518.793 108.716 518.904 108.215 519.086 107.74C519.273 107.266 519.528 106.847 519.851 106.484C520.173 106.12 520.554 105.836 520.993 105.631C521.438 105.42 521.939 105.315 522.496 105.315C522.965 105.315 523.387 105.379 523.762 105.508C524.143 105.631 524.465 105.827 524.729 106.097C524.992 106.361 525.194 106.706 525.335 107.134C525.481 107.562 525.555 108.074 525.555 108.672V115H524.685V108.698C524.685 108.025 524.582 107.5 524.377 107.125C524.178 106.75 523.896 106.484 523.533 106.325C523.17 106.167 522.751 106.088 522.276 106.088C521.72 106.088 521.248 106.205 520.861 106.44C520.475 106.674 520.158 106.973 519.912 107.336C519.672 107.699 519.493 108.083 519.376 108.488C519.259 108.886 519.194 109.252 519.183 109.586ZM525.546 108.778L524.966 108.698C525.007 108.259 525.121 107.837 525.309 107.433C525.496 107.023 525.751 106.659 526.073 106.343C526.396 106.027 526.779 105.778 527.225 105.596C527.67 105.408 528.165 105.315 528.71 105.315C529.196 105.315 529.63 105.382 530.011 105.517C530.397 105.646 530.723 105.854 530.986 106.141C531.256 106.422 531.458 106.782 531.593 107.222C531.733 107.661 531.804 108.192 531.804 108.813V115H530.934V108.813C530.934 108.098 530.831 107.544 530.626 107.152C530.427 106.753 530.146 106.475 529.782 106.317C529.419 106.158 529 106.082 528.525 106.088C528.033 106.094 527.603 106.185 527.233 106.361C526.87 106.536 526.565 106.762 526.319 107.037C526.079 107.307 525.895 107.597 525.766 107.907C525.637 108.212 525.563 108.502 525.546 108.778ZM540.382 113.269V108.365C540.382 107.89 540.282 107.483 540.083 107.143C539.884 106.797 539.591 106.533 539.204 106.352C538.823 106.164 538.352 106.071 537.789 106.071C537.273 106.071 536.811 106.161 536.4 106.343C535.996 106.525 535.674 106.771 535.434 107.081C535.199 107.392 535.082 107.738 535.082 108.118L534.221 108.101C534.221 107.743 534.306 107.398 534.476 107.064C534.651 106.73 534.897 106.431 535.214 106.167C535.536 105.904 535.917 105.696 536.356 105.543C536.802 105.391 537.291 105.315 537.824 105.315C538.498 105.315 539.09 105.429 539.6 105.657C540.115 105.88 540.52 106.22 540.812 106.677C541.105 107.128 541.252 107.697 541.252 108.382V113.031C541.252 113.36 541.275 113.699 541.322 114.051C541.369 114.403 541.439 114.687 541.533 114.904V115H540.593C540.522 114.783 540.47 114.517 540.435 114.2C540.399 113.878 540.382 113.568 540.382 113.269ZM540.619 109.533L540.637 110.245H538.448C537.88 110.245 537.373 110.298 536.928 110.404C536.488 110.503 536.113 110.65 535.803 110.843C535.498 111.036 535.264 111.271 535.1 111.546C534.936 111.816 534.854 112.12 534.854 112.46C534.854 112.812 534.944 113.134 535.126 113.427C535.308 113.72 535.565 113.954 535.899 114.13C536.239 114.3 536.635 114.385 537.086 114.385C537.695 114.385 538.234 114.277 538.703 114.06C539.178 113.843 539.57 113.553 539.881 113.19C540.191 112.821 540.411 112.407 540.54 111.95L540.918 112.504C540.83 112.803 540.684 113.111 540.479 113.427C540.273 113.738 540.007 114.025 539.679 114.288C539.351 114.552 538.964 114.766 538.519 114.93C538.079 115.094 537.575 115.176 537.007 115.176C536.397 115.176 535.864 115.062 535.407 114.833C534.956 114.599 534.604 114.282 534.353 113.884C534.106 113.48 533.983 113.023 533.983 112.513C533.983 112.062 534.083 111.655 534.282 111.291C534.481 110.922 534.769 110.609 535.144 110.351C535.519 110.087 535.976 109.885 536.515 109.744C537.054 109.604 537.66 109.533 538.334 109.533H540.619ZM547.624 105.49V106.238H542.966V105.49H547.624ZM544.715 103.012H545.594V112.698C545.594 113.172 545.652 113.532 545.77 113.779C545.893 114.019 546.054 114.18 546.253 114.262C546.452 114.344 546.666 114.385 546.895 114.385C547.059 114.385 547.211 114.376 547.352 114.359C547.498 114.341 547.639 114.321 547.773 114.297L547.826 115.044C547.697 115.085 547.53 115.117 547.325 115.141C547.12 115.164 546.927 115.176 546.745 115.176C546.341 115.176 545.986 115.103 545.682 114.956C545.377 114.804 545.14 114.549 544.97 114.192C544.8 113.828 544.715 113.33 544.715 112.698V103.012ZM550.894 105.49V115H550.023V105.49H550.894ZM549.821 102.669C549.821 102.493 549.88 102.344 549.997 102.221C550.114 102.092 550.27 102.028 550.463 102.028C550.662 102.028 550.82 102.092 550.938 102.221C551.061 102.344 551.122 102.493 551.122 102.669C551.122 102.845 551.061 102.994 550.938 103.117C550.82 103.24 550.662 103.302 550.463 103.302C550.27 103.302 550.114 103.24 549.997 103.117C549.88 102.994 549.821 102.845 549.821 102.669ZM553.223 110.404V110.087C553.223 109.396 553.322 108.76 553.521 108.18C553.721 107.594 554.005 107.087 554.374 106.659C554.743 106.232 555.186 105.901 555.701 105.666C556.223 105.432 556.8 105.315 557.433 105.315C558.071 105.315 558.648 105.432 559.164 105.666C559.686 105.901 560.131 106.232 560.5 106.659C560.875 107.087 561.162 107.594 561.361 108.18C561.561 108.76 561.66 109.396 561.66 110.087V110.404C561.66 111.095 561.561 111.734 561.361 112.32C561.162 112.9 560.875 113.404 560.5 113.831C560.131 114.259 559.688 114.59 559.173 114.824C558.657 115.059 558.083 115.176 557.45 115.176C556.812 115.176 556.231 115.059 555.71 114.824C555.194 114.59 554.749 114.259 554.374 113.831C554.005 113.404 553.721 112.9 553.521 112.32C553.322 111.734 553.223 111.095 553.223 110.404ZM554.084 110.087V110.404C554.084 110.937 554.157 111.447 554.304 111.933C554.456 112.413 554.673 112.841 554.954 113.216C555.241 113.585 555.593 113.878 556.009 114.095C556.431 114.306 556.911 114.411 557.45 114.411C557.983 114.411 558.455 114.306 558.865 114.095C559.281 113.878 559.63 113.585 559.911 113.216C560.198 112.841 560.415 112.413 560.562 111.933C560.714 111.447 560.79 110.937 560.79 110.404V110.087C560.79 109.566 560.714 109.065 560.562 108.584C560.415 108.104 560.198 107.676 559.911 107.301C559.624 106.926 559.272 106.63 558.856 106.413C558.44 106.191 557.966 106.079 557.433 106.079C556.899 106.079 556.425 106.191 556.009 106.413C555.593 106.63 555.241 106.926 554.954 107.301C554.667 107.676 554.45 108.104 554.304 108.584C554.157 109.065 554.084 109.566 554.084 110.087ZM564.745 107.521V115H563.875V105.49H564.719L564.745 107.521ZM564.561 109.586L564.165 109.243C564.206 108.716 564.323 108.215 564.517 107.74C564.71 107.266 564.971 106.847 565.299 106.484C565.627 106.12 566.014 105.836 566.459 105.631C566.904 105.42 567.394 105.315 567.927 105.315C568.401 105.315 568.826 105.379 569.201 105.508C569.576 105.637 569.893 105.842 570.15 106.123C570.414 106.405 570.613 106.768 570.748 107.213C570.889 107.653 570.959 108.189 570.959 108.822V115H570.089V108.813C570.089 108.11 569.989 107.562 569.79 107.169C569.597 106.777 569.324 106.498 568.973 106.334C568.627 106.17 568.217 106.088 567.742 106.088C567.209 106.088 566.746 106.205 566.354 106.44C565.961 106.674 565.633 106.973 565.369 107.336C565.111 107.699 564.915 108.083 564.78 108.488C564.646 108.886 564.572 109.252 564.561 109.586Z" fill="white"/>
<mask id="path-7-outside-1_448_1209" maskUnits="userSpaceOnUse" x="0" y="48.0002" width="63" height="82" fill="black">
<rect fill="white" y="48.0002" width="63" height="82"/>
<path d="M57.5254 97.217V109.912H6.35352L5.37695 99.8538L33.9414 53.9065H46.9297L32.8184 77.0022L21.0996 97.217H57.5254ZM50.3477 53.9065V125H33.8926V53.9065H50.3477Z"/>
</mask>
<path d="M57.5254 97.217H62.5254V92.217H57.5254V97.217ZM57.5254 109.912V114.912H62.5254V109.912H57.5254ZM6.35352 109.912L1.37692 110.396L1.81544 114.912H6.35352V109.912ZM5.37695 99.8538L1.13064 97.2139L0.236746 98.6518L0.400353 100.337L5.37695 99.8538ZM33.9414 53.9065V48.9065H31.1623L29.6951 51.2666L33.9414 53.9065ZM46.9297 53.9065L51.1963 56.5134L55.8441 48.9065H46.9297V53.9065ZM32.8184 77.0022L28.5517 74.3953L28.5216 74.4446L28.4927 74.4945L32.8184 77.0022ZM21.0996 97.217L16.7739 94.7094L12.4216 102.217H21.0996V97.217ZM50.3477 53.9065H55.3477V48.9065H50.3477V53.9065ZM50.3477 125V130H55.3477V125H50.3477ZM33.8926 125H28.8926V130H33.8926V125ZM33.8926 53.9065V48.9065H28.8926V53.9065H33.8926ZM57.5254 97.217H52.5254V109.912H57.5254H62.5254V97.217H57.5254ZM57.5254 109.912V104.912H6.35352V109.912V114.912H57.5254V109.912ZM6.35352 109.912L11.3301 109.429L10.3536 99.3706L5.37695 99.8538L0.400353 100.337L1.37692 110.396L6.35352 109.912ZM5.37695 99.8538L9.62327 102.494L38.1877 56.5463L33.9414 53.9065L29.6951 51.2666L1.13064 97.2139L5.37695 99.8538ZM33.9414 53.9065V58.9065H46.9297V53.9065V48.9065H33.9414V53.9065ZM46.9297 53.9065L42.6631 51.2996L28.5517 74.3953L32.8184 77.0022L37.085 79.6091L51.1963 56.5134L46.9297 53.9065ZM32.8184 77.0022L28.4927 74.4945L16.7739 94.7094L21.0996 97.217L25.4253 99.7247L37.1441 79.5098L32.8184 77.0022ZM21.0996 97.217V102.217H57.5254V97.217V92.217H21.0996V97.217ZM50.3477 53.9065H45.3477V125H50.3477H55.3477V53.9065H50.3477ZM50.3477 125V120H33.8926V125V130H50.3477V125ZM33.8926 125H38.8926V53.9065H33.8926H28.8926V125H33.8926ZM33.8926 53.9065V58.9065H50.3477V53.9065V48.9065H33.8926V53.9065Z" fill="#1A5069" mask="url(#path-7-outside-1_448_1209)"/>
<defs>
<radialGradient id="paint0_radial_448_1209" cx="0" cy="0" r="1" gradientUnits="userSpaceOnUse" gradientTransform="translate(96.2629 367.631) scale(96.2629 367.631)">
<stop stop-color="#1A5069"/>
<stop offset="1" stop-color="#0F7BAE" stop-opacity="0"/>
</radialGradient>
<radialGradient id="paint1_radial_448_1209" cx="0" cy="0" r="1" gradientUnits="userSpaceOnUse" gradientTransform="translate(96.2629 367.631) scale(96.2629 367.631)">
<stop stop-color="#1A5069"/>
<stop offset="1" stop-color="#0F7BAE" stop-opacity="0"/>
</radialGradient>
</defs>
</svg>
