<svg width="795" height="180" viewBox="0 0 795 180" fill="none" xmlns="http://www.w3.org/2000/svg">
<mask id="mask0_448_1176" style="mask-type:alpha" maskUnits="userSpaceOnUse" x="68" y="0" width="727" height="180">
<rect x="-1.00159" y="0.995166" width="174.036" height="724.019" rx="87.0179" transform="matrix(-0.00160036 0.999999 -0.999988 -0.00483255 794.285 5.51011)" fill="black" stroke="#136A93" stroke-width="2"/>
</mask>
<g mask="url(#mask0_448_1176)">
<rect width="192.526" height="735.262" rx="47.5" transform="matrix(-0.00160036 0.999999 -0.999988 -0.00483255 1069.4 68.4429)" fill="url(#paint0_radial_448_1176)" fill-opacity="0.74"/>
<rect width="192.526" height="735.262" rx="47.5" transform="matrix(-0.00160036 0.999999 -0.999988 -0.00483255 528.426 -57.9541)" fill="url(#paint1_radial_448_1176)" fill-opacity="0.74"/>
</g>
<rect x="71.291" y="1.54663" width="722.708" height="175.235" rx="87.6177" fill="#D9D9D9" fill-opacity="0.14" stroke="#136A93" stroke-width="2"/>
<path d="M332.144 75.3088V79.0002H318.917V75.3088H332.144ZM320.352 54.1174V79.0002H315.652V54.1174H320.352ZM330.418 64.3884V67.9944H318.917V64.3884H330.418ZM332.093 54.1174V57.8259H318.917V54.1174H332.093ZM343.806 66.5588V70.1306H334.458V66.5588H343.806ZM355.006 75.7874C355.644 75.7874 356.214 75.662 356.715 75.4114C357.216 75.1607 357.615 74.8075 357.911 74.3518C358.219 73.8961 358.384 73.3663 358.407 72.7625H362.662C362.639 74.0157 362.286 75.1379 361.603 76.1292C360.919 77.1204 360.007 77.9065 358.868 78.4875C357.74 79.0572 356.476 79.342 355.074 79.342C353.65 79.342 352.408 79.1028 351.349 78.6243C350.289 78.1458 349.406 77.4792 348.7 76.6248C348.005 75.7703 347.481 74.7791 347.127 73.6511C346.786 72.5232 346.615 71.3155 346.615 70.0281V69.4812C346.615 68.1938 346.786 66.9861 347.127 65.8582C347.481 64.7302 348.005 63.739 348.7 62.8845C349.406 62.03 350.289 61.3635 351.349 60.885C352.408 60.4065 353.644 60.1672 355.057 60.1672C356.55 60.1672 357.86 60.4578 358.988 61.0388C360.127 61.6199 361.016 62.4402 361.654 63.4998C362.303 64.5593 362.639 65.8069 362.662 67.2424H358.407C358.384 66.5816 358.236 65.9892 357.962 65.4651C357.689 64.941 357.302 64.5194 356.8 64.2004C356.299 63.8814 355.689 63.7219 354.972 63.7219C354.208 63.7219 353.57 63.8814 353.058 64.2004C352.556 64.5194 352.163 64.9581 351.878 65.5164C351.605 66.0632 351.411 66.6785 351.297 67.3621C351.195 68.0343 351.144 68.7406 351.144 69.4812V70.0281C351.144 70.78 351.195 71.4978 351.297 72.1814C351.411 72.865 351.605 73.4802 351.878 74.0271C352.163 74.5626 352.556 74.9898 353.058 75.3088C353.57 75.6278 354.22 75.7874 355.006 75.7874ZM364.617 69.9426V69.5837C364.617 68.2279 364.81 66.9804 365.198 65.8411C365.585 64.6903 366.149 63.6934 366.89 62.8503C367.63 62.0072 368.536 61.3521 369.607 60.885C370.678 60.4065 371.897 60.1672 373.264 60.1672C374.654 60.1672 375.885 60.4065 376.956 60.885C378.038 61.3521 378.949 62.0072 379.69 62.8503C380.431 63.6934 380.994 64.6903 381.382 65.8411C381.769 66.9804 381.963 68.2279 381.963 69.5837V69.9426C381.963 71.287 381.769 72.5346 381.382 73.6853C380.994 74.8246 380.431 75.8215 379.69 76.676C378.949 77.5191 378.044 78.1742 376.973 78.6414C375.902 79.1085 374.677 79.342 373.298 79.342C371.931 79.342 370.706 79.1085 369.624 78.6414C368.542 78.1742 367.63 77.5191 366.89 76.676C366.149 75.8215 365.585 74.8246 365.198 73.6853C364.81 72.5346 364.617 71.287 364.617 69.9426ZM369.128 69.5837V69.9426C369.128 70.7515 369.208 71.5092 369.368 72.2156C369.527 72.922 369.772 73.5429 370.103 74.0784C370.433 74.6139 370.86 75.0354 371.384 75.343C371.92 75.6392 372.558 75.7874 373.298 75.7874C374.028 75.7874 374.654 75.6392 375.178 75.343C375.702 75.0354 376.13 74.6139 376.46 74.0784C376.802 73.5429 377.052 72.922 377.212 72.2156C377.371 71.5092 377.451 70.7515 377.451 69.9426V69.5837C377.451 68.7862 377.371 68.04 377.212 67.345C377.052 66.6386 376.802 66.0177 376.46 65.4822C376.13 64.9353 375.697 64.5081 375.161 64.2004C374.637 63.8814 374.005 63.7219 373.264 63.7219C372.535 63.7219 371.908 63.8814 371.384 64.2004C370.86 64.5081 370.433 64.9353 370.103 65.4822C369.772 66.0177 369.527 66.6386 369.368 67.345C369.208 68.04 369.128 68.7862 369.128 69.5837ZM389.489 64.303V79.0002H384.977V60.509H389.232L389.489 64.303ZM388.822 69.0881H387.438C387.438 67.8007 387.592 66.6158 387.899 65.5334C388.218 64.4511 388.686 63.5111 389.301 62.7136C389.916 61.9047 390.674 61.2781 391.574 60.8337C392.485 60.3894 393.539 60.1672 394.735 60.1672C395.567 60.1672 396.33 60.2926 397.025 60.5432C397.72 60.7825 398.319 61.1641 398.82 61.6882C399.333 62.2009 399.726 62.8731 399.999 63.7048C400.272 64.5251 400.409 65.5107 400.409 66.6614V79.0002H395.897V67.1228C395.897 66.2569 395.772 65.579 395.521 65.0891C395.282 64.5992 394.935 64.2574 394.479 64.0637C394.023 63.8586 393.476 63.7561 392.838 63.7561C392.132 63.7561 391.522 63.8985 391.01 64.1833C390.508 64.4568 390.093 64.8385 389.762 65.3284C389.443 65.8183 389.204 66.3822 389.044 67.0203C388.896 67.6583 388.822 68.3476 388.822 69.0881ZM400.067 68.2507L398.205 68.5925C398.216 67.4304 398.375 66.3424 398.683 65.3284C398.991 64.303 399.441 63.4086 400.033 62.6453C400.637 61.8705 401.383 61.2667 402.272 60.8337C403.172 60.3894 404.209 60.1672 405.382 60.1672C406.294 60.1672 407.114 60.2983 407.843 60.5603C408.584 60.811 409.216 61.2154 409.74 61.7737C410.264 62.3206 410.663 63.0326 410.937 63.9099C411.221 64.7872 411.364 65.8582 411.364 67.1228V79.0002H406.818V67.1057C406.818 66.2056 406.693 65.5164 406.442 65.0378C406.203 64.5593 405.855 64.2289 405.399 64.0466C404.944 63.8529 404.408 63.7561 403.793 63.7561C403.166 63.7561 402.619 63.8757 402.152 64.115C401.697 64.3429 401.309 64.6619 400.99 65.072C400.683 65.4822 400.449 65.9607 400.29 66.5076C400.141 67.0431 400.067 67.6241 400.067 68.2507ZM419.659 64.303V79.0002H415.147V60.509H419.402L419.659 64.303ZM418.992 69.0881H417.608C417.608 67.8007 417.762 66.6158 418.069 65.5334C418.388 64.4511 418.855 63.5111 419.471 62.7136C420.086 61.9047 420.844 61.2781 421.744 60.8337C422.655 60.3894 423.709 60.1672 424.905 60.1672C425.737 60.1672 426.5 60.2926 427.195 60.5432C427.89 60.7825 428.488 61.1641 428.99 61.6882C429.502 62.2009 429.896 62.8731 430.169 63.7048C430.442 64.5251 430.579 65.5107 430.579 66.6614V79.0002H426.067V67.1228C426.067 66.2569 425.942 65.579 425.691 65.0891C425.452 64.5992 425.105 64.2574 424.649 64.0637C424.193 63.8586 423.646 63.7561 423.008 63.7561C422.302 63.7561 421.692 63.8985 421.18 64.1833C420.678 64.4568 420.263 64.8385 419.932 65.3284C419.613 65.8183 419.374 66.3822 419.214 67.0203C419.066 67.6583 418.992 68.3476 418.992 69.0881ZM430.237 68.2507L428.375 68.5925C428.386 67.4304 428.545 66.3424 428.853 65.3284C429.161 64.303 429.611 63.4086 430.203 62.6453C430.807 61.8705 431.553 61.2667 432.442 60.8337C433.342 60.3894 434.379 60.1672 435.552 60.1672C436.464 60.1672 437.284 60.2983 438.013 60.5603C438.754 60.811 439.386 61.2154 439.91 61.7737C440.434 62.3206 440.833 63.0326 441.106 63.9099C441.391 64.7872 441.534 65.8582 441.534 67.1228V79.0002H436.988V67.1057C436.988 66.2056 436.862 65.5164 436.612 65.0378C436.373 64.5593 436.025 64.2289 435.569 64.0466C435.114 63.8529 434.578 63.7561 433.963 63.7561C433.336 63.7561 432.789 63.8757 432.322 64.115C431.867 64.3429 431.479 64.6619 431.16 65.072C430.853 65.4822 430.619 65.9607 430.459 66.5076C430.311 67.0431 430.237 67.6241 430.237 68.2507ZM453.64 79.342C452.238 79.342 450.979 79.1142 449.863 78.6584C448.746 78.2027 447.795 77.5704 447.009 76.7615C446.234 75.9412 445.636 74.9898 445.214 73.9075C444.804 72.8137 444.599 71.6402 444.599 70.387V69.7034C444.599 68.2792 444.804 66.9861 445.214 65.824C445.625 64.6505 446.206 63.6422 446.958 62.7991C447.709 61.956 448.61 61.3066 449.658 60.8508C450.706 60.3951 451.862 60.1672 453.127 60.1672C454.437 60.1672 455.594 60.3894 456.596 60.8337C457.599 61.2667 458.436 61.8819 459.108 62.6794C459.781 63.477 460.288 64.434 460.629 65.5505C460.971 66.6557 461.142 67.8805 461.142 69.2249V71.1218H446.65V68.0115H456.699V67.6697C456.676 66.9519 456.539 66.2968 456.289 65.7043C456.038 65.1005 455.651 64.622 455.126 64.2688C454.602 63.9042 453.924 63.7219 453.093 63.7219C452.421 63.7219 451.834 63.87 451.333 64.1663C450.843 64.4511 450.432 64.8612 450.102 65.3967C449.783 65.9208 449.544 66.5474 449.384 67.2766C449.225 68.0058 449.145 68.8147 449.145 69.7034V70.387C449.145 71.1617 449.248 71.8795 449.453 72.5403C449.669 73.2011 449.982 73.7764 450.393 74.2664C450.814 74.7449 451.315 75.1208 451.896 75.3943C452.489 75.6563 453.161 75.7874 453.913 75.7874C454.859 75.7874 455.713 75.6051 456.477 75.2405C457.251 74.8645 457.924 74.3119 458.493 73.5828L460.766 75.9412C460.379 76.5108 459.855 77.0577 459.194 77.5818C458.544 78.1059 457.758 78.5331 456.835 78.8635C455.913 79.1825 454.847 79.342 453.64 79.342ZM468.429 64.2859V79.0002H463.917V60.509H468.189L468.429 64.2859ZM474.051 60.3894L473.983 64.5935C473.732 64.5479 473.447 64.5138 473.128 64.491C472.821 64.4682 472.53 64.4568 472.257 64.4568C471.562 64.4568 470.952 64.5536 470.428 64.7473C469.904 64.9296 469.465 65.1973 469.112 65.5505C468.771 65.9037 468.508 66.3367 468.326 66.8494C468.144 67.3507 468.041 67.9203 468.019 68.5583L467.044 68.4387C467.044 67.2652 467.164 66.1772 467.403 65.1746C467.643 64.172 467.99 63.2947 468.446 62.5427C468.902 61.7908 469.471 61.2097 470.155 60.7996C470.85 60.378 471.647 60.1672 472.547 60.1672C472.798 60.1672 473.066 60.19 473.351 60.2356C473.647 60.2698 473.88 60.321 474.051 60.3894ZM483.525 75.7874C484.163 75.7874 484.733 75.662 485.234 75.4114C485.736 75.1607 486.134 74.8075 486.431 74.3518C486.738 73.8961 486.903 73.3663 486.926 72.7625H491.182C491.159 74.0157 490.806 75.1379 490.122 76.1292C489.438 77.1204 488.527 77.9065 487.388 78.4875C486.26 79.0572 484.995 79.342 483.594 79.342C482.17 79.342 480.928 79.1028 479.868 78.6243C478.809 78.1458 477.926 77.4792 477.219 76.6248C476.524 75.7703 476 74.7791 475.647 73.6511C475.305 72.5232 475.134 71.3155 475.134 70.0281V69.4812C475.134 68.1938 475.305 66.9861 475.647 65.8582C476 64.7302 476.524 63.739 477.219 62.8845C477.926 62.03 478.809 61.3635 479.868 60.885C480.928 60.4065 482.164 60.1672 483.577 60.1672C485.069 60.1672 486.379 60.4578 487.507 61.0388C488.647 61.6199 489.535 62.4402 490.173 63.4998C490.823 64.5593 491.159 65.8069 491.182 67.2424H486.926C486.903 66.5816 486.755 65.9892 486.482 65.4651C486.208 64.941 485.821 64.5194 485.32 64.2004C484.819 63.8814 484.209 63.7219 483.491 63.7219C482.728 63.7219 482.09 63.8814 481.577 64.2004C481.076 64.5194 480.683 64.9581 480.398 65.5164C480.125 66.0632 479.931 66.6785 479.817 67.3621C479.714 68.0343 479.663 68.7406 479.663 69.4812V70.0281C479.663 70.78 479.714 71.4978 479.817 72.1814C479.931 72.865 480.125 73.4802 480.398 74.0271C480.683 74.5626 481.076 74.9898 481.577 75.3088C482.09 75.6278 482.739 75.7874 483.525 75.7874ZM502.245 79.342C500.844 79.342 499.585 79.1142 498.468 78.6584C497.352 78.2027 496.4 77.5704 495.614 76.7615C494.84 75.9412 494.241 74.9898 493.82 73.9075C493.41 72.8137 493.205 71.6402 493.205 70.387V69.7034C493.205 68.2792 493.41 66.9861 493.82 65.824C494.23 64.6505 494.811 63.6422 495.563 62.7991C496.315 61.956 497.215 61.3066 498.263 60.8508C499.311 60.3951 500.468 60.1672 501.732 60.1672C503.043 60.1672 504.199 60.3894 505.202 60.8337C506.204 61.2667 507.042 61.8819 507.714 62.6794C508.386 63.477 508.893 64.434 509.235 65.5505C509.577 66.6557 509.748 67.8805 509.748 69.2249V71.1218H495.255V68.0115H505.304V67.6697C505.281 66.9519 505.145 66.2968 504.894 65.7043C504.643 65.1005 504.256 64.622 503.732 64.2688C503.208 63.9042 502.53 63.7219 501.698 63.7219C501.026 63.7219 500.439 63.87 499.938 64.1663C499.448 64.4511 499.038 64.8612 498.708 65.3967C498.389 65.9208 498.149 66.5474 497.99 67.2766C497.83 68.0058 497.75 68.8147 497.75 69.7034V70.387C497.75 71.1617 497.853 71.8795 498.058 72.5403C498.275 73.2011 498.588 73.7764 498.998 74.2664C499.42 74.7449 499.921 75.1208 500.502 75.3943C501.094 75.6563 501.767 75.7874 502.519 75.7874C503.464 75.7874 504.319 75.6051 505.082 75.2405C505.857 74.8645 506.529 74.3119 507.099 73.5828L509.372 75.9412C508.984 76.5108 508.46 77.0577 507.799 77.5818C507.15 78.1059 506.364 78.5331 505.441 78.8635C504.518 79.1825 503.453 79.342 502.245 79.342Z" fill="#EDD5B1"/>
<path d="M209.966 111.88C209.966 111.511 209.901 111.183 209.772 110.896C209.649 110.609 209.447 110.351 209.166 110.122C208.885 109.888 208.513 109.674 208.05 109.481C207.587 109.281 207.013 109.085 206.327 108.892C205.683 108.716 205.1 108.523 204.578 108.312C204.062 108.095 203.623 107.849 203.26 107.573C202.896 107.298 202.618 106.976 202.425 106.607C202.231 106.232 202.135 105.789 202.135 105.28C202.135 104.787 202.24 104.342 202.451 103.944C202.662 103.545 202.958 103.205 203.339 102.924C203.726 102.637 204.18 102.417 204.701 102.265C205.223 102.107 205.794 102.028 206.415 102.028C207.288 102.028 208.05 102.195 208.7 102.529C209.351 102.863 209.854 103.317 210.212 103.891C210.575 104.465 210.757 105.113 210.757 105.833H209.869C209.869 105.253 209.729 104.738 209.447 104.286C209.172 103.829 208.776 103.469 208.261 103.205C207.745 102.942 207.13 102.81 206.415 102.81C205.677 102.81 205.056 102.924 204.552 103.153C204.048 103.375 203.667 103.671 203.409 104.04C203.151 104.409 203.022 104.817 203.022 105.262C203.022 105.578 203.081 105.871 203.198 106.141C203.315 106.405 203.509 106.651 203.778 106.879C204.054 107.108 204.42 107.322 204.877 107.521C205.34 107.72 205.914 107.91 206.6 108.092C207.262 108.268 207.856 108.467 208.384 108.69C208.911 108.906 209.359 109.161 209.729 109.454C210.098 109.747 210.379 110.09 210.572 110.483C210.766 110.875 210.862 111.335 210.862 111.863C210.862 112.384 210.751 112.85 210.528 113.26C210.312 113.67 210.004 114.019 209.605 114.306C209.207 114.587 208.741 114.804 208.208 114.956C207.681 115.103 207.104 115.176 206.477 115.176C205.92 115.176 205.36 115.106 204.798 114.965C204.235 114.824 203.723 114.602 203.26 114.297C202.797 113.992 202.425 113.6 202.144 113.119C201.862 112.633 201.722 112.044 201.722 111.353H202.609C202.609 111.927 202.724 112.407 202.952 112.794C203.187 113.181 203.494 113.491 203.875 113.726C204.256 113.96 204.672 114.13 205.123 114.236C205.58 114.341 206.031 114.394 206.477 114.394C207.174 114.394 207.783 114.288 208.305 114.077C208.826 113.866 209.233 113.573 209.526 113.198C209.819 112.818 209.966 112.378 209.966 111.88ZM213.815 107.477V115H212.937V105.49H213.789L213.815 107.477ZM213.666 109.586L213.235 109.243C213.276 108.716 213.388 108.215 213.569 107.74C213.757 107.266 214.012 106.847 214.334 106.484C214.656 106.12 215.037 105.836 215.477 105.631C215.922 105.42 216.423 105.315 216.979 105.315C217.448 105.315 217.87 105.379 218.245 105.508C218.626 105.631 218.948 105.827 219.212 106.097C219.476 106.361 219.678 106.706 219.818 107.134C219.965 107.562 220.038 108.074 220.038 108.672V115H219.168V108.698C219.168 108.025 219.065 107.5 218.86 107.125C218.661 106.75 218.38 106.484 218.017 106.325C217.653 106.167 217.234 106.088 216.76 106.088C216.203 106.088 215.731 106.205 215.345 106.44C214.958 106.674 214.642 106.973 214.396 107.336C214.155 107.699 213.977 108.083 213.859 108.488C213.742 108.886 213.678 109.252 213.666 109.586ZM220.029 108.778L219.449 108.698C219.49 108.259 219.604 107.837 219.792 107.433C219.979 107.023 220.234 106.659 220.557 106.343C220.879 106.027 221.263 105.778 221.708 105.596C222.153 105.408 222.648 105.315 223.193 105.315C223.68 105.315 224.113 105.382 224.494 105.517C224.881 105.646 225.206 105.854 225.47 106.141C225.739 106.422 225.941 106.782 226.076 107.222C226.217 107.661 226.287 108.192 226.287 108.813V115H225.417V108.813C225.417 108.098 225.314 107.544 225.109 107.152C224.91 106.753 224.629 106.475 224.266 106.317C223.902 106.158 223.483 106.082 223.009 106.088C222.517 106.094 222.086 106.185 221.717 106.361C221.354 106.536 221.049 106.762 220.803 107.037C220.562 107.307 220.378 107.597 220.249 107.907C220.12 108.212 220.047 108.502 220.029 108.778ZM234.865 113.269V108.365C234.865 107.89 234.766 107.483 234.566 107.143C234.367 106.797 234.074 106.533 233.688 106.352C233.307 106.164 232.835 106.071 232.272 106.071C231.757 106.071 231.294 106.161 230.884 106.343C230.479 106.525 230.157 106.771 229.917 107.081C229.683 107.392 229.565 107.738 229.565 108.118L228.704 108.101C228.704 107.743 228.789 107.398 228.959 107.064C229.135 106.73 229.381 106.431 229.697 106.167C230.02 105.904 230.4 105.696 230.84 105.543C231.285 105.391 231.774 105.315 232.308 105.315C232.981 105.315 233.573 105.429 234.083 105.657C234.599 105.88 235.003 106.22 235.296 106.677C235.589 107.128 235.735 107.697 235.735 108.382V113.031C235.735 113.36 235.759 113.699 235.806 114.051C235.853 114.403 235.923 114.687 236.017 114.904V115H235.076C235.006 114.783 234.953 114.517 234.918 114.2C234.883 113.878 234.865 113.568 234.865 113.269ZM235.103 109.533L235.12 110.245H232.932C232.363 110.245 231.856 110.298 231.411 110.404C230.972 110.503 230.597 110.65 230.286 110.843C229.981 111.036 229.747 111.271 229.583 111.546C229.419 111.816 229.337 112.12 229.337 112.46C229.337 112.812 229.428 113.134 229.609 113.427C229.791 113.72 230.049 113.954 230.383 114.13C230.723 114.3 231.118 114.385 231.569 114.385C232.179 114.385 232.718 114.277 233.187 114.06C233.661 113.843 234.054 113.553 234.364 113.19C234.675 112.821 234.895 112.407 235.023 111.95L235.401 112.504C235.313 112.803 235.167 113.111 234.962 113.427C234.757 113.738 234.49 114.025 234.162 114.288C233.834 114.552 233.447 114.766 233.002 114.93C232.562 115.094 232.059 115.176 231.49 115.176C230.881 115.176 230.348 115.062 229.891 114.833C229.439 114.599 229.088 114.282 228.836 113.884C228.59 113.48 228.467 113.023 228.467 112.513C228.467 112.062 228.566 111.655 228.766 111.291C228.965 110.922 229.252 110.609 229.627 110.351C230.002 110.087 230.459 109.885 230.998 109.744C231.537 109.604 232.144 109.533 232.817 109.533H235.103ZM239.488 107.09V115H238.618V105.49H239.471L239.488 107.09ZM242.986 105.42L242.951 106.211C242.84 106.194 242.729 106.182 242.617 106.176C242.512 106.164 242.397 106.158 242.274 106.158C241.794 106.158 241.372 106.249 241.009 106.431C240.646 106.613 240.341 106.865 240.095 107.187C239.854 107.509 239.67 107.884 239.541 108.312C239.418 108.734 239.351 109.191 239.339 109.683L238.979 109.788C238.979 109.15 239.043 108.561 239.172 108.022C239.307 107.477 239.512 107.002 239.787 106.598C240.062 106.194 240.408 105.88 240.824 105.657C241.24 105.429 241.732 105.315 242.301 105.315C242.436 105.315 242.564 105.326 242.688 105.35C242.816 105.367 242.916 105.391 242.986 105.42ZM248.594 105.49V106.238H243.936V105.49H248.594ZM245.685 103.012H246.563V112.698C246.563 113.172 246.622 113.532 246.739 113.779C246.862 114.019 247.023 114.18 247.223 114.262C247.422 114.344 247.636 114.385 247.864 114.385C248.028 114.385 248.181 114.376 248.321 114.359C248.468 114.341 248.608 114.321 248.743 114.297L248.796 115.044C248.667 115.085 248.5 115.117 248.295 115.141C248.09 115.164 247.896 115.176 247.715 115.176C247.311 115.176 246.956 115.103 246.651 114.956C246.347 114.804 246.109 114.549 245.939 114.192C245.77 113.828 245.685 113.33 245.685 112.698V103.012ZM256.091 107.319V118.656H255.221V105.49H256.038L256.091 107.319ZM262.762 110.157V110.342C262.762 111.057 262.68 111.71 262.516 112.302C262.357 112.888 262.123 113.398 261.812 113.831C261.508 114.259 261.13 114.59 260.679 114.824C260.233 115.059 259.724 115.176 259.149 115.176C258.593 115.176 258.095 115.094 257.655 114.93C257.216 114.76 256.838 114.523 256.521 114.218C256.205 113.907 255.95 113.547 255.757 113.137C255.563 112.727 255.432 112.284 255.361 111.81V108.927C255.455 108.394 255.602 107.907 255.801 107.468C256 107.029 256.255 106.648 256.565 106.325C256.876 106.003 257.245 105.754 257.673 105.578C258.101 105.403 258.587 105.315 259.132 105.315C259.706 105.315 260.219 105.429 260.67 105.657C261.121 105.88 261.502 106.202 261.812 106.624C262.123 107.046 262.357 107.556 262.516 108.154C262.68 108.745 262.762 109.413 262.762 110.157ZM261.883 110.342V110.157C261.883 109.577 261.824 109.041 261.707 108.549C261.59 108.057 261.411 107.629 261.171 107.266C260.937 106.897 260.635 106.61 260.266 106.405C259.902 106.199 259.472 106.097 258.974 106.097C258.44 106.097 257.986 106.185 257.611 106.361C257.242 106.536 256.938 106.768 256.697 107.055C256.463 107.336 256.275 107.641 256.135 107.969C256 108.297 255.9 108.614 255.836 108.918V111.889C255.947 112.346 256.132 112.765 256.39 113.146C256.647 113.527 256.99 113.834 257.418 114.069C257.852 114.297 258.376 114.411 258.991 114.411C259.483 114.411 259.911 114.309 260.274 114.104C260.638 113.893 260.937 113.606 261.171 113.242C261.411 112.873 261.59 112.443 261.707 111.95C261.824 111.452 261.883 110.916 261.883 110.342ZM266.049 107.09V115H265.179V105.49H266.031L266.049 107.09ZM269.547 105.42L269.512 106.211C269.4 106.194 269.289 106.182 269.178 106.176C269.072 106.164 268.958 106.158 268.835 106.158C268.354 106.158 267.933 106.249 267.569 106.431C267.206 106.613 266.901 106.865 266.655 107.187C266.415 107.509 266.23 107.884 266.102 108.312C265.979 108.734 265.911 109.191 265.899 109.683L265.539 109.788C265.539 109.15 265.604 108.561 265.732 108.022C265.867 107.477 266.072 107.002 266.348 106.598C266.623 106.194 266.969 105.88 267.385 105.657C267.801 105.429 268.293 105.315 268.861 105.315C268.996 105.315 269.125 105.326 269.248 105.35C269.377 105.367 269.477 105.391 269.547 105.42ZM270.435 110.404V110.087C270.435 109.396 270.534 108.76 270.733 108.18C270.933 107.594 271.217 107.087 271.586 106.659C271.955 106.232 272.397 105.901 272.913 105.666C273.435 105.432 274.012 105.315 274.645 105.315C275.283 105.315 275.86 105.432 276.376 105.666C276.897 105.901 277.343 106.232 277.712 106.659C278.087 107.087 278.374 107.594 278.573 108.18C278.772 108.76 278.872 109.396 278.872 110.087V110.404C278.872 111.095 278.772 111.734 278.573 112.32C278.374 112.9 278.087 113.404 277.712 113.831C277.343 114.259 276.9 114.59 276.385 114.824C275.869 115.059 275.295 115.176 274.662 115.176C274.023 115.176 273.443 115.059 272.922 114.824C272.406 114.59 271.961 114.259 271.586 113.831C271.217 113.404 270.933 112.9 270.733 112.32C270.534 111.734 270.435 111.095 270.435 110.404ZM271.296 110.087V110.404C271.296 110.937 271.369 111.447 271.516 111.933C271.668 112.413 271.885 112.841 272.166 113.216C272.453 113.585 272.805 113.878 273.221 114.095C273.643 114.306 274.123 114.411 274.662 114.411C275.195 114.411 275.667 114.306 276.077 114.095C276.493 113.878 276.842 113.585 277.123 113.216C277.41 112.841 277.627 112.413 277.773 111.933C277.926 111.447 278.002 110.937 278.002 110.404V110.087C278.002 109.566 277.926 109.065 277.773 108.584C277.627 108.104 277.41 107.676 277.123 107.301C276.836 106.926 276.484 106.63 276.068 106.413C275.652 106.191 275.178 106.079 274.645 106.079C274.111 106.079 273.637 106.191 273.221 106.413C272.805 106.63 272.453 106.926 272.166 107.301C271.879 107.676 271.662 108.104 271.516 108.584C271.369 109.065 271.296 109.566 271.296 110.087ZM287.336 113.155V101.5H288.206V115H287.38L287.336 113.155ZM280.665 110.342V110.157C280.665 109.413 280.747 108.745 280.911 108.154C281.081 107.556 281.324 107.046 281.641 106.624C281.957 106.202 282.338 105.88 282.783 105.657C283.234 105.429 283.744 105.315 284.312 105.315C284.857 105.315 285.341 105.403 285.763 105.578C286.185 105.754 286.548 106.003 286.853 106.325C287.157 106.648 287.406 107.029 287.6 107.468C287.793 107.907 287.937 108.394 288.03 108.927V111.757C287.96 112.243 287.828 112.695 287.635 113.111C287.447 113.527 287.198 113.89 286.888 114.2C286.583 114.511 286.214 114.751 285.78 114.921C285.347 115.091 284.852 115.176 284.295 115.176C283.732 115.176 283.226 115.059 282.774 114.824C282.329 114.59 281.948 114.259 281.632 113.831C281.321 113.398 281.081 112.888 280.911 112.302C280.747 111.71 280.665 111.057 280.665 110.342ZM281.544 110.157V110.342C281.544 110.916 281.603 111.452 281.72 111.95C281.837 112.443 282.013 112.87 282.247 113.234C282.481 113.597 282.78 113.881 283.144 114.086C283.507 114.291 283.935 114.394 284.427 114.394C285.048 114.394 285.572 114.28 286 114.051C286.428 113.817 286.771 113.506 287.028 113.119C287.286 112.733 287.471 112.308 287.582 111.845V108.918C287.512 108.614 287.409 108.297 287.274 107.969C287.14 107.641 286.952 107.336 286.712 107.055C286.472 106.768 286.167 106.536 285.798 106.361C285.429 106.185 284.978 106.097 284.444 106.097C283.946 106.097 283.516 106.199 283.152 106.405C282.789 106.61 282.487 106.897 282.247 107.266C282.013 107.629 281.837 108.057 281.72 108.549C281.603 109.041 281.544 109.577 281.544 110.157ZM297.241 112.803V105.49H298.12V115H297.268L297.241 112.803ZM297.399 111.115L297.892 111.098C297.892 111.684 297.821 112.226 297.681 112.724C297.54 113.216 297.317 113.647 297.013 114.016C296.714 114.385 296.327 114.672 295.853 114.877C295.378 115.076 294.81 115.176 294.147 115.176C293.685 115.176 293.26 115.112 292.873 114.983C292.492 114.848 292.161 114.637 291.88 114.35C291.604 114.063 291.391 113.691 291.238 113.234C291.092 112.771 291.019 112.214 291.019 111.564V105.49H291.889V111.581C291.889 112.109 291.947 112.554 292.064 112.917C292.188 113.275 292.354 113.562 292.565 113.779C292.782 113.995 293.031 114.154 293.312 114.253C293.594 114.347 293.898 114.394 294.227 114.394C295.023 114.394 295.653 114.241 296.116 113.937C296.579 113.626 296.907 113.222 297.101 112.724C297.3 112.22 297.399 111.684 297.399 111.115ZM304.36 114.411C304.817 114.411 305.248 114.326 305.652 114.156C306.062 113.981 306.402 113.72 306.672 113.374C306.947 113.029 307.103 112.595 307.138 112.073H307.973C307.943 112.689 307.762 113.231 307.428 113.699C307.094 114.168 306.657 114.531 306.118 114.789C305.585 115.047 304.999 115.176 304.36 115.176C303.71 115.176 303.136 115.059 302.638 114.824C302.14 114.584 301.721 114.25 301.381 113.823C301.047 113.395 300.792 112.894 300.616 112.32C300.446 111.74 300.361 111.11 300.361 110.43V110.061C300.361 109.381 300.446 108.754 300.616 108.18C300.792 107.6 301.047 107.096 301.381 106.668C301.721 106.24 302.137 105.909 302.629 105.675C303.127 105.435 303.701 105.315 304.352 105.315C305.008 105.315 305.603 105.449 306.136 105.719C306.675 105.983 307.108 106.366 307.437 106.87C307.765 107.368 307.943 107.969 307.973 108.672H307.138C307.108 108.121 306.965 107.656 306.707 107.275C306.449 106.888 306.115 106.592 305.705 106.387C305.295 106.182 304.844 106.079 304.352 106.079C303.795 106.079 303.317 106.188 302.919 106.405C302.526 106.615 302.204 106.908 301.952 107.283C301.706 107.653 301.521 108.074 301.398 108.549C301.281 109.024 301.223 109.528 301.223 110.061V110.43C301.223 110.963 301.281 111.47 301.398 111.95C301.516 112.425 301.7 112.847 301.952 113.216C302.204 113.585 302.529 113.878 302.928 114.095C303.326 114.306 303.804 114.411 304.36 114.411ZM313.65 105.49V106.238H308.992V105.49H313.65ZM310.741 103.012H311.62V112.698C311.62 113.172 311.679 113.532 311.796 113.779C311.919 114.019 312.08 114.18 312.279 114.262C312.479 114.344 312.692 114.385 312.921 114.385C313.085 114.385 313.237 114.376 313.378 114.359C313.524 114.341 313.665 114.321 313.8 114.297L313.853 115.044C313.724 115.085 313.557 115.117 313.352 115.141C313.146 115.164 312.953 115.176 312.771 115.176C312.367 115.176 312.013 115.103 311.708 114.956C311.403 114.804 311.166 114.549 310.996 114.192C310.826 113.828 310.741 113.33 310.741 112.698V103.012ZM326.043 112.601C326.043 112.337 325.973 112.073 325.832 111.81C325.691 111.54 325.431 111.294 325.05 111.072C324.669 110.843 324.112 110.653 323.38 110.5C322.853 110.383 322.384 110.254 321.974 110.114C321.563 109.967 321.218 109.791 320.937 109.586C320.661 109.381 320.45 109.138 320.304 108.857C320.163 108.57 320.093 108.233 320.093 107.846C320.093 107.494 320.169 107.166 320.321 106.862C320.474 106.557 320.693 106.29 320.98 106.062C321.268 105.827 321.613 105.646 322.018 105.517C322.428 105.382 322.888 105.315 323.397 105.315C324.124 105.315 324.745 105.438 325.261 105.684C325.776 105.924 326.172 106.255 326.447 106.677C326.729 107.099 326.869 107.579 326.869 108.118H325.999C325.999 107.767 325.896 107.439 325.691 107.134C325.492 106.823 325.199 106.572 324.812 106.378C324.426 106.179 323.954 106.079 323.397 106.079C322.817 106.079 322.349 106.167 321.991 106.343C321.634 106.519 321.373 106.739 321.209 107.002C321.045 107.266 320.963 107.538 320.963 107.82C320.963 108.042 320.995 108.244 321.06 108.426C321.13 108.608 321.259 108.778 321.446 108.936C321.634 109.094 321.9 109.243 322.246 109.384C322.598 109.519 323.052 109.651 323.608 109.78C324.376 109.949 325 110.157 325.48 110.404C325.967 110.644 326.324 110.94 326.553 111.291C326.787 111.643 326.904 112.068 326.904 112.566C326.904 112.952 326.822 113.307 326.658 113.629C326.5 113.946 326.269 114.221 325.964 114.455C325.665 114.684 325.302 114.863 324.874 114.991C324.452 115.115 323.98 115.176 323.459 115.176C322.662 115.176 321.991 115.047 321.446 114.789C320.901 114.531 320.488 114.192 320.207 113.77C319.926 113.348 319.785 112.894 319.785 112.407H320.655C320.69 112.917 320.852 113.319 321.139 113.612C321.432 113.905 321.786 114.113 322.202 114.236C322.624 114.353 323.043 114.411 323.459 114.411C324.021 114.411 324.493 114.326 324.874 114.156C325.261 113.981 325.551 113.755 325.744 113.48C325.943 113.204 326.043 112.911 326.043 112.601ZM335.544 112.803V105.49H336.423V115H335.57L335.544 112.803ZM335.702 111.115L336.194 111.098C336.194 111.684 336.124 112.226 335.983 112.724C335.843 113.216 335.62 113.647 335.315 114.016C335.017 114.385 334.63 114.672 334.155 114.877C333.681 115.076 333.112 115.176 332.45 115.176C331.987 115.176 331.562 115.112 331.176 114.983C330.795 114.848 330.464 114.637 330.183 114.35C329.907 114.063 329.693 113.691 329.541 113.234C329.395 112.771 329.321 112.214 329.321 111.564V105.49H330.191V111.581C330.191 112.109 330.25 112.554 330.367 112.917C330.49 113.275 330.657 113.562 330.868 113.779C331.085 113.995 331.334 114.154 331.615 114.253C331.896 114.347 332.201 114.394 332.529 114.394C333.326 114.394 333.956 114.241 334.419 113.937C334.882 113.626 335.21 113.222 335.403 112.724C335.603 112.22 335.702 111.684 335.702 111.115ZM345.528 105.49H346.346V114.842C346.346 115.662 346.193 116.368 345.889 116.96C345.584 117.558 345.15 118.015 344.588 118.331C344.031 118.648 343.372 118.806 342.61 118.806C342.194 118.806 341.784 118.744 341.38 118.621C340.976 118.498 340.598 118.314 340.246 118.068C339.9 117.827 339.604 117.534 339.358 117.189L339.868 116.653C340.249 117.121 340.659 117.47 341.099 117.698C341.538 117.927 342.024 118.041 342.558 118.041C343.185 118.041 343.715 117.912 344.148 117.655C344.582 117.403 344.91 117.039 345.133 116.565C345.361 116.09 345.476 115.525 345.476 114.868V107.582L345.528 105.49ZM338.813 110.342V110.157C338.813 109.413 338.896 108.745 339.06 108.154C339.224 107.556 339.461 107.046 339.771 106.624C340.088 106.202 340.472 105.88 340.923 105.657C341.374 105.429 341.884 105.315 342.452 105.315C342.997 105.315 343.48 105.403 343.902 105.578C344.324 105.754 344.688 106.003 344.992 106.325C345.303 106.648 345.555 107.029 345.748 107.468C345.941 107.907 346.085 108.394 346.179 108.927V111.757C346.103 112.243 345.971 112.695 345.783 113.111C345.596 113.527 345.347 113.89 345.036 114.2C344.726 114.511 344.354 114.751 343.92 114.921C343.492 115.091 342.997 115.176 342.435 115.176C341.872 115.176 341.365 115.059 340.914 114.824C340.469 114.59 340.088 114.259 339.771 113.831C339.461 113.398 339.224 112.888 339.06 112.302C338.896 111.71 338.813 111.057 338.813 110.342ZM339.684 110.157V110.342C339.684 110.916 339.742 111.452 339.859 111.95C339.977 112.443 340.152 112.87 340.387 113.234C340.627 113.597 340.926 113.881 341.283 114.086C341.646 114.291 342.074 114.394 342.566 114.394C343.188 114.394 343.712 114.28 344.14 114.051C344.567 113.817 344.907 113.506 345.159 113.119C345.411 112.733 345.59 112.308 345.695 111.845V108.918C345.631 108.614 345.531 108.297 345.396 107.969C345.268 107.641 345.083 107.336 344.843 107.055C344.608 106.768 344.307 106.536 343.938 106.361C343.568 106.185 343.117 106.097 342.584 106.097C342.086 106.097 341.655 106.199 341.292 106.405C340.929 106.61 340.627 106.897 340.387 107.266C340.152 107.629 339.977 108.057 339.859 108.549C339.742 109.041 339.684 109.577 339.684 110.157ZM355.478 105.49H356.295V114.842C356.295 115.662 356.143 116.368 355.838 116.96C355.533 117.558 355.1 118.015 354.537 118.331C353.98 118.648 353.321 118.806 352.56 118.806C352.144 118.806 351.733 118.744 351.329 118.621C350.925 118.498 350.547 118.314 350.195 118.068C349.85 117.827 349.554 117.534 349.308 117.189L349.817 116.653C350.198 117.121 350.608 117.47 351.048 117.698C351.487 117.927 351.974 118.041 352.507 118.041C353.134 118.041 353.664 117.912 354.098 117.655C354.531 117.403 354.859 117.039 355.082 116.565C355.311 116.09 355.425 115.525 355.425 114.868V107.582L355.478 105.49ZM348.763 110.342V110.157C348.763 109.413 348.845 108.745 349.009 108.154C349.173 107.556 349.41 107.046 349.721 106.624C350.037 106.202 350.421 105.88 350.872 105.657C351.323 105.429 351.833 105.315 352.401 105.315C352.946 105.315 353.43 105.403 353.852 105.578C354.273 105.754 354.637 106.003 354.941 106.325C355.252 106.648 355.504 107.029 355.697 107.468C355.891 107.907 356.034 108.394 356.128 108.927V111.757C356.052 112.243 355.92 112.695 355.732 113.111C355.545 113.527 355.296 113.89 354.985 114.2C354.675 114.511 354.303 114.751 353.869 114.921C353.441 115.091 352.946 115.176 352.384 115.176C351.821 115.176 351.314 115.059 350.863 114.824C350.418 114.59 350.037 114.259 349.721 113.831C349.41 113.398 349.173 112.888 349.009 112.302C348.845 111.71 348.763 111.057 348.763 110.342ZM349.633 110.157V110.342C349.633 110.916 349.691 111.452 349.809 111.95C349.926 112.443 350.102 112.87 350.336 113.234C350.576 113.597 350.875 113.881 351.232 114.086C351.596 114.291 352.023 114.394 352.516 114.394C353.137 114.394 353.661 114.28 354.089 114.051C354.517 113.817 354.856 113.506 355.108 113.119C355.36 112.733 355.539 112.308 355.645 111.845V108.918C355.58 108.614 355.48 108.297 355.346 107.969C355.217 107.641 355.032 107.336 354.792 107.055C354.558 106.768 354.256 106.536 353.887 106.361C353.518 106.185 353.066 106.097 352.533 106.097C352.035 106.097 351.604 106.199 351.241 106.405C350.878 106.61 350.576 106.897 350.336 107.266C350.102 107.629 349.926 108.057 349.809 108.549C349.691 109.041 349.633 109.577 349.633 110.157ZM362.737 115.176C362.128 115.176 361.565 115.062 361.05 114.833C360.534 114.605 360.086 114.282 359.705 113.866C359.324 113.445 359.028 112.949 358.817 112.381C358.606 111.807 358.501 111.177 358.501 110.491V110.114C358.501 109.387 358.606 108.731 358.817 108.145C359.034 107.559 359.33 107.055 359.705 106.633C360.086 106.205 360.52 105.88 361.006 105.657C361.492 105.429 362.008 105.315 362.553 105.315C363.127 105.315 363.643 105.42 364.1 105.631C364.562 105.836 364.955 106.129 365.277 106.51C365.6 106.891 365.843 107.342 366.007 107.864C366.177 108.379 366.262 108.95 366.262 109.577V110.193H359.037V109.428H365.392V109.314C365.386 108.745 365.271 108.218 365.049 107.732C364.832 107.24 364.513 106.841 364.091 106.536C363.675 106.232 363.162 106.079 362.553 106.079C362.078 106.079 361.645 106.182 361.252 106.387C360.865 106.586 360.531 106.867 360.25 107.231C359.969 107.588 359.752 108.013 359.6 108.505C359.447 108.991 359.371 109.528 359.371 110.114V110.491C359.371 111.036 359.453 111.546 359.617 112.021C359.787 112.495 360.021 112.911 360.32 113.269C360.625 113.626 360.985 113.907 361.401 114.113C361.817 114.318 362.271 114.42 362.764 114.42C363.32 114.42 363.821 114.321 364.267 114.121C364.712 113.916 365.116 113.579 365.479 113.111L366.033 113.532C365.828 113.837 365.573 114.115 365.269 114.367C364.964 114.614 364.604 114.81 364.188 114.956C363.771 115.103 363.288 115.176 362.737 115.176ZM374.119 112.601C374.119 112.337 374.049 112.073 373.908 111.81C373.768 111.54 373.507 111.294 373.126 111.072C372.745 110.843 372.188 110.653 371.456 110.5C370.929 110.383 370.46 110.254 370.05 110.114C369.64 109.967 369.294 109.791 369.013 109.586C368.737 109.381 368.526 109.138 368.38 108.857C368.239 108.57 368.169 108.233 368.169 107.846C368.169 107.494 368.245 107.166 368.397 106.862C368.55 106.557 368.77 106.29 369.057 106.062C369.344 105.827 369.689 105.646 370.094 105.517C370.504 105.382 370.964 105.315 371.474 105.315C372.2 105.315 372.821 105.438 373.337 105.684C373.853 105.924 374.248 106.255 374.523 106.677C374.805 107.099 374.945 107.579 374.945 108.118H374.075C374.075 107.767 373.973 107.439 373.768 107.134C373.568 106.823 373.275 106.572 372.889 106.378C372.502 106.179 372.03 106.079 371.474 106.079C370.894 106.079 370.425 106.167 370.067 106.343C369.71 106.519 369.449 106.739 369.285 107.002C369.121 107.266 369.039 107.538 369.039 107.82C369.039 108.042 369.071 108.244 369.136 108.426C369.206 108.608 369.335 108.778 369.522 108.936C369.71 109.094 369.977 109.243 370.322 109.384C370.674 109.519 371.128 109.651 371.685 109.78C372.452 109.949 373.076 110.157 373.557 110.404C374.043 110.644 374.4 110.94 374.629 111.291C374.863 111.643 374.98 112.068 374.98 112.566C374.98 112.952 374.898 113.307 374.734 113.629C374.576 113.946 374.345 114.221 374.04 114.455C373.741 114.684 373.378 114.863 372.95 114.991C372.528 115.115 372.057 115.176 371.535 115.176C370.738 115.176 370.067 115.047 369.522 114.789C368.978 114.531 368.564 114.192 368.283 113.77C368.002 113.348 367.861 112.894 367.861 112.407H368.731C368.767 112.917 368.928 113.319 369.215 113.612C369.508 113.905 369.862 114.113 370.278 114.236C370.7 114.353 371.119 114.411 371.535 114.411C372.098 114.411 372.569 114.326 372.95 114.156C373.337 113.981 373.627 113.755 373.82 113.48C374.02 113.204 374.119 112.911 374.119 112.601ZM380.922 105.49V106.238H376.264V105.49H380.922ZM378.013 103.012H378.892V112.698C378.892 113.172 378.95 113.532 379.067 113.779C379.19 114.019 379.352 114.18 379.551 114.262C379.75 114.344 379.964 114.385 380.192 114.385C380.356 114.385 380.509 114.376 380.649 114.359C380.796 114.341 380.937 114.321 381.071 114.297L381.124 115.044C380.995 115.085 380.828 115.117 380.623 115.141C380.418 115.164 380.225 115.176 380.043 115.176C379.639 115.176 379.284 115.103 378.979 114.956C378.675 114.804 378.438 114.549 378.268 114.192C378.098 113.828 378.013 113.33 378.013 112.698V103.012ZM384.191 105.49V115H383.321V105.49H384.191ZM383.119 102.669C383.119 102.493 383.178 102.344 383.295 102.221C383.412 102.092 383.567 102.028 383.761 102.028C383.96 102.028 384.118 102.092 384.235 102.221C384.358 102.344 384.42 102.493 384.42 102.669C384.42 102.845 384.358 102.994 384.235 103.117C384.118 103.24 383.96 103.302 383.761 103.302C383.567 103.302 383.412 103.24 383.295 103.117C383.178 102.994 383.119 102.845 383.119 102.669ZM386.521 110.404V110.087C386.521 109.396 386.62 108.76 386.819 108.18C387.019 107.594 387.303 107.087 387.672 106.659C388.041 106.232 388.483 105.901 388.999 105.666C389.521 105.432 390.098 105.315 390.73 105.315C391.369 105.315 391.946 105.432 392.462 105.666C392.983 105.901 393.429 106.232 393.798 106.659C394.173 107.087 394.46 107.594 394.659 108.18C394.858 108.76 394.958 109.396 394.958 110.087V110.404C394.958 111.095 394.858 111.734 394.659 112.32C394.46 112.9 394.173 113.404 393.798 113.831C393.429 114.259 392.986 114.59 392.471 114.824C391.955 115.059 391.381 115.176 390.748 115.176C390.109 115.176 389.529 115.059 389.008 114.824C388.492 114.59 388.047 114.259 387.672 113.831C387.303 113.404 387.019 112.9 386.819 112.32C386.62 111.734 386.521 111.095 386.521 110.404ZM387.382 110.087V110.404C387.382 110.937 387.455 111.447 387.602 111.933C387.754 112.413 387.971 112.841 388.252 113.216C388.539 113.585 388.891 113.878 389.307 114.095C389.729 114.306 390.209 114.411 390.748 114.411C391.281 114.411 391.753 114.306 392.163 114.095C392.579 113.878 392.928 113.585 393.209 113.216C393.496 112.841 393.713 112.413 393.859 111.933C394.012 111.447 394.088 110.937 394.088 110.404V110.087C394.088 109.566 394.012 109.065 393.859 108.584C393.713 108.104 393.496 107.676 393.209 107.301C392.922 106.926 392.57 106.63 392.154 106.413C391.738 106.191 391.264 106.079 390.73 106.079C390.197 106.079 389.723 106.191 389.307 106.413C388.891 106.63 388.539 106.926 388.252 107.301C387.965 107.676 387.748 108.104 387.602 108.584C387.455 109.065 387.382 109.566 387.382 110.087ZM398.043 107.521V115H397.173V105.49H398.017L398.043 107.521ZM397.858 109.586L397.463 109.243C397.504 108.716 397.621 108.215 397.814 107.74C398.008 107.266 398.269 106.847 398.597 106.484C398.925 106.12 399.312 105.836 399.757 105.631C400.202 105.42 400.691 105.315 401.225 105.315C401.699 105.315 402.124 105.379 402.499 105.508C402.874 105.637 403.19 105.842 403.448 106.123C403.712 106.405 403.911 106.768 404.046 107.213C404.187 107.653 404.257 108.189 404.257 108.822V115H403.387V108.813C403.387 108.11 403.287 107.562 403.088 107.169C402.895 106.777 402.622 106.498 402.271 106.334C401.925 106.17 401.515 106.088 401.04 106.088C400.507 106.088 400.044 106.205 399.651 106.44C399.259 106.674 398.931 106.973 398.667 107.336C398.409 107.699 398.213 108.083 398.078 108.488C397.943 108.886 397.87 109.252 397.858 109.586ZM412.809 112.601C412.809 112.337 412.738 112.073 412.598 111.81C412.457 111.54 412.196 111.294 411.815 111.072C411.435 110.843 410.878 110.653 410.146 110.5C409.618 110.383 409.149 110.254 408.739 110.114C408.329 109.967 407.983 109.791 407.702 109.586C407.427 109.381 407.216 109.138 407.069 108.857C406.929 108.57 406.858 108.233 406.858 107.846C406.858 107.494 406.935 107.166 407.087 106.862C407.239 106.557 407.459 106.29 407.746 106.062C408.033 105.827 408.379 105.646 408.783 105.517C409.193 105.382 409.653 105.315 410.163 105.315C410.89 105.315 411.511 105.438 412.026 105.684C412.542 105.924 412.938 106.255 413.213 106.677C413.494 107.099 413.635 107.579 413.635 108.118H412.765C412.765 107.767 412.662 107.439 412.457 107.134C412.258 106.823 411.965 106.572 411.578 106.378C411.191 106.179 410.72 106.079 410.163 106.079C409.583 106.079 409.114 106.167 408.757 106.343C408.399 106.519 408.139 106.739 407.975 107.002C407.811 107.266 407.729 107.538 407.729 107.82C407.729 108.042 407.761 108.244 407.825 108.426C407.896 108.608 408.024 108.778 408.212 108.936C408.399 109.094 408.666 109.243 409.012 109.384C409.363 109.519 409.817 109.651 410.374 109.78C411.142 109.949 411.766 110.157 412.246 110.404C412.732 110.644 413.09 110.94 413.318 111.291C413.553 111.643 413.67 112.068 413.67 112.566C413.67 112.952 413.588 113.307 413.424 113.629C413.266 113.946 413.034 114.221 412.729 114.455C412.431 114.684 412.067 114.863 411.64 114.991C411.218 115.115 410.746 115.176 410.225 115.176C409.428 115.176 408.757 115.047 408.212 114.789C407.667 114.531 407.254 114.192 406.973 113.77C406.691 113.348 406.551 112.894 406.551 112.407H407.421C407.456 112.917 407.617 113.319 407.904 113.612C408.197 113.905 408.552 114.113 408.968 114.236C409.39 114.353 409.809 114.411 410.225 114.411C410.787 114.411 411.259 114.326 411.64 114.156C412.026 113.981 412.316 113.755 412.51 113.48C412.709 113.204 412.809 112.911 412.809 112.601ZM416.992 113.418V114.631C416.992 115.17 416.89 115.674 416.685 116.143C416.479 116.617 416.204 117.019 415.858 117.347L415.331 116.943C415.507 116.708 415.656 116.471 415.779 116.231C415.902 115.996 415.993 115.75 416.052 115.492C416.11 115.235 416.14 114.953 416.14 114.649V113.418H416.992ZM427.337 114.411C427.794 114.411 428.225 114.326 428.629 114.156C429.039 113.981 429.379 113.72 429.648 113.374C429.924 113.029 430.079 112.595 430.114 112.073H430.949C430.92 112.689 430.738 113.231 430.404 113.699C430.07 114.168 429.634 114.531 429.095 114.789C428.562 115.047 427.976 115.176 427.337 115.176C426.687 115.176 426.112 115.059 425.614 114.824C425.116 114.584 424.697 114.25 424.357 113.823C424.023 113.395 423.769 112.894 423.593 112.32C423.423 111.74 423.338 111.11 423.338 110.43V110.061C423.338 109.381 423.423 108.754 423.593 108.18C423.769 107.6 424.023 107.096 424.357 106.668C424.697 106.24 425.113 105.909 425.605 105.675C426.104 105.435 426.678 105.315 427.328 105.315C427.984 105.315 428.579 105.449 429.112 105.719C429.651 105.983 430.085 106.366 430.413 106.87C430.741 107.368 430.92 107.969 430.949 108.672H430.114C430.085 108.121 429.941 107.656 429.684 107.275C429.426 106.888 429.092 106.592 428.682 106.387C428.271 106.182 427.82 106.079 427.328 106.079C426.771 106.079 426.294 106.188 425.896 106.405C425.503 106.615 425.181 106.908 424.929 107.283C424.683 107.653 424.498 108.074 424.375 108.549C424.258 109.024 424.199 109.528 424.199 110.061V110.43C424.199 110.963 424.258 111.47 424.375 111.95C424.492 112.425 424.677 112.847 424.929 113.216C425.181 113.585 425.506 113.878 425.904 114.095C426.303 114.306 426.78 114.411 427.337 114.411ZM438.982 113.269V108.365C438.982 107.89 438.883 107.483 438.684 107.143C438.484 106.797 438.191 106.533 437.805 106.352C437.424 106.164 436.952 106.071 436.39 106.071C435.874 106.071 435.411 106.161 435.001 106.343C434.597 106.525 434.274 106.771 434.034 107.081C433.8 107.392 433.683 107.738 433.683 108.118L432.821 108.101C432.821 107.743 432.906 107.398 433.076 107.064C433.252 106.73 433.498 106.431 433.814 106.167C434.137 105.904 434.518 105.696 434.957 105.543C435.402 105.391 435.892 105.315 436.425 105.315C437.099 105.315 437.69 105.429 438.2 105.657C438.716 105.88 439.12 106.22 439.413 106.677C439.706 107.128 439.853 107.697 439.853 108.382V113.031C439.853 113.36 439.876 113.699 439.923 114.051C439.97 114.403 440.04 114.687 440.134 114.904V115H439.193C439.123 114.783 439.07 114.517 439.035 114.2C439 113.878 438.982 113.568 438.982 113.269ZM439.22 109.533L439.237 110.245H437.049C436.48 110.245 435.974 110.298 435.528 110.404C435.089 110.503 434.714 110.65 434.403 110.843C434.099 111.036 433.864 111.271 433.7 111.546C433.536 111.816 433.454 112.12 433.454 112.46C433.454 112.812 433.545 113.134 433.727 113.427C433.908 113.72 434.166 113.954 434.5 114.13C434.84 114.3 435.235 114.385 435.687 114.385C436.296 114.385 436.835 114.277 437.304 114.06C437.778 113.843 438.171 113.553 438.481 113.19C438.792 112.821 439.012 112.407 439.141 111.95L439.519 112.504C439.431 112.803 439.284 113.111 439.079 113.427C438.874 113.738 438.607 114.025 438.279 114.288C437.951 114.552 437.564 114.766 437.119 114.93C436.68 115.094 436.176 115.176 435.607 115.176C434.998 115.176 434.465 115.062 434.008 114.833C433.557 114.599 433.205 114.282 432.953 113.884C432.707 113.48 432.584 113.023 432.584 112.513C432.584 112.062 432.684 111.655 432.883 111.291C433.082 110.922 433.369 110.609 433.744 110.351C434.119 110.087 434.576 109.885 435.115 109.744C435.654 109.604 436.261 109.533 436.935 109.533H439.22ZM443.605 107.09V115H442.735V105.49H443.588L443.605 107.09ZM447.104 105.42L447.068 106.211C446.957 106.194 446.846 106.182 446.734 106.176C446.629 106.164 446.515 106.158 446.392 106.158C445.911 106.158 445.489 106.249 445.126 106.431C444.763 106.613 444.458 106.865 444.212 107.187C443.972 107.509 443.787 107.884 443.658 108.312C443.535 108.734 443.468 109.191 443.456 109.683L443.096 109.788C443.096 109.15 443.16 108.561 443.289 108.022C443.424 107.477 443.629 107.002 443.904 106.598C444.18 106.194 444.525 105.88 444.941 105.657C445.357 105.429 445.85 105.315 446.418 105.315C446.553 105.315 446.682 105.326 446.805 105.35C446.934 105.367 447.033 105.391 447.104 105.42ZM452.711 105.49V106.238H448.053V105.49H452.711ZM449.802 103.012H450.681V112.698C450.681 113.172 450.739 113.532 450.856 113.779C450.979 114.019 451.141 114.18 451.34 114.262C451.539 114.344 451.753 114.385 451.981 114.385C452.146 114.385 452.298 114.376 452.438 114.359C452.585 114.341 452.726 114.321 452.86 114.297L452.913 115.044C452.784 115.085 452.617 115.117 452.412 115.141C452.207 115.164 452.014 115.176 451.832 115.176C451.428 115.176 451.073 115.103 450.769 114.956C450.464 114.804 450.227 114.549 450.057 114.192C449.887 113.828 449.802 113.33 449.802 112.698V103.012ZM465.191 113.269V108.365C465.191 107.89 465.092 107.483 464.893 107.143C464.693 106.797 464.4 106.533 464.014 106.352C463.633 106.164 463.161 106.071 462.599 106.071C462.083 106.071 461.62 106.161 461.21 106.343C460.806 106.525 460.483 106.771 460.243 107.081C460.009 107.392 459.892 107.738 459.892 108.118L459.03 108.101C459.03 107.743 459.115 107.398 459.285 107.064C459.461 106.73 459.707 106.431 460.023 106.167C460.346 105.904 460.727 105.696 461.166 105.543C461.611 105.391 462.101 105.315 462.634 105.315C463.308 105.315 463.899 105.429 464.409 105.657C464.925 105.88 465.329 106.22 465.622 106.677C465.915 107.128 466.062 107.697 466.062 108.382V113.031C466.062 113.36 466.085 113.699 466.132 114.051C466.179 114.403 466.249 114.687 466.343 114.904V115H465.402C465.332 114.783 465.279 114.517 465.244 114.2C465.209 113.878 465.191 113.568 465.191 113.269ZM465.429 109.533L465.446 110.245H463.258C462.689 110.245 462.183 110.298 461.737 110.404C461.298 110.503 460.923 110.65 460.612 110.843C460.308 111.036 460.073 111.271 459.909 111.546C459.745 111.816 459.663 112.12 459.663 112.46C459.663 112.812 459.754 113.134 459.936 113.427C460.117 113.72 460.375 113.954 460.709 114.13C461.049 114.3 461.444 114.385 461.896 114.385C462.505 114.385 463.044 114.277 463.513 114.06C463.987 113.843 464.38 113.553 464.69 113.19C465.001 112.821 465.221 112.407 465.35 111.95L465.728 112.504C465.64 112.803 465.493 113.111 465.288 113.427C465.083 113.738 464.816 114.025 464.488 114.288C464.16 114.552 463.773 114.766 463.328 114.93C462.889 115.094 462.385 115.176 461.816 115.176C461.207 115.176 460.674 115.062 460.217 114.833C459.766 114.599 459.414 114.282 459.162 113.884C458.916 113.48 458.793 113.023 458.793 112.513C458.793 112.062 458.893 111.655 459.092 111.291C459.291 110.922 459.578 110.609 459.953 110.351C460.328 110.087 460.785 109.885 461.324 109.744C461.863 109.604 462.47 109.533 463.144 109.533H465.429ZM468.936 101.5H469.806V113.155L469.753 115H468.936V101.5ZM476.485 110.157V110.342C476.485 111.057 476.403 111.71 476.239 112.302C476.075 112.888 475.838 113.398 475.527 113.831C475.223 114.259 474.845 114.59 474.394 114.824C473.948 115.059 473.441 115.176 472.873 115.176C472.316 115.176 471.818 115.091 471.379 114.921C470.945 114.751 470.573 114.511 470.263 114.2C469.952 113.89 469.7 113.527 469.507 113.111C469.319 112.695 469.19 112.243 469.12 111.757V108.927C469.208 108.394 469.349 107.907 469.542 107.468C469.741 107.029 469.993 106.648 470.298 106.325C470.608 106.003 470.975 105.754 471.396 105.578C471.824 105.403 472.311 105.315 472.855 105.315C473.43 105.315 473.942 105.429 474.394 105.657C474.845 105.88 475.223 106.202 475.527 106.624C475.838 107.046 476.075 107.556 476.239 108.154C476.403 108.745 476.485 109.413 476.485 110.157ZM475.598 110.342V110.157C475.598 109.577 475.542 109.041 475.431 108.549C475.319 108.057 475.146 107.629 474.912 107.266C474.678 106.897 474.379 106.61 474.016 106.405C473.652 106.199 473.222 106.097 472.724 106.097C472.19 106.097 471.736 106.185 471.361 106.361C470.992 106.536 470.688 106.768 470.447 107.055C470.213 107.336 470.028 107.641 469.894 107.969C469.759 108.297 469.659 108.614 469.595 108.918V111.845C469.694 112.296 469.873 112.715 470.131 113.102C470.389 113.489 470.731 113.802 471.159 114.042C471.593 114.277 472.12 114.394 472.741 114.394C473.233 114.394 473.658 114.291 474.016 114.086C474.379 113.881 474.675 113.597 474.903 113.234C475.138 112.87 475.311 112.443 475.422 111.95C475.539 111.452 475.598 110.916 475.598 110.342ZM484.738 113.269V108.365C484.738 107.89 484.639 107.483 484.439 107.143C484.24 106.797 483.947 106.533 483.561 106.352C483.18 106.164 482.708 106.071 482.146 106.071C481.63 106.071 481.167 106.161 480.757 106.343C480.353 106.525 480.03 106.771 479.79 107.081C479.556 107.392 479.438 107.738 479.438 108.118L478.577 108.101C478.577 107.743 478.662 107.398 478.832 107.064C479.008 106.73 479.254 106.431 479.57 106.167C479.893 105.904 480.273 105.696 480.713 105.543C481.158 105.391 481.647 105.315 482.181 105.315C482.854 105.315 483.446 105.429 483.956 105.657C484.472 105.88 484.876 106.22 485.169 106.677C485.462 107.128 485.608 107.697 485.608 108.382V113.031C485.608 113.36 485.632 113.699 485.679 114.051C485.726 114.403 485.796 114.687 485.89 114.904V115H484.949C484.879 114.783 484.826 114.517 484.791 114.2C484.756 113.878 484.738 113.568 484.738 113.269ZM484.976 109.533L484.993 110.245H482.805C482.236 110.245 481.729 110.298 481.284 110.404C480.845 110.503 480.47 110.65 480.159 110.843C479.854 111.036 479.62 111.271 479.456 111.546C479.292 111.816 479.21 112.12 479.21 112.46C479.21 112.812 479.301 113.134 479.482 113.427C479.664 113.72 479.922 113.954 480.256 114.13C480.596 114.3 480.991 114.385 481.442 114.385C482.052 114.385 482.591 114.277 483.06 114.06C483.534 113.843 483.927 113.553 484.237 113.19C484.548 112.821 484.768 112.407 484.896 111.95L485.274 112.504C485.187 112.803 485.04 113.111 484.835 113.427C484.63 113.738 484.363 114.025 484.035 114.288C483.707 114.552 483.32 114.766 482.875 114.93C482.436 115.094 481.932 115.176 481.363 115.176C480.754 115.176 480.221 115.062 479.764 114.833C479.312 114.599 478.961 114.282 478.709 113.884C478.463 113.48 478.34 113.023 478.34 112.513C478.34 112.062 478.439 111.655 478.639 111.291C478.838 110.922 479.125 110.609 479.5 110.351C479.875 110.087 480.332 109.885 480.871 109.744C481.41 109.604 482.017 109.533 482.69 109.533H484.976ZM489.361 107.521V115H488.491V105.49H489.335L489.361 107.521ZM489.177 109.586L488.781 109.243C488.822 108.716 488.939 108.215 489.133 107.74C489.326 107.266 489.587 106.847 489.915 106.484C490.243 106.12 490.63 105.836 491.075 105.631C491.521 105.42 492.01 105.315 492.543 105.315C493.018 105.315 493.442 105.379 493.817 105.508C494.192 105.637 494.509 105.842 494.767 106.123C495.03 106.405 495.229 106.768 495.364 107.213C495.505 107.653 495.575 108.189 495.575 108.822V115H494.705V108.813C494.705 108.11 494.605 107.562 494.406 107.169C494.213 106.777 493.94 106.498 493.589 106.334C493.243 106.17 492.833 106.088 492.358 106.088C491.825 106.088 491.362 106.205 490.97 106.44C490.577 106.674 490.249 106.973 489.985 107.336C489.728 107.699 489.531 108.083 489.396 108.488C489.262 108.886 489.188 109.252 489.177 109.586ZM504.619 113.155V101.5H505.489V115H504.663L504.619 113.155ZM497.948 110.342V110.157C497.948 109.413 498.03 108.745 498.194 108.154C498.364 107.556 498.607 107.046 498.924 106.624C499.24 106.202 499.621 105.88 500.066 105.657C500.518 105.429 501.027 105.315 501.596 105.315C502.141 105.315 502.624 105.403 503.046 105.578C503.468 105.754 503.831 106.003 504.136 106.325C504.44 106.648 504.689 107.029 504.883 107.468C505.076 107.907 505.22 108.394 505.313 108.927V111.757C505.243 112.243 505.111 112.695 504.918 113.111C504.73 113.527 504.481 113.89 504.171 114.2C503.866 114.511 503.497 114.751 503.063 114.921C502.63 115.091 502.135 115.176 501.578 115.176C501.016 115.176 500.509 115.059 500.058 114.824C499.612 114.59 499.231 114.259 498.915 113.831C498.604 113.398 498.364 112.888 498.194 112.302C498.03 111.71 497.948 111.057 497.948 110.342ZM498.827 110.157V110.342C498.827 110.916 498.886 111.452 499.003 111.95C499.12 112.443 499.296 112.87 499.53 113.234C499.765 113.597 500.063 113.881 500.427 114.086C500.79 114.291 501.218 114.394 501.71 114.394C502.331 114.394 502.855 114.28 503.283 114.051C503.711 113.817 504.054 113.506 504.312 113.119C504.569 112.733 504.754 112.308 504.865 111.845V108.918C504.795 108.614 504.692 108.297 504.558 107.969C504.423 107.641 504.235 107.336 503.995 107.055C503.755 106.768 503.45 106.536 503.081 106.361C502.712 106.185 502.261 106.097 501.728 106.097C501.229 106.097 500.799 106.199 500.436 106.405C500.072 106.61 499.771 106.897 499.53 107.266C499.296 107.629 499.12 108.057 499.003 108.549C498.886 109.041 498.827 109.577 498.827 110.157ZM507.722 110.404V110.087C507.722 109.396 507.821 108.76 508.021 108.18C508.22 107.594 508.504 107.087 508.873 106.659C509.242 106.232 509.685 105.901 510.2 105.666C510.722 105.432 511.299 105.315 511.932 105.315C512.57 105.315 513.147 105.432 513.663 105.666C514.185 105.901 514.63 106.232 514.999 106.659C515.374 107.087 515.661 107.594 515.86 108.18C516.06 108.76 516.159 109.396 516.159 110.087V110.404C516.159 111.095 516.06 111.734 515.86 112.32C515.661 112.9 515.374 113.404 514.999 113.831C514.63 114.259 514.188 114.59 513.672 114.824C513.156 115.059 512.582 115.176 511.949 115.176C511.311 115.176 510.73 115.059 510.209 114.824C509.693 114.59 509.248 114.259 508.873 113.831C508.504 113.404 508.22 112.9 508.021 112.32C507.821 111.734 507.722 111.095 507.722 110.404ZM508.583 110.087V110.404C508.583 110.937 508.656 111.447 508.803 111.933C508.955 112.413 509.172 112.841 509.453 113.216C509.74 113.585 510.092 113.878 510.508 114.095C510.93 114.306 511.41 114.411 511.949 114.411C512.482 114.411 512.954 114.306 513.364 114.095C513.78 113.878 514.129 113.585 514.41 113.216C514.697 112.841 514.914 112.413 515.061 111.933C515.213 111.447 515.289 110.937 515.289 110.404V110.087C515.289 109.566 515.213 109.065 515.061 108.584C514.914 108.104 514.697 107.676 514.41 107.301C514.123 106.926 513.771 106.63 513.355 106.413C512.939 106.191 512.465 106.079 511.932 106.079C511.398 106.079 510.924 106.191 510.508 106.413C510.092 106.63 509.74 106.926 509.453 107.301C509.166 107.676 508.949 108.104 508.803 108.584C508.656 109.065 508.583 109.566 508.583 110.087ZM519.244 107.521V115H518.374V105.49H519.218L519.244 107.521ZM519.06 109.586L518.664 109.243C518.705 108.716 518.822 108.215 519.016 107.74C519.209 107.266 519.47 106.847 519.798 106.484C520.126 106.12 520.513 105.836 520.958 105.631C521.403 105.42 521.893 105.315 522.426 105.315C522.9 105.315 523.325 105.379 523.7 105.508C524.075 105.637 524.392 105.842 524.649 106.123C524.913 106.405 525.112 106.768 525.247 107.213C525.388 107.653 525.458 108.189 525.458 108.822V115H524.588V108.813C524.588 108.11 524.488 107.562 524.289 107.169C524.096 106.777 523.823 106.498 523.472 106.334C523.126 106.17 522.716 106.088 522.241 106.088C521.708 106.088 521.245 106.205 520.853 106.44C520.46 106.674 520.132 106.973 519.868 107.336C519.61 107.699 519.414 108.083 519.279 108.488C519.145 108.886 519.071 109.252 519.06 109.586ZM529.062 107.477V115H528.183V105.49H529.035L529.062 107.477ZM528.912 109.586L528.481 109.243C528.522 108.716 528.634 108.215 528.815 107.74C529.003 107.266 529.258 106.847 529.58 106.484C529.902 106.12 530.283 105.836 530.723 105.631C531.168 105.42 531.669 105.315 532.226 105.315C532.694 105.315 533.116 105.379 533.491 105.508C533.872 105.631 534.194 105.827 534.458 106.097C534.722 106.361 534.924 106.706 535.064 107.134C535.211 107.562 535.284 108.074 535.284 108.672V115H534.414V108.698C534.414 108.025 534.312 107.5 534.106 107.125C533.907 106.75 533.626 106.484 533.263 106.325C532.899 106.167 532.48 106.088 532.006 106.088C531.449 106.088 530.978 106.205 530.591 106.44C530.204 106.674 529.888 106.973 529.642 107.336C529.401 107.699 529.223 108.083 529.105 108.488C528.988 108.886 528.924 109.252 528.912 109.586ZM535.275 108.778L534.695 108.698C534.736 108.259 534.851 107.837 535.038 107.433C535.226 107.023 535.48 106.659 535.803 106.343C536.125 106.027 536.509 105.778 536.954 105.596C537.399 105.408 537.895 105.315 538.439 105.315C538.926 105.315 539.359 105.382 539.74 105.517C540.127 105.646 540.452 105.854 540.716 106.141C540.985 106.422 541.188 106.782 541.322 107.222C541.463 107.661 541.533 108.192 541.533 108.813V115H540.663V108.813C540.663 108.098 540.561 107.544 540.355 107.152C540.156 106.753 539.875 106.475 539.512 106.317C539.148 106.158 538.729 106.082 538.255 106.088C537.763 106.094 537.332 106.185 536.963 106.361C536.6 106.536 536.295 106.762 536.049 107.037C535.809 107.307 535.624 107.597 535.495 107.907C535.366 108.212 535.293 108.502 535.275 108.778ZM547.87 115.176C547.261 115.176 546.698 115.062 546.183 114.833C545.667 114.605 545.219 114.282 544.838 113.866C544.457 113.445 544.161 112.949 543.95 112.381C543.739 111.807 543.634 111.177 543.634 110.491V110.114C543.634 109.387 543.739 108.731 543.95 108.145C544.167 107.559 544.463 107.055 544.838 106.633C545.219 106.205 545.652 105.88 546.139 105.657C546.625 105.429 547.141 105.315 547.686 105.315C548.26 105.315 548.775 105.42 549.232 105.631C549.695 105.836 550.088 106.129 550.41 106.51C550.732 106.891 550.976 107.342 551.14 107.864C551.31 108.379 551.395 108.95 551.395 109.577V110.193H544.17V109.428H550.524V109.314C550.519 108.745 550.404 108.218 550.182 107.732C549.965 107.24 549.646 106.841 549.224 106.536C548.808 106.232 548.295 106.079 547.686 106.079C547.211 106.079 546.777 106.182 546.385 106.387C545.998 106.586 545.664 106.867 545.383 107.231C545.102 107.588 544.885 108.013 544.732 108.505C544.58 108.991 544.504 109.528 544.504 110.114V110.491C544.504 111.036 544.586 111.546 544.75 112.021C544.92 112.495 545.154 112.911 545.453 113.269C545.758 113.626 546.118 113.907 546.534 114.113C546.95 114.318 547.404 114.42 547.896 114.42C548.453 114.42 548.954 114.321 549.399 114.121C549.845 113.916 550.249 113.579 550.612 113.111L551.166 113.532C550.961 113.837 550.706 114.115 550.401 114.367C550.097 114.614 549.736 114.81 549.32 114.956C548.904 115.103 548.421 115.176 547.87 115.176ZM554.365 107.521V115H553.495V105.49H554.339L554.365 107.521ZM554.181 109.586L553.785 109.243C553.826 108.716 553.943 108.215 554.137 107.74C554.33 107.266 554.591 106.847 554.919 106.484C555.247 106.12 555.634 105.836 556.079 105.631C556.524 105.42 557.014 105.315 557.547 105.315C558.021 105.315 558.446 105.379 558.821 105.508C559.196 105.637 559.513 105.842 559.771 106.123C560.034 106.405 560.233 106.768 560.368 107.213C560.509 107.653 560.579 108.189 560.579 108.822V115H559.709V108.813C559.709 108.11 559.609 107.562 559.41 107.169C559.217 106.777 558.944 106.498 558.593 106.334C558.247 106.17 557.837 106.088 557.362 106.088C556.829 106.088 556.366 106.205 555.974 106.44C555.581 106.674 555.253 106.973 554.989 107.336C554.731 107.699 554.535 108.083 554.4 108.488C554.266 108.886 554.192 109.252 554.181 109.586ZM566.863 105.49V106.238H562.205V105.49H566.863ZM563.954 103.012H564.833V112.698C564.833 113.172 564.892 113.532 565.009 113.779C565.132 114.019 565.293 114.18 565.492 114.262C565.691 114.344 565.905 114.385 566.134 114.385C566.298 114.385 566.45 114.376 566.591 114.359C566.737 114.341 566.878 114.321 567.013 114.297L567.065 115.044C566.937 115.085 566.77 115.117 566.564 115.141C566.359 115.164 566.166 115.176 565.984 115.176C565.58 115.176 565.226 115.103 564.921 114.956C564.616 114.804 564.379 114.549 564.209 114.192C564.039 113.828 563.954 113.33 563.954 112.698V103.012ZM576.988 105.49V106.238H572.33V105.49H576.988ZM574.079 103.012H574.958V112.698C574.958 113.172 575.017 113.532 575.134 113.779C575.257 114.019 575.418 114.18 575.617 114.262C575.816 114.344 576.03 114.385 576.259 114.385C576.423 114.385 576.575 114.376 576.716 114.359C576.862 114.341 577.003 114.321 577.138 114.297L577.19 115.044C577.062 115.085 576.895 115.117 576.689 115.141C576.484 115.164 576.291 115.176 576.109 115.176C575.705 115.176 575.351 115.103 575.046 114.956C574.741 114.804 574.504 114.549 574.334 114.192C574.164 113.828 574.079 113.33 574.079 112.698V103.012ZM580.135 107.09V115H579.265V105.49H580.117L580.135 107.09ZM583.633 105.42L583.598 106.211C583.486 106.194 583.375 106.182 583.264 106.176C583.158 106.164 583.044 106.158 582.921 106.158C582.44 106.158 582.019 106.249 581.655 106.431C581.292 106.613 580.987 106.865 580.741 107.187C580.501 107.509 580.316 107.884 580.188 108.312C580.064 108.734 579.997 109.191 579.985 109.683L579.625 109.788C579.625 109.15 579.689 108.561 579.818 108.022C579.953 107.477 580.158 107.002 580.434 106.598C580.709 106.194 581.055 105.88 581.471 105.657C581.887 105.429 582.379 105.315 582.947 105.315C583.082 105.315 583.211 105.326 583.334 105.35C583.463 105.367 583.562 105.391 583.633 105.42ZM586.305 105.49V115H585.435V105.49H586.305ZM585.232 102.669C585.232 102.493 585.291 102.344 585.408 102.221C585.525 102.092 585.681 102.028 585.874 102.028C586.073 102.028 586.231 102.092 586.349 102.221C586.472 102.344 586.533 102.493 586.533 102.669C586.533 102.845 586.472 102.994 586.349 103.117C586.231 103.24 586.073 103.302 585.874 103.302C585.681 103.302 585.525 103.24 585.408 103.117C585.291 102.994 585.232 102.845 585.232 102.669ZM595.542 105.49H596.359V114.842C596.359 115.662 596.207 116.368 595.902 116.96C595.598 117.558 595.164 118.015 594.602 118.331C594.045 118.648 593.386 118.806 592.624 118.806C592.208 118.806 591.798 118.744 591.394 118.621C590.989 118.498 590.611 118.314 590.26 118.068C589.914 117.827 589.618 117.534 589.372 117.189L589.882 116.653C590.263 117.121 590.673 117.47 591.112 117.698C591.552 117.927 592.038 118.041 592.571 118.041C593.198 118.041 593.729 117.912 594.162 117.655C594.596 117.403 594.924 117.039 595.146 116.565C595.375 116.09 595.489 115.525 595.489 114.868V107.582L595.542 105.49ZM588.827 110.342V110.157C588.827 109.413 588.909 108.745 589.073 108.154C589.237 107.556 589.475 107.046 589.785 106.624C590.102 106.202 590.485 105.88 590.937 105.657C591.388 105.429 591.897 105.315 592.466 105.315C593.011 105.315 593.494 105.403 593.916 105.578C594.338 105.754 594.701 106.003 595.006 106.325C595.316 106.648 595.568 107.029 595.762 107.468C595.955 107.907 596.099 108.394 596.192 108.927V111.757C596.116 112.243 595.984 112.695 595.797 113.111C595.609 113.527 595.36 113.89 595.05 114.2C594.739 114.511 594.367 114.751 593.934 114.921C593.506 115.091 593.011 115.176 592.448 115.176C591.886 115.176 591.379 115.059 590.928 114.824C590.482 114.59 590.102 114.259 589.785 113.831C589.475 113.398 589.237 112.888 589.073 112.302C588.909 111.71 588.827 111.057 588.827 110.342ZM589.697 110.157V110.342C589.697 110.916 589.756 111.452 589.873 111.95C589.99 112.443 590.166 112.87 590.4 113.234C590.641 113.597 590.939 113.881 591.297 114.086C591.66 114.291 592.088 114.394 592.58 114.394C593.201 114.394 593.726 114.28 594.153 114.051C594.581 113.817 594.921 113.506 595.173 113.119C595.425 112.733 595.604 112.308 595.709 111.845V108.918C595.645 108.614 595.545 108.297 595.41 107.969C595.281 107.641 595.097 107.336 594.856 107.055C594.622 106.768 594.32 106.536 593.951 106.361C593.582 106.185 593.131 106.097 592.598 106.097C592.1 106.097 591.669 106.199 591.306 106.405C590.942 106.61 590.641 106.897 590.4 107.266C590.166 107.629 589.99 108.057 589.873 108.549C589.756 109.041 589.697 109.577 589.697 110.157ZM605.491 105.49H606.309V114.842C606.309 115.662 606.156 116.368 605.852 116.96C605.547 117.558 605.113 118.015 604.551 118.331C603.994 118.648 603.335 118.806 602.573 118.806C602.157 118.806 601.747 118.744 601.343 118.621C600.938 118.498 600.561 118.314 600.209 118.068C599.863 117.827 599.567 117.534 599.321 117.189L599.831 116.653C600.212 117.121 600.622 117.47 601.062 117.698C601.501 117.927 601.987 118.041 602.521 118.041C603.147 118.041 603.678 117.912 604.111 117.655C604.545 117.403 604.873 117.039 605.096 116.565C605.324 116.09 605.438 115.525 605.438 114.868V107.582L605.491 105.49ZM598.776 110.342V110.157C598.776 109.413 598.858 108.745 599.022 108.154C599.187 107.556 599.424 107.046 599.734 106.624C600.051 106.202 600.435 105.88 600.886 105.657C601.337 105.429 601.847 105.315 602.415 105.315C602.96 105.315 603.443 105.403 603.865 105.578C604.287 105.754 604.65 106.003 604.955 106.325C605.266 106.648 605.518 107.029 605.711 107.468C605.904 107.907 606.048 108.394 606.142 108.927V111.757C606.065 112.243 605.934 112.695 605.746 113.111C605.559 113.527 605.31 113.89 604.999 114.2C604.688 114.511 604.316 114.751 603.883 114.921C603.455 115.091 602.96 115.176 602.397 115.176C601.835 115.176 601.328 115.059 600.877 114.824C600.432 114.59 600.051 114.259 599.734 113.831C599.424 113.398 599.187 112.888 599.022 112.302C598.858 111.71 598.776 111.057 598.776 110.342ZM599.646 110.157V110.342C599.646 110.916 599.705 111.452 599.822 111.95C599.939 112.443 600.115 112.87 600.35 113.234C600.59 113.597 600.889 113.881 601.246 114.086C601.609 114.291 602.037 114.394 602.529 114.394C603.15 114.394 603.675 114.28 604.103 114.051C604.53 113.817 604.87 113.506 605.122 113.119C605.374 112.733 605.553 112.308 605.658 111.845V108.918C605.594 108.614 605.494 108.297 605.359 107.969C605.23 107.641 605.046 107.336 604.806 107.055C604.571 106.768 604.27 106.536 603.9 106.361C603.531 106.185 603.08 106.097 602.547 106.097C602.049 106.097 601.618 106.199 601.255 106.405C600.892 106.61 600.59 106.897 600.35 107.266C600.115 107.629 599.939 108.057 599.822 108.549C599.705 109.041 599.646 109.577 599.646 110.157ZM612.751 115.176C612.142 115.176 611.579 115.062 611.063 114.833C610.548 114.605 610.1 114.282 609.719 113.866C609.338 113.445 609.042 112.949 608.831 112.381C608.62 111.807 608.515 111.177 608.515 110.491V110.114C608.515 109.387 608.62 108.731 608.831 108.145C609.048 107.559 609.344 107.055 609.719 106.633C610.1 106.205 610.533 105.88 611.02 105.657C611.506 105.429 612.021 105.315 612.566 105.315C613.141 105.315 613.656 105.42 614.113 105.631C614.576 105.836 614.969 106.129 615.291 106.51C615.613 106.891 615.856 107.342 616.021 107.864C616.19 108.379 616.275 108.95 616.275 109.577V110.193H609.051V109.428H615.405V109.314C615.399 108.745 615.285 108.218 615.062 107.732C614.846 107.24 614.526 106.841 614.104 106.536C613.688 106.232 613.176 106.079 612.566 106.079C612.092 106.079 611.658 106.182 611.266 106.387C610.879 106.586 610.545 106.867 610.264 107.231C609.982 107.588 609.766 108.013 609.613 108.505C609.461 108.991 609.385 109.528 609.385 110.114V110.491C609.385 111.036 609.467 111.546 609.631 112.021C609.801 112.495 610.035 112.911 610.334 113.269C610.639 113.626 610.999 113.907 611.415 114.113C611.831 114.318 612.285 114.42 612.777 114.42C613.334 114.42 613.835 114.321 614.28 114.121C614.726 113.916 615.13 113.579 615.493 113.111L616.047 113.532C615.842 113.837 615.587 114.115 615.282 114.367C614.978 114.614 614.617 114.81 614.201 114.956C613.785 115.103 613.302 115.176 612.751 115.176ZM619.246 107.09V115H618.376V105.49H619.229L619.246 107.09ZM622.744 105.42L622.709 106.211C622.598 106.194 622.486 106.182 622.375 106.176C622.27 106.164 622.155 106.158 622.032 106.158C621.552 106.158 621.13 106.249 620.767 106.431C620.403 106.613 620.099 106.865 619.853 107.187C619.612 107.509 619.428 107.884 619.299 108.312C619.176 108.734 619.108 109.191 619.097 109.683L618.736 109.788C618.736 109.15 618.801 108.561 618.93 108.022C619.064 107.477 619.27 107.002 619.545 106.598C619.82 106.194 620.166 105.88 620.582 105.657C620.998 105.429 621.49 105.315 622.059 105.315C622.193 105.315 622.322 105.326 622.445 105.35C622.574 105.367 622.674 105.391 622.744 105.42ZM630.18 112.601C630.18 112.337 630.109 112.073 629.969 111.81C629.828 111.54 629.567 111.294 629.187 111.072C628.806 110.843 628.249 110.653 627.517 110.5C626.989 110.383 626.521 110.254 626.11 110.114C625.7 109.967 625.354 109.791 625.073 109.586C624.798 109.381 624.587 109.138 624.44 108.857C624.3 108.57 624.229 108.233 624.229 107.846C624.229 107.494 624.306 107.166 624.458 106.862C624.61 106.557 624.83 106.29 625.117 106.062C625.404 105.827 625.75 105.646 626.154 105.517C626.564 105.382 627.024 105.315 627.534 105.315C628.261 105.315 628.882 105.438 629.397 105.684C629.913 105.924 630.309 106.255 630.584 106.677C630.865 107.099 631.006 107.579 631.006 108.118H630.136C630.136 107.767 630.033 107.439 629.828 107.134C629.629 106.823 629.336 106.572 628.949 106.378C628.562 106.179 628.091 106.079 627.534 106.079C626.954 106.079 626.485 106.167 626.128 106.343C625.771 106.519 625.51 106.739 625.346 107.002C625.182 107.266 625.1 107.538 625.1 107.82C625.1 108.042 625.132 108.244 625.196 108.426C625.267 108.608 625.396 108.778 625.583 108.936C625.771 109.094 626.037 109.243 626.383 109.384C626.734 109.519 627.188 109.651 627.745 109.78C628.513 109.949 629.137 110.157 629.617 110.404C630.104 110.644 630.461 110.94 630.689 111.291C630.924 111.643 631.041 112.068 631.041 112.566C631.041 112.952 630.959 113.307 630.795 113.629C630.637 113.946 630.405 114.221 630.101 114.455C629.802 114.684 629.438 114.863 629.011 114.991C628.589 115.115 628.117 115.176 627.596 115.176C626.799 115.176 626.128 115.047 625.583 114.789C625.038 114.531 624.625 114.192 624.344 113.77C624.062 113.348 623.922 112.894 623.922 112.407H624.792C624.827 112.917 624.988 113.319 625.275 113.612C625.568 113.905 625.923 114.113 626.339 114.236C626.761 114.353 627.18 114.411 627.596 114.411C628.158 114.411 628.63 114.326 629.011 114.156C629.397 113.981 629.688 113.755 629.881 113.48C630.08 113.204 630.18 112.911 630.18 112.601Z" fill="white"/>
<mask id="path-7-outside-1_448_1176" maskUnits="userSpaceOnUse" x="3" y="48.0002" width="44" height="82" fill="black">
<rect fill="white" x="3" y="48.0002" width="44" height="82"/>
<path d="M41.3164 53.9065V125H24.8613V72.4612L8.65039 77.1975V64.6975L39.8027 53.9065H41.3164Z"/>
</mask>
<path d="M41.3164 53.9065H46.3164V48.9065H41.3164V53.9065ZM41.3164 125V130H46.3164V125H41.3164ZM24.8613 125H19.8613V130H24.8613V125ZM24.8613 72.4612H29.8613V65.7913L23.4591 67.6618L24.8613 72.4612ZM8.65039 77.1975H3.65039V83.8674L10.0526 81.9969L8.65039 77.1975ZM8.65039 64.6975L7.01382 59.9729L3.65039 61.138V64.6975H8.65039ZM39.8027 53.9065V48.9065H38.9613L38.1662 49.1819L39.8027 53.9065ZM41.3164 53.9065H36.3164V125H41.3164H46.3164V53.9065H41.3164ZM41.3164 125V120H24.8613V125V130H41.3164V125ZM24.8613 125H29.8613V72.4612H24.8613H19.8613V125H24.8613ZM24.8613 72.4612L23.4591 67.6618L7.24817 72.3982L8.65039 77.1975L10.0526 81.9969L26.2635 77.2605L24.8613 72.4612ZM8.65039 77.1975H13.6504V64.6975H8.65039H3.65039V77.1975H8.65039ZM8.65039 64.6975L10.287 69.4221L41.4393 58.6311L39.8027 53.9065L38.1662 49.1819L7.01382 59.9729L8.65039 64.6975ZM39.8027 53.9065V58.9065H41.3164V53.9065V48.9065H39.8027V53.9065Z" fill="#1A5069" mask="url(#path-7-outside-1_448_1176)"/>
<defs>
<radialGradient id="paint0_radial_448_1176" cx="0" cy="0" r="1" gradientUnits="userSpaceOnUse" gradientTransform="translate(96.2629 367.631) scale(96.2629 367.631)">
<stop stop-color="#1A5069"/>
<stop offset="1" stop-color="#0F7BAE" stop-opacity="0"/>
</radialGradient>
<radialGradient id="paint1_radial_448_1176" cx="0" cy="0" r="1" gradientUnits="userSpaceOnUse" gradientTransform="translate(96.2629 367.631) scale(96.2629 367.631)">
<stop stop-color="#1A5069"/>
<stop offset="1" stop-color="#0F7BAE" stop-opacity="0"/>
</radialGradient>
</defs>
</svg>
