<svg width="797" height="180" viewBox="0 0 797 180" fill="none" xmlns="http://www.w3.org/2000/svg">
<mask id="mask0_448_1198" style="mask-type:alpha" maskUnits="userSpaceOnUse" x="70" y="0" width="727" height="180">
<rect x="-1.00159" y="0.995166" width="174.036" height="724.019" rx="87.0179" transform="matrix(-0.00160036 0.999999 -0.999988 -0.00483255 796.285 5.51011)" fill="black" stroke="#136A93" stroke-width="2"/>
</mask>
<g mask="url(#mask0_448_1198)">
<rect width="192.526" height="735.262" rx="47.5" transform="matrix(-0.00160036 0.999999 -0.999988 -0.00483255 1071.4 68.4429)" fill="url(#paint0_radial_448_1198)" fill-opacity="0.74"/>
<rect width="192.526" height="735.262" rx="47.5" transform="matrix(-0.00160036 0.999999 -0.999988 -0.00483255 530.426 -57.9541)" fill="url(#paint1_radial_448_1198)" fill-opacity="0.74"/>
</g>
<rect x="73.293" y="1.54663" width="722.708" height="175.235" rx="87.6177" fill="#D9D9D9" fill-opacity="0.14" stroke="#136A93" stroke-width="2"/>
<path d="M311.059 70.8142H315.759C315.633 72.4776 315.172 73.953 314.375 75.2405C313.577 76.5165 312.466 77.5191 311.042 78.2483C309.618 78.9775 307.892 79.342 305.864 79.342C304.303 79.342 302.896 79.0686 301.643 78.5217C300.401 77.9635 299.335 77.1716 298.447 76.1462C297.569 75.1095 296.897 73.8676 296.43 72.4207C295.963 70.9623 295.729 69.3274 295.729 67.5159V65.6189C295.729 63.8074 295.969 62.1724 296.447 60.7141C296.926 59.2558 297.609 58.0139 298.498 56.9885C299.398 55.9517 300.475 55.1542 301.728 54.5959C302.993 54.0377 304.405 53.7585 305.966 53.7585C307.994 53.7585 309.709 54.1345 311.11 54.8865C312.512 55.627 313.6 56.6467 314.375 57.9456C315.149 59.2444 315.616 60.7369 315.776 62.4231H311.076C310.985 61.3749 310.757 60.4862 310.393 59.7571C310.039 59.0279 309.504 58.4753 308.786 58.0994C308.08 57.712 307.14 57.5183 305.966 57.5183C305.055 57.5183 304.252 57.6892 303.557 58.031C302.873 58.3728 302.303 58.8855 301.848 59.5691C301.392 60.2413 301.05 61.0844 300.822 62.0984C300.594 63.101 300.48 64.2631 300.48 65.5847V67.5159C300.48 68.7805 300.583 69.9141 300.788 70.9167C300.993 71.9194 301.312 72.7681 301.745 73.4631C302.178 74.1581 302.736 74.6879 303.42 75.0525C304.104 75.4171 304.918 75.5994 305.864 75.5994C307.014 75.5994 307.949 75.4171 308.667 75.0525C309.396 74.6879 309.948 74.1524 310.324 73.446C310.712 72.7397 310.957 71.8624 311.059 70.8142ZM329.813 74.6082V60.509H334.359V79.0002H330.086L329.813 74.6082ZM330.394 70.78L331.795 70.7458C331.795 71.9877 331.659 73.1327 331.385 74.1809C331.112 75.2291 330.685 76.1405 330.104 76.9153C329.534 77.6786 328.81 78.2768 327.933 78.7097C327.056 79.1313 326.019 79.342 324.823 79.342C323.911 79.342 323.08 79.2167 322.328 78.9661C321.576 78.704 320.926 78.2996 320.379 77.7527C319.844 77.1944 319.428 76.4823 319.132 75.6165C318.836 74.7392 318.688 73.6853 318.688 72.4548V60.509H323.199V72.489C323.199 73.1042 323.268 73.6169 323.404 74.0271C323.552 74.4373 323.752 74.7734 324.002 75.0354C324.264 75.2861 324.566 75.4683 324.908 75.5823C325.261 75.6848 325.637 75.7361 326.036 75.7361C327.13 75.7361 327.99 75.5196 328.617 75.0867C329.255 74.6423 329.71 74.0499 329.984 73.3093C330.257 72.5574 330.394 71.7143 330.394 70.78ZM348.276 73.9417C348.276 73.5543 348.174 73.2068 347.969 72.8992C347.764 72.5916 347.376 72.3124 346.807 72.0618C346.248 71.7997 345.428 71.5548 344.346 71.3269C343.389 71.1218 342.506 70.8655 341.697 70.5579C340.888 70.2502 340.193 69.88 339.612 69.447C339.031 69.0027 338.575 68.4843 338.245 67.8918C337.926 67.288 337.766 66.593 337.766 65.8069C337.766 65.0435 337.931 64.3258 338.262 63.6536C338.592 62.97 339.071 62.3718 339.697 61.8591C340.324 61.335 341.087 60.9249 341.987 60.6287C342.887 60.321 343.901 60.1672 345.029 60.1672C346.602 60.1672 347.952 60.4236 349.08 60.9363C350.219 61.449 351.09 62.1554 351.694 63.0554C352.298 63.9441 352.6 64.9467 352.6 66.0632H348.088C348.088 65.5733 347.974 65.129 347.747 64.7302C347.53 64.3315 347.194 64.0125 346.738 63.7732C346.283 63.5225 345.707 63.3972 345.012 63.3972C344.386 63.3972 343.856 63.4998 343.423 63.7048C343.001 63.9099 342.682 64.1777 342.466 64.5081C342.249 64.8385 342.141 65.203 342.141 65.6018C342.141 65.898 342.198 66.1658 342.312 66.405C342.437 66.6329 342.637 66.8437 342.91 67.0374C343.184 67.231 343.554 67.4076 344.021 67.5671C344.5 67.7266 345.086 67.8805 345.781 68.0286C347.16 68.302 348.362 68.6666 349.387 69.1223C350.424 69.5667 351.233 70.1591 351.814 70.8997C352.395 71.6402 352.686 72.5859 352.686 73.7366C352.686 74.5569 352.509 75.3088 352.156 75.9924C351.803 76.6646 351.29 77.2514 350.618 77.7527C349.945 78.254 349.142 78.6471 348.208 78.9319C347.274 79.2053 346.22 79.342 345.046 79.342C343.349 79.342 341.913 79.0401 340.74 78.4363C339.566 77.821 338.678 77.0463 338.074 76.1121C337.47 75.1664 337.168 74.1866 337.168 73.1726H341.492C341.526 73.8904 341.72 74.4657 342.073 74.8987C342.426 75.3316 342.87 75.6449 343.406 75.8386C343.953 76.0209 344.528 76.1121 345.132 76.1121C345.815 76.1121 346.391 76.0209 346.858 75.8386C347.325 75.6449 347.678 75.3886 347.917 75.0696C348.157 74.7392 348.276 74.3632 348.276 73.9417ZM364.621 60.509V63.7561H354.025V60.509H364.621ZM356.862 55.9631H361.391V73.6682C361.391 74.2151 361.465 74.6366 361.613 74.9329C361.761 75.2291 361.983 75.4285 362.279 75.531C362.576 75.6335 362.929 75.6848 363.339 75.6848C363.635 75.6848 363.909 75.6677 364.159 75.6335C364.41 75.5994 364.621 75.5652 364.792 75.531L364.809 78.9148C364.433 79.0401 364.005 79.1427 363.527 79.2224C363.06 79.3022 362.53 79.342 361.938 79.342C360.924 79.342 360.035 79.1711 359.271 78.8293C358.508 78.4762 357.916 77.9122 357.494 77.1375C357.073 76.3513 356.862 75.3145 356.862 74.0271V55.9631ZM366.131 69.9426V69.5837C366.131 68.2279 366.325 66.9804 366.712 65.8411C367.099 64.6903 367.663 63.6934 368.404 62.8503C369.144 62.0072 370.05 61.3521 371.121 60.885C372.192 60.4065 373.411 60.1672 374.778 60.1672C376.168 60.1672 377.399 60.4065 378.47 60.885C379.552 61.3521 380.464 62.0072 381.204 62.8503C381.945 63.6934 382.509 64.6903 382.896 65.8411C383.283 66.9804 383.477 68.2279 383.477 69.5837V69.9426C383.477 71.287 383.283 72.5346 382.896 73.6853C382.509 74.8246 381.945 75.8215 381.204 76.676C380.464 77.5191 379.558 78.1742 378.487 78.6414C377.416 79.1085 376.191 79.342 374.812 79.342C373.445 79.342 372.221 79.1085 371.138 78.6414C370.056 78.1742 369.144 77.5191 368.404 76.676C367.663 75.8215 367.099 74.8246 366.712 73.6853C366.325 72.5346 366.131 71.287 366.131 69.9426ZM370.643 69.5837V69.9426C370.643 70.7515 370.722 71.5092 370.882 72.2156C371.041 72.922 371.286 73.5429 371.617 74.0784C371.947 74.6139 372.374 75.0354 372.898 75.343C373.434 75.6392 374.072 75.7874 374.812 75.7874C375.542 75.7874 376.168 75.6392 376.692 75.343C377.216 75.0354 377.644 74.6139 377.974 74.0784C378.316 73.5429 378.567 72.922 378.726 72.2156C378.886 71.5092 378.965 70.7515 378.965 69.9426V69.5837C378.965 68.7862 378.886 68.04 378.726 67.345C378.567 66.6386 378.316 66.0177 377.974 65.4822C377.644 64.9353 377.211 64.5081 376.675 64.2004C376.151 63.8814 375.519 63.7219 374.778 63.7219C374.049 63.7219 373.423 63.8814 372.898 64.2004C372.374 64.5081 371.947 64.9353 371.617 65.4822C371.286 66.0177 371.041 66.6386 370.882 67.345C370.722 68.04 370.643 68.7862 370.643 69.5837ZM391.003 64.303V79.0002H386.491V60.509H390.747L391.003 64.303ZM390.336 69.0881H388.952C388.952 67.8007 389.106 66.6158 389.414 65.5334C389.733 64.4511 390.2 63.5111 390.815 62.7136C391.43 61.9047 392.188 61.2781 393.088 60.8337C393.999 60.3894 395.053 60.1672 396.25 60.1672C397.081 60.1672 397.845 60.2926 398.54 60.5432C399.235 60.7825 399.833 61.1641 400.334 61.6882C400.847 62.2009 401.24 62.8731 401.513 63.7048C401.787 64.5251 401.923 65.5107 401.923 66.6614V79.0002H397.412V67.1228C397.412 66.2569 397.286 65.579 397.036 65.0891C396.796 64.5992 396.449 64.2574 395.993 64.0637C395.537 63.8586 394.991 63.7561 394.353 63.7561C393.646 63.7561 393.037 63.8985 392.524 64.1833C392.023 64.4568 391.607 64.8385 391.276 65.3284C390.957 65.8183 390.718 66.3822 390.559 67.0203C390.41 67.6583 390.336 68.3476 390.336 69.0881ZM401.582 68.2507L399.719 68.5925C399.73 67.4304 399.89 66.3424 400.197 65.3284C400.505 64.303 400.955 63.4086 401.547 62.6453C402.151 61.8705 402.897 61.2667 403.786 60.8337C404.686 60.3894 405.723 60.1672 406.896 60.1672C407.808 60.1672 408.628 60.2983 409.357 60.5603C410.098 60.811 410.73 61.2154 411.254 61.7737C411.778 62.3206 412.177 63.0326 412.451 63.9099C412.736 64.7872 412.878 65.8582 412.878 67.1228V79.0002H408.332V67.1057C408.332 66.2056 408.207 65.5164 407.956 65.0378C407.717 64.5593 407.369 64.2289 406.914 64.0466C406.458 63.8529 405.922 63.7561 405.307 63.7561C404.681 63.7561 404.134 63.8757 403.667 64.115C403.211 64.3429 402.823 64.6619 402.504 65.072C402.197 65.4822 401.963 65.9607 401.804 66.5076C401.656 67.0431 401.582 67.6241 401.582 68.2507ZM424.984 79.342C423.583 79.342 422.324 79.1142 421.207 78.6584C420.09 78.2027 419.139 77.5704 418.353 76.7615C417.578 75.9412 416.98 74.9898 416.559 73.9075C416.148 72.8137 415.943 71.6402 415.943 70.387V69.7034C415.943 68.2792 416.148 66.9861 416.559 65.824C416.969 64.6505 417.55 63.6422 418.302 62.7991C419.054 61.956 419.954 61.3066 421.002 60.8508C422.05 60.3951 423.207 60.1672 424.471 60.1672C425.781 60.1672 426.938 60.3894 427.94 60.8337C428.943 61.2667 429.78 61.8819 430.453 62.6794C431.125 63.477 431.632 64.434 431.974 65.5505C432.315 66.6557 432.486 67.8805 432.486 69.2249V71.1218H417.994V68.0115H428.043V67.6697C428.02 66.9519 427.883 66.2968 427.633 65.7043C427.382 65.1005 426.995 64.622 426.471 64.2688C425.947 63.9042 425.269 63.7219 424.437 63.7219C423.765 63.7219 423.178 63.87 422.677 64.1663C422.187 64.4511 421.777 64.8612 421.446 65.3967C421.127 65.9208 420.888 66.5474 420.729 67.2766C420.569 68.0058 420.489 68.8147 420.489 69.7034V70.387C420.489 71.1617 420.592 71.8795 420.797 72.5403C421.013 73.2011 421.327 73.7764 421.737 74.2664C422.158 74.7449 422.66 75.1208 423.241 75.3943C423.833 75.6563 424.505 75.7874 425.257 75.7874C426.203 75.7874 427.057 75.6051 427.821 75.2405C428.596 74.8645 429.268 74.3119 429.837 73.5828L432.11 75.9412C431.723 76.5108 431.199 77.0577 430.538 77.5818C429.889 78.1059 429.103 78.5331 428.18 78.8635C427.257 79.1825 426.192 79.342 424.984 79.342ZM439.773 64.2859V79.0002H435.261V60.509H439.534L439.773 64.2859ZM445.396 60.3894L445.327 64.5935C445.076 64.5479 444.792 64.5138 444.473 64.491C444.165 64.4682 443.875 64.4568 443.601 64.4568C442.906 64.4568 442.297 64.5536 441.772 64.7473C441.248 64.9296 440.81 65.1973 440.457 65.5505C440.115 65.9037 439.853 66.3367 439.67 66.8494C439.488 67.3507 439.386 67.9203 439.363 68.5583L438.389 68.4387C438.389 67.2652 438.508 66.1772 438.748 65.1746C438.987 64.172 439.334 63.2947 439.79 62.5427C440.246 61.7908 440.815 61.2097 441.499 60.7996C442.194 60.378 442.992 60.1672 443.892 60.1672C444.142 60.1672 444.41 60.19 444.695 60.2356C444.991 60.2698 445.225 60.321 445.396 60.3894ZM469.454 72.5403C469.454 72.0618 469.38 71.6345 469.231 71.2585C469.095 70.8712 468.838 70.5237 468.462 70.2161C468.098 69.8971 467.579 69.5894 466.907 69.2932C466.246 68.9856 465.392 68.6666 464.344 68.3362C463.182 67.9716 462.099 67.5614 461.097 67.1057C460.094 66.65 459.211 66.1202 458.448 65.5164C457.696 64.9125 457.109 64.2175 456.688 63.4314C456.266 62.6339 456.055 61.711 456.055 60.6628C456.055 59.6375 456.272 58.7032 456.705 57.8601C457.149 57.017 457.776 56.2935 458.584 55.6897C459.393 55.0745 460.345 54.6016 461.438 54.2712C462.544 53.9408 463.763 53.7756 465.096 53.7756C466.941 53.7756 468.536 54.1117 469.881 54.7839C471.237 55.4561 472.285 56.3676 473.025 57.5183C473.766 58.669 474.136 59.9622 474.136 61.3977H469.454C469.454 60.623 469.288 59.9394 468.958 59.3469C468.639 58.7545 468.149 58.2874 467.488 57.9456C466.839 57.6038 466.019 57.4329 465.027 57.4329C464.07 57.4329 463.273 57.5753 462.635 57.8601C462.008 58.1449 461.535 58.5323 461.216 59.0222C460.909 59.5121 460.755 60.059 460.755 60.6628C460.755 61.1186 460.863 61.5287 461.08 61.8933C461.296 62.2465 461.621 62.5826 462.054 62.9016C462.487 63.2092 463.022 63.4998 463.66 63.7732C464.31 64.0352 465.062 64.2973 465.916 64.5593C467.283 64.9695 468.479 65.4252 469.505 65.9265C470.542 66.4278 471.402 66.9975 472.085 67.6355C472.78 68.2735 473.299 68.9913 473.641 69.7888C473.994 70.5863 474.17 71.4921 474.17 72.5061C474.17 73.5771 473.96 74.5341 473.538 75.3772C473.117 76.2203 472.513 76.9381 471.727 77.5305C470.94 78.123 469.995 78.573 468.89 78.8806C467.796 79.1882 466.571 79.342 465.215 79.342C464.008 79.342 462.811 79.1825 461.626 78.8635C460.453 78.5331 459.388 78.0432 458.431 77.3938C457.474 76.733 456.71 75.9013 456.141 74.8987C455.571 73.8847 455.286 72.6998 455.286 71.344H460.003C460.003 72.1301 460.128 72.8023 460.379 73.3606C460.641 73.9075 461.006 74.3575 461.473 74.7107C461.951 75.0525 462.509 75.3031 463.147 75.4626C463.785 75.6222 464.475 75.7019 465.215 75.7019C466.172 75.7019 466.958 75.5709 467.574 75.3088C468.2 75.0354 468.667 74.6594 468.975 74.1809C469.294 73.7024 469.454 73.1555 469.454 72.5403ZM488.208 74.6082V60.509H492.753V79.0002H488.481L488.208 74.6082ZM488.789 70.78L490.19 70.7458C490.19 71.9877 490.053 73.1327 489.78 74.1809C489.506 75.2291 489.079 76.1405 488.498 76.9153C487.928 77.6786 487.205 78.2768 486.328 78.7097C485.45 79.1313 484.414 79.342 483.217 79.342C482.306 79.342 481.474 79.2167 480.722 78.9661C479.97 78.704 479.321 78.2996 478.774 77.7527C478.238 77.1944 477.823 76.4823 477.526 75.6165C477.23 74.7392 477.082 73.6853 477.082 72.4548V60.509H481.594V72.489C481.594 73.1042 481.662 73.6169 481.799 74.0271C481.947 74.4373 482.146 74.7734 482.397 75.0354C482.659 75.2861 482.961 75.4683 483.303 75.5823C483.656 75.6848 484.032 75.7361 484.431 75.7361C485.524 75.7361 486.385 75.5196 487.011 75.0867C487.649 74.6423 488.105 74.0499 488.378 73.3093C488.652 72.5574 488.789 71.7143 488.789 70.78ZM501.014 64.0637V86.1096H496.485V60.509H500.672L501.014 64.0637ZM512.892 69.5667V69.9255C512.892 71.2699 512.732 72.5175 512.413 73.6682C512.105 74.8075 511.65 75.8044 511.046 76.6589C510.442 77.502 509.69 78.1628 508.79 78.6414C507.901 79.1085 506.876 79.342 505.714 79.342C504.575 79.342 503.583 79.1256 502.74 78.6926C501.897 78.2483 501.185 77.6217 500.604 76.8127C500.023 76.0038 499.556 75.0639 499.203 73.9929C498.861 72.9106 498.604 71.7314 498.434 70.4553V69.3103C498.604 67.9545 498.861 66.724 499.203 65.6189C499.556 64.5024 500.023 63.5396 500.604 62.7307C501.185 61.9104 501.891 61.2781 502.723 60.8337C503.566 60.3894 504.552 60.1672 505.68 60.1672C506.853 60.1672 507.884 60.3894 508.773 60.8337C509.673 61.2781 510.431 61.9161 511.046 62.7478C511.661 63.5795 512.123 64.5707 512.43 65.7214C512.738 66.8722 512.892 68.1539 512.892 69.5667ZM508.363 69.9255V69.5667C508.363 68.7463 508.289 67.9887 508.141 67.2937C507.993 66.5873 507.765 65.9721 507.457 65.448C507.149 64.9125 506.751 64.4967 506.261 64.2004C505.771 63.9042 505.178 63.7561 504.483 63.7561C503.788 63.7561 503.19 63.87 502.689 64.0979C502.188 64.3258 501.778 64.6505 501.458 65.072C501.139 65.4936 500.889 65.9949 500.707 66.5759C500.536 67.1456 500.422 67.7779 500.365 68.4729V71.3098C500.467 72.1529 500.667 72.9106 500.963 73.5828C501.259 74.255 501.692 74.7904 502.262 75.1892C502.843 75.588 503.595 75.7874 504.518 75.7874C505.213 75.7874 505.805 75.6335 506.295 75.3259C506.785 75.0183 507.184 74.5968 507.491 74.0613C507.799 73.5144 508.021 72.8878 508.158 72.1814C508.294 71.475 508.363 70.7231 508.363 69.9255ZM520.452 64.0637V86.1096H515.923V60.509H520.11L520.452 64.0637ZM532.329 69.5667V69.9255C532.329 71.2699 532.17 72.5175 531.851 73.6682C531.543 74.8075 531.087 75.8044 530.483 76.6589C529.88 77.502 529.128 78.1628 528.228 78.6414C527.339 79.1085 526.313 79.342 525.151 79.342C524.012 79.342 523.021 79.1256 522.178 78.6926C521.335 78.2483 520.623 77.6217 520.042 76.8127C519.46 76.0038 518.993 75.0639 518.64 73.9929C518.298 72.9106 518.042 71.7314 517.871 70.4553V69.3103C518.042 67.9545 518.298 66.724 518.64 65.6189C518.993 64.5024 519.46 63.5396 520.042 62.7307C520.623 61.9104 521.329 61.2781 522.161 60.8337C523.004 60.3894 523.989 60.1672 525.117 60.1672C526.291 60.1672 527.322 60.3894 528.21 60.8337C529.111 61.2781 529.868 61.9161 530.483 62.7478C531.099 63.5795 531.56 64.5707 531.868 65.7214C532.175 66.8722 532.329 68.1539 532.329 69.5667ZM527.8 69.9255V69.5667C527.8 68.7463 527.726 67.9887 527.578 67.2937C527.43 66.5873 527.202 65.9721 526.895 65.448C526.587 64.9125 526.188 64.4967 525.698 64.2004C525.208 63.9042 524.616 63.7561 523.921 63.7561C523.226 63.7561 522.628 63.87 522.126 64.0979C521.625 64.3258 521.215 64.6505 520.896 65.072C520.577 65.4936 520.326 65.9949 520.144 66.5759C519.973 67.1456 519.859 67.7779 519.802 68.4729V71.3098C519.905 72.1529 520.104 72.9106 520.4 73.5828C520.697 74.255 521.13 74.7904 521.699 75.1892C522.28 75.588 523.032 75.7874 523.955 75.7874C524.65 75.7874 525.243 75.6335 525.732 75.3259C526.222 75.0183 526.621 74.5968 526.929 74.0613C527.236 73.5144 527.458 72.8878 527.595 72.1814C527.732 71.475 527.8 70.7231 527.8 69.9255ZM534.574 69.9426V69.5837C534.574 68.2279 534.768 66.9804 535.155 65.8411C535.543 64.6903 536.107 63.6934 536.847 62.8503C537.588 62.0072 538.493 61.3521 539.564 60.885C540.635 60.4065 541.854 60.1672 543.222 60.1672C544.612 60.1672 545.842 60.4065 546.913 60.885C547.995 61.3521 548.907 62.0072 549.647 62.8503C550.388 63.6934 550.952 64.6903 551.339 65.8411C551.727 66.9804 551.92 68.2279 551.92 69.5837V69.9426C551.92 71.287 551.727 72.5346 551.339 73.6853C550.952 74.8246 550.388 75.8215 549.647 76.676C548.907 77.5191 548.001 78.1742 546.93 78.6414C545.859 79.1085 544.634 79.342 543.256 79.342C541.889 79.342 540.664 79.1085 539.582 78.6414C538.499 78.1742 537.588 77.5191 536.847 76.676C536.107 75.8215 535.543 74.8246 535.155 73.6853C534.768 72.5346 534.574 71.287 534.574 69.9426ZM539.086 69.5837V69.9426C539.086 70.7515 539.166 71.5092 539.325 72.2156C539.485 72.922 539.73 73.5429 540.06 74.0784C540.39 74.6139 540.818 75.0354 541.342 75.343C541.877 75.6392 542.515 75.7874 543.256 75.7874C543.985 75.7874 544.612 75.6392 545.136 75.343C545.66 75.0354 546.087 74.6139 546.417 74.0784C546.759 73.5429 547.01 72.922 547.169 72.2156C547.329 71.5092 547.409 70.7515 547.409 69.9426V69.5837C547.409 68.7862 547.329 68.04 547.169 67.345C547.01 66.6386 546.759 66.0177 546.417 65.4822C546.087 64.9353 545.654 64.5081 545.119 64.2004C544.595 63.8814 543.962 63.7219 543.222 63.7219C542.493 63.7219 541.866 63.8814 541.342 64.2004C540.818 64.5081 540.39 64.9353 540.06 65.4822C539.73 66.0177 539.485 66.6386 539.325 67.345C539.166 68.04 539.086 68.7862 539.086 69.5837ZM559.463 64.2859V79.0002H554.952V60.509H559.224L559.463 64.2859ZM565.086 60.3894L565.018 64.5935C564.767 64.5479 564.482 64.5138 564.163 64.491C563.855 64.4682 563.565 64.4568 563.292 64.4568C562.597 64.4568 561.987 64.5536 561.463 64.7473C560.939 64.9296 560.5 65.1973 560.147 65.5505C559.805 65.9037 559.543 66.3367 559.361 66.8494C559.179 67.3507 559.076 67.9203 559.053 68.5583L558.079 68.4387C558.079 67.2652 558.199 66.1772 558.438 65.1746C558.677 64.172 559.025 63.2947 559.48 62.5427C559.936 61.7908 560.506 61.2097 561.189 60.7996C561.884 60.378 562.682 60.1672 563.582 60.1672C563.833 60.1672 564.1 60.19 564.385 60.2356C564.681 60.2698 564.915 60.321 565.086 60.3894ZM576.918 60.509V63.7561H566.323V60.509H576.918ZM569.16 55.9631H573.688V73.6682C573.688 74.2151 573.763 74.6366 573.911 74.9329C574.059 75.2291 574.281 75.4285 574.577 75.531C574.873 75.6335 575.227 75.6848 575.637 75.6848C575.933 75.6848 576.206 75.6677 576.457 75.6335C576.708 75.5994 576.918 75.5652 577.089 75.531L577.106 78.9148C576.73 79.0401 576.303 79.1427 575.825 79.2224C575.358 79.3022 574.828 79.342 574.235 79.342C573.221 79.342 572.333 79.1711 571.569 78.8293C570.806 78.4762 570.214 77.9122 569.792 77.1375C569.37 76.3513 569.16 75.3145 569.16 74.0271V55.9631Z" fill="#EDD5B1"/>
<path d="M265.817 102.203V115H264.93V102.203H265.817ZM270.036 107.521V115H269.166V105.49H270.01L270.036 107.521ZM269.852 109.586L269.456 109.243C269.497 108.716 269.614 108.215 269.808 107.74C270.001 107.266 270.262 106.847 270.59 106.484C270.918 106.12 271.305 105.836 271.75 105.631C272.195 105.42 272.685 105.315 273.218 105.315C273.692 105.315 274.117 105.379 274.492 105.508C274.867 105.637 275.184 105.842 275.441 106.123C275.705 106.405 275.904 106.768 276.039 107.213C276.18 107.653 276.25 108.189 276.25 108.822V115H275.38V108.813C275.38 108.11 275.28 107.562 275.081 107.169C274.888 106.777 274.615 106.498 274.264 106.334C273.918 106.17 273.508 106.088 273.033 106.088C272.5 106.088 272.037 106.205 271.645 106.44C271.252 106.674 270.924 106.973 270.66 107.336C270.402 107.699 270.206 108.083 270.071 108.488C269.937 108.886 269.863 109.252 269.852 109.586ZM282.534 105.49V106.238H277.876V105.49H282.534ZM279.625 103.012H280.504V112.698C280.504 113.172 280.562 113.532 280.68 113.779C280.803 114.019 280.964 114.18 281.163 114.262C281.362 114.344 281.576 114.385 281.805 114.385C281.969 114.385 282.121 114.376 282.262 114.359C282.408 114.341 282.549 114.321 282.684 114.297L282.736 115.044C282.607 115.085 282.44 115.117 282.235 115.141C282.03 115.164 281.837 115.176 281.655 115.176C281.251 115.176 280.896 115.103 280.592 114.956C280.287 114.804 280.05 114.549 279.88 114.192C279.71 113.828 279.625 113.33 279.625 112.698V103.012ZM288.414 115.176C287.805 115.176 287.242 115.062 286.727 114.833C286.211 114.605 285.763 114.282 285.382 113.866C285.001 113.445 284.705 112.949 284.494 112.381C284.283 111.807 284.178 111.177 284.178 110.491V110.114C284.178 109.387 284.283 108.731 284.494 108.145C284.711 107.559 285.007 107.055 285.382 106.633C285.763 106.205 286.196 105.88 286.683 105.657C287.169 105.429 287.685 105.315 288.229 105.315C288.804 105.315 289.319 105.42 289.776 105.631C290.239 105.836 290.632 106.129 290.954 106.51C291.276 106.891 291.52 107.342 291.684 107.864C291.854 108.379 291.938 108.95 291.938 109.577V110.193H284.714V109.428H291.068V109.314C291.062 108.745 290.948 108.218 290.726 107.732C290.509 107.24 290.189 106.841 289.768 106.536C289.352 106.232 288.839 106.079 288.229 106.079C287.755 106.079 287.321 106.182 286.929 106.387C286.542 106.586 286.208 106.867 285.927 107.231C285.646 107.588 285.429 108.013 285.276 108.505C285.124 108.991 285.048 109.528 285.048 110.114V110.491C285.048 111.036 285.13 111.546 285.294 112.021C285.464 112.495 285.698 112.911 285.997 113.269C286.302 113.626 286.662 113.907 287.078 114.113C287.494 114.318 287.948 114.42 288.44 114.42C288.997 114.42 289.498 114.321 289.943 114.121C290.389 113.916 290.793 113.579 291.156 113.111L291.71 113.532C291.505 113.837 291.25 114.115 290.945 114.367C290.641 114.614 290.28 114.81 289.864 114.956C289.448 115.103 288.965 115.176 288.414 115.176ZM295.032 101.5V115H294.162V101.5H295.032ZM298.97 101.5V115H298.1V101.5H298.97ZM302.907 105.49V115H302.037V105.49H302.907ZM301.835 102.669C301.835 102.493 301.894 102.344 302.011 102.221C302.128 102.092 302.283 102.028 302.477 102.028C302.676 102.028 302.834 102.092 302.951 102.221C303.074 102.344 303.136 102.493 303.136 102.669C303.136 102.845 303.074 102.994 302.951 103.117C302.834 103.24 302.676 103.302 302.477 103.302C302.283 103.302 302.128 103.24 302.011 103.117C301.894 102.994 301.835 102.845 301.835 102.669ZM312.145 105.49H312.962V114.842C312.962 115.662 312.81 116.368 312.505 116.96C312.2 117.558 311.767 118.015 311.204 118.331C310.647 118.648 309.988 118.806 309.227 118.806C308.811 118.806 308.4 118.744 307.996 118.621C307.592 118.498 307.214 118.314 306.862 118.068C306.517 117.827 306.221 117.534 305.975 117.189L306.484 116.653C306.865 117.121 307.275 117.47 307.715 117.698C308.154 117.927 308.641 118.041 309.174 118.041C309.801 118.041 310.331 117.912 310.765 117.655C311.198 117.403 311.526 117.039 311.749 116.565C311.978 116.09 312.092 115.525 312.092 114.868V107.582L312.145 105.49ZM305.43 110.342V110.157C305.43 109.413 305.512 108.745 305.676 108.154C305.84 107.556 306.077 107.046 306.388 106.624C306.704 106.202 307.088 105.88 307.539 105.657C307.99 105.429 308.5 105.315 309.068 105.315C309.613 105.315 310.097 105.403 310.519 105.578C310.94 105.754 311.304 106.003 311.608 106.325C311.919 106.648 312.171 107.029 312.364 107.468C312.558 107.907 312.701 108.394 312.795 108.927V111.757C312.719 112.243 312.587 112.695 312.399 113.111C312.212 113.527 311.963 113.89 311.652 114.2C311.342 114.511 310.97 114.751 310.536 114.921C310.108 115.091 309.613 115.176 309.051 115.176C308.488 115.176 307.981 115.059 307.53 114.824C307.085 114.59 306.704 114.259 306.388 113.831C306.077 113.398 305.84 112.888 305.676 112.302C305.512 111.71 305.43 111.057 305.43 110.342ZM306.3 110.157V110.342C306.3 110.916 306.358 111.452 306.476 111.95C306.593 112.443 306.769 112.87 307.003 113.234C307.243 113.597 307.542 113.881 307.899 114.086C308.263 114.291 308.69 114.394 309.183 114.394C309.804 114.394 310.328 114.28 310.756 114.051C311.184 113.817 311.523 113.506 311.775 113.119C312.027 112.733 312.206 112.308 312.312 111.845V108.918C312.247 108.614 312.147 108.297 312.013 107.969C311.884 107.641 311.699 107.336 311.459 107.055C311.225 106.768 310.923 106.536 310.554 106.361C310.185 106.185 309.733 106.097 309.2 106.097C308.702 106.097 308.271 106.199 307.908 106.405C307.545 106.61 307.243 106.897 307.003 107.266C306.769 107.629 306.593 108.057 306.476 108.549C306.358 109.041 306.3 109.577 306.3 110.157ZM319.404 115.176C318.795 115.176 318.232 115.062 317.717 114.833C317.201 114.605 316.753 114.282 316.372 113.866C315.991 113.445 315.695 112.949 315.484 112.381C315.273 111.807 315.168 111.177 315.168 110.491V110.114C315.168 109.387 315.273 108.731 315.484 108.145C315.701 107.559 315.997 107.055 316.372 106.633C316.753 106.205 317.187 105.88 317.673 105.657C318.159 105.429 318.675 105.315 319.22 105.315C319.794 105.315 320.31 105.42 320.767 105.631C321.229 105.836 321.622 106.129 321.944 106.51C322.267 106.891 322.51 107.342 322.674 107.864C322.844 108.379 322.929 108.95 322.929 109.577V110.193H315.704V109.428H322.059V109.314C322.053 108.745 321.938 108.218 321.716 107.732C321.499 107.24 321.18 106.841 320.758 106.536C320.342 106.232 319.829 106.079 319.22 106.079C318.745 106.079 318.312 106.182 317.919 106.387C317.532 106.586 317.198 106.867 316.917 107.231C316.636 107.588 316.419 108.013 316.267 108.505C316.114 108.991 316.038 109.528 316.038 110.114V110.491C316.038 111.036 316.12 111.546 316.284 112.021C316.454 112.495 316.688 112.911 316.987 113.269C317.292 113.626 317.652 113.907 318.068 114.113C318.484 114.318 318.938 114.42 319.431 114.42C319.987 114.42 320.488 114.321 320.934 114.121C321.379 113.916 321.783 113.579 322.146 113.111L322.7 113.532C322.495 113.837 322.24 114.115 321.936 114.367C321.631 114.614 321.271 114.81 320.854 114.956C320.438 115.103 319.955 115.176 319.404 115.176ZM325.899 107.521V115H325.029V105.49H325.873L325.899 107.521ZM325.715 109.586L325.319 109.243C325.36 108.716 325.478 108.215 325.671 107.74C325.864 107.266 326.125 106.847 326.453 106.484C326.781 106.12 327.168 105.836 327.613 105.631C328.059 105.42 328.548 105.315 329.081 105.315C329.556 105.315 329.98 105.379 330.355 105.508C330.73 105.637 331.047 105.842 331.305 106.123C331.568 106.405 331.768 106.768 331.902 107.213C332.043 107.653 332.113 108.189 332.113 108.822V115H331.243V108.813C331.243 108.11 331.144 107.562 330.944 107.169C330.751 106.777 330.479 106.498 330.127 106.334C329.781 106.17 329.371 106.088 328.896 106.088C328.363 106.088 327.9 106.205 327.508 106.44C327.115 106.674 326.787 106.973 326.523 107.336C326.266 107.699 326.069 108.083 325.935 108.488C325.8 108.886 325.727 109.252 325.715 109.586ZM338.397 105.49V106.238H333.739V105.49H338.397ZM335.488 103.012H336.367V112.698C336.367 113.172 336.426 113.532 336.543 113.779C336.666 114.019 336.827 114.18 337.026 114.262C337.226 114.344 337.439 114.385 337.668 114.385C337.832 114.385 337.984 114.376 338.125 114.359C338.271 114.341 338.412 114.321 338.547 114.297L338.6 115.044C338.471 115.085 338.304 115.117 338.099 115.141C337.894 115.164 337.7 115.176 337.519 115.176C337.114 115.176 336.76 115.103 336.455 114.956C336.15 114.804 335.913 114.549 335.743 114.192C335.573 113.828 335.488 113.33 335.488 112.698V103.012ZM348.461 114.411C348.918 114.411 349.349 114.326 349.753 114.156C350.163 113.981 350.503 113.72 350.772 113.374C351.048 113.029 351.203 112.595 351.238 112.073H352.073C352.044 112.689 351.862 113.231 351.528 113.699C351.194 114.168 350.758 114.531 350.219 114.789C349.686 115.047 349.1 115.176 348.461 115.176C347.811 115.176 347.236 115.059 346.738 114.824C346.24 114.584 345.821 114.25 345.481 113.823C345.147 113.395 344.893 112.894 344.717 112.32C344.547 111.74 344.462 111.11 344.462 110.43V110.061C344.462 109.381 344.547 108.754 344.717 108.18C344.893 107.6 345.147 107.096 345.481 106.668C345.821 106.24 346.237 105.909 346.729 105.675C347.228 105.435 347.802 105.315 348.452 105.315C349.108 105.315 349.703 105.449 350.236 105.719C350.775 105.983 351.209 106.366 351.537 106.87C351.865 107.368 352.044 107.969 352.073 108.672H351.238C351.209 108.121 351.065 107.656 350.808 107.275C350.55 106.888 350.216 106.592 349.806 106.387C349.396 106.182 348.944 106.079 348.452 106.079C347.896 106.079 347.418 106.188 347.02 106.405C346.627 106.615 346.305 106.908 346.053 107.283C345.807 107.653 345.622 108.074 345.499 108.549C345.382 109.024 345.323 109.528 345.323 110.061V110.43C345.323 110.963 345.382 111.47 345.499 111.95C345.616 112.425 345.801 112.847 346.053 113.216C346.305 113.585 346.63 113.878 347.028 114.095C347.427 114.306 347.904 114.411 348.461 114.411ZM355.132 101.5V115H354.262V101.5H355.132ZM354.947 109.586L354.552 109.243C354.593 108.716 354.71 108.215 354.903 107.74C355.097 107.266 355.357 106.847 355.686 106.484C356.014 106.12 356.4 105.836 356.846 105.631C357.291 105.42 357.78 105.315 358.313 105.315C358.788 105.315 359.213 105.379 359.588 105.508C359.963 105.637 360.279 105.842 360.537 106.123C360.801 106.405 361 106.768 361.135 107.213C361.275 107.653 361.346 108.189 361.346 108.822V115H360.476V108.813C360.476 108.11 360.376 107.562 360.177 107.169C359.983 106.777 359.711 106.498 359.359 106.334C359.014 106.17 358.604 106.088 358.129 106.088C357.596 106.088 357.133 106.205 356.74 106.44C356.348 106.674 356.02 106.973 355.756 107.336C355.498 107.699 355.302 108.083 355.167 108.488C355.032 108.886 354.959 109.252 354.947 109.586ZM369.985 113.269V108.365C369.985 107.89 369.886 107.483 369.687 107.143C369.487 106.797 369.194 106.533 368.808 106.352C368.427 106.164 367.955 106.071 367.393 106.071C366.877 106.071 366.414 106.161 366.004 106.343C365.6 106.525 365.277 106.771 365.037 107.081C364.803 107.392 364.686 107.738 364.686 108.118L363.824 108.101C363.824 107.743 363.909 107.398 364.079 107.064C364.255 106.73 364.501 106.431 364.817 106.167C365.14 105.904 365.521 105.696 365.96 105.543C366.405 105.391 366.895 105.315 367.428 105.315C368.102 105.315 368.693 105.429 369.203 105.657C369.719 105.88 370.123 106.22 370.416 106.677C370.709 107.128 370.855 107.697 370.855 108.382V113.031C370.855 113.36 370.879 113.699 370.926 114.051C370.973 114.403 371.043 114.687 371.137 114.904V115H370.196C370.126 114.783 370.073 114.517 370.038 114.2C370.003 113.878 369.985 113.568 369.985 113.269ZM370.223 109.533L370.24 110.245H368.052C367.483 110.245 366.977 110.298 366.531 110.404C366.092 110.503 365.717 110.65 365.406 110.843C365.102 111.036 364.867 111.271 364.703 111.546C364.539 111.816 364.457 112.12 364.457 112.46C364.457 112.812 364.548 113.134 364.729 113.427C364.911 113.72 365.169 113.954 365.503 114.13C365.843 114.3 366.238 114.385 366.689 114.385C367.299 114.385 367.838 114.277 368.307 114.06C368.781 113.843 369.174 113.553 369.484 113.19C369.795 112.821 370.015 112.407 370.144 111.95L370.521 112.504C370.434 112.803 370.287 113.111 370.082 113.427C369.877 113.738 369.61 114.025 369.282 114.288C368.954 114.552 368.567 114.766 368.122 114.93C367.683 115.094 367.179 115.176 366.61 115.176C366.001 115.176 365.468 115.062 365.011 114.833C364.56 114.599 364.208 114.282 363.956 113.884C363.71 113.48 363.587 113.023 363.587 112.513C363.587 112.062 363.687 111.655 363.886 111.291C364.085 110.922 364.372 110.609 364.747 110.351C365.122 110.087 365.579 109.885 366.118 109.744C366.657 109.604 367.264 109.533 367.938 109.533H370.223ZM377.228 105.49V106.238H372.569V105.49H377.228ZM374.318 103.012H375.197V112.698C375.197 113.172 375.256 113.532 375.373 113.779C375.496 114.019 375.657 114.18 375.856 114.262C376.056 114.344 376.27 114.385 376.498 114.385C376.662 114.385 376.814 114.376 376.955 114.359C377.102 114.341 377.242 114.321 377.377 114.297L377.43 115.044C377.301 115.085 377.134 115.117 376.929 115.141C376.724 115.164 376.53 115.176 376.349 115.176C375.944 115.176 375.59 115.103 375.285 114.956C374.98 114.804 374.743 114.549 374.573 114.192C374.403 113.828 374.318 113.33 374.318 112.698V103.012ZM379.495 101.5H380.365V113.155L380.312 115H379.495V101.5ZM387.045 110.157V110.342C387.045 111.057 386.963 111.71 386.799 112.302C386.635 112.888 386.397 113.398 386.087 113.831C385.782 114.259 385.404 114.59 384.953 114.824C384.508 115.059 384.001 115.176 383.433 115.176C382.876 115.176 382.378 115.091 381.938 114.921C381.505 114.751 381.133 114.511 380.822 114.2C380.512 113.89 380.26 113.527 380.066 113.111C379.879 112.695 379.75 112.243 379.68 111.757V108.927C379.768 108.394 379.908 107.907 380.102 107.468C380.301 107.029 380.553 106.648 380.857 106.325C381.168 106.003 381.534 105.754 381.956 105.578C382.384 105.403 382.87 105.315 383.415 105.315C383.989 105.315 384.502 105.429 384.953 105.657C385.404 105.88 385.782 106.202 386.087 106.624C386.397 107.046 386.635 107.556 386.799 108.154C386.963 108.745 387.045 109.413 387.045 110.157ZM386.157 110.342V110.157C386.157 109.577 386.102 109.041 385.99 108.549C385.879 108.057 385.706 107.629 385.472 107.266C385.237 106.897 384.938 106.61 384.575 106.405C384.212 106.199 383.781 106.097 383.283 106.097C382.75 106.097 382.296 106.185 381.921 106.361C381.552 106.536 381.247 106.768 381.007 107.055C380.772 107.336 380.588 107.641 380.453 107.969C380.318 108.297 380.219 108.614 380.154 108.918V111.845C380.254 112.296 380.433 112.715 380.69 113.102C380.948 113.489 381.291 113.802 381.719 114.042C382.152 114.277 382.68 114.394 383.301 114.394C383.793 114.394 384.218 114.291 384.575 114.086C384.938 113.881 385.234 113.597 385.463 113.234C385.697 112.87 385.87 112.443 385.981 111.95C386.099 111.452 386.157 110.916 386.157 110.342ZM388.838 110.404V110.087C388.838 109.396 388.938 108.76 389.137 108.18C389.336 107.594 389.62 107.087 389.989 106.659C390.358 106.232 390.801 105.901 391.316 105.666C391.838 105.432 392.415 105.315 393.048 105.315C393.687 105.315 394.264 105.432 394.779 105.666C395.301 105.901 395.746 106.232 396.115 106.659C396.49 107.087 396.777 107.594 396.977 108.18C397.176 108.76 397.275 109.396 397.275 110.087V110.404C397.275 111.095 397.176 111.734 396.977 112.32C396.777 112.9 396.49 113.404 396.115 113.831C395.746 114.259 395.304 114.59 394.788 114.824C394.272 115.059 393.698 115.176 393.065 115.176C392.427 115.176 391.847 115.059 391.325 114.824C390.81 114.59 390.364 114.259 389.989 113.831C389.62 113.404 389.336 112.9 389.137 112.32C388.938 111.734 388.838 111.095 388.838 110.404ZM389.699 110.087V110.404C389.699 110.937 389.772 111.447 389.919 111.933C390.071 112.413 390.288 112.841 390.569 113.216C390.856 113.585 391.208 113.878 391.624 114.095C392.046 114.306 392.526 114.411 393.065 114.411C393.599 114.411 394.07 114.306 394.48 114.095C394.896 113.878 395.245 113.585 395.526 113.216C395.813 112.841 396.03 112.413 396.177 111.933C396.329 111.447 396.405 110.937 396.405 110.404V110.087C396.405 109.566 396.329 109.065 396.177 108.584C396.03 108.104 395.813 107.676 395.526 107.301C395.239 106.926 394.888 106.63 394.472 106.413C394.056 106.191 393.581 106.079 393.048 106.079C392.515 106.079 392.04 106.191 391.624 106.413C391.208 106.63 390.856 106.926 390.569 107.301C390.282 107.676 390.065 108.104 389.919 108.584C389.772 109.065 389.699 109.566 389.699 110.087ZM402.979 105.49V106.238H398.321V105.49H402.979ZM400.07 103.012H400.949V112.698C400.949 113.172 401.008 113.532 401.125 113.779C401.248 114.019 401.409 114.18 401.608 114.262C401.808 114.344 402.021 114.385 402.25 114.385C402.414 114.385 402.566 114.376 402.707 114.359C402.854 114.341 402.994 114.321 403.129 114.297L403.182 115.044C403.053 115.085 402.886 115.117 402.681 115.141C402.476 115.164 402.282 115.176 402.101 115.176C401.696 115.176 401.342 115.103 401.037 114.956C400.732 114.804 400.495 114.549 400.325 114.192C400.155 113.828 400.07 113.33 400.07 112.698V103.012ZM411.013 112.601C411.013 112.337 410.942 112.073 410.802 111.81C410.661 111.54 410.4 111.294 410.02 111.072C409.639 110.843 409.082 110.653 408.35 110.5C407.822 110.383 407.354 110.254 406.943 110.114C406.533 109.967 406.188 109.791 405.906 109.586C405.631 109.381 405.42 109.138 405.273 108.857C405.133 108.57 405.062 108.233 405.062 107.846C405.062 107.494 405.139 107.166 405.291 106.862C405.443 106.557 405.663 106.29 405.95 106.062C406.237 105.827 406.583 105.646 406.987 105.517C407.397 105.382 407.857 105.315 408.367 105.315C409.094 105.315 409.715 105.438 410.23 105.684C410.746 105.924 411.142 106.255 411.417 106.677C411.698 107.099 411.839 107.579 411.839 108.118H410.969C410.969 107.767 410.866 107.439 410.661 107.134C410.462 106.823 410.169 106.572 409.782 106.378C409.396 106.179 408.924 106.079 408.367 106.079C407.787 106.079 407.318 106.167 406.961 106.343C406.604 106.519 406.343 106.739 406.179 107.002C406.015 107.266 405.933 107.538 405.933 107.82C405.933 108.042 405.965 108.244 406.029 108.426C406.1 108.608 406.229 108.778 406.416 108.936C406.604 109.094 406.87 109.243 407.216 109.384C407.567 109.519 408.021 109.651 408.578 109.78C409.346 109.949 409.97 110.157 410.45 110.404C410.937 110.644 411.294 110.94 411.522 111.291C411.757 111.643 411.874 112.068 411.874 112.566C411.874 112.952 411.792 113.307 411.628 113.629C411.47 113.946 411.238 114.221 410.934 114.455C410.635 114.684 410.271 114.863 409.844 114.991C409.422 115.115 408.95 115.176 408.429 115.176C407.632 115.176 406.961 115.047 406.416 114.789C405.871 114.531 405.458 114.192 405.177 113.77C404.896 113.348 404.755 112.894 404.755 112.407H405.625C405.66 112.917 405.821 113.319 406.108 113.612C406.401 113.905 406.756 114.113 407.172 114.236C407.594 114.353 408.013 114.411 408.429 114.411C408.991 114.411 409.463 114.326 409.844 114.156C410.23 113.981 410.521 113.755 410.714 113.48C410.913 113.204 411.013 112.911 411.013 112.601ZM415.196 113.418V114.631C415.196 115.17 415.094 115.674 414.889 116.143C414.684 116.617 414.408 117.019 414.062 117.347L413.535 116.943C413.711 116.708 413.86 116.471 413.983 116.231C414.106 115.996 414.197 115.75 414.256 115.492C414.314 115.235 414.344 114.953 414.344 114.649V113.418H415.196ZM427.958 113.269V108.365C427.958 107.89 427.858 107.483 427.659 107.143C427.46 106.797 427.167 106.533 426.78 106.352C426.399 106.164 425.928 106.071 425.365 106.071C424.85 106.071 424.387 106.161 423.977 106.343C423.572 106.525 423.25 106.771 423.01 107.081C422.775 107.392 422.658 107.738 422.658 108.118L421.797 108.101C421.797 107.743 421.882 107.398 422.052 107.064C422.228 106.73 422.474 106.431 422.79 106.167C423.112 105.904 423.493 105.696 423.933 105.543C424.378 105.391 424.867 105.315 425.4 105.315C426.074 105.315 426.666 105.429 427.176 105.657C427.691 105.88 428.096 106.22 428.389 106.677C428.682 107.128 428.828 107.697 428.828 108.382V113.031C428.828 113.36 428.852 113.699 428.898 114.051C428.945 114.403 429.016 114.687 429.109 114.904V115H428.169C428.099 114.783 428.046 114.517 428.011 114.2C427.976 113.878 427.958 113.568 427.958 113.269ZM428.195 109.533L428.213 110.245H426.024C425.456 110.245 424.949 110.298 424.504 110.404C424.064 110.503 423.689 110.65 423.379 110.843C423.074 111.036 422.84 111.271 422.676 111.546C422.512 111.816 422.43 112.12 422.43 112.46C422.43 112.812 422.521 113.134 422.702 113.427C422.884 113.72 423.142 113.954 423.476 114.13C423.815 114.3 424.211 114.385 424.662 114.385C425.271 114.385 425.811 114.277 426.279 114.06C426.754 113.843 427.146 113.553 427.457 113.19C427.768 112.821 427.987 112.407 428.116 111.95L428.494 112.504C428.406 112.803 428.26 113.111 428.055 113.427C427.85 113.738 427.583 114.025 427.255 114.288C426.927 114.552 426.54 114.766 426.095 114.93C425.655 115.094 425.151 115.176 424.583 115.176C423.974 115.176 423.44 115.062 422.983 114.833C422.532 114.599 422.181 114.282 421.929 113.884C421.683 113.48 421.56 113.023 421.56 112.513C421.56 112.062 421.659 111.655 421.858 111.291C422.058 110.922 422.345 110.609 422.72 110.351C423.095 110.087 423.552 109.885 424.091 109.744C424.63 109.604 425.236 109.533 425.91 109.533H428.195ZM437.898 112.803V105.49H438.777V115H437.925L437.898 112.803ZM438.057 111.115L438.549 111.098C438.549 111.684 438.479 112.226 438.338 112.724C438.197 113.216 437.975 113.647 437.67 114.016C437.371 114.385 436.984 114.672 436.51 114.877C436.035 115.076 435.467 115.176 434.805 115.176C434.342 115.176 433.917 115.112 433.53 114.983C433.149 114.848 432.818 114.637 432.537 114.35C432.262 114.063 432.048 113.691 431.896 113.234C431.749 112.771 431.676 112.214 431.676 111.564V105.49H432.546V111.581C432.546 112.109 432.604 112.554 432.722 112.917C432.845 113.275 433.012 113.562 433.223 113.779C433.439 113.995 433.688 114.154 433.97 114.253C434.251 114.347 434.556 114.394 434.884 114.394C435.681 114.394 436.311 114.241 436.773 113.937C437.236 113.626 437.564 113.222 437.758 112.724C437.957 112.22 438.057 111.684 438.057 111.115ZM445.079 105.49V106.238H440.421V105.49H445.079ZM442.17 103.012H443.049V112.698C443.049 113.172 443.107 113.532 443.225 113.779C443.348 114.019 443.509 114.18 443.708 114.262C443.907 114.344 444.121 114.385 444.35 114.385C444.514 114.385 444.666 114.376 444.807 114.359C444.953 114.341 445.094 114.321 445.229 114.297L445.281 115.044C445.152 115.085 444.985 115.117 444.78 115.141C444.575 115.164 444.382 115.176 444.2 115.176C443.796 115.176 443.441 115.103 443.137 114.956C442.832 114.804 442.595 114.549 442.425 114.192C442.255 113.828 442.17 113.33 442.17 112.698V103.012ZM446.564 110.404V110.087C446.564 109.396 446.664 108.76 446.863 108.18C447.062 107.594 447.347 107.087 447.716 106.659C448.085 106.232 448.527 105.901 449.043 105.666C449.564 105.432 450.142 105.315 450.774 105.315C451.413 105.315 451.99 105.432 452.506 105.666C453.027 105.901 453.473 106.232 453.842 106.659C454.217 107.087 454.504 107.594 454.703 108.18C454.902 108.76 455.002 109.396 455.002 110.087V110.404C455.002 111.095 454.902 111.734 454.703 112.32C454.504 112.9 454.217 113.404 453.842 113.831C453.473 114.259 453.03 114.59 452.515 114.824C451.999 115.059 451.425 115.176 450.792 115.176C450.153 115.176 449.573 115.059 449.052 114.824C448.536 114.59 448.091 114.259 447.716 113.831C447.347 113.404 447.062 112.9 446.863 112.32C446.664 111.734 446.564 111.095 446.564 110.404ZM447.426 110.087V110.404C447.426 110.937 447.499 111.447 447.646 111.933C447.798 112.413 448.015 112.841 448.296 113.216C448.583 113.585 448.935 113.878 449.351 114.095C449.772 114.306 450.253 114.411 450.792 114.411C451.325 114.411 451.797 114.306 452.207 114.095C452.623 113.878 452.972 113.585 453.253 113.216C453.54 112.841 453.757 112.413 453.903 111.933C454.056 111.447 454.132 110.937 454.132 110.404V110.087C454.132 109.566 454.056 109.065 453.903 108.584C453.757 108.104 453.54 107.676 453.253 107.301C452.966 106.926 452.614 106.63 452.198 106.413C451.782 106.191 451.308 106.079 450.774 106.079C450.241 106.079 449.767 106.191 449.351 106.413C448.935 106.63 448.583 106.926 448.296 107.301C448.009 107.676 447.792 108.104 447.646 108.584C447.499 109.065 447.426 109.566 447.426 110.087ZM458.025 107.477V115H457.146V105.49H457.999L458.025 107.477ZM457.876 109.586L457.445 109.243C457.486 108.716 457.598 108.215 457.779 107.74C457.967 107.266 458.222 106.847 458.544 106.484C458.866 106.12 459.247 105.836 459.687 105.631C460.132 105.42 460.633 105.315 461.189 105.315C461.658 105.315 462.08 105.379 462.455 105.508C462.836 105.631 463.158 105.827 463.422 106.097C463.686 106.361 463.888 106.706 464.028 107.134C464.175 107.562 464.248 108.074 464.248 108.672V115H463.378V108.698C463.378 108.025 463.275 107.5 463.07 107.125C462.871 106.75 462.59 106.484 462.227 106.325C461.863 106.167 461.444 106.088 460.97 106.088C460.413 106.088 459.941 106.205 459.555 106.44C459.168 106.674 458.852 106.973 458.605 107.336C458.365 107.699 458.187 108.083 458.069 108.488C457.952 108.886 457.888 109.252 457.876 109.586ZM464.239 108.778L463.659 108.698C463.7 108.259 463.814 107.837 464.002 107.433C464.189 107.023 464.444 106.659 464.767 106.343C465.089 106.027 465.473 105.778 465.918 105.596C466.363 105.408 466.858 105.315 467.403 105.315C467.89 105.315 468.323 105.382 468.704 105.517C469.091 105.646 469.416 105.854 469.68 106.141C469.949 106.422 470.151 106.782 470.286 107.222C470.427 107.661 470.497 108.192 470.497 108.813V115H469.627V108.813C469.627 108.098 469.524 107.544 469.319 107.152C469.12 106.753 468.839 106.475 468.476 106.317C468.112 106.158 467.693 106.082 467.219 106.088C466.727 106.094 466.296 106.185 465.927 106.361C465.563 106.536 465.259 106.762 465.013 107.037C464.772 107.307 464.588 107.597 464.459 107.907C464.33 108.212 464.257 108.502 464.239 108.778ZM479.075 113.269V108.365C479.075 107.89 478.976 107.483 478.776 107.143C478.577 106.797 478.284 106.533 477.897 106.352C477.517 106.164 477.045 106.071 476.482 106.071C475.967 106.071 475.504 106.161 475.094 106.343C474.689 106.525 474.367 106.771 474.127 107.081C473.893 107.392 473.775 107.738 473.775 108.118L472.914 108.101C472.914 107.743 472.999 107.398 473.169 107.064C473.345 106.73 473.591 106.431 473.907 106.167C474.229 105.904 474.61 105.696 475.05 105.543C475.495 105.391 475.984 105.315 476.518 105.315C477.191 105.315 477.783 105.429 478.293 105.657C478.809 105.88 479.213 106.22 479.506 106.677C479.799 107.128 479.945 107.697 479.945 108.382V113.031C479.945 113.36 479.969 113.699 480.016 114.051C480.062 114.403 480.133 114.687 480.227 114.904V115H479.286C479.216 114.783 479.163 114.517 479.128 114.2C479.093 113.878 479.075 113.568 479.075 113.269ZM479.312 109.533L479.33 110.245H477.142C476.573 110.245 476.066 110.298 475.621 110.404C475.182 110.503 474.807 110.65 474.496 110.843C474.191 111.036 473.957 111.271 473.793 111.546C473.629 111.816 473.547 112.12 473.547 112.46C473.547 112.812 473.638 113.134 473.819 113.427C474.001 113.72 474.259 113.954 474.593 114.13C474.933 114.3 475.328 114.385 475.779 114.385C476.389 114.385 476.928 114.277 477.396 114.06C477.871 113.843 478.264 113.553 478.574 113.19C478.885 112.821 479.104 112.407 479.233 111.95L479.611 112.504C479.523 112.803 479.377 113.111 479.172 113.427C478.967 113.738 478.7 114.025 478.372 114.288C478.044 114.552 477.657 114.766 477.212 114.93C476.772 115.094 476.269 115.176 475.7 115.176C475.091 115.176 474.558 115.062 474.101 114.833C473.649 114.599 473.298 114.282 473.046 113.884C472.8 113.48 472.677 113.023 472.677 112.513C472.677 112.062 472.776 111.655 472.976 111.291C473.175 110.922 473.462 110.609 473.837 110.351C474.212 110.087 474.669 109.885 475.208 109.744C475.747 109.604 476.354 109.533 477.027 109.533H479.312ZM486.317 105.49V106.238H481.659V105.49H486.317ZM483.408 103.012H484.287V112.698C484.287 113.172 484.346 113.532 484.463 113.779C484.586 114.019 484.747 114.18 484.946 114.262C485.146 114.344 485.359 114.385 485.588 114.385C485.752 114.385 485.904 114.376 486.045 114.359C486.191 114.341 486.332 114.321 486.467 114.297L486.52 115.044C486.391 115.085 486.224 115.117 486.019 115.141C485.813 115.164 485.62 115.176 485.438 115.176C485.034 115.176 484.68 115.103 484.375 114.956C484.07 114.804 483.833 114.549 483.663 114.192C483.493 113.828 483.408 113.33 483.408 112.698V103.012ZM492.197 115.176C491.588 115.176 491.025 115.062 490.51 114.833C489.994 114.605 489.546 114.282 489.165 113.866C488.784 113.445 488.488 112.949 488.277 112.381C488.066 111.807 487.961 111.177 487.961 110.491V110.114C487.961 109.387 488.066 108.731 488.277 108.145C488.494 107.559 488.79 107.055 489.165 106.633C489.546 106.205 489.979 105.88 490.466 105.657C490.952 105.429 491.468 105.315 492.013 105.315C492.587 105.315 493.103 105.42 493.56 105.631C494.022 105.836 494.415 106.129 494.737 106.51C495.06 106.891 495.303 107.342 495.467 107.864C495.637 108.379 495.722 108.95 495.722 109.577V110.193H488.497V109.428H494.852V109.314C494.846 108.745 494.731 108.218 494.509 107.732C494.292 107.24 493.973 106.841 493.551 106.536C493.135 106.232 492.622 106.079 492.013 106.079C491.538 106.079 491.104 106.182 490.712 106.387C490.325 106.586 489.991 106.867 489.71 107.231C489.429 107.588 489.212 108.013 489.06 108.505C488.907 108.991 488.831 109.528 488.831 110.114V110.491C488.831 111.036 488.913 111.546 489.077 112.021C489.247 112.495 489.481 112.911 489.78 113.269C490.085 113.626 490.445 113.907 490.861 114.113C491.277 114.318 491.731 114.42 492.224 114.42C492.78 114.42 493.281 114.321 493.727 114.121C494.172 113.916 494.576 113.579 494.939 113.111L495.493 113.532C495.288 113.837 495.033 114.115 494.729 114.367C494.424 114.614 494.063 114.81 493.647 114.956C493.231 115.103 492.748 115.176 492.197 115.176ZM504.071 113.155V101.5H504.941V115H504.115L504.071 113.155ZM497.4 110.342V110.157C497.4 109.413 497.482 108.745 497.646 108.154C497.816 107.556 498.06 107.046 498.376 106.624C498.692 106.202 499.073 105.88 499.519 105.657C499.97 105.429 500.479 105.315 501.048 105.315C501.593 105.315 502.076 105.403 502.498 105.578C502.92 105.754 503.283 106.003 503.588 106.325C503.893 106.648 504.142 107.029 504.335 107.468C504.528 107.907 504.672 108.394 504.766 108.927V111.757C504.695 112.243 504.563 112.695 504.37 113.111C504.183 113.527 503.934 113.89 503.623 114.2C503.318 114.511 502.949 114.751 502.516 114.921C502.082 115.091 501.587 115.176 501.03 115.176C500.468 115.176 499.961 115.059 499.51 114.824C499.064 114.59 498.684 114.259 498.367 113.831C498.057 113.398 497.816 112.888 497.646 112.302C497.482 111.71 497.4 111.057 497.4 110.342ZM498.279 110.157V110.342C498.279 110.916 498.338 111.452 498.455 111.95C498.572 112.443 498.748 112.87 498.982 113.234C499.217 113.597 499.516 113.881 499.879 114.086C500.242 114.291 500.67 114.394 501.162 114.394C501.783 114.394 502.308 114.28 502.735 114.051C503.163 113.817 503.506 113.506 503.764 113.119C504.021 112.733 504.206 112.308 504.317 111.845V108.918C504.247 108.614 504.145 108.297 504.01 107.969C503.875 107.641 503.688 107.336 503.447 107.055C503.207 106.768 502.902 106.536 502.533 106.361C502.164 106.185 501.713 106.097 501.18 106.097C500.682 106.097 500.251 106.199 499.888 106.405C499.524 106.61 499.223 106.897 498.982 107.266C498.748 107.629 498.572 108.057 498.455 108.549C498.338 109.041 498.279 109.577 498.279 110.157ZM515.638 105.49V106.238H510.979V105.49H515.638ZM512.729 103.012H513.607V112.698C513.607 113.172 513.666 113.532 513.783 113.779C513.906 114.019 514.067 114.18 514.267 114.262C514.466 114.344 514.68 114.385 514.908 114.385C515.072 114.385 515.225 114.376 515.365 114.359C515.512 114.341 515.652 114.321 515.787 114.297L515.84 115.044C515.711 115.085 515.544 115.117 515.339 115.141C515.134 115.164 514.94 115.176 514.759 115.176C514.354 115.176 514 115.103 513.695 114.956C513.391 114.804 513.153 114.549 512.983 114.192C512.813 113.828 512.729 113.33 512.729 112.698V103.012ZM518.907 105.49V115H518.037V105.49H518.907ZM517.835 102.669C517.835 102.493 517.894 102.344 518.011 102.221C518.128 102.092 518.283 102.028 518.477 102.028C518.676 102.028 518.834 102.092 518.951 102.221C519.074 102.344 519.136 102.493 519.136 102.669C519.136 102.845 519.074 102.994 518.951 103.117C518.834 103.24 518.676 103.302 518.477 103.302C518.283 103.302 518.128 103.24 518.011 103.117C517.894 102.994 517.835 102.845 517.835 102.669ZM525.279 114.411C525.736 114.411 526.167 114.326 526.571 114.156C526.981 113.981 527.321 113.72 527.591 113.374C527.866 113.029 528.021 112.595 528.057 112.073H528.892C528.862 112.689 528.681 113.231 528.347 113.699C528.013 114.168 527.576 114.531 527.037 114.789C526.504 115.047 525.918 115.176 525.279 115.176C524.629 115.176 524.055 115.059 523.557 114.824C523.059 114.584 522.64 114.25 522.3 113.823C521.966 113.395 521.711 112.894 521.535 112.32C521.365 111.74 521.28 111.11 521.28 110.43V110.061C521.28 109.381 521.365 108.754 521.535 108.18C521.711 107.6 521.966 107.096 522.3 106.668C522.64 106.24 523.056 105.909 523.548 105.675C524.046 105.435 524.62 105.315 525.271 105.315C525.927 105.315 526.521 105.449 527.055 105.719C527.594 105.983 528.027 106.366 528.355 106.87C528.684 107.368 528.862 107.969 528.892 108.672H528.057C528.027 108.121 527.884 107.656 527.626 107.275C527.368 106.888 527.034 106.592 526.624 106.387C526.214 106.182 525.763 106.079 525.271 106.079C524.714 106.079 524.236 106.188 523.838 106.405C523.445 106.615 523.123 106.908 522.871 107.283C522.625 107.653 522.44 108.074 522.317 108.549C522.2 109.024 522.142 109.528 522.142 110.061V110.43C522.142 110.963 522.2 111.47 522.317 111.95C522.435 112.425 522.619 112.847 522.871 113.216C523.123 113.585 523.448 113.878 523.847 114.095C524.245 114.306 524.723 114.411 525.279 114.411ZM531.95 101.5V115H531.08V101.5H531.95ZM537.971 105.49L533.427 109.894L531.669 111.546L531.511 110.729L532.987 109.191L536.846 105.49H537.971ZM537.232 115L533.084 109.929L533.576 109.191L538.296 115H537.232ZM543.244 115.176C542.635 115.176 542.072 115.062 541.557 114.833C541.041 114.605 540.593 114.282 540.212 113.866C539.831 113.445 539.535 112.949 539.324 112.381C539.113 111.807 539.008 111.177 539.008 110.491V110.114C539.008 109.387 539.113 108.731 539.324 108.145C539.541 107.559 539.837 107.055 540.212 106.633C540.593 106.205 541.026 105.88 541.513 105.657C541.999 105.429 542.515 105.315 543.06 105.315C543.634 105.315 544.149 105.42 544.606 105.631C545.069 105.836 545.462 106.129 545.784 106.51C546.106 106.891 546.35 107.342 546.514 107.864C546.684 108.379 546.769 108.95 546.769 109.577V110.193H539.544V109.428H545.898V109.314C545.893 108.745 545.778 108.218 545.556 107.732C545.339 107.24 545.02 106.841 544.598 106.536C544.182 106.232 543.669 106.079 543.06 106.079C542.585 106.079 542.151 106.182 541.759 106.387C541.372 106.586 541.038 106.867 540.757 107.231C540.476 107.588 540.259 108.013 540.106 108.505C539.954 108.991 539.878 109.528 539.878 110.114V110.491C539.878 111.036 539.96 111.546 540.124 112.021C540.294 112.495 540.528 112.911 540.827 113.269C541.132 113.626 541.492 113.907 541.908 114.113C542.324 114.318 542.778 114.42 543.271 114.42C543.827 114.42 544.328 114.321 544.773 114.121C545.219 113.916 545.623 113.579 545.986 113.111L546.54 113.532C546.335 113.837 546.08 114.115 545.775 114.367C545.471 114.614 545.11 114.81 544.694 114.956C544.278 115.103 543.795 115.176 543.244 115.176ZM552.358 105.49V106.238H547.7V105.49H552.358ZM549.449 103.012H550.328V112.698C550.328 113.172 550.387 113.532 550.504 113.779C550.627 114.019 550.788 114.18 550.987 114.262C551.187 114.344 551.4 114.385 551.629 114.385C551.793 114.385 551.945 114.376 552.086 114.359C552.232 114.341 552.373 114.321 552.508 114.297L552.561 115.044C552.432 115.085 552.265 115.117 552.06 115.141C551.854 115.164 551.661 115.176 551.479 115.176C551.075 115.176 550.721 115.103 550.416 114.956C550.111 114.804 549.874 114.549 549.704 114.192C549.534 113.828 549.449 113.33 549.449 112.698V103.012ZM562.483 105.49V106.238H557.825V105.49H562.483ZM559.574 103.012H560.453V112.698C560.453 113.172 560.512 113.532 560.629 113.779C560.752 114.019 560.913 114.18 561.112 114.262C561.312 114.344 561.525 114.385 561.754 114.385C561.918 114.385 562.07 114.376 562.211 114.359C562.357 114.341 562.498 114.321 562.633 114.297L562.686 115.044C562.557 115.085 562.39 115.117 562.185 115.141C561.979 115.164 561.786 115.176 561.604 115.176C561.2 115.176 560.846 115.103 560.541 114.956C560.236 114.804 559.999 114.549 559.829 114.192C559.659 113.828 559.574 113.33 559.574 112.698V103.012ZM570.604 113.269V108.365C570.604 107.89 570.505 107.483 570.306 107.143C570.106 106.797 569.813 106.533 569.427 106.352C569.046 106.164 568.574 106.071 568.012 106.071C567.496 106.071 567.033 106.161 566.623 106.343C566.219 106.525 565.896 106.771 565.656 107.081C565.422 107.392 565.305 107.738 565.305 108.118L564.443 108.101C564.443 107.743 564.528 107.398 564.698 107.064C564.874 106.73 565.12 106.431 565.437 106.167C565.759 105.904 566.14 105.696 566.579 105.543C567.024 105.391 567.514 105.315 568.047 105.315C568.721 105.315 569.312 105.429 569.822 105.657C570.338 105.88 570.742 106.22 571.035 106.677C571.328 107.128 571.475 107.697 571.475 108.382V113.031C571.475 113.36 571.498 113.699 571.545 114.051C571.592 114.403 571.662 114.687 571.756 114.904V115H570.815C570.745 114.783 570.692 114.517 570.657 114.2C570.622 113.878 570.604 113.568 570.604 113.269ZM570.842 109.533L570.859 110.245H568.671C568.103 110.245 567.596 110.298 567.15 110.404C566.711 110.503 566.336 110.65 566.025 110.843C565.721 111.036 565.486 111.271 565.322 111.546C565.158 111.816 565.076 112.12 565.076 112.46C565.076 112.812 565.167 113.134 565.349 113.427C565.53 113.72 565.788 113.954 566.122 114.13C566.462 114.3 566.857 114.385 567.309 114.385C567.918 114.385 568.457 114.277 568.926 114.06C569.4 113.843 569.793 113.553 570.104 113.19C570.414 112.821 570.634 112.407 570.763 111.95L571.141 112.504C571.053 112.803 570.906 113.111 570.701 113.427C570.496 113.738 570.229 114.025 569.901 114.288C569.573 114.552 569.187 114.766 568.741 114.93C568.302 115.094 567.798 115.176 567.229 115.176C566.62 115.176 566.087 115.062 565.63 114.833C565.179 114.599 564.827 114.282 564.575 113.884C564.329 113.48 564.206 113.023 564.206 112.513C564.206 112.062 564.306 111.655 564.505 111.291C564.704 110.922 564.991 110.609 565.366 110.351C565.741 110.087 566.198 109.885 566.737 109.744C567.276 109.604 567.883 109.533 568.557 109.533H570.842ZM580.65 105.49H581.468V114.842C581.468 115.662 581.315 116.368 581.011 116.96C580.706 117.558 580.272 118.015 579.71 118.331C579.153 118.648 578.494 118.806 577.732 118.806C577.316 118.806 576.906 118.744 576.502 118.621C576.098 118.498 575.72 118.314 575.368 118.068C575.022 117.827 574.727 117.534 574.48 117.189L574.99 116.653C575.371 117.121 575.781 117.47 576.221 117.698C576.66 117.927 577.146 118.041 577.68 118.041C578.307 118.041 578.837 117.912 579.271 117.655C579.704 117.403 580.032 117.039 580.255 116.565C580.483 116.09 580.598 115.525 580.598 114.868V107.582L580.65 105.49ZM573.936 110.342V110.157C573.936 109.413 574.018 108.745 574.182 108.154C574.346 107.556 574.583 107.046 574.894 106.624C575.21 106.202 575.594 105.88 576.045 105.657C576.496 105.429 577.006 105.315 577.574 105.315C578.119 105.315 578.603 105.403 579.024 105.578C579.446 105.754 579.81 106.003 580.114 106.325C580.425 106.648 580.677 107.029 580.87 107.468C581.063 107.907 581.207 108.394 581.301 108.927V111.757C581.225 112.243 581.093 112.695 580.905 113.111C580.718 113.527 580.469 113.89 580.158 114.2C579.848 114.511 579.476 114.751 579.042 114.921C578.614 115.091 578.119 115.176 577.557 115.176C576.994 115.176 576.487 115.059 576.036 114.824C575.591 114.59 575.21 114.259 574.894 113.831C574.583 113.398 574.346 112.888 574.182 112.302C574.018 111.71 573.936 111.057 573.936 110.342ZM574.806 110.157V110.342C574.806 110.916 574.864 111.452 574.981 111.95C575.099 112.443 575.274 112.87 575.509 113.234C575.749 113.597 576.048 113.881 576.405 114.086C576.769 114.291 577.196 114.394 577.688 114.394C578.31 114.394 578.834 114.28 579.262 114.051C579.689 113.817 580.029 113.506 580.281 113.119C580.533 112.733 580.712 112.308 580.817 111.845V108.918C580.753 108.614 580.653 108.297 580.519 107.969C580.39 107.641 580.205 107.336 579.965 107.055C579.73 106.768 579.429 106.536 579.06 106.361C578.69 106.185 578.239 106.097 577.706 106.097C577.208 106.097 576.777 106.199 576.414 106.405C576.051 106.61 575.749 106.897 575.509 107.266C575.274 107.629 575.099 108.057 574.981 108.549C574.864 109.041 574.806 109.577 574.806 110.157ZM590.6 105.49H591.417V114.842C591.417 115.662 591.265 116.368 590.96 116.96C590.655 117.558 590.222 118.015 589.659 118.331C589.103 118.648 588.443 118.806 587.682 118.806C587.266 118.806 586.855 118.744 586.451 118.621C586.047 118.498 585.669 118.314 585.317 118.068C584.972 117.827 584.676 117.534 584.43 117.189L584.939 116.653C585.32 117.121 585.73 117.47 586.17 117.698C586.609 117.927 587.096 118.041 587.629 118.041C588.256 118.041 588.786 117.912 589.22 117.655C589.653 117.403 589.981 117.039 590.204 116.565C590.433 116.09 590.547 115.525 590.547 114.868V107.582L590.6 105.49ZM583.885 110.342V110.157C583.885 109.413 583.967 108.745 584.131 108.154C584.295 107.556 584.532 107.046 584.843 106.624C585.159 106.202 585.543 105.88 585.994 105.657C586.445 105.429 586.955 105.315 587.523 105.315C588.068 105.315 588.552 105.403 588.974 105.578C589.396 105.754 589.759 106.003 590.063 106.325C590.374 106.648 590.626 107.029 590.819 107.468C591.013 107.907 591.156 108.394 591.25 108.927V111.757C591.174 112.243 591.042 112.695 590.854 113.111C590.667 113.527 590.418 113.89 590.107 114.2C589.797 114.511 589.425 114.751 588.991 114.921C588.563 115.091 588.068 115.176 587.506 115.176C586.943 115.176 586.437 115.059 585.985 114.824C585.54 114.59 585.159 114.259 584.843 113.831C584.532 113.398 584.295 112.888 584.131 112.302C583.967 111.71 583.885 111.057 583.885 110.342ZM584.755 110.157V110.342C584.755 110.916 584.813 111.452 584.931 111.95C585.048 112.443 585.224 112.87 585.458 113.234C585.698 113.597 585.997 113.881 586.354 114.086C586.718 114.291 587.146 114.394 587.638 114.394C588.259 114.394 588.783 114.28 589.211 114.051C589.639 113.817 589.979 113.506 590.23 113.119C590.482 112.733 590.661 112.308 590.767 111.845V108.918C590.702 108.614 590.603 108.297 590.468 107.969C590.339 107.641 590.154 107.336 589.914 107.055C589.68 106.768 589.378 106.536 589.009 106.361C588.64 106.185 588.188 106.097 587.655 106.097C587.157 106.097 586.727 106.199 586.363 106.405C586 106.61 585.698 106.897 585.458 107.266C585.224 107.629 585.048 108.057 584.931 108.549C584.813 109.041 584.755 109.577 584.755 110.157ZM595.249 105.49V115H594.379V105.49H595.249ZM594.177 102.669C594.177 102.493 594.235 102.344 594.353 102.221C594.47 102.092 594.625 102.028 594.818 102.028C595.018 102.028 595.176 102.092 595.293 102.221C595.416 102.344 595.478 102.493 595.478 102.669C595.478 102.845 595.416 102.994 595.293 103.117C595.176 103.24 595.018 103.302 594.818 103.302C594.625 103.302 594.47 103.24 594.353 103.117C594.235 102.994 594.177 102.845 594.177 102.669ZM599.063 107.521V115H598.193V105.49H599.037L599.063 107.521ZM598.879 109.586L598.483 109.243C598.524 108.716 598.642 108.215 598.835 107.74C599.028 107.266 599.289 106.847 599.617 106.484C599.945 106.12 600.332 105.836 600.777 105.631C601.223 105.42 601.712 105.315 602.245 105.315C602.72 105.315 603.145 105.379 603.52 105.508C603.895 105.637 604.211 105.842 604.469 106.123C604.732 106.405 604.932 106.768 605.066 107.213C605.207 107.653 605.277 108.189 605.277 108.822V115H604.407V108.813C604.407 108.11 604.308 107.562 604.108 107.169C603.915 106.777 603.643 106.498 603.291 106.334C602.945 106.17 602.535 106.088 602.061 106.088C601.527 106.088 601.064 106.205 600.672 106.44C600.279 106.674 599.951 106.973 599.688 107.336C599.43 107.699 599.233 108.083 599.099 108.488C598.964 108.886 598.891 109.252 598.879 109.586ZM614.365 105.49H615.183V114.842C615.183 115.662 615.03 116.368 614.726 116.96C614.421 117.558 613.987 118.015 613.425 118.331C612.868 118.648 612.209 118.806 611.447 118.806C611.031 118.806 610.621 118.744 610.217 118.621C609.812 118.498 609.435 118.314 609.083 118.068C608.737 117.827 608.441 117.534 608.195 117.189L608.705 116.653C609.086 117.121 609.496 117.47 609.936 117.698C610.375 117.927 610.861 118.041 611.395 118.041C612.021 118.041 612.552 117.912 612.985 117.655C613.419 117.403 613.747 117.039 613.97 116.565C614.198 116.09 614.312 115.525 614.312 114.868V107.582L614.365 105.49ZM607.65 110.342V110.157C607.65 109.413 607.732 108.745 607.896 108.154C608.061 107.556 608.298 107.046 608.608 106.624C608.925 106.202 609.309 105.88 609.76 105.657C610.211 105.429 610.721 105.315 611.289 105.315C611.834 105.315 612.317 105.403 612.739 105.578C613.161 105.754 613.524 106.003 613.829 106.325C614.14 106.648 614.392 107.029 614.585 107.468C614.778 107.907 614.922 108.394 615.016 108.927V111.757C614.939 112.243 614.808 112.695 614.62 113.111C614.433 113.527 614.184 113.89 613.873 114.2C613.562 114.511 613.19 114.751 612.757 114.921C612.329 115.091 611.834 115.176 611.271 115.176C610.709 115.176 610.202 115.059 609.751 114.824C609.306 114.59 608.925 114.259 608.608 113.831C608.298 113.398 608.061 112.888 607.896 112.302C607.732 111.71 607.65 111.057 607.65 110.342ZM608.521 110.157V110.342C608.521 110.916 608.579 111.452 608.696 111.95C608.813 112.443 608.989 112.87 609.224 113.234C609.464 113.597 609.763 113.881 610.12 114.086C610.483 114.291 610.911 114.394 611.403 114.394C612.024 114.394 612.549 114.28 612.977 114.051C613.404 113.817 613.744 113.506 613.996 113.119C614.248 112.733 614.427 112.308 614.532 111.845V108.918C614.468 108.614 614.368 108.297 614.233 107.969C614.104 107.641 613.92 107.336 613.68 107.055C613.445 106.768 613.144 106.536 612.774 106.361C612.405 106.185 611.954 106.097 611.421 106.097C610.923 106.097 610.492 106.199 610.129 106.405C609.766 106.61 609.464 106.897 609.224 107.266C608.989 107.629 608.813 108.057 608.696 108.549C608.579 109.041 608.521 109.577 608.521 110.157ZM621.511 105.49V106.238H616.853V105.49H621.511ZM618.602 103.012H619.48V112.698C619.48 113.172 619.539 113.532 619.656 113.779C619.779 114.019 619.94 114.18 620.14 114.262C620.339 114.344 620.553 114.385 620.781 114.385C620.945 114.385 621.098 114.376 621.238 114.359C621.385 114.341 621.525 114.321 621.66 114.297L621.713 115.044C621.584 115.085 621.417 115.117 621.212 115.141C621.007 115.164 620.813 115.176 620.632 115.176C620.228 115.176 619.873 115.103 619.568 114.956C619.264 114.804 619.026 114.549 618.856 114.192C618.687 113.828 618.602 113.33 618.602 112.698V103.012Z" fill="white"/>
<mask id="path-7-outside-1_448_1198" maskUnits="userSpaceOnUse" x="0" y="47.0002" width="62" height="83" fill="black">
<rect fill="white" y="47.0002" width="62" height="83"/>
<path d="M56.5 112.305V125H6.89062V114.258L29.7422 90.2346C31.7604 87.9234 33.388 85.8564 34.625 84.0334C35.862 82.178 36.7572 80.5015 37.3105 79.0042C37.8965 77.5068 38.1895 76.1558 38.1895 74.9514C38.1895 72.9006 37.8802 71.1917 37.2617 69.8245C36.6758 68.4247 35.7969 67.3668 34.625 66.6506C33.4857 65.9345 32.0697 65.5764 30.377 65.5764C28.6842 65.5764 27.2031 66.0647 25.9336 67.0413C24.6641 68.0178 23.6712 69.3525 22.9551 71.0452C22.2715 72.7379 21.9297 74.6422 21.9297 76.7581H5.42578C5.42578 72.3961 6.48372 68.4084 8.59961 64.7952C10.748 61.1819 13.7266 58.301 17.5352 56.1526C21.3438 53.9716 25.7546 52.8811 30.7676 52.8811C36.0085 52.8811 40.403 53.6949 43.9512 55.3225C47.4993 56.9501 50.1686 59.3101 51.959 62.4026C53.7819 65.4625 54.6934 69.1571 54.6934 73.4866C54.6934 75.9605 54.3027 78.3368 53.5215 80.6155C52.7402 82.8941 51.6172 85.1565 50.1523 87.4026C48.6875 89.6161 46.8971 91.8948 44.7812 94.2385C42.6979 96.5823 40.3216 99.0725 37.6523 101.709L28.4727 112.305H56.5Z"/>
</mask>
<path d="M56.5 112.305H61.5V107.305H56.5V112.305ZM56.5 125V130H61.5V125H56.5ZM6.89062 125H1.89062V130H6.89062V125ZM6.89062 114.258L3.26783 110.812L1.89062 112.26V114.258H6.89062ZM29.7422 90.2346L33.365 93.6807L33.4383 93.6036L33.5084 93.5234L29.7422 90.2346ZM34.625 84.0334L38.7624 86.841L38.7739 86.824L38.7853 86.8069L34.625 84.0334ZM37.3105 79.0042L32.6543 77.1822L32.637 77.2264L32.6206 77.2709L37.3105 79.0042ZM37.2617 69.8245L32.6495 71.7552L32.6769 71.8206L32.7062 71.8853L37.2617 69.8245ZM34.625 66.6506L31.9641 70.8838L31.9908 70.9006L32.0177 70.917L34.625 66.6506ZM22.9551 71.0452L18.3502 69.097L18.3342 69.1348L18.3189 69.1729L22.9551 71.0452ZM21.9297 76.7581V81.7581H26.9297V76.7581H21.9297ZM5.42578 76.7581H0.425781V81.7581H5.42578V76.7581ZM8.59961 64.7952L4.30193 62.2398L4.29339 62.2541L4.28495 62.2686L8.59961 64.7952ZM17.5352 56.1526L19.9918 60.5075L20.0058 60.4995L20.0198 60.4915L17.5352 56.1526ZM51.959 62.4026L47.6319 64.9078L47.6475 64.9348L47.6635 64.9616L51.959 62.4026ZM50.1523 87.4026L54.322 90.1619L54.3312 90.148L54.3404 90.1339L50.1523 87.4026ZM44.7812 94.2385L41.0699 90.888L41.057 90.9023L41.0442 90.9167L44.7812 94.2385ZM37.6523 101.709L34.1386 98.1521L34.0004 98.2885L33.8733 98.4352L37.6523 101.709ZM28.4727 112.305L24.6936 109.031L17.5254 117.305H28.4727V112.305ZM56.5 112.305H51.5V125H56.5H61.5V112.305H56.5ZM56.5 125V120H6.89062V125V130H56.5V125ZM6.89062 125H11.8906V114.258H6.89062H1.89062V125H6.89062ZM6.89062 114.258L10.5134 117.704L33.365 93.6807L29.7422 90.2346L26.1194 86.7886L3.26783 110.812L6.89062 114.258ZM29.7422 90.2346L33.5084 93.5234C35.6124 91.1139 37.3771 88.8824 38.7624 86.841L34.625 84.0334L30.4876 81.2259C29.3989 82.8303 27.9084 84.733 25.976 86.9459L29.7422 90.2346ZM34.625 84.0334L38.7853 86.8069C40.1604 84.7443 41.2703 82.7134 42.0005 80.7374L37.3105 79.0042L32.6206 77.2709C32.2441 78.2897 31.5636 79.6117 30.4647 81.2599L34.625 84.0334ZM37.3105 79.0042L41.9668 80.8261C42.7082 78.9314 43.1895 76.9497 43.1895 74.9514H38.1895H33.1895C33.1895 75.362 33.0848 76.0821 32.6543 77.1822L37.3105 79.0042ZM38.1895 74.9514H43.1895C43.1895 72.4353 42.8153 69.9698 41.8173 67.7636L37.2617 69.8245L32.7062 71.8853C32.9451 72.4135 33.1895 73.366 33.1895 74.9514H38.1895ZM37.2617 69.8245L41.8739 67.8938C40.9266 65.6308 39.3954 63.7062 37.2323 62.3842L34.625 66.6506L32.0177 70.917C32.1983 71.0274 32.4249 71.2187 32.6495 71.7552L37.2617 69.8245ZM34.625 66.6506L37.2859 62.4175C35.1673 61.0858 32.7699 60.5764 30.377 60.5764V65.5764V70.5764C31.3695 70.5764 31.8041 70.7832 31.9641 70.8838L34.625 66.6506ZM30.377 65.5764V60.5764C27.6486 60.5764 25.0803 61.3894 22.885 63.0781L25.9336 67.0413L28.9821 71.0044C29.3259 70.7399 29.7199 70.5764 30.377 70.5764V65.5764ZM25.9336 67.0413L22.885 63.0781C20.8362 64.6542 19.3524 66.7283 18.3502 69.097L22.9551 71.0452L27.5599 72.9934C27.9901 71.9766 28.492 71.3814 28.9821 71.0044L25.9336 67.0413ZM22.9551 71.0452L18.3189 69.1729C17.3599 71.5473 16.9297 74.1013 16.9297 76.7581H21.9297H26.9297C26.9297 75.1831 27.183 73.9284 27.5913 72.9175L22.9551 71.0452ZM21.9297 76.7581V71.7581H5.42578V76.7581V81.7581H21.9297V76.7581ZM5.42578 76.7581H10.4258C10.4258 73.2455 11.2663 70.1359 12.9143 67.3218L8.59961 64.7952L4.28495 62.2686C1.70112 66.6809 0.425781 71.5466 0.425781 76.7581H5.42578ZM8.59961 64.7952L12.8973 67.3505C14.5813 64.5183 16.9116 62.245 19.9918 60.5075L17.5352 56.1526L15.0786 51.7977C10.5416 54.357 6.9148 57.8454 4.30193 62.2398L8.59961 64.7952ZM17.5352 56.1526L20.0198 60.4915C22.9698 58.8022 26.5004 57.8811 30.7676 57.8811V52.8811V47.8811C25.0087 47.8811 19.7177 49.141 15.0505 51.8137L17.5352 56.1526ZM30.7676 52.8811V57.8811C35.5227 57.8811 39.1559 58.6238 41.8665 59.8672L43.9512 55.3225L46.0359 50.7778C41.6501 48.766 36.4943 47.8811 30.7676 47.8811V52.8811ZM43.9512 55.3225L41.8665 59.8672C44.5655 61.1053 46.4081 62.794 47.6319 64.9078L51.959 62.4026L56.2861 59.8974C53.9291 55.8263 50.4332 52.795 46.0359 50.7778L43.9512 55.3225ZM51.959 62.4026L47.6635 64.9616C48.9352 67.0962 49.6934 69.8639 49.6934 73.4866H54.6934H59.6934C59.6934 68.4504 58.6286 63.8287 56.2545 59.8436L51.959 62.4026ZM54.6934 73.4866H49.6934C49.6934 75.4239 49.3892 77.2512 48.7918 78.9939L53.5215 80.6155L58.2512 82.2371C59.2162 79.4224 59.6934 76.4972 59.6934 73.4866H54.6934ZM53.5215 80.6155L48.7918 78.9939C48.1587 80.8404 47.2285 82.7327 45.9643 84.6712L50.1523 87.4026L54.3404 90.1339C56.0058 87.5802 57.3218 84.9478 58.2512 82.2371L53.5215 80.6155ZM50.1523 87.4026L45.9827 84.6433C44.6786 86.6139 43.0488 88.696 41.0699 90.888L44.7812 94.2385L48.4926 97.589C50.7454 95.0936 52.6964 92.6183 54.322 90.1619L50.1523 87.4026ZM44.7812 94.2385L41.0442 90.9167C39.045 93.1658 36.7453 95.5771 34.1386 98.1521L37.6523 101.709L41.1661 105.266C43.8979 102.568 46.3508 99.9988 48.5183 97.5603L44.7812 94.2385ZM37.6523 101.709L33.8733 98.4352L24.6936 109.031L28.4727 112.305L32.2517 115.579L41.4314 104.983L37.6523 101.709ZM28.4727 112.305V117.305H56.5V112.305V107.305H28.4727V112.305Z" fill="#1A5069" mask="url(#path-7-outside-1_448_1198)"/>
<defs>
<radialGradient id="paint0_radial_448_1198" cx="0" cy="0" r="1" gradientUnits="userSpaceOnUse" gradientTransform="translate(96.2629 367.631) scale(96.2629 367.631)">
<stop stop-color="#1A5069"/>
<stop offset="1" stop-color="#0F7BAE" stop-opacity="0"/>
</radialGradient>
<radialGradient id="paint1_radial_448_1198" cx="0" cy="0" r="1" gradientUnits="userSpaceOnUse" gradientTransform="translate(96.2629 367.631) scale(96.2629 367.631)">
<stop stop-color="#1A5069"/>
<stop offset="1" stop-color="#0F7BAE" stop-opacity="0"/>
</radialGradient>
</defs>
</svg>
