<svg width="141" height="148" viewBox="0 0 141 148" fill="none" xmlns="http://www.w3.org/2000/svg">
<path d="M99.8701 75.1014C133.059 72.076 153.147 109.818 131.335 134.868C112.665 156.311 77.3594 148.274 69.4436 121.21C63.2994 100.202 77.7952 77.1136 99.8701 75.1014ZM78.3613 98.0253C73.4821 98.4158 69.8426 102.324 71.4247 107.342C73.1397 112.784 82.6319 111.698 83.4668 114.559C84.4573 117.961 78.8735 117.499 76.9264 116.837C74.9991 116.183 72.5567 113.294 70.7794 115.909C68.6059 119.107 74.7387 121.108 76.9943 121.58C82.7451 122.789 89.5543 120.477 88.4789 113.489C87.5563 107.489 80.7187 108.601 77.1839 106.391C75.7462 105.494 75.817 103.694 77.3113 102.913C81.0867 100.94 85.2016 106.575 87.3242 103.303C89.8826 99.3611 80.8319 97.8243 78.3641 98.0196L78.3613 98.0253ZM114.666 116.874C120.012 107.871 113.831 97.1027 103.19 97.946C86.0818 99.3017 89.7241 125.958 107.582 121.58C108.434 121.371 110.823 120.114 111.111 120.114C111.796 120.117 112.47 121.348 113.217 121.583C116.605 122.661 117.779 118.043 114.669 116.871L114.666 116.874ZM136.296 116.902C133.67 116.336 129.099 117.324 126.25 116.902V100.063C126.25 99.9865 125.641 98.9253 125.477 98.7781C124.056 97.5074 121.73 98.3762 121.218 100.122C121.526 106.102 120.606 112.869 121.144 118.756C121.3 120.468 122.078 121.521 123.889 121.614C126.337 121.739 129.465 121.388 132.068 121.416C133.681 121.436 135.801 122.274 137.281 120.994C138.736 119.738 137.975 117.262 136.302 116.902H136.296Z" fill="white"/>
<path d="M31.9495 0.103604C42.4633 -0.456758 61.6373 1.13093 70.0654 7.9515C76.368 13.0514 73.1332 17.4692 67.289 20.7294C52.697 28.8717 17.9178 29.2424 4.18043 19.2125C-4.83347 12.6325 3.60026 7.02605 10.4208 4.33179C16.8876 1.7762 25.0044 0.474348 31.9495 0.103604Z" fill="white"/>
<path d="M73.6102 21.5276V36.1027C73.6102 38.0215 70.2112 40.928 68.666 41.9129C54.4192 50.9693 19.1391 51.2155 5.03381 41.8507C2.82066 40.3818 0.0273438 37.8715 0.0273438 34.9707V21.2446C2.38199 22.8323 4.58665 24.3577 7.19601 25.5379C23.5512 32.9415 54.1164 32.8396 69.8376 23.8398C71.1197 23.1068 72.2376 21.9154 73.6102 21.5276Z" fill="white"/>
<path d="M73.6086 43.3194V57.8945C73.6086 60.3199 69.8389 63.2349 67.9257 64.3811C53.778 72.8573 16.1007 73.5789 3.2747 62.5698C-1.18839 58.7407 0.453077 54.2521 0.320062 48.8268C0.283271 47.2504 -0.101624 45.7731 0.0257308 44.0241C0.056862 43.6024 -0.195018 43.2062 0.447417 43.3222C1.97285 44.726 4.03599 45.9797 5.90953 46.9193C22.1487 55.0615 55.36 55.1436 70.8662 45.2495C71.8001 44.6552 72.5699 43.7666 73.6086 43.3222V43.3194Z" fill="white"/>
<path d="M73.6104 65.3945V80.2526C73.6104 82.2309 69.6369 85.3128 68.0379 86.2836C53.5449 95.0626 20.5883 95.0031 5.99341 86.4562C4.58684 85.6326 0.310547 82.4714 0.310547 80.8186V65.3945C1.54447 66.1643 2.64256 67.1492 3.90196 67.8879C19.3543 76.9329 51.1733 76.9131 67.2002 69.3171L73.6075 65.3945H73.6104Z" fill="white"/>
<path d="M0.307201 88.177C0.307201 88.1402 -0.24184 87.4864 0.445876 87.4751C0.757188 87.4695 1.78735 88.576 2.19488 88.8336C18.3831 99.0248 48.5775 99.0729 65.9544 91.8448C66.5516 91.5958 69.7071 89.8383 69.925 90.0166C66.0733 96.1154 64.2167 103.205 63.846 110.396C63.6026 110.798 60.4442 111.732 59.7367 111.947C45.4786 116.286 20.551 116.192 7.08814 109.408C5.38725 108.551 0.304371 105.192 0.304371 103.174C0.304371 98.1786 0.397764 93.1665 0.304371 88.1742L0.307201 88.177Z" fill="white"/>
<path d="M104.538 111.038C102.894 113.025 105.543 115.6 107.286 116.339C107.577 116.752 105.763 117.148 105.449 117.182C94.7202 118.334 94.59 101.495 105.418 102.783C109.932 103.32 112.754 109.017 110.538 112.94C108.978 111.816 106.51 108.658 104.541 111.038H104.538Z" fill="white"/>
</svg>
