<svg width="553" height="180" viewBox="0 0 553 180" fill="none" xmlns="http://www.w3.org/2000/svg">
<mask id="mask0_395_862" style="mask-type:alpha" maskUnits="userSpaceOnUse" x="74" y="0" width="439" height="179">
<rect x="-1.00093" y="0.991997" width="174.036" height="436.409" rx="87.0179" transform="matrix(-0.000966365 1 -0.999968 -0.00800285 512.555 5.50966)" fill="black" stroke="#136A93" stroke-width="2"/>
</mask>
<g mask="url(#mask0_395_862)">
<rect width="192.526" height="443.99" rx="47.5" transform="matrix(-0.000966365 1 -0.999968 -0.00800285 678.684 68.4424)" fill="url(#paint0_radial_395_862)" fill-opacity="0.74"/>
<rect width="192.526" height="443.99" rx="47.5" transform="matrix(-0.000966365 1 -0.999968 -0.00800285 352.021 -57.9541)" fill="url(#paint1_radial_395_862)" fill-opacity="0.74"/>
</g>
<rect x="76.3828" y="1.54688" width="435.608" height="175.235" rx="87.6177" fill="#D9D9D9" fill-opacity="0.14" stroke="#136A93" stroke-width="2"/>
<path d="M262.083 67.9087H255.726L255.691 64.5933H261.143C262.077 64.5933 262.858 64.4622 263.484 64.2002C264.111 63.9382 264.584 63.5565 264.903 63.0552C265.233 62.5539 265.398 61.9443 265.398 61.2266C265.398 60.429 265.245 59.7796 264.937 59.2783C264.641 58.777 264.174 58.4124 263.536 58.1846C262.898 57.9453 262.089 57.8257 261.109 57.8257H257.247V79H252.547V54.1172H261.109C262.522 54.1172 263.781 54.2539 264.886 54.5273C266.002 54.7894 266.948 55.1995 267.723 55.7578C268.497 56.3161 269.084 57.0168 269.483 57.8599C269.893 58.703 270.098 59.7056 270.098 60.8677C270.098 61.8931 269.859 62.8387 269.38 63.7046C268.913 64.5591 268.19 65.2541 267.21 65.7896C266.242 66.325 265.011 66.6326 263.519 66.7124L262.083 67.9087ZM261.878 79H254.341L256.307 75.3086H261.878C262.812 75.3086 263.581 75.1548 264.185 74.8472C264.8 74.5396 265.256 74.118 265.552 73.5825C265.86 73.0356 266.014 72.409 266.014 71.7026C266.014 70.9279 265.877 70.2557 265.604 69.686C265.341 69.1164 264.92 68.6777 264.339 68.3701C263.769 68.0625 263.017 67.9087 262.083 67.9087H257.195L257.229 64.5933H263.45L264.527 65.875C265.962 65.8864 267.13 66.1712 268.03 66.7295C268.942 67.2878 269.614 68.0055 270.047 68.8828C270.48 69.7601 270.696 70.7057 270.696 71.7197C270.696 73.3148 270.349 74.6535 269.654 75.7358C268.97 76.8182 267.968 77.6328 266.646 78.1797C265.336 78.7266 263.746 79 261.878 79ZM285.178 74.6079V60.5088H289.724V79H285.451L285.178 74.6079ZM285.759 70.7798L287.16 70.7456C287.16 71.9875 287.023 73.1325 286.75 74.1807C286.477 75.2288 286.049 76.1403 285.468 76.915C284.899 77.6784 284.175 78.2765 283.298 78.7095C282.421 79.131 281.384 79.3418 280.188 79.3418C279.276 79.3418 278.444 79.2165 277.692 78.9658C276.94 78.7038 276.291 78.2993 275.744 77.7524C275.209 77.1942 274.793 76.4821 274.497 75.6162C274.2 74.7389 274.052 73.6851 274.052 72.4546V60.5088H278.564V72.4888C278.564 73.104 278.632 73.6167 278.769 74.0269C278.917 74.437 279.117 74.7731 279.367 75.0352C279.629 75.2858 279.931 75.4681 280.273 75.582C280.626 75.6846 281.002 75.7358 281.401 75.7358C282.495 75.7358 283.355 75.5194 283.981 75.0864C284.619 74.6421 285.075 74.0496 285.349 73.3091C285.622 72.5571 285.759 71.714 285.759 70.7798ZM298.258 60.5088V79H293.729V60.5088H298.258ZM293.421 55.6724C293.421 55.0002 293.649 54.4419 294.105 53.9976C294.572 53.5532 295.199 53.3311 295.985 53.3311C296.771 53.3311 297.392 53.5532 297.848 53.9976C298.315 54.4419 298.548 55.0002 298.548 55.6724C298.548 56.3332 298.315 56.8857 297.848 57.3301C297.392 57.7744 296.771 57.9966 295.985 57.9966C295.199 57.9966 294.572 57.7744 294.105 57.3301C293.649 56.8857 293.421 56.3332 293.421 55.6724ZM307.1 52.75V79H302.571V52.75H307.1ZM322.248 75.0693V52.75H326.793V79H322.692L322.248 75.0693ZM310.37 69.9766V69.6177C310.37 68.2049 310.53 66.9232 310.849 65.7725C311.179 64.6104 311.658 63.6134 312.284 62.7817C312.911 61.95 313.668 61.3063 314.557 60.8506C315.457 60.3949 316.477 60.167 317.616 60.167C318.721 60.167 319.684 60.3892 320.504 60.8335C321.336 61.2778 322.042 61.9102 322.624 62.7305C323.216 63.5508 323.689 64.5249 324.042 65.6528C324.395 66.7694 324.652 67.9998 324.811 69.3442V70.3184C324.652 71.6286 324.395 72.8306 324.042 73.9243C323.689 75.0181 323.216 75.9751 322.624 76.7954C322.042 77.6043 321.336 78.231 320.504 78.6753C319.673 79.1196 318.699 79.3418 317.582 79.3418C316.454 79.3418 315.44 79.1082 314.54 78.6411C313.651 78.174 312.894 77.5189 312.267 76.6758C311.652 75.8327 311.179 74.8415 310.849 73.7021C310.53 72.5628 310.37 71.321 310.37 69.9766ZM314.899 69.6177V69.9766C314.899 70.7741 314.967 71.5203 315.104 72.2153C315.241 72.9103 315.463 73.5256 315.771 74.061C316.078 74.5851 316.471 74.9953 316.95 75.2915C317.44 75.5877 318.032 75.7358 318.727 75.7358C319.616 75.7358 320.345 75.5422 320.915 75.1548C321.496 74.756 321.946 74.2148 322.265 73.5312C322.584 72.8363 322.789 72.0558 322.88 71.1899V68.5068C322.834 67.8232 322.715 67.1909 322.521 66.6099C322.339 66.0288 322.077 65.5275 321.735 65.106C321.404 64.6844 320.994 64.354 320.504 64.1147C320.014 63.8755 319.433 63.7559 318.761 63.7559C318.066 63.7559 317.474 63.9097 316.984 64.2173C316.494 64.5135 316.095 64.9294 315.788 65.4648C315.48 66.0003 315.252 66.6213 315.104 67.3276C314.967 68.034 314.899 68.7974 314.899 69.6177Z" fill="#EDD5B1"/>
<path d="M153.455 111.88C153.455 111.511 153.391 111.183 153.262 110.896C153.139 110.608 152.937 110.351 152.655 110.122C152.374 109.888 152.002 109.674 151.539 109.48C151.076 109.281 150.502 109.085 149.816 108.892C149.172 108.716 148.589 108.522 148.067 108.312C147.552 108.095 147.112 107.849 146.749 107.573C146.386 107.298 146.107 106.976 145.914 106.606C145.721 106.231 145.624 105.789 145.624 105.279C145.624 104.787 145.729 104.342 145.94 103.943C146.151 103.545 146.447 103.205 146.828 102.924C147.215 102.637 147.669 102.417 148.19 102.265C148.712 102.106 149.283 102.027 149.904 102.027C150.777 102.027 151.539 102.194 152.189 102.528C152.84 102.862 153.344 103.316 153.701 103.891C154.064 104.465 154.246 105.112 154.246 105.833H153.358C153.358 105.253 153.218 104.737 152.937 104.286C152.661 103.829 152.266 103.469 151.75 103.205C151.234 102.941 150.619 102.81 149.904 102.81C149.166 102.81 148.545 102.924 148.041 103.152C147.537 103.375 147.156 103.671 146.898 104.04C146.641 104.409 146.512 104.816 146.512 105.262C146.512 105.578 146.57 105.871 146.688 106.141C146.805 106.404 146.998 106.65 147.268 106.879C147.543 107.107 147.909 107.321 148.366 107.521C148.829 107.72 149.403 107.91 150.089 108.092C150.751 108.268 151.346 108.467 151.873 108.689C152.4 108.906 152.849 109.161 153.218 109.454C153.587 109.747 153.868 110.09 154.062 110.482C154.255 110.875 154.352 111.335 154.352 111.862C154.352 112.384 154.24 112.85 154.018 113.26C153.801 113.67 153.493 114.019 153.095 114.306C152.696 114.587 152.23 114.804 151.697 114.956C151.17 115.103 150.593 115.176 149.966 115.176C149.409 115.176 148.85 115.105 148.287 114.965C147.725 114.824 147.212 114.602 146.749 114.297C146.286 113.992 145.914 113.6 145.633 113.119C145.352 112.633 145.211 112.044 145.211 111.353H146.099C146.099 111.927 146.213 112.407 146.441 112.794C146.676 113.181 146.983 113.491 147.364 113.726C147.745 113.96 148.161 114.13 148.612 114.235C149.069 114.341 149.521 114.394 149.966 114.394C150.663 114.394 151.272 114.288 151.794 114.077C152.315 113.866 152.723 113.573 153.016 113.198C153.309 112.817 153.455 112.378 153.455 111.88ZM160.1 115.176C159.49 115.176 158.928 115.062 158.412 114.833C157.896 114.604 157.448 114.282 157.067 113.866C156.687 113.444 156.391 112.949 156.18 112.381C155.969 111.807 155.863 111.177 155.863 110.491V110.113C155.863 109.387 155.969 108.73 156.18 108.145C156.396 107.559 156.692 107.055 157.067 106.633C157.448 106.205 157.882 105.88 158.368 105.657C158.854 105.429 159.37 105.314 159.915 105.314C160.489 105.314 161.005 105.42 161.462 105.631C161.925 105.836 162.317 106.129 162.64 106.51C162.962 106.891 163.205 107.342 163.369 107.863C163.539 108.379 163.624 108.95 163.624 109.577V110.192H156.399V109.428H162.754V109.313C162.748 108.745 162.634 108.218 162.411 107.731C162.194 107.239 161.875 106.841 161.453 106.536C161.037 106.231 160.524 106.079 159.915 106.079C159.44 106.079 159.007 106.182 158.614 106.387C158.228 106.586 157.894 106.867 157.612 107.23C157.331 107.588 157.114 108.013 156.962 108.505C156.81 108.991 156.733 109.527 156.733 110.113V110.491C156.733 111.036 156.815 111.546 156.979 112.021C157.149 112.495 157.384 112.911 157.683 113.269C157.987 113.626 158.348 113.907 158.764 114.112C159.18 114.317 159.634 114.42 160.126 114.42C160.683 114.42 161.184 114.32 161.629 114.121C162.074 113.916 162.479 113.579 162.842 113.11L163.396 113.532C163.19 113.837 162.936 114.115 162.631 114.367C162.326 114.613 161.966 114.81 161.55 114.956C161.134 115.103 160.65 115.176 160.1 115.176ZM169.214 105.49V106.237H164.556V105.49H169.214ZM166.305 103.012H167.184V112.697C167.184 113.172 167.242 113.532 167.359 113.778C167.482 114.019 167.644 114.18 167.843 114.262C168.042 114.344 168.256 114.385 168.484 114.385C168.648 114.385 168.801 114.376 168.941 114.358C169.088 114.341 169.229 114.32 169.363 114.297L169.416 115.044C169.287 115.085 169.12 115.117 168.915 115.141C168.71 115.164 168.517 115.176 168.335 115.176C167.931 115.176 167.576 115.103 167.271 114.956C166.967 114.804 166.729 114.549 166.56 114.191C166.39 113.828 166.305 113.33 166.305 112.697V103.012ZM182.037 112.803V105.49H182.916V115H182.063L182.037 112.803ZM182.195 111.115L182.688 111.098C182.688 111.684 182.617 112.226 182.477 112.724C182.336 113.216 182.113 113.646 181.809 114.016C181.51 114.385 181.123 114.672 180.648 114.877C180.174 115.076 179.605 115.176 178.943 115.176C178.48 115.176 178.056 115.111 177.669 114.982C177.288 114.848 176.957 114.637 176.676 114.35C176.4 114.062 176.187 113.69 176.034 113.233C175.888 112.771 175.814 112.214 175.814 111.563V105.49H176.685V111.581C176.685 112.108 176.743 112.554 176.86 112.917C176.983 113.274 177.15 113.562 177.361 113.778C177.578 113.995 177.827 114.153 178.108 114.253C178.39 114.347 178.694 114.394 179.022 114.394C179.819 114.394 180.449 114.241 180.912 113.937C181.375 113.626 181.703 113.222 181.896 112.724C182.096 112.22 182.195 111.684 182.195 111.115ZM186.59 107.318V118.656H185.72V105.49H186.537L186.59 107.318ZM193.261 110.157V110.342C193.261 111.057 193.179 111.71 193.015 112.302C192.856 112.888 192.622 113.397 192.312 113.831C192.007 114.259 191.629 114.59 191.178 114.824C190.732 115.059 190.223 115.176 189.648 115.176C189.092 115.176 188.594 115.094 188.154 114.93C187.715 114.76 187.337 114.522 187.021 114.218C186.704 113.907 186.449 113.547 186.256 113.137C186.062 112.727 185.931 112.284 185.86 111.81V108.927C185.954 108.394 186.101 107.907 186.3 107.468C186.499 107.028 186.754 106.647 187.064 106.325C187.375 106.003 187.744 105.754 188.172 105.578C188.6 105.402 189.086 105.314 189.631 105.314C190.205 105.314 190.718 105.429 191.169 105.657C191.62 105.88 192.001 106.202 192.312 106.624C192.622 107.046 192.856 107.556 193.015 108.153C193.179 108.745 193.261 109.413 193.261 110.157ZM192.382 110.342V110.157C192.382 109.577 192.323 109.041 192.206 108.549C192.089 108.057 191.91 107.629 191.67 107.266C191.436 106.896 191.134 106.609 190.765 106.404C190.401 106.199 189.971 106.097 189.473 106.097C188.939 106.097 188.485 106.185 188.11 106.36C187.741 106.536 187.437 106.768 187.196 107.055C186.962 107.336 186.774 107.641 186.634 107.969C186.499 108.297 186.399 108.613 186.335 108.918V111.889C186.446 112.346 186.631 112.765 186.889 113.146C187.146 113.526 187.489 113.834 187.917 114.068C188.351 114.297 188.875 114.411 189.49 114.411C189.982 114.411 190.41 114.309 190.773 114.104C191.137 113.893 191.436 113.605 191.67 113.242C191.91 112.873 192.089 112.442 192.206 111.95C192.323 111.452 192.382 110.916 192.382 110.342ZM201.03 105.49V115H200.16V105.49H201.03ZM199.958 102.669C199.958 102.493 200.017 102.344 200.134 102.221C200.251 102.092 200.406 102.027 200.6 102.027C200.799 102.027 200.957 102.092 201.074 102.221C201.197 102.344 201.259 102.493 201.259 102.669C201.259 102.845 201.197 102.994 201.074 103.117C200.957 103.24 200.799 103.302 200.6 103.302C200.406 103.302 200.251 103.24 200.134 103.117C200.017 102.994 199.958 102.845 199.958 102.669ZM204.845 107.521V115H203.975V105.49H204.818L204.845 107.521ZM204.66 109.586L204.265 109.243C204.306 108.716 204.423 108.215 204.616 107.74C204.81 107.266 205.07 106.847 205.398 106.483C205.727 106.12 206.113 105.836 206.559 105.631C207.004 105.42 207.493 105.314 208.026 105.314C208.501 105.314 208.926 105.379 209.301 105.508C209.676 105.637 209.992 105.842 210.25 106.123C210.514 106.404 210.713 106.768 210.848 107.213C210.988 107.652 211.059 108.188 211.059 108.821V115H210.188V108.812C210.188 108.109 210.089 107.562 209.89 107.169C209.696 106.776 209.424 106.498 209.072 106.334C208.727 106.17 208.316 106.088 207.842 106.088C207.309 106.088 206.846 106.205 206.453 106.439C206.061 106.674 205.732 106.973 205.469 107.336C205.211 107.699 205.015 108.083 204.88 108.487C204.745 108.886 204.672 109.252 204.66 109.586ZM215.471 115H214.601V104.26C214.601 103.621 214.709 103.085 214.926 102.651C215.143 102.212 215.453 101.881 215.857 101.658C216.268 101.43 216.751 101.315 217.308 101.315C217.489 101.315 217.677 101.327 217.87 101.351C218.063 101.368 218.251 101.406 218.433 101.465L218.354 102.212C218.207 102.171 218.058 102.142 217.905 102.124C217.759 102.106 217.58 102.098 217.369 102.098C216.977 102.098 216.637 102.183 216.35 102.353C216.068 102.522 215.852 102.769 215.699 103.091C215.547 103.407 215.471 103.797 215.471 104.26V115ZM217.817 105.49V106.237H213.001V105.49H217.817ZM220.595 107.09V115H219.725V105.49H220.577L220.595 107.09ZM224.093 105.42L224.058 106.211C223.946 106.193 223.835 106.182 223.724 106.176C223.618 106.164 223.504 106.158 223.381 106.158C222.9 106.158 222.479 106.249 222.115 106.431C221.752 106.612 221.447 106.864 221.201 107.187C220.961 107.509 220.776 107.884 220.647 108.312C220.524 108.733 220.457 109.19 220.445 109.683L220.085 109.788C220.085 109.149 220.149 108.561 220.278 108.021C220.413 107.477 220.618 107.002 220.894 106.598C221.169 106.193 221.515 105.88 221.931 105.657C222.347 105.429 222.839 105.314 223.407 105.314C223.542 105.314 223.671 105.326 223.794 105.35C223.923 105.367 224.022 105.391 224.093 105.42ZM231.265 113.269V108.364C231.265 107.89 231.165 107.482 230.966 107.143C230.767 106.797 230.474 106.533 230.087 106.352C229.706 106.164 229.234 106.07 228.672 106.07C228.156 106.07 227.693 106.161 227.283 106.343C226.879 106.524 226.557 106.771 226.316 107.081C226.082 107.392 225.965 107.737 225.965 108.118L225.104 108.101C225.104 107.743 225.188 107.397 225.358 107.063C225.534 106.729 225.78 106.431 226.097 106.167C226.419 105.903 226.8 105.695 227.239 105.543C227.685 105.391 228.174 105.314 228.707 105.314C229.381 105.314 229.973 105.429 230.482 105.657C230.998 105.88 231.402 106.22 231.695 106.677C231.988 107.128 232.135 107.696 232.135 108.382V113.031C232.135 113.359 232.158 113.699 232.205 114.051C232.252 114.402 232.322 114.687 232.416 114.903V115H231.476C231.405 114.783 231.353 114.517 231.317 114.2C231.282 113.878 231.265 113.567 231.265 113.269ZM231.502 109.533L231.52 110.245H229.331C228.763 110.245 228.256 110.298 227.811 110.403C227.371 110.503 226.996 110.649 226.686 110.843C226.381 111.036 226.146 111.271 225.982 111.546C225.818 111.815 225.736 112.12 225.736 112.46C225.736 112.812 225.827 113.134 226.009 113.427C226.19 113.72 226.448 113.954 226.782 114.13C227.122 114.3 227.518 114.385 227.969 114.385C228.578 114.385 229.117 114.276 229.586 114.06C230.061 113.843 230.453 113.553 230.764 113.189C231.074 112.82 231.294 112.407 231.423 111.95L231.801 112.504C231.713 112.803 231.566 113.11 231.361 113.427C231.156 113.737 230.89 114.024 230.562 114.288C230.233 114.552 229.847 114.766 229.401 114.93C228.962 115.094 228.458 115.176 227.89 115.176C227.28 115.176 226.747 115.062 226.29 114.833C225.839 114.599 225.487 114.282 225.235 113.884C224.989 113.479 224.866 113.022 224.866 112.513C224.866 112.062 224.966 111.654 225.165 111.291C225.364 110.922 225.651 110.608 226.026 110.351C226.401 110.087 226.858 109.885 227.397 109.744C227.937 109.604 228.543 109.533 229.217 109.533H231.502ZM240.774 112.601C240.774 112.337 240.704 112.073 240.563 111.81C240.423 111.54 240.162 111.294 239.781 111.071C239.4 110.843 238.844 110.652 238.111 110.5C237.584 110.383 237.115 110.254 236.705 110.113C236.295 109.967 235.949 109.791 235.668 109.586C235.393 109.381 235.182 109.138 235.035 108.856C234.895 108.569 234.824 108.232 234.824 107.846C234.824 107.494 234.9 107.166 235.053 106.861C235.205 106.557 235.425 106.29 235.712 106.062C235.999 105.827 236.345 105.646 236.749 105.517C237.159 105.382 237.619 105.314 238.129 105.314C238.855 105.314 239.477 105.438 239.992 105.684C240.508 105.924 240.903 106.255 241.179 106.677C241.46 107.099 241.601 107.579 241.601 108.118H240.73C240.73 107.767 240.628 107.438 240.423 107.134C240.224 106.823 239.931 106.571 239.544 106.378C239.157 106.179 238.686 106.079 238.129 106.079C237.549 106.079 237.08 106.167 236.723 106.343C236.365 106.519 236.104 106.738 235.94 107.002C235.776 107.266 235.694 107.538 235.694 107.819C235.694 108.042 235.727 108.244 235.791 108.426C235.861 108.607 235.99 108.777 236.178 108.936C236.365 109.094 236.632 109.243 236.978 109.384C237.329 109.519 237.783 109.65 238.34 109.779C239.107 109.949 239.731 110.157 240.212 110.403C240.698 110.644 241.056 110.939 241.284 111.291C241.519 111.643 241.636 112.067 241.636 112.565C241.636 112.952 241.554 113.307 241.39 113.629C241.231 113.945 241 114.221 240.695 114.455C240.396 114.684 240.033 114.862 239.605 114.991C239.184 115.114 238.712 115.176 238.19 115.176C237.394 115.176 236.723 115.047 236.178 114.789C235.633 114.531 235.22 114.191 234.938 113.77C234.657 113.348 234.517 112.894 234.517 112.407H235.387C235.422 112.917 235.583 113.318 235.87 113.611C236.163 113.904 236.518 114.112 236.934 114.235C237.355 114.353 237.774 114.411 238.19 114.411C238.753 114.411 239.225 114.326 239.605 114.156C239.992 113.98 240.282 113.755 240.476 113.479C240.675 113.204 240.774 112.911 240.774 112.601ZM247.577 105.49V106.237H242.919V105.49H247.577ZM244.668 103.012H245.547V112.697C245.547 113.172 245.605 113.532 245.723 113.778C245.846 114.019 246.007 114.18 246.206 114.262C246.405 114.344 246.619 114.385 246.848 114.385C247.012 114.385 247.164 114.376 247.305 114.358C247.451 114.341 247.592 114.32 247.727 114.297L247.779 115.044C247.65 115.085 247.483 115.117 247.278 115.141C247.073 115.164 246.88 115.176 246.698 115.176C246.294 115.176 245.939 115.103 245.635 114.956C245.33 114.804 245.093 114.549 244.923 114.191C244.753 113.828 244.668 113.33 244.668 112.697V103.012ZM250.724 107.09V115H249.854V105.49H250.706L250.724 107.09ZM254.222 105.42L254.187 106.211C254.075 106.193 253.964 106.182 253.853 106.176C253.747 106.164 253.633 106.158 253.51 106.158C253.029 106.158 252.607 106.249 252.244 106.431C251.881 106.612 251.576 106.864 251.33 107.187C251.09 107.509 250.905 107.884 250.776 108.312C250.653 108.733 250.586 109.19 250.574 109.683L250.214 109.788C250.214 109.149 250.278 108.561 250.407 108.021C250.542 107.477 250.747 107.002 251.022 106.598C251.298 106.193 251.644 105.88 252.06 105.657C252.476 105.429 252.968 105.314 253.536 105.314C253.671 105.314 253.8 105.326 253.923 105.35C254.052 105.367 254.151 105.391 254.222 105.42ZM262.088 112.803V105.49H262.967V115H262.114L262.088 112.803ZM262.246 111.115L262.738 111.098C262.738 111.684 262.668 112.226 262.527 112.724C262.387 113.216 262.164 113.646 261.859 114.016C261.561 114.385 261.174 114.672 260.699 114.877C260.225 115.076 259.656 115.176 258.994 115.176C258.531 115.176 258.106 115.111 257.72 114.982C257.339 114.848 257.008 114.637 256.727 114.35C256.451 114.062 256.237 113.69 256.085 113.233C255.938 112.771 255.865 112.214 255.865 111.563V105.49H256.735V111.581C256.735 112.108 256.794 112.554 256.911 112.917C257.034 113.274 257.201 113.562 257.412 113.778C257.629 113.995 257.878 114.153 258.159 114.253C258.44 114.347 258.745 114.394 259.073 114.394C259.87 114.394 260.5 114.241 260.963 113.937C261.426 113.626 261.754 113.222 261.947 112.724C262.146 112.22 262.246 111.684 262.246 111.115ZM269.207 114.411C269.664 114.411 270.095 114.326 270.499 114.156C270.909 113.98 271.249 113.72 271.519 113.374C271.794 113.028 271.949 112.595 271.984 112.073H272.819C272.79 112.688 272.608 113.23 272.274 113.699C271.94 114.168 271.504 114.531 270.965 114.789C270.432 115.047 269.846 115.176 269.207 115.176C268.557 115.176 267.982 115.059 267.484 114.824C266.986 114.584 266.567 114.25 266.228 113.822C265.894 113.395 265.639 112.894 265.463 112.319C265.293 111.739 265.208 111.109 265.208 110.43V110.061C265.208 109.381 265.293 108.754 265.463 108.18C265.639 107.6 265.894 107.096 266.228 106.668C266.567 106.24 266.983 105.909 267.476 105.675C267.974 105.435 268.548 105.314 269.198 105.314C269.854 105.314 270.449 105.449 270.982 105.719C271.521 105.982 271.955 106.366 272.283 106.87C272.611 107.368 272.79 107.969 272.819 108.672H271.984C271.955 108.121 271.812 107.655 271.554 107.274C271.296 106.888 270.962 106.592 270.552 106.387C270.142 106.182 269.69 106.079 269.198 106.079C268.642 106.079 268.164 106.188 267.766 106.404C267.373 106.615 267.051 106.908 266.799 107.283C266.553 107.652 266.368 108.074 266.245 108.549C266.128 109.023 266.069 109.527 266.069 110.061V110.43C266.069 110.963 266.128 111.47 266.245 111.95C266.362 112.425 266.547 112.847 266.799 113.216C267.051 113.585 267.376 113.878 267.774 114.095C268.173 114.306 268.65 114.411 269.207 114.411ZM278.497 105.49V106.237H273.839V105.49H278.497ZM275.588 103.012H276.467V112.697C276.467 113.172 276.525 113.532 276.643 113.778C276.766 114.019 276.927 114.18 277.126 114.262C277.325 114.344 277.539 114.385 277.768 114.385C277.932 114.385 278.084 114.376 278.225 114.358C278.371 114.341 278.512 114.32 278.646 114.297L278.699 115.044C278.57 115.085 278.403 115.117 278.198 115.141C277.993 115.164 277.8 115.176 277.618 115.176C277.214 115.176 276.859 115.103 276.555 114.956C276.25 114.804 276.013 114.549 275.843 114.191C275.673 113.828 275.588 113.33 275.588 112.697V103.012ZM286.961 112.803V105.49H287.84V115H286.987L286.961 112.803ZM287.119 111.115L287.611 111.098C287.611 111.684 287.541 112.226 287.4 112.724C287.26 113.216 287.037 113.646 286.732 114.016C286.434 114.385 286.047 114.672 285.572 114.877C285.098 115.076 284.529 115.176 283.867 115.176C283.404 115.176 282.979 115.111 282.593 114.982C282.212 114.848 281.881 114.637 281.6 114.35C281.324 114.062 281.11 113.69 280.958 113.233C280.812 112.771 280.738 112.214 280.738 111.563V105.49H281.608V111.581C281.608 112.108 281.667 112.554 281.784 112.917C281.907 113.274 282.074 113.562 282.285 113.778C282.502 113.995 282.751 114.153 283.032 114.253C283.313 114.347 283.618 114.394 283.946 114.394C284.743 114.394 285.373 114.241 285.836 113.937C286.299 113.626 286.627 113.222 286.82 112.724C287.02 112.22 287.119 111.684 287.119 111.115ZM291.522 107.09V115H290.652V105.49H291.505L291.522 107.09ZM295.021 105.42L294.985 106.211C294.874 106.193 294.763 106.182 294.651 106.176C294.546 106.164 294.432 106.158 294.309 106.158C293.828 106.158 293.406 106.249 293.043 106.431C292.68 106.612 292.375 106.864 292.129 107.187C291.889 107.509 291.704 107.884 291.575 108.312C291.452 108.733 291.385 109.19 291.373 109.683L291.013 109.788C291.013 109.149 291.077 108.561 291.206 108.021C291.341 107.477 291.546 107.002 291.821 106.598C292.097 106.193 292.442 105.88 292.858 105.657C293.274 105.429 293.767 105.314 294.335 105.314C294.47 105.314 294.599 105.326 294.722 105.35C294.851 105.367 294.95 105.391 295.021 105.42ZM300.127 115.176C299.518 115.176 298.955 115.062 298.439 114.833C297.924 114.604 297.476 114.282 297.095 113.866C296.714 113.444 296.418 112.949 296.207 112.381C295.996 111.807 295.891 111.177 295.891 110.491V110.113C295.891 109.387 295.996 108.73 296.207 108.145C296.424 107.559 296.72 107.055 297.095 106.633C297.476 106.205 297.909 105.88 298.396 105.657C298.882 105.429 299.397 105.314 299.942 105.314C300.517 105.314 301.032 105.42 301.489 105.631C301.952 105.836 302.345 106.129 302.667 106.51C302.989 106.891 303.232 107.342 303.396 107.863C303.566 108.379 303.651 108.95 303.651 109.577V110.192H296.427V109.428H302.781V109.313C302.775 108.745 302.661 108.218 302.438 107.731C302.222 107.239 301.902 106.841 301.48 106.536C301.064 106.231 300.552 106.079 299.942 106.079C299.468 106.079 299.034 106.182 298.642 106.387C298.255 106.586 297.921 106.867 297.64 107.23C297.358 107.588 297.142 108.013 296.989 108.505C296.837 108.991 296.761 109.527 296.761 110.113V110.491C296.761 111.036 296.843 111.546 297.007 112.021C297.177 112.495 297.411 112.911 297.71 113.269C298.015 113.626 298.375 113.907 298.791 114.112C299.207 114.317 299.661 114.42 300.153 114.42C300.71 114.42 301.211 114.32 301.656 114.121C302.102 113.916 302.506 113.579 302.869 113.11L303.423 113.532C303.218 113.837 302.963 114.115 302.658 114.367C302.354 114.613 301.993 114.81 301.577 114.956C301.161 115.103 300.678 115.176 300.127 115.176ZM306.622 113.418V114.631C306.622 115.17 306.52 115.674 306.314 116.143C306.109 116.617 305.834 117.019 305.488 117.347L304.961 116.942C305.137 116.708 305.286 116.471 305.409 116.23C305.532 115.996 305.623 115.75 305.682 115.492C305.74 115.234 305.77 114.953 305.77 114.648V113.418H306.622ZM321.695 114.218V115H314.356V114.218H321.695ZM314.682 102.203V115H313.785V102.203H314.682ZM320.799 108.021V108.804H314.356V108.021H320.799ZM321.66 102.203V102.985H314.356V102.203H321.66ZM328.366 102.203V115H327.487V102.203H328.366ZM332.84 102.203V102.985H323.014V102.203H332.84ZM342.262 114.218V115H335.547V114.218H342.262ZM335.863 102.203V115H334.967V102.203H335.863ZM345.03 113.418V114.631C345.03 115.17 344.928 115.674 344.723 116.143C344.518 116.617 344.242 117.019 343.896 117.347L343.369 116.942C343.545 116.708 343.694 116.471 343.817 116.23C343.94 115.996 344.031 115.75 344.09 115.492C344.148 115.234 344.178 114.953 344.178 114.648V113.418H345.03ZM357.792 113.269V108.364C357.792 107.89 357.692 107.482 357.493 107.143C357.294 106.797 357.001 106.533 356.614 106.352C356.233 106.164 355.762 106.07 355.199 106.07C354.684 106.07 354.221 106.161 353.811 106.343C353.406 106.524 353.084 106.771 352.844 107.081C352.609 107.392 352.492 107.737 352.492 108.118L351.631 108.101C351.631 107.743 351.716 107.397 351.886 107.063C352.062 106.729 352.308 106.431 352.624 106.167C352.946 105.903 353.327 105.695 353.767 105.543C354.212 105.391 354.701 105.314 355.234 105.314C355.908 105.314 356.5 105.429 357.01 105.657C357.525 105.88 357.93 106.22 358.223 106.677C358.516 107.128 358.662 107.696 358.662 108.382V113.031C358.662 113.359 358.686 113.699 358.732 114.051C358.779 114.402 358.85 114.687 358.943 114.903V115H358.003C357.933 114.783 357.88 114.517 357.845 114.2C357.81 113.878 357.792 113.567 357.792 113.269ZM358.029 109.533L358.047 110.245H355.858C355.29 110.245 354.783 110.298 354.338 110.403C353.898 110.503 353.523 110.649 353.213 110.843C352.908 111.036 352.674 111.271 352.51 111.546C352.346 111.815 352.264 112.12 352.264 112.46C352.264 112.812 352.354 113.134 352.536 113.427C352.718 113.72 352.976 113.954 353.31 114.13C353.649 114.3 354.045 114.385 354.496 114.385C355.105 114.385 355.645 114.276 356.113 114.06C356.588 113.843 356.98 113.553 357.291 113.189C357.602 112.82 357.821 112.407 357.95 111.95L358.328 112.504C358.24 112.803 358.094 113.11 357.889 113.427C357.684 113.737 357.417 114.024 357.089 114.288C356.761 114.552 356.374 114.766 355.929 114.93C355.489 115.094 354.985 115.176 354.417 115.176C353.808 115.176 353.274 115.062 352.817 114.833C352.366 114.599 352.015 114.282 351.763 113.884C351.517 113.479 351.394 113.022 351.394 112.513C351.394 112.062 351.493 111.654 351.692 111.291C351.892 110.922 352.179 110.608 352.554 110.351C352.929 110.087 353.386 109.885 353.925 109.744C354.464 109.604 355.07 109.533 355.744 109.533H358.029ZM362.415 107.521V115H361.545V105.49H362.389L362.415 107.521ZM362.23 109.586L361.835 109.243C361.876 108.716 361.993 108.215 362.187 107.74C362.38 107.266 362.641 106.847 362.969 106.483C363.297 106.12 363.684 105.836 364.129 105.631C364.574 105.42 365.063 105.314 365.597 105.314C366.071 105.314 366.496 105.379 366.871 105.508C367.246 105.637 367.562 105.842 367.82 106.123C368.084 106.404 368.283 106.768 368.418 107.213C368.559 107.652 368.629 108.188 368.629 108.821V115H367.759V108.812C367.759 108.109 367.659 107.562 367.46 107.169C367.267 106.776 366.994 106.498 366.643 106.334C366.297 106.17 365.887 106.088 365.412 106.088C364.879 106.088 364.416 106.205 364.023 106.439C363.631 106.674 363.303 106.973 363.039 107.336C362.781 107.699 362.585 108.083 362.45 108.487C362.315 108.886 362.242 109.252 362.23 109.586ZM377.673 113.154V101.5H378.543V115H377.717L377.673 113.154ZM371.002 110.342V110.157C371.002 109.413 371.084 108.745 371.248 108.153C371.418 107.556 371.661 107.046 371.978 106.624C372.294 106.202 372.675 105.88 373.12 105.657C373.571 105.429 374.081 105.314 374.649 105.314C375.194 105.314 375.678 105.402 376.1 105.578C376.521 105.754 376.885 106.003 377.189 106.325C377.494 106.647 377.743 107.028 377.937 107.468C378.13 107.907 378.273 108.394 378.367 108.927V111.757C378.297 112.243 378.165 112.694 377.972 113.11C377.784 113.526 377.535 113.89 377.225 114.2C376.92 114.511 376.551 114.751 376.117 114.921C375.684 115.091 375.188 115.176 374.632 115.176C374.069 115.176 373.562 115.059 373.111 114.824C372.666 114.59 372.285 114.259 371.969 113.831C371.658 113.397 371.418 112.888 371.248 112.302C371.084 111.71 371.002 111.057 371.002 110.342ZM371.881 110.157V110.342C371.881 110.916 371.939 111.452 372.057 111.95C372.174 112.442 372.35 112.87 372.584 113.233C372.818 113.597 373.117 113.881 373.48 114.086C373.844 114.291 374.271 114.394 374.764 114.394C375.385 114.394 375.909 114.279 376.337 114.051C376.765 113.816 377.107 113.506 377.365 113.119C377.623 112.732 377.808 112.308 377.919 111.845V108.918C377.849 108.613 377.746 108.297 377.611 107.969C377.477 107.641 377.289 107.336 377.049 107.055C376.809 106.768 376.504 106.536 376.135 106.36C375.766 106.185 375.314 106.097 374.781 106.097C374.283 106.097 373.853 106.199 373.489 106.404C373.126 106.609 372.824 106.896 372.584 107.266C372.35 107.629 372.174 108.057 372.057 108.549C371.939 109.041 371.881 109.577 371.881 110.157ZM386.559 107.477V115H385.68V105.49H386.532L386.559 107.477ZM386.409 109.586L385.979 109.243C386.02 108.716 386.131 108.215 386.312 107.74C386.5 107.266 386.755 106.847 387.077 106.483C387.399 106.12 387.78 105.836 388.22 105.631C388.665 105.42 389.166 105.314 389.723 105.314C390.191 105.314 390.613 105.379 390.988 105.508C391.369 105.631 391.691 105.827 391.955 106.097C392.219 106.36 392.421 106.706 392.562 107.134C392.708 107.562 392.781 108.074 392.781 108.672V115H391.911V108.698C391.911 108.024 391.809 107.5 391.604 107.125C391.404 106.75 391.123 106.483 390.76 106.325C390.396 106.167 389.978 106.088 389.503 106.088C388.946 106.088 388.475 106.205 388.088 106.439C387.701 106.674 387.385 106.973 387.139 107.336C386.898 107.699 386.72 108.083 386.603 108.487C386.485 108.886 386.421 109.252 386.409 109.586ZM392.772 108.777L392.192 108.698C392.233 108.259 392.348 107.837 392.535 107.433C392.723 107.022 392.978 106.659 393.3 106.343C393.622 106.026 394.006 105.777 394.451 105.596C394.896 105.408 395.392 105.314 395.937 105.314C396.423 105.314 396.856 105.382 397.237 105.517C397.624 105.646 397.949 105.854 398.213 106.141C398.482 106.422 398.685 106.782 398.819 107.222C398.96 107.661 399.03 108.191 399.03 108.812V115H398.16V108.812C398.16 108.098 398.058 107.544 397.853 107.151C397.653 106.753 397.372 106.475 397.009 106.316C396.646 106.158 396.227 106.082 395.752 106.088C395.26 106.094 394.829 106.185 394.46 106.36C394.097 106.536 393.792 106.762 393.546 107.037C393.306 107.307 393.121 107.597 392.992 107.907C392.863 108.212 392.79 108.502 392.772 108.777ZM401.148 110.403V110.087C401.148 109.396 401.248 108.76 401.447 108.18C401.646 107.594 401.931 107.087 402.3 106.659C402.669 106.231 403.111 105.9 403.627 105.666C404.148 105.432 404.726 105.314 405.358 105.314C405.997 105.314 406.574 105.432 407.09 105.666C407.611 105.9 408.057 106.231 408.426 106.659C408.801 107.087 409.088 107.594 409.287 108.18C409.486 108.76 409.586 109.396 409.586 110.087V110.403C409.586 111.095 409.486 111.733 409.287 112.319C409.088 112.899 408.801 113.403 408.426 113.831C408.057 114.259 407.614 114.59 407.099 114.824C406.583 115.059 406.009 115.176 405.376 115.176C404.737 115.176 404.157 115.059 403.636 114.824C403.12 114.59 402.675 114.259 402.3 113.831C401.931 113.403 401.646 112.899 401.447 112.319C401.248 111.733 401.148 111.095 401.148 110.403ZM402.01 110.087V110.403C402.01 110.937 402.083 111.446 402.229 111.933C402.382 112.413 402.599 112.841 402.88 113.216C403.167 113.585 403.519 113.878 403.935 114.095C404.356 114.306 404.837 114.411 405.376 114.411C405.909 114.411 406.381 114.306 406.791 114.095C407.207 113.878 407.556 113.585 407.837 113.216C408.124 112.841 408.341 112.413 408.487 111.933C408.64 111.446 408.716 110.937 408.716 110.403V110.087C408.716 109.565 408.64 109.064 408.487 108.584C408.341 108.104 408.124 107.676 407.837 107.301C407.55 106.926 407.198 106.63 406.782 106.413C406.366 106.19 405.892 106.079 405.358 106.079C404.825 106.079 404.351 106.19 403.935 106.413C403.519 106.63 403.167 106.926 402.88 107.301C402.593 107.676 402.376 108.104 402.229 108.584C402.083 109.064 402.01 109.565 402.01 110.087ZM418.05 113.154V101.5H418.92V115H418.094L418.05 113.154ZM411.379 110.342V110.157C411.379 109.413 411.461 108.745 411.625 108.153C411.795 107.556 412.038 107.046 412.354 106.624C412.671 106.202 413.052 105.88 413.497 105.657C413.948 105.429 414.458 105.314 415.026 105.314C415.571 105.314 416.055 105.402 416.477 105.578C416.898 105.754 417.262 106.003 417.566 106.325C417.871 106.647 418.12 107.028 418.313 107.468C418.507 107.907 418.65 108.394 418.744 108.927V111.757C418.674 112.243 418.542 112.694 418.349 113.11C418.161 113.526 417.912 113.89 417.602 114.2C417.297 114.511 416.928 114.751 416.494 114.921C416.061 115.091 415.565 115.176 415.009 115.176C414.446 115.176 413.939 115.059 413.488 114.824C413.043 114.59 412.662 114.259 412.346 113.831C412.035 113.397 411.795 112.888 411.625 112.302C411.461 111.71 411.379 111.057 411.379 110.342ZM412.258 110.157V110.342C412.258 110.916 412.316 111.452 412.434 111.95C412.551 112.442 412.727 112.87 412.961 113.233C413.195 113.597 413.494 113.881 413.857 114.086C414.221 114.291 414.648 114.394 415.141 114.394C415.762 114.394 416.286 114.279 416.714 114.051C417.142 113.816 417.484 113.506 417.742 113.119C418 112.732 418.185 112.308 418.296 111.845V108.918C418.226 108.613 418.123 108.297 417.988 107.969C417.854 107.641 417.666 107.336 417.426 107.055C417.186 106.768 416.881 106.536 416.512 106.36C416.143 106.185 415.691 106.097 415.158 106.097C414.66 106.097 414.229 106.199 413.866 106.404C413.503 106.609 413.201 106.896 412.961 107.266C412.727 107.629 412.551 108.057 412.434 108.549C412.316 109.041 412.258 109.577 412.258 110.157ZM425.371 115.176C424.762 115.176 424.199 115.062 423.684 114.833C423.168 114.604 422.72 114.282 422.339 113.866C421.958 113.444 421.662 112.949 421.451 112.381C421.24 111.807 421.135 111.177 421.135 110.491V110.113C421.135 109.387 421.24 108.73 421.451 108.145C421.668 107.559 421.964 107.055 422.339 106.633C422.72 106.205 423.153 105.88 423.64 105.657C424.126 105.429 424.642 105.314 425.187 105.314C425.761 105.314 426.276 105.42 426.733 105.631C427.196 105.836 427.589 106.129 427.911 106.51C428.233 106.891 428.477 107.342 428.641 107.863C428.811 108.379 428.896 108.95 428.896 109.577V110.192H421.671V109.428H428.025V109.313C428.02 108.745 427.905 108.218 427.683 107.731C427.466 107.239 427.146 106.841 426.725 106.536C426.309 106.231 425.796 106.079 425.187 106.079C424.712 106.079 424.278 106.182 423.886 106.387C423.499 106.586 423.165 106.867 422.884 107.23C422.603 107.588 422.386 108.013 422.233 108.505C422.081 108.991 422.005 109.527 422.005 110.113V110.491C422.005 111.036 422.087 111.546 422.251 112.021C422.421 112.495 422.655 112.911 422.954 113.269C423.259 113.626 423.619 113.907 424.035 114.112C424.451 114.317 424.905 114.42 425.397 114.42C425.954 114.42 426.455 114.32 426.9 114.121C427.346 113.916 427.75 113.579 428.113 113.11L428.667 113.532C428.462 113.837 428.207 114.115 427.902 114.367C427.598 114.613 427.237 114.81 426.821 114.956C426.405 115.103 425.922 115.176 425.371 115.176ZM431.989 101.5V115H431.119V101.5H431.989ZM440.69 112.601C440.69 112.337 440.62 112.073 440.479 111.81C440.339 111.54 440.078 111.294 439.697 111.071C439.316 110.843 438.76 110.652 438.027 110.5C437.5 110.383 437.031 110.254 436.621 110.113C436.211 109.967 435.865 109.791 435.584 109.586C435.309 109.381 435.098 109.138 434.951 108.856C434.811 108.569 434.74 108.232 434.74 107.846C434.74 107.494 434.816 107.166 434.969 106.861C435.121 106.557 435.341 106.29 435.628 106.062C435.915 105.827 436.261 105.646 436.665 105.517C437.075 105.382 437.535 105.314 438.045 105.314C438.771 105.314 439.393 105.438 439.908 105.684C440.424 105.924 440.819 106.255 441.095 106.677C441.376 107.099 441.517 107.579 441.517 108.118H440.646C440.646 107.767 440.544 107.438 440.339 107.134C440.14 106.823 439.847 106.571 439.46 106.378C439.073 106.179 438.602 106.079 438.045 106.079C437.465 106.079 436.996 106.167 436.639 106.343C436.281 106.519 436.021 106.738 435.856 107.002C435.692 107.266 435.61 107.538 435.61 107.819C435.61 108.042 435.643 108.244 435.707 108.426C435.777 108.607 435.906 108.777 436.094 108.936C436.281 109.094 436.548 109.243 436.894 109.384C437.245 109.519 437.699 109.65 438.256 109.779C439.023 109.949 439.647 110.157 440.128 110.403C440.614 110.644 440.972 110.939 441.2 111.291C441.435 111.643 441.552 112.067 441.552 112.565C441.552 112.952 441.47 113.307 441.306 113.629C441.147 113.945 440.916 114.221 440.611 114.455C440.312 114.684 439.949 114.862 439.521 114.991C439.1 115.114 438.628 115.176 438.106 115.176C437.31 115.176 436.639 115.047 436.094 114.789C435.549 114.531 435.136 114.191 434.854 113.77C434.573 113.348 434.433 112.894 434.433 112.407H435.303C435.338 112.917 435.499 113.318 435.786 113.611C436.079 113.904 436.434 114.112 436.85 114.235C437.271 114.353 437.69 114.411 438.106 114.411C438.669 114.411 439.141 114.326 439.521 114.156C439.908 113.98 440.198 113.755 440.392 113.479C440.591 113.204 440.69 112.911 440.69 112.601Z" fill="white"/>
<mask id="path-7-outside-1_395_862" maskUnits="userSpaceOnUse" x="0" y="41" width="63" height="84" fill="black">
<rect fill="white" y="41" width="63" height="84"/>
<path d="M22.8809 76.5684H30.8887C32.9395 76.5684 34.6159 76.2103 35.918 75.4941C37.2526 74.7454 38.2454 73.7038 38.8965 72.3691C39.5475 71.002 39.873 69.3906 39.873 67.5352C39.873 66.1029 39.5638 64.7845 38.9453 63.5801C38.3594 62.3757 37.4479 61.4154 36.2109 60.6992C34.974 59.9505 33.3952 59.5762 31.4746 59.5762C30.1725 59.5762 28.903 59.8529 27.666 60.4062C26.429 60.9271 25.4036 61.6758 24.5898 62.6523C23.8086 63.6289 23.418 64.8171 23.418 66.2168H6.91406C6.91406 62.1803 8.02083 58.7298 10.2344 55.8652C12.4805 52.9681 15.4264 50.7546 19.0723 49.2246C22.7507 47.6621 26.7057 46.8809 30.9375 46.8809C35.9831 46.8809 40.4102 47.6621 44.2188 49.2246C48.0273 50.7546 50.9896 53.0332 53.1055 56.0605C55.2539 59.0553 56.3281 62.7663 56.3281 67.1934C56.3281 69.6348 55.7585 71.9297 54.6191 74.0781C53.4798 76.2266 51.8848 78.1146 49.834 79.7422C47.7832 81.3698 45.3743 82.6556 42.6074 83.5996C39.873 84.5111 36.8783 84.9668 33.623 84.9668H22.8809V76.5684ZM22.8809 88.8242V80.6211H33.623C37.1712 80.6211 40.4102 81.028 43.3398 81.8418C46.2695 82.623 48.7923 83.7949 50.9082 85.3574C53.0241 86.9199 54.6517 88.8568 55.791 91.168C56.9303 93.4466 57.5 96.0671 57.5 99.0293C57.5 102.35 56.8327 105.312 55.498 107.916C54.1634 110.52 52.2917 112.717 49.8828 114.508C47.474 116.298 44.6582 117.665 41.4355 118.609C38.2129 119.521 34.7135 119.977 30.9375 119.977C27.9753 119.977 25.013 119.586 22.0508 118.805C19.0885 117.991 16.3867 116.754 13.9453 115.094C11.5039 113.401 9.53451 111.253 8.03711 108.648C6.57227 106.012 5.83984 102.87 5.83984 99.2246H22.3438C22.3438 100.722 22.7507 102.089 23.5645 103.326C24.4108 104.531 25.5339 105.491 26.9336 106.207C28.3333 106.923 29.847 107.281 31.4746 107.281C33.4928 107.281 35.2018 106.907 36.6016 106.158C38.0339 105.377 39.1243 104.335 39.873 103.033C40.6217 101.731 40.9961 100.283 40.9961 98.6875C40.9961 96.2786 40.5892 94.3581 39.7754 92.9258C38.9941 91.4935 37.8385 90.4518 36.3086 89.8008C34.8112 89.1497 33.0046 88.8242 30.8887 88.8242H22.8809Z"/>
</mask>
<path d="M22.8809 76.5684V71.5684H17.8809V76.5684H22.8809ZM35.918 75.4941L38.3276 79.8752L38.3459 79.8651L38.3642 79.8549L35.918 75.4941ZM38.8965 72.3691L43.3903 74.5613L43.4007 74.5401L43.4108 74.5188L38.8965 72.3691ZM38.9453 63.5801L34.4491 65.7674L34.4728 65.816L34.4975 65.8641L38.9453 63.5801ZM36.2109 60.6992L33.6219 64.9767L33.6636 65.0019L33.7058 65.0264L36.2109 60.6992ZM27.666 60.4062L29.6063 65.0144L29.6573 64.9929L29.7078 64.9703L27.666 60.4062ZM24.5898 62.6523L20.7487 59.4514L20.7167 59.4898L20.6855 59.5289L24.5898 62.6523ZM23.418 66.2168V71.2168H28.418V66.2168H23.418ZM6.91406 66.2168H1.91406V71.2168H6.91406V66.2168ZM10.2344 55.8652L6.28283 52.8017L6.27795 52.808L10.2344 55.8652ZM19.0723 49.2246L21.007 53.8351L21.0171 53.8309L21.0271 53.8266L19.0723 49.2246ZM44.2188 49.2246L42.321 53.8505L42.3379 53.8574L42.355 53.8643L44.2188 49.2246ZM53.1055 56.0605L49.0072 58.9249L49.0249 58.9501L49.0428 58.9751L53.1055 56.0605ZM54.6191 74.0781L59.0364 76.4206V76.4206L54.6191 74.0781ZM42.6074 83.5996L44.1886 88.343L44.2053 88.3375L44.2219 88.3318L42.6074 83.5996ZM22.8809 84.9668H17.8809V89.9668H22.8809V84.9668ZM22.8809 88.8242H17.8809V93.8242H22.8809V88.8242ZM22.8809 80.6211V75.6211H17.8809V80.6211H22.8809ZM43.3398 81.8418L42.0016 86.6594L42.0265 86.6663L42.0515 86.673L43.3398 81.8418ZM55.791 91.168L51.3063 93.3787L51.3126 93.3914L51.3189 93.404L55.791 91.168ZM49.8828 114.508L46.9002 110.495L49.8828 114.508ZM41.4355 118.609L42.7963 123.421L42.8187 123.414L42.8411 123.408L41.4355 118.609ZM22.0508 118.805L20.7262 123.626L20.7509 123.633L20.7757 123.639L22.0508 118.805ZM13.9453 115.094L11.0964 119.203L11.115 119.216L11.1338 119.228L13.9453 115.094ZM8.03711 108.648L3.66632 111.077L3.68421 111.109L3.70258 111.141L8.03711 108.648ZM5.83984 99.2246V94.2246H0.839844V99.2246H5.83984ZM22.3438 99.2246H27.3438V94.2246H22.3438V99.2246ZM23.5645 103.326L19.3874 106.074L19.4295 106.138L19.4735 106.201L23.5645 103.326ZM26.9336 106.207L24.6562 110.658L26.9336 106.207ZM36.6016 106.158L38.9598 110.567L38.9779 110.557L38.9958 110.548L36.6016 106.158ZM39.7754 92.9258L35.3859 95.32L35.4067 95.3581L35.4281 95.3958L39.7754 92.9258ZM36.3086 89.8008L34.315 94.3861L34.3329 94.3939L34.3508 94.4016L36.3086 89.8008ZM22.8809 76.5684V81.5684H30.8887V76.5684V71.5684H22.8809V76.5684ZM30.8887 76.5684V81.5684C33.4774 81.5684 36.0598 81.1225 38.3276 79.8752L35.918 75.4941L33.5084 71.1131C33.1719 71.2981 32.4015 71.5684 30.8887 71.5684V76.5684ZM35.918 75.4941L38.3642 79.8549C40.5573 78.6246 42.279 76.8395 43.3903 74.5613L38.8965 72.3691L34.4026 70.177C34.2119 70.568 33.9479 70.8663 33.4717 71.1334L35.918 75.4941ZM38.8965 72.3691L43.4108 74.5188C44.4454 72.3461 44.873 69.9702 44.873 67.5352H39.873H34.873C34.873 68.8111 34.6497 69.6578 34.3822 70.2195L38.8965 72.3691ZM39.873 67.5352H44.873C44.873 65.3557 44.3955 63.248 43.3931 61.2961L38.9453 63.5801L34.4975 65.8641C34.7321 66.321 34.873 66.85 34.873 67.5352H39.873ZM38.9453 63.5801L43.4415 61.3927C42.39 59.2314 40.7542 57.552 38.7161 56.3721L36.2109 60.6992L33.7058 65.0264C34.1416 65.2787 34.3287 65.5199 34.4491 65.7674L38.9453 63.5801ZM36.2109 60.6992L38.7999 56.4217C36.5657 55.0694 34.0167 54.5762 31.4746 54.5762V59.5762V64.5762C32.7737 64.5762 33.3822 64.8316 33.6219 64.9767L36.2109 60.6992ZM31.4746 59.5762V54.5762C29.4401 54.5762 27.4767 55.0134 25.6242 55.8422L27.666 60.4062L29.7078 64.9703C30.3293 64.6923 30.905 64.5762 31.4746 64.5762V59.5762ZM27.666 60.4062L25.7257 55.7981C23.7941 56.6114 22.1031 57.8262 20.7487 59.4514L24.5898 62.6523L28.431 65.8533C28.7042 65.5254 29.064 65.2428 29.6063 65.0144L27.666 60.4062ZM24.5898 62.6523L20.6855 59.5289C19.1104 61.4978 18.418 63.825 18.418 66.2168H23.418H28.418C28.418 65.9849 28.4497 65.8715 28.4608 65.8375C28.4698 65.8103 28.4764 65.7981 28.4942 65.7758L24.5898 62.6523ZM23.418 66.2168V61.2168H6.91406V66.2168V71.2168H23.418V66.2168ZM6.91406 66.2168H11.9141C11.9141 63.1525 12.7316 60.8109 14.1908 58.9225L10.2344 55.8652L6.27795 52.808C3.3101 56.6487 1.91406 61.2081 1.91406 66.2168H6.91406ZM10.2344 55.8652L14.1859 58.9288C15.8631 56.7655 18.0912 55.0587 21.007 53.8351L19.0723 49.2246L17.1375 44.6141C12.7617 46.4504 9.09787 49.1707 6.28284 52.8017L10.2344 55.8652ZM19.0723 49.2246L21.0271 53.8266C24.0513 52.542 27.3373 51.8809 30.9375 51.8809V46.8809V41.8809C26.0742 41.8809 21.45 42.7822 17.1174 44.6226L19.0723 49.2246ZM30.9375 46.8809V51.8809C35.4748 51.8809 39.2338 52.5839 42.321 53.8505L44.2188 49.2246L46.1165 44.5988C41.5865 42.7403 36.4913 41.8809 30.9375 41.8809V46.8809ZM44.2188 49.2246L42.355 53.8643C45.366 55.0738 47.5088 56.7809 49.0072 58.9249L53.1055 56.0605L57.2037 53.1962C54.4704 49.2855 50.6887 46.4353 46.0825 44.585L44.2188 49.2246ZM53.1055 56.0605L49.0428 58.9751C50.4673 60.9608 51.3281 63.5968 51.3281 67.1934H56.3281H61.3281C61.3281 61.9358 60.0405 57.1499 57.1682 53.146L53.1055 56.0605ZM56.3281 67.1934H51.3281C51.3281 68.8214 50.957 70.3117 50.2018 71.7356L54.6191 74.0781L59.0364 76.4206C60.56 73.5477 61.3281 70.4481 61.3281 67.1934H56.3281ZM54.6191 74.0781L50.2018 71.7356C49.4098 73.2292 48.2782 74.5936 46.7257 75.8257L49.834 79.7422L52.9423 83.6586C55.4914 81.6356 57.5498 79.224 59.0364 76.4206L54.6191 74.0781ZM49.834 79.7422L46.7257 75.8257C45.1716 77.0591 43.2816 78.0866 40.9929 78.8674L42.6074 83.5996L44.2219 88.3318C47.4671 87.2246 50.3948 85.6804 52.9423 83.6586L49.834 79.7422ZM42.6074 83.5996L41.0263 78.8562C38.863 79.5773 36.4095 79.9668 33.623 79.9668V84.9668V89.9668C37.347 89.9668 40.8831 89.4448 44.1886 88.343L42.6074 83.5996ZM33.623 84.9668V79.9668H22.8809V84.9668V89.9668H33.623V84.9668ZM22.8809 84.9668H27.8809V76.5684H22.8809H17.8809V84.9668H22.8809ZM22.8809 88.8242H27.8809V80.6211H22.8809H17.8809V88.8242H22.8809ZM22.8809 80.6211V85.6211H33.623V80.6211V75.6211H22.8809V80.6211ZM33.623 80.6211V85.6211C36.7923 85.6211 39.5732 85.9848 42.0016 86.6594L43.3398 81.8418L44.6781 77.0242C41.2472 76.0712 37.5501 75.6211 33.623 75.6211V80.6211ZM43.3398 81.8418L42.0515 86.673C44.4663 87.3169 46.398 88.2423 47.938 89.3796L50.9082 85.3574L53.8784 81.3353C51.1867 79.3475 48.0728 77.9292 44.6282 77.0106L43.3398 81.8418ZM50.9082 85.3574L47.938 89.3796C49.4255 90.4781 50.5275 91.7989 51.3063 93.3787L55.791 91.168L60.2757 88.9572C58.7759 85.9147 56.6226 83.3618 53.8784 81.3353L50.9082 85.3574ZM55.791 91.168L51.3189 93.404C52.0587 94.8837 52.5 96.717 52.5 99.0293H57.5H62.5C62.5 95.4171 61.802 92.0096 60.2632 88.9319L55.791 91.168ZM57.5 99.0293H52.5C52.5 101.664 51.9752 103.827 51.0484 105.636L55.498 107.916L59.9477 110.196C61.6902 106.797 62.5 103.035 62.5 99.0293H57.5ZM55.498 107.916L51.0484 105.636C50.0726 107.54 48.71 109.15 46.9002 110.495L49.8828 114.508L52.8654 118.521C55.8733 116.285 58.2542 113.501 59.9477 110.196L55.498 107.916ZM49.8828 114.508L46.9002 110.495C45.0194 111.893 42.7517 113.014 40.03 113.811L41.4355 118.609L42.8411 123.408C46.5647 122.317 49.9285 120.704 52.8654 118.521L49.8828 114.508ZM41.4355 118.609L40.0748 113.798C37.3471 114.57 34.311 114.977 30.9375 114.977V119.977V124.977C35.116 124.977 39.0787 124.472 42.7963 123.421L41.4355 118.609ZM30.9375 119.977V114.977C28.4202 114.977 25.8862 114.645 23.3259 113.97L22.0508 118.805L20.7757 123.639C24.1398 124.527 27.5304 124.977 30.9375 124.977V119.977ZM22.0508 118.805L23.3753 113.983C20.9214 113.309 18.7255 112.298 16.7569 110.959L13.9453 115.094L11.1338 119.228C14.048 121.21 17.2556 122.673 20.7262 123.626L22.0508 118.805ZM13.9453 115.094L16.7942 110.985C14.9687 109.719 13.504 108.125 12.3716 106.156L8.03711 108.648L3.70258 111.141C5.56502 114.38 8.03914 117.083 11.0964 119.203L13.9453 115.094ZM8.03711 108.648L12.4079 106.22C11.4337 104.467 10.8398 102.197 10.8398 99.2246H5.83984H0.839844C0.839844 103.544 1.71082 107.557 3.66632 111.077L8.03711 108.648ZM5.83984 99.2246V104.225H22.3438V99.2246V94.2246H5.83984V99.2246ZM22.3438 99.2246H17.3438C17.3438 101.687 18.0303 104.012 19.3874 106.074L23.5645 103.326L27.7415 100.578C27.471 100.167 27.3438 99.757 27.3438 99.2246H22.3438ZM23.5645 103.326L19.4735 106.201C20.8189 108.115 22.5834 109.598 24.6562 110.658L26.9336 106.207L29.211 101.756C28.4843 101.384 28.0027 100.946 27.6554 100.451L23.5645 103.326ZM26.9336 106.207L24.6562 110.658C26.7861 111.748 29.0839 112.281 31.4746 112.281V107.281V102.281C30.6101 102.281 29.8805 102.098 29.211 101.756L26.9336 106.207ZM31.4746 107.281V112.281C34.0976 112.281 36.664 111.795 38.9598 110.567L36.6016 106.158L34.2433 101.749C33.7396 102.019 32.8881 102.281 31.4746 102.281V107.281ZM36.6016 106.158L38.9958 110.548C41.1651 109.364 42.96 107.695 44.2076 105.526L39.873 103.033L35.5385 100.541C35.2887 100.975 34.9026 101.389 34.2073 101.769L36.6016 106.158ZM39.873 103.033L44.2076 105.526C45.4195 103.418 45.9961 101.101 45.9961 98.6875H40.9961H35.9961C35.9961 99.4641 35.824 100.044 35.5385 100.541L39.873 103.033ZM40.9961 98.6875H45.9961C45.9961 95.7864 45.5172 92.9102 44.1227 90.4557L39.7754 92.9258L35.4281 95.3958C35.6612 95.806 35.9961 96.7709 35.9961 98.6875H40.9961ZM39.7754 92.9258L44.1649 90.5315C42.8335 88.0906 40.8107 86.2827 38.2664 85.2L36.3086 89.8008L34.3508 94.4016C34.8664 94.621 35.1548 94.8963 35.3859 95.32L39.7754 92.9258ZM36.3086 89.8008L38.3022 85.2154C36.0192 84.2228 33.4963 83.8242 30.8887 83.8242V88.8242V93.8242C32.5128 93.8242 33.6032 94.0767 34.315 94.3861L36.3086 89.8008ZM30.8887 88.8242V83.8242H22.8809V88.8242V93.8242H30.8887V88.8242Z" fill="#1A5069" mask="url(#path-7-outside-1_395_862)"/>
<defs>
<radialGradient id="paint0_radial_395_862" cx="0" cy="0" r="1" gradientUnits="userSpaceOnUse" gradientTransform="translate(96.2628 221.995) scale(96.2628 221.995)">
<stop stop-color="#1A5069"/>
<stop offset="1" stop-color="#0F7BAE" stop-opacity="0"/>
</radialGradient>
<radialGradient id="paint1_radial_395_862" cx="0" cy="0" r="1" gradientUnits="userSpaceOnUse" gradientTransform="translate(96.2628 221.995) scale(96.2628 221.995)">
<stop stop-color="#1A5069"/>
<stop offset="1" stop-color="#0F7BAE" stop-opacity="0"/>
</radialGradient>
</defs>
</svg>
