<svg width="551" height="180" viewBox="0 0 551 180" fill="none" xmlns="http://www.w3.org/2000/svg">
<mask id="mask0_395_873" style="mask-type:alpha" maskUnits="userSpaceOnUse" x="72" y="0" width="439" height="179">
<rect x="-1.00093" y="0.991997" width="174.036" height="436.409" rx="87.0179" transform="matrix(-0.000966365 1 -0.999968 -0.00800285 510.555 5.50966)" fill="black" stroke="#136A93" stroke-width="2"/>
</mask>
<g mask="url(#mask0_395_873)">
<rect width="192.526" height="443.99" rx="47.5" transform="matrix(-0.000966365 1 -0.999968 -0.00800285 676.686 68.4434)" fill="url(#paint0_radial_395_873)" fill-opacity="0.74"/>
<rect width="192.526" height="443.99" rx="47.5" transform="matrix(-0.000966365 1 -0.999968 -0.00800285 350.023 -57.9541)" fill="url(#paint1_radial_395_873)" fill-opacity="0.74"/>
</g>
<rect x="74.3828" y="1.54688" width="435.608" height="175.235" rx="87.6177" fill="#D9D9D9" fill-opacity="0.14" stroke="#136A93" stroke-width="2"/>
<path d="M228.317 74.1294L234.521 54.1172H239.733L230.949 79H227.48L228.317 74.1294ZM222.592 54.1172L228.762 74.1294L229.65 79H226.147L217.397 54.1172H222.592ZM246.49 60.5088V79H241.961V60.5088H246.49ZM241.654 55.6724C241.654 55.0002 241.882 54.4419 242.337 53.9976C242.805 53.5532 243.431 53.3311 244.217 53.3311C245.003 53.3311 245.624 53.5532 246.08 53.9976C246.547 54.4419 246.781 55.0002 246.781 55.6724C246.781 56.3332 246.547 56.8857 246.08 57.3301C245.624 57.7744 245.003 57.9966 244.217 57.9966C243.431 57.9966 242.805 57.7744 242.337 57.3301C241.882 56.8857 241.654 56.3332 241.654 55.6724ZM260.715 73.9414C260.715 73.554 260.613 73.2065 260.408 72.8989C260.203 72.5913 259.815 72.3122 259.246 72.0615C258.687 71.7995 257.867 71.5545 256.785 71.3267C255.828 71.1216 254.945 70.8652 254.136 70.5576C253.327 70.25 252.632 69.8797 252.051 69.4468C251.47 69.0024 251.014 68.484 250.684 67.8916C250.365 67.2878 250.205 66.5928 250.205 65.8066C250.205 65.0433 250.37 64.3255 250.701 63.6533C251.031 62.9697 251.51 62.3716 252.136 61.8589C252.763 61.3348 253.526 60.9246 254.426 60.6284C255.326 60.3208 256.34 60.167 257.468 60.167C259.041 60.167 260.391 60.4233 261.519 60.936C262.658 61.4487 263.529 62.1551 264.133 63.0552C264.737 63.9438 265.039 64.9465 265.039 66.063H260.527C260.527 65.5731 260.413 65.1287 260.186 64.73C259.969 64.3312 259.633 64.0122 259.177 63.7729C258.722 63.5223 258.146 63.397 257.451 63.397C256.825 63.397 256.295 63.4995 255.862 63.7046C255.44 63.9097 255.121 64.1774 254.905 64.5078C254.688 64.8382 254.58 65.2028 254.58 65.6016C254.58 65.8978 254.637 66.1655 254.751 66.4048C254.876 66.6326 255.076 66.8434 255.349 67.0371C255.623 67.2308 255.993 67.4074 256.46 67.5669C256.938 67.7264 257.525 67.8802 258.22 68.0283C259.599 68.3018 260.801 68.6663 261.826 69.1221C262.863 69.5664 263.672 70.1589 264.253 70.8994C264.834 71.64 265.125 72.5856 265.125 73.7363C265.125 74.5566 264.948 75.3086 264.595 75.9922C264.242 76.6644 263.729 77.2511 263.057 77.7524C262.384 78.2537 261.581 78.6468 260.647 78.9316C259.713 79.2051 258.659 79.3418 257.485 79.3418C255.788 79.3418 254.352 79.0399 253.179 78.436C252.005 77.8208 251.117 77.0461 250.513 76.1118C249.909 75.1662 249.607 74.1864 249.607 73.1724H253.931C253.965 73.8901 254.159 74.4655 254.512 74.8984C254.865 75.3314 255.309 75.6447 255.845 75.8384C256.392 76.0207 256.967 76.1118 257.571 76.1118C258.254 76.1118 258.83 76.0207 259.297 75.8384C259.764 75.6447 260.117 75.3883 260.356 75.0693C260.596 74.7389 260.715 74.363 260.715 73.9414ZM279.315 74.6079V60.5088H283.861V79H279.589L279.315 74.6079ZM279.896 70.7798L281.298 70.7456C281.298 71.9875 281.161 73.1325 280.888 74.1807C280.614 75.2288 280.187 76.1403 279.606 76.915C279.036 77.6784 278.313 78.2765 277.436 78.7095C276.558 79.131 275.521 79.3418 274.325 79.3418C273.414 79.3418 272.582 79.2165 271.83 78.9658C271.078 78.7038 270.429 78.2993 269.882 77.7524C269.346 77.1942 268.931 76.4821 268.634 75.6162C268.338 74.7389 268.19 73.6851 268.19 72.4546V60.5088H272.702V72.4888C272.702 73.104 272.77 73.6167 272.907 74.0269C273.055 74.437 273.254 74.7731 273.505 75.0352C273.767 75.2858 274.069 75.4681 274.411 75.582C274.764 75.6846 275.14 75.7358 275.539 75.7358C276.632 75.7358 277.493 75.5194 278.119 75.0864C278.757 74.6421 279.213 74.0496 279.486 73.3091C279.76 72.5571 279.896 71.714 279.896 70.7798ZM297.796 75.0693V66.5415C297.796 65.9149 297.688 65.3737 297.471 64.918C297.255 64.4622 296.924 64.109 296.48 63.8584C296.036 63.6077 295.472 63.4824 294.788 63.4824C294.184 63.4824 293.654 63.585 293.199 63.79C292.754 63.9951 292.413 64.2856 292.173 64.6616C291.934 65.0262 291.814 65.4478 291.814 65.9263H287.286C287.286 65.1629 287.468 64.4395 287.833 63.7559C288.197 63.0609 288.715 62.4456 289.388 61.9102C290.071 61.3633 290.886 60.936 291.832 60.6284C292.789 60.3208 293.86 60.167 295.044 60.167C296.446 60.167 297.693 60.4062 298.787 60.8848C299.892 61.3519 300.758 62.0583 301.385 63.0039C302.023 63.9495 302.342 65.1401 302.342 66.5757V74.6421C302.342 75.5649 302.399 76.3568 302.513 77.0176C302.638 77.667 302.82 78.231 303.06 78.7095V79H298.462C298.246 78.5329 298.081 77.9404 297.967 77.2227C297.853 76.4935 297.796 75.7757 297.796 75.0693ZM298.428 67.7378L298.462 70.4209H295.608C294.902 70.4209 294.281 70.495 293.746 70.6431C293.21 70.7798 292.771 70.9849 292.43 71.2583C292.088 71.5203 291.832 71.8394 291.661 72.2153C291.49 72.5799 291.404 72.9958 291.404 73.4629C291.404 73.9186 291.507 74.3288 291.712 74.6934C291.928 75.0579 292.236 75.3485 292.635 75.5649C293.045 75.77 293.523 75.8726 294.07 75.8726C294.868 75.8726 295.563 75.7131 296.155 75.394C296.748 75.0636 297.209 74.6649 297.54 74.1978C297.87 73.7306 298.047 73.2863 298.069 72.8647L299.368 74.813C299.209 75.2801 298.969 75.7757 298.65 76.2998C298.331 76.8239 297.921 77.3138 297.42 77.7695C296.919 78.2253 296.315 78.6012 295.608 78.8975C294.902 79.1937 294.082 79.3418 293.147 79.3418C291.951 79.3418 290.88 79.1025 289.935 78.624C288.989 78.1455 288.243 77.4904 287.696 76.6587C287.149 75.827 286.875 74.8813 286.875 73.8218C286.875 72.842 287.058 71.9761 287.422 71.2241C287.787 70.4722 288.328 69.8398 289.046 69.3271C289.764 68.8031 290.652 68.41 291.712 68.1479C292.783 67.8745 294.008 67.7378 295.386 67.7378H298.428ZM310.944 52.75V79H306.416V52.75H310.944ZM319.786 60.5088V79H315.257V60.5088H319.786ZM314.95 55.6724C314.95 55.0002 315.178 54.4419 315.633 53.9976C316.1 53.5532 316.727 53.3311 317.513 53.3311C318.299 53.3311 318.92 53.5532 319.376 53.9976C319.843 54.4419 320.077 55.0002 320.077 55.6724C320.077 56.3332 319.843 56.8857 319.376 57.3301C318.92 57.7744 318.299 57.9966 317.513 57.9966C316.727 57.9966 316.1 57.7744 315.633 57.3301C315.178 56.8857 314.95 56.3332 314.95 55.6724ZM338.335 75.4453V79H324.424V75.4453H338.335ZM338.01 63.209L326.116 79H323.142V76.2144L334.968 60.5088H338.01V63.209ZM336.353 60.5088V64.0806H323.381V60.5088H336.353ZM349.33 79.3418C347.929 79.3418 346.67 79.1139 345.553 78.6582C344.437 78.2025 343.485 77.5701 342.699 76.7612C341.924 75.9409 341.326 74.9896 340.905 73.9072C340.495 72.8135 340.29 71.64 340.29 70.3867V69.7031C340.29 68.279 340.495 66.9858 340.905 65.8237C341.315 64.6502 341.896 63.6419 342.648 62.7988C343.4 61.9557 344.3 61.3063 345.348 60.8506C346.396 60.3949 347.553 60.167 348.817 60.167C350.128 60.167 351.284 60.3892 352.287 60.8335C353.289 61.2664 354.127 61.8817 354.799 62.6792C355.471 63.4767 355.978 64.4338 356.32 65.5503C356.662 66.6554 356.833 67.8802 356.833 69.2246V71.1216H342.34V68.0112H352.389V67.6694C352.366 66.9517 352.23 66.2965 351.979 65.7041C351.728 65.1003 351.341 64.6217 350.817 64.2686C350.293 63.904 349.615 63.7217 348.783 63.7217C348.111 63.7217 347.524 63.8698 347.023 64.166C346.533 64.4508 346.123 64.861 345.792 65.3965C345.473 65.9206 345.234 66.5472 345.075 67.2764C344.915 68.0055 344.835 68.8145 344.835 69.7031V70.3867C344.835 71.1615 344.938 71.8792 345.143 72.54C345.36 73.2008 345.673 73.7762 346.083 74.2661C346.505 74.7446 347.006 75.1206 347.587 75.394C348.179 75.6561 348.852 75.7871 349.604 75.7871C350.549 75.7871 351.404 75.6048 352.167 75.2402C352.942 74.8643 353.614 74.3117 354.184 73.5825L356.457 75.9409C356.069 76.5106 355.545 77.0575 354.884 77.5815C354.235 78.1056 353.449 78.5329 352.526 78.8633C351.603 79.1823 350.538 79.3418 349.33 79.3418Z" fill="#EDD5B1"/>
<path d="M166.449 108.795H162.723L162.705 108.021H165.869C166.543 108.021 167.114 107.928 167.583 107.74C168.052 107.553 168.406 107.271 168.646 106.896C168.893 106.521 169.016 106.056 169.016 105.499C169.016 104.931 168.893 104.462 168.646 104.093C168.406 103.724 168.043 103.448 167.557 103.267C167.07 103.079 166.461 102.985 165.729 102.985H162.978V115H162.081V102.203H165.729C166.379 102.203 166.962 102.268 167.478 102.396C167.993 102.525 168.433 102.728 168.796 103.003C169.159 103.272 169.435 103.618 169.622 104.04C169.815 104.456 169.912 104.951 169.912 105.525C169.912 106.053 169.801 106.527 169.578 106.949C169.361 107.371 169.048 107.717 168.638 107.986C168.228 108.25 167.732 108.414 167.152 108.479L166.449 108.795ZM166.361 115H162.485L162.907 114.218H166.361C167.023 114.218 167.589 114.106 168.058 113.884C168.526 113.661 168.887 113.342 169.139 112.926C169.396 112.51 169.525 112.015 169.525 111.44C169.525 110.954 169.414 110.512 169.191 110.113C168.969 109.709 168.629 109.39 168.172 109.155C167.715 108.915 167.141 108.795 166.449 108.795H164.261L164.278 108.021H167.398L167.548 108.294C168.11 108.353 168.605 108.531 169.033 108.83C169.467 109.123 169.804 109.495 170.044 109.946C170.29 110.397 170.413 110.89 170.413 111.423C170.413 112.19 170.243 112.841 169.903 113.374C169.563 113.907 169.089 114.312 168.479 114.587C167.876 114.862 167.17 115 166.361 115ZM179.009 112.803V105.49H179.888V115H179.035L179.009 112.803ZM179.167 111.115L179.659 111.098C179.659 111.684 179.589 112.226 179.448 112.724C179.308 113.216 179.085 113.646 178.78 114.016C178.481 114.385 178.095 114.672 177.62 114.877C177.146 115.076 176.577 115.176 175.915 115.176C175.452 115.176 175.027 115.111 174.641 114.982C174.26 114.848 173.929 114.637 173.647 114.35C173.372 114.062 173.158 113.69 173.006 113.233C172.859 112.771 172.786 112.214 172.786 111.563V105.49H173.656V111.581C173.656 112.108 173.715 112.554 173.832 112.917C173.955 113.274 174.122 113.562 174.333 113.778C174.55 113.995 174.799 114.153 175.08 114.253C175.361 114.347 175.666 114.394 175.994 114.394C176.791 114.394 177.421 114.241 177.884 113.937C178.347 113.626 178.675 113.222 178.868 112.724C179.067 112.22 179.167 111.684 179.167 111.115ZM183.693 105.49V115H182.823V105.49H183.693ZM182.621 102.669C182.621 102.493 182.68 102.344 182.797 102.221C182.914 102.092 183.069 102.027 183.263 102.027C183.462 102.027 183.62 102.092 183.737 102.221C183.86 102.344 183.922 102.493 183.922 102.669C183.922 102.845 183.86 102.994 183.737 103.117C183.62 103.24 183.462 103.302 183.263 103.302C183.069 103.302 182.914 103.24 182.797 103.117C182.68 102.994 182.621 102.845 182.621 102.669ZM187.631 101.5V115H186.761V101.5H187.631ZM196.824 113.154V101.5H197.694V115H196.868L196.824 113.154ZM190.153 110.342V110.157C190.153 109.413 190.235 108.745 190.399 108.153C190.569 107.556 190.812 107.046 191.129 106.624C191.445 106.202 191.826 105.88 192.271 105.657C192.723 105.429 193.232 105.314 193.801 105.314C194.346 105.314 194.829 105.402 195.251 105.578C195.673 105.754 196.036 106.003 196.341 106.325C196.646 106.647 196.895 107.028 197.088 107.468C197.281 107.907 197.425 108.394 197.519 108.927V111.757C197.448 112.243 197.316 112.694 197.123 113.11C196.936 113.526 196.687 113.89 196.376 114.2C196.071 114.511 195.702 114.751 195.269 114.921C194.835 115.091 194.34 115.176 193.783 115.176C193.221 115.176 192.714 115.059 192.263 114.824C191.817 114.59 191.437 114.259 191.12 113.831C190.81 113.397 190.569 112.888 190.399 112.302C190.235 111.71 190.153 111.057 190.153 110.342ZM191.032 110.157V110.342C191.032 110.916 191.091 111.452 191.208 111.95C191.325 112.442 191.501 112.87 191.735 113.233C191.97 113.597 192.269 113.881 192.632 114.086C192.995 114.291 193.423 114.394 193.915 114.394C194.536 114.394 195.061 114.279 195.488 114.051C195.916 113.816 196.259 113.506 196.517 113.119C196.774 112.732 196.959 112.308 197.07 111.845V108.918C197 108.613 196.897 108.297 196.763 107.969C196.628 107.641 196.44 107.336 196.2 107.055C195.96 106.768 195.655 106.536 195.286 106.36C194.917 106.185 194.466 106.097 193.933 106.097C193.435 106.097 193.004 106.199 192.641 106.404C192.277 106.609 191.976 106.896 191.735 107.266C191.501 107.629 191.325 108.057 191.208 108.549C191.091 109.041 191.032 109.577 191.032 110.157ZM211.15 113.154V101.5H212.021V115H211.194L211.15 113.154ZM204.479 110.342V110.157C204.479 109.413 204.562 108.745 204.726 108.153C204.896 107.556 205.139 107.046 205.455 106.624C205.771 106.202 206.152 105.88 206.598 105.657C207.049 105.429 207.559 105.314 208.127 105.314C208.672 105.314 209.155 105.402 209.577 105.578C209.999 105.754 210.362 106.003 210.667 106.325C210.972 106.647 211.221 107.028 211.414 107.468C211.607 107.907 211.751 108.394 211.845 108.927V111.757C211.774 112.243 211.643 112.694 211.449 113.11C211.262 113.526 211.013 113.89 210.702 114.2C210.397 114.511 210.028 114.751 209.595 114.921C209.161 115.091 208.666 115.176 208.109 115.176C207.547 115.176 207.04 115.059 206.589 114.824C206.144 114.59 205.763 114.259 205.446 113.831C205.136 113.397 204.896 112.888 204.726 112.302C204.562 111.71 204.479 111.057 204.479 110.342ZM205.358 110.157V110.342C205.358 110.916 205.417 111.452 205.534 111.95C205.651 112.442 205.827 112.87 206.062 113.233C206.296 113.597 206.595 113.881 206.958 114.086C207.321 114.291 207.749 114.394 208.241 114.394C208.862 114.394 209.387 114.279 209.814 114.051C210.242 113.816 210.585 113.506 210.843 113.119C211.101 112.732 211.285 112.308 211.396 111.845V108.918C211.326 108.613 211.224 108.297 211.089 107.969C210.954 107.641 210.767 107.336 210.526 107.055C210.286 106.768 209.981 106.536 209.612 106.36C209.243 106.185 208.792 106.097 208.259 106.097C207.761 106.097 207.33 106.199 206.967 106.404C206.604 106.609 206.302 106.896 206.062 107.266C205.827 107.629 205.651 108.057 205.534 108.549C205.417 109.041 205.358 109.577 205.358 110.157ZM220.713 113.269V108.364C220.713 107.89 220.613 107.482 220.414 107.143C220.215 106.797 219.922 106.533 219.535 106.352C219.154 106.164 218.683 106.07 218.12 106.07C217.604 106.07 217.142 106.161 216.731 106.343C216.327 106.524 216.005 106.771 215.765 107.081C215.53 107.392 215.413 107.737 215.413 108.118L214.552 108.101C214.552 107.743 214.637 107.397 214.807 107.063C214.982 106.729 215.229 106.431 215.545 106.167C215.867 105.903 216.248 105.695 216.688 105.543C217.133 105.391 217.622 105.314 218.155 105.314C218.829 105.314 219.421 105.429 219.931 105.657C220.446 105.88 220.851 106.22 221.144 106.677C221.437 107.128 221.583 107.696 221.583 108.382V113.031C221.583 113.359 221.606 113.699 221.653 114.051C221.7 114.402 221.771 114.687 221.864 114.903V115H220.924C220.854 114.783 220.801 114.517 220.766 114.2C220.73 113.878 220.713 113.567 220.713 113.269ZM220.95 109.533L220.968 110.245H218.779C218.211 110.245 217.704 110.298 217.259 110.403C216.819 110.503 216.444 110.649 216.134 110.843C215.829 111.036 215.595 111.271 215.431 111.546C215.267 111.815 215.185 112.12 215.185 112.46C215.185 112.812 215.275 113.134 215.457 113.427C215.639 113.72 215.896 113.954 216.23 114.13C216.57 114.3 216.966 114.385 217.417 114.385C218.026 114.385 218.565 114.276 219.034 114.06C219.509 113.843 219.901 113.553 220.212 113.189C220.522 112.82 220.742 112.407 220.871 111.95L221.249 112.504C221.161 112.803 221.015 113.11 220.81 113.427C220.604 113.737 220.338 114.024 220.01 114.288C219.682 114.552 219.295 114.766 218.85 114.93C218.41 115.094 217.906 115.176 217.338 115.176C216.729 115.176 216.195 115.062 215.738 114.833C215.287 114.599 214.936 114.282 214.684 113.884C214.438 113.479 214.314 113.022 214.314 112.513C214.314 112.062 214.414 111.654 214.613 111.291C214.812 110.922 215.1 110.608 215.475 110.351C215.85 110.087 216.307 109.885 216.846 109.744C217.385 109.604 217.991 109.533 218.665 109.533H220.95ZM230.223 112.601C230.223 112.337 230.152 112.073 230.012 111.81C229.871 111.54 229.61 111.294 229.229 111.071C228.849 110.843 228.292 110.652 227.56 110.5C227.032 110.383 226.563 110.254 226.153 110.113C225.743 109.967 225.397 109.791 225.116 109.586C224.841 109.381 224.63 109.138 224.483 108.856C224.343 108.569 224.272 108.232 224.272 107.846C224.272 107.494 224.349 107.166 224.501 106.861C224.653 106.557 224.873 106.29 225.16 106.062C225.447 105.827 225.793 105.646 226.197 105.517C226.607 105.382 227.067 105.314 227.577 105.314C228.304 105.314 228.925 105.438 229.44 105.684C229.956 105.924 230.352 106.255 230.627 106.677C230.908 107.099 231.049 107.579 231.049 108.118H230.179C230.179 107.767 230.076 107.438 229.871 107.134C229.672 106.823 229.379 106.571 228.992 106.378C228.605 106.179 228.134 106.079 227.577 106.079C226.997 106.079 226.528 106.167 226.171 106.343C225.813 106.519 225.553 106.738 225.389 107.002C225.225 107.266 225.143 107.538 225.143 107.819C225.143 108.042 225.175 108.244 225.239 108.426C225.31 108.607 225.438 108.777 225.626 108.936C225.813 109.094 226.08 109.243 226.426 109.384C226.777 109.519 227.231 109.65 227.788 109.779C228.556 109.949 229.18 110.157 229.66 110.403C230.146 110.644 230.504 110.939 230.732 111.291C230.967 111.643 231.084 112.067 231.084 112.565C231.084 112.952 231.002 113.307 230.838 113.629C230.68 113.945 230.448 114.221 230.144 114.455C229.845 114.684 229.481 114.862 229.054 114.991C228.632 115.114 228.16 115.176 227.639 115.176C226.842 115.176 226.171 115.047 225.626 114.789C225.081 114.531 224.668 114.191 224.387 113.77C224.105 113.348 223.965 112.894 223.965 112.407H224.835C224.87 112.917 225.031 113.318 225.318 113.611C225.611 113.904 225.966 114.112 226.382 114.235C226.804 114.353 227.223 114.411 227.639 114.411C228.201 114.411 228.673 114.326 229.054 114.156C229.44 113.98 229.73 113.755 229.924 113.479C230.123 113.204 230.223 112.911 230.223 112.601ZM234.406 101.5V115H233.536V101.5H234.406ZM234.222 109.586L233.826 109.243C233.867 108.716 233.984 108.215 234.178 107.74C234.371 107.266 234.632 106.847 234.96 106.483C235.288 106.12 235.675 105.836 236.12 105.631C236.565 105.42 237.055 105.314 237.588 105.314C238.062 105.314 238.487 105.379 238.862 105.508C239.237 105.637 239.554 105.842 239.812 106.123C240.075 106.404 240.274 106.768 240.409 107.213C240.55 107.652 240.62 108.188 240.62 108.821V115H239.75V108.812C239.75 108.109 239.65 107.562 239.451 107.169C239.258 106.776 238.985 106.498 238.634 106.334C238.288 106.17 237.878 106.088 237.403 106.088C236.87 106.088 236.407 106.205 236.015 106.439C235.622 106.674 235.294 106.973 235.03 107.336C234.772 107.699 234.576 108.083 234.441 108.487C234.307 108.886 234.233 109.252 234.222 109.586ZM243.406 101.5H244.276V113.154L244.224 115H243.406V101.5ZM250.956 110.157V110.342C250.956 111.057 250.874 111.71 250.71 112.302C250.546 112.888 250.309 113.397 249.998 113.831C249.693 114.259 249.315 114.59 248.864 114.824C248.419 115.059 247.912 115.176 247.344 115.176C246.787 115.176 246.289 115.091 245.85 114.921C245.416 114.751 245.044 114.511 244.733 114.2C244.423 113.89 244.171 113.526 243.978 113.11C243.79 112.694 243.661 112.243 243.591 111.757V108.927C243.679 108.394 243.819 107.907 244.013 107.468C244.212 107.028 244.464 106.647 244.769 106.325C245.079 106.003 245.445 105.754 245.867 105.578C246.295 105.402 246.781 105.314 247.326 105.314C247.9 105.314 248.413 105.429 248.864 105.657C249.315 105.88 249.693 106.202 249.998 106.624C250.309 107.046 250.546 107.556 250.71 108.153C250.874 108.745 250.956 109.413 250.956 110.157ZM250.068 110.342V110.157C250.068 109.577 250.013 109.041 249.901 108.549C249.79 108.057 249.617 107.629 249.383 107.266C249.148 106.896 248.85 106.609 248.486 106.404C248.123 106.199 247.692 106.097 247.194 106.097C246.661 106.097 246.207 106.185 245.832 106.36C245.463 106.536 245.158 106.768 244.918 107.055C244.684 107.336 244.499 107.641 244.364 107.969C244.229 108.297 244.13 108.613 244.065 108.918V111.845C244.165 112.296 244.344 112.715 244.602 113.102C244.859 113.488 245.202 113.802 245.63 114.042C246.063 114.276 246.591 114.394 247.212 114.394C247.704 114.394 248.129 114.291 248.486 114.086C248.85 113.881 249.146 113.597 249.374 113.233C249.608 112.87 249.781 112.442 249.893 111.95C250.01 111.452 250.068 110.916 250.068 110.342ZM252.749 110.403V110.087C252.749 109.396 252.849 108.76 253.048 108.18C253.247 107.594 253.531 107.087 253.9 106.659C254.27 106.231 254.712 105.9 255.228 105.666C255.749 105.432 256.326 105.314 256.959 105.314C257.598 105.314 258.175 105.432 258.69 105.666C259.212 105.9 259.657 106.231 260.026 106.659C260.401 107.087 260.688 107.594 260.888 108.18C261.087 108.76 261.187 109.396 261.187 110.087V110.403C261.187 111.095 261.087 111.733 260.888 112.319C260.688 112.899 260.401 113.403 260.026 113.831C259.657 114.259 259.215 114.59 258.699 114.824C258.184 115.059 257.609 115.176 256.977 115.176C256.338 115.176 255.758 115.059 255.236 114.824C254.721 114.59 254.275 114.259 253.9 113.831C253.531 113.403 253.247 112.899 253.048 112.319C252.849 111.733 252.749 111.095 252.749 110.403ZM253.61 110.087V110.403C253.61 110.937 253.684 111.446 253.83 111.933C253.982 112.413 254.199 112.841 254.48 113.216C254.768 113.585 255.119 113.878 255.535 114.095C255.957 114.306 256.438 114.411 256.977 114.411C257.51 114.411 257.981 114.306 258.392 114.095C258.808 113.878 259.156 113.585 259.438 113.216C259.725 112.841 259.941 112.413 260.088 111.933C260.24 111.446 260.316 110.937 260.316 110.403V110.087C260.316 109.565 260.24 109.064 260.088 108.584C259.941 108.104 259.725 107.676 259.438 107.301C259.15 106.926 258.799 106.63 258.383 106.413C257.967 106.19 257.492 106.079 256.959 106.079C256.426 106.079 255.951 106.19 255.535 106.413C255.119 106.63 254.768 106.926 254.48 107.301C254.193 107.676 253.977 108.104 253.83 108.584C253.684 109.064 253.61 109.565 253.61 110.087ZM269.246 113.269V108.364C269.246 107.89 269.146 107.482 268.947 107.143C268.748 106.797 268.455 106.533 268.068 106.352C267.688 106.164 267.216 106.07 266.653 106.07C266.138 106.07 265.675 106.161 265.265 106.343C264.86 106.524 264.538 106.771 264.298 107.081C264.063 107.392 263.946 107.737 263.946 108.118L263.085 108.101C263.085 107.743 263.17 107.397 263.34 107.063C263.516 106.729 263.762 106.431 264.078 106.167C264.4 105.903 264.781 105.695 265.221 105.543C265.666 105.391 266.155 105.314 266.688 105.314C267.362 105.314 267.954 105.429 268.464 105.657C268.979 105.88 269.384 106.22 269.677 106.677C269.97 107.128 270.116 107.696 270.116 108.382V113.031C270.116 113.359 270.14 113.699 270.187 114.051C270.233 114.402 270.304 114.687 270.397 114.903V115H269.457C269.387 114.783 269.334 114.517 269.299 114.2C269.264 113.878 269.246 113.567 269.246 113.269ZM269.483 109.533L269.501 110.245H267.312C266.744 110.245 266.237 110.298 265.792 110.403C265.353 110.503 264.978 110.649 264.667 110.843C264.362 111.036 264.128 111.271 263.964 111.546C263.8 111.815 263.718 112.12 263.718 112.46C263.718 112.812 263.809 113.134 263.99 113.427C264.172 113.72 264.43 113.954 264.764 114.13C265.104 114.3 265.499 114.385 265.95 114.385C266.56 114.385 267.099 114.276 267.567 114.06C268.042 113.843 268.435 113.553 268.745 113.189C269.056 112.82 269.275 112.407 269.404 111.95L269.782 112.504C269.694 112.803 269.548 113.11 269.343 113.427C269.138 113.737 268.871 114.024 268.543 114.288C268.215 114.552 267.828 114.766 267.383 114.93C266.943 115.094 266.439 115.176 265.871 115.176C265.262 115.176 264.729 115.062 264.271 114.833C263.82 114.599 263.469 114.282 263.217 113.884C262.971 113.479 262.848 113.022 262.848 112.513C262.848 112.062 262.947 111.654 263.146 111.291C263.346 110.922 263.633 110.608 264.008 110.351C264.383 110.087 264.84 109.885 265.379 109.744C265.918 109.604 266.524 109.533 267.198 109.533H269.483ZM273.869 107.09V115H272.999V105.49H273.852L273.869 107.09ZM277.367 105.42L277.332 106.211C277.221 106.193 277.109 106.182 276.998 106.176C276.893 106.164 276.778 106.158 276.655 106.158C276.175 106.158 275.753 106.249 275.39 106.431C275.026 106.612 274.722 106.864 274.476 107.187C274.235 107.509 274.051 107.884 273.922 108.312C273.799 108.733 273.731 109.19 273.72 109.683L273.359 109.788C273.359 109.149 273.424 108.561 273.553 108.021C273.688 107.477 273.893 107.002 274.168 106.598C274.443 106.193 274.789 105.88 275.205 105.657C275.621 105.429 276.113 105.314 276.682 105.314C276.816 105.314 276.945 105.326 277.068 105.35C277.197 105.367 277.297 105.391 277.367 105.42ZM285.119 113.154V101.5H285.989V115H285.163L285.119 113.154ZM278.448 110.342V110.157C278.448 109.413 278.53 108.745 278.694 108.153C278.864 107.556 279.107 107.046 279.424 106.624C279.74 106.202 280.121 105.88 280.566 105.657C281.018 105.429 281.527 105.314 282.096 105.314C282.641 105.314 283.124 105.402 283.546 105.578C283.968 105.754 284.331 106.003 284.636 106.325C284.94 106.647 285.189 107.028 285.383 107.468C285.576 107.907 285.72 108.394 285.813 108.927V111.757C285.743 112.243 285.611 112.694 285.418 113.11C285.23 113.526 284.981 113.89 284.671 114.2C284.366 114.511 283.997 114.751 283.563 114.921C283.13 115.091 282.635 115.176 282.078 115.176C281.516 115.176 281.009 115.059 280.558 114.824C280.112 114.59 279.731 114.259 279.415 113.831C279.104 113.397 278.864 112.888 278.694 112.302C278.53 111.71 278.448 111.057 278.448 110.342ZM279.327 110.157V110.342C279.327 110.916 279.386 111.452 279.503 111.95C279.62 112.442 279.796 112.87 280.03 113.233C280.265 113.597 280.563 113.881 280.927 114.086C281.29 114.291 281.718 114.394 282.21 114.394C282.831 114.394 283.355 114.279 283.783 114.051C284.211 113.816 284.554 113.506 284.812 113.119C285.069 112.732 285.254 112.308 285.365 111.845V108.918C285.295 108.613 285.192 108.297 285.058 107.969C284.923 107.641 284.735 107.336 284.495 107.055C284.255 106.768 283.95 106.536 283.581 106.36C283.212 106.185 282.761 106.097 282.228 106.097C281.729 106.097 281.299 106.199 280.936 106.404C280.572 106.609 280.271 106.896 280.03 107.266C279.796 107.629 279.62 108.057 279.503 108.549C279.386 109.041 279.327 109.577 279.327 110.157ZM294.594 112.601C294.594 112.337 294.523 112.073 294.383 111.81C294.242 111.54 293.981 111.294 293.601 111.071C293.22 110.843 292.663 110.652 291.931 110.5C291.403 110.383 290.935 110.254 290.524 110.113C290.114 109.967 289.769 109.791 289.487 109.586C289.212 109.381 289.001 109.138 288.854 108.856C288.714 108.569 288.644 108.232 288.644 107.846C288.644 107.494 288.72 107.166 288.872 106.861C289.024 106.557 289.244 106.29 289.531 106.062C289.818 105.827 290.164 105.646 290.568 105.517C290.979 105.382 291.438 105.314 291.948 105.314C292.675 105.314 293.296 105.438 293.812 105.684C294.327 105.924 294.723 106.255 294.998 106.677C295.279 107.099 295.42 107.579 295.42 108.118H294.55C294.55 107.767 294.447 107.438 294.242 107.134C294.043 106.823 293.75 106.571 293.363 106.378C292.977 106.179 292.505 106.079 291.948 106.079C291.368 106.079 290.899 106.167 290.542 106.343C290.185 106.519 289.924 106.738 289.76 107.002C289.596 107.266 289.514 107.538 289.514 107.819C289.514 108.042 289.546 108.244 289.61 108.426C289.681 108.607 289.81 108.777 289.997 108.936C290.185 109.094 290.451 109.243 290.797 109.384C291.148 109.519 291.603 109.65 292.159 109.779C292.927 109.949 293.551 110.157 294.031 110.403C294.518 110.644 294.875 110.939 295.104 111.291C295.338 111.643 295.455 112.067 295.455 112.565C295.455 112.952 295.373 113.307 295.209 113.629C295.051 113.945 294.819 114.221 294.515 114.455C294.216 114.684 293.853 114.862 293.425 114.991C293.003 115.114 292.531 115.176 292.01 115.176C291.213 115.176 290.542 115.047 289.997 114.789C289.452 114.531 289.039 114.191 288.758 113.77C288.477 113.348 288.336 112.894 288.336 112.407H289.206C289.241 112.917 289.402 113.318 289.689 113.611C289.982 113.904 290.337 114.112 290.753 114.235C291.175 114.353 291.594 114.411 292.01 114.411C292.572 114.411 293.044 114.326 293.425 114.156C293.812 113.98 294.102 113.755 294.295 113.479C294.494 113.204 294.594 112.911 294.594 112.601ZM308.111 113.269V108.364C308.111 107.89 308.012 107.482 307.812 107.143C307.613 106.797 307.32 106.533 306.934 106.352C306.553 106.164 306.081 106.07 305.519 106.07C305.003 106.07 304.54 106.161 304.13 106.343C303.726 106.524 303.403 106.771 303.163 107.081C302.929 107.392 302.812 107.737 302.812 108.118L301.95 108.101C301.95 107.743 302.035 107.397 302.205 107.063C302.381 106.729 302.627 106.431 302.943 106.167C303.266 105.903 303.646 105.695 304.086 105.543C304.531 105.391 305.021 105.314 305.554 105.314C306.228 105.314 306.819 105.429 307.329 105.657C307.845 105.88 308.249 106.22 308.542 106.677C308.835 107.128 308.981 107.696 308.981 108.382V113.031C308.981 113.359 309.005 113.699 309.052 114.051C309.099 114.402 309.169 114.687 309.263 114.903V115H308.322C308.252 114.783 308.199 114.517 308.164 114.2C308.129 113.878 308.111 113.567 308.111 113.269ZM308.349 109.533L308.366 110.245H306.178C305.609 110.245 305.103 110.298 304.657 110.403C304.218 110.503 303.843 110.649 303.532 110.843C303.228 111.036 302.993 111.271 302.829 111.546C302.665 111.815 302.583 112.12 302.583 112.46C302.583 112.812 302.674 113.134 302.855 113.427C303.037 113.72 303.295 113.954 303.629 114.13C303.969 114.3 304.364 114.385 304.815 114.385C305.425 114.385 305.964 114.276 306.433 114.06C306.907 113.843 307.3 113.553 307.61 113.189C307.921 112.82 308.141 112.407 308.27 111.95L308.647 112.504C308.56 112.803 308.413 113.11 308.208 113.427C308.003 113.737 307.736 114.024 307.408 114.288C307.08 114.552 306.693 114.766 306.248 114.93C305.809 115.094 305.305 115.176 304.736 115.176C304.127 115.176 303.594 115.062 303.137 114.833C302.686 114.599 302.334 114.282 302.082 113.884C301.836 113.479 301.713 113.022 301.713 112.513C301.713 112.062 301.812 111.654 302.012 111.291C302.211 110.922 302.498 110.608 302.873 110.351C303.248 110.087 303.705 109.885 304.244 109.744C304.783 109.604 305.39 109.533 306.063 109.533H308.349ZM312.734 107.521V115H311.864V105.49H312.708L312.734 107.521ZM312.55 109.586L312.154 109.243C312.195 108.716 312.312 108.215 312.506 107.74C312.699 107.266 312.96 106.847 313.288 106.483C313.616 106.12 314.003 105.836 314.448 105.631C314.894 105.42 315.383 105.314 315.916 105.314C316.391 105.314 316.815 105.379 317.19 105.508C317.565 105.637 317.882 105.842 318.14 106.123C318.403 106.404 318.603 106.768 318.737 107.213C318.878 107.652 318.948 108.188 318.948 108.821V115H318.078V108.812C318.078 108.109 317.979 107.562 317.779 107.169C317.586 106.776 317.313 106.498 316.962 106.334C316.616 106.17 316.206 106.088 315.731 106.088C315.198 106.088 314.735 106.205 314.343 106.439C313.95 106.674 313.622 106.973 313.358 107.336C313.101 107.699 312.904 108.083 312.77 108.487C312.635 108.886 312.562 109.252 312.55 109.586ZM327.992 113.154V101.5H328.862V115H328.036L327.992 113.154ZM321.321 110.342V110.157C321.321 109.413 321.403 108.745 321.567 108.153C321.737 107.556 321.98 107.046 322.297 106.624C322.613 106.202 322.994 105.88 323.439 105.657C323.891 105.429 324.4 105.314 324.969 105.314C325.514 105.314 325.997 105.402 326.419 105.578C326.841 105.754 327.204 106.003 327.509 106.325C327.813 106.647 328.062 107.028 328.256 107.468C328.449 107.907 328.593 108.394 328.687 108.927V111.757C328.616 112.243 328.484 112.694 328.291 113.11C328.104 113.526 327.854 113.89 327.544 114.2C327.239 114.511 326.87 114.751 326.437 114.921C326.003 115.091 325.508 115.176 324.951 115.176C324.389 115.176 323.882 115.059 323.431 114.824C322.985 114.59 322.604 114.259 322.288 113.831C321.978 113.397 321.737 112.888 321.567 112.302C321.403 111.71 321.321 111.057 321.321 110.342ZM322.2 110.157V110.342C322.2 110.916 322.259 111.452 322.376 111.95C322.493 112.442 322.669 112.87 322.903 113.233C323.138 113.597 323.437 113.881 323.8 114.086C324.163 114.291 324.591 114.394 325.083 114.394C325.704 114.394 326.229 114.279 326.656 114.051C327.084 113.816 327.427 113.506 327.685 113.119C327.942 112.732 328.127 112.308 328.238 111.845V108.918C328.168 108.613 328.065 108.297 327.931 107.969C327.796 107.641 327.608 107.336 327.368 107.055C327.128 106.768 326.823 106.536 326.454 106.36C326.085 106.185 325.634 106.097 325.101 106.097C324.603 106.097 324.172 106.199 323.809 106.404C323.445 106.609 323.144 106.896 322.903 107.266C322.669 107.629 322.493 108.057 322.376 108.549C322.259 109.041 322.2 109.577 322.2 110.157ZM337.212 102.203V115H336.315V102.203H337.212ZM345.184 102.203L339.603 108.03L336.887 110.649L336.834 109.63L339.066 107.362L344.041 102.203H345.184ZM344.516 115L338.926 108.329L339.462 107.591L345.605 115H344.516ZM351.951 109.727H348.225V108.944H351.951C352.748 108.944 353.393 108.815 353.885 108.558C354.383 108.294 354.746 107.942 354.975 107.503C355.203 107.058 355.317 106.56 355.317 106.009C355.317 105.464 355.203 104.963 354.975 104.506C354.746 104.049 354.383 103.683 353.885 103.407C353.393 103.126 352.748 102.985 351.951 102.985H348.603V115H347.706V102.203H351.951C352.883 102.203 353.662 102.364 354.289 102.687C354.922 103.003 355.399 103.445 355.722 104.014C356.044 104.582 356.205 105.241 356.205 105.991C356.205 106.771 356.044 107.438 355.722 107.995C355.405 108.552 354.931 108.979 354.298 109.278C353.665 109.577 352.883 109.727 351.951 109.727ZM359.879 102.203V115H358.991V102.203H359.879ZM368.457 107.09V115H367.587V105.49H368.439L368.457 107.09ZM371.955 105.42L371.92 106.211C371.809 106.193 371.697 106.182 371.586 106.176C371.48 106.164 371.366 106.158 371.243 106.158C370.763 106.158 370.341 106.249 369.978 106.431C369.614 106.612 369.31 106.864 369.063 107.187C368.823 107.509 368.639 107.884 368.51 108.312C368.387 108.733 368.319 109.19 368.308 109.683L367.947 109.788C367.947 109.149 368.012 108.561 368.141 108.021C368.275 107.477 368.48 107.002 368.756 106.598C369.031 106.193 369.377 105.88 369.793 105.657C370.209 105.429 370.701 105.314 371.27 105.314C371.404 105.314 371.533 105.326 371.656 105.35C371.785 105.367 371.885 105.391 371.955 105.42ZM377.062 115.176C376.452 115.176 375.89 115.062 375.374 114.833C374.858 114.604 374.41 114.282 374.029 113.866C373.648 113.444 373.353 112.949 373.142 112.381C372.931 111.807 372.825 111.177 372.825 110.491V110.113C372.825 109.387 372.931 108.73 373.142 108.145C373.358 107.559 373.654 107.055 374.029 106.633C374.41 106.205 374.844 105.88 375.33 105.657C375.816 105.429 376.332 105.314 376.877 105.314C377.451 105.314 377.967 105.42 378.424 105.631C378.887 105.836 379.279 106.129 379.602 106.51C379.924 106.891 380.167 107.342 380.331 107.863C380.501 108.379 380.586 108.95 380.586 109.577V110.192H373.361V109.428H379.716V109.313C379.71 108.745 379.596 108.218 379.373 107.731C379.156 107.239 378.837 106.841 378.415 106.536C377.999 106.231 377.486 106.079 376.877 106.079C376.402 106.079 375.969 106.182 375.576 106.387C375.189 106.586 374.855 106.867 374.574 107.23C374.293 107.588 374.076 108.013 373.924 108.505C373.771 108.991 373.695 109.527 373.695 110.113V110.491C373.695 111.036 373.777 111.546 373.941 112.021C374.111 112.495 374.346 112.911 374.645 113.269C374.949 113.626 375.31 113.907 375.726 114.112C376.142 114.317 376.596 114.42 377.088 114.42C377.645 114.42 378.146 114.32 378.591 114.121C379.036 113.916 379.44 113.579 379.804 113.11L380.357 113.532C380.152 113.837 379.897 114.115 379.593 114.367C379.288 114.613 378.928 114.81 378.512 114.956C378.096 115.103 377.612 115.176 377.062 115.176ZM383.548 107.318V118.656H382.678V105.49H383.495L383.548 107.318ZM390.219 110.157V110.342C390.219 111.057 390.137 111.71 389.973 112.302C389.814 112.888 389.58 113.397 389.27 113.831C388.965 114.259 388.587 114.59 388.136 114.824C387.69 115.059 387.181 115.176 386.606 115.176C386.05 115.176 385.552 115.094 385.112 114.93C384.673 114.76 384.295 114.522 383.979 114.218C383.662 113.907 383.407 113.547 383.214 113.137C383.021 112.727 382.889 112.284 382.818 111.81V108.927C382.912 108.394 383.059 107.907 383.258 107.468C383.457 107.028 383.712 106.647 384.022 106.325C384.333 106.003 384.702 105.754 385.13 105.578C385.558 105.402 386.044 105.314 386.589 105.314C387.163 105.314 387.676 105.429 388.127 105.657C388.578 105.88 388.959 106.202 389.27 106.624C389.58 107.046 389.814 107.556 389.973 108.153C390.137 108.745 390.219 109.413 390.219 110.157ZM389.34 110.342V110.157C389.34 109.577 389.281 109.041 389.164 108.549C389.047 108.057 388.868 107.629 388.628 107.266C388.394 106.896 388.092 106.609 387.723 106.404C387.359 106.199 386.929 106.097 386.431 106.097C385.897 106.097 385.443 106.185 385.068 106.36C384.699 106.536 384.395 106.768 384.154 107.055C383.92 107.336 383.732 107.641 383.592 107.969C383.457 108.297 383.357 108.613 383.293 108.918V111.889C383.404 112.346 383.589 112.765 383.847 113.146C384.104 113.526 384.447 113.834 384.875 114.068C385.309 114.297 385.833 114.411 386.448 114.411C386.94 114.411 387.368 114.309 387.731 114.104C388.095 113.893 388.394 113.605 388.628 113.242C388.868 112.873 389.047 112.442 389.164 111.95C389.281 111.452 389.34 110.916 389.34 110.342ZM392.021 110.403V110.087C392.021 109.396 392.12 108.76 392.319 108.18C392.519 107.594 392.803 107.087 393.172 106.659C393.541 106.231 393.983 105.9 394.499 105.666C395.021 105.432 395.598 105.314 396.23 105.314C396.869 105.314 397.446 105.432 397.962 105.666C398.483 105.9 398.929 106.231 399.298 106.659C399.673 107.087 399.96 107.594 400.159 108.18C400.358 108.76 400.458 109.396 400.458 110.087V110.403C400.458 111.095 400.358 111.733 400.159 112.319C399.96 112.899 399.673 113.403 399.298 113.831C398.929 114.259 398.486 114.59 397.971 114.824C397.455 115.059 396.881 115.176 396.248 115.176C395.609 115.176 395.029 115.059 394.508 114.824C393.992 114.59 393.547 114.259 393.172 113.831C392.803 113.403 392.519 112.899 392.319 112.319C392.12 111.733 392.021 111.095 392.021 110.403ZM392.882 110.087V110.403C392.882 110.937 392.955 111.446 393.102 111.933C393.254 112.413 393.471 112.841 393.752 113.216C394.039 113.585 394.391 113.878 394.807 114.095C395.229 114.306 395.709 114.411 396.248 114.411C396.781 114.411 397.253 114.306 397.663 114.095C398.079 113.878 398.428 113.585 398.709 113.216C398.996 112.841 399.213 112.413 399.359 111.933C399.512 111.446 399.588 110.937 399.588 110.403V110.087C399.588 109.565 399.512 109.064 399.359 108.584C399.213 108.104 398.996 107.676 398.709 107.301C398.422 106.926 398.07 106.63 397.654 106.413C397.238 106.19 396.764 106.079 396.23 106.079C395.697 106.079 395.223 106.19 394.807 106.413C394.391 106.63 394.039 106.926 393.752 107.301C393.465 107.676 393.248 108.104 393.102 108.584C392.955 109.064 392.882 109.565 392.882 110.087ZM403.543 107.09V115H402.673V105.49H403.525L403.543 107.09ZM407.041 105.42L407.006 106.211C406.895 106.193 406.783 106.182 406.672 106.176C406.566 106.164 406.452 106.158 406.329 106.158C405.849 106.158 405.427 106.249 405.063 106.431C404.7 106.612 404.396 106.864 404.149 107.187C403.909 107.509 403.725 107.884 403.596 108.312C403.473 108.733 403.405 109.19 403.394 109.683L403.033 109.788C403.033 109.149 403.098 108.561 403.227 108.021C403.361 107.477 403.566 107.002 403.842 106.598C404.117 106.193 404.463 105.88 404.879 105.657C405.295 105.429 405.787 105.314 406.355 105.314C406.49 105.314 406.619 105.326 406.742 105.35C406.871 105.367 406.971 105.391 407.041 105.42ZM412.648 105.49V106.237H407.99V105.49H412.648ZM409.739 103.012H410.618V112.697C410.618 113.172 410.677 113.532 410.794 113.778C410.917 114.019 411.078 114.18 411.277 114.262C411.477 114.344 411.69 114.385 411.919 114.385C412.083 114.385 412.235 114.376 412.376 114.358C412.522 114.341 412.663 114.32 412.798 114.297L412.851 115.044C412.722 115.085 412.555 115.117 412.35 115.141C412.145 115.164 411.951 115.176 411.77 115.176C411.365 115.176 411.011 115.103 410.706 114.956C410.401 114.804 410.164 114.549 409.994 114.191C409.824 113.828 409.739 113.33 409.739 112.697V103.012ZM420.682 112.601C420.682 112.337 420.611 112.073 420.471 111.81C420.33 111.54 420.069 111.294 419.688 111.071C419.308 110.843 418.751 110.652 418.019 110.5C417.491 110.383 417.022 110.254 416.612 110.113C416.202 109.967 415.856 109.791 415.575 109.586C415.3 109.381 415.089 109.138 414.942 108.856C414.802 108.569 414.731 108.232 414.731 107.846C414.731 107.494 414.808 107.166 414.96 106.861C415.112 106.557 415.332 106.29 415.619 106.062C415.906 105.827 416.252 105.646 416.656 105.517C417.066 105.382 417.526 105.314 418.036 105.314C418.763 105.314 419.384 105.438 419.899 105.684C420.415 105.924 420.811 106.255 421.086 106.677C421.367 107.099 421.508 107.579 421.508 108.118H420.638C420.638 107.767 420.535 107.438 420.33 107.134C420.131 106.823 419.838 106.571 419.451 106.378C419.064 106.179 418.593 106.079 418.036 106.079C417.456 106.079 416.987 106.167 416.63 106.343C416.272 106.519 416.012 106.738 415.848 107.002C415.684 107.266 415.602 107.538 415.602 107.819C415.602 108.042 415.634 108.244 415.698 108.426C415.769 108.607 415.897 108.777 416.085 108.936C416.272 109.094 416.539 109.243 416.885 109.384C417.236 109.519 417.69 109.65 418.247 109.779C419.015 109.949 419.639 110.157 420.119 110.403C420.605 110.644 420.963 110.939 421.191 111.291C421.426 111.643 421.543 112.067 421.543 112.565C421.543 112.952 421.461 113.307 421.297 113.629C421.139 113.945 420.907 114.221 420.603 114.455C420.304 114.684 419.94 114.862 419.513 114.991C419.091 115.114 418.619 115.176 418.098 115.176C417.301 115.176 416.63 115.047 416.085 114.789C415.54 114.531 415.127 114.191 414.846 113.77C414.564 113.348 414.424 112.894 414.424 112.407H415.294C415.329 112.917 415.49 113.318 415.777 113.611C416.07 113.904 416.425 114.112 416.841 114.235C417.263 114.353 417.682 114.411 418.098 114.411C418.66 114.411 419.132 114.326 419.513 114.156C419.899 113.98 420.189 113.755 420.383 113.479C420.582 113.204 420.682 112.911 420.682 112.601Z" fill="white"/>
<mask id="path-7-outside-1_395_873" maskUnits="userSpaceOnUse" x="0" y="48" width="63" height="82" fill="black">
<rect fill="white" y="48" width="63" height="82"/>
<path d="M57.5254 97.2168V109.912H6.35352L5.37695 99.8535L33.9414 53.9062H46.9297L32.8184 77.002L21.0996 97.2168H57.5254ZM50.3477 53.9062V125H33.8926V53.9062H50.3477Z"/>
</mask>
<path d="M57.5254 97.2168H62.5254V92.2168H57.5254V97.2168ZM57.5254 109.912V114.912H62.5254V109.912H57.5254ZM6.35352 109.912L1.37692 110.395L1.81544 114.912H6.35352V109.912ZM5.37695 99.8535L1.13064 97.2137L0.236746 98.6515L0.400353 100.337L5.37695 99.8535ZM33.9414 53.9062V48.9062H31.1623L29.6951 51.2664L33.9414 53.9062ZM46.9297 53.9062L51.1963 56.5131L55.8441 48.9062H46.9297V53.9062ZM32.8184 77.002L28.5517 74.3951L28.5216 74.4443L28.4927 74.4943L32.8184 77.002ZM21.0996 97.2168L16.7739 94.7091L12.4216 102.217H21.0996V97.2168ZM50.3477 53.9062H55.3477V48.9062H50.3477V53.9062ZM50.3477 125V130H55.3477V125H50.3477ZM33.8926 125H28.8926V130H33.8926V125ZM33.8926 53.9062V48.9062H28.8926V53.9062H33.8926ZM57.5254 97.2168H52.5254V109.912H57.5254H62.5254V97.2168H57.5254ZM57.5254 109.912V104.912H6.35352V109.912V114.912H57.5254V109.912ZM6.35352 109.912L11.3301 109.429L10.3536 99.3703L5.37695 99.8535L0.400353 100.337L1.37692 110.395L6.35352 109.912ZM5.37695 99.8535L9.62327 102.493L38.1877 56.5461L33.9414 53.9062L29.6951 51.2664L1.13064 97.2137L5.37695 99.8535ZM33.9414 53.9062V58.9062H46.9297V53.9062V48.9062H33.9414V53.9062ZM46.9297 53.9062L42.6631 51.2994L28.5517 74.3951L32.8184 77.002L37.085 79.6088L51.1963 56.5131L46.9297 53.9062ZM32.8184 77.002L28.4927 74.4943L16.7739 94.7091L21.0996 97.2168L25.4253 99.7244L37.1441 79.5096L32.8184 77.002ZM21.0996 97.2168V102.217H57.5254V97.2168V92.2168H21.0996V97.2168ZM50.3477 53.9062H45.3477V125H50.3477H55.3477V53.9062H50.3477ZM50.3477 125V120H33.8926V125V130H50.3477V125ZM33.8926 125H38.8926V53.9062H33.8926H28.8926V125H33.8926ZM33.8926 53.9062V58.9062H50.3477V53.9062V48.9062H33.8926V53.9062Z" fill="#1A5069" mask="url(#path-7-outside-1_395_873)"/>
<defs>
<radialGradient id="paint0_radial_395_873" cx="0" cy="0" r="1" gradientUnits="userSpaceOnUse" gradientTransform="translate(96.2628 221.995) scale(96.2628 221.995)">
<stop stop-color="#1A5069"/>
<stop offset="1" stop-color="#0F7BAE" stop-opacity="0"/>
</radialGradient>
<radialGradient id="paint1_radial_395_873" cx="0" cy="0" r="1" gradientUnits="userSpaceOnUse" gradientTransform="translate(96.2628 221.995) scale(96.2628 221.995)">
<stop stop-color="#1A5069"/>
<stop offset="1" stop-color="#0F7BAE" stop-opacity="0"/>
</radialGradient>
</defs>
</svg>
