<svg width="541" height="180" viewBox="0 0 541 180" fill="none" xmlns="http://www.w3.org/2000/svg">
<mask id="mask0_395_840" style="mask-type:alpha" maskUnits="userSpaceOnUse" x="68" y="0" width="439" height="179">
<rect x="-1.00093" y="0.991997" width="174.036" height="436.409" rx="87.0179" transform="matrix(-0.000966365 1 -0.999968 -0.00800285 506.555 5.50966)" fill="black" stroke="#136A93" stroke-width="2"/>
</mask>
<g mask="url(#mask0_395_840)">
<rect width="192.526" height="443.99" rx="47.5" transform="matrix(-0.000966365 1 -0.999968 -0.00800285 672.686 68.4424)" fill="url(#paint0_radial_395_840)" fill-opacity="0.74"/>
<rect width="192.526" height="443.99" rx="47.5" transform="matrix(-0.000966365 1 -0.999968 -0.00800285 346.023 -57.9541)" fill="url(#paint1_radial_395_840)" fill-opacity="0.74"/>
</g>
<rect x="70.3828" y="1.54688" width="435.608" height="175.235" rx="87.6177" fill="#D9D9D9" fill-opacity="0.14" stroke="#136A93" stroke-width="2"/>
<path d="M219.97 79H214.604L214.638 75.3086H219.97C221.417 75.3086 222.63 74.9896 223.61 74.3516C224.59 73.7021 225.33 72.7736 225.832 71.5659C226.333 70.3468 226.583 68.8885 226.583 67.1909V65.9092C226.583 64.599 226.441 63.4425 226.156 62.4399C225.871 61.4373 225.45 60.5942 224.892 59.9106C224.345 59.2271 223.667 58.7087 222.858 58.3555C222.049 58.0023 221.12 57.8257 220.072 57.8257H214.501V54.1172H220.072C221.736 54.1172 223.251 54.3963 224.618 54.9546C225.997 55.5129 227.187 56.3161 228.19 57.3643C229.204 58.401 229.979 59.6429 230.514 61.0898C231.061 62.5368 231.334 64.1546 231.334 65.9434V67.1909C231.334 68.9683 231.061 70.5861 230.514 72.0444C229.979 73.4914 229.204 74.7332 228.19 75.77C227.187 76.8068 225.991 77.6043 224.601 78.1626C223.211 78.7209 221.667 79 219.97 79ZM217.235 54.1172V79H212.536V54.1172H217.235ZM239.527 60.5088V79H234.998V60.5088H239.527ZM234.69 55.6724C234.69 55.0002 234.918 54.4419 235.374 53.9976C235.841 53.5532 236.468 53.3311 237.254 53.3311C238.04 53.3311 238.661 53.5532 239.117 53.9976C239.584 54.4419 239.817 55.0002 239.817 55.6724C239.817 56.3332 239.584 56.8857 239.117 57.3301C238.661 57.7744 238.04 57.9966 237.254 57.9966C236.468 57.9966 235.841 57.7744 235.374 57.3301C234.918 56.8857 234.69 56.3332 234.69 55.6724ZM253.752 73.9414C253.752 73.554 253.649 73.2065 253.444 72.8989C253.239 72.5913 252.852 72.3122 252.282 72.0615C251.724 71.7995 250.904 71.5545 249.821 71.3267C248.864 71.1216 247.981 70.8652 247.172 70.5576C246.363 70.25 245.668 69.8797 245.087 69.4468C244.506 69.0024 244.051 68.484 243.72 67.8916C243.401 67.2878 243.242 66.5928 243.242 65.8066C243.242 65.0433 243.407 64.3255 243.737 63.6533C244.068 62.9697 244.546 62.3716 245.173 61.8589C245.799 61.3348 246.563 60.9246 247.463 60.6284C248.363 60.3208 249.377 60.167 250.505 60.167C252.077 60.167 253.427 60.4233 254.555 60.936C255.694 61.4487 256.566 62.1551 257.17 63.0552C257.774 63.9438 258.076 64.9465 258.076 66.063H253.564C253.564 65.5731 253.45 65.1287 253.222 64.73C253.006 64.3312 252.67 64.0122 252.214 63.7729C251.758 63.5223 251.183 63.397 250.488 63.397C249.861 63.397 249.331 63.4995 248.898 63.7046C248.477 63.9097 248.158 64.1774 247.941 64.5078C247.725 64.8382 247.617 65.2028 247.617 65.6016C247.617 65.8978 247.674 66.1655 247.788 66.4048C247.913 66.6326 248.112 66.8434 248.386 67.0371C248.659 67.2308 249.029 67.4074 249.497 67.5669C249.975 67.7264 250.562 67.8802 251.257 68.0283C252.635 68.3018 253.837 68.6663 254.863 69.1221C255.9 69.5664 256.708 70.1589 257.29 70.8994C257.871 71.64 258.161 72.5856 258.161 73.7363C258.161 74.5566 257.985 75.3086 257.631 75.9922C257.278 76.6644 256.765 77.2511 256.093 77.7524C255.421 78.2537 254.618 78.6468 253.684 78.9316C252.749 79.2051 251.695 79.3418 250.522 79.3418C248.824 79.3418 247.389 79.0399 246.215 78.436C245.042 77.8208 244.153 77.0461 243.549 76.1118C242.945 75.1662 242.644 74.1864 242.644 73.1724H246.967C247.001 73.8901 247.195 74.4655 247.548 74.8984C247.902 75.3314 248.346 75.6447 248.881 75.8384C249.428 76.0207 250.004 76.1118 250.607 76.1118C251.291 76.1118 251.866 76.0207 252.333 75.8384C252.801 75.6447 253.154 75.3883 253.393 75.0693C253.632 74.7389 253.752 74.363 253.752 73.9414ZM268.934 75.7871C269.572 75.7871 270.142 75.6618 270.643 75.4111C271.144 75.1605 271.543 74.8073 271.839 74.3516C272.147 73.8958 272.312 73.366 272.335 72.7622H276.59C276.568 74.0155 276.214 75.1377 275.531 76.1289C274.847 77.1201 273.936 77.9062 272.796 78.4873C271.668 79.057 270.404 79.3418 269.002 79.3418C267.578 79.3418 266.336 79.1025 265.277 78.624C264.217 78.1455 263.334 77.479 262.628 76.6245C261.933 75.77 261.409 74.7788 261.056 73.6509C260.714 72.5229 260.543 71.3153 260.543 70.0278V69.481C260.543 68.1935 260.714 66.9858 261.056 65.8579C261.409 64.73 261.933 63.7388 262.628 62.8843C263.334 62.0298 264.217 61.3633 265.277 60.8848C266.336 60.4062 267.573 60.167 268.985 60.167C270.478 60.167 271.788 60.4575 272.916 61.0386C274.055 61.6196 274.944 62.4399 275.582 63.4995C276.231 64.5591 276.568 65.8066 276.59 67.2422H272.335C272.312 66.5814 272.164 65.9889 271.891 65.4648C271.617 64.9408 271.23 64.5192 270.729 64.2002C270.227 63.8812 269.618 63.7217 268.9 63.7217C268.137 63.7217 267.499 63.8812 266.986 64.2002C266.485 64.5192 266.091 64.9578 265.807 65.5161C265.533 66.063 265.34 66.6782 265.226 67.3618C265.123 68.034 265.072 68.7404 265.072 69.481V70.0278C265.072 70.7798 265.123 71.4976 265.226 72.1812C265.34 72.8647 265.533 73.48 265.807 74.0269C266.091 74.5623 266.485 74.9896 266.986 75.3086C267.499 75.6276 268.148 75.7871 268.934 75.7871ZM278.545 69.9424V69.5835C278.545 68.2277 278.739 66.9801 279.126 65.8408C279.513 64.6901 280.077 63.6932 280.818 62.8501C281.558 62.007 282.464 61.3519 283.535 60.8848C284.606 60.4062 285.825 60.167 287.192 60.167C288.582 60.167 289.813 60.4062 290.884 60.8848C291.966 61.3519 292.878 62.007 293.618 62.8501C294.359 63.6932 294.923 64.6901 295.31 65.8408C295.697 66.9801 295.891 68.2277 295.891 69.5835V69.9424C295.891 71.2868 295.697 72.5343 295.31 73.6851C294.923 74.8244 294.359 75.8213 293.618 76.6758C292.878 77.5189 291.972 78.174 290.901 78.6411C289.83 79.1082 288.605 79.3418 287.227 79.3418C285.859 79.3418 284.635 79.1082 283.552 78.6411C282.47 78.174 281.558 77.5189 280.818 76.6758C280.077 75.8213 279.513 74.8244 279.126 73.6851C278.739 72.5343 278.545 71.2868 278.545 69.9424ZM283.057 69.5835V69.9424C283.057 70.7513 283.136 71.509 283.296 72.2153C283.455 72.9217 283.7 73.5426 284.031 74.0781C284.361 74.6136 284.788 75.0352 285.312 75.3428C285.848 75.639 286.486 75.7871 287.227 75.7871C287.956 75.7871 288.582 75.639 289.106 75.3428C289.631 75.0352 290.058 74.6136 290.388 74.0781C290.73 73.5426 290.981 72.9217 291.14 72.2153C291.3 71.509 291.379 70.7513 291.379 69.9424V69.5835C291.379 68.786 291.3 68.0397 291.14 67.3447C290.981 66.6383 290.73 66.0174 290.388 65.4819C290.058 64.9351 289.625 64.5078 289.089 64.2002C288.565 63.8812 287.933 63.7217 287.192 63.7217C286.463 63.7217 285.837 63.8812 285.312 64.2002C284.788 64.5078 284.361 64.9351 284.031 65.4819C283.7 66.0174 283.455 66.6383 283.296 67.3447C283.136 68.0397 283.057 68.786 283.057 69.5835ZM304.784 75.582L309.091 60.5088H313.808L307.467 79H304.596L304.784 75.582ZM301.64 60.5088L305.998 75.6162L306.151 79H303.263L296.906 60.5088H301.64ZM324 79.3418C322.598 79.3418 321.339 79.1139 320.223 78.6582C319.106 78.2025 318.155 77.5701 317.369 76.7612C316.594 75.9409 315.996 74.9896 315.574 73.9072C315.164 72.8135 314.959 71.64 314.959 70.3867V69.7031C314.959 68.279 315.164 66.9858 315.574 65.8237C315.984 64.6502 316.565 63.6419 317.317 62.7988C318.069 61.9557 318.969 61.3063 320.018 60.8506C321.066 60.3949 322.222 60.167 323.487 60.167C324.797 60.167 325.953 60.3892 326.956 60.8335C327.959 61.2664 328.796 61.8817 329.468 62.6792C330.14 63.4767 330.647 64.4338 330.989 65.5503C331.331 66.6554 331.502 67.8802 331.502 69.2246V71.1216H317.01V68.0112H327.059V67.6694C327.036 66.9517 326.899 66.2965 326.648 65.7041C326.398 65.1003 326.01 64.6217 325.486 64.2686C324.962 63.904 324.284 63.7217 323.453 63.7217C322.78 63.7217 322.194 63.8698 321.692 64.166C321.202 64.4508 320.792 64.861 320.462 65.3965C320.143 65.9206 319.904 66.5472 319.744 67.2764C319.585 68.0055 319.505 68.8145 319.505 69.7031V70.3867C319.505 71.1615 319.607 71.8792 319.812 72.54C320.029 73.2008 320.342 73.7762 320.752 74.2661C321.174 74.7446 321.675 75.1206 322.256 75.394C322.849 75.6561 323.521 75.7871 324.273 75.7871C325.219 75.7871 326.073 75.6048 326.836 75.2402C327.611 74.8643 328.283 74.3117 328.853 73.5825L331.126 75.9409C330.739 76.5106 330.215 77.0575 329.554 77.5815C328.904 78.1056 328.118 78.5329 327.195 78.8633C326.272 79.1823 325.207 79.3418 324 79.3418ZM338.789 64.2856V79H334.277V60.5088H338.549L338.789 64.2856ZM344.411 60.3892L344.343 64.5933C344.092 64.5477 343.807 64.5135 343.488 64.4907C343.181 64.4679 342.89 64.4565 342.617 64.4565C341.922 64.4565 341.312 64.5534 340.788 64.7471C340.264 64.9294 339.825 65.1971 339.472 65.5503C339.13 65.9035 338.868 66.3364 338.686 66.8491C338.504 67.3504 338.401 67.9201 338.378 68.5581L337.404 68.4385C337.404 67.265 337.524 66.1769 337.763 65.1743C338.002 64.1717 338.35 63.2944 338.806 62.5425C339.261 61.7905 339.831 61.2095 340.515 60.7993C341.21 60.3778 342.007 60.167 342.907 60.167C343.158 60.167 343.426 60.1898 343.71 60.2354C344.007 60.2695 344.24 60.3208 344.411 60.3892Z" fill="#EDD5B1"/>
<path d="M178.633 115H175.671L175.688 114.218H178.633C179.553 114.218 180.355 114.007 181.041 113.585C181.727 113.163 182.26 112.58 182.641 111.836C183.021 111.092 183.212 110.23 183.212 109.252V107.934C183.212 107.195 183.101 106.524 182.878 105.921C182.661 105.312 182.351 104.79 181.946 104.356C181.548 103.917 181.07 103.58 180.514 103.346C179.963 103.105 179.354 102.985 178.686 102.985H175.618V102.203H178.686C179.471 102.203 180.191 102.341 180.848 102.616C181.51 102.886 182.084 103.275 182.57 103.785C183.057 104.289 183.432 104.896 183.695 105.604C183.959 106.308 184.091 107.093 184.091 107.96V109.252C184.091 110.113 183.959 110.898 183.695 111.607C183.432 112.311 183.054 112.917 182.562 113.427C182.075 113.931 181.498 114.32 180.83 114.596C180.168 114.865 179.436 115 178.633 115ZM176.014 102.203V115H175.117V102.203H176.014ZM192.511 113.269V108.364C192.511 107.89 192.411 107.482 192.212 107.143C192.013 106.797 191.72 106.533 191.333 106.352C190.952 106.164 190.48 106.07 189.918 106.07C189.402 106.07 188.939 106.161 188.529 106.343C188.125 106.524 187.803 106.771 187.562 107.081C187.328 107.392 187.211 107.737 187.211 108.118L186.35 108.101C186.35 107.743 186.435 107.397 186.604 107.063C186.78 106.729 187.026 106.431 187.343 106.167C187.665 105.903 188.046 105.695 188.485 105.543C188.931 105.391 189.42 105.314 189.953 105.314C190.627 105.314 191.219 105.429 191.729 105.657C192.244 105.88 192.648 106.22 192.941 106.677C193.234 107.128 193.381 107.696 193.381 108.382V113.031C193.381 113.359 193.404 113.699 193.451 114.051C193.498 114.402 193.568 114.687 193.662 114.903V115H192.722C192.651 114.783 192.599 114.517 192.563 114.2C192.528 113.878 192.511 113.567 192.511 113.269ZM192.748 109.533L192.766 110.245H190.577C190.009 110.245 189.502 110.298 189.057 110.403C188.617 110.503 188.242 110.649 187.932 110.843C187.627 111.036 187.393 111.271 187.229 111.546C187.064 111.815 186.982 112.12 186.982 112.46C186.982 112.812 187.073 113.134 187.255 113.427C187.437 113.72 187.694 113.954 188.028 114.13C188.368 114.3 188.764 114.385 189.215 114.385C189.824 114.385 190.363 114.276 190.832 114.06C191.307 113.843 191.699 113.553 192.01 113.189C192.32 112.82 192.54 112.407 192.669 111.95L193.047 112.504C192.959 112.803 192.812 113.11 192.607 113.427C192.402 113.737 192.136 114.024 191.808 114.288C191.479 114.552 191.093 114.766 190.647 114.93C190.208 115.094 189.704 115.176 189.136 115.176C188.526 115.176 187.993 115.062 187.536 114.833C187.085 114.599 186.733 114.282 186.481 113.884C186.235 113.479 186.112 113.022 186.112 112.513C186.112 112.062 186.212 111.654 186.411 111.291C186.61 110.922 186.897 110.608 187.272 110.351C187.647 110.087 188.104 109.885 188.644 109.744C189.183 109.604 189.789 109.533 190.463 109.533H192.748ZM199.753 105.49V106.237H195.095V105.49H199.753ZM196.844 103.012H197.723V112.697C197.723 113.172 197.781 113.532 197.898 113.778C198.021 114.019 198.183 114.18 198.382 114.262C198.581 114.344 198.795 114.385 199.023 114.385C199.188 114.385 199.34 114.376 199.48 114.358C199.627 114.341 199.768 114.32 199.902 114.297L199.955 115.044C199.826 115.085 199.659 115.117 199.454 115.141C199.249 115.164 199.056 115.176 198.874 115.176C198.47 115.176 198.115 115.103 197.811 114.956C197.506 114.804 197.269 114.549 197.099 114.191C196.929 113.828 196.844 113.33 196.844 112.697V103.012ZM207.874 113.269V108.364C207.874 107.89 207.774 107.482 207.575 107.143C207.376 106.797 207.083 106.533 206.696 106.352C206.315 106.164 205.844 106.07 205.281 106.07C204.766 106.07 204.303 106.161 203.893 106.343C203.488 106.524 203.166 106.771 202.926 107.081C202.691 107.392 202.574 107.737 202.574 108.118L201.713 108.101C201.713 107.743 201.798 107.397 201.968 107.063C202.144 106.729 202.39 106.431 202.706 106.167C203.028 105.903 203.409 105.695 203.849 105.543C204.294 105.391 204.783 105.314 205.316 105.314C205.99 105.314 206.582 105.429 207.092 105.657C207.607 105.88 208.012 106.22 208.305 106.677C208.598 107.128 208.744 107.696 208.744 108.382V113.031C208.744 113.359 208.768 113.699 208.814 114.051C208.861 114.402 208.932 114.687 209.025 114.903V115H208.085C208.015 114.783 207.962 114.517 207.927 114.2C207.892 113.878 207.874 113.567 207.874 113.269ZM208.111 109.533L208.129 110.245H205.94C205.372 110.245 204.865 110.298 204.42 110.403C203.98 110.503 203.605 110.649 203.295 110.843C202.99 111.036 202.756 111.271 202.592 111.546C202.428 111.815 202.346 112.12 202.346 112.46C202.346 112.812 202.437 113.134 202.618 113.427C202.8 113.72 203.058 113.954 203.392 114.13C203.731 114.3 204.127 114.385 204.578 114.385C205.188 114.385 205.727 114.276 206.195 114.06C206.67 113.843 207.062 113.553 207.373 113.189C207.684 112.82 207.903 112.407 208.032 111.95L208.41 112.504C208.322 112.803 208.176 113.11 207.971 113.427C207.766 113.737 207.499 114.024 207.171 114.288C206.843 114.552 206.456 114.766 206.011 114.93C205.571 115.094 205.067 115.176 204.499 115.176C203.89 115.176 203.356 115.062 202.899 114.833C202.448 114.599 202.097 114.282 201.845 113.884C201.599 113.479 201.476 113.022 201.476 112.513C201.476 112.062 201.575 111.654 201.774 111.291C201.974 110.922 202.261 110.608 202.636 110.351C203.011 110.087 203.468 109.885 204.007 109.744C204.546 109.604 205.152 109.533 205.826 109.533H208.111ZM221.831 113.269V108.364C221.831 107.89 221.731 107.482 221.532 107.143C221.333 106.797 221.04 106.533 220.653 106.352C220.272 106.164 219.801 106.07 219.238 106.07C218.723 106.07 218.26 106.161 217.85 106.343C217.445 106.524 217.123 106.771 216.883 107.081C216.648 107.392 216.531 107.737 216.531 108.118L215.67 108.101C215.67 107.743 215.755 107.397 215.925 107.063C216.101 106.729 216.347 106.431 216.663 106.167C216.985 105.903 217.366 105.695 217.806 105.543C218.251 105.391 218.74 105.314 219.273 105.314C219.947 105.314 220.539 105.429 221.049 105.657C221.564 105.88 221.969 106.22 222.262 106.677C222.555 107.128 222.701 107.696 222.701 108.382V113.031C222.701 113.359 222.725 113.699 222.771 114.051C222.818 114.402 222.889 114.687 222.982 114.903V115H222.042C221.972 114.783 221.919 114.517 221.884 114.2C221.849 113.878 221.831 113.567 221.831 113.269ZM222.068 109.533L222.086 110.245H219.897C219.329 110.245 218.822 110.298 218.377 110.403C217.938 110.503 217.562 110.649 217.252 110.843C216.947 111.036 216.713 111.271 216.549 111.546C216.385 111.815 216.303 112.12 216.303 112.46C216.303 112.812 216.394 113.134 216.575 113.427C216.757 113.72 217.015 113.954 217.349 114.13C217.688 114.3 218.084 114.385 218.535 114.385C219.145 114.385 219.684 114.276 220.152 114.06C220.627 113.843 221.02 113.553 221.33 113.189C221.641 112.82 221.86 112.407 221.989 111.95L222.367 112.504C222.279 112.803 222.133 113.11 221.928 113.427C221.723 113.737 221.456 114.024 221.128 114.288C220.8 114.552 220.413 114.766 219.968 114.93C219.528 115.094 219.024 115.176 218.456 115.176C217.847 115.176 217.313 115.062 216.856 114.833C216.405 114.599 216.054 114.282 215.802 113.884C215.556 113.479 215.433 113.022 215.433 112.513C215.433 112.062 215.532 111.654 215.731 111.291C215.931 110.922 216.218 110.608 216.593 110.351C216.968 110.087 217.425 109.885 217.964 109.744C218.503 109.604 219.109 109.533 219.783 109.533H222.068ZM231.771 112.803V105.49H232.65V115H231.798L231.771 112.803ZM231.93 111.115L232.422 111.098C232.422 111.684 232.352 112.226 232.211 112.724C232.07 113.216 231.848 113.646 231.543 114.016C231.244 114.385 230.857 114.672 230.383 114.877C229.908 115.076 229.34 115.176 228.678 115.176C228.215 115.176 227.79 115.111 227.403 114.982C227.022 114.848 226.691 114.637 226.41 114.35C226.135 114.062 225.921 113.69 225.769 113.233C225.622 112.771 225.549 112.214 225.549 111.563V105.49H226.419V111.581C226.419 112.108 226.478 112.554 226.595 112.917C226.718 113.274 226.885 113.562 227.096 113.778C227.312 113.995 227.562 114.153 227.843 114.253C228.124 114.347 228.429 114.394 228.757 114.394C229.554 114.394 230.184 114.241 230.646 113.937C231.109 113.626 231.438 113.222 231.631 112.724C231.83 112.22 231.93 111.684 231.93 111.115ZM241.712 113.154V101.5H242.582V115H241.756L241.712 113.154ZM235.041 110.342V110.157C235.041 109.413 235.123 108.745 235.287 108.153C235.457 107.556 235.7 107.046 236.017 106.624C236.333 106.202 236.714 105.88 237.159 105.657C237.61 105.429 238.12 105.314 238.688 105.314C239.233 105.314 239.717 105.402 240.139 105.578C240.561 105.754 240.924 106.003 241.229 106.325C241.533 106.647 241.782 107.028 241.976 107.468C242.169 107.907 242.312 108.394 242.406 108.927V111.757C242.336 112.243 242.204 112.694 242.011 113.11C241.823 113.526 241.574 113.89 241.264 114.2C240.959 114.511 240.59 114.751 240.156 114.921C239.723 115.091 239.228 115.176 238.671 115.176C238.108 115.176 237.602 115.059 237.15 114.824C236.705 114.59 236.324 114.259 236.008 113.831C235.697 113.397 235.457 112.888 235.287 112.302C235.123 111.71 235.041 111.057 235.041 110.342ZM235.92 110.157V110.342C235.92 110.916 235.979 111.452 236.096 111.95C236.213 112.442 236.389 112.87 236.623 113.233C236.857 113.597 237.156 113.881 237.52 114.086C237.883 114.291 238.311 114.394 238.803 114.394C239.424 114.394 239.948 114.279 240.376 114.051C240.804 113.816 241.146 113.506 241.404 113.119C241.662 112.732 241.847 112.308 241.958 111.845V108.918C241.888 108.613 241.785 108.297 241.65 107.969C241.516 107.641 241.328 107.336 241.088 107.055C240.848 106.768 240.543 106.536 240.174 106.36C239.805 106.185 239.354 106.097 238.82 106.097C238.322 106.097 237.892 106.199 237.528 106.404C237.165 106.609 236.863 106.896 236.623 107.266C236.389 107.629 236.213 108.057 236.096 108.549C235.979 109.041 235.92 109.577 235.92 110.157ZM246.423 105.49V115H245.553V105.49H246.423ZM245.351 102.669C245.351 102.493 245.409 102.344 245.526 102.221C245.644 102.092 245.799 102.027 245.992 102.027C246.191 102.027 246.35 102.092 246.467 102.221C246.59 102.344 246.651 102.493 246.651 102.669C246.651 102.845 246.59 102.994 246.467 103.117C246.35 103.24 246.191 103.302 245.992 103.302C245.799 103.302 245.644 103.24 245.526 103.117C245.409 102.994 245.351 102.845 245.351 102.669ZM252.856 105.49V106.237H248.198V105.49H252.856ZM249.947 103.012H250.826V112.697C250.826 113.172 250.885 113.532 251.002 113.778C251.125 114.019 251.286 114.18 251.485 114.262C251.685 114.344 251.898 114.385 252.127 114.385C252.291 114.385 252.443 114.376 252.584 114.358C252.73 114.341 252.871 114.32 253.006 114.297L253.059 115.044C252.93 115.085 252.763 115.117 252.558 115.141C252.353 115.164 252.159 115.176 251.978 115.176C251.573 115.176 251.219 115.103 250.914 114.956C250.609 114.804 250.372 114.549 250.202 114.191C250.032 113.828 249.947 113.33 249.947 112.697V103.012ZM261.452 108.162L263.553 106.554C263.928 106.272 264.241 105.965 264.493 105.631C264.751 105.291 264.88 104.904 264.88 104.471C264.88 104.031 264.725 103.642 264.414 103.302C264.109 102.956 263.667 102.783 263.087 102.783C262.653 102.783 262.287 102.877 261.988 103.064C261.695 103.252 261.473 103.504 261.32 103.82C261.174 104.131 261.101 104.474 261.101 104.849C261.101 105.136 261.153 105.435 261.259 105.745C261.37 106.05 261.531 106.369 261.742 106.703C261.959 107.037 262.22 107.383 262.524 107.74L268.8 115H267.745L262.34 108.777C261.912 108.273 261.537 107.811 261.215 107.389C260.898 106.961 260.652 106.545 260.477 106.141C260.307 105.73 260.222 105.309 260.222 104.875C260.222 104.295 260.339 103.791 260.573 103.363C260.808 102.936 261.139 102.604 261.566 102.37C261.994 102.136 262.501 102.019 263.087 102.019C263.644 102.019 264.118 102.133 264.511 102.361C264.903 102.584 265.202 102.88 265.407 103.249C265.618 103.618 265.724 104.025 265.724 104.471C265.724 104.846 265.636 105.197 265.46 105.525C265.284 105.854 265.064 106.152 264.801 106.422C264.543 106.686 264.282 106.923 264.019 107.134L261.733 108.9C261.212 109.34 260.819 109.738 260.556 110.096C260.298 110.453 260.125 110.772 260.037 111.054C259.955 111.329 259.914 111.572 259.914 111.783C259.914 112.246 260.022 112.677 260.239 113.075C260.462 113.474 260.799 113.796 261.25 114.042C261.707 114.288 262.281 114.411 262.973 114.411C263.541 114.411 264.089 114.291 264.616 114.051C265.149 113.805 265.624 113.459 266.04 113.014C266.456 112.562 266.787 112.026 267.033 111.405C267.279 110.778 267.402 110.084 267.402 109.322H268.22C268.22 109.873 268.164 110.386 268.053 110.86C267.947 111.335 267.792 111.774 267.587 112.179C267.382 112.583 267.133 112.955 266.84 113.295C266.793 113.354 266.764 113.395 266.752 113.418C266.74 113.441 266.711 113.477 266.664 113.523C266.189 114.021 265.636 114.423 265.003 114.728C264.376 115.026 263.699 115.176 262.973 115.176C262.164 115.176 261.467 115.035 260.881 114.754C260.295 114.473 259.844 114.077 259.527 113.567C259.211 113.058 259.053 112.463 259.053 111.783C259.053 111.279 259.158 110.819 259.369 110.403C259.586 109.987 259.876 109.598 260.239 109.234C260.603 108.871 261.007 108.514 261.452 108.162ZM281.184 105.49H282.001V114.842C282.001 115.662 281.849 116.368 281.544 116.96C281.239 117.558 280.806 118.015 280.243 118.331C279.687 118.647 279.027 118.806 278.266 118.806C277.85 118.806 277.439 118.744 277.035 118.621C276.631 118.498 276.253 118.313 275.901 118.067C275.556 117.827 275.26 117.534 275.014 117.188L275.523 116.652C275.904 117.121 276.314 117.47 276.754 117.698C277.193 117.927 277.68 118.041 278.213 118.041C278.84 118.041 279.37 117.912 279.804 117.654C280.237 117.402 280.565 117.039 280.788 116.564C281.017 116.09 281.131 115.524 281.131 114.868V107.582L281.184 105.49ZM274.469 110.342V110.157C274.469 109.413 274.551 108.745 274.715 108.153C274.879 107.556 275.116 107.046 275.427 106.624C275.743 106.202 276.127 105.88 276.578 105.657C277.029 105.429 277.539 105.314 278.107 105.314C278.652 105.314 279.136 105.402 279.558 105.578C279.979 105.754 280.343 106.003 280.647 106.325C280.958 106.647 281.21 107.028 281.403 107.468C281.597 107.907 281.74 108.394 281.834 108.927V111.757C281.758 112.243 281.626 112.694 281.438 113.11C281.251 113.526 281.002 113.89 280.691 114.2C280.381 114.511 280.009 114.751 279.575 114.921C279.147 115.091 278.652 115.176 278.09 115.176C277.527 115.176 277.021 115.059 276.569 114.824C276.124 114.59 275.743 114.259 275.427 113.831C275.116 113.397 274.879 112.888 274.715 112.302C274.551 111.71 274.469 111.057 274.469 110.342ZM275.339 110.157V110.342C275.339 110.916 275.397 111.452 275.515 111.95C275.632 112.442 275.808 112.87 276.042 113.233C276.282 113.597 276.581 113.881 276.938 114.086C277.302 114.291 277.729 114.394 278.222 114.394C278.843 114.394 279.367 114.279 279.795 114.051C280.223 113.816 280.562 113.506 280.814 113.119C281.066 112.732 281.245 112.308 281.351 111.845V108.918C281.286 108.613 281.187 108.297 281.052 107.969C280.923 107.641 280.738 107.336 280.498 107.055C280.264 106.768 279.962 106.536 279.593 106.36C279.224 106.185 278.772 106.097 278.239 106.097C277.741 106.097 277.311 106.199 276.947 106.404C276.584 106.609 276.282 106.896 276.042 107.266C275.808 107.629 275.632 108.057 275.515 108.549C275.397 109.041 275.339 109.577 275.339 110.157ZM284.225 110.403V110.087C284.225 109.396 284.324 108.76 284.523 108.18C284.723 107.594 285.007 107.087 285.376 106.659C285.745 106.231 286.188 105.9 286.703 105.666C287.225 105.432 287.802 105.314 288.435 105.314C289.073 105.314 289.65 105.432 290.166 105.666C290.688 105.9 291.133 106.231 291.502 106.659C291.877 107.087 292.164 107.594 292.363 108.18C292.562 108.76 292.662 109.396 292.662 110.087V110.403C292.662 111.095 292.562 111.733 292.363 112.319C292.164 112.899 291.877 113.403 291.502 113.831C291.133 114.259 290.69 114.59 290.175 114.824C289.659 115.059 289.085 115.176 288.452 115.176C287.813 115.176 287.233 115.059 286.712 114.824C286.196 114.59 285.751 114.259 285.376 113.831C285.007 113.403 284.723 112.899 284.523 112.319C284.324 111.733 284.225 111.095 284.225 110.403ZM285.086 110.087V110.403C285.086 110.937 285.159 111.446 285.306 111.933C285.458 112.413 285.675 112.841 285.956 113.216C286.243 113.585 286.595 113.878 287.011 114.095C287.433 114.306 287.913 114.411 288.452 114.411C288.985 114.411 289.457 114.306 289.867 114.095C290.283 113.878 290.632 113.585 290.913 113.216C291.2 112.841 291.417 112.413 291.563 111.933C291.716 111.446 291.792 110.937 291.792 110.403V110.087C291.792 109.565 291.716 109.064 291.563 108.584C291.417 108.104 291.2 107.676 290.913 107.301C290.626 106.926 290.274 106.63 289.858 106.413C289.442 106.19 288.968 106.079 288.435 106.079C287.901 106.079 287.427 106.19 287.011 106.413C286.595 106.63 286.243 106.926 285.956 107.301C285.669 107.676 285.452 108.104 285.306 108.584C285.159 109.064 285.086 109.565 285.086 110.087ZM300.722 113.269V108.364C300.722 107.89 300.622 107.482 300.423 107.143C300.224 106.797 299.931 106.533 299.544 106.352C299.163 106.164 298.691 106.07 298.129 106.07C297.613 106.07 297.15 106.161 296.74 106.343C296.336 106.524 296.014 106.771 295.773 107.081C295.539 107.392 295.422 107.737 295.422 108.118L294.561 108.101C294.561 107.743 294.646 107.397 294.815 107.063C294.991 106.729 295.237 106.431 295.554 106.167C295.876 105.903 296.257 105.695 296.696 105.543C297.142 105.391 297.631 105.314 298.164 105.314C298.838 105.314 299.43 105.429 299.939 105.657C300.455 105.88 300.859 106.22 301.152 106.677C301.445 107.128 301.592 107.696 301.592 108.382V113.031C301.592 113.359 301.615 113.699 301.662 114.051C301.709 114.402 301.779 114.687 301.873 114.903V115H300.933C300.862 114.783 300.81 114.517 300.774 114.2C300.739 113.878 300.722 113.567 300.722 113.269ZM300.959 109.533L300.977 110.245H298.788C298.22 110.245 297.713 110.298 297.268 110.403C296.828 110.503 296.453 110.649 296.143 110.843C295.838 111.036 295.604 111.271 295.439 111.546C295.275 111.815 295.193 112.12 295.193 112.46C295.193 112.812 295.284 113.134 295.466 113.427C295.647 113.72 295.905 113.954 296.239 114.13C296.579 114.3 296.975 114.385 297.426 114.385C298.035 114.385 298.574 114.276 299.043 114.06C299.518 113.843 299.91 113.553 300.221 113.189C300.531 112.82 300.751 112.407 300.88 111.95L301.258 112.504C301.17 112.803 301.023 113.11 300.818 113.427C300.613 113.737 300.347 114.024 300.019 114.288C299.69 114.552 299.304 114.766 298.858 114.93C298.419 115.094 297.915 115.176 297.347 115.176C296.737 115.176 296.204 115.062 295.747 114.833C295.296 114.599 294.944 114.282 294.692 113.884C294.446 113.479 294.323 113.022 294.323 112.513C294.323 112.062 294.423 111.654 294.622 111.291C294.821 110.922 295.108 110.608 295.483 110.351C295.858 110.087 296.315 109.885 296.854 109.744C297.394 109.604 298 109.533 298.674 109.533H300.959ZM305.468 101.5V115H304.598V101.5H305.468ZM318.616 113.269V108.364C318.616 107.89 318.517 107.482 318.317 107.143C318.118 106.797 317.825 106.533 317.438 106.352C317.058 106.164 316.586 106.07 316.023 106.07C315.508 106.07 315.045 106.161 314.635 106.343C314.23 106.524 313.908 106.771 313.668 107.081C313.434 107.392 313.316 107.737 313.316 108.118L312.455 108.101C312.455 107.743 312.54 107.397 312.71 107.063C312.886 106.729 313.132 106.431 313.448 106.167C313.771 105.903 314.151 105.695 314.591 105.543C315.036 105.391 315.525 105.314 316.059 105.314C316.732 105.314 317.324 105.429 317.834 105.657C318.35 105.88 318.754 106.22 319.047 106.677C319.34 107.128 319.486 107.696 319.486 108.382V113.031C319.486 113.359 319.51 113.699 319.557 114.051C319.604 114.402 319.674 114.687 319.768 114.903V115H318.827C318.757 114.783 318.704 114.517 318.669 114.2C318.634 113.878 318.616 113.567 318.616 113.269ZM318.854 109.533L318.871 110.245H316.683C316.114 110.245 315.607 110.298 315.162 110.403C314.723 110.503 314.348 110.649 314.037 110.843C313.732 111.036 313.498 111.271 313.334 111.546C313.17 111.815 313.088 112.12 313.088 112.46C313.088 112.812 313.179 113.134 313.36 113.427C313.542 113.72 313.8 113.954 314.134 114.13C314.474 114.3 314.869 114.385 315.32 114.385C315.93 114.385 316.469 114.276 316.938 114.06C317.412 113.843 317.805 113.553 318.115 113.189C318.426 112.82 318.646 112.407 318.774 111.95L319.152 112.504C319.064 112.803 318.918 113.11 318.713 113.427C318.508 113.737 318.241 114.024 317.913 114.288C317.585 114.552 317.198 114.766 316.753 114.93C316.313 115.094 315.81 115.176 315.241 115.176C314.632 115.176 314.099 115.062 313.642 114.833C313.19 114.599 312.839 114.282 312.587 113.884C312.341 113.479 312.218 113.022 312.218 112.513C312.218 112.062 312.317 111.654 312.517 111.291C312.716 110.922 313.003 110.608 313.378 110.351C313.753 110.087 314.21 109.885 314.749 109.744C315.288 109.604 315.895 109.533 316.568 109.533H318.854ZM323.362 101.5V115H322.492V101.5H323.362ZM327.3 105.49V115H326.43V105.49H327.3ZM326.228 102.669C326.228 102.493 326.286 102.344 326.403 102.221C326.521 102.092 326.676 102.027 326.869 102.027C327.068 102.027 327.227 102.092 327.344 102.221C327.467 102.344 327.528 102.493 327.528 102.669C327.528 102.845 327.467 102.994 327.344 103.117C327.227 103.24 327.068 103.302 326.869 103.302C326.676 103.302 326.521 103.24 326.403 103.117C326.286 102.994 326.228 102.845 326.228 102.669ZM336.537 105.49H337.354V114.842C337.354 115.662 337.202 116.368 336.897 116.96C336.593 117.558 336.159 118.015 335.597 118.331C335.04 118.647 334.381 118.806 333.619 118.806C333.203 118.806 332.793 118.744 332.389 118.621C331.984 118.498 331.606 118.313 331.255 118.067C330.909 117.827 330.613 117.534 330.367 117.188L330.877 116.652C331.258 117.121 331.668 117.47 332.107 117.698C332.547 117.927 333.033 118.041 333.566 118.041C334.193 118.041 334.724 117.912 335.157 117.654C335.591 117.402 335.919 117.039 336.142 116.564C336.37 116.09 336.484 115.524 336.484 114.868V107.582L336.537 105.49ZM329.822 110.342V110.157C329.822 109.413 329.904 108.745 330.068 108.153C330.232 107.556 330.47 107.046 330.78 106.624C331.097 106.202 331.48 105.88 331.932 105.657C332.383 105.429 332.893 105.314 333.461 105.314C334.006 105.314 334.489 105.402 334.911 105.578C335.333 105.754 335.696 106.003 336.001 106.325C336.312 106.647 336.563 107.028 336.757 107.468C336.95 107.907 337.094 108.394 337.188 108.927V111.757C337.111 112.243 336.979 112.694 336.792 113.11C336.604 113.526 336.355 113.89 336.045 114.2C335.734 114.511 335.362 114.751 334.929 114.921C334.501 115.091 334.006 115.176 333.443 115.176C332.881 115.176 332.374 115.059 331.923 114.824C331.478 114.59 331.097 114.259 330.78 113.831C330.47 113.397 330.232 112.888 330.068 112.302C329.904 111.71 329.822 111.057 329.822 110.342ZM330.692 110.157V110.342C330.692 110.916 330.751 111.452 330.868 111.95C330.985 112.442 331.161 112.87 331.396 113.233C331.636 113.597 331.935 113.881 332.292 114.086C332.655 114.291 333.083 114.394 333.575 114.394C334.196 114.394 334.721 114.279 335.148 114.051C335.576 113.816 335.916 113.506 336.168 113.119C336.42 112.732 336.599 112.308 336.704 111.845V108.918C336.64 108.613 336.54 108.297 336.405 107.969C336.276 107.641 336.092 107.336 335.852 107.055C335.617 106.768 335.315 106.536 334.946 106.36C334.577 106.185 334.126 106.097 333.593 106.097C333.095 106.097 332.664 106.199 332.301 106.404C331.938 106.609 331.636 106.896 331.396 107.266C331.161 107.629 330.985 108.057 330.868 108.549C330.751 109.041 330.692 109.577 330.692 110.157ZM341.063 107.521V115H340.193V105.49H341.037L341.063 107.521ZM340.879 109.586L340.483 109.243C340.524 108.716 340.642 108.215 340.835 107.74C341.028 107.266 341.289 106.847 341.617 106.483C341.945 106.12 342.332 105.836 342.777 105.631C343.223 105.42 343.712 105.314 344.245 105.314C344.72 105.314 345.145 105.379 345.52 105.508C345.895 105.637 346.211 105.842 346.469 106.123C346.732 106.404 346.932 106.768 347.066 107.213C347.207 107.652 347.277 108.188 347.277 108.821V115H346.407V108.812C346.407 108.109 346.308 107.562 346.108 107.169C345.915 106.776 345.643 106.498 345.291 106.334C344.945 106.17 344.535 106.088 344.061 106.088C343.527 106.088 343.064 106.205 342.672 106.439C342.279 106.674 341.951 106.973 341.688 107.336C341.43 107.699 341.233 108.083 341.099 108.487C340.964 108.886 340.891 109.252 340.879 109.586ZM350.881 107.477V115H350.002V105.49H350.854L350.881 107.477ZM350.731 109.586L350.301 109.243C350.342 108.716 350.453 108.215 350.635 107.74C350.822 107.266 351.077 106.847 351.399 106.483C351.722 106.12 352.103 105.836 352.542 105.631C352.987 105.42 353.488 105.314 354.045 105.314C354.514 105.314 354.936 105.379 355.311 105.508C355.691 105.631 356.014 105.827 356.277 106.097C356.541 106.36 356.743 106.706 356.884 107.134C357.03 107.562 357.104 108.074 357.104 108.672V115H356.233V108.698C356.233 108.024 356.131 107.5 355.926 107.125C355.727 106.75 355.445 106.483 355.082 106.325C354.719 106.167 354.3 106.088 353.825 106.088C353.269 106.088 352.797 106.205 352.41 106.439C352.023 106.674 351.707 106.973 351.461 107.336C351.221 107.699 351.042 108.083 350.925 108.487C350.808 108.886 350.743 109.252 350.731 109.586ZM357.095 108.777L356.515 108.698C356.556 108.259 356.67 107.837 356.857 107.433C357.045 107.022 357.3 106.659 357.622 106.343C357.944 106.026 358.328 105.777 358.773 105.596C359.219 105.408 359.714 105.314 360.259 105.314C360.745 105.314 361.179 105.382 361.56 105.517C361.946 105.646 362.271 105.854 362.535 106.141C362.805 106.422 363.007 106.782 363.142 107.222C363.282 107.661 363.353 108.191 363.353 108.812V115H362.482V108.812C362.482 108.098 362.38 107.544 362.175 107.151C361.976 106.753 361.694 106.475 361.331 106.316C360.968 106.158 360.549 106.082 360.074 106.088C359.582 106.094 359.151 106.185 358.782 106.36C358.419 106.536 358.114 106.762 357.868 107.037C357.628 107.307 357.443 107.597 357.314 107.907C357.186 108.212 357.112 108.502 357.095 108.777ZM369.689 115.176C369.08 115.176 368.518 115.062 368.002 114.833C367.486 114.604 367.038 114.282 366.657 113.866C366.276 113.444 365.98 112.949 365.77 112.381C365.559 111.807 365.453 111.177 365.453 110.491V110.113C365.453 109.387 365.559 108.73 365.77 108.145C365.986 107.559 366.282 107.055 366.657 106.633C367.038 106.205 367.472 105.88 367.958 105.657C368.444 105.429 368.96 105.314 369.505 105.314C370.079 105.314 370.595 105.42 371.052 105.631C371.515 105.836 371.907 106.129 372.229 106.51C372.552 106.891 372.795 107.342 372.959 107.863C373.129 108.379 373.214 108.95 373.214 109.577V110.192H365.989V109.428H372.344V109.313C372.338 108.745 372.224 108.218 372.001 107.731C371.784 107.239 371.465 106.841 371.043 106.536C370.627 106.231 370.114 106.079 369.505 106.079C369.03 106.079 368.597 106.182 368.204 106.387C367.817 106.586 367.483 106.867 367.202 107.23C366.921 107.588 366.704 108.013 366.552 108.505C366.399 108.991 366.323 109.527 366.323 110.113V110.491C366.323 111.036 366.405 111.546 366.569 112.021C366.739 112.495 366.974 112.911 367.272 113.269C367.577 113.626 367.938 113.907 368.354 114.112C368.77 114.317 369.224 114.42 369.716 114.42C370.272 114.42 370.773 114.32 371.219 114.121C371.664 113.916 372.068 113.579 372.432 113.11L372.985 113.532C372.78 113.837 372.525 114.115 372.221 114.367C371.916 114.613 371.556 114.81 371.14 114.956C370.724 115.103 370.24 115.176 369.689 115.176ZM376.185 107.521V115H375.314V105.49H376.158L376.185 107.521ZM376 109.586L375.604 109.243C375.646 108.716 375.763 108.215 375.956 107.74C376.149 107.266 376.41 106.847 376.738 106.483C377.066 106.12 377.453 105.836 377.898 105.631C378.344 105.42 378.833 105.314 379.366 105.314C379.841 105.314 380.266 105.379 380.641 105.508C381.016 105.637 381.332 105.842 381.59 106.123C381.854 106.404 382.053 106.768 382.188 107.213C382.328 107.652 382.398 108.188 382.398 108.821V115H381.528V108.812C381.528 108.109 381.429 107.562 381.229 107.169C381.036 106.776 380.764 106.498 380.412 106.334C380.066 106.17 379.656 106.088 379.182 106.088C378.648 106.088 378.186 106.205 377.793 106.439C377.4 106.674 377.072 106.973 376.809 107.336C376.551 107.699 376.354 108.083 376.22 108.487C376.085 108.886 376.012 109.252 376 109.586ZM388.683 105.49V106.237H384.024V105.49H388.683ZM385.773 103.012H386.652V112.697C386.652 113.172 386.711 113.532 386.828 113.778C386.951 114.019 387.112 114.18 387.312 114.262C387.511 114.344 387.725 114.385 387.953 114.385C388.117 114.385 388.27 114.376 388.41 114.358C388.557 114.341 388.697 114.32 388.832 114.297L388.885 115.044C388.756 115.085 388.589 115.117 388.384 115.141C388.179 115.164 387.985 115.176 387.804 115.176C387.399 115.176 387.045 115.103 386.74 114.956C386.436 114.804 386.198 114.549 386.028 114.191C385.858 113.828 385.773 113.33 385.773 112.697V103.012Z" fill="white"/>
<mask id="path-7-outside-1_395_840" maskUnits="userSpaceOnUse" x="3" y="48" width="44" height="82" fill="black">
<rect fill="white" x="3" y="48" width="44" height="82"/>
<path d="M41.3164 53.9062V125H24.8613V72.4609L8.65039 77.1973V64.6973L39.8027 53.9062H41.3164Z"/>
</mask>
<path d="M41.3164 53.9062H46.3164V48.9062H41.3164V53.9062ZM41.3164 125V130H46.3164V125H41.3164ZM24.8613 125H19.8613V130H24.8613V125ZM24.8613 72.4609H29.8613V65.7911L23.4591 67.6616L24.8613 72.4609ZM8.65039 77.1973H3.65039V83.8671L10.0526 81.9966L8.65039 77.1973ZM8.65039 64.6973L7.01382 59.9727L3.65039 61.1378V64.6973H8.65039ZM39.8027 53.9062V48.9062H38.9613L38.1662 49.1817L39.8027 53.9062ZM41.3164 53.9062H36.3164V125H41.3164H46.3164V53.9062H41.3164ZM41.3164 125V120H24.8613V125V130H41.3164V125ZM24.8613 125H29.8613V72.4609H24.8613H19.8613V125H24.8613ZM24.8613 72.4609L23.4591 67.6616L7.24817 72.3979L8.65039 77.1973L10.0526 81.9966L26.2635 77.2603L24.8613 72.4609ZM8.65039 77.1973H13.6504V64.6973H8.65039H3.65039V77.1973H8.65039ZM8.65039 64.6973L10.287 69.4218L41.4393 58.6308L39.8027 53.9062L38.1662 49.1817L7.01382 59.9727L8.65039 64.6973ZM39.8027 53.9062V58.9062H41.3164V53.9062V48.9062H39.8027V53.9062Z" fill="#1A5069" mask="url(#path-7-outside-1_395_840)"/>
<defs>
<radialGradient id="paint0_radial_395_840" cx="0" cy="0" r="1" gradientUnits="userSpaceOnUse" gradientTransform="translate(96.2628 221.995) scale(96.2628 221.995)">
<stop stop-color="#1A5069"/>
<stop offset="1" stop-color="#0F7BAE" stop-opacity="0"/>
</radialGradient>
<radialGradient id="paint1_radial_395_840" cx="0" cy="0" r="1" gradientUnits="userSpaceOnUse" gradientTransform="translate(96.2628 221.995) scale(96.2628 221.995)">
<stop stop-color="#1A5069"/>
<stop offset="1" stop-color="#0F7BAE" stop-opacity="0"/>
</radialGradient>
</defs>
</svg>
