<svg width="553" height="180" viewBox="0 0 553 180" fill="none" xmlns="http://www.w3.org/2000/svg">
<mask id="mask0_395_851" style="mask-type:alpha" maskUnits="userSpaceOnUse" x="74" y="0" width="439" height="179">
<rect x="-1.00093" y="0.991997" width="174.036" height="436.409" rx="87.0179" transform="matrix(-0.000966365 1 -0.999968 -0.00800285 512.555 5.50966)" fill="black" stroke="#136A93" stroke-width="2"/>
</mask>
<g mask="url(#mask0_395_851)">
<rect width="192.526" height="443.99" rx="47.5" transform="matrix(-0.000966365 1 -0.999968 -0.00800285 678.684 68.4424)" fill="url(#paint0_radial_395_851)" fill-opacity="0.74"/>
<rect width="192.526" height="443.99" rx="47.5" transform="matrix(-0.000966365 1 -0.999968 -0.00800285 352.023 -57.9541)" fill="url(#paint1_radial_395_851)" fill-opacity="0.74"/>
</g>
<rect x="76.3848" y="1.54688" width="435.608" height="175.235" rx="87.6177" fill="#D9D9D9" fill-opacity="0.14" stroke="#136A93" stroke-width="2"/>
<path d="M245.836 79H240.47L240.504 75.3086H245.836C247.283 75.3086 248.496 74.9896 249.476 74.3516C250.456 73.7021 251.196 72.7736 251.698 71.5659C252.199 70.3468 252.45 68.8885 252.45 67.1909V65.9092C252.45 64.599 252.307 63.4425 252.022 62.4399C251.738 61.4373 251.316 60.5942 250.758 59.9106C250.211 59.2271 249.533 58.7087 248.724 58.3555C247.915 58.0023 246.987 57.8257 245.938 57.8257H240.367V54.1172H245.938C247.602 54.1172 249.117 54.3963 250.484 54.9546C251.863 55.5129 253.054 56.3161 254.056 57.3643C255.07 58.401 255.845 59.6429 256.38 61.0898C256.927 62.5368 257.201 64.1546 257.201 65.9434V67.1909C257.201 68.9683 256.927 70.5861 256.38 72.0444C255.845 73.4914 255.07 74.7332 254.056 75.77C253.054 76.8068 251.857 77.6043 250.467 78.1626C249.077 78.7209 247.534 79 245.836 79ZM243.102 54.1172V79H238.402V54.1172H243.102ZM268.914 79.3418C267.512 79.3418 266.253 79.1139 265.137 78.6582C264.02 78.2025 263.069 77.5701 262.283 76.7612C261.508 75.9409 260.91 74.9896 260.488 73.9072C260.078 72.8135 259.873 71.64 259.873 70.3867V69.7031C259.873 68.279 260.078 66.9858 260.488 65.8237C260.898 64.6502 261.479 63.6419 262.231 62.7988C262.983 61.9557 263.883 61.3063 264.932 60.8506C265.98 60.3949 267.136 60.167 268.401 60.167C269.711 60.167 270.868 60.3892 271.87 60.8335C272.873 61.2664 273.71 61.8817 274.382 62.6792C275.055 63.4767 275.562 64.4338 275.903 65.5503C276.245 66.6554 276.416 67.8802 276.416 69.2246V71.1216H261.924V68.0112H271.973V67.6694C271.95 66.9517 271.813 66.2965 271.562 65.7041C271.312 65.1003 270.924 64.6217 270.4 64.2686C269.876 63.904 269.198 63.7217 268.367 63.7217C267.694 63.7217 267.108 63.8698 266.606 64.166C266.117 64.4508 265.706 64.861 265.376 65.3965C265.057 65.9206 264.818 66.5472 264.658 67.2764C264.499 68.0055 264.419 68.8145 264.419 69.7031V70.3867C264.419 71.1615 264.521 71.8792 264.727 72.54C264.943 73.2008 265.256 73.7762 265.667 74.2661C266.088 74.7446 266.589 75.1206 267.17 75.394C267.763 75.6561 268.435 75.7871 269.187 75.7871C270.133 75.7871 270.987 75.6048 271.75 75.2402C272.525 74.8643 273.197 74.3117 273.767 73.5825L276.04 75.9409C275.653 76.5106 275.129 77.0575 274.468 77.5815C273.818 78.1056 273.032 78.5329 272.109 78.8633C271.187 79.1823 270.121 79.3418 268.914 79.3418ZM289.359 73.9414C289.359 73.554 289.257 73.2065 289.052 72.8989C288.847 72.5913 288.459 72.3122 287.89 72.0615C287.331 71.7995 286.511 71.5545 285.429 71.3267C284.472 71.1216 283.589 70.8652 282.78 70.5576C281.971 70.25 281.276 69.8797 280.695 69.4468C280.114 69.0024 279.658 68.484 279.328 67.8916C279.009 67.2878 278.849 66.5928 278.849 65.8066C278.849 65.0433 279.014 64.3255 279.345 63.6533C279.675 62.9697 280.154 62.3716 280.78 61.8589C281.407 61.3348 282.17 60.9246 283.07 60.6284C283.97 60.3208 284.984 60.167 286.112 60.167C287.685 60.167 289.035 60.4233 290.163 60.936C291.302 61.4487 292.174 62.1551 292.777 63.0552C293.381 63.9438 293.683 64.9465 293.683 66.063H289.171C289.171 65.5731 289.057 65.1287 288.83 64.73C288.613 64.3312 288.277 64.0122 287.821 63.7729C287.366 63.5223 286.79 63.397 286.095 63.397C285.469 63.397 284.939 63.4995 284.506 63.7046C284.084 63.9097 283.765 64.1774 283.549 64.5078C283.332 64.8382 283.224 65.2028 283.224 65.6016C283.224 65.8978 283.281 66.1655 283.395 66.4048C283.52 66.6326 283.72 66.8434 283.993 67.0371C284.267 67.2308 284.637 67.4074 285.104 67.5669C285.583 67.7264 286.169 67.8802 286.864 68.0283C288.243 68.3018 289.445 68.6663 290.47 69.1221C291.507 69.5664 292.316 70.1589 292.897 70.8994C293.478 71.64 293.769 72.5856 293.769 73.7363C293.769 74.5566 293.592 75.3086 293.239 75.9922C292.886 76.6644 292.373 77.2511 291.701 77.7524C291.028 78.2537 290.225 78.6468 289.291 78.9316C288.357 79.2051 287.303 79.3418 286.129 79.3418C284.432 79.3418 282.996 79.0399 281.823 78.436C280.649 77.8208 279.761 77.0461 279.157 76.1118C278.553 75.1662 278.251 74.1864 278.251 73.1724H282.575C282.609 73.8901 282.803 74.4655 283.156 74.8984C283.509 75.3314 283.953 75.6447 284.489 75.8384C285.036 76.0207 285.611 76.1118 286.215 76.1118C286.898 76.1118 287.474 76.0207 287.941 75.8384C288.408 75.6447 288.761 75.3883 289 75.0693C289.24 74.7389 289.359 74.363 289.359 73.9414ZM301.739 60.5088V79H297.21V60.5088H301.739ZM296.902 55.6724C296.902 55.0002 297.13 54.4419 297.586 53.9976C298.053 53.5532 298.68 53.3311 299.466 53.3311C300.252 53.3311 300.873 53.5532 301.329 53.9976C301.796 54.4419 302.029 55.0002 302.029 55.6724C302.029 56.3332 301.796 56.8857 301.329 57.3301C300.873 57.7744 300.252 57.9966 299.466 57.9966C298.68 57.9966 298.053 57.7744 297.586 57.3301C297.13 56.8857 296.902 56.3332 296.902 55.6724ZM317.553 60.5088H321.655V78.436C321.655 80.1108 321.29 81.5293 320.561 82.6914C319.843 83.8649 318.835 84.7536 317.536 85.3574C316.237 85.9727 314.728 86.2803 313.007 86.2803C312.267 86.2803 311.464 86.1777 310.598 85.9727C309.743 85.7676 308.917 85.4429 308.12 84.9985C307.333 84.5656 306.678 84.0016 306.154 83.3066L308.188 80.6406C308.803 81.3584 309.498 81.8996 310.273 82.2642C311.048 82.6401 311.885 82.8281 312.785 82.8281C313.697 82.8281 314.471 82.6572 315.109 82.3154C315.759 81.985 316.254 81.4951 316.596 80.8457C316.949 80.2077 317.126 79.4215 317.126 78.4873V64.73L317.553 60.5088ZM305.061 69.9766V69.6177C305.061 68.2049 305.231 66.9232 305.573 65.7725C305.915 64.6104 306.405 63.6134 307.043 62.7817C307.692 61.95 308.473 61.3063 309.384 60.8506C310.307 60.3949 311.344 60.167 312.495 60.167C313.714 60.167 314.739 60.3892 315.571 60.8335C316.414 61.2778 317.109 61.9102 317.656 62.7305C318.214 63.5508 318.647 64.5249 318.955 65.6528C319.274 66.7694 319.519 67.9998 319.689 69.3442V70.3184C319.53 71.6286 319.274 72.8306 318.92 73.9243C318.579 75.0181 318.123 75.9751 317.553 76.7954C316.984 77.6043 316.277 78.231 315.434 78.6753C314.591 79.1196 313.6 79.3418 312.46 79.3418C311.321 79.3418 310.296 79.1082 309.384 78.6411C308.473 78.174 307.692 77.5189 307.043 76.6758C306.405 75.8327 305.915 74.8415 305.573 73.7021C305.231 72.5628 305.061 71.321 305.061 69.9766ZM309.572 69.6177V69.9766C309.572 70.7741 309.652 71.5203 309.812 72.2153C309.971 72.9103 310.216 73.5256 310.546 74.061C310.877 74.5851 311.293 74.9953 311.794 75.2915C312.295 75.5877 312.893 75.7358 313.588 75.7358C314.523 75.7358 315.286 75.5422 315.878 75.1548C316.482 74.756 316.938 74.2148 317.246 73.5312C317.565 72.8363 317.77 72.0558 317.861 71.1899V68.5068C317.804 67.8232 317.679 67.1909 317.485 66.6099C317.303 66.0288 317.046 65.5275 316.716 65.106C316.385 64.6844 315.964 64.354 315.451 64.1147C314.938 63.8755 314.329 63.7559 313.623 63.7559C312.939 63.7559 312.341 63.9097 311.828 64.2173C311.315 64.5135 310.894 64.9294 310.563 65.4648C310.233 66.0003 309.982 66.6213 309.812 67.3276C309.652 68.034 309.572 68.7974 309.572 69.6177ZM329.898 64.4565V79H325.387V60.5088H329.625L329.898 64.4565ZM329.181 69.0879H327.848C327.859 67.7435 328.041 66.5244 328.395 65.4307C328.748 64.3369 329.243 63.397 329.881 62.6108C330.531 61.8247 331.3 61.2209 332.188 60.7993C333.077 60.3778 334.068 60.167 335.162 60.167C336.051 60.167 336.854 60.2923 337.572 60.543C338.29 60.7936 338.905 61.1924 339.417 61.7393C339.942 62.2861 340.34 63.0039 340.614 63.8926C340.899 64.7699 341.041 65.8522 341.041 67.1396V79H336.495V67.1055C336.495 66.2624 336.37 65.5959 336.119 65.106C335.88 64.616 335.527 64.2686 335.06 64.0635C334.604 63.8584 334.04 63.7559 333.368 63.7559C332.673 63.7559 332.063 63.8983 331.539 64.1831C331.026 64.4565 330.593 64.8382 330.24 65.3281C329.898 65.818 329.636 66.382 329.454 67.02C329.272 67.658 329.181 68.3473 329.181 69.0879Z" fill="#EDD5B1"/>
<path d="M175.349 102.854L170.857 115H169.926L174.742 102.203H175.428L175.349 102.854ZM179.523 115L175.032 102.854L174.953 102.203H175.63L180.455 115H179.523ZM178.557 110.553V111.335H171.886V110.553H178.557ZM183.021 107.09V115H182.151V105.49H183.004L183.021 107.09ZM186.52 105.42L186.484 106.211C186.373 106.193 186.262 106.182 186.15 106.176C186.045 106.164 185.931 106.158 185.808 106.158C185.327 106.158 184.905 106.249 184.542 106.431C184.179 106.612 183.874 106.864 183.628 107.187C183.388 107.509 183.203 107.884 183.074 108.312C182.951 108.733 182.884 109.19 182.872 109.683L182.512 109.788C182.512 109.149 182.576 108.561 182.705 108.021C182.84 107.477 183.045 107.002 183.32 106.598C183.596 106.193 183.941 105.88 184.357 105.657C184.773 105.429 185.266 105.314 185.834 105.314C185.969 105.314 186.098 105.326 186.221 105.35C186.35 105.367 186.449 105.391 186.52 105.42ZM191.45 114.411C191.907 114.411 192.338 114.326 192.742 114.156C193.152 113.98 193.492 113.72 193.762 113.374C194.037 113.028 194.192 112.595 194.228 112.073H195.062C195.033 112.688 194.852 113.23 194.518 113.699C194.184 114.168 193.747 114.531 193.208 114.789C192.675 115.047 192.089 115.176 191.45 115.176C190.8 115.176 190.226 115.059 189.728 114.824C189.229 114.584 188.811 114.25 188.471 113.822C188.137 113.395 187.882 112.894 187.706 112.319C187.536 111.739 187.451 111.109 187.451 110.43V110.061C187.451 109.381 187.536 108.754 187.706 108.18C187.882 107.6 188.137 107.096 188.471 106.668C188.811 106.24 189.227 105.909 189.719 105.675C190.217 105.435 190.791 105.314 191.441 105.314C192.098 105.314 192.692 105.449 193.226 105.719C193.765 105.982 194.198 106.366 194.526 106.87C194.854 107.368 195.033 107.969 195.062 108.672H194.228C194.198 108.121 194.055 107.655 193.797 107.274C193.539 106.888 193.205 106.592 192.795 106.387C192.385 106.182 191.934 106.079 191.441 106.079C190.885 106.079 190.407 106.188 190.009 106.404C189.616 106.615 189.294 106.908 189.042 107.283C188.796 107.652 188.611 108.074 188.488 108.549C188.371 109.023 188.312 109.527 188.312 110.061V110.43C188.312 110.963 188.371 111.47 188.488 111.95C188.605 112.425 188.79 112.847 189.042 113.216C189.294 113.585 189.619 113.878 190.018 114.095C190.416 114.306 190.894 114.411 191.45 114.411ZM198.121 101.5V115H197.251V101.5H198.121ZM197.937 109.586L197.541 109.243C197.582 108.716 197.699 108.215 197.893 107.74C198.086 107.266 198.347 106.847 198.675 106.483C199.003 106.12 199.39 105.836 199.835 105.631C200.28 105.42 200.77 105.314 201.303 105.314C201.777 105.314 202.202 105.379 202.577 105.508C202.952 105.637 203.269 105.842 203.526 106.123C203.79 106.404 203.989 106.768 204.124 107.213C204.265 107.652 204.335 108.188 204.335 108.821V115H203.465V108.812C203.465 108.109 203.365 107.562 203.166 107.169C202.973 106.776 202.7 106.498 202.349 106.334C202.003 106.17 201.593 106.088 201.118 106.088C200.585 106.088 200.122 106.205 199.729 106.439C199.337 106.674 199.009 106.973 198.745 107.336C198.487 107.699 198.291 108.083 198.156 108.487C198.021 108.886 197.948 109.252 197.937 109.586ZM208.123 105.49V115H207.253V105.49H208.123ZM207.051 102.669C207.051 102.493 207.109 102.344 207.227 102.221C207.344 102.092 207.499 102.027 207.692 102.027C207.892 102.027 208.05 102.092 208.167 102.221C208.29 102.344 208.352 102.493 208.352 102.669C208.352 102.845 208.29 102.994 208.167 103.117C208.05 103.24 207.892 103.302 207.692 103.302C207.499 103.302 207.344 103.24 207.227 103.117C207.109 102.994 207.051 102.845 207.051 102.669ZM214.557 105.49V106.237H209.898V105.49H214.557ZM211.647 103.012H212.526V112.697C212.526 113.172 212.585 113.532 212.702 113.778C212.825 114.019 212.986 114.18 213.186 114.262C213.385 114.344 213.599 114.385 213.827 114.385C213.991 114.385 214.144 114.376 214.284 114.358C214.431 114.341 214.571 114.32 214.706 114.297L214.759 115.044C214.63 115.085 214.463 115.117 214.258 115.141C214.053 115.164 213.859 115.176 213.678 115.176C213.273 115.176 212.919 115.103 212.614 114.956C212.31 114.804 212.072 114.549 211.902 114.191C211.732 113.828 211.647 113.33 211.647 112.697V103.012ZM220.437 115.176C219.827 115.176 219.265 115.062 218.749 114.833C218.233 114.604 217.785 114.282 217.404 113.866C217.023 113.444 216.728 112.949 216.517 112.381C216.306 111.807 216.2 111.177 216.2 110.491V110.113C216.2 109.387 216.306 108.73 216.517 108.145C216.733 107.559 217.029 107.055 217.404 106.633C217.785 106.205 218.219 105.88 218.705 105.657C219.191 105.429 219.707 105.314 220.252 105.314C220.826 105.314 221.342 105.42 221.799 105.631C222.262 105.836 222.654 106.129 222.977 106.51C223.299 106.891 223.542 107.342 223.706 107.863C223.876 108.379 223.961 108.95 223.961 109.577V110.192H216.736V109.428H223.091V109.313C223.085 108.745 222.971 108.218 222.748 107.731C222.531 107.239 222.212 106.841 221.79 106.536C221.374 106.231 220.861 106.079 220.252 106.079C219.777 106.079 219.344 106.182 218.951 106.387C218.564 106.586 218.23 106.867 217.949 107.23C217.668 107.588 217.451 108.013 217.299 108.505C217.146 108.991 217.07 109.527 217.07 110.113V110.491C217.07 111.036 217.152 111.546 217.316 112.021C217.486 112.495 217.721 112.911 218.02 113.269C218.324 113.626 218.685 113.907 219.101 114.112C219.517 114.317 219.971 114.42 220.463 114.42C221.02 114.42 221.521 114.32 221.966 114.121C222.411 113.916 222.815 113.579 223.179 113.11L223.732 113.532C223.527 113.837 223.272 114.115 222.968 114.367C222.663 114.613 222.303 114.81 221.887 114.956C221.471 115.103 220.987 115.176 220.437 115.176ZM229.489 114.411C229.946 114.411 230.377 114.326 230.781 114.156C231.191 113.98 231.531 113.72 231.801 113.374C232.076 113.028 232.231 112.595 232.267 112.073H233.102C233.072 112.688 232.891 113.23 232.557 113.699C232.223 114.168 231.786 114.531 231.247 114.789C230.714 115.047 230.128 115.176 229.489 115.176C228.839 115.176 228.265 115.059 227.767 114.824C227.269 114.584 226.85 114.25 226.51 113.822C226.176 113.395 225.921 112.894 225.745 112.319C225.575 111.739 225.49 111.109 225.49 110.43V110.061C225.49 109.381 225.575 108.754 225.745 108.18C225.921 107.6 226.176 107.096 226.51 106.668C226.85 106.24 227.266 105.909 227.758 105.675C228.256 105.435 228.83 105.314 229.48 105.314C230.137 105.314 230.731 105.449 231.265 105.719C231.804 105.982 232.237 106.366 232.565 106.87C232.894 107.368 233.072 107.969 233.102 108.672H232.267C232.237 108.121 232.094 107.655 231.836 107.274C231.578 106.888 231.244 106.592 230.834 106.387C230.424 106.182 229.973 106.079 229.48 106.079C228.924 106.079 228.446 106.188 228.048 106.404C227.655 106.615 227.333 106.908 227.081 107.283C226.835 107.652 226.65 108.074 226.527 108.549C226.41 109.023 226.352 109.527 226.352 110.061V110.43C226.352 110.963 226.41 111.47 226.527 111.95C226.645 112.425 226.829 112.847 227.081 113.216C227.333 113.585 227.658 113.878 228.057 114.095C228.455 114.306 228.933 114.411 229.489 114.411ZM238.779 105.49V106.237H234.121V105.49H238.779ZM235.87 103.012H236.749V112.697C236.749 113.172 236.808 113.532 236.925 113.778C237.048 114.019 237.209 114.18 237.408 114.262C237.607 114.344 237.821 114.385 238.05 114.385C238.214 114.385 238.366 114.376 238.507 114.358C238.653 114.341 238.794 114.32 238.929 114.297L238.981 115.044C238.853 115.085 238.686 115.117 238.48 115.141C238.275 115.164 238.082 115.176 237.9 115.176C237.496 115.176 237.142 115.103 236.837 114.956C236.532 114.804 236.295 114.549 236.125 114.191C235.955 113.828 235.87 113.33 235.87 112.697V103.012ZM247.243 112.803V105.49H248.122V115H247.27L247.243 112.803ZM247.401 111.115L247.894 111.098C247.894 111.684 247.823 112.226 247.683 112.724C247.542 113.216 247.319 113.646 247.015 114.016C246.716 114.385 246.329 114.672 245.854 114.877C245.38 115.076 244.812 115.176 244.149 115.176C243.687 115.176 243.262 115.111 242.875 114.982C242.494 114.848 242.163 114.637 241.882 114.35C241.606 114.062 241.393 113.69 241.24 113.233C241.094 112.771 241.021 112.214 241.021 111.563V105.49H241.891V111.581C241.891 112.108 241.949 112.554 242.066 112.917C242.189 113.274 242.356 113.562 242.567 113.778C242.784 113.995 243.033 114.153 243.314 114.253C243.596 114.347 243.9 114.394 244.229 114.394C245.025 114.394 245.655 114.241 246.118 113.937C246.581 113.626 246.909 113.222 247.103 112.724C247.302 112.22 247.401 111.684 247.401 111.115ZM251.805 107.09V115H250.935V105.49H251.787L251.805 107.09ZM255.303 105.42L255.268 106.211C255.156 106.193 255.045 106.182 254.934 106.176C254.828 106.164 254.714 106.158 254.591 106.158C254.11 106.158 253.688 106.249 253.325 106.431C252.962 106.612 252.657 106.864 252.411 107.187C252.171 107.509 251.986 107.884 251.857 108.312C251.734 108.733 251.667 109.19 251.655 109.683L251.295 109.788C251.295 109.149 251.359 108.561 251.488 108.021C251.623 107.477 251.828 107.002 252.104 106.598C252.379 106.193 252.725 105.88 253.141 105.657C253.557 105.429 254.049 105.314 254.617 105.314C254.752 105.314 254.881 105.326 255.004 105.35C255.133 105.367 255.232 105.391 255.303 105.42ZM260.409 115.176C259.8 115.176 259.237 115.062 258.722 114.833C258.206 114.604 257.758 114.282 257.377 113.866C256.996 113.444 256.7 112.949 256.489 112.381C256.278 111.807 256.173 111.177 256.173 110.491V110.113C256.173 109.387 256.278 108.73 256.489 108.145C256.706 107.559 257.002 107.055 257.377 106.633C257.758 106.205 258.191 105.88 258.678 105.657C259.164 105.429 259.68 105.314 260.225 105.314C260.799 105.314 261.314 105.42 261.771 105.631C262.234 105.836 262.627 106.129 262.949 106.51C263.271 106.891 263.515 107.342 263.679 107.863C263.849 108.379 263.934 108.95 263.934 109.577V110.192H256.709V109.428H263.063V109.313C263.058 108.745 262.943 108.218 262.721 107.731C262.504 107.239 262.185 106.841 261.763 106.536C261.347 106.231 260.834 106.079 260.225 106.079C259.75 106.079 259.316 106.182 258.924 106.387C258.537 106.586 258.203 106.867 257.922 107.23C257.641 107.588 257.424 108.013 257.271 108.505C257.119 108.991 257.043 109.527 257.043 110.113V110.491C257.043 111.036 257.125 111.546 257.289 112.021C257.459 112.495 257.693 112.911 257.992 113.269C258.297 113.626 258.657 113.907 259.073 114.112C259.489 114.317 259.943 114.42 260.436 114.42C260.992 114.42 261.493 114.32 261.938 114.121C262.384 113.916 262.788 113.579 263.151 113.11L263.705 113.532C263.5 113.837 263.245 114.115 262.94 114.367C262.636 114.613 262.275 114.81 261.859 114.956C261.443 115.103 260.96 115.176 260.409 115.176ZM272.354 108.162L274.454 106.554C274.829 106.272 275.143 105.965 275.395 105.631C275.652 105.291 275.781 104.904 275.781 104.471C275.781 104.031 275.626 103.642 275.315 103.302C275.011 102.956 274.568 102.783 273.988 102.783C273.555 102.783 273.188 102.877 272.89 103.064C272.597 103.252 272.374 103.504 272.222 103.82C272.075 104.131 272.002 104.474 272.002 104.849C272.002 105.136 272.055 105.435 272.16 105.745C272.271 106.05 272.433 106.369 272.644 106.703C272.86 107.037 273.121 107.383 273.426 107.74L279.701 115H278.646L273.241 108.777C272.813 108.273 272.438 107.811 272.116 107.389C271.8 106.961 271.554 106.545 271.378 106.141C271.208 105.73 271.123 105.309 271.123 104.875C271.123 104.295 271.24 103.791 271.475 103.363C271.709 102.936 272.04 102.604 272.468 102.37C272.896 102.136 273.402 102.019 273.988 102.019C274.545 102.019 275.02 102.133 275.412 102.361C275.805 102.584 276.104 102.88 276.309 103.249C276.52 103.618 276.625 104.025 276.625 104.471C276.625 104.846 276.537 105.197 276.361 105.525C276.186 105.854 275.966 106.152 275.702 106.422C275.444 106.686 275.184 106.923 274.92 107.134L272.635 108.9C272.113 109.34 271.721 109.738 271.457 110.096C271.199 110.453 271.026 110.772 270.938 111.054C270.856 111.329 270.815 111.572 270.815 111.783C270.815 112.246 270.924 112.677 271.141 113.075C271.363 113.474 271.7 113.796 272.151 114.042C272.608 114.288 273.183 114.411 273.874 114.411C274.442 114.411 274.99 114.291 275.518 114.051C276.051 113.805 276.525 113.459 276.941 113.014C277.357 112.562 277.688 112.026 277.935 111.405C278.181 110.778 278.304 110.084 278.304 109.322H279.121C279.121 109.873 279.065 110.386 278.954 110.86C278.849 111.335 278.693 111.774 278.488 112.179C278.283 112.583 278.034 112.955 277.741 113.295C277.694 113.354 277.665 113.395 277.653 113.418C277.642 113.441 277.612 113.477 277.565 113.523C277.091 114.021 276.537 114.423 275.904 114.728C275.277 115.026 274.601 115.176 273.874 115.176C273.065 115.176 272.368 115.035 271.782 114.754C271.196 114.473 270.745 114.077 270.429 113.567C270.112 113.058 269.954 112.463 269.954 111.783C269.954 111.279 270.06 110.819 270.271 110.403C270.487 109.987 270.777 109.598 271.141 109.234C271.504 108.871 271.908 108.514 272.354 108.162ZM286.653 107.318V118.656H285.783V105.49H286.601L286.653 107.318ZM293.324 110.157V110.342C293.324 111.057 293.242 111.71 293.078 112.302C292.92 112.888 292.686 113.397 292.375 113.831C292.07 114.259 291.692 114.59 291.241 114.824C290.796 115.059 290.286 115.176 289.712 115.176C289.155 115.176 288.657 115.094 288.218 114.93C287.778 114.76 287.4 114.522 287.084 114.218C286.768 113.907 286.513 113.547 286.319 113.137C286.126 112.727 285.994 112.284 285.924 111.81V108.927C286.018 108.394 286.164 107.907 286.363 107.468C286.562 107.028 286.817 106.647 287.128 106.325C287.438 106.003 287.808 105.754 288.235 105.578C288.663 105.402 289.149 105.314 289.694 105.314C290.269 105.314 290.781 105.429 291.232 105.657C291.684 105.88 292.064 106.202 292.375 106.624C292.686 107.046 292.92 107.556 293.078 108.153C293.242 108.745 293.324 109.413 293.324 110.157ZM292.445 110.342V110.157C292.445 109.577 292.387 109.041 292.27 108.549C292.152 108.057 291.974 107.629 291.733 107.266C291.499 106.896 291.197 106.609 290.828 106.404C290.465 106.199 290.034 106.097 289.536 106.097C289.003 106.097 288.549 106.185 288.174 106.36C287.805 106.536 287.5 106.768 287.26 107.055C287.025 107.336 286.838 107.641 286.697 107.969C286.562 108.297 286.463 108.613 286.398 108.918V111.889C286.51 112.346 286.694 112.765 286.952 113.146C287.21 113.526 287.553 113.834 287.98 114.068C288.414 114.297 288.938 114.411 289.554 114.411C290.046 114.411 290.474 114.309 290.837 114.104C291.2 113.893 291.499 113.605 291.733 113.242C291.974 112.873 292.152 112.442 292.27 111.95C292.387 111.452 292.445 110.916 292.445 110.342ZM296.734 105.49V115H295.864V105.49H296.734ZM295.662 102.669C295.662 102.493 295.721 102.344 295.838 102.221C295.955 102.092 296.11 102.027 296.304 102.027C296.503 102.027 296.661 102.092 296.778 102.221C296.901 102.344 296.963 102.493 296.963 102.669C296.963 102.845 296.901 102.994 296.778 103.117C296.661 103.24 296.503 103.302 296.304 103.302C296.11 103.302 295.955 103.24 295.838 103.117C295.721 102.994 295.662 102.845 295.662 102.669ZM300.54 107.318V118.656H299.67V105.49H300.487L300.54 107.318ZM307.211 110.157V110.342C307.211 111.057 307.129 111.71 306.965 112.302C306.807 112.888 306.572 113.397 306.262 113.831C305.957 114.259 305.579 114.59 305.128 114.824C304.683 115.059 304.173 115.176 303.599 115.176C303.042 115.176 302.544 115.094 302.104 114.93C301.665 114.76 301.287 114.522 300.971 114.218C300.654 113.907 300.399 113.547 300.206 113.137C300.013 112.727 299.881 112.284 299.811 111.81V108.927C299.904 108.394 300.051 107.907 300.25 107.468C300.449 107.028 300.704 106.647 301.015 106.325C301.325 106.003 301.694 105.754 302.122 105.578C302.55 105.402 303.036 105.314 303.581 105.314C304.155 105.314 304.668 105.429 305.119 105.657C305.57 105.88 305.951 106.202 306.262 106.624C306.572 107.046 306.807 107.556 306.965 108.153C307.129 108.745 307.211 109.413 307.211 110.157ZM306.332 110.342V110.157C306.332 109.577 306.273 109.041 306.156 108.549C306.039 108.057 305.86 107.629 305.62 107.266C305.386 106.896 305.084 106.609 304.715 106.404C304.352 106.199 303.921 106.097 303.423 106.097C302.89 106.097 302.436 106.185 302.061 106.36C301.691 106.536 301.387 106.768 301.146 107.055C300.912 107.336 300.725 107.641 300.584 107.969C300.449 108.297 300.35 108.613 300.285 108.918V111.889C300.396 112.346 300.581 112.765 300.839 113.146C301.097 113.526 301.439 113.834 301.867 114.068C302.301 114.297 302.825 114.411 303.44 114.411C303.933 114.411 304.36 114.309 304.724 114.104C305.087 113.893 305.386 113.605 305.62 113.242C305.86 112.873 306.039 112.442 306.156 111.95C306.273 111.452 306.332 110.916 306.332 110.342ZM313.231 115.176C312.622 115.176 312.06 115.062 311.544 114.833C311.028 114.604 310.58 114.282 310.199 113.866C309.818 113.444 309.522 112.949 309.312 112.381C309.101 111.807 308.995 111.177 308.995 110.491V110.113C308.995 109.387 309.101 108.73 309.312 108.145C309.528 107.559 309.824 107.055 310.199 106.633C310.58 106.205 311.014 105.88 311.5 105.657C311.986 105.429 312.502 105.314 313.047 105.314C313.621 105.314 314.137 105.42 314.594 105.631C315.057 105.836 315.449 106.129 315.771 106.51C316.094 106.891 316.337 107.342 316.501 107.863C316.671 108.379 316.756 108.95 316.756 109.577V110.192H309.531V109.428H315.886V109.313C315.88 108.745 315.766 108.218 315.543 107.731C315.326 107.239 315.007 106.841 314.585 106.536C314.169 106.231 313.656 106.079 313.047 106.079C312.572 106.079 312.139 106.182 311.746 106.387C311.359 106.586 311.025 106.867 310.744 107.23C310.463 107.588 310.246 108.013 310.094 108.505C309.941 108.991 309.865 109.527 309.865 110.113V110.491C309.865 111.036 309.947 111.546 310.111 112.021C310.281 112.495 310.516 112.911 310.814 113.269C311.119 113.626 311.479 113.907 311.896 114.112C312.312 114.317 312.766 114.42 313.258 114.42C313.814 114.42 314.315 114.32 314.761 114.121C315.206 113.916 315.61 113.579 315.974 113.11L316.527 113.532C316.322 113.837 316.067 114.115 315.763 114.367C315.458 114.613 315.098 114.81 314.682 114.956C314.266 115.103 313.782 115.176 313.231 115.176ZM319.85 101.5V115H318.979V101.5H319.85ZM323.787 105.49V115H322.917V105.49H323.787ZM322.715 102.669C322.715 102.493 322.773 102.344 322.891 102.221C323.008 102.092 323.163 102.027 323.356 102.027C323.556 102.027 323.714 102.092 323.831 102.221C323.954 102.344 324.016 102.493 324.016 102.669C324.016 102.845 323.954 102.994 323.831 103.117C323.714 103.24 323.556 103.302 323.356 103.302C323.163 103.302 323.008 103.24 322.891 103.117C322.773 102.994 322.715 102.845 322.715 102.669ZM327.602 107.521V115H326.731V105.49H327.575L327.602 107.521ZM327.417 109.586L327.021 109.243C327.062 108.716 327.18 108.215 327.373 107.74C327.566 107.266 327.827 106.847 328.155 106.483C328.483 106.12 328.87 105.836 329.315 105.631C329.761 105.42 330.25 105.314 330.783 105.314C331.258 105.314 331.683 105.379 332.058 105.508C332.433 105.637 332.749 105.842 333.007 106.123C333.271 106.404 333.47 106.768 333.604 107.213C333.745 107.652 333.815 108.188 333.815 108.821V115H332.945V108.812C332.945 108.109 332.846 107.562 332.646 107.169C332.453 106.776 332.181 106.498 331.829 106.334C331.483 106.17 331.073 106.088 330.599 106.088C330.065 106.088 329.603 106.205 329.21 106.439C328.817 106.674 328.489 106.973 328.226 107.336C327.968 107.699 327.771 108.083 327.637 108.487C327.502 108.886 327.429 109.252 327.417 109.586ZM340.214 115.176C339.604 115.176 339.042 115.062 338.526 114.833C338.011 114.604 337.562 114.282 337.182 113.866C336.801 113.444 336.505 112.949 336.294 112.381C336.083 111.807 335.978 111.177 335.978 110.491V110.113C335.978 109.387 336.083 108.73 336.294 108.145C336.511 107.559 336.807 107.055 337.182 106.633C337.562 106.205 337.996 105.88 338.482 105.657C338.969 105.429 339.484 105.314 340.029 105.314C340.604 105.314 341.119 105.42 341.576 105.631C342.039 105.836 342.432 106.129 342.754 106.51C343.076 106.891 343.319 107.342 343.483 107.863C343.653 108.379 343.738 108.95 343.738 109.577V110.192H336.514V109.428H342.868V109.313C342.862 108.745 342.748 108.218 342.525 107.731C342.309 107.239 341.989 106.841 341.567 106.536C341.151 106.231 340.639 106.079 340.029 106.079C339.555 106.079 339.121 106.182 338.729 106.387C338.342 106.586 338.008 106.867 337.727 107.23C337.445 107.588 337.229 108.013 337.076 108.505C336.924 108.991 336.848 109.527 336.848 110.113V110.491C336.848 111.036 336.93 111.546 337.094 112.021C337.264 112.495 337.498 112.911 337.797 113.269C338.102 113.626 338.462 113.907 338.878 114.112C339.294 114.317 339.748 114.42 340.24 114.42C340.797 114.42 341.298 114.32 341.743 114.121C342.188 113.916 342.593 113.579 342.956 113.11L343.51 113.532C343.305 113.837 343.05 114.115 342.745 114.367C342.44 114.613 342.08 114.81 341.664 114.956C341.248 115.103 340.765 115.176 340.214 115.176ZM350.189 101.5H351.06V113.154L351.007 115H350.189V101.5ZM357.739 110.157V110.342C357.739 111.057 357.657 111.71 357.493 112.302C357.329 112.888 357.092 113.397 356.781 113.831C356.477 114.259 356.099 114.59 355.647 114.824C355.202 115.059 354.695 115.176 354.127 115.176C353.57 115.176 353.072 115.091 352.633 114.921C352.199 114.751 351.827 114.511 351.517 114.2C351.206 113.89 350.954 113.526 350.761 113.11C350.573 112.694 350.444 112.243 350.374 111.757V108.927C350.462 108.394 350.603 107.907 350.796 107.468C350.995 107.028 351.247 106.647 351.552 106.325C351.862 106.003 352.229 105.754 352.65 105.578C353.078 105.402 353.564 105.314 354.109 105.314C354.684 105.314 355.196 105.429 355.647 105.657C356.099 105.88 356.477 106.202 356.781 106.624C357.092 107.046 357.329 107.556 357.493 108.153C357.657 108.745 357.739 109.413 357.739 110.157ZM356.852 110.342V110.157C356.852 109.577 356.796 109.041 356.685 108.549C356.573 108.057 356.4 107.629 356.166 107.266C355.932 106.896 355.633 106.609 355.27 106.404C354.906 106.199 354.476 106.097 353.978 106.097C353.444 106.097 352.99 106.185 352.615 106.36C352.246 106.536 351.941 106.768 351.701 107.055C351.467 107.336 351.282 107.641 351.147 107.969C351.013 108.297 350.913 108.613 350.849 108.918V111.845C350.948 112.296 351.127 112.715 351.385 113.102C351.643 113.488 351.985 113.802 352.413 114.042C352.847 114.276 353.374 114.394 353.995 114.394C354.487 114.394 354.912 114.291 355.27 114.086C355.633 113.881 355.929 113.597 356.157 113.233C356.392 112.87 356.564 112.442 356.676 111.95C356.793 111.452 356.852 110.916 356.852 110.342ZM361.141 101.5V115H360.271V101.5H361.141ZM370.272 112.803V105.49H371.151V115H370.299L370.272 112.803ZM370.431 111.115L370.923 111.098C370.923 111.684 370.853 112.226 370.712 112.724C370.571 113.216 370.349 113.646 370.044 114.016C369.745 114.385 369.358 114.672 368.884 114.877C368.409 115.076 367.841 115.176 367.179 115.176C366.716 115.176 366.291 115.111 365.904 114.982C365.523 114.848 365.192 114.637 364.911 114.35C364.636 114.062 364.422 113.69 364.27 113.233C364.123 112.771 364.05 112.214 364.05 111.563V105.49H364.92V111.581C364.92 112.108 364.979 112.554 365.096 112.917C365.219 113.274 365.386 113.562 365.597 113.778C365.813 113.995 366.062 114.153 366.344 114.253C366.625 114.347 366.93 114.394 367.258 114.394C368.055 114.394 368.685 114.241 369.147 113.937C369.61 113.626 369.938 113.222 370.132 112.724C370.331 112.22 370.431 111.684 370.431 111.115ZM377.567 115.176C376.958 115.176 376.396 115.062 375.88 114.833C375.364 114.604 374.916 114.282 374.535 113.866C374.154 113.444 373.858 112.949 373.647 112.381C373.437 111.807 373.331 111.177 373.331 110.491V110.113C373.331 109.387 373.437 108.73 373.647 108.145C373.864 107.559 374.16 107.055 374.535 106.633C374.916 106.205 375.35 105.88 375.836 105.657C376.322 105.429 376.838 105.314 377.383 105.314C377.957 105.314 378.473 105.42 378.93 105.631C379.393 105.836 379.785 106.129 380.107 106.51C380.43 106.891 380.673 107.342 380.837 107.863C381.007 108.379 381.092 108.95 381.092 109.577V110.192H373.867V109.428H380.222V109.313C380.216 108.745 380.102 108.218 379.879 107.731C379.662 107.239 379.343 106.841 378.921 106.536C378.505 106.231 377.992 106.079 377.383 106.079C376.908 106.079 376.475 106.182 376.082 106.387C375.695 106.586 375.361 106.867 375.08 107.23C374.799 107.588 374.582 108.013 374.43 108.505C374.277 108.991 374.201 109.527 374.201 110.113V110.491C374.201 111.036 374.283 111.546 374.447 112.021C374.617 112.495 374.852 112.911 375.15 113.269C375.455 113.626 375.815 113.907 376.231 114.112C376.647 114.317 377.102 114.42 377.594 114.42C378.15 114.42 378.651 114.32 379.097 114.121C379.542 113.916 379.946 113.579 380.31 113.11L380.863 113.532C380.658 113.837 380.403 114.115 380.099 114.367C379.794 114.613 379.434 114.81 379.018 114.956C378.602 115.103 378.118 115.176 377.567 115.176ZM384.054 107.318V118.656H383.184V105.49H384.001L384.054 107.318ZM390.725 110.157V110.342C390.725 111.057 390.643 111.71 390.479 112.302C390.32 112.888 390.086 113.397 389.775 113.831C389.471 114.259 389.093 114.59 388.642 114.824C388.196 115.059 387.687 115.176 387.112 115.176C386.556 115.176 386.058 115.094 385.618 114.93C385.179 114.76 384.801 114.522 384.484 114.218C384.168 113.907 383.913 113.547 383.72 113.137C383.526 112.727 383.395 112.284 383.324 111.81V108.927C383.418 108.394 383.564 107.907 383.764 107.468C383.963 107.028 384.218 106.647 384.528 106.325C384.839 106.003 385.208 105.754 385.636 105.578C386.063 105.402 386.55 105.314 387.095 105.314C387.669 105.314 388.182 105.429 388.633 105.657C389.084 105.88 389.465 106.202 389.775 106.624C390.086 107.046 390.32 107.556 390.479 108.153C390.643 108.745 390.725 109.413 390.725 110.157ZM389.846 110.342V110.157C389.846 109.577 389.787 109.041 389.67 108.549C389.553 108.057 389.374 107.629 389.134 107.266C388.899 106.896 388.598 106.609 388.229 106.404C387.865 106.199 387.435 106.097 386.937 106.097C386.403 106.097 385.949 106.185 385.574 106.36C385.205 106.536 384.9 106.768 384.66 107.055C384.426 107.336 384.238 107.641 384.098 107.969C383.963 108.297 383.863 108.613 383.799 108.918V111.889C383.91 112.346 384.095 112.765 384.353 113.146C384.61 113.526 384.953 113.834 385.381 114.068C385.814 114.297 386.339 114.411 386.954 114.411C387.446 114.411 387.874 114.309 388.237 114.104C388.601 113.893 388.899 113.605 389.134 113.242C389.374 112.873 389.553 112.442 389.67 111.95C389.787 111.452 389.846 110.916 389.846 110.342ZM394.012 107.09V115H393.142V105.49H393.994L394.012 107.09ZM397.51 105.42L397.475 106.211C397.363 106.193 397.252 106.182 397.141 106.176C397.035 106.164 396.921 106.158 396.798 106.158C396.317 106.158 395.896 106.249 395.532 106.431C395.169 106.612 394.864 106.864 394.618 107.187C394.378 107.509 394.193 107.884 394.064 108.312C393.941 108.733 393.874 109.19 393.862 109.683L393.502 109.788C393.502 109.149 393.566 108.561 393.695 108.021C393.83 107.477 394.035 107.002 394.311 106.598C394.586 106.193 394.932 105.88 395.348 105.657C395.764 105.429 396.256 105.314 396.824 105.314C396.959 105.314 397.088 105.326 397.211 105.35C397.34 105.367 397.439 105.391 397.51 105.42ZM400.182 105.49V115H399.312V105.49H400.182ZM399.109 102.669C399.109 102.493 399.168 102.344 399.285 102.221C399.402 102.092 399.558 102.027 399.751 102.027C399.95 102.027 400.108 102.092 400.226 102.221C400.349 102.344 400.41 102.493 400.41 102.669C400.41 102.845 400.349 102.994 400.226 103.117C400.108 103.24 399.95 103.302 399.751 103.302C399.558 103.302 399.402 103.24 399.285 103.117C399.168 102.994 399.109 102.845 399.109 102.669ZM403.996 107.521V115H403.126V105.49H403.97L403.996 107.521ZM403.812 109.586L403.416 109.243C403.457 108.716 403.574 108.215 403.768 107.74C403.961 107.266 404.222 106.847 404.55 106.483C404.878 106.12 405.265 105.836 405.71 105.631C406.155 105.42 406.645 105.314 407.178 105.314C407.652 105.314 408.077 105.379 408.452 105.508C408.827 105.637 409.144 105.842 409.401 106.123C409.665 106.404 409.864 106.768 409.999 107.213C410.14 107.652 410.21 108.188 410.21 108.821V115H409.34V108.812C409.34 108.109 409.24 107.562 409.041 107.169C408.848 106.776 408.575 106.498 408.224 106.334C407.878 106.17 407.468 106.088 406.993 106.088C406.46 106.088 405.997 106.205 405.604 106.439C405.212 106.674 404.884 106.973 404.62 107.336C404.362 107.699 404.166 108.083 404.031 108.487C403.896 108.886 403.823 109.252 403.812 109.586ZM416.494 105.49V106.237H411.836V105.49H416.494ZM413.585 103.012H414.464V112.697C414.464 113.172 414.522 113.532 414.64 113.778C414.763 114.019 414.924 114.18 415.123 114.262C415.322 114.344 415.536 114.385 415.765 114.385C415.929 114.385 416.081 114.376 416.222 114.358C416.368 114.341 416.509 114.32 416.644 114.297L416.696 115.044C416.567 115.085 416.4 115.117 416.195 115.141C415.99 115.164 415.797 115.176 415.615 115.176C415.211 115.176 414.856 115.103 414.552 114.956C414.247 114.804 414.01 114.549 413.84 114.191C413.67 113.828 413.585 113.33 413.585 112.697V103.012Z" fill="white"/>
<mask id="path-7-outside-1_395_851" maskUnits="userSpaceOnUse" x="0" y="45" width="62" height="83" fill="black">
<rect fill="white" y="45" width="62" height="83"/>
<path d="M56.5 110.305V123H6.89062V112.258L29.7422 88.2344C31.7604 85.9232 33.388 83.8561 34.625 82.0332C35.862 80.1777 36.7572 78.5013 37.3105 77.0039C37.8965 75.5065 38.1895 74.1556 38.1895 72.9512C38.1895 70.9004 37.8802 69.1914 37.2617 67.8242C36.6758 66.4245 35.7969 65.3665 34.625 64.6504C33.4857 63.9342 32.0697 63.5762 30.377 63.5762C28.6842 63.5762 27.2031 64.0645 25.9336 65.041C24.6641 66.0176 23.6712 67.3522 22.9551 69.0449C22.2715 70.7376 21.9297 72.6419 21.9297 74.7578H5.42578C5.42578 70.3958 6.48372 66.4082 8.59961 62.7949C10.748 59.1816 13.7266 56.3008 17.5352 54.1523C21.3438 51.9714 25.7546 50.8809 30.7676 50.8809C36.0085 50.8809 40.403 51.6947 43.9512 53.3223C47.4993 54.9499 50.1686 57.3099 51.959 60.4023C53.7819 63.4622 54.6934 67.1569 54.6934 71.4863C54.6934 73.9603 54.3027 76.3366 53.5215 78.6152C52.7402 80.8939 51.6172 83.1562 50.1523 85.4023C48.6875 87.6159 46.8971 89.8945 44.7812 92.2383C42.6979 94.582 40.3216 97.0723 37.6523 99.709L28.4727 110.305H56.5Z"/>
</mask>
<path d="M56.5 110.305H61.5V105.305H56.5V110.305ZM56.5 123V128H61.5V123H56.5ZM6.89062 123H1.89062V128H6.89062V123ZM6.89062 112.258L3.26783 108.812L1.89062 110.26V112.258H6.89062ZM29.7422 88.2344L33.365 91.6804L33.4383 91.6033L33.5084 91.5231L29.7422 88.2344ZM34.625 82.0332L38.7624 84.8407L38.7739 84.8238L38.7853 84.8067L34.625 82.0332ZM37.3105 77.0039L32.6543 75.1819L32.637 75.2261L32.6206 75.2707L37.3105 77.0039ZM37.2617 67.8242L32.6495 69.7549L32.6769 69.8204L32.7062 69.8851L37.2617 67.8242ZM34.625 64.6504L31.9641 68.8836L31.9908 68.9004L32.0177 68.9168L34.625 64.6504ZM22.9551 69.0449L18.3502 67.0967L18.3342 67.1345L18.3189 67.1726L22.9551 69.0449ZM21.9297 74.7578V79.7578H26.9297V74.7578H21.9297ZM5.42578 74.7578H0.425781V79.7578H5.42578V74.7578ZM8.59961 62.7949L4.30193 60.2395L4.29339 60.2539L4.28495 60.2683L8.59961 62.7949ZM17.5352 54.1523L19.9918 58.5072L20.0058 58.4993L20.0198 58.4913L17.5352 54.1523ZM51.959 60.4023L47.6319 62.9075L47.6475 62.9345L47.6635 62.9614L51.959 60.4023ZM50.1523 85.4023L54.322 88.1617L54.3312 88.1477L54.3404 88.1337L50.1523 85.4023ZM44.7812 92.2383L41.0699 88.8878L41.057 88.9021L41.0442 88.9165L44.7812 92.2383ZM37.6523 99.709L34.1386 96.1518L34.0004 96.2883L33.8733 96.435L37.6523 99.709ZM28.4727 110.305L24.6936 107.031L17.5254 115.305H28.4727V110.305ZM56.5 110.305H51.5V123H56.5H61.5V110.305H56.5ZM56.5 123V118H6.89062V123V128H56.5V123ZM6.89062 123H11.8906V112.258H6.89062H1.89062V123H6.89062ZM6.89062 112.258L10.5134 115.704L33.365 91.6804L29.7422 88.2344L26.1194 84.7883L3.26783 108.812L6.89062 112.258ZM29.7422 88.2344L33.5084 91.5231C35.6124 89.1136 37.3771 86.8821 38.7624 84.8407L34.625 82.0332L30.4876 79.2257C29.3989 80.8301 27.9084 82.7327 25.976 84.9456L29.7422 88.2344ZM34.625 82.0332L38.7853 84.8067C40.1604 82.744 41.2703 80.7132 42.0005 78.7372L37.3105 77.0039L32.6206 75.2707C32.2441 76.2894 31.5636 77.6114 30.4647 79.2597L34.625 82.0332ZM37.3105 77.0039L41.9668 78.8259C42.7082 76.9312 43.1895 74.9495 43.1895 72.9512H38.1895H33.1895C33.1895 73.3617 33.0848 74.0819 32.6543 75.1819L37.3105 77.0039ZM38.1895 72.9512H43.1895C43.1895 70.435 42.8153 67.9696 41.8173 65.7634L37.2617 67.8242L32.7062 69.8851C32.9451 70.4133 33.1895 71.3657 33.1895 72.9512H38.1895ZM37.2617 67.8242L41.8739 65.8935C40.9266 63.6305 39.3954 61.7059 37.2323 60.384L34.625 64.6504L32.0177 68.9168C32.1983 69.0272 32.4249 69.2184 32.6495 69.7549L37.2617 67.8242ZM34.625 64.6504L37.2859 60.4172C35.1673 59.0855 32.7699 58.5762 30.377 58.5762V63.5762V68.5762C31.3695 68.5762 31.8041 68.783 31.9641 68.8836L34.625 64.6504ZM30.377 63.5762V58.5762C27.6486 58.5762 25.0803 59.3892 22.885 61.0779L25.9336 65.041L28.9821 69.0041C29.3259 68.7397 29.7199 68.5762 30.377 68.5762V63.5762ZM25.9336 65.041L22.885 61.0779C20.8362 62.654 19.3524 64.7281 18.3502 67.0967L22.9551 69.0449L27.5599 70.9931C27.9901 69.9763 28.492 69.3812 28.9821 69.0041L25.9336 65.041ZM22.9551 69.0449L18.3189 67.1726C17.3599 69.5471 16.9297 72.101 16.9297 74.7578H21.9297H26.9297C26.9297 73.1828 27.183 71.9282 27.5913 70.9172L22.9551 69.0449ZM21.9297 74.7578V69.7578H5.42578V74.7578V79.7578H21.9297V74.7578ZM5.42578 74.7578H10.4258C10.4258 71.2453 11.2663 68.1357 12.9143 65.3215L8.59961 62.7949L4.28495 60.2683C1.70112 64.6807 0.425781 69.5464 0.425781 74.7578H5.42578ZM8.59961 62.7949L12.8973 65.3503C14.5813 62.5181 16.9116 60.2448 19.9918 58.5072L17.5352 54.1523L15.0786 49.7975C10.5416 52.3568 6.9148 55.8452 4.30193 60.2395L8.59961 62.7949ZM17.5352 54.1523L20.0198 58.4913C22.9698 56.802 26.5004 55.8809 30.7676 55.8809V50.8809V45.8809C25.0087 45.8809 19.7177 47.1407 15.0505 49.8134L17.5352 54.1523ZM30.7676 50.8809V55.8809C35.5227 55.8809 39.1559 56.6235 41.8665 57.8669L43.9512 53.3223L46.0359 48.7776C41.6501 46.7658 36.4943 45.8809 30.7676 45.8809V50.8809ZM43.9512 53.3223L41.8665 57.8669C44.5655 59.105 46.4081 60.7938 47.6319 62.9075L51.959 60.4023L56.2861 57.8972C53.9291 53.826 50.4332 50.7947 46.0359 48.7776L43.9512 53.3223ZM51.959 60.4023L47.6635 62.9614C48.9352 65.096 49.6934 67.8637 49.6934 71.4863H54.6934H59.6934C59.6934 66.4501 58.6286 61.8285 56.2545 57.8433L51.959 60.4023ZM54.6934 71.4863H49.6934C49.6934 73.4237 49.3892 75.251 48.7918 76.9936L53.5215 78.6152L58.2512 80.2369C59.2162 77.4222 59.6934 74.4969 59.6934 71.4863H54.6934ZM53.5215 78.6152L48.7918 76.9936C48.1587 78.8402 47.2285 80.7325 45.9643 82.671L50.1523 85.4023L54.3404 88.1337C56.0058 85.58 57.3218 82.9476 58.2512 80.2369L53.5215 78.6152ZM50.1523 85.4023L45.9827 82.643C44.6786 84.6137 43.0488 86.6957 41.0699 88.8878L44.7812 92.2383L48.4926 95.5888C50.7454 93.0933 52.6964 90.6181 54.322 88.1617L50.1523 85.4023ZM44.7812 92.2383L41.0442 88.9165C39.045 91.1655 36.7453 93.5769 34.1386 96.1518L37.6523 99.709L41.1661 103.266C43.8979 100.568 46.3508 97.9985 48.5183 95.5601L44.7812 92.2383ZM37.6523 99.709L33.8733 96.435L24.6936 107.031L28.4727 110.305L32.2517 113.579L41.4314 102.983L37.6523 99.709ZM28.4727 110.305V115.305H56.5V110.305V105.305H28.4727V110.305Z" fill="#1A5069" mask="url(#path-7-outside-1_395_851)"/>
<defs>
<radialGradient id="paint0_radial_395_851" cx="0" cy="0" r="1" gradientUnits="userSpaceOnUse" gradientTransform="translate(96.2628 221.995) scale(96.2628 221.995)">
<stop stop-color="#1A5069"/>
<stop offset="1" stop-color="#0F7BAE" stop-opacity="0"/>
</radialGradient>
<radialGradient id="paint1_radial_395_851" cx="0" cy="0" r="1" gradientUnits="userSpaceOnUse" gradientTransform="translate(96.2628 221.995) scale(96.2628 221.995)">
<stop stop-color="#1A5069"/>
<stop offset="1" stop-color="#0F7BAE" stop-opacity="0"/>
</radialGradient>
</defs>
</svg>
