<svg width="563" height="180" viewBox="0 0 563 180" fill="none" xmlns="http://www.w3.org/2000/svg">
<mask id="mask0_395_884" style="mask-type:alpha" maskUnits="userSpaceOnUse" x="73" y="0" width="439" height="179">
<rect x="-1.00093" y="0.991997" width="174.036" height="436.409" rx="87.0179" transform="matrix(-0.000966365 1 -0.999968 -0.00800285 511.555 5.50966)" fill="black" stroke="#136A93" stroke-width="2"/>
</mask>
<g mask="url(#mask0_395_884)">
<rect width="192.526" height="443.99" rx="47.5" transform="matrix(-0.000966365 1 -0.999968 -0.00800285 677.686 68.4434)" fill="url(#paint0_radial_395_884)" fill-opacity="0.74"/>
<rect width="192.526" height="443.99" rx="47.5" transform="matrix(-0.000966365 1 -0.999968 -0.00800285 351.023 -57.9541)" fill="url(#paint1_radial_395_884)" fill-opacity="0.74"/>
</g>
<rect x="75.3828" y="1.54688" width="435.608" height="175.235" rx="87.6177" fill="#D9D9D9" fill-opacity="0.14" stroke="#136A93" stroke-width="2"/>
<path d="M252.685 65.9263V67.208C252.685 69.0879 252.434 70.7798 251.933 72.2837C251.432 73.7762 250.72 75.0465 249.797 76.0947C248.874 77.1429 247.775 77.9461 246.499 78.5044C245.222 79.0627 243.804 79.3418 242.243 79.3418C240.705 79.3418 239.292 79.0627 238.005 78.5044C236.729 77.9461 235.624 77.1429 234.689 76.0947C233.755 75.0465 233.032 73.7762 232.519 72.2837C232.006 70.7798 231.75 69.0879 231.75 67.208V65.9263C231.75 64.035 232.006 62.3431 232.519 60.8506C233.032 59.3581 233.75 58.0877 234.672 57.0396C235.595 55.98 236.695 55.1711 237.971 54.6128C239.258 54.0545 240.671 53.7754 242.209 53.7754C243.77 53.7754 245.188 54.0545 246.464 54.6128C247.74 55.1711 248.84 55.98 249.763 57.0396C250.697 58.0877 251.415 59.3581 251.916 60.8506C252.429 62.3431 252.685 64.035 252.685 65.9263ZM247.934 67.208V65.8921C247.934 64.5363 247.809 63.3457 247.558 62.3203C247.307 61.2835 246.937 60.4119 246.447 59.7056C245.957 58.9992 245.354 58.4694 244.636 58.1162C243.918 57.7516 243.109 57.5693 242.209 57.5693C241.298 57.5693 240.489 57.7516 239.782 58.1162C239.087 58.4694 238.495 58.9992 238.005 59.7056C237.515 60.4119 237.139 61.2835 236.877 62.3203C236.626 63.3457 236.501 64.5363 236.501 65.8921V67.208C236.501 68.5524 236.626 69.743 236.877 70.7798C237.139 71.8166 237.515 72.6938 238.005 73.4116C238.506 74.118 239.11 74.6535 239.816 75.0181C240.523 75.3826 241.332 75.5649 242.243 75.5649C243.155 75.5649 243.964 75.3826 244.67 75.0181C245.376 74.6535 245.969 74.118 246.447 73.4116C246.937 72.6938 247.307 71.8166 247.558 70.7798C247.809 69.743 247.934 68.5524 247.934 67.208ZM260.587 64.0635V86.1094H256.058V60.5088H260.245L260.587 64.0635ZM272.464 69.5664V69.9253C272.464 71.2697 272.305 72.5173 271.986 73.668C271.678 74.8073 271.222 75.8042 270.619 76.6587C270.015 77.5018 269.263 78.1626 268.363 78.6411C267.474 79.1082 266.449 79.3418 265.287 79.3418C264.147 79.3418 263.156 79.1253 262.313 78.6924C261.47 78.248 260.758 77.6214 260.177 76.8125C259.596 76.0036 259.129 75.0636 258.775 73.9927C258.434 72.9103 258.177 71.7311 258.006 70.4551V69.3101C258.177 67.9543 258.434 66.7238 258.775 65.6187C259.129 64.5021 259.596 63.5394 260.177 62.7305C260.758 61.9102 261.464 61.2778 262.296 60.8335C263.139 60.3892 264.125 60.167 265.252 60.167C266.426 60.167 267.457 60.3892 268.346 60.8335C269.246 61.2778 270.003 61.9159 270.619 62.7476C271.234 63.5793 271.695 64.5705 272.003 65.7212C272.311 66.8719 272.464 68.1536 272.464 69.5664ZM267.936 69.9253V69.5664C267.936 68.7461 267.861 67.9884 267.713 67.2935C267.565 66.5871 267.337 65.9718 267.03 65.4478C266.722 64.9123 266.323 64.4964 265.833 64.2002C265.344 63.904 264.751 63.7559 264.056 63.7559C263.361 63.7559 262.763 63.8698 262.262 64.0977C261.76 64.3255 261.35 64.6502 261.031 65.0718C260.712 65.4933 260.462 65.9946 260.279 66.5757C260.108 67.1453 259.994 67.7777 259.938 68.4727V71.3096C260.04 72.1527 260.239 72.9103 260.536 73.5825C260.832 74.2547 261.265 74.7902 261.834 75.189C262.416 75.5877 263.167 75.7871 264.09 75.7871C264.785 75.7871 265.378 75.6333 265.868 75.3257C266.358 75.0181 266.756 74.5965 267.064 74.061C267.372 73.5142 267.594 72.8875 267.73 72.1812C267.867 71.4748 267.936 70.7228 267.936 69.9253ZM284.263 60.5088V63.7559H273.667V60.5088H284.263ZM276.504 55.9629H281.033V73.668C281.033 74.2148 281.107 74.6364 281.255 74.9326C281.403 75.2288 281.625 75.4282 281.921 75.5308C282.218 75.6333 282.571 75.6846 282.981 75.6846C283.277 75.6846 283.551 75.6675 283.801 75.6333C284.052 75.5991 284.263 75.5649 284.434 75.5308L284.451 78.9146C284.075 79.0399 283.647 79.1424 283.169 79.2222C282.702 79.3019 282.172 79.3418 281.58 79.3418C280.566 79.3418 279.677 79.1709 278.914 78.8291C278.15 78.4759 277.558 77.9119 277.136 77.1372C276.715 76.3511 276.504 75.3143 276.504 74.0269V55.9629ZM291.806 60.5088V79H287.277V60.5088H291.806ZM286.969 55.6724C286.969 55.0002 287.197 54.4419 287.653 53.9976C288.12 53.5532 288.747 53.3311 289.533 53.3311C290.319 53.3311 290.94 53.5532 291.396 53.9976C291.863 54.4419 292.096 55.0002 292.096 55.6724C292.096 56.3332 291.863 56.8857 291.396 57.3301C290.94 57.7744 290.319 57.9966 289.533 57.9966C288.747 57.9966 288.12 57.7744 287.653 57.3301C287.197 56.8857 286.969 56.3332 286.969 55.6724ZM300.357 64.3027V79H295.845V60.5088H300.101L300.357 64.3027ZM299.69 69.0879H298.306C298.306 67.8005 298.46 66.6156 298.768 65.5332C299.087 64.4508 299.554 63.5109 300.169 62.7134C300.784 61.9045 301.542 61.2778 302.442 60.8335C303.353 60.3892 304.407 60.167 305.604 60.167C306.435 60.167 307.199 60.2923 307.894 60.543C308.589 60.7822 309.187 61.1639 309.688 61.688C310.201 62.2007 310.594 62.8729 310.867 63.7046C311.141 64.5249 311.277 65.5104 311.277 66.6611V79H306.766V67.1226C306.766 66.2567 306.64 65.5788 306.39 65.0889C306.15 64.599 305.803 64.2572 305.347 64.0635C304.891 63.8584 304.345 63.7559 303.707 63.7559C303 63.7559 302.391 63.8983 301.878 64.1831C301.377 64.4565 300.961 64.8382 300.63 65.3281C300.311 65.818 300.072 66.382 299.913 67.02C299.764 67.658 299.69 68.3473 299.69 69.0879ZM310.936 68.2505L309.073 68.5923C309.084 67.4302 309.244 66.3421 309.551 65.3281C309.859 64.3027 310.309 63.4084 310.901 62.645C311.505 61.8703 312.251 61.2664 313.14 60.8335C314.04 60.3892 315.077 60.167 316.25 60.167C317.162 60.167 317.982 60.298 318.711 60.5601C319.452 60.8107 320.084 61.2152 320.608 61.7734C321.132 62.3203 321.531 63.0324 321.805 63.9097C322.09 64.7869 322.232 65.8579 322.232 67.1226V79H317.686V67.1055C317.686 66.2054 317.561 65.5161 317.31 65.0376C317.071 64.5591 316.723 64.2287 316.268 64.0464C315.812 63.8527 315.276 63.7559 314.661 63.7559C314.035 63.7559 313.488 63.8755 313.021 64.1147C312.565 64.3426 312.177 64.6616 311.858 65.0718C311.551 65.4819 311.317 65.9604 311.158 66.5073C311.01 67.0428 310.936 67.6239 310.936 68.2505ZM330.817 60.5088V79H326.289V60.5088H330.817ZM325.981 55.6724C325.981 55.0002 326.209 54.4419 326.665 53.9976C327.132 53.5532 327.758 53.3311 328.544 53.3311C329.331 53.3311 329.951 53.5532 330.407 53.9976C330.874 54.4419 331.108 55.0002 331.108 55.6724C331.108 56.3332 330.874 56.8857 330.407 57.3301C329.951 57.7744 329.331 57.9966 328.544 57.9966C327.758 57.9966 327.132 57.7744 326.665 57.3301C326.209 56.8857 325.981 56.3332 325.981 55.6724ZM349.366 75.4453V79H335.455V75.4453H349.366ZM349.042 63.209L337.147 79H334.173V76.2144L346 60.5088H349.042V63.209ZM347.384 60.5088V64.0806H334.413V60.5088H347.384ZM360.361 79.3418C358.96 79.3418 357.701 79.1139 356.584 78.6582C355.468 78.2025 354.517 77.5701 353.73 76.7612C352.956 75.9409 352.358 74.9896 351.936 73.9072C351.526 72.8135 351.321 71.64 351.321 70.3867V69.7031C351.321 68.279 351.526 66.9858 351.936 65.8237C352.346 64.6502 352.927 63.6419 353.679 62.7988C354.431 61.9557 355.331 61.3063 356.379 60.8506C357.428 60.3949 358.584 60.167 359.849 60.167C361.159 60.167 362.315 60.3892 363.318 60.8335C364.32 61.2664 365.158 61.8817 365.83 62.6792C366.502 63.4767 367.009 64.4338 367.351 65.5503C367.693 66.6554 367.864 67.8802 367.864 69.2246V71.1216H353.372V68.0112H363.42V67.6694C363.398 66.9517 363.261 66.2965 363.01 65.7041C362.76 65.1003 362.372 64.6217 361.848 64.2686C361.324 63.904 360.646 63.7217 359.814 63.7217C359.142 63.7217 358.556 63.8698 358.054 64.166C357.564 64.4508 357.154 64.861 356.824 65.3965C356.505 65.9206 356.265 66.5472 356.106 67.2764C355.946 68.0055 355.867 68.8145 355.867 69.7031V70.3867C355.867 71.1615 355.969 71.8792 356.174 72.54C356.391 73.2008 356.704 73.7762 357.114 74.2661C357.536 74.7446 358.037 75.1206 358.618 75.394C359.211 75.6561 359.883 75.7871 360.635 75.7871C361.58 75.7871 362.435 75.6048 363.198 75.2402C363.973 74.8643 364.645 74.3117 365.215 73.5825L367.488 75.9409C367.1 76.5106 366.576 77.0575 365.916 77.5815C365.266 78.1056 364.48 78.5329 363.557 78.8633C362.634 79.1823 361.569 79.3418 360.361 79.3418Z" fill="#EDD5B1"/>
<path d="M170.214 107.828V109.375C170.214 110.248 170.097 111.042 169.862 111.757C169.634 112.472 169.306 113.084 168.878 113.594C168.45 114.104 167.932 114.496 167.322 114.771C166.719 115.041 166.042 115.176 165.292 115.176C164.548 115.176 163.871 115.041 163.262 114.771C162.658 114.496 162.137 114.104 161.697 113.594C161.264 113.084 160.93 112.472 160.695 111.757C160.461 111.042 160.344 110.248 160.344 109.375V107.828C160.344 106.949 160.461 106.155 160.695 105.446C160.93 104.737 161.264 104.128 161.697 103.618C162.131 103.103 162.649 102.71 163.253 102.44C163.856 102.165 164.53 102.027 165.274 102.027C166.024 102.027 166.701 102.165 167.305 102.44C167.914 102.71 168.436 103.103 168.869 103.618C169.303 104.128 169.634 104.737 169.862 105.446C170.097 106.155 170.214 106.949 170.214 107.828ZM169.326 109.375V107.811C169.326 107.061 169.235 106.381 169.054 105.771C168.878 105.156 168.614 104.632 168.263 104.198C167.917 103.759 167.492 103.422 166.988 103.188C166.484 102.953 165.913 102.836 165.274 102.836C164.642 102.836 164.076 102.953 163.578 103.188C163.08 103.422 162.655 103.759 162.304 104.198C161.958 104.632 161.694 105.156 161.513 105.771C161.331 106.381 161.24 107.061 161.24 107.811V109.375C161.24 110.131 161.331 110.816 161.513 111.432C161.7 112.047 161.967 112.574 162.312 113.014C162.664 113.447 163.089 113.784 163.587 114.024C164.091 114.259 164.659 114.376 165.292 114.376C165.937 114.376 166.508 114.259 167.006 114.024C167.504 113.784 167.926 113.447 168.271 113.014C168.617 112.574 168.878 112.047 169.054 111.432C169.235 110.816 169.326 110.131 169.326 109.375ZM173.633 107.521V115H172.763V105.49H173.606L173.633 107.521ZM173.448 109.586L173.053 109.243C173.094 108.716 173.211 108.215 173.404 107.74C173.598 107.266 173.858 106.847 174.187 106.483C174.515 106.12 174.901 105.836 175.347 105.631C175.792 105.42 176.281 105.314 176.814 105.314C177.289 105.314 177.714 105.379 178.089 105.508C178.464 105.637 178.78 105.842 179.038 106.123C179.302 106.404 179.501 106.768 179.636 107.213C179.776 107.652 179.847 108.188 179.847 108.821V115H178.977V108.812C178.977 108.109 178.877 107.562 178.678 107.169C178.484 106.776 178.212 106.498 177.86 106.334C177.515 106.17 177.104 106.088 176.63 106.088C176.097 106.088 175.634 106.205 175.241 106.439C174.849 106.674 174.521 106.973 174.257 107.336C173.999 107.699 173.803 108.083 173.668 108.487C173.533 108.886 173.46 109.252 173.448 109.586ZM188.935 105.49H189.752V114.842C189.752 115.662 189.6 116.368 189.295 116.96C188.99 117.558 188.557 118.015 187.994 118.331C187.438 118.647 186.778 118.806 186.017 118.806C185.601 118.806 185.19 118.744 184.786 118.621C184.382 118.498 184.004 118.313 183.652 118.067C183.307 117.827 183.011 117.534 182.765 117.188L183.274 116.652C183.655 117.121 184.065 117.47 184.505 117.698C184.944 117.927 185.431 118.041 185.964 118.041C186.591 118.041 187.121 117.912 187.555 117.654C187.988 117.402 188.316 117.039 188.539 116.564C188.768 116.09 188.882 115.524 188.882 114.868V107.582L188.935 105.49ZM182.22 110.342V110.157C182.22 109.413 182.302 108.745 182.466 108.153C182.63 107.556 182.867 107.046 183.178 106.624C183.494 106.202 183.878 105.88 184.329 105.657C184.78 105.429 185.29 105.314 185.858 105.314C186.403 105.314 186.887 105.402 187.309 105.578C187.73 105.754 188.094 106.003 188.398 106.325C188.709 106.647 188.961 107.028 189.154 107.468C189.348 107.907 189.491 108.394 189.585 108.927V111.757C189.509 112.243 189.377 112.694 189.189 113.11C189.002 113.526 188.753 113.89 188.442 114.2C188.132 114.511 187.76 114.751 187.326 114.921C186.898 115.091 186.403 115.176 185.841 115.176C185.278 115.176 184.771 115.059 184.32 114.824C183.875 114.59 183.494 114.259 183.178 113.831C182.867 113.397 182.63 112.888 182.466 112.302C182.302 111.71 182.22 111.057 182.22 110.342ZM183.09 110.157V110.342C183.09 110.916 183.148 111.452 183.266 111.95C183.383 112.442 183.559 112.87 183.793 113.233C184.033 113.597 184.332 113.881 184.689 114.086C185.053 114.291 185.48 114.394 185.973 114.394C186.594 114.394 187.118 114.279 187.546 114.051C187.974 113.816 188.313 113.506 188.565 113.119C188.817 112.732 188.996 112.308 189.102 111.845V108.918C189.037 108.613 188.938 108.297 188.803 107.969C188.674 107.641 188.489 107.336 188.249 107.055C188.015 106.768 187.713 106.536 187.344 106.36C186.975 106.185 186.523 106.097 185.99 106.097C185.492 106.097 185.062 106.199 184.698 106.404C184.335 106.609 184.033 106.896 183.793 107.266C183.559 107.629 183.383 108.057 183.266 108.549C183.148 109.041 183.09 109.577 183.09 110.157ZM191.976 110.403V110.087C191.976 109.396 192.075 108.76 192.274 108.18C192.474 107.594 192.758 107.087 193.127 106.659C193.496 106.231 193.938 105.9 194.454 105.666C194.976 105.432 195.553 105.314 196.186 105.314C196.824 105.314 197.401 105.432 197.917 105.666C198.438 105.9 198.884 106.231 199.253 106.659C199.628 107.087 199.915 107.594 200.114 108.18C200.313 108.76 200.413 109.396 200.413 110.087V110.403C200.413 111.095 200.313 111.733 200.114 112.319C199.915 112.899 199.628 113.403 199.253 113.831C198.884 114.259 198.441 114.59 197.926 114.824C197.41 115.059 196.836 115.176 196.203 115.176C195.564 115.176 194.984 115.059 194.463 114.824C193.947 114.59 193.502 114.259 193.127 113.831C192.758 113.403 192.474 112.899 192.274 112.319C192.075 111.733 191.976 111.095 191.976 110.403ZM192.837 110.087V110.403C192.837 110.937 192.91 111.446 193.057 111.933C193.209 112.413 193.426 112.841 193.707 113.216C193.994 113.585 194.346 113.878 194.762 114.095C195.184 114.306 195.664 114.411 196.203 114.411C196.736 114.411 197.208 114.306 197.618 114.095C198.034 113.878 198.383 113.585 198.664 113.216C198.951 112.841 199.168 112.413 199.314 111.933C199.467 111.446 199.543 110.937 199.543 110.403V110.087C199.543 109.565 199.467 109.064 199.314 108.584C199.168 108.104 198.951 107.676 198.664 107.301C198.377 106.926 198.025 106.63 197.609 106.413C197.193 106.19 196.719 106.079 196.186 106.079C195.652 106.079 195.178 106.19 194.762 106.413C194.346 106.63 193.994 106.926 193.707 107.301C193.42 107.676 193.203 108.104 193.057 108.584C192.91 109.064 192.837 109.565 192.837 110.087ZM203.621 105.49V115H202.751V105.49H203.621ZM202.549 102.669C202.549 102.493 202.607 102.344 202.725 102.221C202.842 102.092 202.997 102.027 203.19 102.027C203.39 102.027 203.548 102.092 203.665 102.221C203.788 102.344 203.85 102.493 203.85 102.669C203.85 102.845 203.788 102.994 203.665 103.117C203.548 103.24 203.39 103.302 203.19 103.302C202.997 103.302 202.842 103.24 202.725 103.117C202.607 102.994 202.549 102.845 202.549 102.669ZM207.436 107.521V115H206.565V105.49H207.409L207.436 107.521ZM207.251 109.586L206.855 109.243C206.896 108.716 207.014 108.215 207.207 107.74C207.4 107.266 207.661 106.847 207.989 106.483C208.317 106.12 208.704 105.836 209.149 105.631C209.595 105.42 210.084 105.314 210.617 105.314C211.092 105.314 211.517 105.379 211.892 105.508C212.267 105.637 212.583 105.842 212.841 106.123C213.104 106.404 213.304 106.768 213.438 107.213C213.579 107.652 213.649 108.188 213.649 108.821V115H212.779V108.812C212.779 108.109 212.68 107.562 212.48 107.169C212.287 106.776 212.015 106.498 211.663 106.334C211.317 106.17 210.907 106.088 210.433 106.088C209.899 106.088 209.437 106.205 209.044 106.439C208.651 106.674 208.323 106.973 208.06 107.336C207.802 107.699 207.605 108.083 207.471 108.487C207.336 108.886 207.263 109.252 207.251 109.586ZM222.737 105.49H223.555V114.842C223.555 115.662 223.402 116.368 223.098 116.96C222.793 117.558 222.359 118.015 221.797 118.331C221.24 118.647 220.581 118.806 219.819 118.806C219.403 118.806 218.993 118.744 218.589 118.621C218.185 118.498 217.807 118.313 217.455 118.067C217.109 117.827 216.813 117.534 216.567 117.188L217.077 116.652C217.458 117.121 217.868 117.47 218.308 117.698C218.747 117.927 219.233 118.041 219.767 118.041C220.394 118.041 220.924 117.912 221.357 117.654C221.791 117.402 222.119 117.039 222.342 116.564C222.57 116.09 222.685 115.524 222.685 114.868V107.582L222.737 105.49ZM216.022 110.342V110.157C216.022 109.413 216.104 108.745 216.269 108.153C216.433 107.556 216.67 107.046 216.98 106.624C217.297 106.202 217.681 105.88 218.132 105.657C218.583 105.429 219.093 105.314 219.661 105.314C220.206 105.314 220.689 105.402 221.111 105.578C221.533 105.754 221.896 106.003 222.201 106.325C222.512 106.647 222.764 107.028 222.957 107.468C223.15 107.907 223.294 108.394 223.388 108.927V111.757C223.312 112.243 223.18 112.694 222.992 113.11C222.805 113.526 222.556 113.89 222.245 114.2C221.935 114.511 221.562 114.751 221.129 114.921C220.701 115.091 220.206 115.176 219.644 115.176C219.081 115.176 218.574 115.059 218.123 114.824C217.678 114.59 217.297 114.259 216.98 113.831C216.67 113.397 216.433 112.888 216.269 112.302C216.104 111.71 216.022 111.057 216.022 110.342ZM216.893 110.157V110.342C216.893 110.916 216.951 111.452 217.068 111.95C217.186 112.442 217.361 112.87 217.596 113.233C217.836 113.597 218.135 113.881 218.492 114.086C218.855 114.291 219.283 114.394 219.775 114.394C220.396 114.394 220.921 114.279 221.349 114.051C221.776 113.816 222.116 113.506 222.368 113.119C222.62 112.732 222.799 112.308 222.904 111.845V108.918C222.84 108.613 222.74 108.297 222.605 107.969C222.477 107.641 222.292 107.336 222.052 107.055C221.817 106.768 221.516 106.536 221.146 106.36C220.777 106.185 220.326 106.097 219.793 106.097C219.295 106.097 218.864 106.199 218.501 106.404C218.138 106.609 217.836 106.896 217.596 107.266C217.361 107.629 217.186 108.057 217.068 108.549C216.951 109.041 216.893 109.577 216.893 110.157ZM231.746 105.49V115H230.876V105.49H231.746ZM230.674 102.669C230.674 102.493 230.732 102.344 230.85 102.221C230.967 102.092 231.122 102.027 231.315 102.027C231.515 102.027 231.673 102.092 231.79 102.221C231.913 102.344 231.975 102.493 231.975 102.669C231.975 102.845 231.913 102.994 231.79 103.117C231.673 103.24 231.515 103.302 231.315 103.302C231.122 103.302 230.967 103.24 230.85 103.117C230.732 102.994 230.674 102.845 230.674 102.669ZM235.499 107.477V115H234.62V105.49H235.473L235.499 107.477ZM235.35 109.586L234.919 109.243C234.96 108.716 235.071 108.215 235.253 107.74C235.44 107.266 235.695 106.847 236.018 106.483C236.34 106.12 236.721 105.836 237.16 105.631C237.605 105.42 238.106 105.314 238.663 105.314C239.132 105.314 239.554 105.379 239.929 105.508C240.31 105.631 240.632 105.827 240.896 106.097C241.159 106.36 241.361 106.706 241.502 107.134C241.648 107.562 241.722 108.074 241.722 108.672V115H240.852V108.698C240.852 108.024 240.749 107.5 240.544 107.125C240.345 106.75 240.063 106.483 239.7 106.325C239.337 106.167 238.918 106.088 238.443 106.088C237.887 106.088 237.415 106.205 237.028 106.439C236.642 106.674 236.325 106.973 236.079 107.336C235.839 107.699 235.66 108.083 235.543 108.487C235.426 108.886 235.361 109.252 235.35 109.586ZM241.713 108.777L241.133 108.698C241.174 108.259 241.288 107.837 241.476 107.433C241.663 107.022 241.918 106.659 242.24 106.343C242.562 106.026 242.946 105.777 243.392 105.596C243.837 105.408 244.332 105.314 244.877 105.314C245.363 105.314 245.797 105.382 246.178 105.517C246.564 105.646 246.89 105.854 247.153 106.141C247.423 106.422 247.625 106.782 247.76 107.222C247.9 107.661 247.971 108.191 247.971 108.812V115H247.101V108.812C247.101 108.098 246.998 107.544 246.793 107.151C246.594 106.753 246.312 106.475 245.949 106.316C245.586 106.158 245.167 106.082 244.692 106.088C244.2 106.094 243.77 106.185 243.4 106.36C243.037 106.536 242.732 106.762 242.486 107.037C242.246 107.307 242.062 107.597 241.933 107.907C241.804 108.212 241.73 108.502 241.713 108.777ZM251.565 107.318V118.656H250.695V105.49H251.513L251.565 107.318ZM258.236 110.157V110.342C258.236 111.057 258.154 111.71 257.99 112.302C257.832 112.888 257.598 113.397 257.287 113.831C256.982 114.259 256.604 114.59 256.153 114.824C255.708 115.059 255.198 115.176 254.624 115.176C254.067 115.176 253.569 115.094 253.13 114.93C252.69 114.76 252.312 114.522 251.996 114.218C251.68 113.907 251.425 113.547 251.231 113.137C251.038 112.727 250.906 112.284 250.836 111.81V108.927C250.93 108.394 251.076 107.907 251.275 107.468C251.475 107.028 251.729 106.647 252.04 106.325C252.351 106.003 252.72 105.754 253.147 105.578C253.575 105.402 254.062 105.314 254.606 105.314C255.181 105.314 255.693 105.429 256.145 105.657C256.596 105.88 256.977 106.202 257.287 106.624C257.598 107.046 257.832 107.556 257.99 108.153C258.154 108.745 258.236 109.413 258.236 110.157ZM257.357 110.342V110.157C257.357 109.577 257.299 109.041 257.182 108.549C257.064 108.057 256.886 107.629 256.646 107.266C256.411 106.896 256.109 106.609 255.74 106.404C255.377 106.199 254.946 106.097 254.448 106.097C253.915 106.097 253.461 106.185 253.086 106.36C252.717 106.536 252.412 106.768 252.172 107.055C251.938 107.336 251.75 107.641 251.609 107.969C251.475 108.297 251.375 108.613 251.311 108.918V111.889C251.422 112.346 251.606 112.765 251.864 113.146C252.122 113.526 252.465 113.834 252.893 114.068C253.326 114.297 253.851 114.411 254.466 114.411C254.958 114.411 255.386 114.309 255.749 114.104C256.112 113.893 256.411 113.605 256.646 113.242C256.886 112.873 257.064 112.442 257.182 111.95C257.299 111.452 257.357 110.916 257.357 110.342ZM261.523 107.09V115H260.653V105.49H261.506L261.523 107.09ZM265.021 105.42L264.986 106.211C264.875 106.193 264.764 106.182 264.652 106.176C264.547 106.164 264.433 106.158 264.31 106.158C263.829 106.158 263.407 106.249 263.044 106.431C262.681 106.612 262.376 106.864 262.13 107.187C261.89 107.509 261.705 107.884 261.576 108.312C261.453 108.733 261.386 109.19 261.374 109.683L261.014 109.788C261.014 109.149 261.078 108.561 261.207 108.021C261.342 107.477 261.547 107.002 261.822 106.598C262.098 106.193 262.443 105.88 262.859 105.657C263.275 105.429 263.768 105.314 264.336 105.314C264.471 105.314 264.6 105.326 264.723 105.35C264.852 105.367 264.951 105.391 265.021 105.42ZM265.909 110.403V110.087C265.909 109.396 266.009 108.76 266.208 108.18C266.407 107.594 266.691 107.087 267.061 106.659C267.43 106.231 267.872 105.9 268.388 105.666C268.909 105.432 269.486 105.314 270.119 105.314C270.758 105.314 271.335 105.432 271.851 105.666C272.372 105.9 272.817 106.231 273.187 106.659C273.562 107.087 273.849 107.594 274.048 108.18C274.247 108.76 274.347 109.396 274.347 110.087V110.403C274.347 111.095 274.247 111.733 274.048 112.319C273.849 112.899 273.562 113.403 273.187 113.831C272.817 114.259 272.375 114.59 271.859 114.824C271.344 115.059 270.77 115.176 270.137 115.176C269.498 115.176 268.918 115.059 268.396 114.824C267.881 114.59 267.436 114.259 267.061 113.831C266.691 113.403 266.407 112.899 266.208 112.319C266.009 111.733 265.909 111.095 265.909 110.403ZM266.771 110.087V110.403C266.771 110.937 266.844 111.446 266.99 111.933C267.143 112.413 267.359 112.841 267.641 113.216C267.928 113.585 268.279 113.878 268.695 114.095C269.117 114.306 269.598 114.411 270.137 114.411C270.67 114.411 271.142 114.306 271.552 114.095C271.968 113.878 272.316 113.585 272.598 113.216C272.885 112.841 273.102 112.413 273.248 111.933C273.4 111.446 273.477 110.937 273.477 110.403V110.087C273.477 109.565 273.4 109.064 273.248 108.584C273.102 108.104 272.885 107.676 272.598 107.301C272.311 106.926 271.959 106.63 271.543 106.413C271.127 106.19 270.652 106.079 270.119 106.079C269.586 106.079 269.111 106.19 268.695 106.413C268.279 106.63 267.928 106.926 267.641 107.301C267.354 107.676 267.137 108.104 266.99 108.584C266.844 109.064 266.771 109.565 266.771 110.087ZM279.198 114.13L282.389 105.49H283.294L279.69 115H279.022L279.198 114.13ZM276.263 105.49L279.479 114.147L279.638 115H278.961L275.357 105.49H276.263ZM288.55 115.176C287.94 115.176 287.378 115.062 286.862 114.833C286.347 114.604 285.898 114.282 285.518 113.866C285.137 113.444 284.841 112.949 284.63 112.381C284.419 111.807 284.313 111.177 284.313 110.491V110.113C284.313 109.387 284.419 108.73 284.63 108.145C284.847 107.559 285.143 107.055 285.518 106.633C285.898 106.205 286.332 105.88 286.818 105.657C287.305 105.429 287.82 105.314 288.365 105.314C288.939 105.314 289.455 105.42 289.912 105.631C290.375 105.836 290.768 106.129 291.09 106.51C291.412 106.891 291.655 107.342 291.819 107.863C291.989 108.379 292.074 108.95 292.074 109.577V110.192H284.85V109.428H291.204V109.313C291.198 108.745 291.084 108.218 290.861 107.731C290.645 107.239 290.325 106.841 289.903 106.536C289.487 106.231 288.975 106.079 288.365 106.079C287.891 106.079 287.457 106.182 287.064 106.387C286.678 106.586 286.344 106.867 286.062 107.23C285.781 107.588 285.564 108.013 285.412 108.505C285.26 108.991 285.184 109.527 285.184 110.113V110.491C285.184 111.036 285.266 111.546 285.43 112.021C285.6 112.495 285.834 112.911 286.133 113.269C286.438 113.626 286.798 113.907 287.214 114.112C287.63 114.317 288.084 114.42 288.576 114.42C289.133 114.42 289.634 114.32 290.079 114.121C290.524 113.916 290.929 113.579 291.292 113.11L291.846 113.532C291.641 113.837 291.386 114.115 291.081 114.367C290.776 114.613 290.416 114.81 290 114.956C289.584 115.103 289.101 115.176 288.55 115.176ZM294.983 107.477V115H294.104V105.49H294.957L294.983 107.477ZM294.834 109.586L294.403 109.243C294.444 108.716 294.556 108.215 294.737 107.74C294.925 107.266 295.18 106.847 295.502 106.483C295.824 106.12 296.205 105.836 296.645 105.631C297.09 105.42 297.591 105.314 298.147 105.314C298.616 105.314 299.038 105.379 299.413 105.508C299.794 105.631 300.116 105.827 300.38 106.097C300.644 106.36 300.846 106.706 300.986 107.134C301.133 107.562 301.206 108.074 301.206 108.672V115H300.336V108.698C300.336 108.024 300.233 107.5 300.028 107.125C299.829 106.75 299.548 106.483 299.185 106.325C298.821 106.167 298.402 106.088 297.928 106.088C297.371 106.088 296.899 106.205 296.513 106.439C296.126 106.674 295.81 106.973 295.563 107.336C295.323 107.699 295.145 108.083 295.027 108.487C294.91 108.886 294.846 109.252 294.834 109.586ZM301.197 108.777L300.617 108.698C300.658 108.259 300.772 107.837 300.96 107.433C301.147 107.022 301.402 106.659 301.725 106.343C302.047 106.026 302.431 105.777 302.876 105.596C303.321 105.408 303.816 105.314 304.361 105.314C304.848 105.314 305.281 105.382 305.662 105.517C306.049 105.646 306.374 105.854 306.638 106.141C306.907 106.422 307.109 106.782 307.244 107.222C307.385 107.661 307.455 108.191 307.455 108.812V115H306.585V108.812C306.585 108.098 306.482 107.544 306.277 107.151C306.078 106.753 305.797 106.475 305.434 106.316C305.07 106.158 304.651 106.082 304.177 106.088C303.685 106.094 303.254 106.185 302.885 106.36C302.521 106.536 302.217 106.762 301.971 107.037C301.73 107.307 301.546 107.597 301.417 107.907C301.288 108.212 301.215 108.502 301.197 108.777ZM313.792 115.176C313.183 115.176 312.62 115.062 312.104 114.833C311.589 114.604 311.141 114.282 310.76 113.866C310.379 113.444 310.083 112.949 309.872 112.381C309.661 111.807 309.556 111.177 309.556 110.491V110.113C309.556 109.387 309.661 108.73 309.872 108.145C310.089 107.559 310.385 107.055 310.76 106.633C311.141 106.205 311.574 105.88 312.061 105.657C312.547 105.429 313.062 105.314 313.607 105.314C314.182 105.314 314.697 105.42 315.154 105.631C315.617 105.836 316.01 106.129 316.332 106.51C316.654 106.891 316.897 107.342 317.062 107.863C317.231 108.379 317.316 108.95 317.316 109.577V110.192H310.092V109.428H316.446V109.313C316.44 108.745 316.326 108.218 316.104 107.731C315.887 107.239 315.567 106.841 315.146 106.536C314.729 106.231 314.217 106.079 313.607 106.079C313.133 106.079 312.699 106.182 312.307 106.387C311.92 106.586 311.586 106.867 311.305 107.23C311.023 107.588 310.807 108.013 310.654 108.505C310.502 108.991 310.426 109.527 310.426 110.113V110.491C310.426 111.036 310.508 111.546 310.672 112.021C310.842 112.495 311.076 112.911 311.375 113.269C311.68 113.626 312.04 113.907 312.456 114.112C312.872 114.317 313.326 114.42 313.818 114.42C314.375 114.42 314.876 114.32 315.321 114.121C315.767 113.916 316.171 113.579 316.534 113.11L317.088 113.532C316.883 113.837 316.628 114.115 316.323 114.367C316.019 114.613 315.658 114.81 315.242 114.956C314.826 115.103 314.343 115.176 313.792 115.176ZM320.287 107.521V115H319.417V105.49H320.261L320.287 107.521ZM320.103 109.586L319.707 109.243C319.748 108.716 319.865 108.215 320.059 107.74C320.252 107.266 320.513 106.847 320.841 106.483C321.169 106.12 321.556 105.836 322.001 105.631C322.446 105.42 322.936 105.314 323.469 105.314C323.943 105.314 324.368 105.379 324.743 105.508C325.118 105.637 325.435 105.842 325.692 106.123C325.956 106.404 326.155 106.768 326.29 107.213C326.431 107.652 326.501 108.188 326.501 108.821V115H325.631V108.812C325.631 108.109 325.531 107.562 325.332 107.169C325.139 106.776 324.866 106.498 324.515 106.334C324.169 106.17 323.759 106.088 323.284 106.088C322.751 106.088 322.288 106.205 321.896 106.439C321.503 106.674 321.175 106.973 320.911 107.336C320.653 107.699 320.457 108.083 320.322 108.487C320.188 108.886 320.114 109.252 320.103 109.586ZM332.785 105.49V106.237H328.127V105.49H332.785ZM329.876 103.012H330.755V112.697C330.755 113.172 330.813 113.532 330.931 113.778C331.054 114.019 331.215 114.18 331.414 114.262C331.613 114.344 331.827 114.385 332.056 114.385C332.22 114.385 332.372 114.376 332.513 114.358C332.659 114.341 332.8 114.32 332.935 114.297L332.987 115.044C332.858 115.085 332.691 115.117 332.486 115.141C332.281 115.164 332.088 115.176 331.906 115.176C331.502 115.176 331.147 115.103 330.843 114.956C330.538 114.804 330.301 114.549 330.131 114.191C329.961 113.828 329.876 113.33 329.876 112.697V103.012ZM340.818 112.601C340.818 112.337 340.748 112.073 340.607 111.81C340.467 111.54 340.206 111.294 339.825 111.071C339.444 110.843 338.888 110.652 338.155 110.5C337.628 110.383 337.159 110.254 336.749 110.113C336.339 109.967 335.993 109.791 335.712 109.586C335.437 109.381 335.226 109.138 335.079 108.856C334.938 108.569 334.868 108.232 334.868 107.846C334.868 107.494 334.944 107.166 335.097 106.861C335.249 106.557 335.469 106.29 335.756 106.062C336.043 105.827 336.389 105.646 336.793 105.517C337.203 105.382 337.663 105.314 338.173 105.314C338.899 105.314 339.521 105.438 340.036 105.684C340.552 105.924 340.947 106.255 341.223 106.677C341.504 107.099 341.645 107.579 341.645 108.118H340.774C340.774 107.767 340.672 107.438 340.467 107.134C340.268 106.823 339.975 106.571 339.588 106.378C339.201 106.179 338.729 106.079 338.173 106.079C337.593 106.079 337.124 106.167 336.767 106.343C336.409 106.519 336.148 106.738 335.984 107.002C335.82 107.266 335.738 107.538 335.738 107.819C335.738 108.042 335.771 108.244 335.835 108.426C335.905 108.607 336.034 108.777 336.222 108.936C336.409 109.094 336.676 109.243 337.021 109.384C337.373 109.519 337.827 109.65 338.384 109.779C339.151 109.949 339.775 110.157 340.256 110.403C340.742 110.644 341.1 110.939 341.328 111.291C341.562 111.643 341.68 112.067 341.68 112.565C341.68 112.952 341.598 113.307 341.434 113.629C341.275 113.945 341.044 114.221 340.739 114.455C340.44 114.684 340.077 114.862 339.649 114.991C339.228 115.114 338.756 115.176 338.234 115.176C337.438 115.176 336.767 115.047 336.222 114.789C335.677 114.531 335.264 114.191 334.982 113.77C334.701 113.348 334.561 112.894 334.561 112.407H335.431C335.466 112.917 335.627 113.318 335.914 113.611C336.207 113.904 336.562 114.112 336.978 114.235C337.399 114.353 337.818 114.411 338.234 114.411C338.797 114.411 339.269 114.326 339.649 114.156C340.036 113.98 340.326 113.755 340.52 113.479C340.719 113.204 340.818 112.911 340.818 112.601ZM350.451 108.162L352.552 106.554C352.927 106.272 353.24 105.965 353.492 105.631C353.75 105.291 353.879 104.904 353.879 104.471C353.879 104.031 353.724 103.642 353.413 103.302C353.108 102.956 352.666 102.783 352.086 102.783C351.652 102.783 351.286 102.877 350.987 103.064C350.694 103.252 350.472 103.504 350.319 103.82C350.173 104.131 350.1 104.474 350.1 104.849C350.1 105.136 350.152 105.435 350.258 105.745C350.369 106.05 350.53 106.369 350.741 106.703C350.958 107.037 351.219 107.383 351.523 107.74L357.799 115H356.744L351.339 108.777C350.911 108.273 350.536 107.811 350.214 107.389C349.897 106.961 349.651 106.545 349.476 106.141C349.306 105.73 349.221 105.309 349.221 104.875C349.221 104.295 349.338 103.791 349.572 103.363C349.807 102.936 350.138 102.604 350.565 102.37C350.993 102.136 351.5 102.019 352.086 102.019C352.643 102.019 353.117 102.133 353.51 102.361C353.902 102.584 354.201 102.88 354.406 103.249C354.617 103.618 354.723 104.025 354.723 104.471C354.723 104.846 354.635 105.197 354.459 105.525C354.283 105.854 354.063 106.152 353.8 106.422C353.542 106.686 353.281 106.923 353.018 107.134L350.732 108.9C350.211 109.34 349.818 109.738 349.555 110.096C349.297 110.453 349.124 110.772 349.036 111.054C348.954 111.329 348.913 111.572 348.913 111.783C348.913 112.246 349.021 112.677 349.238 113.075C349.461 113.474 349.798 113.796 350.249 114.042C350.706 114.288 351.28 114.411 351.972 114.411C352.54 114.411 353.088 114.291 353.615 114.051C354.148 113.805 354.623 113.459 355.039 113.014C355.455 112.562 355.786 112.026 356.032 111.405C356.278 110.778 356.401 110.084 356.401 109.322H357.219C357.219 109.873 357.163 110.386 357.052 110.86C356.946 111.335 356.791 111.774 356.586 112.179C356.381 112.583 356.132 112.955 355.839 113.295C355.792 113.354 355.763 113.395 355.751 113.418C355.739 113.441 355.71 113.477 355.663 113.523C355.188 114.021 354.635 114.423 354.002 114.728C353.375 115.026 352.698 115.176 351.972 115.176C351.163 115.176 350.466 115.035 349.88 114.754C349.294 114.473 348.843 114.077 348.526 113.567C348.21 113.058 348.052 112.463 348.052 111.783C348.052 111.279 348.157 110.819 348.368 110.403C348.585 109.987 348.875 109.598 349.238 109.234C349.602 108.871 350.006 108.514 350.451 108.162ZM364.698 107.477V115H363.819V105.49H364.672L364.698 107.477ZM364.549 109.586L364.118 109.243C364.159 108.716 364.271 108.215 364.452 107.74C364.64 107.266 364.895 106.847 365.217 106.483C365.539 106.12 365.92 105.836 366.359 105.631C366.805 105.42 367.306 105.314 367.862 105.314C368.331 105.314 368.753 105.379 369.128 105.508C369.509 105.631 369.831 105.827 370.095 106.097C370.358 106.36 370.561 106.706 370.701 107.134C370.848 107.562 370.921 108.074 370.921 108.672V115H370.051V108.698C370.051 108.024 369.948 107.5 369.743 107.125C369.544 106.75 369.263 106.483 368.899 106.325C368.536 106.167 368.117 106.088 367.643 106.088C367.086 106.088 366.614 106.205 366.228 106.439C365.841 106.674 365.524 106.973 365.278 107.336C365.038 107.699 364.859 108.083 364.742 108.487C364.625 108.886 364.561 109.252 364.549 109.586ZM370.912 108.777L370.332 108.698C370.373 108.259 370.487 107.837 370.675 107.433C370.862 107.022 371.117 106.659 371.439 106.343C371.762 106.026 372.146 105.777 372.591 105.596C373.036 105.408 373.531 105.314 374.076 105.314C374.562 105.314 374.996 105.382 375.377 105.517C375.764 105.646 376.089 105.854 376.353 106.141C376.622 106.422 376.824 106.782 376.959 107.222C377.1 107.661 377.17 108.191 377.17 108.812V115H376.3V108.812C376.3 108.098 376.197 107.544 375.992 107.151C375.793 106.753 375.512 106.475 375.148 106.316C374.785 106.158 374.366 106.082 373.892 106.088C373.399 106.094 372.969 106.185 372.6 106.36C372.236 106.536 371.932 106.762 371.686 107.037C371.445 107.307 371.261 107.597 371.132 107.907C371.003 108.212 370.93 108.502 370.912 108.777ZM379.288 110.403V110.087C379.288 109.396 379.388 108.76 379.587 108.18C379.786 107.594 380.07 107.087 380.439 106.659C380.809 106.231 381.251 105.9 381.767 105.666C382.288 105.432 382.865 105.314 383.498 105.314C384.137 105.314 384.714 105.432 385.229 105.666C385.751 105.9 386.196 106.231 386.565 106.659C386.94 107.087 387.228 107.594 387.427 108.18C387.626 108.76 387.726 109.396 387.726 110.087V110.403C387.726 111.095 387.626 111.733 387.427 112.319C387.228 112.899 386.94 113.403 386.565 113.831C386.196 114.259 385.754 114.59 385.238 114.824C384.723 115.059 384.148 115.176 383.516 115.176C382.877 115.176 382.297 115.059 381.775 114.824C381.26 114.59 380.814 114.259 380.439 113.831C380.07 113.403 379.786 112.899 379.587 112.319C379.388 111.733 379.288 111.095 379.288 110.403ZM380.149 110.087V110.403C380.149 110.937 380.223 111.446 380.369 111.933C380.521 112.413 380.738 112.841 381.02 113.216C381.307 113.585 381.658 113.878 382.074 114.095C382.496 114.306 382.977 114.411 383.516 114.411C384.049 114.411 384.521 114.306 384.931 114.095C385.347 113.878 385.695 113.585 385.977 113.216C386.264 112.841 386.48 112.413 386.627 111.933C386.779 111.446 386.855 110.937 386.855 110.403V110.087C386.855 109.565 386.779 109.064 386.627 108.584C386.48 108.104 386.264 107.676 385.977 107.301C385.689 106.926 385.338 106.63 384.922 106.413C384.506 106.19 384.031 106.079 383.498 106.079C382.965 106.079 382.49 106.19 382.074 106.413C381.658 106.63 381.307 106.926 381.02 107.301C380.732 107.676 380.516 108.104 380.369 108.584C380.223 109.064 380.149 109.565 380.149 110.087ZM390.811 107.521V115H389.94V105.49H390.784L390.811 107.521ZM390.626 109.586L390.23 109.243C390.271 108.716 390.389 108.215 390.582 107.74C390.775 107.266 391.036 106.847 391.364 106.483C391.692 106.12 392.079 105.836 392.524 105.631C392.97 105.42 393.459 105.314 393.992 105.314C394.467 105.314 394.892 105.379 395.267 105.508C395.642 105.637 395.958 105.842 396.216 106.123C396.479 106.404 396.679 106.768 396.813 107.213C396.954 107.652 397.024 108.188 397.024 108.821V115H396.154V108.812C396.154 108.109 396.055 107.562 395.855 107.169C395.662 106.776 395.39 106.498 395.038 106.334C394.692 106.17 394.282 106.088 393.808 106.088C393.274 106.088 392.812 106.205 392.419 106.439C392.026 106.674 391.698 106.973 391.435 107.336C391.177 107.699 390.98 108.083 390.846 108.487C390.711 108.886 390.638 109.252 390.626 109.586ZM400.812 105.49V115H399.942V105.49H400.812ZM399.74 102.669C399.74 102.493 399.799 102.344 399.916 102.221C400.033 102.092 400.188 102.027 400.382 102.027C400.581 102.027 400.739 102.092 400.856 102.221C400.979 102.344 401.041 102.493 401.041 102.669C401.041 102.845 400.979 102.994 400.856 103.117C400.739 103.24 400.581 103.302 400.382 103.302C400.188 103.302 400.033 103.24 399.916 103.117C399.799 102.994 399.74 102.845 399.74 102.669ZM407.246 105.49V106.237H402.588V105.49H407.246ZM404.337 103.012H405.216V112.697C405.216 113.172 405.274 113.532 405.392 113.778C405.515 114.019 405.676 114.18 405.875 114.262C406.074 114.344 406.288 114.385 406.517 114.385C406.681 114.385 406.833 114.376 406.974 114.358C407.12 114.341 407.261 114.32 407.396 114.297L407.448 115.044C407.319 115.085 407.152 115.117 406.947 115.141C406.742 115.164 406.549 115.176 406.367 115.176C405.963 115.176 405.608 115.103 405.304 114.956C404.999 114.804 404.762 114.549 404.592 114.191C404.422 113.828 404.337 113.33 404.337 112.697V103.012ZM408.731 110.403V110.087C408.731 109.396 408.831 108.76 409.03 108.18C409.229 107.594 409.514 107.087 409.883 106.659C410.252 106.231 410.694 105.9 411.21 105.666C411.731 105.432 412.309 105.314 412.941 105.314C413.58 105.314 414.157 105.432 414.673 105.666C415.194 105.9 415.64 106.231 416.009 106.659C416.384 107.087 416.671 107.594 416.87 108.18C417.069 108.76 417.169 109.396 417.169 110.087V110.403C417.169 111.095 417.069 111.733 416.87 112.319C416.671 112.899 416.384 113.403 416.009 113.831C415.64 114.259 415.197 114.59 414.682 114.824C414.166 115.059 413.592 115.176 412.959 115.176C412.32 115.176 411.74 115.059 411.219 114.824C410.703 114.59 410.258 114.259 409.883 113.831C409.514 113.403 409.229 112.899 409.03 112.319C408.831 111.733 408.731 111.095 408.731 110.403ZM409.593 110.087V110.403C409.593 110.937 409.666 111.446 409.812 111.933C409.965 112.413 410.182 112.841 410.463 113.216C410.75 113.585 411.102 113.878 411.518 114.095C411.939 114.306 412.42 114.411 412.959 114.411C413.492 114.411 413.964 114.306 414.374 114.095C414.79 113.878 415.139 113.585 415.42 113.216C415.707 112.841 415.924 112.413 416.07 111.933C416.223 111.446 416.299 110.937 416.299 110.403V110.087C416.299 109.565 416.223 109.064 416.07 108.584C415.924 108.104 415.707 107.676 415.42 107.301C415.133 106.926 414.781 106.63 414.365 106.413C413.949 106.19 413.475 106.079 412.941 106.079C412.408 106.079 411.934 106.19 411.518 106.413C411.102 106.63 410.75 106.926 410.463 107.301C410.176 107.676 409.959 108.104 409.812 108.584C409.666 109.064 409.593 109.565 409.593 110.087ZM420.254 107.09V115H419.384V105.49H420.236L420.254 107.09ZM423.752 105.42L423.717 106.211C423.605 106.193 423.494 106.182 423.383 106.176C423.277 106.164 423.163 106.158 423.04 106.158C422.56 106.158 422.138 106.249 421.774 106.431C421.411 106.612 421.106 106.864 420.86 107.187C420.62 107.509 420.436 107.884 420.307 108.312C420.184 108.733 420.116 109.19 420.104 109.683L419.744 109.788C419.744 109.149 419.809 108.561 419.938 108.021C420.072 107.477 420.277 107.002 420.553 106.598C420.828 106.193 421.174 105.88 421.59 105.657C422.006 105.429 422.498 105.314 423.066 105.314C423.201 105.314 423.33 105.326 423.453 105.35C423.582 105.367 423.682 105.391 423.752 105.42ZM426.424 105.49V115H425.554V105.49H426.424ZM425.352 102.669C425.352 102.493 425.41 102.344 425.527 102.221C425.645 102.092 425.8 102.027 425.993 102.027C426.192 102.027 426.351 102.092 426.468 102.221C426.591 102.344 426.652 102.493 426.652 102.669C426.652 102.845 426.591 102.994 426.468 103.117C426.351 103.24 426.192 103.302 425.993 103.302C425.8 103.302 425.645 103.24 425.527 103.117C425.41 102.994 425.352 102.845 425.352 102.669ZM430.238 107.521V115H429.368V105.49H430.212L430.238 107.521ZM430.054 109.586L429.658 109.243C429.699 108.716 429.816 108.215 430.01 107.74C430.203 107.266 430.464 106.847 430.792 106.483C431.12 106.12 431.507 105.836 431.952 105.631C432.397 105.42 432.887 105.314 433.42 105.314C433.895 105.314 434.319 105.379 434.694 105.508C435.069 105.637 435.386 105.842 435.644 106.123C435.907 106.404 436.106 106.768 436.241 107.213C436.382 107.652 436.452 108.188 436.452 108.821V115H435.582V108.812C435.582 108.109 435.482 107.562 435.283 107.169C435.09 106.776 434.817 106.498 434.466 106.334C434.12 106.17 433.71 106.088 433.235 106.088C432.702 106.088 432.239 106.205 431.847 106.439C431.454 106.674 431.126 106.973 430.862 107.336C430.604 107.699 430.408 108.083 430.273 108.487C430.139 108.886 430.065 109.252 430.054 109.586ZM445.54 105.49H446.357V114.842C446.357 115.662 446.205 116.368 445.9 116.96C445.596 117.558 445.162 118.015 444.6 118.331C444.043 118.647 443.384 118.806 442.622 118.806C442.206 118.806 441.796 118.744 441.392 118.621C440.987 118.498 440.609 118.313 440.258 118.067C439.912 117.827 439.616 117.534 439.37 117.188L439.88 116.652C440.261 117.121 440.671 117.47 441.11 117.698C441.55 117.927 442.036 118.041 442.569 118.041C443.196 118.041 443.727 117.912 444.16 117.654C444.594 117.402 444.922 117.039 445.145 116.564C445.373 116.09 445.487 115.524 445.487 114.868V107.582L445.54 105.49ZM438.825 110.342V110.157C438.825 109.413 438.907 108.745 439.071 108.153C439.235 107.556 439.473 107.046 439.783 106.624C440.1 106.202 440.483 105.88 440.935 105.657C441.386 105.429 441.896 105.314 442.464 105.314C443.009 105.314 443.492 105.402 443.914 105.578C444.336 105.754 444.699 106.003 445.004 106.325C445.314 106.647 445.566 107.028 445.76 107.468C445.953 107.907 446.097 108.394 446.19 108.927V111.757C446.114 112.243 445.982 112.694 445.795 113.11C445.607 113.526 445.358 113.89 445.048 114.2C444.737 114.511 444.365 114.751 443.932 114.921C443.504 115.091 443.009 115.176 442.446 115.176C441.884 115.176 441.377 115.059 440.926 114.824C440.48 114.59 440.1 114.259 439.783 113.831C439.473 113.397 439.235 112.888 439.071 112.302C438.907 111.71 438.825 111.057 438.825 110.342ZM439.695 110.157V110.342C439.695 110.916 439.754 111.452 439.871 111.95C439.988 112.442 440.164 112.87 440.398 113.233C440.639 113.597 440.938 113.881 441.295 114.086C441.658 114.291 442.086 114.394 442.578 114.394C443.199 114.394 443.724 114.279 444.151 114.051C444.579 113.816 444.919 113.506 445.171 113.119C445.423 112.732 445.602 112.308 445.707 111.845V108.918C445.643 108.613 445.543 108.297 445.408 107.969C445.279 107.641 445.095 107.336 444.854 107.055C444.62 106.768 444.318 106.536 443.949 106.36C443.58 106.185 443.129 106.097 442.596 106.097C442.098 106.097 441.667 106.199 441.304 106.404C440.94 106.609 440.639 106.896 440.398 107.266C440.164 107.629 439.988 108.057 439.871 108.549C439.754 109.041 439.695 109.577 439.695 110.157Z" fill="white"/>
<mask id="path-7-outside-1_395_884" maskUnits="userSpaceOnUse" x="0" y="47" width="61" height="83" fill="black">
<rect fill="white" y="47" width="61" height="83"/>
<path d="M19.9531 92.3105L6.86719 89.2344L11.1641 52.9062H52.7168V65.6992H24.5918L22.9805 79.8105C23.7617 79.3548 25.0801 78.8177 26.9355 78.1992C28.8236 77.5482 30.9069 77.2227 33.1855 77.2227C36.7012 77.2227 39.8099 77.7598 42.5117 78.834C45.2461 79.8757 47.5573 81.4219 49.4453 83.4727C51.3333 85.4909 52.7493 87.9811 53.6934 90.9434C54.6699 93.9056 55.1582 97.291 55.1582 101.1C55.1582 104.16 54.6536 107.122 53.6445 109.986C52.668 112.818 51.1543 115.374 49.1035 117.652C47.0853 119.898 44.5299 121.689 41.4375 123.023C38.3451 124.326 34.6829 124.977 30.4512 124.977C27.2936 124.977 24.2174 124.488 21.2227 123.512C18.2279 122.535 15.526 121.135 13.1172 119.312C10.7409 117.457 8.85286 115.227 7.45312 112.623C6.08594 109.986 5.41862 107.04 5.45117 103.785H22.0039C22.1016 105.51 22.5085 107.008 23.2246 108.277C23.9408 109.547 24.901 110.54 26.1055 111.256C27.3424 111.939 28.7585 112.281 30.3535 112.281C31.9811 112.281 33.332 111.956 34.4062 111.305C35.4805 110.654 36.3268 109.758 36.9453 108.619C37.5638 107.48 38.0033 106.178 38.2637 104.713C38.5241 103.215 38.6543 101.637 38.6543 99.9766C38.6543 98.2188 38.459 96.64 38.0684 95.2402C37.7103 93.8405 37.1243 92.6523 36.3105 91.6758C35.4967 90.6667 34.4388 89.9017 33.1367 89.3809C31.8672 88.86 30.3372 88.5996 28.5469 88.5996C26.1706 88.5996 24.2988 89.0065 22.9316 89.8203C21.5645 90.6341 20.5716 91.4642 19.9531 92.3105Z"/>
</mask>
<path d="M19.9531 92.3105L18.8089 97.1779L22.0349 97.9362L23.9901 95.2606L19.9531 92.3105ZM6.86719 89.2344L1.9018 88.6471L1.37745 93.0802L5.723 94.1017L6.86719 89.2344ZM11.1641 52.9062V47.9062H6.72061L6.19867 52.3189L11.1641 52.9062ZM52.7168 52.9062H57.7168V47.9062H52.7168V52.9062ZM52.7168 65.6992V70.6992H57.7168V65.6992H52.7168ZM24.5918 65.6992V60.6992H20.1302L19.6241 65.132L24.5918 65.6992ZM22.9805 79.8105L18.0128 79.2433L16.8807 89.1573L25.4998 84.1294L22.9805 79.8105ZM26.9355 78.1992L28.5167 82.9426L28.5411 82.9345L28.5655 82.9261L26.9355 78.1992ZM42.5117 78.834L40.6644 83.4802L40.698 83.4936L40.7317 83.5064L42.5117 78.834ZM49.4453 83.4727L45.7668 86.8592L45.7803 86.8739L45.794 86.8884L49.4453 83.4727ZM53.6934 90.9434L48.9294 92.4615L48.937 92.4852L48.9448 92.5088L53.6934 90.9434ZM53.6445 109.986L48.9286 108.325L48.9231 108.341L48.9177 108.356L53.6445 109.986ZM49.1035 117.652L45.387 114.308L45.3844 114.31L49.1035 117.652ZM41.4375 123.023L43.3778 127.632L43.3983 127.623L43.4188 127.614L41.4375 123.023ZM13.1172 119.312L10.04 123.253L10.0698 123.277L10.1 123.3L13.1172 119.312ZM7.45312 112.623L3.01435 114.925L3.03143 114.958L3.049 114.99L7.45312 112.623ZM5.45117 103.785V98.7852H0.500922L0.451422 103.735L5.45117 103.785ZM22.0039 103.785L26.9959 103.503L26.7289 98.7852H22.0039V103.785ZM26.1055 111.256L23.5501 115.554L23.6179 115.594L23.687 115.632L26.1055 111.256ZM34.4062 111.305L31.8147 107.029L34.4062 111.305ZM36.9453 108.619L32.551 106.234L36.9453 108.619ZM38.2637 104.713L43.1865 105.588L43.1881 105.579L43.1897 105.57L38.2637 104.713ZM38.0684 95.2402L33.2243 96.4794L33.2378 96.532L33.2524 96.5842L38.0684 95.2402ZM36.3105 91.6758L32.4185 94.8145L32.4437 94.8458L32.4694 94.8767L36.3105 91.6758ZM33.1367 89.3809L31.2389 94.0067L31.2593 94.0151L31.2798 94.0232L33.1367 89.3809ZM19.9531 92.3105L21.0973 87.4432L8.01137 84.3671L6.86719 89.2344L5.723 94.1017L18.8089 97.1779L19.9531 92.3105ZM6.86719 89.2344L11.8326 89.8217L16.1294 53.4936L11.1641 52.9062L6.19867 52.3189L1.9018 88.6471L6.86719 89.2344ZM11.1641 52.9062V57.9062H52.7168V52.9062V47.9062H11.1641V52.9062ZM52.7168 52.9062H47.7168V65.6992H52.7168H57.7168V52.9062H52.7168ZM52.7168 65.6992V60.6992H24.5918V65.6992V70.6992H52.7168V65.6992ZM24.5918 65.6992L19.6241 65.132L18.0128 79.2433L22.9805 79.8105L27.9482 80.3778L29.5595 66.2665L24.5918 65.6992ZM22.9805 79.8105L25.4998 84.1294C25.8041 83.952 26.7015 83.5477 28.5167 82.9426L26.9355 78.1992L25.3544 73.4558C23.4586 74.0877 21.7194 74.7577 20.4611 75.4917L22.9805 79.8105ZM26.9355 78.1992L28.5655 82.9261C29.8609 82.4794 31.3846 82.2227 33.1855 82.2227V77.2227V72.2227C30.4292 72.2227 27.7862 72.617 25.3056 73.4724L26.9355 78.1992ZM33.1855 77.2227V82.2227C36.1974 82.2227 38.6594 82.683 40.6644 83.4802L42.5117 78.834L44.359 74.1878C40.9604 72.8365 37.2049 72.2227 33.1855 72.2227V77.2227ZM42.5117 78.834L40.7317 83.5064C42.7792 84.2864 44.4297 85.4068 45.7668 86.8592L49.4453 83.4727L53.1238 80.0861C50.6849 77.437 47.713 75.4649 44.2917 74.1615L42.5117 78.834ZM49.4453 83.4727L45.794 86.8884C47.1148 88.3003 48.1825 90.1177 48.9294 92.4615L53.6934 90.9434L58.4573 89.4252C57.3162 85.8445 55.5519 82.6814 53.0967 80.0569L49.4453 83.4727ZM53.6934 90.9434L48.9448 92.5088C49.7227 94.8686 50.1582 97.7096 50.1582 101.1H55.1582H60.1582C60.1582 96.8724 59.6172 92.9426 58.442 89.3779L53.6934 90.9434ZM55.1582 101.1H50.1582C50.1582 103.598 49.7483 105.998 48.9286 108.325L53.6445 109.986L58.3605 111.648C59.559 108.245 60.1582 104.721 60.1582 101.1H55.1582ZM53.6445 109.986L48.9177 108.356C48.1647 110.54 47.0002 112.515 45.387 114.308L49.1035 117.652L52.82 120.997C55.3084 118.232 57.1712 115.097 58.3714 111.616L53.6445 109.986ZM49.1035 117.652L45.3844 114.31C43.9015 115.961 41.963 117.351 39.4562 118.433L41.4375 123.023L43.4188 127.614C47.0969 126.027 50.269 123.836 52.8227 120.994L49.1035 117.652ZM41.4375 123.023L39.4972 118.415C37.1567 119.401 34.1843 119.977 30.4512 119.977V124.977V129.977C35.1816 129.977 39.5334 129.25 43.3778 127.632L41.4375 123.023ZM30.4512 124.977V119.977C27.8188 119.977 25.2658 119.571 22.7728 118.758L21.2227 123.512L19.6726 128.265C23.1691 129.406 26.7685 129.977 30.4512 129.977V124.977ZM21.2227 123.512L22.7728 118.758C20.2834 117.946 18.0815 116.799 16.1344 115.325L13.1172 119.312L10.1 123.3C12.9706 125.472 16.1723 127.124 19.6726 128.265L21.2227 123.512ZM13.1172 119.312L16.1944 115.372C14.3536 113.934 12.922 112.237 11.8572 110.256L7.45312 112.623L3.049 114.99C4.78372 118.218 7.12813 120.98 10.04 123.253L13.1172 119.312ZM7.45312 112.623L11.8919 110.321C10.9365 108.479 10.4257 106.353 10.4509 103.835L5.45117 103.785L0.451422 103.735C0.411493 107.728 1.23535 111.494 3.01435 114.925L7.45312 112.623ZM5.45117 103.785V108.785H22.0039V103.785V98.7852H5.45117V103.785ZM22.0039 103.785L17.0119 104.068C17.1448 106.416 17.7141 108.685 18.8697 110.734L23.2246 108.277L27.5795 105.821C27.3028 105.33 27.0583 104.605 26.9959 103.503L22.0039 103.785ZM23.2246 108.277L18.8697 110.734C19.9967 112.732 21.5646 114.373 23.5501 115.554L26.1055 111.256L28.6608 106.958C28.2375 106.706 27.8848 106.362 27.5795 105.821L23.2246 108.277ZM26.1055 111.256L23.687 115.632C25.7555 116.775 28.023 117.281 30.3535 117.281V112.281V107.281C29.4939 107.281 28.9294 107.104 28.5239 106.88L26.1055 111.256ZM30.3535 112.281V117.281C32.6299 117.281 34.9429 116.826 36.9978 115.581L34.4062 111.305L31.8147 107.029C31.7212 107.085 31.3324 107.281 30.3535 107.281V112.281ZM34.4062 111.305L36.9978 115.581C38.8548 114.455 40.3125 112.897 41.3396 111.005L36.9453 108.619L32.551 106.234C32.3412 106.62 32.1061 106.852 31.8147 107.029L34.4062 111.305ZM36.9453 108.619L41.3396 111.005C42.2489 109.33 42.8457 107.505 43.1865 105.588L38.2637 104.713L33.3409 103.838C33.1608 104.851 32.8787 105.63 32.551 106.234L36.9453 108.619ZM38.2637 104.713L43.1897 105.57C43.5036 103.765 43.6543 101.898 43.6543 99.9766H38.6543H33.6543C33.6543 101.376 33.5446 102.666 33.3376 103.856L38.2637 104.713ZM38.6543 99.9766H43.6543C43.6543 97.856 43.4194 95.8137 42.8843 93.8962L38.0684 95.2402L33.2524 96.5842C33.4985 97.4662 33.6543 98.5815 33.6543 99.9766H38.6543ZM38.0684 95.2402L42.9124 94.0011C42.3953 91.9796 41.5026 90.096 40.1517 88.4749L36.3105 91.6758L32.4694 94.8767C32.7461 95.2087 33.0253 95.7014 33.2243 96.4794L38.0684 95.2402ZM36.3105 91.6758L40.2026 88.537C38.807 86.8065 37.0248 85.5509 34.9937 84.7385L33.1367 89.3809L31.2798 94.0232C31.8528 94.2525 32.1865 94.5269 32.4185 94.8145L36.3105 91.6758ZM33.1367 89.3809L35.0345 84.755C33.0098 83.9244 30.7994 83.5996 28.5469 83.5996V88.5996V93.5996C29.8751 93.5996 30.7246 93.7957 31.2389 94.0067L33.1367 89.3809ZM28.5469 88.5996V83.5996C25.6834 83.5996 22.8061 84.0763 20.3742 85.5238L22.9316 89.8203L25.4891 94.1168C25.7916 93.9367 26.6577 93.5996 28.5469 93.5996V88.5996ZM22.9316 89.8203L20.3742 85.5238C18.6987 86.5212 17.0832 87.7634 15.9162 89.3605L19.9531 92.3105L23.9901 95.2606C24.06 95.1649 24.4302 94.747 25.4891 94.1168L22.9316 89.8203Z" fill="#1A5069" mask="url(#path-7-outside-1_395_884)"/>
<defs>
<radialGradient id="paint0_radial_395_884" cx="0" cy="0" r="1" gradientUnits="userSpaceOnUse" gradientTransform="translate(96.2628 221.995) scale(96.2628 221.995)">
<stop stop-color="#1A5069"/>
<stop offset="1" stop-color="#0F7BAE" stop-opacity="0"/>
</radialGradient>
<radialGradient id="paint1_radial_395_884" cx="0" cy="0" r="1" gradientUnits="userSpaceOnUse" gradientTransform="translate(96.2628 221.995) scale(96.2628 221.995)">
<stop stop-color="#1A5069"/>
<stop offset="1" stop-color="#0F7BAE" stop-opacity="0"/>
</radialGradient>
</defs>
</svg>
