<svg width="225" height="124" viewBox="0 0 225 124" fill="none" xmlns="http://www.w3.org/2000/svg">
<path d="M73 55.0036C109.45 74.1736 146.03 93.6436 182.36 113.154C183.77 113.904 185.36 114.304 186 116.004C185.15 116.654 184.93 118.004 183.08 118.564C180.76 119.264 175.36 119.664 172.49 120.004C136.6 124.164 88.36 124.464 52.5 120.004C47.81 119.424 40.45 118.854 37.07 115.434C23.44 85.6236 13.43 54.0036 0 24.0036V21.0036L5.02 19.3936C27.11 32.3036 50.42 43.1236 73 55.0036Z" fill="white"/>
<path d="M73 55.0036C79.94 48.8336 106.58 1.43362 111.7 0.113618C112.86 -0.186382 113.72 0.113618 114.54 0.943618L151.64 55.0836C174.69 44.4036 196.86 31.7336 219.27 19.7536L225 20.0036V24.0036C212.07 51.5136 203.85 81.2736 191.48 108.984C190.73 110.664 189.52 113.774 188.46 115.004C187.61 115.974 186.34 115.744 186 116.004C185.36 114.304 183.76 113.904 182.36 113.154C146.03 93.6436 109.46 74.1736 73 55.0036Z" fill="#D3D3D3"/>
</svg>
