<svg width="149" height="146" viewBox="0 0 149 146" fill="none" xmlns="http://www.w3.org/2000/svg">
<path d="M148.999 75.5822H136.691V89.2824H130.536V75.5822H118.088V69.9905H130.326C130.341 69.9905 130.536 69.7953 130.536 69.7806V56.1504H136.691V69.9905H148.999V75.5822Z" fill="white"/>
<path d="M0.322266 70.2696H12.4909V57.1284H17.2465V70.2696H29.6943V74.4634L17.2465 74.8832V88.1636H12.4909V74.8832H0.322266V70.2696Z" fill="white"/>
<path d="M77.1085 0.22998C77.4052 1.20462 76.6398 13.7902 77.3184 13.7902H89.557V18.124H77.1085V31.545H72.3529V18.124H60.3242V13.7902H72.3529V0.22998H77.1085Z" fill="white"/>
<path d="M78.9263 46.5029V68.4515H99.2068V76.6999H78.9263V98.6484H70.6744V76.6999H50.4638C50.4491 76.6999 50.2539 76.5047 50.2539 76.49V68.4515H70.6744V46.5029H78.9263Z" fill="white"/>
<path d="M39.902 84.8086V104.38H58.015C58.0297 104.38 58.2249 104.576 58.2249 104.59V110.951H39.902V130.523H32.9088V110.951H14.5859V104.38H32.9088V84.8086H39.902Z" fill="white"/>
<path d="M116.552 14.3501V33.9219H134.875V40.3525H116.552V59.9243H109.559V40.3525H91.2363V33.9219H109.559V14.3501H116.552Z" fill="white"/>
<path d="M116.552 84.9487V104.311C116.552 104.325 116.748 104.521 116.762 104.521H134.875V110.672H116.552V130.524H109.559V110.672H91.2363V104.521H109.349C109.364 104.521 109.559 104.325 109.559 104.311V84.9487H116.552Z" fill="white"/>
<path d="M39.6228 14.3501V33.9219H58.2249V40.0727H39.6228V59.9243H32.9088V40.0727H14.5859V33.9219H32.9088V14.3501H39.6228Z" fill="white"/>
<path d="M77.9465 112.768V126.258C77.9465 126.273 78.1417 126.468 78.1564 126.468H90.395V132.06H77.9465V145.76H71.7922V132.06H59.3438V126.468H71.7922V112.768H77.9465Z" fill="white"/>
</svg>
