<svg width="141" height="149" viewBox="0 0 141 149" fill="none" xmlns="http://www.w3.org/2000/svg">
<path d="M84.7623 2.13194C88.5469 4.17073 92.563 6.23983 96.1503 8.19524C97.1031 8.71441 98.257 9.47991 99.1871 10.09C100.33 10.8366 100.971 12.3335 102.603 11.9848C103.537 12.792 104.756 13.2771 105.785 13.9402C106.468 14.3798 106.95 14.6565 107.538 15.0165C107.831 15.1946 108.115 15.2817 108.297 15.3954C109.949 16.4034 111.558 17.4456 113.232 18.4271C113.327 18.4839 113.517 18.3702 113.612 18.4271C113.73 18.4953 113.832 18.7113 113.991 18.806C114.276 18.9766 114.546 19.0637 114.751 19.185C114.777 19.2001 114.887 19.4161 115.13 19.5639C115.221 19.6208 115.423 19.5071 115.51 19.5639C115.897 19.8141 115.886 19.9467 116.649 20.3219C116.755 20.3749 116.994 20.2612 117.028 20.3219C117.1 20.4507 116.979 20.8486 117.032 21.0798C117.173 21.22 117.617 20.6591 117.787 20.7008C117.833 20.7122 118.057 21.2351 118.399 21.4019C120.559 22.4402 122.548 23.6946 124.62 24.8693C128.291 26.9536 132.52 28.8901 136.008 30.9326C136.137 31.0084 136.244 31.2282 136.388 31.3116C136.521 31.3874 136.623 31.6034 136.767 31.6906C137.272 31.9975 138.297 32.5622 138.665 32.8274C141.698 35.0216 140.825 35.2717 140.943 38.8907C140.996 40.524 140.924 42.1801 140.943 43.8172C140.97 45.9545 140.981 48.1221 140.943 50.2594C140.917 51.8548 141.084 53.6359 140.943 55.1859C140.909 55.5838 141.019 56.0006 140.871 56.425C140.582 57.255 137.223 59.1497 136.24 59.794C134.52 60.9157 132.311 62.386 130.314 63.5229C129.198 64.1596 127.642 64.44 126.461 65.088C123.774 66.5621 121.978 69.5104 118.926 67.6914C118.676 67.5436 118.182 67.1836 117.787 66.9335C116.504 66.1263 115.335 65.4556 113.991 64.6598C110.378 62.5187 106.707 59.9001 103.04 57.9712C102.368 57.6188 101.928 57.2891 101.085 57.4596C101.024 57.3724 101.15 57.1451 101.085 57.0806C99.9728 55.9551 99.3237 56.0499 98.0483 55.5648C97.9382 55.5231 97.7825 55.6065 97.6687 55.5648C97.7104 54.3863 96.7538 54.3256 95.7707 54.428C95.7061 54.3673 95.8352 54.1021 95.7707 54.049C95.3151 53.6549 95.0456 53.6966 95.0115 53.67C94.8786 53.5639 94.7723 53.382 94.6319 53.2911C94.0321 52.9045 93.5424 52.9462 93.4931 52.9121C93.3488 52.8174 93.2463 52.6241 93.1135 52.5332C92.9882 52.4498 92.8857 52.2527 92.7339 52.1542C92.5592 52.0405 92.2442 51.9382 91.9747 51.7753C89.0669 50.0131 86.1288 48.4215 83.1793 46.8033C82.5036 46.432 81.6495 45.5187 80.5866 45.333V68.8283C81.7748 69.8363 83.6235 70.1016 84.7623 70.7231C87.8674 72.417 91.1319 74.6074 94.2523 76.4074C96.4084 77.6504 98.6822 78.738 100.705 80.197C100.717 81.3301 100.694 82.4745 100.705 83.6076C100.728 85.7487 100.702 87.9088 100.705 90.0499C100.705 91.687 100.717 93.3392 100.705 94.9763C100.686 97.6025 100.778 100.251 100.645 102.874C99.0314 103.723 96.936 104.499 95.4138 105.424C94.8444 105.769 94.7913 106.455 94.5332 106.622C93.9827 106.974 92.6655 106.595 92.358 107.861C92.248 107.903 92.0885 107.819 91.9784 107.861C88.2849 109.286 84.4358 111.938 81.0991 114.045C80.9473 114.231 80.5904 114.72 80.5904 114.872V137.04C79.8274 136.984 79.6984 137.723 79.072 138.177C78.8633 138.329 78.1344 138.265 77.8345 138.553L74.8964 140.83C74.1486 140.936 73.8791 141.38 73.378 141.588C69.2442 143.32 65.3723 146.173 61.99 148.409C59.7846 149.868 59.8377 148.292 58.0156 147.261C57.3475 146.882 56.6756 146.621 55.9164 146.514C55.7912 146.495 55.6621 146.526 55.5368 146.514C55.609 145.484 54.9219 145.582 54.3221 145.264C52.8796 144.502 51.3916 143.449 49.8428 143.104C49.7214 142.956 49.6037 142.85 49.4632 142.725C49.1747 142.467 48.8597 142.46 48.704 142.346C48.3244 142.073 48.1346 141.383 47.1856 141.573L47.5538 140.849C46.6162 140.629 45.4395 140.243 44.5816 139.826C43.8983 139.492 40.7438 137.973 40.4401 137.696C40.2238 137.499 40.3984 137.173 40.349 137.04C39.829 114.72 41.0437 92.2743 40.349 69.9652C40.3414 69.7151 40.3756 69.4536 40.349 69.2073C40.2921 68.6426 40.6261 68.347 39.8442 68.5062C38.5763 68.7677 38.1398 69.5559 37.2059 70.0485C34.4045 71.5303 31.269 72.9703 28.4182 74.5543C27.8298 74.8802 27.8754 75.6154 27.8222 75.6495C27.7045 75.7215 26.8656 75.5661 26.338 75.8579C24.2692 77.0024 22.2573 78.4538 20.0404 79.4315L12.6914 74.9409C11.4652 74.3762 10.5352 73.7964 9.21801 73.3758C9.01683 73.3114 8.67898 73.4326 8.45881 73.3758C7.85145 71.7273 6.0066 71.644 5.04241 71.102C4.21868 70.6359 0.365738 68.3849 0.168346 67.8203C0.073446 63.4888 0.077242 59.1384 0.10761 54.8069C0.118998 53.1698 0.081038 51.5176 0.10761 49.8805C0.160754 46.6442 -0.773062 45.9507 2.03598 44.0332C3.18237 43.2487 2.95082 43.5746 3.90361 42.6803C4.16174 42.4416 4.43885 42.4302 4.66281 42.3013C8.53853 40.0428 12.5585 37.6402 16.4304 35.4801C17.3453 34.9685 21.76 33.7104 22.1244 32.8274C22.1396 32.7024 22.1054 32.5697 22.1244 32.4485C23.7605 32.0468 24.8234 30.8834 26.3 30.1747C26.4936 30.0838 26.6113 29.8223 26.6796 29.7958C26.7897 29.7503 26.9529 29.8412 27.0592 29.7958C28.4751 29.2046 30.7489 29.2804 31.2348 27.1431C32.18 26.9953 32.7608 26.3245 33.5124 26.0062C34.8524 25.4378 37.1718 24.6041 38.265 23.74C39.3583 22.876 39.3013 22.4895 40.6413 21.8756C42.2318 21.148 43.401 20.2271 44.9004 19.5639C46.6846 18.7757 48.1232 17.7298 50.1503 16.555C51.7105 15.6531 55.9734 14.6186 56.2884 12.7427C58.232 12.72 60.1452 11.2345 61.6028 10.09C61.7319 10.0749 61.8686 10.1166 61.9824 10.09C63.6033 9.72244 66.2529 7.47144 67.6765 6.67942C68.819 6.04277 71.4649 5.69792 71.4725 4.40568C71.5977 4.40189 71.7268 4.41326 71.8521 4.40568H72.2317C73.6096 4.05704 72.7593 3.79935 72.9909 3.64777C73.8867 3.0528 75.667 2.49953 76.7451 1.90078C77.4739 1.49529 78.1003 0.585796 79.0645 0.237156C81.4218 -0.615496 82.701 1.0216 84.7585 2.13194H84.7623Z" fill="#F5F5F5"/>
</svg>
