<svg width="218" height="1920" viewBox="0 0 218 1920" fill="none" xmlns="http://www.w3.org/2000/svg">
<path d="M216.5 1367.77C216.5 1409.51 200.12 1448.75 170.36 1478.26L83.2109 1564.72C62.9578 1584.81 51.7958 1611.53 51.7958 1639.95C51.7959 1668.36 62.958 1695.09 83.2109 1715.18L83.2109 1715.19C99.4433 1731.29 112.125 1750.12 120.909 1771.16C129.693 1792.19 134.147 1814.41 134.147 1837.18L134.147 1917.5L83.8456 1917.5L83.8456 1837.18C83.8456 1804.41 70.9812 1773.61 47.6327 1750.45C18.129 1721.18 1.77299 1682.35 1.49993 1641.01L1.49993 1639.95C1.50002 1598.87 17.3711 1560.21 46.2538 1530.85L47.6396 1529.46L134.789 1443.01C155.042 1422.92 166.204 1396.19 166.204 1367.77C166.204 1339.8 155.389 1313.47 135.732 1293.48L134.789 1292.54L47.6396 1206.08C17.8856 1176.57 1.49995 1137.33 1.49995 1095.59C1.49999 1053.85 17.8794 1014.62 47.6396 985.101L134.789 898.646C176.605 857.164 176.605 789.661 134.789 748.179L47.6396 661.725C17.8857 632.208 1.49997 592.968 1.49998 551.233C1.50007 510.151 17.3712 471.486 46.2539 442.134L47.6396 440.743L134.789 354.289C155.042 334.198 166.204 307.472 166.204 279.052C166.204 251.076 155.388 224.742 135.731 204.768L134.789 203.821C118.557 187.718 105.874 168.891 97.0908 147.85C88.3071 126.814 83.8525 104.602 83.8525 81.8291L83.8525 1.49999L134.154 1.5L134.154 81.8232C134.154 114.587 147.019 145.393 170.367 168.555C200.121 198.071 216.5 237.311 216.5 279.046C216.5 320.781 200.12 360.02 170.36 389.536L83.2109 475.99C41.395 517.472 41.395 584.976 83.2109 626.458L170.36 712.912C200.121 742.435 216.5 781.668 216.5 823.409C216.5 865.15 200.12 904.383 170.36 933.899L83.2109 1020.35C41.395 1061.84 41.3951 1129.34 83.2109 1170.82L170.36 1257.28C200.121 1286.8 216.5 1326.03 216.5 1367.77Z" fill="#333333" stroke="#146991" stroke-width="3"/>
<mask id="mask0_480_39" style="mask-type:alpha" maskUnits="userSpaceOnUse" x="-1" y="1" width="219" height="1919">
<path d="M216.5 1368.77C216.5 1410.51 200.12 1449.75 170.36 1479.26L83.2109 1565.72C62.9578 1585.81 51.7958 1612.53 51.7958 1640.95C51.7959 1669.36 62.958 1696.09 83.2109 1716.18L83.2109 1716.19C99.4433 1732.29 112.125 1751.12 120.909 1772.16C129.693 1793.19 134.147 1815.41 134.147 1838.18L134.147 1918.5L83.8456 1918.5L83.8456 1838.18C83.8456 1805.41 70.9812 1774.61 47.6327 1751.45C18.129 1722.18 1.77299 1683.35 1.49993 1642.01L1.49993 1640.95C1.50002 1599.87 17.3711 1561.21 46.2538 1531.85L47.6396 1530.46L134.789 1444.01C155.042 1423.92 166.204 1397.19 166.204 1368.77C166.204 1340.8 155.389 1314.47 135.732 1294.48L134.789 1293.54L47.6396 1207.08C17.8856 1177.57 1.49995 1138.33 1.49995 1096.59C1.49999 1054.85 17.8794 1015.62 47.6396 986.101L134.789 899.646C176.605 858.164 176.605 790.661 134.789 749.179L47.6396 662.725C17.8857 633.208 1.49997 593.968 1.49998 552.233C1.50007 511.151 17.3712 472.486 46.2539 443.134L47.6396 441.743L134.789 355.289C155.042 335.198 166.204 308.472 166.204 280.052C166.204 252.076 155.388 225.742 135.731 205.768L134.789 204.821C118.557 188.718 105.874 169.891 97.0908 148.85C88.3071 127.814 83.8525 105.602 83.8525 82.8291L83.8525 2.49999L134.154 2.5L134.154 82.8232C134.154 115.587 147.019 146.393 170.367 169.555C200.121 199.071 216.5 238.311 216.5 280.046C216.5 321.781 200.12 361.02 170.36 390.536L83.2109 476.99C41.395 518.472 41.395 585.976 83.2109 627.458L170.36 713.912C200.121 743.435 216.5 782.668 216.5 824.409C216.5 866.15 200.12 905.383 170.36 934.899L83.2109 1021.35C41.395 1062.84 41.3951 1130.34 83.2109 1171.82L170.36 1258.28C200.121 1287.8 216.5 1327.03 216.5 1368.77Z" fill="#333333" stroke="#146991" stroke-width="3"/>
</mask>
<g mask="url(#mask0_480_39)">
<rect width="278.585" height="1360.75" rx="47.5" transform="matrix(-0.999998 -0.0020469 0.00377845 -0.999993 165.858 1082.31)" fill="url(#paint0_radial_480_39)" fill-opacity="0.74"/>
<rect width="278.585" height="1360.75" rx="47.5" transform="matrix(-0.999998 -0.0020469 0.00377845 -0.999993 336.858 2065.31)" fill="url(#paint1_radial_480_39)" fill-opacity="0.74"/>
</g>
<defs>
<radialGradient id="paint0_radial_480_39" cx="0" cy="0" r="1" gradientUnits="userSpaceOnUse" gradientTransform="translate(139.293 680.374) scale(139.293 680.374)">
<stop stop-color="#1A5069"/>
<stop offset="1" stop-color="#0F7BAE" stop-opacity="0"/>
</radialGradient>
<radialGradient id="paint1_radial_480_39" cx="0" cy="0" r="1" gradientUnits="userSpaceOnUse" gradientTransform="translate(139.293 680.374) scale(139.293 680.374)">
<stop stop-color="#1A5069"/>
<stop offset="1" stop-color="#0F7BAE" stop-opacity="0"/>
</radialGradient>
</defs>
</svg>
