<svg width="223" height="134" viewBox="0 0 223 134" fill="none" xmlns="http://www.w3.org/2000/svg">
<path d="M60.7483 66.2289C69.6888 61.4346 78.1704 55.639 87.1305 50.8918C96.6512 45.8501 104.431 43.6042 115.43 44.2834C132.676 45.3475 147.553 59.0865 162.626 66.2289V6.91451C162.626 6.29411 164.238 3.7772 164.771 3.18822C167.587 0.0901716 172.272 -0.809007 176.1 0.891187L216.665 24.5683C220.135 27.3797 222.237 30.9725 222.59 35.4841C221.574 53.3538 223.896 72.6213 222.59 90.3261C222.123 96.6832 219.178 102.286 214.312 106.331C202.164 113.563 190.459 122.375 178.264 129.431C169.304 134.614 160.25 135.882 150.862 130.644C135.648 122.159 119.622 98.2224 100.443 109.617C82.4171 120.325 69.2809 143.252 45.4986 129.823C34.7152 123.733 20.583 114.804 10.5407 107.591C4.18434 103.025 0.957154 97.4567 0.388573 89.5447C-0.850541 72.3229 1.35712 53.6483 0.388573 36.2694C0.949311 30.0144 3.44322 26.5747 8.50947 23.2411C18.8851 16.4167 33.3741 8.05713 44.4202 2.34401C48.6905 0.13729 52.0157 -1.28412 56.5683 1.6922C57.9211 2.57568 60.7483 6.19595 60.7483 7.69589V66.2289Z" fill="white"/>
</svg>
