<svg width="125" height="164" viewBox="0 0 125 164" fill="none" xmlns="http://www.w3.org/2000/svg">
<path d="M0 9.64148C0.723168 4.645 3.93763 0.71329 9.13129 0L86.0639 0.044796C89.6452 0.492756 94.5482 5.19634 94.5482 8.78346V54.689H88.1642C87.659 54.689 86.2958 55.454 85.576 55.3782V24.6033L85.057 24.0865H9.31814V133.433H85.576V129.653C85.794 129.409 87.5103 130.339 87.8182 130.339H94.5482V154.236C94.5482 157.678 89.6659 162.775 86.0639 162.975L9.13129 163.016C4.04836 162.344 0.564002 158.337 0 153.375L0 9.64148ZM39.0926 14.0074C39.6255 14.4381 40.2379 14.414 40.8746 14.4691C43.8053 14.7172 51.5975 14.8585 54.3241 14.4346C57.0507 14.0108 56.9607 10.0757 54.3241 9.66215C52.3899 9.35892 42.0164 9.30378 40.2068 9.64837C38.3971 9.99295 37.5771 12.7875 39.0926 14.0074ZM37.8539 146.914C35.6325 148.164 35.7743 150.711 38.1376 151.648H56.4071C58.8776 150.704 58.9019 147.816 56.4071 146.852L37.8539 146.914Z" fill="url(#paint0_linear_446_193)"/>
<path d="M98.0665 67.6834L105.025 70.4539C106.627 69.4236 109.315 66.1845 111.253 66.3809C112.409 66.498 117.353 71.3739 117.599 72.4731C118.156 74.9645 114.703 77.2766 113.924 79.5578L116.969 86.16C119.014 86.7045 122.907 86.0153 124.229 87.8657C125.277 89.3302 125.215 95.0227 124.298 96.5458C122.924 98.8235 117.637 97.6657 116.689 99.2784C115.848 100.708 115.374 103.817 114.232 105.412C115.173 107.931 118.433 109.316 118 112.259C117.807 113.561 113.246 118.127 111.945 118.296C109.315 118.634 106.212 114.433 104.876 114.678L98.3814 117.307C97.9731 119.144 98.3122 123.348 96.9489 124.65C95.5856 125.953 89.5269 125.873 88.0183 124.984C85.8626 123.709 86.5581 119.516 85.5824 117.438L78.8974 114.936C76.4061 115.956 74.2124 120.022 71.2332 118.324C70.9356 118.151 66.8561 114.061 66.5932 113.665C64.6866 110.815 68.4997 108.723 69.4443 106.515C70.119 104.936 67.0603 101.225 66.9496 99.2094C64.8839 98.3687 60.5172 99.299 59.3926 97.1109C58.8286 96.0151 58.8079 90.9808 59.0224 89.6128C59.531 86.384 64.1918 87.4109 66.3544 86.6045C67.3025 86.2496 68.5378 80.7707 69.5758 79.6233C68.5724 77.5661 65.1088 75.278 65.6139 72.8246C65.8527 71.6702 70.7661 66.9598 72.0152 66.7944C74.112 66.5118 77.4857 70.857 79.0946 70.4504L85.2537 67.6179C86.0045 65.8261 85.3332 61.5877 86.9491 60.3679C87.9872 59.5857 94.2293 59.6098 95.4818 60.1094C97.8416 61.0536 97.3538 65.6159 98.0562 67.6834H98.0665ZM91.6722 81.6425C76.8698 81.8045 77.8905 104.864 92.9905 103.51C106.679 102.283 105.62 81.4875 91.6722 81.6425Z" fill="url(#paint1_linear_446_193)"/>
<path d="M53.0465 30.3408C55.8284 29.7412 56.8284 31.9604 56.0083 34.338C50.3822 45.5473 47.2058 60.1336 41.365 70.9777C39.372 74.682 35.4275 72.8143 36.469 69.1893L52.1053 30.7888C52.3925 30.5993 52.7004 30.4132 53.0465 30.3374V30.3408Z" fill="url(#paint2_linear_446_193)"/>
<path d="M31.6488 64.2203C30.6212 65.2471 29.2544 65.1127 28.123 64.3133C26.6351 63.2623 18.2789 54.9509 17.2547 53.483C16.1474 51.8979 16.3343 50.9779 17.4208 49.5203C18.8498 47.6044 26.0123 40.4853 27.9465 39.0346C30.5623 37.0704 33.2197 39.641 32.0121 42.0531C30.7423 44.5927 24.9604 48.4831 23.1023 51.064L22.8013 51.7153C22.9466 52.5251 30.6696 59.0791 31.7492 60.6986C32.4758 61.7875 32.635 63.2313 31.6523 64.2168L31.6488 64.2203Z" fill="url(#paint3_linear_446_193)"/>
<path d="M64.434 38.2351C65.4755 38.0456 65.8665 38.4867 66.6035 39.0346C68.4478 40.4163 76.1708 48.0558 77.4787 49.858C78.4614 51.2122 78.4683 51.9634 77.4787 53.3279C76.1673 55.1335 68.4512 62.7626 66.6035 64.1513C63.953 66.143 61.5586 63.7792 62.7178 60.9639C63.4306 59.2375 71.9217 52.4492 71.7487 51.4672C70.209 48.9965 63.6416 44.4583 62.7178 42.222C62.0569 40.6162 62.5309 38.5797 64.434 38.2351Z" fill="url(#paint4_linear_446_193)"/>
<defs>
<linearGradient id="paint0_linear_446_193" x1="110.836" y1="85.766" x2="-32.6093" y2="84.2336" gradientUnits="userSpaceOnUse">
<stop stop-color="#FFE1AF"/>
<stop offset="1" stop-color="#156489"/>
</linearGradient>
<linearGradient id="paint1_linear_446_193" x1="136.388" y1="94.4189" x2="36.1204" y2="92.5659" gradientUnits="userSpaceOnUse">
<stop stop-color="#FFE1AF"/>
<stop offset="1" stop-color="#156489"/>
</linearGradient>
<linearGradient id="paint2_linear_446_193" x1="59.7294" y1="52.7357" x2="29.4015" y2="52.4745" gradientUnits="userSpaceOnUse">
<stop stop-color="#FFE1AF"/>
<stop offset="1" stop-color="#156489"/>
</linearGradient>
<linearGradient id="paint3_linear_446_193" x1="35.0694" y1="52.3402" x2="11.0495" y2="52.077" gradientUnits="userSpaceOnUse">
<stop stop-color="#FFE1AF"/>
<stop offset="1" stop-color="#156489"/>
</linearGradient>
<linearGradient id="paint4_linear_446_193" x1="80.9403" y1="52.2377" x2="56.9686" y2="51.9764" gradientUnits="userSpaceOnUse">
<stop stop-color="#FFE1AF"/>
<stop offset="1" stop-color="#156489"/>
</linearGradient>
</defs>
</svg>
