<svg width="78" height="64" viewBox="0 0 78 64" fill="none" xmlns="http://www.w3.org/2000/svg">
<g clip-path="url(#clip0_52_271)">
<path d="M65.0886 0.0183124C67.3392 0.176043 74.5103 1.17011 76.4038 2.07798C78.0166 2.85196 78.4594 4.48061 77.4972 6.00473C76.5332 7.53068 71.2355 9.561 69.3311 10.5917C61.6406 14.7496 54.4659 20.2738 47.6392 25.7063C52.3902 29.6239 57.3307 33.3599 61.8192 37.5875C64.4307 40.047 69.6828 45.2557 70.6742 48.6121C71.4287 51.1633 72.1103 58.7417 71.8168 61.3589C71.5234 63.9743 69.0778 64.7684 67.0859 63.1911C65.5077 61.9421 63.1368 58.2538 61.5477 56.5114C54.2563 48.5204 45.5708 41.6389 36.9728 35.1371C32.3749 39.185 28.1433 43.6839 24.0885 48.2838C21.7285 50.9597 19.6127 53.9052 17.1853 56.5169C13.32 60.6748 11.3774 61.0471 5.779 59.2057C3.11285 58.329 3.17117 56.7132 3.82905 54.239C5.54938 47.7629 11.4831 40.9016 15.9953 36.1239C18.8838 33.0665 22.0055 30.2182 24.905 27.1699C19.3722 23.3936 13.1943 20.7727 7.33168 17.6034C5.70611 16.7249 2.2946 15.0596 1.27224 13.64C0.0311933 11.9159 -0.264033 6.95294 0.220722 4.90428C1.07178 1.304 8.52534 3.60026 10.9455 4.2752C16.5129 5.82682 20.6515 8.26064 25.5738 11.1401C29.0035 13.1466 32.3385 15.3145 35.7281 17.3907C44.2624 10.9861 52.4431 3.47921 62.725 0.0183124C63.5049 0.056828 64.3104 -0.0367098 65.0886 0.0183124Z" fill="#FFE1AF" fill-opacity="0.52"/>
</g>
<defs>
<clipPath id="clip0_52_271">
<rect width="78" height="64" fill="white"/>
</clipPath>
</defs>
</svg>
