<svg width="226" height="98" viewBox="0 0 226 98" fill="none" xmlns="http://www.w3.org/2000/svg">
<g clip-path="url(#clip0_94_1162)">
<path d="M34.4425 19.9001V25.3121H20.5779V70.882H13.9372V25.3121H0V19.9001H34.4425Z" fill="white"/>
<path d="M70.6373 32.0065C73.0684 33.3006 74.9803 35.2374 76.3671 37.8227C77.7538 40.408 78.4472 43.5546 78.4472 47.2595V70.8849H71.879V48.2105C71.879 44.2118 70.881 41.1525 68.8879 39.0296C66.8919 36.9067 64.1677 35.8481 60.7153 35.8481C57.263 35.8481 54.4285 36.9445 52.36 39.1401C50.2915 41.3357 49.2587 44.5288 49.2587 48.7223V70.8849H42.6179V16.7536H49.2587V36.5025C50.5729 34.4551 52.3832 32.8702 54.6954 31.7477C57.0048 30.6252 59.5955 30.0668 62.4676 30.0668C65.4848 30.0668 68.2061 30.7124 70.6402 32.0036L70.6373 32.0065Z" fill="white"/>
<path d="M100.957 31.9687C103.122 30.7008 105.762 30.0668 108.875 30.0668V36.9416H107.122C99.6808 36.9416 95.9586 40.9896 95.9586 49.0858V70.8849H89.3179V30.7997H95.9586V37.308C97.1278 35.0164 98.793 33.2367 100.957 31.9687Z" fill="white"/>
<path d="M116.754 22.9711C115.878 22.0928 115.44 21.0197 115.44 19.7518C115.44 18.4839 115.878 17.4108 116.754 16.5325C117.63 15.6543 118.698 15.2152 119.966 15.2152C121.234 15.2152 122.214 15.6543 123.067 16.5325C123.917 17.4108 124.344 18.4839 124.344 19.7518C124.344 21.0197 123.917 22.0928 123.067 22.9711C122.214 23.8493 121.181 24.2884 119.966 24.2884C118.75 24.2884 117.63 23.8493 116.754 22.9711ZM123.174 30.7997V70.8849H116.534V30.7997H123.174Z" fill="white"/>
<path d="M222.011 53.3287H190.049C190.293 57.2779 191.642 60.3634 194.099 62.5823C196.553 64.8012 199.536 65.9091 203.037 65.9091C205.907 65.9091 208.303 65.2403 210.224 63.8967C212.144 62.5561 213.493 60.7647 214.274 58.5197H221.425C220.354 62.3729 218.213 65.5049 215.005 67.9186C211.793 70.3324 207.804 71.5392 203.037 71.5392C199.243 71.5392 195.848 70.6871 192.857 68.9801C189.866 67.273 187.516 64.8477 185.816 61.7011C184.113 58.5546 183.263 54.9107 183.263 50.7667C183.263 46.6226 184.09 42.9904 185.744 39.8671C187.397 36.7467 189.721 34.3446 192.712 32.6638C195.703 30.9829 199.144 30.1395 203.037 30.1395C206.931 30.1395 210.189 30.9683 213.107 32.626C216.026 34.2836 218.277 36.5635 219.858 39.4658C221.439 42.3681 222.229 45.6455 222.229 49.3039C222.229 50.5718 222.156 51.9125 222.011 53.3258V53.3287ZM213.691 41.3677C212.571 39.5385 211.05 38.1484 209.13 37.1975C207.206 36.2465 205.08 35.7696 202.744 35.7696C199.388 35.7696 196.53 36.8427 194.172 38.9889C191.81 41.1351 190.461 44.11 190.122 47.9109H215.37C215.37 45.3751 214.81 43.194 213.693 41.3648L213.691 41.3677Z" fill="white"/>
<mask id="mask0_94_1162" style="mask-type:luminance" maskUnits="userSpaceOnUse" x="134" y="0" width="54" height="72">
<path d="M186.382 0L171.885 10.8181L176.469 12.7549L155.76 63.8822H155.528L142.273 30.9247H134.283L150.782 71.5421H160.507L183.281 15.3111L187.934 17.4486L186.382 0Z" fill="white"/>
</mask>
<g mask="url(#mask0_94_1162)">
<path d="M134.283 48.8706L144.338 71.5421H134.283V48.8706Z" fill="#ECD5B0"/>
<path d="M134.283 48.068L144.695 71.5421H144.338L134.283 48.8706V48.068Z" fill="#ECD5B0"/>
<path d="M134.283 47.2624L145.052 71.5421H144.695L134.283 48.068V47.2624Z" fill="#ECD5B0"/>
<path d="M134.283 46.4598L145.406 71.5421H145.052L134.283 47.2624V46.4598Z" fill="#ECD5B0"/>
<path d="M134.283 45.6571L145.763 71.5421H145.406L134.283 46.4598V45.6571Z" fill="#EBD4AF"/>
<path d="M134.283 44.8545L146.12 71.5421H145.763L134.283 45.6571V44.8545Z" fill="#EBD4AF"/>
<path d="M134.283 44.049L146.477 71.5421H146.12L134.283 44.8545V44.049Z" fill="#EBD4AF"/>
<path d="M134.283 43.2463L146.833 71.5421H146.477L134.283 44.049V43.2463Z" fill="#EAD3AE"/>
<path d="M134.283 42.4437L147.19 71.5421H146.833L134.283 43.2463V42.4437Z" fill="#EAD3AE"/>
<path d="M134.283 41.6382L147.544 71.5421H147.19L134.283 42.4437V41.6382Z" fill="#EAD3AE"/>
<path d="M134.283 40.8355L147.901 71.5421H147.544L134.283 41.6381V40.8355Z" fill="#E9D2AD"/>
<path d="M134.283 40.0329L148.258 71.5421H147.901L134.283 40.8355V40.0329Z" fill="#E9D2AD"/>
<path d="M134.283 39.2302L148.615 71.5421H148.258L134.283 40.0329V39.2302Z" fill="#E8D1AC"/>
<path d="M134.283 38.4247L148.972 71.5421H148.615L134.283 39.2302V38.4247Z" fill="#E8D1AC"/>
<path d="M134.283 37.6221L149.328 71.5421H148.972L134.283 38.4247V37.6221Z" fill="#E7D0AB"/>
<path d="M134.283 36.8194L149.682 71.5421H149.328L134.283 37.6221V36.8194Z" fill="#E7D0AB"/>
<path d="M134.283 36.0139L150.039 71.5421H149.682L134.283 36.8194V36.0139Z" fill="#E6CFAA"/>
<path d="M134.283 35.2113L150.396 71.5421H150.039L134.283 36.0139V35.2113Z" fill="#E6CFAA"/>
<path d="M134.283 34.4086L150.753 71.5421H150.396L134.283 35.2113V34.4086Z" fill="#E5CEA9"/>
<path d="M134.283 33.606L151.11 71.5421H150.753L134.283 34.4086V33.606Z" fill="#E4CDA8"/>
<path d="M134.283 32.8004L151.467 71.5421H151.11L134.283 33.606V32.8004Z" fill="#E4CDA8"/>
<path d="M134.283 31.9978L151.82 71.5421H151.467L134.283 32.8004V31.9978Z" fill="#E3CCA7"/>
<path d="M134.283 31.1952L152.177 71.5421H151.82L134.283 31.9978V31.1952Z" fill="#E2CBA6"/>
<path d="M134.283 30.3896L152.534 71.5421H152.177L134.283 31.1952V30.3896Z" fill="#E2CBA6"/>
<path d="M134.283 29.587L152.891 71.5421H152.534L134.283 30.3896V29.587Z" fill="#E1CAA5"/>
<path d="M134.283 28.7844L153.248 71.5421H152.891L134.283 29.587V28.7844Z" fill="#E0C9A4"/>
<path d="M134.283 27.9817L153.605 71.5421H153.248L134.283 28.7844V27.9817Z" fill="#E0C9A4"/>
<path d="M134.283 27.1762L153.959 71.5421H153.605L134.283 27.9817V27.1762Z" fill="#DFC8A3"/>
<path d="M134.283 26.3735L154.315 71.5421H153.959L134.283 27.1762V26.3735Z" fill="#DEC7A2"/>
<path d="M134.283 25.5709L154.672 71.5421H154.315L134.283 26.3735V25.5709Z" fill="#DDC6A1"/>
<path d="M134.283 24.7654L155.029 71.5421H154.672L134.283 25.5709V24.7654Z" fill="#DDC6A1"/>
<path d="M134.283 23.9627L155.386 71.5421H155.029L134.283 24.7654V23.9627Z" fill="#DCC5A0"/>
<path d="M134.283 23.1601L155.74 71.5421H155.386L134.283 23.9627V23.1601Z" fill="#DBC49F"/>
<path d="M134.283 22.5814L134.367 22.5436L156.097 71.5421H155.74L134.283 23.1601V22.5814Z" fill="#DAC39E"/>
<path d="M134.367 22.5436L134.663 22.4098L156.454 71.5421H156.097L134.367 22.5436Z" fill="#D9C39E"/>
<path d="M134.663 22.4098L134.962 22.2789L156.811 71.5421H156.454L134.663 22.4098Z" fill="#D9C29D"/>
<path d="M134.962 22.2789L135.261 22.1452L157.167 71.5421H156.811L134.962 22.2789Z" fill="#D8C19C"/>
<path d="M135.261 22.1452L135.557 22.0114L157.524 71.5421H157.167L135.261 22.1452Z" fill="#D7C09B"/>
<path d="M135.557 22.0114L135.855 21.8805L157.878 71.5421H157.524L135.557 22.0114Z" fill="#D6BF9A"/>
<path d="M135.855 21.8805L136.151 21.7468L158.235 71.5421H157.878L135.855 21.8805Z" fill="#D5BE99"/>
<path d="M136.151 21.7468L136.45 21.6159L158.592 71.5421H158.235L136.151 21.7468Z" fill="#D4BE99"/>
<path d="M136.45 21.6159L136.746 21.4821L158.949 71.5421H158.592L136.45 21.6159Z" fill="#D3BD98"/>
<path d="M136.746 21.4821L137.045 21.3513L159.305 71.5421H158.949L136.746 21.4821Z" fill="#D3BC97"/>
<path d="M137.045 21.3513L137.341 21.2175L159.662 71.5421H159.305L137.045 21.3513Z" fill="#D2BB96"/>
<path d="M137.341 21.2175L137.64 21.0837L160.016 71.5421H159.662L137.341 21.2175Z" fill="#D1BA95"/>
<path d="M137.64 21.0837L137.938 20.9529L160.373 71.5421H160.016L137.64 21.0837Z" fill="#D0B994"/>
<path d="M137.938 20.9529L138.234 20.8191L160.73 71.5421H160.373L137.938 20.9529Z" fill="#CFB893"/>
<path d="M138.234 20.8191L138.533 20.6882L161.087 71.5421H160.73L138.234 20.8191Z" fill="#CEB792"/>
<path d="M138.533 20.6882L138.829 20.5544L161.444 71.5421H161.087L138.533 20.6882Z" fill="#CDB691"/>
<path d="M138.829 20.5544L139.128 20.4207L161.8 71.5421H161.444L138.829 20.5544Z" fill="#CCB590"/>
<path d="M139.128 20.4207L139.424 20.2898L162.12 71.4607L161.934 71.5421H161.8L139.128 20.4207Z" fill="#CBB48F"/>
<path d="M139.722 20.1535L139.425 20.2859L162.12 71.4548L162.417 71.3225L139.722 20.1535Z" fill="#CAB38E"/>
<path d="M140.016 20.0184L139.719 20.1507L162.415 71.3197L162.712 71.1873L140.016 20.0184Z" fill="#C9B28D"/>
<path d="M140.318 19.8876L140.021 20.02L162.716 71.1889L163.013 71.0566L140.318 19.8876Z" fill="#C8B18C"/>
<path d="M140.612 19.7554L140.315 19.8877L163.011 71.0567L163.308 70.9243L140.612 19.7554Z" fill="#C7B08B"/>
<path d="M140.909 19.622L140.612 19.7543L163.308 70.9233L163.605 70.7909L140.909 19.622Z" fill="#C6AF8A"/>
<path d="M141.208 19.4895L140.911 19.6218L163.606 70.7908L163.903 70.6584L141.208 19.4895Z" fill="#C5AE89"/>
<path d="M141.505 19.3561L141.208 19.4884L163.903 70.6574L164.2 70.525L141.505 19.3561Z" fill="#C4AD88"/>
<path d="M141.803 19.2253L141.506 19.3576L164.202 70.5266L164.499 70.3943L141.803 19.2253Z" fill="#C3AC87"/>
<path d="M142.101 19.0931L141.804 19.2254L164.499 70.3944L164.796 70.262L142.101 19.0931Z" fill="#C2AB86"/>
<path d="M142.398 18.9568L142.101 19.0891L164.797 70.258L165.093 70.1257L142.398 18.9568Z" fill="#C1AA85"/>
<path d="M142.694 18.8272L142.397 18.9595L165.092 70.1285L165.389 69.9961L142.694 18.8272Z" fill="#C0A984"/>
<path d="M142.994 18.6938L142.697 18.8261L165.392 69.995L165.689 69.8627L142.994 18.6938Z" fill="#BFA883"/>
<path d="M143.289 18.5613L142.992 18.6936L165.688 69.8626L165.985 69.7302L143.289 18.5613Z" fill="#BEA782"/>
<path d="M143.589 18.4279L143.292 18.5602L165.988 69.7291L166.285 69.5968L143.589 18.4279Z" fill="#BCA681"/>
<path d="M143.887 18.2945L143.59 18.4268L166.285 69.5957L166.582 69.4634L143.887 18.2945Z" fill="#BBA580"/>
<path d="M144.182 18.1649L143.885 18.2972L166.581 69.4661L166.878 69.3338L144.182 18.1649Z" fill="#BAA47F"/>
<path d="M144.482 18.0286L144.186 18.1609L166.881 69.3298L167.178 69.1975L144.482 18.0286Z" fill="#B9A37E"/>
<path d="M144.778 17.899L144.481 18.0313L167.177 69.2002L167.474 69.0679L144.778 17.899Z" fill="#B8A17C"/>
<path d="M145.075 17.7656L144.778 17.8979L167.474 69.0668L167.771 68.9345L145.075 17.7656Z" fill="#B7A07B"/>
<path d="M145.373 17.6333L145.076 17.7656L167.771 68.9346L168.068 68.8023L145.373 17.6333Z" fill="#B69F7A"/>
<path d="M145.671 17.4997L145.374 17.632L168.069 68.8009L168.366 68.6686L145.671 17.4997Z" fill="#B59E79"/>
<path d="M145.965 17.3674L145.668 17.4997L168.364 68.6687L168.661 68.5364L145.965 17.3674Z" fill="#B39D78"/>
<path d="M146.267 17.2367L145.97 17.369L168.665 68.5379L168.962 68.4056L146.267 17.2367Z" fill="#B29C77"/>
<path d="M146.564 17.1003L146.267 17.2327L168.962 68.4016L169.259 68.2693L146.564 17.1003Z" fill="#B19B76"/>
<path d="M146.863 16.9708L146.566 17.1031L169.261 68.272L169.558 68.1397L146.863 16.9708Z" fill="#B09974"/>
<path d="M147.16 16.8374L146.863 16.9697L169.558 68.1386L169.855 68.0063L147.16 16.8374Z" fill="#AF9873"/>
<path d="M147.454 16.7051L147.157 16.8374L169.853 68.0064L170.15 67.8741L147.454 16.7051Z" fill="#AD9772"/>
<path d="M147.755 16.5714L147.458 16.7038L170.154 67.8727L170.451 67.7404L147.755 16.5714Z" fill="#AC9671"/>
<path d="M148.05 16.4392L147.753 16.5715L170.448 67.7405L170.745 67.6082L148.05 16.4392Z" fill="#AB9570"/>
<path d="M148.348 16.3085L148.051 16.4408L170.747 67.6097L171.044 67.4774L148.348 16.3085Z" fill="#AA936E"/>
<path d="M148.646 16.1762L148.349 16.3085L171.044 67.4775L171.341 67.3452L148.646 16.1762Z" fill="#A9926D"/>
<path d="M148.943 16.0399L148.646 16.1722L171.341 67.3412L171.638 67.2088L148.943 16.0399Z" fill="#A7916C"/>
<path d="M149.241 15.9091L148.944 16.0415L171.64 67.2104L171.937 67.0781L149.241 15.9091Z" fill="#A6906B"/>
<path d="M149.539 15.7769L149.242 15.9092L171.937 67.0782L172.234 66.9458L149.539 15.7769Z" fill="#A58F6A"/>
<path d="M149.837 15.6461L149.54 15.7785L172.236 66.9474L172.532 66.8151L149.837 15.6461Z" fill="#A48D68"/>
<path d="M150.134 15.511L149.837 15.6433L172.533 66.8123L172.83 66.6799L150.134 15.511Z" fill="#A28C67"/>
<path d="M150.431 15.3776L150.135 15.5099L172.83 66.6788L173.127 66.5465L150.431 15.3776Z" fill="#A18B66"/>
<path d="M150.727 15.248L150.43 15.3803L173.126 66.5493L173.423 66.4169L150.727 15.248Z" fill="#A08A65"/>
<path d="M151.027 15.1117L150.73 15.244L173.426 66.4129L173.723 66.2806L151.027 15.1117Z" fill="#9F8863"/>
<path d="M151.323 14.9821L151.026 15.1144L173.722 66.2834L174.019 66.151L151.323 14.9821Z" fill="#9D8762"/>
<path d="M151.62 14.8487L151.323 14.981L174.019 66.15L174.316 66.0176L151.62 14.8487Z" fill="#9C8661"/>
<path d="M151.92 14.7153L151.623 14.8476L174.319 66.0165L174.616 65.8842L151.92 14.7153Z" fill="#9B845F"/>
<path d="M152.216 14.5828L151.919 14.7151L174.614 65.8841L174.911 65.7517L152.216 14.5828Z" fill="#99835E"/>
<path d="M152.516 14.4494L152.219 14.5817L174.914 65.7506L175.211 65.6183L152.516 14.4494Z" fill="#98825D"/>
<path d="M152.812 14.3198L152.515 14.4521L175.21 65.6211L175.507 65.4887L152.812 14.3198Z" fill="#97815C"/>
<path d="M153.109 14.1864L152.812 14.3187L175.507 65.4876L175.804 65.3553L153.109 14.1864Z" fill="#967F5A"/>
<path d="M153.406 14.0512L153.109 14.1836L175.805 65.3525L176.102 65.2202L153.406 14.0512Z" fill="#947E59"/>
<path d="M153.705 13.9205L153.408 14.0528L176.103 65.2217L176.4 65.0894L153.705 13.9205Z" fill="#937D58"/>
<path d="M153.999 13.7882L153.702 13.9206L176.398 65.0895L176.695 64.9572L153.999 13.7882Z" fill="#927B56"/>
<path d="M154.3 13.6546L154.003 13.7869L176.699 64.9558L176.996 64.8235L154.3 13.6546Z" fill="#907A55"/>
<path d="M154.597 13.5212L154.301 13.6535L176.996 64.8224L177.293 64.6901L154.597 13.5212Z" fill="#8F7954"/>
<path d="M154.892 13.3889L154.595 13.5212L177.29 64.6902L177.587 64.5579L154.892 13.3889Z" fill="#8D7752"/>
<path d="M155.193 13.2582L154.896 13.3905L177.592 64.5594L177.889 64.4271L155.193 13.2582Z" fill="#8C7651"/>
<path d="M155.488 13.123L155.191 13.2553L177.886 64.4243L178.183 64.292L155.488 13.123Z" fill="#8B7550"/>
<path d="M155.789 12.9923L155.492 13.1246L178.187 64.2935L178.484 64.1612L155.789 12.9923Z" fill="#89734E"/>
<path d="M156.084 12.86L155.787 12.9923L178.482 64.1613L178.779 64.029L156.084 12.86Z" fill="#88724D"/>
<path d="M156.382 12.7293L156.085 12.8616L178.78 64.0305L179.077 63.8982L156.382 12.7293Z" fill="#87704B"/>
<path d="M156.679 12.5941L156.382 12.7264L179.078 63.8954L179.375 63.7631L156.679 12.5941Z" fill="#856F4A"/>
<path d="M156.976 12.4607L156.679 12.593L179.375 63.762L179.672 63.6297L156.976 12.4607Z" fill="#846E49"/>
<path d="M157.275 12.3299L156.978 12.4623L179.673 63.6312L179.97 63.4989L157.275 12.3299Z" fill="#826C47"/>
<path d="M157.572 12.1977L157.275 12.33L179.971 63.499L180.268 63.3667L157.572 12.1977Z" fill="#816B46"/>
<path d="M157.87 12.064L157.573 12.1964L180.269 63.3653L180.566 63.233L157.87 12.064Z" fill="#806944"/>
<path d="M158.165 11.9318L157.868 12.0641L180.564 63.2331L180.861 63.1008L158.165 11.9318Z" fill="#7E6843"/>
<path d="M158.465 11.7984L158.168 11.9307L180.864 63.0997L181.161 62.9673L158.465 11.7984Z" fill="#7D6742"/>
<path d="M158.761 11.6659L158.464 11.7982L181.159 62.9672L181.456 62.8349L158.761 11.6659Z" fill="#7B6540"/>
<path d="M159.061 11.5325L158.764 11.6648L181.459 62.8338L181.756 62.7014L159.061 11.5325Z" fill="#7A643F"/>
<path d="M159.359 11.4017L159.062 11.534L181.758 62.703L182.055 62.5707L159.359 11.4017Z" fill="#78623D"/>
<path d="M159.654 11.2695L159.357 11.4018L182.052 62.5708L182.349 62.4384L159.654 11.2695Z" fill="#77613C"/>
<path d="M159.954 11.1332L159.657 11.2655L182.352 62.4344L182.649 62.3021L159.954 11.1332Z" fill="#755F3A"/>
<path d="M160.249 11.0036L159.952 11.1359L182.648 62.3049L182.945 62.1725L160.249 11.0036Z" fill="#745E39"/>
<path d="M160.251 11.0072L184.955 0H187.934V59.9563L182.947 62.1781L160.251 11.0072Z" fill="#745E39"/>
</g>
<path d="M17.9031 95.4932H11.8077V95.278C12.359 95.2286 12.7419 95.1355 12.9566 94.9988C13.3396 94.7575 13.531 94.423 13.531 93.9956C13.531 93.7425 13.444 93.3994 13.2699 92.9719L13.1133 92.5822L12.2226 90.3866H8.14069L7.65909 91.6691L7.427 92.2449C7.14849 92.9283 7.00924 93.4634 7.00924 93.8531C7.00924 94.0828 7.06146 94.2951 7.163 94.4957C7.26454 94.6935 7.40379 94.8563 7.57496 94.9785C7.81576 95.1472 8.12618 95.246 8.50333 95.2751V95.4903H4.34888V95.2751C4.67671 95.2577 4.96392 95.1762 5.21052 95.0337C5.45712 94.8912 5.69791 94.6615 5.93291 94.3445C6.13019 94.0915 6.32456 93.7629 6.51314 93.3645C6.70171 92.9632 6.95121 92.3641 7.25874 91.5644L10.6531 82.7965H11.1811L15.2166 92.5706C15.5183 93.3092 15.762 93.8356 15.939 94.1526C16.1189 94.4696 16.3132 94.708 16.5221 94.868C16.6701 94.9785 16.8413 95.0657 17.0327 95.1239C17.2242 95.1821 17.5114 95.2344 17.8944 95.278V95.4932H17.9031ZM12.0776 90.0086L10.1309 85.1927L8.29445 90.0086H12.0805H12.0776Z" fill="white"/>
<path d="M24.0912 82.8023V83.0175C23.7372 83.0349 23.4529 83.0844 23.2324 83.1658C23.0119 83.2472 22.8175 83.3781 22.6435 83.5555C22.4027 83.8027 22.2547 84.1487 22.1996 84.5879C22.1619 84.9165 22.1445 85.2945 22.1445 85.722V92.5764C22.1445 93.0911 22.1677 93.4983 22.2199 93.7949C22.2692 94.0915 22.3505 94.33 22.4607 94.5103C22.6203 94.7575 22.8291 94.9436 23.0815 95.0628C23.3339 95.185 23.6734 95.2577 24.0941 95.2809V95.4961H18.167V95.2809C18.5267 95.2635 18.814 95.2111 19.0344 95.1268C19.2549 95.0425 19.4464 94.9145 19.6147 94.74C19.8119 94.5423 19.9454 94.2893 20.015 93.9868C20.0818 93.6844 20.1166 93.2133 20.1166 92.5735V85.7191C20.1166 85.0822 20.0818 84.6111 20.015 84.3058C19.9454 84.0033 19.8148 83.7503 19.6147 83.5526C19.4464 83.3723 19.252 83.2414 19.0315 83.1629C18.811 83.0844 18.5209 83.032 18.1699 83.0146V82.7994H24.097L24.0912 82.8023Z" fill="white"/>
<path d="M30.2039 95.4554L30.2329 91.6138L30.4476 91.6225C30.7087 92.5997 31.0162 93.3703 31.3759 93.9316C32.049 94.9698 32.8961 95.4903 33.9173 95.4903C34.6281 95.4903 35.2171 95.2519 35.6812 94.7749C36.1454 94.298 36.3775 93.6931 36.3775 92.9632C36.3775 92.6462 36.3253 92.3234 36.2238 91.9948C36.1222 91.6662 35.983 91.3841 35.8118 91.1485C35.6319 90.9072 35.3795 90.6745 35.0546 90.4506C34.7297 90.2267 34.2336 89.9446 33.5663 89.6043C32.9774 89.3077 32.5277 89.0547 32.2173 88.8511C31.9039 88.6476 31.6515 88.4382 31.4601 88.2288C30.9291 87.6472 30.6622 86.9376 30.6622 86.1001C30.6622 85.5853 30.7667 85.091 30.9727 84.6111C31.1786 84.1342 31.4688 83.7242 31.8401 83.3839C32.4958 82.7761 33.2704 82.4737 34.1697 82.4737C34.4599 82.4737 34.7297 82.5027 34.9763 82.5609C35.2229 82.6191 35.5536 82.7354 35.9685 82.9099C36.2789 83.0349 36.4878 83.1135 36.598 83.1484C36.7082 83.1832 36.8069 83.2007 36.8939 83.2007C37.1115 83.2007 37.2566 83.0437 37.3291 82.7267H37.5438L37.6076 86.4171H37.3929C37.2276 85.8267 37.0825 85.376 36.9636 85.0648C36.8446 84.7507 36.6995 84.4628 36.5342 84.1953C36.2325 83.7125 35.8988 83.3548 35.5333 83.1222C35.1677 82.8895 34.75 82.7732 34.2742 82.7732C33.5837 82.7732 33.0354 83.0088 32.635 83.4799C32.4697 83.6718 32.3362 83.8986 32.2405 84.1604C32.1447 84.4221 32.0983 84.6809 32.0983 84.9426C32.0983 85.9779 32.7627 86.8126 34.0885 87.4465L35.394 88.0805C36.4007 88.5574 37.126 89.0867 37.5699 89.6625C38.0747 90.3081 38.33 91.0584 38.33 91.9163C38.33 92.4863 38.2168 93.0301 37.9877 93.5477C37.6656 94.2718 37.184 94.8302 36.54 95.2228C35.8959 95.6154 35.1387 95.8131 34.2684 95.8131C33.4706 95.8131 32.7047 95.6561 31.9678 95.3391C31.5848 95.1704 31.3556 95.0745 31.2802 95.0512C31.2048 95.0279 31.1235 95.0134 31.0307 95.0134C30.7348 95.0134 30.5288 95.1617 30.4185 95.4583H30.2039V95.4554Z" fill="white"/>
<path d="M44.5822 83.0902C44.1935 83.0902 43.7757 83.1018 43.3289 83.128C42.3773 83.1774 41.6665 83.2996 41.1995 83.4915C40.7324 83.6834 40.3465 84.015 40.0448 84.4861C39.7663 84.9194 39.5545 85.5097 39.4037 86.2542L39.189 86.2367L39.3572 82.8052H51.9076L52.0759 86.2367L51.8612 86.2542C51.6929 85.3934 51.4318 84.7391 51.0779 84.297C50.7211 83.855 50.2046 83.5351 49.5229 83.3432C48.9485 83.1745 47.9737 83.0931 46.6014 83.0931V92.5764C46.6014 93.2075 46.6362 93.6786 46.7088 93.9839C46.7784 94.2922 46.9118 94.5423 47.1033 94.7429C47.2774 94.9232 47.4718 95.0541 47.6923 95.1326C47.9127 95.214 48.1971 95.2635 48.551 95.2809V95.4961H42.6239V95.2809C42.9837 95.2635 43.2709 95.214 43.4914 95.1326C43.7119 95.0512 43.9062 94.9232 44.0803 94.7429C44.2718 94.5452 44.4023 94.2922 44.4749 93.9897C44.5445 93.6873 44.5822 93.2162 44.5822 92.5764V83.0931V83.0902Z" fill="white"/>
<path d="M58.4149 82.8023V83.0175C58.0639 83.0349 57.7738 83.0844 57.5533 83.1658C57.3328 83.2472 57.1355 83.3781 56.9701 83.5555C56.7671 83.7649 56.6307 84.0266 56.5669 84.3378C56.503 84.6489 56.4682 85.1811 56.4682 85.9372V91.2009C56.4682 92.0558 56.5001 92.6753 56.5669 93.0562C56.6307 93.4372 56.7642 93.7891 56.9614 94.1119C57.2573 94.6004 57.6258 94.9552 58.061 95.1762C58.4961 95.3973 59.0445 95.5049 59.7088 95.5049C60.3732 95.5049 60.965 95.406 61.5511 95.2111C62.1342 95.0163 62.6216 94.7458 63.0132 94.3969C63.254 94.1788 63.431 93.9432 63.5471 93.6902C63.6602 93.4372 63.7385 93.1144 63.7733 92.7218C63.7966 92.4688 63.8111 91.8668 63.8111 90.9188V85.722C63.8111 85.0851 63.7762 84.614 63.7037 84.3087C63.6312 84.0062 63.5006 83.7532 63.3092 83.5555C63.1351 83.3752 62.9407 83.2443 62.7202 83.1658C62.4997 83.0844 62.2154 83.0349 61.8615 83.0175V82.8023H66.1378V83.0175C65.7838 83.0349 65.4995 83.0844 65.279 83.1658C65.0586 83.2472 64.8642 83.3781 64.6901 83.5555C64.4986 83.7532 64.3681 84.0062 64.2956 84.3145C64.223 84.6198 64.1882 85.091 64.1882 85.722V91.5906C64.1882 92.4572 64.1215 93.0999 63.988 93.5099C63.8546 93.9228 63.5906 94.298 63.196 94.6382C62.2938 95.4205 61.0027 95.8102 59.3288 95.8102C57.6548 95.8102 56.2884 95.4409 55.4615 94.7022C54.9248 94.2311 54.6028 93.6117 54.4954 92.8439C54.4577 92.5706 54.4403 92.0791 54.4403 91.3666V85.722C54.4403 85.0851 54.4055 84.614 54.3388 84.3087C54.2721 84.0062 54.1386 83.7532 53.9413 83.5555C53.7731 83.3752 53.5816 83.2443 53.3611 83.1658C53.1406 83.0844 52.8534 83.0349 52.4937 83.0175V82.8023H58.4207H58.4149Z" fill="white"/>
<path d="M66.9209 95.2809C67.2806 95.2635 67.5679 95.214 67.7825 95.1326C68.0001 95.0512 68.1945 94.9232 68.3657 94.7429C68.5571 94.5452 68.6877 94.2922 68.7602 93.9839C68.8299 93.6786 68.8676 93.2075 68.8676 92.5764V85.722C68.8676 85.0415 68.827 84.5413 68.7428 84.2243C68.6587 83.9074 68.4962 83.6485 68.2554 83.4421C67.9537 83.1891 67.5069 83.0466 66.9209 83.0146V82.7994H72.024C73.1555 82.7994 73.875 82.811 74.1854 82.8372C75.4909 82.9361 76.5963 83.3083 77.5072 83.9539C78.3718 84.5675 79.0477 85.373 79.5293 86.3676C80.0109 87.3622 80.2517 88.4469 80.2517 89.6189C80.2517 90.4739 80.1154 91.2823 79.8397 92.0413C79.5641 92.8003 79.1812 93.4314 78.6938 93.9345C78.0062 94.6412 77.1504 95.0919 76.1234 95.2838C75.3575 95.4263 74.5741 95.499 73.7763 95.499H66.9209V95.2838V95.2809ZM70.9013 83.0902V92.3321C70.9013 92.9399 70.9361 93.4023 71.0028 93.7164C71.0696 94.0334 71.1972 94.3009 71.3829 94.5248C71.7774 95.0076 72.4215 95.2489 73.3121 95.2489C74.0722 95.2489 74.7221 95.1239 75.2646 94.8709C75.8071 94.6208 76.2887 94.2137 76.7152 93.6495C77.1359 93.1057 77.455 92.4804 77.6755 91.7767C77.896 91.0729 78.0033 90.3255 78.0033 89.5316C78.0033 88.6505 77.8699 87.8158 77.6059 87.0219C77.3389 86.228 76.9589 85.533 76.4657 84.9397C75.7781 84.1167 74.96 83.57 74.0084 83.3025C73.4891 83.16 72.8276 83.0873 72.024 83.0873H70.9013V83.0902Z" fill="white"/>
<path d="M87.5135 82.8023V83.0175C87.1596 83.0349 86.8753 83.0844 86.6548 83.1658C86.4343 83.2472 86.2399 83.3781 86.0658 83.5555C85.825 83.8027 85.6771 84.1487 85.622 84.5879C85.5842 84.9165 85.5668 85.2945 85.5668 85.722V92.5764C85.5668 93.0911 85.59 93.4983 85.6423 93.7949C85.6916 94.0915 85.7728 94.33 85.8831 94.5103C86.0426 94.7575 86.2515 94.9436 86.5039 95.0628C86.7563 95.185 87.0957 95.2577 87.5164 95.2809V95.4961H81.5894V95.2809C81.9491 95.2635 82.2363 95.2111 82.4568 95.1268C82.6773 95.0425 82.8688 94.9145 83.037 94.74C83.2343 94.5423 83.3678 94.2893 83.4374 93.9868C83.5041 93.6844 83.5389 93.2133 83.5389 92.5735V85.7191C83.5389 85.0822 83.5041 84.6111 83.4374 84.3058C83.3678 84.0033 83.2372 83.7503 83.037 83.5526C82.8688 83.3723 82.6744 83.2414 82.4539 83.1629C82.2334 83.0844 81.9433 83.032 81.5923 83.0146V82.7994H87.5193L87.5135 82.8023Z" fill="white"/>
<path d="M88.8596 89.2321C88.8596 88.191 89.083 87.2226 89.5269 86.3327C89.9737 85.4428 90.6206 84.6664 91.4765 84.0004C92.1147 83.5119 92.7994 83.1338 93.5363 82.8692C94.2732 82.6045 95.013 82.4737 95.7615 82.4737C96.713 82.4737 97.6356 82.6831 98.5263 83.1018C99.4169 83.5206 100.197 84.1109 100.865 84.8729C101.953 86.1146 102.498 87.525 102.498 89.107C102.498 89.901 102.356 90.6687 102.071 91.4044C101.787 92.1431 101.372 92.8149 100.83 93.4227C100.163 94.1788 99.3705 94.7662 98.4595 95.1821C97.5486 95.5979 96.5941 95.8044 95.599 95.8044C94.6039 95.8044 93.6755 95.6037 92.7791 95.1995C91.8826 94.7953 91.108 94.2253 90.4611 93.4866C89.9475 92.9108 89.553 92.2536 89.2774 91.5179C89.0018 90.7821 88.8654 90.0173 88.8654 89.2234L88.8596 89.2321ZM91.1051 89.3717C91.1051 91.1718 91.5925 92.6869 92.5702 93.9229C93.0083 94.4754 93.4754 94.8767 93.9657 95.1268C94.4559 95.3769 95.0246 95.5049 95.6686 95.5049C96.3127 95.5049 96.8871 95.3798 97.3803 95.1326C97.8706 94.8854 98.3406 94.4812 98.7845 93.9229C99.7622 92.6811 100.25 91.1543 100.25 89.3368C100.25 88.3393 100.116 87.3942 99.8463 86.5043C99.5765 85.6144 99.1993 84.8583 98.709 84.2389C98.3145 83.73 97.8735 83.3606 97.3861 83.128C96.9016 82.8953 96.3272 82.779 95.6657 82.779C95.0043 82.779 94.4414 82.8924 93.9628 83.1222C93.4841 83.3519 93.0402 83.7242 92.6311 84.2389C92.1437 84.8525 91.7666 85.6057 91.4997 86.5014C91.2328 87.3942 91.0993 88.3538 91.0993 89.3775L91.1051 89.3717Z" fill="white"/>
<path d="M112.777 87.7664L115.881 92.082C116.313 91.2707 116.618 90.6512 116.789 90.2179C116.963 89.7846 117.05 89.4182 117.05 89.1129C117.05 88.5138 116.621 88.1503 115.762 88.0281V87.8333H119.371V88.0194C119.087 88.0456 118.855 88.0921 118.675 88.1648C118.495 88.2375 118.327 88.3451 118.164 88.4963C117.848 88.793 117.459 89.4269 116.995 90.3924L116.708 90.9886C116.554 91.323 116.328 91.7592 116.032 92.3001C116.267 92.6113 116.542 92.9428 116.862 93.3005C117.181 93.6582 117.462 93.949 117.712 94.1788C118.063 94.5016 118.37 94.7342 118.634 94.8796C118.898 95.025 119.153 95.0977 119.4 95.0977C119.667 95.0977 119.887 95.0221 120.067 94.8738C120.247 94.7255 120.404 94.4841 120.54 94.1497L120.726 94.234C120.415 95.2868 119.751 95.816 118.73 95.816C118.39 95.816 118.034 95.752 117.662 95.6212C117.291 95.4903 116.954 95.31 116.65 95.0832C116.186 94.7371 115.707 94.2689 115.211 93.6786C114.938 94.0741 114.715 94.3736 114.544 94.5714C114.184 94.9756 113.766 95.2838 113.284 95.4961C112.806 95.7113 112.292 95.816 111.747 95.816C111.245 95.816 110.76 95.723 110.293 95.5368C109.826 95.3507 109.443 95.0977 109.147 94.7749C108.596 94.1846 108.321 93.443 108.321 92.5444C108.321 91.6458 108.587 90.8519 109.118 90.1278C109.327 89.8428 109.58 89.5752 109.876 89.3222C110.169 89.0721 110.572 88.7784 111.085 88.444L111.233 88.3422C110.85 87.7955 110.578 87.3651 110.418 87.051C110.041 86.3211 109.852 85.6668 109.852 85.088C109.852 84.7274 109.939 84.3727 110.113 84.0179C110.331 83.5526 110.65 83.2007 111.071 82.9564C111.492 82.7121 111.996 82.5929 112.585 82.5929C113.354 82.5929 113.984 82.8023 114.48 83.2211C114.976 83.6398 115.222 84.1778 115.222 84.835C115.222 85.3178 115.095 85.7482 114.842 86.1233C114.587 86.4985 114.175 86.8649 113.606 87.2255C113.203 87.4872 112.928 87.6675 112.78 87.7751L112.777 87.7664ZM111.439 88.5952C110.929 88.9122 110.531 89.3513 110.25 89.9155C109.966 90.4797 109.826 91.1078 109.826 91.8028C109.826 92.2798 109.902 92.7422 110.05 93.1871C110.198 93.632 110.398 94.0101 110.653 94.3213C110.888 94.6004 111.169 94.8185 111.5 94.9727C111.831 95.1268 112.179 95.2053 112.545 95.2053C113.119 95.2053 113.633 95.025 114.085 94.6673C114.253 94.5306 114.404 94.3794 114.541 94.2107C114.677 94.0421 114.845 93.7978 115.051 93.475L111.445 88.5923L111.439 88.5952ZM112.6 87.5628C112.89 87.3331 113.107 87.1324 113.253 86.958C113.398 86.7835 113.525 86.577 113.635 86.3356C113.85 85.8761 113.96 85.3847 113.96 84.8583C113.96 84.2389 113.812 83.7445 113.517 83.381C113.221 83.0175 112.823 82.8314 112.324 82.8314C111.892 82.8314 111.544 82.9709 111.28 83.2501C111.016 83.5293 110.882 83.8928 110.882 84.3378C110.882 84.6053 110.937 84.8699 111.045 85.1375C111.152 85.405 111.358 85.7685 111.66 86.2338C111.95 86.6788 112.263 87.1237 112.603 87.5628H112.6Z" fill="white"/>
<path d="M131.132 83.0902C130.744 83.0902 130.326 83.1018 129.879 83.128C128.927 83.1774 128.217 83.2996 127.75 83.4915C127.282 83.6834 126.897 84.015 126.595 84.4861C126.316 84.9194 126.105 85.5097 125.954 86.2542L125.739 86.2367L125.907 82.8052H138.458L138.626 86.2367L138.411 86.2542C138.243 85.3934 137.982 84.7391 137.628 84.297C137.271 83.855 136.755 83.5351 136.073 83.3432C135.498 83.1745 134.524 83.0931 133.151 83.0931V92.5764C133.151 93.2075 133.186 93.6786 133.259 93.9839C133.328 94.2922 133.462 94.5423 133.653 94.7429C133.827 94.9232 134.022 95.0541 134.242 95.1326C134.463 95.214 134.747 95.2635 135.101 95.2809V95.4961H129.174V95.2809C129.534 95.2635 129.821 95.214 130.041 95.1326C130.262 95.0512 130.456 94.9232 130.63 94.7429C130.822 94.5452 130.952 94.2922 131.025 93.9897C131.095 93.6873 131.132 93.2162 131.132 92.5764V83.0931V83.0902Z" fill="white"/>
<path d="M149.137 82.8023L149.293 85.8703L149.082 85.8791C149 85.3585 148.867 84.9281 148.684 84.5879C148.499 84.2476 148.229 83.9452 147.878 83.6863C147.588 83.4682 147.242 83.317 146.848 83.2269C146.453 83.1367 145.925 83.0931 145.27 83.0931H143.146V88.6708H143.703C144.266 88.6708 144.689 88.633 144.974 88.5603C145.258 88.4847 145.49 88.3538 145.67 88.1619C145.844 87.9816 145.972 87.7693 146.056 87.525C146.14 87.2808 146.21 86.9201 146.265 86.4403L146.479 86.449L146.442 91.4335H146.227C146.172 90.9566 146.088 90.5727 145.98 90.279C145.873 89.9853 145.722 89.741 145.531 89.5345C145.345 89.3368 145.104 89.1914 144.808 89.0983C144.512 89.0053 144.135 88.9587 143.677 88.9587H143.149V91.0875C143.149 91.9366 143.169 92.556 143.213 92.9428C143.256 93.3296 143.34 93.6553 143.462 93.9141C143.671 94.3591 143.993 94.6877 144.422 94.8942C144.852 95.1006 145.42 95.2053 146.125 95.2053C146.868 95.2053 147.489 95.1123 147.991 94.9203C148.493 94.7313 148.899 94.4376 149.215 94.0421C149.439 93.7745 149.618 93.4721 149.758 93.1319C149.897 92.7916 150.025 92.3408 150.144 91.7825L150.355 91.7912L150.233 95.4932H139.166V95.278C139.519 95.2606 139.804 95.2111 140.024 95.1297C140.245 95.0483 140.439 94.9203 140.613 94.74C140.805 94.5423 140.935 94.2893 141.008 93.981C141.077 93.6757 141.115 93.2045 141.115 92.5735V85.7191C141.115 85.0881 141.08 84.6169 141.008 84.3116C140.935 84.0062 140.805 83.7532 140.613 83.5526C140.445 83.3723 140.253 83.2414 140.033 83.1629C139.812 83.0844 139.525 83.032 139.166 83.0146V82.7994H149.137V82.8023Z" fill="white"/>
<path d="M162.41 82.7354L162.52 86.8911H162.305C162.239 86.7108 162.183 86.5741 162.149 86.481C161.931 85.8849 161.757 85.4428 161.621 85.152C161.38 84.6315 161.029 84.1546 160.573 83.7212C160.228 83.3926 159.868 83.1542 159.497 83.0058C159.126 82.8575 158.708 82.7819 158.244 82.7819C157.544 82.7819 156.938 82.9331 156.425 83.2385C155.972 83.506 155.551 83.887 155.163 84.3872C154.774 84.8874 154.455 85.4545 154.208 86.0942C153.854 86.9928 153.68 88.0165 153.68 89.1623C153.68 90.1365 153.802 91.0118 154.043 91.7941C154.284 92.5764 154.638 93.2307 155.102 93.7571C155.955 94.7371 157.086 95.2257 158.496 95.2257C159.201 95.2257 159.833 95.1035 160.396 94.8593C160.959 94.615 161.394 94.2689 161.705 93.8211C162.064 93.3063 162.323 92.6113 162.485 91.7389L162.7 91.7767C162.581 92.7567 162.317 93.5332 161.902 94.1119C161.505 94.6644 160.959 95.0861 160.266 95.3769C159.572 95.6677 158.763 95.8131 157.849 95.8131C156.996 95.8131 156.178 95.6852 155.401 95.4322C154.156 95.0221 153.187 94.2835 152.488 93.2133C151.789 92.1431 151.44 90.8693 151.44 89.3862C151.44 88.2521 151.644 87.2051 152.053 86.2484C152.462 85.2916 153.03 84.521 153.758 83.9364C154.321 83.4915 154.994 83.1367 155.778 82.8721C156.561 82.6074 157.344 82.4766 158.128 82.4766C158.911 82.4766 159.668 82.6191 160.504 82.9041L161.264 83.1542C161.412 83.2094 161.542 83.2385 161.653 83.2385C161.806 83.2385 161.934 83.1745 162.033 83.0437C162.076 82.9826 162.128 82.8808 162.189 82.7383H162.413L162.41 82.7354Z" fill="white"/>
<path d="M167.698 88.7057H174.284V85.722C174.284 85.0851 174.249 84.614 174.177 84.3087C174.104 84.0062 173.974 83.7532 173.782 83.5555C173.608 83.3752 173.414 83.2443 173.193 83.1658C172.973 83.0873 172.686 83.0349 172.326 83.0175V82.8023H178.253V83.0175C177.902 83.0349 177.615 83.0844 177.394 83.1658C177.174 83.2472 176.979 83.3781 176.805 83.5555C176.614 83.7532 176.483 84.0062 176.411 84.3145C176.338 84.6227 176.303 85.091 176.303 85.722V92.5764C176.303 93.2075 176.338 93.6757 176.411 93.981C176.483 94.2864 176.614 94.5394 176.805 94.7429C176.979 94.9174 177.174 95.0454 177.394 95.1297C177.615 95.214 177.899 95.2635 178.253 95.2838V95.499H172.326V95.2838C172.686 95.2664 172.973 95.214 173.193 95.1297C173.414 95.0454 173.608 94.9174 173.782 94.7429C173.974 94.5452 174.104 94.2922 174.177 93.9897C174.249 93.6873 174.284 93.2162 174.284 92.5764V89.1448H167.698V92.5764C167.698 93.2075 167.733 93.6786 167.806 93.9839C167.875 94.2922 168.009 94.5423 168.2 94.7429C168.369 94.9174 168.56 95.0454 168.781 95.1297C169.001 95.214 169.288 95.2635 169.648 95.2838V95.499H163.721V95.2838C164.081 95.2664 164.368 95.214 164.588 95.1297C164.809 95.0454 165 94.9174 165.169 94.7429C165.366 94.5452 165.499 94.2922 165.566 93.9897C165.633 93.6873 165.668 93.2162 165.668 92.5764V85.722C165.668 85.0851 165.633 84.614 165.566 84.3087C165.499 84.0062 165.366 83.7532 165.169 83.5555C165 83.3752 164.806 83.2443 164.585 83.1658C164.365 83.0873 164.075 83.0349 163.724 83.0175V82.8023H169.651V83.0175C169.3 83.0349 169.013 83.0844 168.792 83.1658C168.572 83.2472 168.377 83.3781 168.203 83.5555C168.012 83.7532 167.881 84.0062 167.809 84.3145C167.736 84.6198 167.701 85.091 167.701 85.722V88.7057H167.698Z" fill="white"/>
<path d="M183.922 95.4932V95.2693C184.545 95.2693 185.03 95.0919 185.369 94.74C185.561 94.5423 185.691 94.2893 185.764 93.981C185.833 93.6757 185.871 93.2045 185.871 92.5735V85.7191C185.871 85.0619 185.833 84.5762 185.755 84.2651C185.677 83.951 185.535 83.6951 185.323 83.4973C185.149 83.3374 184.957 83.2181 184.743 83.1454C184.531 83.0698 184.255 83.0291 183.922 83.0146V82.7994H189.849V83.0146C189.509 83.032 189.231 83.0786 189.013 83.1542C188.796 83.2298 188.604 83.3461 188.439 83.506C188.227 83.7096 188.085 83.9684 188.012 84.2767C187.937 84.5879 187.902 85.0677 187.902 85.7191V91.0845C187.902 91.9075 187.922 92.5241 187.966 92.9254C188.009 93.3296 188.093 93.6582 188.215 93.9112C188.433 94.3562 188.752 94.6848 189.181 94.8912C189.608 95.0977 190.174 95.2024 190.879 95.2024C191.584 95.2024 192.233 95.1035 192.738 94.9087C193.243 94.7139 193.655 94.4114 193.977 94.0014C194.195 93.7222 194.372 93.4052 194.511 93.0533C194.65 92.7015 194.778 92.2362 194.897 91.6574L195.12 91.6749L194.998 95.4874H183.922V95.4932Z" fill="white"/>
<path d="M214.506 95.4932V95.278C214.865 95.2606 215.153 95.2082 215.373 95.1239C215.594 95.0396 215.785 94.9116 215.953 94.7371C216.151 94.5394 216.284 94.2864 216.351 93.9839C216.417 93.6815 216.452 93.2104 216.452 92.5706V85.7162C216.452 85.0793 216.417 84.6082 216.351 84.3029C216.284 84.0004 216.151 83.7474 215.953 83.5497C215.785 83.3694 215.591 83.2385 215.37 83.16C215.15 83.0815 214.86 83.0291 214.509 83.0117V82.7965H220.604C221.222 82.7965 221.628 82.8023 221.819 82.8139C222.524 82.8692 223.108 83.0378 223.572 83.317C223.975 83.5642 224.285 83.8899 224.503 84.2941C224.723 84.6984 224.834 85.1491 224.834 85.6522C224.834 86.4636 224.584 87.1295 224.082 87.6501C223.902 87.842 223.699 88.002 223.47 88.1299C223.241 88.2579 222.91 88.3975 222.478 88.5516C223.073 88.6505 223.531 88.7581 223.859 88.8773C224.187 88.9965 224.483 89.1594 224.75 89.3688C225.144 89.6916 225.452 90.0929 225.672 90.5727C225.893 91.0526 226.003 91.5731 226.003 92.1315C226.003 92.6898 225.89 93.2133 225.663 93.6786C225.437 94.1468 225.124 94.5219 224.721 94.8098C224.355 95.0628 223.92 95.2402 223.418 95.3391C222.913 95.438 222.205 95.4874 221.289 95.4874H214.509L214.506 95.4932ZM218.486 83.0902V88.6127H219.237C219.591 88.6127 219.954 88.5894 220.331 88.5371C220.659 88.4876 220.923 88.4295 221.123 88.3597C221.323 88.2928 221.509 88.1997 221.674 88.0805C221.991 87.8449 222.231 87.5425 222.403 87.1732C222.574 86.8038 222.658 86.3967 222.658 85.9518C222.658 85.4806 222.571 85.0328 222.394 84.6082C222.217 84.1836 221.985 83.8521 221.695 83.6165C221.442 83.413 221.152 83.2734 220.827 83.1978C220.502 83.1222 220.009 83.0873 219.348 83.0873H218.486V83.0902ZM218.486 88.9006V92.7305C218.486 93.1958 218.518 93.571 218.585 93.856C218.648 94.141 218.756 94.3823 218.904 94.5801C219.22 94.9959 219.76 95.2024 220.528 95.2024C221.524 95.2024 222.31 94.9291 222.89 94.3852C223.467 93.8385 223.757 93.097 223.757 92.1547C223.757 91.6167 223.667 91.1136 223.488 90.6541C223.308 90.1918 223.067 89.837 222.765 89.5898C222.208 89.1303 221.338 88.9006 220.148 88.9006H218.489H218.486Z" fill="white"/>
<path fill-rule="evenodd" clip-rule="evenodd" d="M204.987 95.1384H203.803C203.728 95.9323 203.832 96.5111 204.117 96.8746C204.143 96.5896 204.23 96.3482 204.381 96.1505C204.395 96.8426 204.595 97.4591 204.987 98.0029C205.376 97.462 205.579 96.8426 205.593 96.1505C205.744 96.3511 205.834 96.5925 205.857 96.8746C206.142 96.5111 206.246 95.9323 206.171 95.1384H204.987Z" fill="white"/>
<path fill-rule="evenodd" clip-rule="evenodd" d="M203.098 94.4754C203.118 94.5248 203.136 94.5714 203.156 94.6179C203.136 94.5714 203.116 94.5219 203.098 94.4754Z" fill="white"/>
<path fill-rule="evenodd" clip-rule="evenodd" d="M206.931 94.3213L206.983 94.1729C206.965 94.2224 206.948 94.2718 206.931 94.3213Z" fill="white"/>
<path fill-rule="evenodd" clip-rule="evenodd" d="M202.463 95.5921L201.311 92.4775L202.48 91.6691C202.434 89.4531 203.304 87.2604 204.987 85.6406C206.67 87.2604 207.54 89.456 207.491 91.6691L208.66 92.4775L207.508 95.5921H212.916L208.95 88.8773L204.984 82.1625L201.018 88.8773L197.052 95.5921H202.46H202.463Z" fill="white"/>
<path fill-rule="evenodd" clip-rule="evenodd" d="M204.987 88.3858C205.628 88.3858 206.147 88.9064 206.147 89.5491C206.147 90.1918 205.628 90.7123 204.987 90.7123C204.346 90.7123 203.826 90.1918 203.826 89.5491C203.826 88.9064 204.346 88.3858 204.987 88.3858Z" fill="white"/>
</g>
<defs>
<clipPath id="clip0_94_1162">
<rect width="226" height="98" fill="white"/>
</clipPath>
</defs>
</svg>
