<svg width="65" height="63" viewBox="0 0 65 63" fill="none" xmlns="http://www.w3.org/2000/svg">
<g clip-path="url(#clip0_52_252)">
<path d="M65 1.72277V2.15385C64.7058 2.73774 64.387 3.30578 64.0478 3.86804C52.4472 23.0587 40.1089 41.8572 28.2763 60.8965C27.2126 62.0311 25.8576 62.6135 24.3693 62.9783C23.8172 62.9293 23.1694 63.0475 22.6347 62.9783C21.7 62.8586 20.2595 62.1421 19.5291 61.5366L1.25639 39.4438C-3.0781 32.8018 4.67066 25.377 11.2108 30.4071C15.3178 33.5673 19.0987 37.9429 23.139 41.2647C23.9042 41.8788 24.7983 41.8558 25.5243 41.194L61.6016 0.572287C62.9972 -0.589734 64.4811 0.128239 64.9985 1.72133L65 1.72277Z" fill="url(#paint0_linear_52_252)"/>
</g>
<defs>
<linearGradient id="paint0_linear_52_252" x1="32.4996" y1="-0.000488281" x2="32.4996" y2="63.0006" gradientUnits="userSpaceOnUse">
<stop stop-color="#1078A8"/>
<stop offset="1" stop-color="#006696"/>
</linearGradient>
<clipPath id="clip0_52_252">
<rect width="65" height="63" fill="white"/>
</clipPath>
</defs>
</svg>
