<?xml version="1.0" encoding="UTF-8"?>
<svg id="Layer_2" xmlns="http://www.w3.org/2000/svg" xmlns:xlink="http://www.w3.org/1999/xlink" version="1.1" viewBox="0 0 510.8 264">
  <!-- Generator: Adobe Illustrator 29.8.1, SVG Export Plug-In . SVG Version: 2.1.1 Build 2)  -->
  <defs>
    <style>
      .st0 {
        fill: #e3cca7;
      }

      .st1 {
        fill: none;
      }

      .st2 {
        fill: #e2cba6;
      }

      .st3 {
        fill: #bba580;
      }

      .st4 {
        fill: #e6cfaa;
      }

      .st5 {
        fill: #a7916c;
      }

      .st6 {
        fill: #9c8661;
      }

      .st7 {
        fill: #ad9772;
      }

      .st8 {
        fill: #e8d1ac;
      }

      .st9 {
        fill: #a9926d;
      }

      .st10 {
        fill: #a58f6a;
      }

      .st11 {
        fill: #d9c39e;
      }

      .st12 {
        fill: #806944;
      }

      .st13 {
        fill: #907a55;
      }

      .st14 {
        fill: #aa936e;
      }

      .st15 {
        fill: #d3bd98;
      }

      .st16 {
        fill-rule: evenodd;
      }

      .st16, .st17 {
        fill: #fff;
      }

      .st18 {
        fill: #ac9671;
      }

      .st19 {
        fill: #d1ba95;
      }

      .st20 {
        fill: #c4ad88;
      }

      .st21 {
        fill: #a08a65;
      }

      .st22 {
        fill: #ccb590;
      }

      .st23 {
        fill: #b7a07b;
      }

      .st24 {
        fill: #cfb893;
      }

      .st25 {
        fill: #ecd5b0;
      }

      .st26 {
        fill: #d4be99;
      }

      .st27 {
        fill: #cab38e;
      }

      .st28 {
        fill: #dfc8a3;
      }

      .st29 {
        fill: #b29c77;
      }

      .st30 {
        fill: #c0a984;
      }

      .st31 {
        fill: #e5cea9;
      }

      .st32 {
        fill: #c9b28d;
      }

      .st33 {
        fill: #dbc49f;
      }

      .st34 {
        fill: #e7d0ab;
      }

      .st35 {
        fill: #cdb691;
      }

      .st36 {
        fill: #816b46;
      }

      .st37 {
        fill: #77613c;
      }

      .st38 {
        fill: #967f5a;
      }

      .st39 {
        fill: #d3bc97;
      }

      .st40 {
        fill: #d2bb96;
      }

      .st41 {
        isolation: isolate;
      }

      .st42 {
        fill: #ceb792;
      }

      .st43 {
        fill: #d7c09b;
      }

      .st44 {
        fill: #8f7954;
      }

      .st45 {
        fill: #88724d;
      }

      .st46 {
        fill: #a28c67;
      }

      .st47 {
        fill: #bea782;
      }

      .st48 {
        fill: #7b6540;
      }

      .st49 {
        fill: #d8c19c;
      }

      .st50 {
        fill: #dec7a2;
      }

      .st51 {
        fill: #e1caa5;
      }

      .st52 {
        fill: #af9873;
      }

      .st53 {
        fill: #b09974;
      }

      .st54 {
        fill: #cbb48f;
      }

      .st55 {
        fill: #d0b994;
      }

      .st56 {
        fill: #baa47f;
      }

      .st57 {
        fill: #7e6843;
      }

      .st58 {
        fill: #ab9570;
      }

      .st59 {
        fill: #d6bf9a;
      }

      .st60 {
        fill: #b8a17c;
      }

      .st61 {
        fill: #b69f7a;
      }

      .st62 {
        fill: #c7b08b;
      }

      .st63 {
        fill: #8b7550;
      }

      .st64 {
        fill: #e4cda8;
      }

      .st65 {
        fill: #856f4a;
      }

      .st66 {
        fill: #bfa883;
      }

      .st67 {
        fill: #d9c29d;
      }

      .st68 {
        fill: #dcc5a0;
      }

      .st69 {
        fill: #8c7651;
      }

      .st70 {
        fill: #9b845f;
      }

      .st71 {
        fill: #e9d2ad;
      }

      .st72 {
        fill: #b19b76;
      }

      .st73 {
        fill: #7a643f;
      }

      .st74 {
        fill: #846e49;
      }

      .st75 {
        fill: #ddc6a1;
      }

      .st76 {
        fill: #a18b66;
      }

      .st77 {
        fill: #c3ac87;
      }

      .st78 {
        fill: #ead3ae;
      }

      .st79 {
        fill: #b39d78;
      }

      .st80 {
        fill: #98825d;
      }

      .st81 {
        fill: #e0c9a4;
      }

      .st82 {
        fill: #9f8863;
      }

      .st83 {
        fill: #97815c;
      }

      .st84 {
        fill: #937d58;
      }

      .st85 {
        fill: #b59e79;
      }

      .st86 {
        fill: #89734e;
      }

      .st87 {
        fill: #c5ae89;
      }

      .st88 {
        fill: #c6af8a;
      }

      .st89 {
        fill: #826c47;
      }

      .st90 {
        fill: #d5be99;
      }

      .st91 {
        fill: #a48d68;
      }

      .st92 {
        fill: #87704b;
      }

      .st93 {
        fill: #c1aa85;
      }

      .st94 {
        fill: #99835e;
      }

      .st95 {
        fill: #c8b18c;
      }

      .st96 {
        fill: #745e39;
      }

      .st97 {
        fill: #8d7752;
      }

      .st98 {
        fill: #9d8762;
      }

      .st99 {
        fill: #a6906b;
      }

      .st100 {
        fill: #78623d;
      }

      .st101 {
        fill: #c2ab86;
      }

      .st102 {
        fill: #755f3a;
      }

      .st103 {
        clip-path: url(#clippath);
      }

      .st104 {
        fill: #bca681;
      }

      .st105 {
        fill: #dac39e;
      }

      .st106 {
        fill: #b9a37e;
      }

      .st107 {
        fill: #927b56;
      }

      .st108 {
        fill: #ebd4af;
      }

      .st109 {
        fill: #7d6742;
      }

      .st110 {
        fill: #947e59;
      }
    </style>
    <clipPath id="clippath">
      <polygon class="st1" points="142.8 5 103.9 33.9 116.2 39.1 60.6 176 60 176 24.4 87.8 3 87.8 47.3 196.5 73.4 196.5 134.5 46 147 51.7 142.8 5"/>
    </clipPath>
  </defs>
  <g class="st103">
    <polygon class="st25" points="3 135.8 30 196.5 3 196.5 3 135.8"/>
    <polygon class="st25" points="3 133.7 30.9 196.5 30 196.5 3 135.8 3 133.7"/>
    <polygon class="st25" points="3 131.5 31.9 196.5 30.9 196.5 3 133.7 3 131.5"/>
    <polygon class="st25" points="3 129.4 32.9 196.5 31.9 196.5 3 131.5 3 129.4"/>
    <polygon class="st108" points="3 127.2 33.8 196.5 32.9 196.5 3 129.4 3 127.2"/>
    <polygon class="st108" points="3 125.1 34.8 196.5 33.8 196.5 3 127.2 3 125.1"/>
    <polygon class="st108" points="3 122.9 35.7 196.5 34.8 196.5 3 125.1 3 122.9"/>
    <polygon class="st78" points="3 120.8 36.7 196.5 35.7 196.5 3 122.9 3 120.8"/>
    <polygon class="st78" points="3 118.6 37.6 196.5 36.7 196.5 3 120.8 3 118.6"/>
    <polygon class="st78" points="3 116.4 38.6 196.5 37.6 196.5 3 118.6 3 116.4"/>
    <polygon class="st71" points="3 114.3 39.5 196.5 38.6 196.5 3 116.4 3 114.3"/>
    <polygon class="st71" points="3 112.1 40.5 196.5 39.5 196.5 3 114.3 3 112.1"/>
    <polygon class="st8" points="3 110 41.5 196.5 40.5 196.5 3 112.1 3 110"/>
    <polygon class="st8" points="3 107.8 42.4 196.5 41.5 196.5 3 110 3 107.8"/>
    <polygon class="st34" points="3 105.7 43.4 196.5 42.4 196.5 3 107.8 3 105.7"/>
    <polygon class="st34" points="3 103.5 44.3 196.5 43.4 196.5 3 105.7 3 103.5"/>
    <polygon class="st4" points="3 101.4 45.3 196.5 44.3 196.5 3 103.5 3 101.4"/>
    <polygon class="st4" points="3 99.2 46.2 196.5 45.3 196.5 3 101.4 3 99.2"/>
    <polygon class="st31" points="3 97.1 47.2 196.5 46.2 196.5 3 99.2 3 97.1"/>
    <polygon class="st64" points="3 94.9 48.2 196.5 47.2 196.5 3 97.1 3 94.9"/>
    <polygon class="st64" points="3 92.8 49.1 196.5 48.2 196.5 3 94.9 3 92.8"/>
    <polygon class="st0" points="3 90.6 50.1 196.5 49.1 196.5 3 92.8 3 90.6"/>
    <polygon class="st2" points="3 88.5 51 196.5 50.1 196.5 3 90.6 3 88.5"/>
    <polygon class="st2" points="3 86.3 52 196.5 51 196.5 3 88.5 3 86.3"/>
    <polygon class="st51" points="3 84.2 52.9 196.5 52 196.5 3 86.3 3 84.2"/>
    <polygon class="st81" points="3 82 53.9 196.5 52.9 196.5 3 84.2 3 82"/>
    <polygon class="st81" points="3 79.9 54.8 196.5 53.9 196.5 3 82 3 79.9"/>
    <polygon class="st28" points="3 77.7 55.8 196.5 54.8 196.5 3 79.9 3 77.7"/>
    <polygon class="st50" points="3 75.6 56.8 196.5 55.8 196.5 3 77.7 3 75.6"/>
    <polygon class="st75" points="3 73.4 57.7 196.5 56.8 196.5 3 75.6 3 73.4"/>
    <polygon class="st75" points="3 71.3 58.7 196.5 57.7 196.5 3 73.4 3 71.3"/>
    <polygon class="st68" points="3 69.1 59.6 196.5 58.7 196.5 3 71.3 3 69.1"/>
    <polygon class="st33" points="3 67 60.6 196.5 59.6 196.5 3 69.1 3 67"/>
    <polygon class="st105" points="3 65.4 3.2 65.3 61.5 196.5 60.6 196.5 3 67 3 65.4"/>
    <polygon class="st11" points="3.2 65.3 4 65 62.5 196.5 61.5 196.5 3.2 65.3"/>
    <polygon class="st67" points="4 65 4.8 64.6 63.5 196.5 62.5 196.5 4 65"/>
    <polygon class="st49" points="4.8 64.6 5.6 64.3 64.4 196.5 63.5 196.5 4.8 64.6"/>
    <polygon class="st43" points="5.6 64.3 6.4 63.9 65.4 196.5 64.4 196.5 5.6 64.3"/>
    <polygon class="st59" points="6.4 63.9 7.2 63.5 66.3 196.5 65.4 196.5 6.4 63.9"/>
    <polygon class="st90" points="7.2 63.5 8 63.2 67.3 196.5 66.3 196.5 7.2 63.5"/>
    <polygon class="st26" points="8 63.2 8.8 62.8 68.2 196.5 67.3 196.5 8 63.2"/>
    <polygon class="st15" points="8.8 62.8 9.6 62.5 69.2 196.5 68.2 196.5 8.8 62.8"/>
    <polygon class="st39" points="9.6 62.5 10.4 62.1 70.2 196.5 69.2 196.5 9.6 62.5"/>
    <polygon class="st40" points="10.4 62.1 11.2 61.8 71.1 196.5 70.2 196.5 10.4 62.1"/>
    <polygon class="st19" points="11.2 61.8 12 61.4 72.1 196.5 71.1 196.5 11.2 61.8"/>
    <polygon class="st55" points="12 61.4 12.8 61.1 73 196.5 72.1 196.5 12 61.4"/>
    <polygon class="st24" points="12.8 61.1 13.6 60.7 74 196.5 73 196.5 12.8 61.1"/>
    <polygon class="st42" points="13.6 60.7 14.4 60.3 74.9 196.5 74 196.5 13.6 60.7"/>
    <polygon class="st35" points="14.4 60.3 15.2 60 75.9 196.5 74.9 196.5 14.4 60.3"/>
    <polygon class="st22" points="15.2 60 16 59.6 76.8 196.5 75.9 196.5 15.2 60"/>
    <polygon class="st54" points="16 59.6 16.8 59.3 77.7 196.3 77.2 196.5 76.8 196.5 16 59.6"/>
    <rect class="st27" x="47.2" y="52.6" width=".9" height="149.9" transform="translate(-47.7 30.4) rotate(-24)"/>
    <rect class="st32" x="48" y="52.3" width=".9" height="149.9" transform="translate(-47.5 30.7) rotate(-24)"/>
    <rect class="st95" x="48.8" y="51.9" width=".9" height="149.9" transform="translate(-47.3 30.9) rotate(-24)"/>
    <rect class="st62" x="49.6" y="51.6" width=".9" height="149.9" transform="translate(-47.1 31.2) rotate(-24)"/>
    <rect class="st88" x="50.4" y="51.2" width=".9" height="149.9" transform="translate(-46.9 31.5) rotate(-24)"/>
    <rect class="st87" x="51.2" y="50.9" width=".9" height="149.9" transform="translate(-46.7 31.8) rotate(-24)"/>
    <rect class="st20" x="52" y="50.5" width=".9" height="149.9" transform="translate(-46.4 32.1) rotate(-24)"/>
    <rect class="st77" x="52.8" y="50.1" width=".9" height="149.9" transform="translate(-46.2 32.4) rotate(-24)"/>
    <rect class="st101" x="53.6" y="49.8" width=".9" height="149.9" transform="translate(-46 32.7) rotate(-24)"/>
    <rect class="st93" x="54.4" y="49.4" width=".9" height="149.9" transform="translate(-45.8 33) rotate(-24)"/>
    <rect class="st30" x="55.2" y="49.1" width=".9" height="149.9" transform="translate(-45.6 33.3) rotate(-24)"/>
    <rect class="st66" x="56" y="48.7" width=".9" height="149.9" transform="translate(-45.4 33.6) rotate(-24)"/>
    <rect class="st47" x="56.8" y="48.4" width=".9" height="149.9" transform="translate(-45.2 33.9) rotate(-24)"/>
    <rect class="st104" x="57.6" y="48" width=".9" height="149.9" transform="translate(-45 34.2) rotate(-24)"/>
    <rect class="st3" x="58.4" y="47.7" width=".9" height="149.9" transform="translate(-44.7 34.5) rotate(-24)"/>
    <rect class="st56" x="59.2" y="47.3" width=".9" height="149.9" transform="translate(-44.5 34.8) rotate(-24)"/>
    <rect class="st106" x="60" y="47" width=".9" height="149.9" transform="translate(-44.3 35.1) rotate(-24)"/>
    <rect class="st60" x="60.8" y="46.6" width=".9" height="149.9" transform="translate(-44.1 35.4) rotate(-24)"/>
    <rect class="st23" x="61.6" y="46.2" width=".9" height="149.9" transform="translate(-43.9 35.7) rotate(-24)"/>
    <rect class="st61" x="62.4" y="45.9" width=".9" height="149.9" transform="translate(-43.7 35.9) rotate(-24)"/>
    <rect class="st85" x="63.2" y="45.5" width=".9" height="149.9" transform="translate(-43.5 36.2) rotate(-24)"/>
    <rect class="st79" x="64" y="45.2" width=".9" height="149.9" transform="translate(-43.3 36.5) rotate(-24)"/>
    <rect class="st29" x="64.8" y="44.8" width=".9" height="149.9" transform="translate(-43 36.8) rotate(-24)"/>
    <rect class="st72" x="65.6" y="44.5" width=".9" height="149.9" transform="translate(-42.8 37.1) rotate(-24)"/>
    <rect class="st53" x="66.4" y="44.1" width=".9" height="149.9" transform="translate(-42.6 37.4) rotate(-24)"/>
    <rect class="st52" x="67.2" y="43.8" width=".9" height="149.9" transform="translate(-42.4 37.7) rotate(-24)"/>
    <rect class="st7" x="68" y="43.4" width=".9" height="149.9" transform="translate(-42.2 38) rotate(-24)"/>
    <rect class="st18" x="68.8" y="43" width=".9" height="149.9" transform="translate(-42 38.3) rotate(-24)"/>
    <rect class="st58" x="69.6" y="42.7" width=".9" height="149.9" transform="translate(-41.8 38.6) rotate(-24)"/>
    <rect class="st14" x="70.4" y="42.3" width=".9" height="149.9" transform="translate(-41.6 38.9) rotate(-24)"/>
    <rect class="st9" x="71.2" y="42" width=".9" height="149.9" transform="translate(-41.3 39.2) rotate(-24)"/>
    <rect class="st5" x="72" y="41.6" width=".9" height="149.9" transform="translate(-41.1 39.5) rotate(-24)"/>
    <rect class="st99" x="72.8" y="41.3" width=".9" height="149.9" transform="translate(-40.9 39.8) rotate(-24)"/>
    <rect class="st10" x="73.6" y="40.9" width=".9" height="149.9" transform="translate(-40.7 40.1) rotate(-24)"/>
    <rect class="st91" x="74.4" y="40.6" width=".9" height="149.9" transform="translate(-40.5 40.4) rotate(-24)"/>
    <rect class="st46" x="75.2" y="40.2" width=".9" height="149.9" transform="translate(-40.3 40.6) rotate(-24)"/>
    <rect class="st76" x="76" y="39.8" width=".9" height="149.9" transform="translate(-40.1 40.9) rotate(-24)"/>
    <rect class="st21" x="76.8" y="39.5" width=".9" height="149.9" transform="translate(-39.8 41.2) rotate(-24)"/>
    <rect class="st82" x="77.6" y="39.1" width=".9" height="149.9" transform="translate(-39.6 41.5) rotate(-24)"/>
    <rect class="st98" x="78.4" y="38.8" width=".9" height="149.9" transform="translate(-39.4 41.8) rotate(-24)"/>
    <rect class="st6" x="79.2" y="38.4" width=".9" height="149.9" transform="translate(-39.2 42.1) rotate(-24)"/>
    <rect class="st70" x="80" y="38.1" width=".9" height="149.9" transform="translate(-39 42.4) rotate(-24)"/>
    <rect class="st94" x="80.8" y="37.7" width=".9" height="149.9" transform="translate(-38.8 42.7) rotate(-24)"/>
    <rect class="st80" x="81.6" y="37.4" width=".9" height="149.9" transform="translate(-38.6 43) rotate(-24)"/>
    <rect class="st83" x="82.4" y="37" width=".9" height="149.9" transform="translate(-38.4 43.3) rotate(-24)"/>
    <rect class="st38" x="83.1" y="36.7" width=".9" height="149.9" transform="translate(-38.1 43.6) rotate(-24)"/>
    <rect class="st110" x="84" y="36.3" width=".9" height="149.9" transform="translate(-37.9 43.9) rotate(-24)"/>
    <rect class="st84" x="84.8" y="35.9" width=".9" height="149.9" transform="translate(-37.7 44.2) rotate(-24)"/>
    <rect class="st107" x="85.5" y="35.6" width=".9" height="149.9" transform="translate(-37.5 44.5) rotate(-24)"/>
    <rect class="st13" x="86.3" y="35.2" width=".9" height="149.9" transform="translate(-37.3 44.8) rotate(-24)"/>
    <rect class="st44" x="87.2" y="34.9" width=".9" height="149.9" transform="translate(-37.1 45.1) rotate(-24)"/>
    <rect class="st97" x="87.9" y="34.5" width=".9" height="149.9" transform="translate(-36.9 45.3) rotate(-24)"/>
    <rect class="st69" x="88.7" y="34.2" width=".9" height="149.9" transform="translate(-36.6 45.6) rotate(-24)"/>
    <rect class="st63" x="89.5" y="33.8" width=".9" height="149.9" transform="translate(-36.4 45.9) rotate(-24)"/>
    <rect class="st86" x="90.3" y="33.5" width=".9" height="149.9" transform="translate(-36.2 46.2) rotate(-24)"/>
    <rect class="st45" x="91.1" y="33.1" width=".9" height="149.9" transform="translate(-36 46.5) rotate(-24)"/>
    <rect class="st92" x="91.9" y="32.7" width=".9" height="149.9" transform="translate(-35.8 46.8) rotate(-24)"/>
    <rect class="st65" x="92.7" y="32.4" width=".9" height="149.9" transform="translate(-35.6 47.1) rotate(-24)"/>
    <rect class="st74" x="93.5" y="32" width=".9" height="149.9" transform="translate(-35.4 47.4) rotate(-24)"/>
    <rect class="st89" x="94.3" y="31.7" width=".9" height="149.9" transform="translate(-35.2 47.7) rotate(-24)"/>
    <rect class="st36" x="95.1" y="31.3" width=".9" height="149.9" transform="translate(-34.9 48) rotate(-24)"/>
    <rect class="st12" x="95.9" y="31" width=".9" height="149.9" transform="translate(-34.7 48.3) rotate(-24)"/>
    <rect class="st57" x="96.7" y="30.6" width=".9" height="149.9" transform="translate(-34.5 48.6) rotate(-24)"/>
    <rect class="st109" x="97.5" y="30.3" width=".9" height="149.9" transform="translate(-34.3 48.9) rotate(-24)"/>
    <rect class="st48" x="98.3" y="29.9" width=".9" height="149.9" transform="translate(-34.1 49.2) rotate(-24)"/>
    <rect class="st73" x="99.1" y="29.6" width=".9" height="149.9" transform="translate(-33.9 49.5) rotate(-24)"/>
    <rect class="st100" x="99.9" y="29.2" width=".9" height="149.9" transform="translate(-33.7 49.8) rotate(-24)"/>
    <rect class="st37" x="100.7" y="28.8" width=".9" height="149.9" transform="translate(-33.5 50) rotate(-24)"/>
    <rect class="st102" x="101.5" y="28.5" width=".9" height="149.9" transform="translate(-33.2 50.3) rotate(-24)"/>
    <rect class="st96" x="102.3" y="28.1" width=".9" height="149.9" transform="translate(-33 50.6) rotate(-24)"/>
    <polygon class="st96" points="72.7 34.4 139 5 147 5 147 165.5 133.6 171.4 72.7 34.4"/>
  </g>
  <g class="st41">
    <path class="st17" d="M131.8,121.8v26.1h29.7v10.9h-29.7v27.1h33.4v11h-47.5v-86.1h47.5v11h-33.4Z"/>
    <path class="st17" d="M183.7,131.1c3.9-6.7,9.2-11.9,16-15.6,6.7-3.8,14.1-5.6,22.1-5.6s17.3,2.2,24.4,6.7c7.1,4.5,12.3,10.9,15.5,19.1h-16.9c-2.2-4.3-5.3-7.5-9.3-9.7-4-2.2-8.5-3.3-13.7-3.3s-10.8,1.3-15.2,3.8c-4.5,2.6-7.9,6.2-10.5,10.9-2.5,4.7-3.8,10.1-3.8,16.3s1.3,11.7,3.8,16.4c2.5,4.7,6,8.4,10.5,10.9,4.5,2.6,9.5,3.8,15.2,3.8s9.8-1.1,13.7-3.3c4-2.2,7.1-5.4,9.3-9.7h16.9c-3.2,8.2-8.4,14.6-15.5,19.1-7.1,4.5-15.3,6.7-24.4,6.7s-15.5-1.9-22.1-5.6c-6.7-3.8-12-9-15.9-15.6-3.9-6.7-5.9-14.2-5.9-22.6s2-16,5.9-22.6Z"/>
    <path class="st17" d="M333.7,110.9v11h-22.9v75h-14.1v-75h-23v-11h60Z"/>
    <path class="st17" d="M365,192.1c-6.7-3.8-12-9-16-15.7-3.9-6.7-5.9-14.3-5.9-22.7s2-16,5.9-22.6c3.9-6.7,9.2-11.9,16-15.6,6.7-3.8,14.1-5.6,22.1-5.6s15.5,1.9,22.2,5.6c6.7,3.8,12,9,15.9,15.6,3.9,6.7,5.8,14.2,5.8,22.6s-1.9,16-5.8,22.7c-3.9,6.7-9.2,12-15.9,15.7-6.7,3.8-14.1,5.6-22.2,5.6s-15.4-1.9-22.1-5.6ZM402.3,181.1c4.5-2.6,7.9-6.3,10.5-11,2.5-4.7,3.8-10.2,3.8-16.4s-1.3-11.6-3.8-16.3c-2.5-4.7-6-8.3-10.5-10.9-4.5-2.6-9.5-3.8-15.2-3.8s-10.8,1.3-15.2,3.8c-4.5,2.6-7.9,6.2-10.5,10.9-2.5,4.7-3.8,10.1-3.8,16.3s1.3,11.7,3.8,16.4c2.5,4.7,6,8.4,10.5,11,4.5,2.6,9.5,3.9,15.2,3.9s10.8-1.3,15.2-3.9Z"/>
    <path class="st17" d="M489.5,196.9l-19.8-34.4h-10.8v34.4h-14.1v-86h29.7c6.6,0,12.2,1.2,16.8,3.5,4.6,2.3,8,5.4,10.3,9.3,2.3,3.9,3.4,8.2,3.4,13s-1.6,10.7-4.9,15.3c-3.3,4.6-8.3,7.7-15,9.3l21.3,35.6h-16.8ZM459,151.4h15.6c5.3,0,9.3-1.3,11.9-4,2.7-2.6,4-6.2,4-10.8s-1.3-8.2-4-10.8c-2.6-2.6-6.6-3.9-12-3.9h-15.6v29.4Z"/>
  </g>
  <g class="st41">
    <path class="st17" d="M30.6,242.9h-11.7v-.4c1.1,0,1.8-.3,2.2-.5.7-.5,1.1-1.1,1.1-1.9s-.2-1.1-.5-2l-.3-.7-1.7-4.2h-7.9l-.9,2.5-.4,1.1c-.5,1.3-.8,2.3-.8,3.1s0,.9.3,1.2.5.7.8.9c.5.3,1.1.5,1.8.6v.4h-8v-.4c.6,0,1.2-.2,1.7-.5.5-.3.9-.7,1.4-1.3.4-.5.8-1.1,1.1-1.9s.8-1.9,1.4-3.5l6.5-16.8h1l7.8,18.8c.6,1.4,1,2.4,1.4,3,.3.6.7,1.1,1.1,1.4.3.2.6.4,1,.5s.9.2,1.7.3v.4ZM19.4,232.4l-3.7-9.2-3.5,9.2h7.3Z"/>
    <path class="st17" d="M42.5,218.6v.4c-.7,0-1.2.1-1.7.3-.4.2-.8.4-1.1.8-.5.5-.7,1.1-.9,2,0,.6-.1,1.4-.1,2.2v13.2c0,1,0,1.8.1,2.3,0,.6.2,1,.5,1.4.3.5.7.8,1.2,1.1.5.2,1.1.4,1.9.4v.4h-11.4v-.4c.7,0,1.2-.1,1.7-.3.4-.2.8-.4,1.1-.7.4-.4.6-.9.8-1.4.1-.6.2-1.5.2-2.7v-13.2c0-1.2,0-2.1-.2-2.7s-.4-1.1-.8-1.4c-.3-.3-.7-.6-1.1-.8-.4-.2-1-.2-1.7-.3v-.4h11.4Z"/>
    <path class="st17" d="M54.3,242.9v-7.4c0,0,.5,0,.5,0,.5,1.9,1.1,3.4,1.8,4.4,1.3,2,2.9,3,4.9,3s2.5-.5,3.4-1.4c.9-.9,1.3-2.1,1.3-3.5s0-1.2-.3-1.9-.5-1.2-.8-1.6c-.3-.5-.8-.9-1.5-1.3-.6-.4-1.6-1-2.9-1.6-1.1-.6-2-1.1-2.6-1.4-.6-.4-1.1-.8-1.5-1.2-1-1.1-1.5-2.5-1.5-4.1s.2-1.9.6-2.9c.4-.9,1-1.7,1.7-2.4,1.3-1.2,2.8-1.7,4.5-1.7s1.1,0,1.6.2c.5.1,1.1.3,1.9.7.6.2,1,.4,1.2.5.2,0,.4,0,.6,0,.4,0,.7-.3.8-.9h.4v7.1c.1,0-.3,0-.3,0-.3-1.1-.6-2-.8-2.6s-.5-1.2-.8-1.7c-.6-.9-1.2-1.6-1.9-2.1s-1.5-.7-2.4-.7c-1.3,0-2.4.5-3.2,1.4-.3.4-.6.8-.8,1.3-.2.5-.3,1-.3,1.5,0,2,1.3,3.6,3.8,4.8l2.5,1.2c1.9.9,3.3,1.9,4.2,3,1,1.2,1.5,2.7,1.5,4.3s-.2,2.1-.7,3.1c-.6,1.4-1.5,2.5-2.8,3.2-1.2.8-2.7,1.1-4.4,1.1s-3-.3-4.4-.9c-.7-.3-1.2-.5-1.3-.6-.1,0-.3,0-.5,0-.6,0-1,.3-1.2.9h-.4Z"/>
    <path class="st17" d="M81.9,219.1c-.7,0-1.6,0-2.4,0-1.8,0-3.2.3-4.1.7s-1.6,1-2.2,1.9c-.5.8-.9,2-1.2,3.4h-.4s.3-6.6.3-6.6h24.1l.3,6.6h-.4c-.3-1.6-.8-2.9-1.5-3.7s-1.7-1.5-3-1.8c-1.1-.3-3-.5-5.6-.5v18.2c0,1.2,0,2.1.2,2.7s.4,1.1.8,1.5c.3.3.7.6,1.1.7.4.2,1,.2,1.7.3v.4h-11.4v-.4c.7,0,1.2-.1,1.7-.3.4-.2.8-.4,1.1-.7.4-.4.6-.9.8-1.4.1-.6.2-1.5.2-2.7v-18.2Z"/>
    <path class="st17" d="M108.5,218.6v.4c-.7,0-1.2.1-1.7.3-.4.2-.8.4-1.1.8-.4.4-.7.9-.8,1.5s-.2,1.6-.2,3.1v10.1c0,1.6,0,2.8.2,3.6s.4,1.4.8,2c.6.9,1.3,1.6,2.1,2,.8.4,1.9.6,3.2.6s2.4-.2,3.5-.6c1.1-.4,2.1-.9,2.8-1.6.5-.4.8-.9,1-1.4.2-.5.4-1.1.4-1.9,0-.5,0-1.6,0-3.5v-10c0-1.2,0-2.1-.2-2.7s-.4-1.1-.8-1.4c-.3-.3-.7-.6-1.1-.8-.4-.2-1-.2-1.7-.3v-.4h8.2v.4c-.7,0-1.2.1-1.7.3-.4.2-.8.4-1.1.8-.4.4-.6.9-.8,1.5s-.2,1.5-.2,2.7v11.3c0,1.7-.1,2.9-.4,3.7-.3.8-.8,1.5-1.5,2.2-1.7,1.5-4.2,2.2-7.4,2.2s-5.8-.7-7.4-2.1c-1-.9-1.7-2.1-1.9-3.6,0-.5-.1-1.5-.1-2.8v-10.8c0-1.2,0-2.1-.2-2.7-.1-.6-.4-1.1-.8-1.4-.3-.3-.7-.6-1.1-.8-.4-.2-1-.2-1.7-.3v-.4h11.4Z"/>
    <path class="st17" d="M124.9,242.5c.7,0,1.2-.1,1.7-.3.4-.2.8-.4,1.1-.7.4-.4.6-.9.8-1.5s.2-1.5.2-2.7v-13.2c0-1.3,0-2.3-.2-2.9-.2-.6-.5-1.1-.9-1.5-.6-.5-1.4-.8-2.6-.8v-.4h9.8c2.2,0,3.6,0,4.2,0,2.5.2,4.6.9,6.4,2.1,1.7,1.2,3,2.7,3.9,4.6.9,1.9,1.4,4,1.4,6.2s-.3,3.2-.8,4.6c-.5,1.5-1.3,2.7-2.2,3.6-1.3,1.4-3,2.2-4.9,2.6-1.5.3-3,.4-4.5.4h-13.2v-.4ZM132.6,219.1v17.7c0,1.2,0,2.1.2,2.7.1.6.4,1.1.7,1.6.8.9,2,1.4,3.7,1.4s2.7-.2,3.8-.7c1-.5,2-1.3,2.8-2.3.8-1,1.4-2.2,1.8-3.6.4-1.3.6-2.8.6-4.3s-.3-3.3-.8-4.8c-.5-1.5-1.2-2.9-2.2-4-1.3-1.6-2.9-2.6-4.7-3.1-1-.3-2.3-.4-3.8-.4h-2.2Z"/>
    <path class="st17" d="M164.5,218.6v.4c-.7,0-1.2.1-1.7.3-.4.2-.8.4-1.1.8-.5.5-.7,1.1-.9,2,0,.6-.1,1.4-.1,2.2v13.2c0,1,0,1.8.1,2.3,0,.6.2,1,.5,1.4.3.5.7.8,1.2,1.1.5.2,1.1.4,1.9.4v.4h-11.4v-.4c.7,0,1.2-.1,1.7-.3.4-.2.8-.4,1.1-.7.4-.4.6-.9.8-1.4.1-.6.2-1.5.2-2.7v-13.2c0-1.2,0-2.1-.2-2.7s-.4-1.1-.8-1.4c-.3-.3-.7-.6-1.1-.8-.4-.2-1-.2-1.7-.3v-.4h11.4Z"/>
    <path class="st17" d="M167.1,230.9c0-2,.4-3.9,1.3-5.6.9-1.7,2.1-3.2,3.7-4.5,1.2-.9,2.5-1.7,4-2.2,1.4-.5,2.8-.8,4.3-.8s3.6.4,5.3,1.2,3.2,1.9,4.5,3.4c2.1,2.4,3.1,5.1,3.1,8.1s-.3,3-.8,4.4c-.5,1.4-1.3,2.7-2.4,3.9-1.3,1.5-2.8,2.6-4.6,3.4-1.8.8-3.6,1.2-5.5,1.2s-3.7-.4-5.4-1.2c-1.7-.8-3.2-1.9-4.5-3.3-1-1.1-1.7-2.4-2.3-3.8s-.8-2.9-.8-4.4ZM171.4,231.2c0,3.5.9,6.4,2.8,8.7.8,1.1,1.7,1.8,2.7,2.3.9.5,2,.7,3.3.7s2.3-.2,3.3-.7c.9-.5,1.8-1.2,2.7-2.3,1.9-2.4,2.8-5.3,2.8-8.8s-.3-3.7-.8-5.4c-.5-1.7-1.2-3.2-2.2-4.3-.8-1-1.6-1.7-2.5-2.1-.9-.4-2-.7-3.3-.7s-2.4.2-3.3.7c-.9.4-1.8,1.2-2.6,2.1-.9,1.2-1.7,2.6-2.2,4.3-.5,1.7-.8,3.6-.8,5.5Z"/>
    <path class="st17" d="M229.9,242.9h-11.7v-.4c1.1,0,1.8-.3,2.2-.5.7-.5,1.1-1.1,1.1-1.9s-.2-1.1-.5-2l-.3-.7-1.7-4.2h-7.9l-.9,2.5-.4,1.1c-.5,1.3-.8,2.3-.8,3.1s0,.9.3,1.2.5.7.8.9c.5.3,1.1.5,1.8.6v.4h-8v-.4c.6,0,1.2-.2,1.7-.5.5-.3.9-.7,1.4-1.3.4-.5.8-1.1,1.1-1.9s.8-1.9,1.4-3.5l6.5-16.8h1l7.8,18.8c.6,1.4,1,2.4,1.4,3,.3.6.7,1.1,1.1,1.4.3.2.6.4,1,.5s.9.2,1.7.3v.4ZM218.7,232.4l-3.7-9.2-3.5,9.2h7.3Z"/>
    <path class="st17" d="M234.9,221.8v15.5c0,1.2,0,2.1.2,2.7.1.6.4,1.1.8,1.4.3.3.7.6,1.1.7.4.2,1,.2,1.7.3v.4h-8.2v-.4c.7,0,1.2-.1,1.7-.3.4-.2.8-.4,1.1-.7.4-.4.6-.9.8-1.5s.2-1.5.2-2.7v-13.2c0-1.2,0-2.1-.2-2.7s-.4-1.1-.8-1.5c-.3-.3-.7-.6-1.1-.8-.4-.2-1-.2-1.7-.3v-.4h6.9l14.5,18.5v-12.9c0-1.2,0-2.1-.2-2.7s-.4-1.1-.8-1.4c-.3-.3-.7-.6-1.1-.8-.4-.2-1-.2-1.7-.3v-.4h8.2v.4c-1.2,0-2.1.3-2.8,1-.4.4-.6.9-.8,1.5s-.2,1.5-.2,2.7v18.8h-.8l-16.8-21.1Z"/>
    <path class="st17" d="M258,242.5c.7,0,1.2-.1,1.7-.3.4-.2.8-.4,1.1-.7.4-.4.6-.9.8-1.5s.2-1.5.2-2.7v-13.2c0-1.3,0-2.3-.2-2.9-.2-.6-.5-1.1-.9-1.5-.6-.5-1.4-.8-2.6-.8v-.4h9.8c2.2,0,3.6,0,4.2,0,2.5.2,4.6.9,6.4,2.1,1.7,1.2,3,2.7,3.9,4.6.9,1.9,1.4,4,1.4,6.2s-.3,3.2-.8,4.6c-.5,1.5-1.3,2.7-2.2,3.6-1.3,1.4-3,2.2-4.9,2.6-1.5.3-3,.4-4.5.4h-13.2v-.4ZM265.7,219.1v17.7c0,1.2,0,2.1.2,2.7.1.6.4,1.1.7,1.6.8.9,2,1.4,3.7,1.4s2.7-.2,3.8-.7c1-.5,2-1.3,2.8-2.3.8-1,1.4-2.2,1.8-3.6.4-1.3.6-2.8.6-4.3s-.3-3.3-.8-4.8c-.5-1.5-1.2-2.9-2.2-4-1.3-1.6-2.9-2.6-4.7-3.1-1-.3-2.3-.4-3.8-.4h-2.2Z"/>
    <path class="st17" d="M305,219.1c-.8,0-1.6,0-2.4,0-1.8,0-3.2.3-4.1.7s-1.6,1-2.2,1.9c-.5.8-.9,2-1.2,3.4h-.4s.3-6.6.3-6.6h24.1l.3,6.6h-.4c-.3-1.6-.8-2.9-1.5-3.7s-1.7-1.5-3-1.8c-1.1-.3-3-.5-5.6-.5v18.2c0,1.2,0,2.1.2,2.7s.4,1.1.8,1.5c.3.3.7.6,1.1.7.4.2,1,.2,1.7.3v.4h-11.4v-.4c.7,0,1.2-.1,1.7-.3.4-.2.8-.4,1.1-.7.4-.4.6-.9.8-1.4.1-.6.2-1.5.2-2.7v-18.2Z"/>
    <path class="st17" d="M339.6,218.6l.3,5.9h-.4c-.2-1-.4-1.8-.8-2.5-.4-.7-.9-1.2-1.6-1.7-.6-.4-1.2-.7-2-.9-.8-.2-1.8-.3-3-.3h-4.1v10.7h1.1c1.1,0,1.9,0,2.4-.2.5-.1,1-.4,1.3-.8.3-.3.6-.8.7-1.2.2-.5.3-1.2.4-2.1h.4s0,9.6,0,9.6h-.4c-.1-.9-.3-1.7-.5-2.2s-.5-1-.9-1.4c-.4-.4-.8-.7-1.4-.8-.6-.2-1.3-.3-2.2-.3h-1v4.1c0,1.6,0,2.8.1,3.6,0,.7.2,1.4.5,1.9.4.9,1,1.5,1.8,1.9.8.4,1.9.6,3.3.6s2.6-.2,3.6-.5c1-.4,1.7-.9,2.4-1.7.4-.5.8-1.1,1-1.7.3-.7.5-1.5.7-2.6h.4s-.2,7.1-.2,7.1h-21.3v-.4c.7,0,1.2-.1,1.7-.3.4-.2.8-.4,1.1-.7.4-.4.6-.9.8-1.5s.2-1.5.2-2.7v-13.2c0-1.2,0-2.1-.2-2.7s-.4-1.1-.8-1.5c-.3-.3-.7-.6-1.1-.8-.4-.2-1-.2-1.7-.3v-.4h19.2Z"/>
    <path class="st17" d="M365.2,218.5l.2,8h-.4c-.1-.3-.2-.6-.3-.8-.4-1.1-.8-2-1-2.6-.5-1-1.1-1.9-2-2.7-.7-.6-1.4-1.1-2.1-1.4-.7-.3-1.5-.4-2.4-.4-1.3,0-2.5.3-3.5.9-.9.5-1.7,1.2-2.4,2.2-.8,1-1.4,2-1.8,3.3-.7,1.7-1,3.7-1,5.9s.2,3.6.7,5.1c.5,1.5,1.1,2.8,2,3.8,1.6,1.9,3.8,2.8,6.5,2.8s2.6-.2,3.7-.7c1.1-.5,1.9-1.1,2.5-2,.7-1,1.2-2.3,1.5-4h.4c-.2,2-.7,3.4-1.5,4.6-.8,1.1-1.8,1.9-3.2,2.4-1.3.6-2.9.8-4.6.8s-3.2-.2-4.7-.7c-2.4-.8-4.3-2.2-5.6-4.3-1.3-2.1-2-4.5-2-7.3s.4-4.2,1.2-6c.8-1.8,1.9-3.3,3.3-4.4,1.1-.9,2.4-1.5,3.9-2s3-.8,4.5-.8,3,.3,4.6.8l1.5.5c.3.1.5.2.7.2s.5-.1.7-.4c0-.1.2-.3.3-.6h.4Z"/>
    <path class="st17" d="M375.3,229.9h12.7v-5.7c0-1.2,0-2.1-.2-2.7-.1-.6-.4-1.1-.8-1.4-.3-.3-.7-.6-1.1-.8-.4-.2-1-.2-1.7-.3v-.4h11.4v.4c-.7,0-1.2.1-1.7.3-.4.2-.8.4-1.1.8-.4.4-.6.9-.8,1.5s-.2,1.5-.2,2.7v13.2c0,1.2,0,2.1.2,2.7s.4,1.1.8,1.5c.3.3.7.6,1.1.7.4.2,1,.3,1.7.3v.4h-11.4v-.4c.7,0,1.2-.1,1.7-.3.4-.2.8-.4,1.1-.7.4-.4.6-.9.8-1.4.1-.6.2-1.5.2-2.7v-6.6h-12.7v6.6c0,1.2,0,2.1.2,2.7.1.6.4,1.1.8,1.5.3.3.7.6,1.1.7.4.2,1,.3,1.7.3v.4h-11.4v-.4c.7,0,1.2-.1,1.7-.3.4-.2.8-.4,1.1-.7.4-.4.6-.9.8-1.4.1-.6.2-1.5.2-2.7v-13.2c0-1.2,0-2.1-.2-2.7s-.4-1.1-.8-1.4c-.3-.3-.7-.6-1.1-.8-.4-.2-1-.2-1.7-.3v-.4h11.4v.4c-.7,0-1.2.1-1.7.3-.4.2-.8.4-1.1.8-.4.4-.6.9-.8,1.5-.1.6-.2,1.5-.2,2.7v5.7Z"/>
    <path class="st17" d="M406.6,242.9v-.4c1.2,0,2.1-.3,2.8-1,.4-.4.6-.9.8-1.5s.2-1.5.2-2.7v-13.2c0-1.3,0-2.2-.2-2.8-.1-.6-.4-1.1-.8-1.5-.3-.3-.7-.5-1.1-.7-.4-.1-.9-.2-1.6-.2v-.4h11.4v.4c-.7,0-1.2.1-1.6.3-.4.1-.8.4-1.1.7-.4.4-.7.9-.8,1.5-.1.6-.2,1.5-.2,2.8v10.3c0,1.6,0,2.8.1,3.5s.2,1.4.5,1.9c.4.9,1,1.5,1.9,1.9.8.4,1.9.6,3.3.6s2.6-.2,3.6-.6,1.8-1,2.4-1.7c.4-.5.8-1.1,1-1.8.3-.7.5-1.6.7-2.7h.4s-.2,7.4-.2,7.4h-21.3Z"/>
    <path class="st17" d="M465.4,242.9v-.4c.7,0,1.2-.1,1.7-.3.4-.2.8-.4,1.1-.7.4-.4.6-.9.8-1.4.1-.6.2-1.5.2-2.7v-13.2c0-1.2,0-2.1-.2-2.7s-.4-1.1-.8-1.4c-.3-.3-.7-.6-1.1-.8-.4-.2-1-.2-1.7-.3v-.4h11.7c1.2,0,2,0,2.3,0,1.4.1,2.5.4,3.4,1,.8.5,1.4,1.1,1.8,1.9.4.8.6,1.6.6,2.6,0,1.6-.5,2.8-1.4,3.8-.3.4-.7.7-1.2.9-.4.2-1.1.5-1.9.8,1.1.2,2,.4,2.7.6.6.2,1.2.5,1.7.9.8.6,1.4,1.4,1.8,2.3.4.9.6,1.9.6,3s-.2,2.1-.7,3-1,1.6-1.8,2.2c-.7.5-1.5.8-2.5,1-1,.2-2.3.3-4.1.3h-13ZM473.1,219.1v10.6h1.4c.7,0,1.4,0,2.1-.1.6,0,1.1-.2,1.5-.3.4-.1.7-.3,1.1-.5.6-.5,1.1-1,1.4-1.7.3-.7.5-1.5.5-2.3s-.2-1.8-.5-2.6c-.3-.8-.8-1.4-1.3-1.9-.5-.4-1-.7-1.7-.8-.6-.1-1.6-.2-2.8-.2h-1.7ZM473.1,230.3v7.4c0,.9,0,1.6.2,2.2.1.5.3,1,.6,1.4.6.8,1.6,1.2,3.1,1.2s3.4-.5,4.5-1.6c1.1-1,1.7-2.5,1.7-4.3s-.2-2-.5-2.9c-.3-.9-.8-1.6-1.4-2-1.1-.9-2.7-1.3-5-1.3h-3.2Z"/>
    <path class="st17" d="M490.9,242.9v-7.4c0,0,.5,0,.5,0,.5,1.9,1.1,3.4,1.8,4.4,1.3,2,2.9,3,4.9,3s2.5-.5,3.4-1.4,1.3-2.1,1.3-3.5,0-1.2-.3-1.9-.5-1.2-.8-1.6c-.3-.5-.8-.9-1.5-1.3-.6-.4-1.6-1-2.9-1.6-1.1-.6-2-1.1-2.6-1.4-.6-.4-1.1-.8-1.5-1.2-1-1.1-1.5-2.5-1.5-4.1s.2-1.9.6-2.9c.4-.9,1-1.7,1.7-2.4,1.3-1.2,2.8-1.7,4.5-1.7s1.1,0,1.6.2,1.1.3,1.9.7c.6.2,1,.4,1.2.5.2,0,.4,0,.6,0,.4,0,.7-.3.8-.9h.4v7.1c.1,0-.3,0-.3,0-.3-1.1-.6-2-.8-2.6-.2-.6-.5-1.2-.8-1.7-.6-.9-1.2-1.6-1.9-2.1-.7-.4-1.5-.7-2.4-.7-1.3,0-2.4.5-3.2,1.4-.3.4-.6.8-.8,1.3-.2.5-.3,1-.3,1.5,0,2,1.3,3.6,3.8,4.8l2.5,1.2c1.9.9,3.3,1.9,4.2,3,1,1.2,1.5,2.7,1.5,4.3s-.2,2.1-.7,3.1c-.6,1.4-1.5,2.5-2.8,3.2-1.2.8-2.7,1.1-4.4,1.1s-3-.3-4.4-.9c-.7-.3-1.2-.5-1.3-.6s-.3,0-.5,0c-.6,0-1,.3-1.2.9h-.4Z"/>
  </g>
  <path class="st16" d="M447.4,242.1h-2.1c-.1,1.4,0,2.5.6,3.1,0-.5.2-.9.5-1.3,0,1.2.4,2.4,1.1,3.3.7-1,1.1-2.1,1.1-3.3.3.4.4.8.5,1.3.5-.7.7-1.7.6-3.1h-2.2Z"/>
  <path class="st16" d="M444,240.9c0,0,0,.2.1.3,0,0,0-.2-.1-.3"/>
  <path class="st16" d="M450.9,240.6v-.3c0,0,0,.2,0,.3"/>
  <path class="st16" d="M442.8,242.9l-2.1-5.6,2.1-1.5c0-4,1.5-8,4.5-10.9,3,2.9,4.6,6.9,4.5,10.9l2.1,1.5-2.1,5.6h9.8l-7.2-12.1-7.2-12.1-7.2,12.1-7.2,12.1h9.8Z"/>
  <path class="st16" d="M447.4,229.9c1.2,0,2.1.9,2.1,2.1s-.9,2.1-2.1,2.1-2.1-.9-2.1-2.1.9-2.1,2.1-2.1"/>
</svg>